<svg xmlns="http://www.w3.org/2000/svg" xmlns:xlink="http://www.w3.org/1999/xlink" width="2560" height="1440" viewBox="0 0 2560 1440">
  <defs>
    <clipPath id="clip-path">
      <rect id="alpha" width="2560" height="1440" fill="#fff"/>
    </clipPath>
    <clipPath id="clip-path-2">
      <rect id="Rectangle_178" data-name="Rectangle 178" width="432.146" height="287.782" fill="#ededed"/>
    </clipPath>
    <clipPath id="clip-path-4">
      <rect id="Rectangle_183" data-name="Rectangle 183" width="760.806" height="486.568" fill="#ededed"/>
    </clipPath>
  </defs>
  <g id="hero__tablet" transform="translate(0 -12886)">
    <rect id="background" width="2560" height="1440" transform="translate(0 12886)" fill="#fe5b00"/>
    <g id="Group_218" data-name="Group 218" transform="translate(1590.903 13510.151)">
      <g id="Group_213" data-name="Group 213" transform="translate(0 0)">
        <g id="Group_212" data-name="Group 212" clip-path="url(#clip-path-2)">
          <path id="Path_1186" data-name="Path 1186" d="M4.56,0H24.1V-3.936H8.544V-34.128H4.56ZM35.616.384h2.976l4.416-2.208,1.1-1.248,2.3,3.456,3.216-2.3L47.76-4.608V-19.152l-1.3-3.264-3.552-2.4-3.456-.864H34.992l-3.072.912-2.3,1.488-1.344,1.248L31.008-19.2l.912-.912,1.488-.96,2.064-.672H38.88l2.352.576,2.016,1.3.528,1.44v3.648L42.624-15.6l-3.216-1.056H36.336l-4.752,1.2L28.032-11.9,27.36-8.64v2.784l2.688,3.888,2.3,1.344Zm.576-3.936-2.256-.672-1.1-.672L31.344-7.008V-8.3l.384-1.68L33.6-11.856l3.168-.864h2.16l2.352.672,1.488.768,1.008,1.056v1.776L43.3-6.96,41.328-4.9l-3.6,1.344ZM55.152,0h3.984V-17.472l1.44-2.064,3.456-2.208H67.1l2.832.816,1.2,1.872V0H75.12V-20.592l-2.928-3.936L67.92-25.68H63.5l-3.168,1.824-1.2,1.056v-2.5H55.152ZM90,.384h4.32L97.3-1.44l1.056-1.1V0h3.936V-36.192H98.3V-23.76l-1.344-.864L94.08-25.68H89.808l-4.8,2.3L81.744-18.96l-1.008,3.5v5.712l1.008,3.408L85.008-1.92Zm.624-3.936L87.6-4.992l-2.3-3.12-.576-2.16v-4.656l.576-2.256,2.3-3.072,2.832-1.536H93.5l1.968.624,1.824,1.2L98.3-18.72v10.9L96.912-5.76l-3.12,2.208ZM117.312.384H121.3l4.416-1.1,3.12-2.064L126.72-5.952l-2.5,1.584-3.264.816h-2.88l-2.928-1.44-2.3-3.12-.624-2.112v-.48h18.528v-5.04l-1.1-3.216-3.216-4.416-4.848-2.3h-4.272l-4.8,2.3-3.264,4.416-1.008,3.5v5.712l1.008,3.408,3.264,4.416ZM112.224-14.64v-.432l.576-2.112,2.256-3.072,2.88-1.488h2.976l2.928,1.536,2.3,3.12.624,1.824v.624ZM141.408.384h4.272l3.264-.96,2.3-1.632,1.824-2.784v-4.08L151.2-12.144l-2.736-1.824-7.344-1.44-1.344-.672-.96-1.3v-2.112l.672-1.152.816-.672,1.824-.528h3.216l2.688.816,2.3,1.584,2.16-3.216-2.88-1.968L145.68-25.68H141.6l-2.976.816-2.16,1.68-1.584,2.736v4.272l2.016,2.784,3.072,1.632,6.912,1.392,1.44,1.008.816,1.392v1.824l-.768,1.2-1.2.864-2.016.576h-3.216l-2.976-.768-1.3-1.008-.912-1.1L133.968-3.7l1.1,1.248,2.256,1.776ZM159.216,0H163.2V-25.008l9.6,21.216h4.032l9.6-21.216V0h3.984V-34.128H186.48L174.816-8.5,163.152-34.128h-3.936Zm46.272.384h3.888l3.168-1.824,1.248-1.1V0h3.936V-25.3h-3.984V-7.824L212.256-5.76,208.848-3.5h-2.736l-2.736-.72L201.984-6.24V-25.3H198V-4.8l3.12,4.032Zm25.248,0h4.272l3.264-.96,2.3-1.632L242.4-4.992v-4.08l-1.872-3.072-2.736-1.824-7.344-1.44L229.1-16.08l-.96-1.3v-2.112l.672-1.152.816-.672,1.824-.528h3.216l2.688.816,2.3,1.584,2.16-3.216-2.88-1.968-3.936-1.056h-4.08l-2.976.816-2.16,1.68-1.584,2.736v4.272l2.016,2.784L229.3-11.76l6.912,1.392,1.44,1.008.816,1.392v1.824l-.768,1.2-1.2.864L234.48-3.5h-3.216l-2.976-.768-1.3-1.008-.912-1.1L223.3-3.7l1.1,1.248,2.256,1.776Zm25.536,0h3.984l4.416-1.1,3.12-2.064L265.68-5.952l-2.5,1.584-3.264.816h-2.88l-2.928-1.44-2.3-3.12-.624-2.112v-.48h18.528v-5.04l-1.1-3.216-3.216-4.416-4.848-2.3h-4.272l-4.8,2.3-3.264,4.416-1.008,3.5v5.712l1.008,3.408,3.264,4.416ZM251.184-14.64v-.432l.576-2.112,2.256-3.072,2.88-1.488h2.976l2.928,1.536,2.3,3.12.624,1.824v.624ZM282.576.384h3.888l3.168-1.824,1.248-1.1V0h3.936V-25.3h-3.984V-7.824L289.344-5.76,285.936-3.5H283.2l-2.736-.72L279.072-6.24V-25.3h-3.984V-4.8l3.12,4.032ZM302.112,0H306.1V-17.472l1.44-2.064,3.456-2.208h3.072l2.448.912,1.2,1.968V0H321.7V-17.28l1.536-2.256,3.36-2.208h3.072l2.448.816,1.2,1.872V0H337.3V-20.592l-2.928-3.936L330.48-25.68h-4.416l-3.36,1.824-2.112,1.824-1.824-2.5L314.88-25.68h-4.416L307.3-23.856,306.1-22.8v-2.5h-3.984Z" transform="translate(0 228.97)" fill="#ededed"/>
          <path id="Path_1185" data-name="Path 1185" d="M1.44-13.632v2.88H22.56v-2.88Z" transform="translate(0 273.193)" fill="#ededed"/>
          <path id="Path_1184" data-name="Path 1184" d="M1.44-13.632v2.88H22.56v-2.88Z" transform="translate(21.601 273.193)" fill="#ededed"/>
        </g>
      </g>
      <path id="Path_1183" data-name="Path 1183" d="M5.029,0H20.3l3.9-1.833,2.256-2.679,1.081-4.512-.987-4.465-1.927-2.773-2.444-1.5,2.444-1.316,1.316-1.88.94-3.666-.94-4.418L23.03-32.289l-4.183-1.128H5.029ZM7.661-19.082v-11.8h10.81l3.149.893,1.974,2.256.658,3.008-.658,2.538L22.7-21.009l-2.914,1.927Zm0,16.544V-16.544H19.646l3.008,1.739,1.5,2.444.752,3.384-.846,3.2L22.325-3.713,19.74-2.538ZM40.561.376H45.5l4.7-2.162,2.256-3.337.987-4.324v-5.781L52.452-19.6,50.2-22.889,45.59-25.145H40.514l-4.653,2.256L33.6-19.6l-.987,4.371v5.781L33.6-5.123l2.256,3.337Zm.329-2.538-3.2-1.5L35.908-6.392,35.25-9.776V-15.04l.705-3.384,1.6-2.444,3.384-1.692H45.12l3.243,1.692,1.786,2.491.658,3.337v5.264l-.658,3.384L48.363-3.666l-3.2,1.5ZM59.643,0h2.632V-17.719l2.632-2.867,2.914-1.974h3.666l3.243.893,1.5,2.4V0h2.632V-20.445l-2.773-3.666-4.042-1.034H67.68l-3.008,1.739-2.4,2.162v-3.525H59.643ZM86.057,0h2.632V-17.719l2.632-2.867,2.914-1.974H97.9l3.243.893,1.5,2.4V0h2.632V-20.445l-2.773-3.666-4.042-1.034H94.094l-3.008,1.739-2.4,2.162v-3.525H86.057Z" transform="translate(46.016 271.925)" fill="#ededed"/>
      <path id="Path_259" data-name="Path 259" d="M39.808,30.507H48.22V94.255H81.056v8.31H39.808Z" transform="translate(16.262 12.463)" fill="#ededed"/>
      <path id="Path_260" data-name="Path 260" d="M131.545,33.4h8.831l22.081,58.714L184.537,33.4h8.831l-27,71.359h-7.828Z" transform="translate(53.737 13.643)" fill="#ededed"/>
      <path id="Path_261" data-name="Path 261" d="M240.344,30.55h29.949l9.409,2.428,7.488,7.488,2.934,10.219L287.393,60.6l-4.958,7.285-5.971,3.135,13.964,31.468h-9.309L268.066,72.539H248.742v29.949h-8.4ZM270.7,64.243l6.071-2.935,2.934-4.349,1.72-5.969-1.72-6.072-4.351-4.351-5.969-1.72h-20.64v25.4Z" transform="translate(98.183 12.48)" fill="#ededed"/>
      <g id="Group_215" data-name="Group 215" transform="translate(0 0)">
        <g id="Group_214" data-name="Group 214" clip-path="url(#clip-path-2)">
          <rect id="Rectangle_179" data-name="Rectangle 179" width="130.72" height="130.72" transform="translate(297.905 13.639)" fill="#ededed"/>
          <path id="Path_262" data-name="Path 262" d="M172.448,140.4h0a65.36,65.36,0,1,1,65.36-65.361A65.361,65.361,0,0,1,172.448,140.4Z" transform="translate(43.746 3.956)" fill="#ededed"/>
          <path id="Path_263" data-name="Path 263" d="M133.122,115.286V40.354L68.228,2.887,3.335,40.354v74.933l64.893,37.466Z" transform="translate(1.362 1.179)" fill="#ededed"/>
        </g>
      </g>
    </g>
    <g id="Group_222" data-name="Group 222" transform="translate(424.951 13410.803)">
      <path id="Path_264" data-name="Path 264" d="M2.553,138.838h7.36V194.61H38.642v7.27H2.553Z" transform="translate(3.795 206.381)" fill="#ededed"/>
      <path id="Path_265" data-name="Path 265" d="M29.094,191.4l-4.257-2.481-4.965-7.183v-5.142l1.243-6.03L27.677,164l8.777-2.215h5.674l5.94,1.949,2.128,1.507V158.5l-.975-2.661L45.5,153.447l-4.346-1.064H34.858l-3.814,1.241L28.3,155.4l-1.683,1.683-5.055-5.229,2.484-2.305L28.3,146.8l5.674-1.683h8.245l6.385,1.594,6.562,4.433,2.394,6.03v26.866L61.016,189l-5.943,4.257-4.257-6.385-2.039,2.3-8.156,4.08h-5.5Zm9.931-5.408,6.649-2.484,3.638-3.812.885-2.75v-3.28l-1.862-1.949-2.748-1.42-4.344-1.243H37.25l-5.851,1.6-3.459,3.459-.709,3.106v2.392l2.748,3.9,2.041,1.241,4.165,1.243Z" transform="translate(29.539 215.711)" fill="#ededed"/>
      <path id="Path_266" data-name="Path 266" d="M40.486,145.823h7.36v4.61l2.218-1.952,5.851-3.367h8.158l7.89,2.126,5.411,7.273v38.038h-7.36v-35.2l-2.218-3.459-5.229-1.507H56.892l-6.385,4.078-2.661,3.812v32.277h-7.36Z" transform="translate(60.181 215.711)" fill="#ededed"/>
      <path id="Path_267" data-name="Path 267" d="M67.388,200.613l-6.03-8.156-1.862-6.3v-10.55l1.862-6.472,6.03-8.158,8.867-4.254h7.892l5.321,1.949,2.481,1.6V137.305h7.36v66.857h-7.27v-4.7L90.087,201.5l-5.5,3.372H76.61ZM83.615,197.6l5.761-4.08,2.573-3.812V169.58l-1.862-2.3-3.369-2.218-3.635-1.151H77.409l-5.234,2.837-4.254,5.674-1.064,4.167v8.6l1.064,3.991,4.254,5.764,5.587,2.661Z" transform="translate(88.44 204.102)" fill="#ededed"/>
      <path id="Path_268" data-name="Path 268" d="M87.8,189l-6.03-8.156-1.862-6.3V164l1.862-6.475,6.03-8.156,8.869-4.257h7.89l8.956,4.257,5.94,8.156,2.039,5.943v9.309H87.27v.885l1.154,3.9,4.257,5.761,5.408,2.661h5.321l6.027-1.507,4.612-2.927,3.9,5.853-5.764,3.812-8.156,2.039h-7.36Zm26.334-23.5v-1.151l-1.151-3.369-4.257-5.764-5.411-2.837h-5.5L92.5,155.133l-4.17,5.674-1.064,3.9v.8Z" transform="translate(118.785 215.711)" fill="#ededed"/>
      <path id="Path_269" data-name="Path 269" d="M105.939,191.311l-4.167-3.282-2.039-2.3,5.142-4.966,1.683,2.039,2.395,1.862,5.5,1.42h5.94l3.727-1.064,2.213-1.6,1.42-2.215v-3.372l-1.507-2.571-2.661-1.862-12.768-2.571-5.674-3.014-3.722-5.145v-7.89l2.924-5.055,3.991-3.1,5.5-1.507h7.537l7.27,1.949,5.321,3.635-3.991,5.943-4.257-2.927-4.966-1.509H114.8l-3.367.977-1.509,1.241-1.241,2.128v3.9l1.773,2.395,2.484,1.241,13.566,2.66,5.055,3.369,3.456,5.674v7.537l-3.369,5.142-4.254,3.016-6.03,1.773h-7.892Z" transform="translate(148.251 215.711)" fill="#ededed"/>
      <path id="Path_270" data-name="Path 270" d="M118.478,138.838h7.27L147.3,186.186l21.545-47.348h7.271v63.042h-7.36v-46.2l-17.734,39.192h-7.447l-17.734-39.192v46.2h-7.36Z" transform="translate(176.115 206.381)" fill="#ededed"/>
      <path id="Path_271" data-name="Path 271" d="M153.045,190.708l-5.764-7.447V145.4h7.36v35.2l2.571,3.722,5.053,1.33h5.055l6.293-4.167,2.75-3.812V145.4h7.36v46.729h-7.27v-4.7l-2.307,2.039-5.851,3.369h-7.181Z" transform="translate(218.93 216.134)" fill="#ededed"/>
      <path id="Path_272" data-name="Path 272" d="M172.28,191.311l-4.167-3.282-2.039-2.3,5.142-4.966L172.9,182.8l2.395,1.862,5.5,1.42h5.94l3.727-1.064,2.213-1.6,1.42-2.215v-3.372l-1.507-2.571-2.661-1.862-12.768-2.571-5.674-3.014-3.722-5.145v-7.89l2.924-5.055,3.991-3.1,5.5-1.507h7.536l7.271,1.949L200.3,150.7l-3.991,5.943-4.257-2.927-4.965-1.509h-5.943l-3.367.977-1.509,1.241-1.241,2.128v3.9l1.773,2.395,2.484,1.241,13.564,2.66,5.058,3.369,3.456,5.674v7.537l-3.369,5.142-4.254,3.016-6.03,1.773h-7.892Z" transform="translate(246.865 215.711)" fill="#ededed"/>
      <path id="Path_273" data-name="Path 273" d="M191.693,189l-6.027-8.156-1.865-6.3V164l1.865-6.475,6.027-8.156,8.869-4.257h7.89l8.956,4.257,5.94,8.156,2.039,5.943v9.309H191.163v.885l1.151,3.9,4.259,5.761,5.406,2.661H207.3l6.025-1.507,4.615-2.927,3.9,5.853-5.764,3.812-8.153,2.039h-7.362Zm26.337-23.5v-1.151l-1.151-3.369-4.259-5.764-5.411-2.837h-5.493l-5.321,2.748-4.167,5.674-1.064,3.9v.8Z" transform="translate(273.216 215.711)" fill="#ededed"/>
      <path id="Path_274" data-name="Path 274" d="M210.255,190.708l-5.764-7.447V145.4h7.357v35.2l2.574,3.722,5.05,1.33h5.055l6.293-4.167,2.75-3.812V145.4h7.362v46.729h-7.271v-4.7l-2.307,2.039-5.851,3.369h-7.183Z" transform="translate(303.973 216.134)" fill="#ededed"/>
      <path id="Path_275" data-name="Path 275" d="M224.567,145.823h7.357v4.61l2.22-1.952L240,145.115h8.158l7.178,2.126,3.372,4.612,3.9-3.372,6.206-3.367h8.153l7.183,2.126,5.411,7.273v38.038H282.2v-35.2l-2.22-3.459-4.52-1.507h-5.677l-6.209,4.078-2.835,4.167v31.922h-7.358V157.7l-2.22-3.635-4.52-1.683h-5.672l-6.388,4.078-2.661,3.812v32.277h-7.357Z" transform="translate(333.815 215.711)" fill="#ededed"/>
      <rect id="Rectangle_181" data-name="Rectangle 181" width="39.015" height="5.319" transform="translate(0.584 460.676)" fill="#ededed"/>
      <rect id="Rectangle_182" data-name="Rectangle 182" width="39.013" height="5.321" transform="translate(38.717 460.676)" fill="#ededed"/>
      <path id="Path_276" data-name="Path 276" d="M40.616,201.878H63.229l5.674,3.28,2.835,4.61,1.42,6.385-1.6,6.027-3.28,3.9L63.405,228.3H40.616Zm0-27.046h20.4l5.938,1.686,3.725,4.257,1.241,5.674-1.241,4.786-1.686,2.218-5.5,3.635H40.616Zm-4.965-4.786v63.042H64.469l7.36-3.459,4.254-5.055,2.039-8.509-1.862-8.424-3.635-5.234-4.61-2.835,4.61-2.484,2.484-3.546,1.775-6.917-1.775-8.335-5.5-6.117-7.892-2.128Z" transform="translate(52.994 252.771)" fill="#ededed"/>
      <path id="Path_277" data-name="Path 277" d="M66.137,216.843,62.766,211.7l-1.238-6.388v-9.928L62.855,189l3.016-4.61,6.38-3.193h7.895l6.117,3.193,3.369,4.7,1.241,6.3v9.928L89.632,211.7l-3.369,5.142-6.027,2.835H72.165Zm5.319-40.522-8.78,4.257-4.254,6.206-1.86,8.248v10.906l1.86,8.158,4.254,6.293,8.869,4.078h9.309l8.867-4.078,4.259-6.293,1.857-8.158V195.032l-1.857-8.248-4.259-6.206-8.69-4.257Z" transform="translate(84.078 262.099)" fill="#ededed"/>
      <path id="Path_278" data-name="Path 278" d="M92.22,176.322l-5.674,3.28-4.523,4.08V177.03H77.058v46.728h4.965V190.33l4.966-5.406,5.5-3.727H99.4l6.119,1.686,2.837,4.523v36.352h4.966v-38.57l-5.232-6.915-7.626-1.952Z" transform="translate(114.544 262.099)" fill="#ededed"/>
      <path id="Path_279" data-name="Path 279" d="M112.247,176.322l-5.674,3.28-4.523,4.08V177.03H97.084v46.728h4.966V190.33l4.963-5.406,5.5-3.727h6.915l6.122,1.686,2.835,4.523v36.352h4.966v-38.57l-5.229-6.915-7.624-1.952Z" transform="translate(144.314 262.099)" fill="#ededed"/>
      <path id="Path_280" data-name="Path 280" d="M38.974,30.508H53.823V143.044H111.79v14.67H38.974Z" transform="translate(57.934 45.349)" fill="#ededed"/>
      <path id="Path_281" data-name="Path 281" d="M130.711,33.4H146.3l38.981,103.649L224.26,33.4h15.59L192.191,159.371h-13.82Z" transform="translate(194.299 49.646)" fill="#ededed"/>
      <path id="Path_282" data-name="Path 282" d="M239.51,30.55h52.87l16.61,4.287,13.218,13.218,5.179,18.039-4.821,17.5-8.752,12.86L303.273,102l24.651,55.548H311.491l-23.042-52.87H254.334v52.87H239.51Zm53.584,59.479,10.717-5.182,5.179-7.678,3.036-10.538L308.99,55.912l-7.681-7.681L290.771,45.2H254.334V90.029Z" transform="translate(356.027 45.412)" fill="#ededed"/>
      <path id="Path_283" data-name="Path 283" d="M220.6,19.618H438.934V237.949H220.6ZM208.169,250.381h243.2V7.183h-243.2Z" transform="translate(309.439 10.677)" fill="#ededed"/>
      <g id="Group_221" data-name="Group 221" transform="translate(0 0)">
        <g id="Group_220" data-name="Group 220" clip-path="url(#clip-path-4)">
          <path id="Path_284" data-name="Path 284" d="M225.352,250.38a121.6,121.6,0,1,1,121.6-121.6,121.736,121.736,0,0,1-121.6,121.6m0-230.763A109.165,109.165,0,1,0,334.518,128.781,109.29,109.29,0,0,0,225.352,19.616" transform="translate(154.227 10.679)" fill="#ededed"/>
          <path id="Path_285" data-name="Path 285" d="M120.776,278.92,0,209.189V69.732L120.776,0,241.552,69.732V209.189ZM12.432,202.011l108.343,62.553,108.343-62.553V76.908L120.776,14.355,12.432,76.908Z" transform="translate(0 0.001)" fill="#ededed"/>
        </g>
      </g>
    </g>
  </g>
</svg>
