<svg xmlns="http://www.w3.org/2000/svg" width="2560" height="2870.304" viewBox="0 0 2560 2870.304">
  <g id="Group_85" data-name="Group 85" transform="translate(0 -11680)">
    <g id="Group_84" data-name="Group 84" transform="translate(0 -104)">
      <path id="Path_2316" data-name="Path 2316" d="M0,0H853.333V1623.344H0Z" transform="translate(853.333 11784)" fill="#696969"/>
      <path id="Path_2317" data-name="Path 2317" d="M0,0H853.333V189.63H0Z" transform="translate(853.333 13528.018)" fill="#696969"/>
      <path id="Path_2318" data-name="Path 2318" d="M0,0H853.333V189.63H0Z" transform="translate(853.333 14464.674)" fill="rgba(105,105,105,0.2)"/>
      <path id="Path_2319" data-name="Path 2319" d="M0,0H853.333V1623.344H0Z" transform="translate(0 11784)" fill="#d6d6d6"/>
      <path id="Path_2320" data-name="Path 2320" d="M0,0H853.333V189.63H0Z" transform="translate(0 13528.018)" fill="#d6d6d6"/>
      <path id="Path_2321" data-name="Path 2321" d="M0,0H853.333V189.63H0Z" transform="translate(0 14464.674)" fill="rgba(214,214,214,0.2)"/>
      <path id="Path_2322" data-name="Path 2322" d="M0,0H853.333V1623.344H0Z" transform="translate(1706.667 11784)" fill="#caff01"/>
      <path id="Path_2323" data-name="Path 2323" d="M0,0H853.333V189.63H0Z" transform="translate(1706.667 13528.018)" fill="#caff01"/>
      <g id="Group_75" data-name="Group 75" transform="translate(0 13528.018)">
        <rect id="Rectangle_60" data-name="Rectangle 60" width="854" height="190" transform="translate(853 -0.018)" fill="rgba(105,105,105,0.8)"/>
        <rect id="Rectangle_61" data-name="Rectangle 61" width="853" height="190" transform="translate(0 -0.018)" fill="rgba(214,214,214,0.8)"/>
        <rect id="Rectangle_62" data-name="Rectangle 62" width="853" height="190" transform="translate(1707 -0.018)" fill="rgba(202,255,1,0.8)"/>
      </g>
      <g id="Group_76" data-name="Group 76" transform="translate(0 13841.194)">
        <rect id="Rectangle_63" data-name="Rectangle 63" width="854" height="190" transform="translate(853 -0.194)" fill="rgba(105,105,105,0.6)"/>
        <rect id="Rectangle_64" data-name="Rectangle 64" width="853" height="190" transform="translate(0 -0.194)" fill="rgba(214,214,214,0.6)"/>
        <rect id="Rectangle_65" data-name="Rectangle 65" width="853" height="190" transform="translate(1707 -0.194)" fill="rgba(202,255,1,0.6)"/>
      </g>
      <g id="Group_77" data-name="Group 77" transform="translate(0 14151.497)">
        <rect id="Rectangle_66" data-name="Rectangle 66" width="854" height="190" transform="translate(853 -0.497)" fill="rgba(105,105,105,0.4)"/>
        <rect id="Rectangle_67" data-name="Rectangle 67" width="853" height="190" transform="translate(0 -0.497)" fill="rgba(214,214,214,0.4)"/>
        <rect id="Rectangle_68" data-name="Rectangle 68" width="853" height="190" transform="translate(1707 -0.497)" fill="rgba(202,255,1,0.4)"/>
      </g>
      <path id="Path_2324" data-name="Path 2324" d="M0,0H853.333V189.63H0Z" transform="translate(1706.667 14464.674)" fill="rgba(202,255,1,0.2)"/>
      <path id="Path_2325" data-name="Path 2325" d="M5.724,5.776H16.757L13.826,19.568H1.5v6.551H12.361l-3.1,14.567H16.5l3.1-14.567h12.24l-3.1,14.567h7.24l3.1-14.567H52.269V19.568H40.546L43.477,5.776H56.493V-.775H44.856l3.1-14.395h-7.24L37.616-.775H25.376l3.1-14.395h-7.24L18.136-.775H5.724ZM24,5.776h12.24L33.306,19.568H21.066Zm71.025,36.2c14.05,0,23.7-8.189,26.979-19.653l-7.5-2.758c-2.5,8.361-9.051,14.653-19.48,14.653C83.9,34.221,73.3,26.032,73.3,10.086S83.9-13.962,95.022-13.962c10,0,16.722,5.172,19.049,14.395l7.844-2.758c-3.1-11.809-12.929-19.394-26.893-19.394-15.17,0-30.341,11.378-30.341,31.806S79.248,41.978,95.022,41.978ZM173.8,40.685h9.137L158.634-20.427h-9.74L124.587,40.685h9.051L140.1,23.619h27.065ZM153.548-11.635l10.6,27.41H143.119Zm46.459,52.321V15h26.031V7.069H200.008V-12.583h28.7v-7.844h-37.15V40.685Zm47.494,0V15h26.031V7.069H247.5V-12.583h28.7v-7.844h-37.15V40.685Zm43.96-27.927c0-8.533,1.552-14.567,4.913-18.1a12.7,12.7,0,0,1,17.756,0c3.362,3.534,4.913,9.568,4.913,18.1s-1.552,14.567-4.913,18.1a12.7,12.7,0,0,1-17.756,0C293.012,27.325,291.461,21.291,291.461,12.758Zm-8.361,0c0,7.671,1.293,14.739,5,20.256,3.62,5.43,9.223,8.964,17.153,8.964s13.533-3.534,17.153-8.964c3.706-5.516,5-12.585,5-20.256s-1.293-14.739-5-20.256c-3.62-5.43-9.223-8.964-17.153-8.964S291.72-12.928,288.1-7.5C284.393-1.981,283.1,5.087,283.1,12.758Zm72.145,27.927V-15.169h-7.413C346.54-9.135,341.2-4.826,333.438-4.653V1.294h13.533V40.685Z" transform="translate(1953.696 13294.83)" fill="#707070"/>
      <path id="Path_2326" data-name="Path 2326" d="M5.724,2.348H16.757L13.826,16.14H1.5V22.69H12.361l-3.1,14.567H16.5L19.6,22.69h12.24l-3.1,14.567h7.24l3.1-14.567H52.269V16.14H40.546L43.477,2.348H56.493V-4.2H44.856l3.1-14.395h-7.24L37.616-4.2H25.376l3.1-14.395h-7.24L18.136-4.2H5.724ZM24,2.348h12.24L33.306,16.14H21.066Zm80.334-19.135c-2.586-1.81-6.982-3.1-12.067-3.1-16.291,0-28.789,11.809-28.789,32.582,0,18.446,11.119,25.859,21.807,25.859,10.947,0,20.687-7.068,20.687-19.049,0-12.154-8.1-19.049-19.135-19.049-7.413,0-12.5,3.534-14.739,7.24.69-11.464,8.016-20,19.653-20a20.968,20.968,0,0,1,10,2.413ZM73.3,19.5c0-7.5,5.6-11.809,12.067-11.809S97.435,12,97.435,19.5c0,7.413-5.516,11.723-12.067,11.723C79.248,31.224,73.3,26.828,73.3,19.5Zm40.684,15.774c2.758,1.9,8.62,3.275,12.929,3.275,18.791,0,27.927-12.24,27.927-32.754,0-17.842-10.774-25.686-21.721-25.686s-20.6,7.758-20.6,19.308c0,12.326,9.654,18.877,19.308,18.877,7.585,0,12.5-3.448,14.481-7.154-.345,10.947-5.861,19.825-19.394,19.825a21.641,21.641,0,0,1-10.171-2.672Zm31.2-36.03c0,7.413-5.861,11.809-12.067,11.809-6.378,0-12.067-4.224-12.067-11.809,0-7.327,5.861-11.723,12.067-11.723C139.24-12.477,145.188-8,145.188-.755Zm58.785-16.032c-2.586-1.81-6.982-3.1-12.067-3.1-16.291,0-28.789,11.809-28.789,32.582,0,18.446,11.119,25.859,21.807,25.859,10.947,0,20.687-7.068,20.687-19.049,0-12.154-8.1-19.049-19.135-19.049-7.413,0-12.5,3.534-14.739,7.24.69-11.464,8.016-20,19.653-20a20.968,20.968,0,0,1,10,2.413ZM172.942,19.5c0-7.5,5.6-11.809,12.067-11.809S197.077,12,197.077,19.5c0,7.413-5.516,11.723-12.067,11.723C178.89,31.224,172.942,26.828,172.942,19.5Zm40.684,15.774c2.758,1.9,8.62,3.275,12.929,3.275,18.791,0,27.927-12.24,27.927-32.754,0-17.842-10.774-25.686-21.721-25.686s-20.6,7.758-20.6,19.308c0,12.326,9.654,18.877,19.308,18.877,7.585,0,12.5-3.448,14.481-7.154-.345,10.947-5.861,19.825-19.394,19.825a21.641,21.641,0,0,1-10.171-2.672Zm31.2-36.03c0,7.413-5.861,11.809-12.067,11.809-6.378,0-12.067-4.224-12.067-11.809,0-7.327,5.861-11.723,12.067-11.723C238.882-12.477,244.829-8,244.829-.755Zm58.785-16.032c-2.586-1.81-6.982-3.1-12.067-3.1-16.291,0-28.789,11.809-28.789,32.582,0,18.446,11.119,25.859,21.807,25.859,10.947,0,20.687-7.068,20.687-19.049,0-12.154-8.1-19.049-19.135-19.049-7.413,0-12.5,3.534-14.739,7.24.69-11.464,8.016-20,19.653-20a20.968,20.968,0,0,1,10,2.413ZM272.584,19.5c0-7.5,5.6-11.809,12.067-11.809S296.719,12,296.719,19.5c0,7.413-5.516,11.723-12.067,11.723C278.532,31.224,272.584,26.828,272.584,19.5Zm40.684,15.774c2.758,1.9,8.62,3.275,12.929,3.275,18.791,0,27.927-12.24,27.927-32.754,0-17.842-10.774-25.686-21.721-25.686S311.8-12.132,311.8-.582c0,12.326,9.654,18.877,19.308,18.877,7.585,0,12.5-3.448,14.481-7.154-.345,10.947-5.861,19.825-19.394,19.825a21.641,21.641,0,0,1-10.171-2.672Zm31.2-36.03c0,7.413-5.861,11.809-12.067,11.809-6.378,0-12.067-4.224-12.067-11.809,0-7.327,5.861-11.723,12.067-11.723C338.524-12.477,344.471-8,344.471-.755Z" transform="translate(1103.236 13298.258)" fill="#d6d6d6"/>
      <path id="Path_2327" data-name="Path 2327" d="M5.724,4.933H16.757L13.826,18.725H1.5v6.551H12.361l-3.1,14.567H16.5l3.1-14.567h12.24l-3.1,14.567h7.24l3.1-14.567H52.269V18.725H40.546L43.477,4.933H56.493V-1.617H44.856l3.1-14.395h-7.24l-3.1,14.395H25.376l3.1-14.395h-7.24l-3.1,14.395H5.724ZM24,4.933h12.24L33.306,18.725H21.066Zm53.01,27.41V-13.771H89.678c11.292,0,20.6,7.758,20.6,23.187,0,15.343-9.481,22.928-20.773,22.928Zm12.757,7.5c15.515,0,29.22-10.43,29.22-30.427,0-20.084-13.533-30.686-29.048-30.686H68.56V39.842ZM168.115-14.2c-2.586-1.81-6.982-3.1-12.067-3.1-16.291,0-28.789,11.809-28.789,32.582,0,18.446,11.119,25.859,21.807,25.859,10.947,0,20.687-7.068,20.687-19.049,0-12.154-8.1-19.049-19.135-19.049-7.413,0-12.5,3.534-14.739,7.24.69-11.464,8.016-20,19.653-20a20.968,20.968,0,0,1,10,2.413Zm-31.03,36.288c0-7.5,5.6-11.809,12.067-11.809s12.067,4.31,12.067,11.809c0,7.413-5.516,11.723-12.067,11.723C143.033,33.809,137.085,29.413,137.085,22.086Zm51.976,10.257V-13.771h12.671c11.292,0,20.6,7.758,20.6,23.187,0,15.343-9.481,22.928-20.773,22.928Zm12.757,7.5c15.515,0,29.22-10.43,29.22-30.427,0-20.084-13.533-30.686-29.048-30.686H180.614V39.842ZM280.169-14.2c-2.586-1.81-6.982-3.1-12.067-3.1-16.291,0-28.789,11.809-28.789,32.582,0,18.446,11.119,25.859,21.807,25.859,10.947,0,20.687-7.068,20.687-19.049,0-12.154-8.1-19.049-19.135-19.049-7.413,0-12.5,3.534-14.739,7.24.69-11.464,8.016-20,19.653-20a20.968,20.968,0,0,1,10,2.413Zm-31.03,36.288c0-7.5,5.6-11.809,12.067-11.809s12.067,4.31,12.067,11.809c0,7.413-5.516,11.723-12.067,11.723C255.087,33.809,249.139,29.413,249.139,22.086Zm51.976,10.257V-13.771h12.671c11.292,0,20.6,7.758,20.6,23.187,0,15.343-9.482,22.928-20.773,22.928Zm12.757,7.5c15.515,0,29.22-10.43,29.22-30.427,0-20.084-13.533-30.686-29.048-30.686H292.668V39.842ZM392.223-14.2c-2.586-1.81-6.982-3.1-12.067-3.1-16.291,0-28.789,11.809-28.789,32.582,0,18.446,11.119,25.859,21.807,25.859,10.947,0,20.687-7.068,20.687-19.049,0-12.154-8.1-19.049-19.135-19.049-7.413,0-12.5,3.534-14.739,7.24.69-11.464,8.016-20,19.653-20a20.967,20.967,0,0,1,10,2.413Zm-31.03,36.288c0-7.5,5.6-11.809,12.067-11.809s12.067,4.31,12.067,11.809c0,7.413-5.517,11.723-12.067,11.723C367.14,33.809,361.193,29.413,361.193,22.086Z" transform="translate(229.791 13295.673)" fill="#fff"/>
    </g>
  </g>
</svg>
