<svg xmlns="http://www.w3.org/2000/svg" width="2560.501" height="2880" viewBox="0 0 2560.501 2880">
  <g id="typo" transform="translate(-981 -2324)">
    <path id="bg" d="M0,0H2560V1441H0Z" transform="translate(981 3763)" fill="#31b1cb"/>
    <path id="bg-2" data-name="bg" d="M0,0H2560V1441H0Z" transform="translate(981 2324)" fill="#d8d1c9"/>
    <path id="Intersection_2" data-name="Intersection 2" d="M645.436,621.209V550.363a455.2,455.2,0,0,0,84.67,25.919,445.422,445.422,0,0,0,90.72,9.5q44.405,0,75.543-10.188v66.627q-35.4,7.929-78.135,7.929Q705.912,650.154,645.436,621.209ZM75.814,564.834Q0,479.514,0,324,0,169.774,76.03,84.888T292.028,0q136.08,0,212.543,86.4t76.461,238.461q0,151.633-76.68,238.462T291.165,650.154Q151.627,650.154,75.814,564.834ZM132.4,131.976Q77.757,198.283,77.756,324.859q0,128.3,54.648,194.616t158.761,66.312q104.974,0,158.542-66.1t53.566-194.832q0-127.438-53.351-193.315T292.028,65.664Q187.055,65.664,132.4,131.976ZM817.37,347.758q-88.126-31.537-125.929-74.735t-37.8-112.752q0-73.008,54.861-116.207T853.657.862q21.762,0,42.711,1.846V69.446a343.734,343.734,0,0,0-44.44-2.919q-58.318,0-91.151,25.056t-32.828,69.551q0,32.834,12.095,53.785t40.821,38.445q28.729,17.5,87.911,38.666,14.452,5.152,27.593,10.414V380Q866.721,365.333,817.37,347.758Z" transform="translate(2644.633 3757.275)" fill="#fff" stroke="rgba(0,0,0,0)" stroke-miterlimit="10" stroke-width="1"/>
    <path id="snd2014" d="M526.057,59.28v9.086H514.439V88.454h-9.681V68.365H467.112V58.442l39.1-55.779h8.229V59.28ZM504.758,17.3h-.242L475.956,59.28h28.8Zm-70,71.158V26.977H412.487V18.748a52.559,52.559,0,0,0,8.471-.67,23.1,23.1,0,0,0,7.447-2.476,17.037,17.037,0,0,0,5.623-4.952,18.691,18.691,0,0,0,3.146-7.987h7.875V88.454ZM340.529,36.528a64.809,64.809,0,0,1,1.21-9.923,47.305,47.305,0,0,1,2.774-9.179,24.368,24.368,0,0,1,4.971-7.633A22.642,22.642,0,0,1,357.4,4.58a35.087,35.087,0,0,1,22.882,0,22.9,22.9,0,0,1,7.931,5.213,24.647,24.647,0,0,1,4.952,7.633,48.665,48.665,0,0,1,2.793,9.179,69.8,69.8,0,0,1,1.21,9.923c.149,3.407.242,6.665.242,9.812s-.093,6.423-.242,9.812a69.216,69.216,0,0,1-1.21,9.9,47.475,47.475,0,0,1-2.793,9.141,25.055,25.055,0,0,1-4.952,7.578,22.079,22.079,0,0,1-7.875,5.139,36.254,36.254,0,0,1-22.937,0,21.752,21.752,0,0,1-7.913-5.139,24.765,24.765,0,0,1-4.971-7.578,46.175,46.175,0,0,1-2.774-9.141,64.286,64.286,0,0,1-1.21-9.9c-.168-3.388-.242-6.665-.242-9.812s.074-6.4.242-9.812m10.947,20.517a45.385,45.385,0,0,0,1.936,11.264,21.241,21.241,0,0,0,5.269,8.9q3.631,3.6,10.165,3.612t10.165-3.612a21.207,21.207,0,0,0,5.25-8.9A44.541,44.541,0,0,0,386.2,57.045c.2-3.984.316-7.6.316-10.817,0-2.1-.019-4.431-.074-6.963a61.994,61.994,0,0,0-.6-7.633,57.166,57.166,0,0,0-1.583-7.429,19.565,19.565,0,0,0-3.016-6.367,15.943,15.943,0,0,0-5.027-4.412,16.929,16.929,0,0,0-14.764,0,15.943,15.943,0,0,0-5.027,4.412,19.953,19.953,0,0,0-3.016,6.367,57.171,57.171,0,0,0-1.583,7.429,61.994,61.994,0,0,0-.6,7.633c-.037,2.532-.056,4.859-.056,6.963,0,3.221.093,6.833.3,10.817M273.56,20.927a25.7,25.7,0,0,1,5.25-9.625,24.647,24.647,0,0,1,8.9-6.349,30.363,30.363,0,0,1,12.1-2.29,33.11,33.11,0,0,1,10.463,1.62,25.426,25.426,0,0,1,8.546,4.729,21.665,21.665,0,0,1,5.734,7.689,25.082,25.082,0,0,1,2.122,10.631,26.7,26.7,0,0,1-1.75,10.054,28.525,28.525,0,0,1-4.654,7.8,39.367,39.367,0,0,1-6.665,6.237q-3.742,2.793-7.745,5.325c-2.662,1.62-5.325,3.2-7.987,4.785a62.244,62.244,0,0,0-7.317,5.008,34.609,34.609,0,0,0-5.7,5.753,16.476,16.476,0,0,0-3.072,7.075h44.05v9.086H269.8a46.382,46.382,0,0,1,2.718-13.014,35.169,35.169,0,0,1,5.4-9.383,41.765,41.765,0,0,1,7.373-7.019,102.521,102.521,0,0,1,8.6-5.678q5.446-3.379,9.551-6.237a42.323,42.323,0,0,0,6.833-5.753,19.858,19.858,0,0,0,4.115-6.293,20.481,20.481,0,0,0,1.4-7.857,14.955,14.955,0,0,0-1.322-6.349,15.392,15.392,0,0,0-8.844-8.062,18.733,18.733,0,0,0-6.4-1.08,14.988,14.988,0,0,0-7.689,1.88,16.188,16.188,0,0,0-5.269,4.9,20.155,20.155,0,0,0-2.96,6.833,28.271,28.271,0,0,0-.782,7.689h-10.3a34.528,34.528,0,0,1,1.34-12.1M218,2.048A44.547,44.547,0,0,1,233.55,4.71,33.684,33.684,0,0,1,246.024,12.7a37.01,37.01,0,0,1,8.229,13.312,53.953,53.953,0,0,1,2.96,18.767,59.83,59.83,0,0,1-2.42,17.426A38.735,38.735,0,0,1,247.476,76a34.436,34.436,0,0,1-12.232,9.123A41.4,41.4,0,0,1,218,88.454H180.73V2.048ZM216.682,72.48a24.78,24.78,0,0,0,7.987-1.322,17.592,17.592,0,0,0,6.889-4.431,22.13,22.13,0,0,0,4.841-8.043,35.389,35.389,0,0,0,1.825-12.1,49.952,49.952,0,0,0-1.285-11.8,23.4,23.4,0,0,0-4.17-9.011,18.573,18.573,0,0,0-7.689-5.753,30.8,30.8,0,0,0-11.785-1.992H199.739V72.48ZM106.724,2.048l36.063,57.976h.242V2.048h17.78V88.454h-18.99L105.868,30.608h-.242V88.454H87.845V2.048ZM19.964,67.155a13.715,13.715,0,0,0,4.17,4.9,18.318,18.318,0,0,0,6.125,2.793,29.169,29.169,0,0,0,7.261.912,38.006,38.006,0,0,0,5.436-.428,18.936,18.936,0,0,0,5.455-1.638,11.812,11.812,0,0,0,4.226-3.333,8.307,8.307,0,0,0,1.694-5.381,7.629,7.629,0,0,0-2.234-5.7,17.469,17.469,0,0,0-5.846-3.612A60.148,60.148,0,0,0,38,53.117c-3.053-.726-6.181-1.527-9.328-2.42a81.654,81.654,0,0,1-9.439-2.96,32.243,32.243,0,0,1-8.229-4.543,21.306,21.306,0,0,1-5.865-6.963A21.342,21.342,0,0,1,2.91,26.121,22.529,22.529,0,0,1,5.74,14.578,25.881,25.881,0,0,1,13.187,6.4,32.365,32.365,0,0,1,23.595,1.564,44.52,44.52,0,0,1,35.212,0,55,55,0,0,1,48.226,1.508,32.658,32.658,0,0,1,59.3,6.4a24.6,24.6,0,0,1,7.689,8.657,26.452,26.452,0,0,1,2.83,12.753H51.447a15.608,15.608,0,0,0-1.657-6.4,10.681,10.681,0,0,0-3.668-3.984,15.9,15.9,0,0,0-5.269-2.067,32.221,32.221,0,0,0-6.479-.6,21.324,21.324,0,0,0-4.6.484,11.887,11.887,0,0,0-4.189,1.694,10.319,10.319,0,0,0-3.072,3.016,8.014,8.014,0,0,0-1.21,4.6,7.694,7.694,0,0,0,.968,4.115,8.584,8.584,0,0,0,3.8,2.9,48.86,48.86,0,0,0,7.875,2.662c3.351.894,7.726,2.011,13.126,3.388,1.62.317,3.854.912,6.721,1.75a32.7,32.7,0,0,1,8.546,4.059,25.34,25.34,0,0,1,7.3,7.447c2.085,3.109,3.109,7.075,3.109,11.916a26.422,26.422,0,0,1-2.309,11,23.482,23.482,0,0,1-6.851,8.788,32.656,32.656,0,0,1-11.245,5.734A52.931,52.931,0,0,1,36.795,90.39a54.575,54.575,0,0,1-13.87-1.75,34.83,34.83,0,0,1-11.841-5.511A26.81,26.81,0,0,1,2.91,73.56a28.391,28.391,0,0,1-2.9-13.777H18.4a15.869,15.869,0,0,0,1.564,7.373" transform="translate(1100.86 2554.006)" fill="#31b1cb"/>
    <path id="Path_92" data-name="Path 92" d="M41.479,33.678h7.154L45.412,23.349H23.333L20.111,33.678h7.581V46.66H.448V33.678H5.8L25.37-25.168h19L63.511,33.678h5.212V46.66H41.479ZM27.076,11.22h14.5l-7.3-23.358Zm91.065,4.217H104.827v-5.07a22.332,22.332,0,0,0-3.554.261,9.533,9.533,0,0,0-2.819.877,5.9,5.9,0,0,0-2.037,1.706,6.586,6.586,0,0,0-1.161,2.7V33.678h10V46.66H73.224V33.678h7.344V10.557H73.319V-2.425H95.161V1.033a15.712,15.712,0,0,1,4.691-2.559,17.307,17.307,0,0,1,5.686-.9q3.127,0,6.444.047t6.159.047Zm6.207-17.862H149.98V10.557h-5.97l8.007,21.084,7.723-21.084h-5.307V-2.425h25.633V10.557h-6.538L158.887,46.85H144.437L129.8,10.557h-5.449Zm61.026,24.353a25.989,25.989,0,0,1,1.943-10.045,25.091,25.091,0,0,1,13.645-13.74,28.232,28.232,0,0,1,21.06,0,25.365,25.365,0,0,1,8.268,5.543,25.046,25.046,0,0,1,5.378,8.2,26.269,26.269,0,0,1,1.919,10.045A27.035,27.035,0,0,1,235.714,32a24.557,24.557,0,0,1-13.551,13.811,29.158,29.158,0,0,1-21.416,0,24.394,24.394,0,0,1-13.5-13.764A27.164,27.164,0,0,1,185.373,21.928Zm14.167,0a13.6,13.6,0,0,0,.948,5.141,12.612,12.612,0,0,0,2.582,4.051,11.75,11.75,0,0,0,3.79,2.653,11.352,11.352,0,0,0,4.62.948,11.722,11.722,0,0,0,4.667-.924,10.946,10.946,0,0,0,3.743-2.63,12.39,12.39,0,0,0,2.487-4.051,14.37,14.37,0,0,0,.9-5.188,14.843,14.843,0,0,0-.9-5.307,11.807,11.807,0,0,0-2.487-4.027,10.7,10.7,0,0,0-3.743-2.535,11.677,11.677,0,0,0-4.667-.829,11.546,11.546,0,0,0-4.62.829,11.183,11.183,0,0,0-3.79,2.535,12.01,12.01,0,0,0-2.582,4.027A14.178,14.178,0,0,0,199.54,21.928Zm136.265-10q0,16.63-8.41,26.154t-23.382,9.523q-15.3,0-23.619-9.358t-8.315-26.414q0-16.915,8.339-26.225t23.69-9.31q14.925,0,23.311,9.476T335.8,11.931Zm-55.2,0q0,14.072,5.994,21.345t17.412,7.273q11.513,0,17.389-7.249t5.875-21.368q0-13.977-5.851-21.2T304.108-16.5q-11.513,0-17.507,7.273T280.607,11.931ZM374.23,47.608a22.473,22.473,0,0,1-9.263-1.872,17.42,17.42,0,0,1-7.036-5.757h-.569a69.649,69.649,0,0,1,.569,8.623V69.971h-7.865V-5.268h6.4l1.09,7.107h.379a18.266,18.266,0,0,1,7.06-6.159,21.461,21.461,0,0,1,9.239-1.9q10.329,0,15.943,7.06t5.615,19.8q0,12.793-5.709,19.876T374.23,47.608ZM373.093.465q-7.96,0-11.513,4.406T357.932,18.9v1.753q0,10.945,3.648,15.659t11.7,4.714a12.169,12.169,0,0,0,10.542-5.449q3.814-5.449,3.814-15.02,0-9.713-3.814-14.9A12.545,12.545,0,0,0,373.093.465Zm58.372,47.143q-11.513,0-18.17-7.012t-6.657-19.473q0-12.556,6.183-19.947t16.607-7.391q9.76,0,15.446,6.42t5.686,16.938v4.975H414.788q.237,9.144,4.62,13.882t12.343,4.738a41.826,41.826,0,0,0,16.583-3.506v7.012a41.621,41.621,0,0,1-7.889,2.582A44.333,44.333,0,0,1,431.466,47.608ZM429.333.37a12.844,12.844,0,0,0-9.974,4.075q-3.719,4.075-4.383,11.276h27.149q0-7.439-3.317-11.395T429.333.37ZM499.5,46.66V13.068q0-6.349-2.89-9.476T487.564.465q-8.149,0-11.94,4.406t-3.79,14.546V46.66h-7.865V-5.268h6.4l1.279,7.107h.379A16.059,16.059,0,0,1,478.8-4.107a22.014,22.014,0,0,1,9.713-2.108q9.381,0,14.119,4.525t4.738,14.475V46.66ZM563.8,28.229q0,9.144-6.633,14.261t-18,5.117q-12.319,0-18.952-3.174v-7.77a49.9,49.9,0,0,0,9.287,2.843,48.859,48.859,0,0,0,9.95,1.042q8.055,0,12.129-3.056a10.029,10.029,0,0,0,4.075-8.5,10.917,10.917,0,0,0-1.445-5.9,13.425,13.425,0,0,0-4.833-4.241,67.612,67.612,0,0,0-10.305-4.406q-9.666-3.459-13.811-8.2T521.109-6.121a15.38,15.38,0,0,1,6.017-12.745q6.017-4.738,15.92-4.738a46.917,46.917,0,0,1,19,3.79L559.534-12.8a42.937,42.937,0,0,0-16.678-3.6q-6.4,0-10,2.748a9.056,9.056,0,0,0-3.6,7.628,11.691,11.691,0,0,0,1.327,5.9,12.49,12.49,0,0,0,4.477,4.217A55.631,55.631,0,0,0,544.7,8.33q10.9,3.885,15,8.339T563.8,28.229ZM608.715,46.66l-1.564-7.391h-.379a21.852,21.852,0,0,1-7.747,6.61,23.612,23.612,0,0,1-9.642,1.729q-7.723,0-12.106-3.98T572.9,32.3q0-15.73,25.159-16.488l8.813-.284V12.31q0-6.112-2.63-9.026T595.827.37q-6.491,0-14.688,3.98l-2.416-6.017a36.958,36.958,0,0,1,8.41-3.269A36.424,36.424,0,0,1,596.3-6.121q9.287,0,13.764,4.122t4.477,13.219V46.66Zm-17.768-5.543q7.344,0,11.537-4.027t4.193-11.276V21.122l-7.865.332q-9.381.332-13.527,2.914T581.139,32.4a8.1,8.1,0,0,0,2.582,6.491Q586.3,41.117,590.947,41.117Zm75.334,5.543V13.068q0-6.349-2.89-9.476T654.342.465q-8.149,0-11.94,4.406t-3.79,14.546V46.66h-7.865V-5.268h6.4l1.279,7.107h.379a16.059,16.059,0,0,1,6.775-5.946,22.014,22.014,0,0,1,9.713-2.108q9.381,0,14.119,4.525t4.738,14.475V46.66ZM723.8,32.494q0,7.249-5.4,11.182t-15.162,3.933q-10.329,0-16.109-3.269v-7.3a38.956,38.956,0,0,0,8.031,2.985,33.537,33.537,0,0,0,8.268,1.09q6.159,0,9.476-1.966a6.77,6.77,0,0,0,.687-11.182q-2.63-2.156-10.258-5.093a55.624,55.624,0,0,1-10.305-4.714,14.077,14.077,0,0,1-4.549-4.572,11.924,11.924,0,0,1-1.492-6.112,11.651,11.651,0,0,1,5.164-10.021q5.164-3.672,14.167-3.672A41.451,41.451,0,0,1,722.711-2.8l-2.8,6.4A37.63,37.63,0,0,0,705.749.37q-5.591,0-8.434,1.753a5.421,5.421,0,0,0-2.843,4.833,5.886,5.886,0,0,0,1.066,3.554,10.52,10.52,0,0,0,3.435,2.8,76.763,76.763,0,0,0,9.1,3.838q9.239,3.364,12.485,6.775A11.948,11.948,0,0,1,723.8,32.494Z" transform="translate(1903.659 3818.955)" fill="#fff"/>
    <path id="Intersection_1" data-name="Intersection 1" d="M1849.691,923.2,1662.5,459.165h-70.032V292.307h326.072V459.165h-73.35l73.35,193.138V923.2Zm-914.308,0V756.343h94.394V459.165H936.6V292.307h280.74V336.76a202.005,202.005,0,0,1,60.287-32.886q33.491-11.568,73.076-11.567,40.2,0,82.82.609t79.167.608V521.889H1341.57V456.729a287.478,287.478,0,0,0-45.674,3.347q-20.7,3.35-36.231,11.269a75.751,75.751,0,0,0-26.186,21.923q-10.661,14.007-14.921,34.712V756.343h128.494V923.2Zm-408.013,0V756.343h91.955L577.918,623.588H294.134L252.725,756.343H350.16V923.2H0V756.343H68.814L320.322,0h244.2L810.546,756.343h66.985V923.2ZM342.245,467.691H528.588L434.81,167.467Z" transform="translate(1622.458 2840.856)" fill="#fff"/>
  </g>
</svg>
