<svg xmlns="http://www.w3.org/2000/svg" xmlns:xlink="http://www.w3.org/1999/xlink" width="2560" height="2880" viewBox="0 0 2560 2880">
  <defs>
    <clipPath id="clip-path">
      <rect id="Rectangle_154" data-name="Rectangle 154" width="2560" height="2880" transform="translate(981 2187)" fill="#fff" stroke="#707070" stroke-width="1"/>
    </clipPath>
  </defs>
  <g id="Mask_Group_16" data-name="Mask Group 16" transform="translate(-981 -2187)" clip-path="url(#clip-path)">
    <path id="Path_342" data-name="Path 342" d="M0,0H2562.854V2882.271H0Z" transform="translate(978.146 2184.504)" fill="#dfd8ce"/>
    <path id="Path_4459" data-name="Path 4459" d="M407.635,897.56a85.1,85.1,0,0,0,47.97-17.864,391.549,391.549,0,0,0,63.466-61.18,84.526,84.526,0,0,0,20.292-57.524c-.587-22.658-1.07-45.005-1.76-67.491a67.32,67.32,0,0,0-9.249-29.452,37.58,37.58,0,0,0-28.437-20.692,171.774,171.774,0,0,0-77.1,5.139A35.425,35.425,0,0,0,397.7,678.637c-1.76,11.932-.759,24.279-2.347,36.246a50.92,50.92,0,0,1-47.073,47.661,68.342,68.342,0,0,1-15.5,1.276c-26.159-.345-51.973-.9-77.926-1.483A135.326,135.326,0,0,1,209.37,752.4a37.944,37.944,0,0,1-22.915-26.486,38.359,38.359,0,0,1-1.9-10.174c-.414-36.384-6.039-72.388-7.7-108.634-1.242-27.659-.483-55.524-.483-83.114a363.9,363.9,0,0,1,4.314-62.076A219.875,219.875,0,0,0,181,389.5a768.974,768.974,0,0,1-4-119.221,157.854,157.854,0,0,1,10.008-50.765,43.781,43.781,0,0,1,28.92-27.969,167.313,167.313,0,0,1,66.537-8.656c22.4,2,44.83,4.1,67.262,5.794a46.813,46.813,0,0,1,47.867,50.282A165.835,165.835,0,0,0,399.456,270a44.5,44.5,0,0,0,32.406,36.729,143.8,143.8,0,0,0,61.671,4.518A96.368,96.368,0,0,0,518,303.074a33.01,33.01,0,0,0,16.358-19.313,41.671,41.671,0,0,0,3.451-15.105c.207-27.693.69-55.49-.449-83.079A82.948,82.948,0,0,0,513.2,129.639c-17.255-17.312-33.959-34.763-51.766-51.213a96.086,96.086,0,0,0-81.1-26.383,176.918,176.918,0,0,1-51.766,0,973.467,973.467,0,0,0-155.61-5.38,65.6,65.6,0,0,0-38.618,13.553A138.023,138.023,0,0,0,114.327,76.7c-17.7,18.933-35.27,38.143-52.215,57.8a77.047,77.047,0,0,0-19.464,52.42v15.554q-.207,119.5-.38,238.96a834.56,834.56,0,0,0,5.8,114.014,192.34,192.34,0,0,1,0,51.73,919.924,919.924,0,0,0-5.487,124.429,295.864,295.864,0,0,0,1.553,36.28,101.248,101.248,0,0,0,20.707,52.524A451.928,451.928,0,0,0,130.409,886.8a49.127,49.127,0,0,0,28.437,11.622c13.8.793,27.609.862,41.413.552,27.712-.621,55.39-1.655,77.581-2.38a773.129,773.129,0,0,0,129.8.966ZM785.017,41.594h-62.4c-10.353.034-20.706.034-31.06.724A41.607,41.607,0,0,0,653.393,78.84a430.46,430.46,0,0,0,0,57.007,56.092,56.092,0,0,0,14.736,32.659,224.769,224.769,0,0,0,18.463,18.244,75.847,75.847,0,0,1,24.468,55.49c.69,17.312-.345,34.728.69,51.972,3.727,60.628,1.933,121.256-.276,181.85-1.656,45.04-1.864,90.045,0,135.085.759,20.761.759,41.66.759,62.352a131.8,131.8,0,0,1-5.625,35.8,76.206,76.206,0,0,1-23.709,39.35c-34.856,29.969-33.855,36.867-33.338,81.7.1,8.691.483,17.312,1.311,25.934a47.231,47.231,0,0,0,44.864,42.833,229.427,229.427,0,0,0,46.693-.793A647.894,647.894,0,0,1,861.7,892.9a129.716,129.716,0,0,0,25.814-2,24.706,24.706,0,0,0,19.292-15.657,133.928,133.928,0,0,0,6.454-76.6,57.965,57.965,0,0,0-23.467-39.143c-4.279-2.931-8.283-6.277-12.355-9.484a54.893,54.893,0,0,1-21.673-39.9c-2.485-32.9-5.694-65.56-6.9-98.426-1.864-50.179-2.726-100.426-.345-150.674.9-19-.794-38.108-.587-57.145.345-27.693.242-55.455,2.45-83.045a172.591,172.591,0,0,0-.414-51.73,56.939,56.939,0,0,1-1.38-15.485,73.049,73.049,0,0,1,21.293-56.7c48.557-39.763,35.96-40.074,42.862-88.6.518-3.449,1.173-6.9,1.691-10.346A62.036,62.036,0,0,0,909.6,67.528,37.474,37.474,0,0,0,878.542,42.9a147.024,147.024,0,0,0-25.883-1.38H785.017Zm302.738,565.966c.725,24.21,1.07,48.558,1.07,72.7a82.745,82.745,0,0,1-31.06,68.422,129.239,129.239,0,0,0-18.394,18.209,38.647,38.647,0,0,0-10.043,23.52c-.759,26.072-1.1,51.868-.759,77.8a35.807,35.807,0,0,0,26.781,28.728,96.415,96.415,0,0,0,15.426,1.69q72.715.793,145.5,1.069a233.4,233.4,0,0,0,31.06-1.655,43.5,43.5,0,0,0,36.547-38.453c.828-19.14.518-38.074,0-57.076a51.713,51.713,0,0,0-14.011-32.832c-8.007-9.07-17.221-17.036-25.642-25.693a43.273,43.273,0,0,1-12.217-22.52,110.285,110.285,0,0,1-4.245-30.659c6.177-53.627.621-107.289,2.071-160.916.414-15.623.863-31.142,1.9-46.661a59.352,59.352,0,0,1,4.141-14.864,23.06,23.06,0,0,1,34.1-11.484,76.094,76.094,0,0,1,27.022,30.8,210.851,210.851,0,0,1,10.733,23.624,453.989,453.989,0,0,0,32.2,65.043,1366.59,1366.59,0,0,1,67.5,128.705,888.439,888.439,0,0,0,45.175,81.734c15.53,26.934,27.54,55.662,42.276,83.252a53.532,53.532,0,0,0,47,27.934c17.463,1,34.718.379,51.973,0a52.247,52.247,0,0,0,15.254-2.621,41.087,41.087,0,0,0,30.715-31.866,181.664,181.664,0,0,0,4.521-66.939,495.809,495.809,0,0,1-5.832-103.461c2.726-77.871,1.656-155.778,1.656-233.649V262.1a125.469,125.469,0,0,1,.828-20.692,64.2,64.2,0,0,1,23.778-44.557,153.425,153.425,0,0,0,20.155-16.278,46.44,46.44,0,0,0,14.564-32.383c.1-22.623.138-45.006-.725-67.457A35.292,35.292,0,0,0,1668.539,49.7c-3.451-.345-6.9-.931-10.353-.931-53.7-.483-107.4-1-161.1-1.241a216.018,216.018,0,0,0-25.849,1.793A34.778,34.778,0,0,0,1445.633,72.6a80.523,80.523,0,0,0-2.657,15.278c-.414,10.346.483,20.692-.207,31.038a81.641,81.641,0,0,0,33.614,77.044,56.619,56.619,0,0,1,20.327,35.315,238.56,238.56,0,0,1,6.7,51.351q-.518,64.939-.276,129.878a165.6,165.6,0,0,1-7.144,46.006,66.119,66.119,0,0,1-6.592,13.967,20.4,20.4,0,0,1-27.125,6.9,110.428,110.428,0,0,1-16.427-12.519,164.263,164.263,0,0,1-29.3-42.591c-31.819-61.49-63.673-122.911-91.281-186.505a439.513,439.513,0,0,0-36.444-68.732,599.976,599.976,0,0,1-43.622-76.63,198.831,198.831,0,0,0-9.663-18.382,61.5,61.5,0,0,0-55.217-32.9c-36.375-.552-72.749-.241-109.124.276a58.218,58.218,0,0,0-19.982,4.794,34.49,34.49,0,0,0-23.571,31.314c-.725,13.795.794,27.59-.242,41.384a71.886,71.886,0,0,0,32.233,71.733,50.352,50.352,0,0,1,4.038,3.242A67.614,67.614,0,0,1,1086.72,239a195.872,195.872,0,0,1,.863,25.9q.207,46.73.207,93.46v96.322c-3.348,56.041-1.311,104.5-.035,152.881ZM277.9,1776.293c45.071.69,90.142,1.586,135.248,2.035,15.668.138,31.163-.345,46.728-1.241a45.916,45.916,0,0,0,28.264-11.864,517.692,517.692,0,0,0,66.572-72.767,96.109,96.109,0,0,0,20.706-57.8c.38-31.176.587-62.49,1-93.529.518-34.659-1.173-69.388,2.278-103.875a753.47,753.47,0,0,0-.794-176.125,259.864,259.864,0,0,1-1.726-31.038q-1.035-59.835-1.726-119.566c-.173-17.519.207-34.763.207-52.006a63.908,63.908,0,0,0-12.458-38.9,388.994,388.994,0,0,0-72.162-74.388,83.658,83.658,0,0,0-58.185-18.657c-22.57,1.276-44.933,2.759-67.434,3.966a179.578,179.578,0,0,1-31.06.724,1366.619,1366.619,0,0,0-197.4-2.931,332.485,332.485,0,0,1-51.766.483,68.338,68.338,0,0,0-35.27,7.173A34.706,34.706,0,0,0,31.041,954.02a43.294,43.294,0,0,0-4.59,14.726c-1.484,19.106-2.657,38-3.175,57.041a43.717,43.717,0,0,0,16.876,36.384,108.762,108.762,0,0,0,12.182,9.691,70.616,70.616,0,0,1,30.818,57.283,115.693,115.693,0,0,1-1.484,25.727,276.706,276.706,0,0,0-.242,77.734,469.048,469.048,0,0,1,4.8,77.7c.207,45.04.863,90.115.863,135.154v119.566a105.323,105.323,0,0,1-5,35.832A55.9,55.9,0,0,1,61.618,1630.1a204.145,204.145,0,0,0-25.02,18.416A33.138,33.138,0,0,0,26.244,1666c-3.417,23.934-6.143,48.075-7.351,72.216a44.2,44.2,0,0,0,13.39,32.935A36.388,36.388,0,0,0,65.069,1783.5a362.109,362.109,0,0,1,67.124-6.346c48.557.345,97.114,0,145.671,0Zm-55.7-644.148a95.475,95.475,0,0,1,9.007-40.212,39.51,39.51,0,0,1,27.609-21.727,86.33,86.33,0,0,1,20.707-2.656c34.683.1,69.54.655,104.05,1.035,1.76.035,3.486.414,5.211.414a50.992,50.992,0,0,1,51.766,48.592,239.975,239.975,0,0,1,1.691,36.315c-.069,109.255,1.9,218.44-2.14,327.626-.932,24.244-.483,48.661-.207,72.8a165.091,165.091,0,0,1-10.353,55.972,38.636,38.636,0,0,1-20.5,22.417,80.246,80.246,0,0,1-34.925,9.173c-31.2-.034-62.568.172-93.628-.517a104.631,104.631,0,0,1-25.366-5A46.324,46.324,0,0,1,221.058,1595a83.784,83.784,0,0,1-1-15.554c2.347-76.251,1.829-152.5-1.415-246.823,1-54.7,2.45-127.5,3.555-200.473Zm556.317,408.36c.345,8.76,0,17.347,0,26-.034,5.242-.345,10.38-.587,15.588a67.368,67.368,0,0,1-23.605,50.765c-5.28,4.483-10.422,9.139-15.944,13.347a62.748,62.748,0,0,0-24.882,54.42c.207,12.243-.414,24.245-.414,36.384a97.462,97.462,0,0,0,1.346,15.519,31.732,31.732,0,0,0,21.466,26.9,93.239,93.239,0,0,0,35.65,5.139c51.939-2.242,103.809-7.208,155.92-5.035a102.652,102.652,0,0,0,15.53-1.138,37.5,37.5,0,0,0,28.541-27.107,330.847,330.847,0,0,0,2.416-77.7,33.928,33.928,0,0,0-11.6-22.623c-9.18-7.932-19.188-14.829-28.264-22.83a40.412,40.412,0,0,1-12.631-22.244,54.726,54.726,0,0,1-1.519-10.346,937.419,937.419,0,0,0-7.282-98.322,78.2,78.2,0,0,1,1.484-25.8,46.256,46.256,0,0,1,31.785-37.936,114.752,114.752,0,0,1,35.581-6.9c29.472,0,58.945-.207,88.417,0a109.365,109.365,0,0,1,20.707,2.345,46.428,46.428,0,0,1,42.276,50.523c.241,6.9,0,13.795,0,20.692-.276,24.244-.518,48.626-.863,72.767-.069,6.9,0,13.795-.656,20.692a59.437,59.437,0,0,1-16.91,37.074,179.407,179.407,0,0,1-15.771,13.553,64.066,64.066,0,0,0-22.363,39.764,216.522,216.522,0,0,0-5.073,46.385,45.535,45.535,0,0,0,44.415,48.006,37.944,37.944,0,0,0,5.211.241q83.206,1.655,166.446,3.069a90.148,90.148,0,0,0,15.5-1.345A30.576,30.576,0,0,0,1327,1763.119a70.384,70.384,0,0,0,7.385-30.038,257.894,257.894,0,0,0-7.8-61.7,37.932,37.932,0,0,0-10.353-17.52c-8.662-8.38-19.153-14.9-27.988-23.141a45.384,45.384,0,0,1-11.7-16.83,111.288,111.288,0,0,1-8.7-55.938,820.426,820.426,0,0,0,5.694-145.225c-.552-51.972-1.242-103.978-.759-155.95a660.108,660.108,0,0,0-4.038-114.048,66.4,66.4,0,0,1,22.156-61.076c7.661-7.173,15.771-13.795,23.468-20.692a64.027,64.027,0,0,0,19.05-36.211,130.959,130.959,0,0,0,0-51.731,89.627,89.627,0,0,0-7.592-19.244,31.05,31.05,0,0,0-14.667-14.174,90.3,90.3,0,0,0-40.24-8.691c-41.62-.655-83.24-1.828-124.86-2.621-10.353-.172-20.707-.1-31.06.552a45.988,45.988,0,0,0-44.45,42.764c-1.035,13.795-.345,27.59-1.277,41.384a57.341,57.341,0,0,0,30.784,60.7,75.153,75.153,0,0,1,12.631,9.1,46.691,46.691,0,0,1,14.08,21.485,65.106,65.106,0,0,1,4.141,20.209c.449,38.108.242,76.216.242,114.324a43.384,43.384,0,0,1-1.415,10.346,45.672,45.672,0,0,1-32.889,36.66,76.758,76.758,0,0,1-20.189,4.38c-31.2-.379-62.465-1.1-93.525-2.724a127.763,127.763,0,0,1-30.508-6.311,44.848,44.848,0,0,1-31.336-31.969,173.568,173.568,0,0,1-7.834-51.213c.345-14,.345-27.8-.207-41.591a176.494,176.494,0,0,1,6.488-46.144,52.825,52.825,0,0,1,15.116-26.762c8.7-8.449,17.877-16.381,26.573-24.831a40.547,40.547,0,0,0,12.079-22.52,199.886,199.886,0,0,0-.345-72.423,31.973,31.973,0,0,0-18.6-23.589,106.355,106.355,0,0,0-45.416-9.794c-48.557.345-97.114.345-145.671.345a81.391,81.391,0,0,0-10.353,1.138,41.948,41.948,0,0,0-35.857,38.9c-1.035,20.761-1.035,41.66-.828,62.352a40.234,40.234,0,0,0,12.769,27.589,128.985,128.985,0,0,0,19.706,16.83,67.925,67.925,0,0,1,29.679,57.662q.552,18.175.552,36.384c-.656,62.249-1.415,124.636-2.381,206.922a1132.722,1132.722,0,0,0,1.76,162.054Zm1088.2-607.695H1819.88c-6.9,0-13.8-.276-20.707,0a38.366,38.366,0,0,0-38.307,35.108,224.813,224.813,0,0,0,13.563,112.117,36.109,36.109,0,0,1,1.933,4.828,60,60,0,0,1-2.485,40.591,199.285,199.285,0,0,1-36.823,56.214,37.732,37.732,0,0,1-27.609,12.381,41.984,41.984,0,0,1-28.851-9.76,157.1,157.1,0,0,1-37-49.7,55.974,55.974,0,0,1-2.381-59.248c.9-1.311,1.346-3.207,2.14-4.759a177.912,177.912,0,0,0,16.5-96.012,73.935,73.935,0,0,0-5.107-19.968,33.921,33.921,0,0,0-31.06-23.8,181.052,181.052,0,0,0-25.952-.207c-38.1,2.69-76.2,2.38-114.369,1.276-12.217-.31-24.261,0-36.374,0a40.09,40.09,0,0,0-41.413,38.384c-.9,22.451-.932,45.005-.345,67.491a36.213,36.213,0,0,0,22.881,32.211c9.318,4.483,19.326,7.518,28.955,11.381a76.637,76.637,0,0,1,36.1,28.659c10.63,15.795,21.19,31.728,30.577,48.282q39.757,70.009,83.068,137.948c4.659,7.311,9.111,14.76,13.528,22.175a162.934,162.934,0,0,1,24.33,88.907c-1.311,53.662-1.415,107.392-2.208,161.089a114.52,114.52,0,0,1-2.174,20.692,72.413,72.413,0,0,1-30.577,52.144,50.165,50.165,0,0,0-14.805,14.347,60.232,60.232,0,0,0-11.147,23.037,260.205,260.205,0,0,0-.725,72.423,39.469,39.469,0,0,0,32.026,30.107c8.662.828,17.29.828,25.918.828,27.747.31,55.563.517,83.171.828,20.81.241,41.689.759,62.4.759a112.5,112.5,0,0,0,20.707-2.035,28.2,28.2,0,0,0,20.361-14.691,69.911,69.911,0,0,0,8.731-24.141c1.829-20.658,2.036-41.591,2.381-62.284a42.342,42.342,0,0,0-18.947-35.211c-6.868-5.242-14.6-9.553-21.5-14.554a49.963,49.963,0,0,1-21.328-39.763c-.587-13.795-.242-27.589,0-41.384.794-46.764,2.278-93.494,2.554-140.259a187.583,187.583,0,0,1,31.474-108.048c22.674-32.935,41.689-67.836,61.05-102.668,14.115-25.624,29.4-50.8,44.864-75.871a104.377,104.377,0,0,1,54.355-46.247,165.277,165.277,0,0,0,19.05-8.1,45.835,45.835,0,0,0,23.743-32.418,77.269,77.269,0,0,0,1.553-15.485c.448-17.45,1.208-34.694.828-51.937a36.532,36.532,0,0,0-35.339-37.556c-10.353-.586-20.706-.552-31.06-.276-20.81.552-41.586,1.448-71.3,2.552ZM257.5,1815.958H205.494c-41.62-.276-83.413-.9-124.826-.9-8.662-.034-17.324.828-25.918,1.655a37.949,37.949,0,0,0-33.786,34.246c-1.242,22.416-.9,44.971-.483,67.456A44.819,44.819,0,0,0,33.25,1946.25a101.636,101.636,0,0,0,15.185,14.14,65.507,65.507,0,0,1,25.227,54.455c.345,15.691.035,31.28,1.829,46.73a1124.121,1124.121,0,0,1,6.626,160.882c-1.726,67.56-4.038,135.085-.9,202.68a301.759,301.759,0,0,1-1.346,46.73,62.786,62.786,0,0,1-23.26,44.833,197.7,197.7,0,0,0-15.771,13.553,56.856,56.856,0,0,0-18.256,36.487c-1.829,22.416-2.174,44.971-2.174,67.456a36.083,36.083,0,0,0,29.576,31.866c8.7.862,17.29,1.1,25.952,1.1q65.019.414,130.037.414c10.353,0,20.707.207,31.06-.345a41.919,41.919,0,0,0,38.514-36.142c1.76-20.692,2.174-41.591,2.9-62.283a48.27,48.27,0,0,0-19.6-40.522c-5.384-4.38-10.767-8.725-16.289-12.933a62.067,62.067,0,0,1-22.846-39.591,160.471,160.471,0,0,1-2.554-25.728q-1.139-33.762-1.518-67.56a159.948,159.948,0,0,1,1.38-31.038,46.737,46.737,0,0,1,31.4-38.177A110.5,110.5,0,0,1,283.8,2305.4c29.472-.276,58.979-.656,88.451-.656a90.31,90.31,0,0,1,15.461,1.725,56.131,56.131,0,0,1,45.382,44.592,125.749,125.749,0,0,1,2.312,20.692c.552,29.452.759,58.9,1.035,88.355,0,3.448-.345,6.9-.621,10.346a71.266,71.266,0,0,1-24.675,49.9,191.781,191.781,0,0,0-22.329,21.623,47.434,47.434,0,0,0-11.906,33.59c1.587,20.692,4.141,41.35,7.592,61.8a26.84,26.84,0,0,0,21.224,20.692,37.312,37.312,0,0,0,5.039,1.311,1188.681,1188.681,0,0,0,181.665,7.76,29.585,29.585,0,0,0,5.177-.69,42.068,42.068,0,0,0,32.509-23.175,71.109,71.109,0,0,0,7.765-24.52,280.92,280.92,0,0,0-.621-46.661,64,64,0,0,0-29.369-52.386,121.177,121.177,0,0,1-12.735-9,53.42,53.42,0,0,1-17.255-25.279,137.581,137.581,0,0,1-5.108-66.7,417.007,417.007,0,0,0,.656-124.153A410.628,410.628,0,0,1,570,2191.107c1.622-15.657,1.449-31.142,1.933-46.7a301.919,301.919,0,0,1,.759-31.038c7.282-51.73,1.829-104.013,5.28-155.743a72.6,72.6,0,0,0-17.946-52.869c-18.981-22.486-38.307-44.764-58.669-66.043a70.254,70.254,0,0,0-51.318-21.761c-38.135-.586-76.2-3.552-114.4-1.483-25.952,1.414-52.008,1.345-77.995,1.931Zm74.923,353.664c-15.53.793-31.06,1.9-46.59,2.138a114.64,114.64,0,0,1-25.745-1.828,44.409,44.409,0,0,1-34.511-28.21,122.361,122.361,0,0,1-8.559-34.97c-1.346-29.383-1.346-58.662-1.346-88.011a98.5,98.5,0,0,1,3.141-20.382,50.023,50.023,0,0,1,40.964-41.626,138.146,138.146,0,0,1,25.366-4.621c31.06-1,62.12-1,93.179-1a77,77,0,0,1,34.787,9.036,37.25,37.25,0,0,1,21.6,27.348,206.2,206.2,0,0,1,2.588,36.039A506.307,506.307,0,0,0,440,2101.062a96.047,96.047,0,0,1-1.726,25.589,48.755,48.755,0,0,1-54.044,44.316c-8.662-.069-17.29-.621-25.918-.621H332.425Zm689.1,496.957,234.122-.414c3.451-.034,6.9-.379,10.353-.621a31.671,31.671,0,0,0,30.439-29.8c.345-5.242.621-10.381.621-15.588q-.345-52.006-.9-103.978a146.884,146.884,0,0,0-1.242-15.519,37.6,37.6,0,0,0-31.578-30.245c-22.6-.379-45.037.1-67.469,1.483a45.769,45.769,0,0,0-31.3,16.933c-6.833,7.863-12.838,16.381-19.74,24.141a55.99,55.99,0,0,1-36.2,18.554,94.656,94.656,0,0,1-10.353.966c-34.683.173-69.539.173-104.05.173a78.081,78.081,0,0,1-20.707-2.828,46.816,46.816,0,0,1-35.615-34.246,107.8,107.8,0,0,1-3.451-20.347,67.894,67.894,0,0,1,1.1-20.692,269.4,269.4,0,0,0,5.453-72.422,183.216,183.216,0,0,1,2.692-31.038,39.021,39.021,0,0,1,32.164-29.935,50.752,50.752,0,0,1,51.766,17,82.2,82.2,0,0,0,77.2,33.832c8.731-.586,17.324,0,25.987,0,3.451-.069,6.9-.414,10.353-.793a37.743,37.743,0,0,0,31.474-30.245,111.618,111.618,0,0,0,1.588-15.485q-.414-83.148-.932-166.4c-.035-1.724-.38-3.449-.38-5.173a39.5,39.5,0,0,0-32.371-35.832,325.764,325.764,0,0,0-72.473-2.587,34.831,34.831,0,0,0-22.846,11.278c-8.075,9-14.84,19.244-23.157,28a47.006,47.006,0,0,1-17.048,11.312,58.466,58.466,0,0,1-40.792,0,30.775,30.775,0,0,1-18.739-17.243,81.547,81.547,0,0,1-7.869-45.523,199.889,199.889,0,0,0,1.277-72.423,89.608,89.608,0,0,1,6.212-45.833,42.369,42.369,0,0,1,30.093-26.451,73.694,73.694,0,0,1,20.534-2.725q49.385.517,98.839,2a63.446,63.446,0,0,1,49.282,25.176c6.626,8.07,13.183,16.105,20.43,23.486a37.97,37.97,0,0,0,22.467,12.209,271.453,271.453,0,0,0,77.684-.9,31.611,31.611,0,0,0,20.707-14.657,52.947,52.947,0,0,0,9.767-29.176q0-57.179-.414-114.393a41.361,41.361,0,0,0-1.933-10.139,40.744,40.744,0,0,0-31.716-31.038,44.893,44.893,0,0,0-10.353-1.621,442.682,442.682,0,0,0-83.033,2.863,167.768,167.768,0,0,1-62.12-.207,339.077,339.077,0,0,0-67.4-3.862c-31.2.276-62.568.069-93.628.517a413.652,413.652,0,0,0-57.081,2.552,491.967,491.967,0,0,1-72.473,4.035c-13.8.1-27.609.172-41.413,1.345a32.023,32.023,0,0,0-27.264,21.209,114.6,114.6,0,0,0,2.14,85.8,88.563,88.563,0,0,0,12.182,16.657c5.832,6.38,12.562,11.967,18.67,18.106a74.368,74.368,0,0,1,20.016,41.384,166.1,166.1,0,0,1,1.829,25.9c.276,55.455,3.313,110.91-.552,166.365-.966,13.795-.345,27.589-.345,41.384q.759,109.186,1.449,218.406c.034,5.242-.207,10.38-.449,15.588a57.167,57.167,0,0,1-22.777,44.833c-9.594,7.346-19.326,14.657-28.161,22.83a32,32,0,0,0-11.043,22.9c-.069,20.692.552,41.385,1.622,62.077a46.535,46.535,0,0,0,5.108,14.623,35.715,35.715,0,0,0,31.474,23.623c10.353.586,20.707.586,31.06.586,29.472-.173,58.945-.931,88.451-.655,41.62.379,83.206,1.517,124.826,2.311Zm902.2-291.484c-.414-50.213-.656-100.426-1.346-150.639a84.2,84.2,0,0,0-3.451-25.521,26.532,26.532,0,0,0-21.984-19.8c-13.8-1.276-27.609-1.069-41.413-1.276a841.153,841.153,0,0,1-145.187-5.725,39.44,39.44,0,0,0-43.932,34.832c-.9,24.382-.9,48.523-.9,72.664a52.346,52.346,0,0,0,1.794,10.346,29.74,29.74,0,0,0,21.638,20.244,181.772,181.772,0,0,0,20.707,1.483c10.353.207,20.707-.552,31.06,0A46.857,46.857,0,0,1,1785,2349.023a85.938,85.938,0,0,1,3.451,20.382c.38,31.142,1.277,62.456,0,93.494-1.829,47.074-20.672,65.284-67.4,67.767h-5.177c-25.987-.414-52.008-.931-77.995-1.173a134.429,134.429,0,0,1-45.624-9.035,35.221,35.221,0,0,1-20.707-22.037,52.25,52.25,0,0,1-3.451-15.14,327.384,327.384,0,0,1-.863-36.314c2.83-55.421,3.486-110.772,1.1-166.227-.518-12.208,0-24.245.207-36.35a541.1,541.1,0,0,0-4.348-93.322,80.952,80.952,0,0,1-.414-25.8,585.6,585.6,0,0,0,5.487-93.115,211.478,211.478,0,0,1,2.105-31.038,51.747,51.747,0,0,1,40.964-41.9,84.3,84.3,0,0,1,15.461-1.931c34.649.241,69.47.759,103.981,1.276a69.772,69.772,0,0,1,10.353,1.242,46.266,46.266,0,0,1,39.17,36.556c3.313,16.968,5.522,34.177,8.559,51.213a30.292,30.292,0,0,0,24.779,23.658c24.158,1.621,48.315,2.483,72.473,3.449a36.681,36.681,0,0,0,10.181-1.966,32.361,32.361,0,0,0,21.673-20.692,40.568,40.568,0,0,0,2.968-15.174c.172-25.969.276-51.938-.276-77.906a97.77,97.77,0,0,0-26.78-65.836c-12.7-14.071-25.124-28.521-37.962-42.591a173.4,173.4,0,0,0-14.943-14.416,78.577,78.577,0,0,0-56.736-21.692c-10.353.379-20.707.379-31.06.379-53.733.793-107.432,1.9-161.166,2.276a232.291,232.291,0,0,0-51.387,6.552,77.358,77.358,0,0,0-36.547,18.692c-16.358,15.416-32.44,31.211-47.9,47.558a108.969,108.969,0,0,0-29.99,80.492c.518,32.9,0,65.8,0,98.7.1,20.8.483,41.66.759,62.352.242,17.45.725,34.694.725,51.938-.414,53.7-1.208,107.358-1.657,161.054-.138,17.451-.448,34.694.794,51.938a507.873,507.873,0,0,1,0,118.946q-.129,2.585,0,5.173a93.87,93.87,0,0,0,25.5,71.422c18.636,20.416,39.1,39.246,59.531,57.973a67.116,67.116,0,0,0,42.586,17.244c8.7.448,17.29.759,25.952.759q101.393-1.69,202.752-3.449a51.6,51.6,0,0,0,10.353-.655,245.816,245.816,0,0,0,24.917-6.9,99.879,99.879,0,0,0,35.3-21.485c16.358-15.45,32.578-31.107,48.074-47.454a73.189,73.189,0,0,0,20.465-51.73c.276-39.8,1.484-79.631,2.174-119.428.207-13.795,0-27.59,0-41.385Z" transform="translate(1375.594 2262.953)" fill="#d4551c"/>
    <path id="Path_4460" data-name="Path 4460" d="M309.191,144.356a13.688,13.688,0,0,0,7.715-2.873,62.978,62.978,0,0,0,10.208-9.84,13.6,13.6,0,0,0,3.264-9.252c-.094-3.644-.172-7.239-.283-10.855a10.827,10.827,0,0,0-1.488-4.737,6.044,6.044,0,0,0-4.574-3.328,27.628,27.628,0,0,0-12.4.826,5.7,5.7,0,0,0-4.041,4.848c-.283,1.919-.122,3.9-.378,5.83a8.19,8.19,0,0,1-7.571,7.666,10.992,10.992,0,0,1-2.492.205c-4.207-.055-8.359-.144-12.534-.239a21.766,21.766,0,0,1-7.316-1.6,6.1,6.1,0,0,1-3.686-4.26,6.173,6.173,0,0,1-.305-1.636c-.067-5.852-.971-11.643-1.238-17.473-.2-4.449-.078-8.93-.078-13.368a58.532,58.532,0,0,1,.694-9.984,35.365,35.365,0,0,0,.05-11.648,123.681,123.681,0,0,1-.644-19.175,25.39,25.39,0,0,1,1.61-8.165,7.042,7.042,0,0,1,4.651-4.5,26.911,26.911,0,0,1,10.7-1.392c3.6.322,7.21.66,10.818.932a7.529,7.529,0,0,1,7.7,8.087,26.664,26.664,0,0,0,.3,4.992,7.157,7.157,0,0,0,5.212,5.907,23.129,23.129,0,0,0,9.919.727,15.5,15.5,0,0,0,3.935-1.315,5.31,5.31,0,0,0,2.631-3.106,6.705,6.705,0,0,0,.555-2.43c.033-4.454.111-8.925-.072-13.362a13.341,13.341,0,0,0-3.886-9c-2.775-2.785-5.462-5.591-8.326-8.237A15.454,15.454,0,0,0,304.8,8.364a28.455,28.455,0,0,1-8.326,0A156.572,156.572,0,0,0,271.446,7.5a10.551,10.551,0,0,0-6.211,2.18,22.2,22.2,0,0,0-3.219,2.651c-2.847,3.045-5.673,6.135-8.4,9.3a12.392,12.392,0,0,0-3.131,8.431v2.5q-.033,19.22-.061,38.434a134.237,134.237,0,0,0,.932,18.338,30.933,30.933,0,0,1,0,8.32,147.97,147.97,0,0,0-.883,20.013,47.576,47.576,0,0,0,.25,5.835,16.285,16.285,0,0,0,3.33,8.448A72.687,72.687,0,0,0,264.6,142.625a7.9,7.9,0,0,0,4.574,1.869c2.22.128,4.44.139,6.661.089,4.457-.1,8.909-.266,12.478-.383A124.35,124.35,0,0,0,309.191,144.356Zm60.7-137.673H359.853c-1.665.006-3.331.006-5,.116a6.692,6.692,0,0,0-6.139,5.874,69.243,69.243,0,0,0,0,9.169,9.022,9.022,0,0,0,2.37,5.253,36.156,36.156,0,0,0,2.97,2.934,12.2,12.2,0,0,1,3.935,8.925c.111,2.785-.055,5.586.111,8.359.6,9.751.311,19.5-.044,29.249-.266,7.244-.3,14.483,0,21.727.122,3.339.122,6.7.122,10.029a21.2,21.2,0,0,1-.9,5.758,12.257,12.257,0,0,1-3.813,6.329c-5.606,4.82-5.445,5.93-5.362,13.14.017,1.4.078,2.785.211,4.171a7.6,7.6,0,0,0,7.216,6.889,36.9,36.9,0,0,0,7.51-.128,104.209,104.209,0,0,1,19.183-.871,20.862,20.862,0,0,0,4.152-.322,3.974,3.974,0,0,0,3.1-2.518,21.541,21.541,0,0,0,1.038-12.32,9.323,9.323,0,0,0-3.774-6.3c-.688-.471-1.332-1.01-1.987-1.525a8.829,8.829,0,0,1-3.486-6.418c-.4-5.292-.916-10.545-1.11-15.831-.3-8.071-.439-16.152-.055-24.234.144-3.056-.128-6.129-.094-9.191.056-4.454.039-8.919.394-13.357a27.758,27.758,0,0,0-.067-8.32,9.158,9.158,0,0,1-.222-2.491,11.749,11.749,0,0,1,3.425-9.119c7.81-6.4,5.784-6.445,6.894-14.25.083-.555.189-1.109.272-1.664a9.979,9.979,0,0,0-.777-4.9,6.027,6.027,0,0,0-5-3.96,23.648,23.648,0,0,0-4.163-.222H369.889Zm48.692,91.029c.117,3.894.172,7.81.172,11.693a13.309,13.309,0,0,1-5,11,20.779,20.779,0,0,0-2.959,2.929,6.216,6.216,0,0,0-1.615,3.783c-.122,4.193-.178,8.342-.122,12.514a5.759,5.759,0,0,0,4.307,4.621,15.509,15.509,0,0,0,2.481.272q11.7.128,23.4.172a37.542,37.542,0,0,0,5-.266,7,7,0,0,0,5.878-6.185c.133-3.078.083-6.124,0-9.18a8.317,8.317,0,0,0-2.254-5.281c-1.288-1.459-2.77-2.74-4.124-4.132a6.96,6.96,0,0,1-1.965-3.622,17.74,17.74,0,0,1-.683-4.931c.994-8.625.1-17.256.333-25.882.067-2.513.139-5.009.305-7.5a9.549,9.549,0,0,1,.666-2.391,3.709,3.709,0,0,1,5.484-1.847,12.24,12.24,0,0,1,4.346,4.953,33.932,33.932,0,0,1,1.726,3.8,73.023,73.023,0,0,0,5.179,10.461A219.8,219.8,0,0,1,470,113.393a142.886,142.886,0,0,0,7.266,13.146c2.5,4.332,4.429,8.953,6.8,13.39a8.61,8.61,0,0,0,7.56,4.493c2.809.161,5.584.061,8.359,0a8.4,8.4,0,0,0,2.453-.422,6.608,6.608,0,0,0,4.94-5.125,29.219,29.219,0,0,0,.727-10.766,79.738,79.738,0,0,1-.938-16.641c.438-12.525.266-25.055.266-37.58V42.15a20.174,20.174,0,0,1,.133-3.328,10.326,10.326,0,0,1,3.824-7.167,24.682,24.682,0,0,0,3.242-2.618,7.469,7.469,0,0,0,2.342-5.208c.017-3.639.022-7.239-.117-10.85a5.676,5.676,0,0,0-4.862-4.992c-.555-.055-1.11-.15-1.665-.15-8.637-.078-17.274-.161-25.911-.2a34.742,34.742,0,0,0-4.157.288,5.593,5.593,0,0,0-4.119,3.744,12.949,12.949,0,0,0-.427,2.457c-.067,1.664.078,3.328-.033,4.992a13.131,13.131,0,0,0,5.406,12.392,9.106,9.106,0,0,1,3.269,5.68,38.369,38.369,0,0,1,1.077,8.259q-.083,10.445-.044,20.889a26.636,26.636,0,0,1-1.149,7.4,10.629,10.629,0,0,1-1.06,2.246,3.282,3.282,0,0,1-4.363,1.109,17.761,17.761,0,0,1-2.642-2.014,26.418,26.418,0,0,1-4.713-6.85c-5.118-9.89-10.241-19.769-14.682-30a70.68,70.68,0,0,0-5.862-11.055A96.509,96.509,0,0,1,443.9,14.853a31.958,31.958,0,0,0-1.554-2.956,9.892,9.892,0,0,0-8.881-5.292c-5.85-.089-11.7-.039-17.551.044a9.364,9.364,0,0,0-3.214.771,5.548,5.548,0,0,0-3.791,5.037c-.117,2.219.128,4.437-.039,6.656a11.562,11.562,0,0,0,5.184,11.537,8.1,8.1,0,0,1,.649.521,10.875,10.875,0,0,1,3.708,7.261,31.5,31.5,0,0,1,.139,4.166q.033,7.516.033,15.032V73.123c-.538,9.014-.211,16.807-.006,24.589Zm156.857,45.778c7.249.111,14.5.255,21.753.327,2.52.022,5.012-.055,7.516-.2a7.385,7.385,0,0,0,4.546-1.908,83.273,83.273,0,0,0,10.707-11.7,15.458,15.458,0,0,0,3.33-9.3c.061-5.014.094-10.051.161-15.043.083-5.575-.189-11.16.366-16.707a121.18,121.18,0,0,0-.128-28.328,41.827,41.827,0,0,1-.278-4.992q-.166-9.624-.277-19.231c-.028-2.818.033-5.591.033-8.365a10.279,10.279,0,0,0-2-6.257A62.56,62.56,0,0,0,609.558,9.822a13.456,13.456,0,0,0-9.359-3c-3.63.205-7.227.444-10.846.638a28.884,28.884,0,0,1-5,.116,219.811,219.811,0,0,0-31.75-.471,53.479,53.479,0,0,1-8.326.078,10.992,10.992,0,0,0-5.673,1.154,5.582,5.582,0,0,0-2.875,2.9A6.964,6.964,0,0,0,535,13.605c-.239,3.073-.427,6.113-.511,9.174a7.032,7.032,0,0,0,2.714,5.852,17.488,17.488,0,0,0,1.959,1.559,11.358,11.358,0,0,1,4.957,9.213,18.6,18.6,0,0,1-.239,4.138,44.5,44.5,0,0,0-.039,12.5,75.442,75.442,0,0,1,.772,12.5c.033,7.244.139,14.494.139,21.738V109.51a16.942,16.942,0,0,1-.8,5.763,8.991,8.991,0,0,1-3.292,4.7,32.83,32.83,0,0,0-4.024,2.962,5.33,5.33,0,0,0-1.665,2.812c-.549,3.85-.988,7.732-1.182,11.615a7.109,7.109,0,0,0,2.154,5.3,5.853,5.853,0,0,0,5.273,1.986,58.244,58.244,0,0,1,10.8-1.021c7.81.055,15.62,0,23.43,0Zm-8.959-103.6a15.358,15.358,0,0,1,1.449-6.468,6.355,6.355,0,0,1,4.441-3.495,13.886,13.886,0,0,1,3.33-.427c5.578.017,11.185.105,16.735.166.283.006.561.067.838.067a8.2,8.2,0,0,1,8.326,7.816,38.608,38.608,0,0,1,.272,5.841c-.011,17.572.305,35.134-.344,52.7-.15,3.9-.078,7.827-.033,11.709a26.554,26.554,0,0,1-1.665,9,6.214,6.214,0,0,1-3.3,3.605,12.907,12.907,0,0,1-5.617,1.475c-5.018-.006-10.063.028-15.059-.083a16.828,16.828,0,0,1-4.08-.8,7.451,7.451,0,0,1-5.479-6.656,13.471,13.471,0,0,1-.161-2.5c.377-12.264.294-24.528-.228-39.7C566.068,63.333,566.3,51.624,566.479,39.886Zm89.478,65.68c.056,1.409,0,2.79,0,4.182-.005.843-.056,1.67-.094,2.507a10.836,10.836,0,0,1-3.8,8.165c-.849.721-1.676,1.47-2.564,2.147a10.093,10.093,0,0,0-4,8.753c.033,1.969-.067,3.9-.067,5.852a15.664,15.664,0,0,0,.216,2.5A5.1,5.1,0,0,0,649.1,144a15,15,0,0,0,5.734.826c8.354-.361,16.7-1.159,25.078-.81a16.507,16.507,0,0,0,2.5-.183,6.032,6.032,0,0,0,4.59-4.36,53.214,53.214,0,0,0,.388-12.5,5.457,5.457,0,0,0-1.865-3.639c-1.476-1.276-3.086-2.385-4.546-3.672a6.5,6.5,0,0,1-2.032-3.578,8.8,8.8,0,0,1-.244-1.664,150.77,150.77,0,0,0-1.171-15.814,12.582,12.582,0,0,1,.239-4.149,7.44,7.44,0,0,1,5.112-6.1,18.456,18.456,0,0,1,5.723-1.109c4.74,0,9.481-.033,14.221,0a17.592,17.592,0,0,1,3.331.377,7.468,7.468,0,0,1,6.8,8.126c.039,1.109,0,2.219,0,3.328-.044,3.9-.083,7.821-.139,11.7-.011,1.109,0,2.219-.105,3.328a9.56,9.56,0,0,1-2.72,5.963,28.859,28.859,0,0,1-2.537,2.18,10.3,10.3,0,0,0-3.6,6.4,34.827,34.827,0,0,0-.816,7.461,7.324,7.324,0,0,0,7.144,7.721,6.1,6.1,0,0,0,.838.039q13.383.266,26.771.494a14.5,14.5,0,0,0,2.492-.216,4.918,4.918,0,0,0,3.885-2.773,11.321,11.321,0,0,0,1.188-4.831,41.487,41.487,0,0,0-1.254-9.923,6.1,6.1,0,0,0-1.665-2.818c-1.393-1.348-3.081-2.4-4.5-3.722a7.3,7.3,0,0,1-1.882-2.707,17.9,17.9,0,0,1-1.4-9,131.97,131.97,0,0,0,.916-23.358c-.089-8.359-.2-16.724-.122-25.083a106.169,106.169,0,0,0-.649-18.343,10.679,10.679,0,0,1,3.564-9.823c1.232-1.154,2.537-2.219,3.775-3.328a10.3,10.3,0,0,0,3.064-5.824,21.063,21.063,0,0,0,0-8.32,14.413,14.413,0,0,0-1.221-3.1,5,5,0,0,0-2.359-2.28,14.524,14.524,0,0,0-6.472-1.4c-6.694-.105-13.388-.294-20.082-.422-1.665-.028-3.33-.017-5,.089a7.4,7.4,0,0,0-7.149,6.878c-.167,2.219-.056,4.437-.205,6.656a9.223,9.223,0,0,0,4.951,9.762,12.092,12.092,0,0,1,2.032,1.464,7.511,7.511,0,0,1,2.265,3.456,10.473,10.473,0,0,1,.666,3.25c.072,6.129.039,12.259.039,18.388a6.982,6.982,0,0,1-.228,1.664,7.346,7.346,0,0,1-5.29,5.9,12.347,12.347,0,0,1-3.247.7c-5.018-.061-10.047-.177-15.042-.438a20.551,20.551,0,0,1-4.907-1.015,7.213,7.213,0,0,1-5.04-5.142,27.916,27.916,0,0,1-1.26-8.237c.056-2.252.056-4.471-.033-6.69a28.394,28.394,0,0,1,1.044-7.422,8.5,8.5,0,0,1,2.431-4.3c1.4-1.359,2.875-2.635,4.274-3.994a6.522,6.522,0,0,0,1.943-3.622,32.146,32.146,0,0,0-.056-11.648A5.142,5.142,0,0,0,684.271,9a17.1,17.1,0,0,0-7.3-1.575c-7.81.055-15.62.055-23.429.055a13.093,13.093,0,0,0-1.665.183,6.747,6.747,0,0,0-5.767,6.257c-.167,3.339-.167,6.7-.133,10.029a6.472,6.472,0,0,0,2.054,4.437,20.745,20.745,0,0,0,3.17,2.707,10.925,10.925,0,0,1,4.774,9.274q.089,2.923.089,5.852c-.105,10.012-.228,20.046-.383,33.281a182.19,182.19,0,0,0,.283,26.065ZM830.982,7.826h-7.532c-1.11,0-2.22-.044-3.331,0a6.171,6.171,0,0,0-6.161,5.647,36.156,36.156,0,0,0,2.181,18.033,5.822,5.822,0,0,1,.311.777,9.651,9.651,0,0,1-.4,6.529,32.053,32.053,0,0,1-5.923,9.041,6.069,6.069,0,0,1-4.441,1.991,6.753,6.753,0,0,1-4.64-1.57,25.266,25.266,0,0,1-5.95-7.993,9,9,0,0,1-.383-9.529,7.532,7.532,0,0,0,.344-.765,28.616,28.616,0,0,0,2.653-15.442,11.9,11.9,0,0,0-.822-3.212,5.456,5.456,0,0,0-5-3.827,29.123,29.123,0,0,0-4.174-.033c-6.128.433-12.256.383-18.4.205-1.965-.05-3.9,0-5.85,0a6.448,6.448,0,0,0-6.661,6.174c-.144,3.611-.15,7.239-.055,10.855a5.824,5.824,0,0,0,3.68,5.181c1.5.721,3.108,1.209,4.657,1.83a12.326,12.326,0,0,1,5.806,4.609c1.71,2.54,3.408,5.1,4.918,7.766q6.394,11.26,13.361,22.187c.749,1.176,1.465,2.374,2.176,3.567a26.207,26.207,0,0,1,3.913,14.3c-.211,8.631-.228,17.273-.355,25.909a18.414,18.414,0,0,1-.35,3.328,11.648,11.648,0,0,1-4.918,8.387,8.069,8.069,0,0,0-2.381,2.307,9.689,9.689,0,0,0-1.793,3.705,41.855,41.855,0,0,0-.117,11.648,6.348,6.348,0,0,0,5.151,4.842c1.393.133,2.781.133,4.169.133,4.463.05,8.937.083,13.377.133,3.347.039,6.705.122,10.036.122a18.093,18.093,0,0,0,3.33-.327,4.535,4.535,0,0,0,3.275-2.363,11.245,11.245,0,0,0,1.4-3.883c.294-3.323.328-6.69.383-10.018a6.81,6.81,0,0,0-3.047-5.663c-1.1-.843-2.348-1.536-3.458-2.341a8.036,8.036,0,0,1-3.43-6.4c-.094-2.219-.039-4.437,0-6.656.128-7.522.366-15.038.411-22.559a30.171,30.171,0,0,1,5.062-17.378c3.647-5.3,6.705-10.911,9.819-16.513,2.27-4.121,4.729-8.171,7.216-12.2a16.788,16.788,0,0,1,8.742-7.438,26.588,26.588,0,0,0,3.064-1.3,7.372,7.372,0,0,0,3.819-5.214,12.43,12.43,0,0,0,.25-2.491c.072-2.807.194-5.58.133-8.354a5.876,5.876,0,0,0-5.684-6.041c-1.665-.094-3.33-.089-5-.044-3.347.089-6.689.233-11.468.41ZM961.475,7.67H953.11c-6.694-.044-13.416-.144-20.077-.144-1.393-.006-2.786.133-4.169.266A6.1,6.1,0,0,0,923.43,13.3c-.2,3.605-.144,7.233-.078,10.85a7.209,7.209,0,0,0,2.054,4.476,16.349,16.349,0,0,0,2.442,2.274,10.536,10.536,0,0,1,4.057,8.758c.056,2.524.006,5.031.294,7.516a180.788,180.788,0,0,1,1.066,25.876c-.277,10.866-.649,21.727-.144,32.6a48.51,48.51,0,0,1-.216,7.516,10.1,10.1,0,0,1-3.741,7.211,31.774,31.774,0,0,0-2.537,2.18,9.144,9.144,0,0,0-2.936,5.869c-.294,3.605-.35,7.233-.35,10.85A5.8,5.8,0,0,0,928.1,144.4c1.4.139,2.781.178,4.174.178q10.458.067,20.915.067c1.665,0,3.33.033,5-.055a6.742,6.742,0,0,0,6.195-5.813c.283-3.328.35-6.689.466-10.018a7.764,7.764,0,0,0-3.153-6.518c-.866-.7-1.732-1.4-2.62-2.08a9.982,9.982,0,0,1-3.675-6.368,25.788,25.788,0,0,1-.411-4.138q-.183-5.43-.244-10.866a25.728,25.728,0,0,1,.222-4.992,7.517,7.517,0,0,1,5.051-6.14,17.772,17.772,0,0,1,5.689-1.265c4.74-.044,9.486-.105,14.226-.105a14.525,14.525,0,0,1,2.487.277,9.028,9.028,0,0,1,7.3,7.172,20.23,20.23,0,0,1,.372,3.328c.089,4.737.122,9.474.167,14.211,0,.555-.055,1.109-.1,1.664a11.463,11.463,0,0,1-3.969,8.026,30.844,30.844,0,0,0-3.591,3.478,7.629,7.629,0,0,0-1.915,5.4c.255,3.328.666,6.651,1.221,9.94a4.317,4.317,0,0,0,3.414,3.328,6,6,0,0,0,.81.211,191.193,191.193,0,0,0,29.219,1.248,4.757,4.757,0,0,0,.832-.111,6.766,6.766,0,0,0,5.229-3.727,11.44,11.44,0,0,0,1.249-3.944,45.2,45.2,0,0,0-.1-7.5,10.294,10.294,0,0,0-4.724-8.426,19.5,19.5,0,0,1-2.048-1.448,8.593,8.593,0,0,1-2.775-4.066,22.131,22.131,0,0,1-.821-10.728,67.073,67.073,0,0,0,.105-19.969,66.046,66.046,0,0,1-.555-16.641c.261-2.518.233-5.009.311-7.51a48.518,48.518,0,0,1,.122-4.992c1.171-8.32.294-16.729.849-25.05a11.677,11.677,0,0,0-2.886-8.5c-3.053-3.617-6.161-7.2-9.436-10.622a11.3,11.3,0,0,0-8.254-3.5c-6.133-.094-12.256-.571-18.4-.239-4.174.227-8.365.216-12.545.311Zm12.051,56.883c-2.5.128-5,.305-7.494.344a18.435,18.435,0,0,1-4.141-.294,7.143,7.143,0,0,1-5.551-4.537,19.68,19.68,0,0,1-1.376-5.625c-.217-4.726-.217-9.435-.217-14.156a15.846,15.846,0,0,1,.505-3.278,8.046,8.046,0,0,1,6.589-6.7,22.221,22.221,0,0,1,4.08-.743c5-.161,9.991-.161,14.987-.161a12.385,12.385,0,0,1,5.6,1.453,5.991,5.991,0,0,1,3.475,4.4,33.164,33.164,0,0,1,.416,5.8,81.458,81.458,0,0,0,.433,12.469,15.456,15.456,0,0,1-.277,4.116,7.842,7.842,0,0,1-8.693,7.128c-1.393-.011-2.781-.1-4.169-.1h-4.163Zm110.834,79.93,37.656-.067c.555-.006,1.11-.061,1.665-.1a5.094,5.094,0,0,0,4.9-4.792c.056-.843.1-1.67.1-2.507q-.056-8.365-.145-16.724a23.656,23.656,0,0,0-.2-2.5,6.049,6.049,0,0,0-5.079-4.865c-3.636-.061-7.244.017-10.852.239a7.362,7.362,0,0,0-5.035,2.724c-1.1,1.265-2.065,2.635-3.175,3.883a9.006,9.006,0,0,1-5.823,2.984,15.23,15.23,0,0,1-1.665.155c-5.579.028-11.185.028-16.735.028a12.559,12.559,0,0,1-3.331-.455,7.53,7.53,0,0,1-5.728-5.508,17.346,17.346,0,0,1-.555-3.273,10.92,10.92,0,0,1,.177-3.328,43.332,43.332,0,0,0,.877-11.648,29.472,29.472,0,0,1,.433-4.992,6.276,6.276,0,0,1,5.173-4.815,8.163,8.163,0,0,1,8.326,2.735,13.22,13.22,0,0,0,12.417,5.441c1.4-.094,2.786,0,4.179,0,.555-.011,1.11-.067,1.665-.128a6.07,6.07,0,0,0,5.062-4.865,17.945,17.945,0,0,0,.255-2.491q-.067-13.373-.15-26.764c-.005-.277-.061-.555-.061-.832a6.353,6.353,0,0,0-5.207-5.763,52.4,52.4,0,0,0-11.656-.416,5.6,5.6,0,0,0-3.675,1.814c-1.3,1.448-2.387,3.1-3.725,4.5a7.559,7.559,0,0,1-2.742,1.819,9.4,9.4,0,0,1-6.561,0,4.95,4.95,0,0,1-3.014-2.773,13.116,13.116,0,0,1-1.266-7.322,32.146,32.146,0,0,0,.205-11.648,14.415,14.415,0,0,1,1-7.372,6.814,6.814,0,0,1,4.84-4.254,11.852,11.852,0,0,1,3.3-.438q7.943.083,15.9.322a10.2,10.2,0,0,1,7.926,4.049c1.066,1.3,2.121,2.59,3.286,3.777a6.107,6.107,0,0,0,3.614,1.964,43.661,43.661,0,0,0,12.495-.144,5.085,5.085,0,0,0,3.33-2.357,8.517,8.517,0,0,0,1.571-4.693q0-9.2-.067-18.4a6.662,6.662,0,0,0-.311-1.631,6.554,6.554,0,0,0-5.1-4.992,7.218,7.218,0,0,0-1.665-.261,71.2,71.2,0,0,0-13.355.46,26.984,26.984,0,0,1-9.991-.033A54.534,54.534,0,0,0,1087,7.615c-5.018.044-10.063.011-15.059.083a66.538,66.538,0,0,0-9.181.41,79.123,79.123,0,0,1-11.656.649c-2.22.017-4.44.028-6.661.216a5.151,5.151,0,0,0-4.385,3.411,18.431,18.431,0,0,0,.344,13.8,14.251,14.251,0,0,0,1.959,2.679c.938,1.026,2.021,1.925,3,2.912a11.96,11.96,0,0,1,3.219,6.656,26.728,26.728,0,0,1,.294,4.166c.044,8.919.533,17.839-.089,26.758-.155,2.219-.055,4.437-.055,6.656q.122,17.561.233,35.128c.006.843-.033,1.67-.072,2.507a9.194,9.194,0,0,1-3.664,7.211c-1.543,1.181-3.108,2.357-4.529,3.672a5.146,5.146,0,0,0-1.776,3.683c-.011,3.328.089,6.656.261,9.984a7.481,7.481,0,0,0,.822,2.352,5.744,5.744,0,0,0,5.062,3.8c1.665.094,3.331.094,5,.094,4.74-.028,9.481-.15,14.227-.105,6.694.061,13.383.244,20.077.372ZM1229.469,97.6c-.067-8.076-.105-16.152-.217-24.229a13.544,13.544,0,0,0-.555-4.1,4.268,4.268,0,0,0-3.536-3.184c-2.22-.205-4.441-.172-6.661-.205a135.292,135.292,0,0,1-23.352-.921,6.344,6.344,0,0,0-7.066,5.6c-.144,3.922-.144,7.8-.144,11.687a8.4,8.4,0,0,0,.289,1.664,4.783,4.783,0,0,0,3.48,3.256,29.227,29.227,0,0,0,3.331.239c1.665.033,3.33-.089,5,0a7.536,7.536,0,0,1,7.121,6,13.817,13.817,0,0,1,.555,3.278c.061,5.009.206,10.045,0,15.038-.294,7.571-3.325,10.5-10.84,10.9h-.833c-4.179-.067-8.365-.15-12.544-.189a21.623,21.623,0,0,1-7.338-1.453,5.665,5.665,0,0,1-3.33-3.544,8.4,8.4,0,0,1-.555-2.435,52.687,52.687,0,0,1-.139-5.841c.455-8.914.561-17.816.177-26.736-.083-1.964,0-3.9.033-5.846a87.052,87.052,0,0,0-.7-15.01,13.02,13.02,0,0,1-.067-4.149,94.165,94.165,0,0,0,.883-14.977,33.982,33.982,0,0,1,.339-4.992,8.322,8.322,0,0,1,6.589-6.739,13.551,13.551,0,0,1,2.487-.311c5.573.039,11.174.122,16.724.205a11.214,11.214,0,0,1,1.665.2,7.441,7.441,0,0,1,6.3,5.88c.533,2.729.888,5.5,1.377,8.237a4.872,4.872,0,0,0,3.985,3.805c3.885.261,7.771.4,11.656.555a5.9,5.9,0,0,0,1.637-.316,5.205,5.205,0,0,0,3.486-3.328,6.519,6.519,0,0,0,.477-2.441c.028-4.177.044-8.354-.044-12.53a15.724,15.724,0,0,0-4.307-10.589c-2.043-2.263-4.041-4.587-6.106-6.85a27.916,27.916,0,0,0-2.4-2.319,12.639,12.639,0,0,0-9.125-3.489c-1.665.061-3.33.061-5,.061-8.642.128-17.279.305-25.922.366a37.364,37.364,0,0,0-8.265,1.054,12.443,12.443,0,0,0-5.878,3.006c-2.631,2.479-5.218,5.02-7.7,7.649a17.526,17.526,0,0,0-4.823,12.946c.083,5.292,0,10.583,0,15.875.017,3.345.078,6.7.122,10.029.039,2.807.116,5.58.116,8.354-.067,8.636-.194,17.267-.266,25.9-.022,2.807-.072,5.58.128,8.354a81.694,81.694,0,0,1,0,19.131,8.3,8.3,0,0,0,0,.832,15.1,15.1,0,0,0,4.1,11.488c3,3.284,6.289,6.312,9.575,9.324a10.794,10.794,0,0,0,6.85,2.773c1.4.072,2.781.122,4.174.122q16.308-.272,32.61-.555a8.3,8.3,0,0,0,1.665-.105,39.548,39.548,0,0,0,4.008-1.109,16.064,16.064,0,0,0,5.678-3.456c2.631-2.485,5.24-5,7.732-7.632a11.771,11.771,0,0,0,3.292-8.32c.044-6.4.239-12.808.35-19.209.033-2.219,0-4.437,0-6.656Zm29.656-16.635c-.1,8.359-.216,16.713-.3,25.066-.05,5.575-.039,11.171-.083,16.718a12.712,12.712,0,0,0,2.931,8.509,48.321,48.321,0,0,0,11.723,10.611,10.723,10.723,0,0,0,3.885,1.381,55.075,55.075,0,0,0,5.828.355c2.22.105,4.441.044,6.661.322a154.225,154.225,0,0,0,25.05.455,17.552,17.552,0,0,0,12.634-5.68c2.081-2.241,4.3-4.371,6.489-6.512a15.325,15.325,0,0,0,4.674-12.081c-.1-2.5-.239-5.009-.555-7.494a23.477,23.477,0,0,1-.1-6.656,99.235,99.235,0,0,0,.7-20.007c-.089-1.964-.172-3.9-.172-5.846q-.016-18.382.044-36.77c.006-1.952.1-3.9.3-5.835a10.249,10.249,0,0,1,2.82-5.941,17.879,17.879,0,0,1,2.514-2.191,11.057,11.057,0,0,0,4.229-8.72,23.616,23.616,0,0,0-1.521-9.84,3.885,3.885,0,0,0-3.053-2.6,38.4,38.4,0,0,0-5.812-.377,200.635,200.635,0,0,1-24.223-.677,10,10,0,0,0-3.264.483,5.631,5.631,0,0,0-4.185,4.715,6.366,6.366,0,0,0-.205,1.664c.044,1.958.022,3.9.239,5.841a12.4,12.4,0,0,0,5.3,9.946c.466.3.86.71,1.3,1.048a10.224,10.224,0,0,1,3.713,6.357,22.412,22.412,0,0,1,.422,4.132q.116,7.106.078,14.2a52.713,52.713,0,0,1-.333,7.5,96.437,96.437,0,0,0-.2,25.821,15.339,15.339,0,0,1,.122,4.149,99.778,99.778,0,0,0-.8,17.506,24.933,24.933,0,0,1-.322,4.992,7.323,7.323,0,0,1-5.312,5.88,8.7,8.7,0,0,1-2.459.449q-9.2.144-18.389.144a7.994,7.994,0,0,1-2.465-.427,6.909,6.909,0,0,1-4.64-4.437,19.4,19.4,0,0,1-.727-4.088c-.25-2.5-.305-5-.611-7.488a53.354,53.354,0,0,1-.083-13.312,46.777,46.777,0,0,0,0-9.984,89.322,89.322,0,0,1,.1-15.021,102.4,102.4,0,0,0-.289-26.625,9.98,9.98,0,0,1,3.752-9.685c1.288-1.065,2.62-2.091,3.852-3.2a6.515,6.515,0,0,0,1.5-1.975,13.073,13.073,0,0,0,1.46-6.457c-.172-2.491-.583-4.976-.988-7.444a4.656,4.656,0,0,0-4.013-3.727c-1.954-.133-3.891-.177-5.839-.177a105.921,105.921,0,0,1-20.01-1.01,9.408,9.408,0,0,0-2.5-.089,8.379,8.379,0,0,0-8.687,8.354,54.744,54.744,0,0,0,0,6.656,9.983,9.983,0,0,0,3.958,7.943,35.318,35.318,0,0,1,3.275,2.585,7.21,7.21,0,0,1,2.265,4.371,44.109,44.109,0,0,1,.25,4.992c.011,3.622-.083,7.239-.083,10.861.067,9.468.183,18.943.278,28.411Zm149.569,63.656h15.042c6.683.022,13.394.094,20.055.094a56.859,56.859,0,0,0,5.828-.355,5.5,5.5,0,0,0,4.374-4.487,19.743,19.743,0,0,0,.216-2.491q-.027-8.764-.078-17.528v-.838a6.386,6.386,0,0,0-5.684-6.2c-2.22-.205-4.44-.3-6.661-.3-5.423-.078-7.871,0-11.057,5.547a9.666,9.666,0,0,1-8.409,4.621c-.844.039-1.671,0-2.509,0-4.413-.122-8.814-1.126-13.294-.815a12.854,12.854,0,0,1-4.1-.754,6.36,6.36,0,0,1-4.219-3.755,10.219,10.219,0,0,1-.877-3.189,63.956,63.956,0,0,1-.355-7.5c.383-12.525.305-25.044.305-37.569-.017-8.071.15-16.141-.061-24.212-.05-1.964-.022-3.9.039-5.846a9.26,9.26,0,0,1,3.5-7.272c1.088-.871,2.237-1.675,3.242-2.624a9.262,9.262,0,0,0,3.053-6.656,55.729,55.729,0,0,0-.217-6.656,15.929,15.929,0,0,0-1.049-4.016,6.332,6.332,0,0,0-4.957-4.021,12.452,12.452,0,0,0-2.492-.183q-12.534-.033-25.073,0a21.486,21.486,0,0,0-3.33.322,6.869,6.869,0,0,0-5.029,5.048,9.162,9.162,0,0,0-.25,2.474c.339,3.6.716,7.194,1.182,10.783a5.447,5.447,0,0,0,2.093,3.5,16.767,16.767,0,0,0,2,1.492,10.493,10.493,0,0,1,5.029,8.248,55.154,55.154,0,0,1,.5,5.8c.061,5.009.039,10.04,0,15.032a47.54,47.54,0,0,1-.283,5.835,158.066,158.066,0,0,0-.844,25c.183,6.956.122,13.917.261,20.873a10.947,10.947,0,0,1-5.273,10.622,9.728,9.728,0,0,0-4.441,7.677,38.364,38.364,0,0,0-.183,7.488,9.981,9.981,0,0,0,1.471,3.838,4.752,4.752,0,0,0,3.331,2.335,12.841,12.841,0,0,0,2.481.288q18.384.222,36.757.433Zm73.168-.954c3.9,0,7.815.039,11.7,0a38.708,38.708,0,0,0,4.157-.305,4.605,4.605,0,0,0,3.763-3.96c.183-2.773.139-5.547.316-8.32a12,12,0,0,0-3.708-10.6,7.5,7.5,0,0,1-1.488-2,7.3,7.3,0,0,1-.422-7.161,7.771,7.771,0,0,1,6.505-4.609,72.138,72.138,0,0,1,15.853-.033,8.18,8.18,0,0,1,5.306,12.874,18.989,18.989,0,0,1-1.665,1.886,12.754,12.754,0,0,0-4,8.908c-.067,1.664-.594,3.3-.655,4.964a8.322,8.322,0,0,0,7.571,9.335,4.653,4.653,0,0,0,.833.078,107.727,107.727,0,0,0,11.656-.25,114.171,114.171,0,0,1,13.322-.832c1.11-.006,2.22-.083,3.33-.189a6.46,6.46,0,0,0,5.356-4.665,5.674,5.674,0,0,0,.289-1.664c0-3.084.089-6.124,0-9.186a6.938,6.938,0,0,0-3.225-5.547,26.182,26.182,0,0,0-3.63-2.047,12.011,12.011,0,0,1-6.206-7.5c-.7-2.113-1.3-4.26-1.815-6.423-1.932-8.115-4.38-16.114-5.667-24.373-2.709-8.781-4.785-17.717-6.7-26.7-.294-1.353-.8-2.662-1.138-4.01a53.245,53.245,0,0,1-1.493-6.5,68.909,68.909,0,0,0-2.414-10.567c-1.2-4.293-2.426-8.564-3.214-12.952-.494-2.735-1.138-5.453-1.871-8.132a8.07,8.07,0,0,0-7.183-6.068c-3.641-.189-7.249-.261-10.857-.116a6.932,6.932,0,0,0-5.961,4,11.966,11.966,0,0,0-1.538,4.731,82.769,82.769,0,0,1-4.269,18.671c-2.059,6.357-3.752,12.819-5.268,19.32-1.01,4.332-1.626,8.758-2.737,13.063-2.137,8.32-4.446,16.641-6.766,24.961a114.327,114.327,0,0,0-3.047,12.991c-.411,2.463-1.054,4.9-1.665,7.327a11.949,11.949,0,0,1-6.322,8.37,28.692,28.692,0,0,0-2.892,1.664,5.668,5.668,0,0,0-2.726,4.9c-.005,3.883.128,7.766.328,11.648a5.354,5.354,0,0,0,4.307,4.532,31.529,31.529,0,0,0,4.152.355h11.706Zm24.518-67.882a6.858,6.858,0,0,1,1.315-4.216,2.721,2.721,0,0,1,4.269-.344,6.453,6.453,0,0,1,1.182,6.95,3.275,3.275,0,0,1-3.3,1.986,3.4,3.4,0,0,1-3.092-2.324c-.205-.788-.305-1.609-.383-2.052ZM1610.336,7.67h-8.365c-6.694-.044-13.416-.144-20.077-.144-1.393-.006-2.786.133-4.168.266a6.1,6.1,0,0,0-5.434,5.508c-.2,3.605-.144,7.233-.078,10.85a7.208,7.208,0,0,0,2.054,4.476,16.335,16.335,0,0,0,2.442,2.274,10.536,10.536,0,0,1,4.058,8.758c.056,2.524.006,5.031.294,7.516a180.805,180.805,0,0,1,1.066,25.876c-.277,10.866-.649,21.727-.144,32.6a48.54,48.54,0,0,1-.217,7.516,10.1,10.1,0,0,1-3.741,7.211,31.775,31.775,0,0,0-2.537,2.18,9.144,9.144,0,0,0-2.936,5.869c-.294,3.605-.35,7.233-.35,10.85a5.8,5.8,0,0,0,4.757,5.125c1.4.139,2.781.178,4.174.178q10.458.067,20.915.067c1.665,0,3.331.033,5-.055a6.742,6.742,0,0,0,6.195-5.813c.283-3.328.35-6.689.466-10.018a7.764,7.764,0,0,0-3.153-6.518c-.866-.7-1.732-1.4-2.62-2.08a9.982,9.982,0,0,1-3.675-6.368,25.83,25.83,0,0,1-.411-4.138q-.183-5.43-.244-10.866a25.728,25.728,0,0,1,.222-4.992,7.517,7.517,0,0,1,5.051-6.14,17.771,17.771,0,0,1,5.689-1.265c4.74-.044,9.486-.105,14.226-.105a14.523,14.523,0,0,1,2.487.277,9.028,9.028,0,0,1,7.3,7.172,20.217,20.217,0,0,1,.372,3.328c.089,4.737.122,9.474.167,14.211,0,.555-.056,1.109-.1,1.664a11.463,11.463,0,0,1-3.969,8.026,30.816,30.816,0,0,0-3.591,3.478,7.629,7.629,0,0,0-1.915,5.4c.255,3.328.666,6.651,1.221,9.94a4.317,4.317,0,0,0,3.414,3.328,6,6,0,0,0,.81.211,191.2,191.2,0,0,0,29.219,1.248,4.755,4.755,0,0,0,.833-.111,6.765,6.765,0,0,0,5.229-3.727,11.433,11.433,0,0,0,1.249-3.944,45.185,45.185,0,0,0-.1-7.5,10.292,10.292,0,0,0-4.723-8.426,19.459,19.459,0,0,1-2.048-1.448,8.59,8.59,0,0,1-2.775-4.066,22.125,22.125,0,0,1-.822-10.728,67.069,67.069,0,0,0,.105-19.969,66.052,66.052,0,0,1-.555-16.641c.261-2.518.233-5.009.311-7.51a48.587,48.587,0,0,1,.122-4.992c1.171-8.32.294-16.729.849-25.05a11.677,11.677,0,0,0-2.886-8.5c-3.053-3.617-6.161-7.2-9.436-10.622a11.3,11.3,0,0,0-8.254-3.5c-6.134-.094-12.256-.571-18.4-.239-4.174.227-8.365.216-12.545.311Zm12.051,56.883c-2.5.128-5,.305-7.494.344a18.436,18.436,0,0,1-4.141-.294,7.142,7.142,0,0,1-5.551-4.537,19.689,19.689,0,0,1-1.377-5.625c-.216-4.726-.216-9.435-.216-14.156a15.837,15.837,0,0,1,.5-3.278,8.046,8.046,0,0,1,6.589-6.7,22.215,22.215,0,0,1,4.08-.743c5-.161,9.991-.161,14.987-.161a12.384,12.384,0,0,1,5.595,1.453,5.992,5.992,0,0,1,3.475,4.4,33.176,33.176,0,0,1,.416,5.8,81.443,81.443,0,0,0,.433,12.469,15.441,15.441,0,0,1-.277,4.116,7.842,7.842,0,0,1-8.692,7.128c-1.393-.011-2.781-.1-4.169-.1h-4.163Z" transform="translate(1747.76 4697.834)" fill="#212639"/>
    <path id="Path_4297" data-name="Path 4297" d="M0,0H516.565V2882.271H0Z" transform="translate(978.146 2187.356)" fill="#d4551c"/>
  </g>
</svg>
