<svg xmlns="http://www.w3.org/2000/svg" xmlns:xlink="http://www.w3.org/1999/xlink" width="2560" height="2880" viewBox="0 0 2560 2880">
  <defs>
    <clipPath id="clip-path">
      <rect id="Rectangle_151" data-name="Rectangle 151" width="1654.237" height="2006.971" fill="#212639"/>
    </clipPath>
  </defs>
  <g id="Group_157" data-name="Group 157" transform="translate(17845 21473.689)">
    <path id="Path_4396" data-name="Path 4396" d="M0,0H2560V2880H0Z" transform="translate(-17845 -21473.689)" fill="#d4551c"/>
    <g id="Group_149" data-name="Group 149" transform="translate(-17392.115 -21035.922)">
      <g id="Group_148" data-name="Group 148" clip-path="url(#clip-path)">
        <path id="Path_4397" data-name="Path 4397" d="M1613.578,1536.788l38.26-31.383a6.56,6.56,0,0,0,2.353-5.85l-127.733-1077.4a98.724,98.724,0,0,0-98.018-86.934H1184.4c-22.3,0-38.476,21.838-31.294,42.951,5.728,16.832,4.614,35.538-16.244,50.022a7.012,7.012,0,0,1-1.256.685l-77.2,63.54a6.564,6.564,0,0,1-8.964-4.713L990.782,91.634a6.565,6.565,0,0,0-5.485-5.152l-20.038-2.9a13.078,13.078,0,0,0-12.93,5.961l-6.808,10.784L917.756,60.494A141.333,141.333,0,0,0,797.642.061C734.07,1.92,649.715,6.45,619.7,13.287,511.952,37.828,477.212,231.21,506.887,238.363q1.534.369,3.04.638a66.5,66.5,0,0,0,32.721-2.052c60.884-20.329,91.24,28.415,84.854,78.118l-23.235,171.88a6.565,6.565,0,0,1-9.051,5.217l-76.58-63.282a6.843,6.843,0,0,1-1.256-.685c-20.857-14.484-21.972-33.19-16.246-50.022,7.185-21.113-8.994-42.951-31.294-42.951H225.8a98.724,98.724,0,0,0-98.018,86.934L.045,1499.556a6.564,6.564,0,0,0,2.358,5.85l38.255,31.38A13.083,13.083,0,0,1,45.4,1547.9L26.2,1796.935a13.075,13.075,0,0,0,20.073,12.024l228.1-145.622a6.549,6.549,0,0,0,2.874-4.1l8.006-160.546c1.707-7.651,12.973-6.408,12.973,1.432v126.661a13.072,13.072,0,0,0,19.609,11.322l54.831-31.656a6.554,6.554,0,0,0,3.187-4.582l3.4-144.662c1.333-7.835,12.881-6.86,12.881,1.09v125.422a6.587,6.587,0,0,0,9.813,5.907l115.986-66.037a6.561,6.561,0,0,0,3.2-4.495l21.175-146.746c1.554-8.294,13.921-6.443,12.975,1.943l-33.257,299.526a6.566,6.566,0,0,0,9.793,6.428l95.206-54.7A13.075,13.075,0,0,1,646,1640.84l-68.933,217a6.565,6.565,0,0,0,2.1,7.071l140.522,114.966a13.074,13.074,0,0,0,20.361-5.122l12.3-29.737a13.072,13.072,0,0,1,22.786-2.509l41.283,58.892a13.074,13.074,0,0,0,21.411,0l41.283-58.892a13.074,13.074,0,0,1,22.788,2.509l12.3,29.737a13.074,13.074,0,0,0,20.361,5.122l140.524-114.966a6.564,6.564,0,0,0,2.1-7.071l-68.931-217a13.075,13.075,0,0,1,18.974-15.3l95.206,54.7a6.566,6.566,0,0,0,9.793-6.428l-33.259-299.526c-.943-8.386,11.421-10.238,12.975-1.943l21.175,146.746a6.576,6.576,0,0,0,3.2,4.495l107.054,60.952a12.543,12.543,0,0,0,18.748-10.9v-114.45c0-8,11.687-8.989,13.037-1.057,1.434,8.433,2.606,140.01,3.241,143.741a6.543,6.543,0,0,0,3.189,4.577l54.831,31.656a13.073,13.073,0,0,0,19.609-11.322V1500.122c0-7.84,11.265-9.084,12.973-1.432L1377,1659.235a6.555,6.555,0,0,0,2.872,4.1l228.1,145.622a13.074,13.074,0,0,0,20.071-12.024l-19.2-249.036a13.071,13.071,0,0,1,4.743-11.111M772.275,98.9a7.765,7.765,0,0,1,10.91,1.258,37.359,37.359,0,0,0,58.651,0A7.765,7.765,0,1,1,854,109.813a52.89,52.89,0,0,1-82.983,0,7.763,7.763,0,0,1,1.256-10.91M951.742,1574.346c-20.922,20.014-58.219,36.386-100.063,36.386-82.779,0-149.184-50.031-149.184-151,0-99.152,68.223-155.552,147.364-155.552,43.663,0,75.5,18.194,96.424,39.114l-40.935,50.031c-14.554-12.734-29.11-21.83-52.759-21.83-40.027,0-70.045,31.837-70.045,85.507,0,55.491,24.56,86.417,77.322,86.417,8.188,0,17.284-1.817,22.741-5.457v-40.933H838.945V1433.35h112.8Zm-80.506-611.34V852.937h78.233v295.639H871.236V1031.23H783v117.346h-78.23V852.937H783v110.07Zm-.908-271.129-65.5-113.708-28.2,40.025v73.683H698.4V396.238h78.233v110.07h1.819l74.592-110.07h85.507L850.314,516.312,955.835,691.877Z" transform="translate(-0.001 0.001)" fill="#212639"/>
      </g>
    </g>
  </g>
</svg>
