<svg xmlns="http://www.w3.org/2000/svg" xmlns:xlink="http://www.w3.org/1999/xlink" width="2560" height="1440" viewBox="0 0 2560 1440">
  <defs>
    <clipPath id="clip-path">
      <rect id="Rectangle_106" data-name="Rectangle 106" width="2560" height="1440" fill="#e5e5e5"/>
    </clipPath>
    <clipPath id="clip-path-2">
      <rect id="Rectangle_130" data-name="Rectangle 130" width="806.767" height="632.208" fill="none"/>
    </clipPath>
    <clipPath id="clip-path-3">
      <rect id="Rectangle_129" data-name="Rectangle 129" width="806.764" height="632.213" fill="none"/>
    </clipPath>
  </defs>
  <g id="recipes_web" transform="translate(-42 -2368.5)">
    <rect id="Rectangle_87" data-name="Rectangle 87" width="2560" height="1440" transform="translate(42 2368.5)" fill="#f3f3f3"/>
    <g id="Group_92" data-name="Group 92" transform="translate(351.125 2773.021)" clip-path="url(#clip-path-2)">
      <path id="Path_120" data-name="Path 120" d="M804.8,198.254H633.336V15.72A15.717,15.717,0,0,0,608.765,2.731L316.68,201.815,24.579,2.731A15.73,15.73,0,0,0,0,15.72V537.885a15.721,15.721,0,0,0,15.72,15.72h142.56A15.721,15.721,0,0,0,174,537.885V506.46L306.025,628.054a15.73,15.73,0,0,0,21.3,0L459.346,506.46v31.425a15.721,15.721,0,0,0,15.72,15.72H617.615a15.716,15.716,0,0,0,15.72-15.72V451.962H795.024A1.971,1.971,0,0,0,796.989,450V359.29a1.968,1.968,0,0,0-1.965-1.965h-130.6V292.883H804.8a1.963,1.963,0,0,0,1.965-1.965v-90.7a1.961,1.961,0,0,0-1.965-1.965" transform="translate(0 0)" fill="#e62f4a"/>
      <path id="Path_121" data-name="Path 121" d="M104.787,54.863h8.206l10.961,31.555h.169l10.882-31.555H143.3v59.6h-8.544V78.212h-.161l-8.458,25.624h-4.268L113.5,78.212h-.169v36.255h-8.544Z" transform="translate(307.035 160.754)" fill="#fff"/>
      <path id="Path_122" data-name="Path 122" d="M116.5,69.3c0-9.707,7.369-14.569,14.317-14.569S145.134,59.6,145.134,69.3v31.48c0,9.711-7.361,14.561-14.313,14.561s-14.317-4.85-14.317-14.561Zm8.544,31.48c0,4.1,2.672,6.025,5.773,6.025s5.773-1.926,5.773-6.025V69.3c0-4.107-2.672-6.025-5.773-6.025s-5.773,1.918-5.773,6.025Z" transform="translate(341.365 160.376)" fill="#fff"/>
      <path id="Path_123" data-name="Path 123" d="M125.706,54.863h12.643c9.617,0,14.981,5.773,14.981,15.4v27.88c0,11.051-5.695,16.326-15.74,16.326H125.706Zm8.536,51.567h3.938c4.767,0,6.61-2.342,6.61-7.451V70.261c0-4.685-1.592-7.361-6.61-7.361h-3.938Z" transform="translate(368.331 160.754)" fill="#fff"/>
      <path id="Path_124" data-name="Path 124" d="M134.781,54.863h25.447V62.9h-16.9V80.393h14.73V88.43h-14.73v17.493h16.9v8.544H134.781Z" transform="translate(394.921 160.754)" fill="#fff"/>
      <path id="Path_125" data-name="Path 125" d="M142.663,54.864h13.724c10.132,0,15.068,5.938,15.068,17.493,0,6.862-1.926,11.889-7.369,14.9l9.212,27.212h-9.043L156.3,89.013H151.2v25.455h-8.536ZM151.2,81.483h4.85c5.95,0,6.87-3.348,6.87-9.295,0-6.025-1-9.291-7.282-9.291H151.2Z" transform="translate(418.017 160.757)" fill="#fff"/>
      <path id="Path_126" data-name="Path 126" d="M164.07,54.863h7.11l13.315,59.6h-8.544l-2.507-12.812H161.807L159.3,114.467h-8.536Zm3.6,17.155h-.177l-4.174,21.6h8.532Z" transform="translate(441.739 160.754)" fill="#fff"/>
      <path id="Path_127" data-name="Path 127" d="M168.03,62.9h-9.88V54.863h28.293V62.9h-9.876v51.567H168.03Z" transform="translate(463.394 160.754)" fill="#fff"/>
      <path id="Path_128" data-name="Path 128" d="M165.925,69.3c0-9.707,7.369-14.569,14.317-14.569S194.556,59.6,194.556,69.3v31.48c0,9.711-7.361,14.561-14.313,14.561s-14.317-4.85-14.317-14.561Zm8.544,31.48c0,4.1,2.672,6.025,5.773,6.025s5.781-1.926,5.781-6.025V69.3c0-4.107-2.68-6.025-5.781-6.025s-5.773,1.918-5.773,6.025Z" transform="translate(486.177 160.376)" fill="#fff"/>
      <path id="Path_129" data-name="Path 129" d="M175.128,54.864h13.724c10.132,0,15.068,5.938,15.068,17.493,0,6.862-1.926,11.889-7.369,14.9l9.212,27.212H196.72l-7.951-25.455h-5.105v25.455h-8.536Zm8.536,26.619h4.85c5.95,0,6.87-3.348,6.87-9.295,0-6.025-1-9.291-7.282-9.291h-4.437Z" transform="translate(513.143 160.757)" fill="#fff"/>
      <path id="Path_130" data-name="Path 130" d="M184.2,54.863H209.65V62.9H192.739V80.393h14.738V88.43H192.739v17.493H209.65v8.544H184.2Z" transform="translate(539.732 160.754)" fill="#fff"/>
      <path id="Path_131" data-name="Path 131" d="M192,54.863h8.206l12.887,35.909h.169V54.863H221.8v59.6h-8.029L200.7,78.636h-.161v35.831H192Z" transform="translate(562.578 160.754)" fill="#fff"/>
      <path id="Path_132" data-name="Path 132" d="M123.719,134.248h-7.546L104.041,74.637h9.039l6.779,41.612h.177L126.9,74.637h9.031Z" transform="translate(304.852 218.692)" fill="#fff"/>
      <path id="Path_133" data-name="Path 133" d="M113.457,74.637H138.9v8.037H121.993v17.5h14.738v8.037H121.993V125.7H138.9v8.544H113.457Z" transform="translate(332.439 218.692)" fill="#fff"/>
      <path id="Path_134" data-name="Path 134" d="M121.339,74.637h13.724c10.132,0,15.068,5.946,15.068,17.5,0,6.862-1.918,11.881-7.369,14.9l9.212,27.212h-9.035l-7.958-25.455h-5.105v25.455h-8.536Zm8.536,26.626h4.858c5.942,0,6.862-3.356,6.862-9.295,0-6.025-1-9.295-7.282-9.295h-4.437Z" transform="translate(355.535 218.694)" fill="#fff"/>
      <path id="Path_135" data-name="Path 135" d="M130.413,74.637h12.474c11.047,0,15.15,7.282,15.15,15.076v2.173c0,6.363-2.087,8.7-5.856,11.051,4.017,1.926,5.856,5.526,5.856,11.72v3.348c0,10.379-4.94,16.243-15.988,16.243H130.413Zm8.544,24.449H142.8c5.695,0,7.2-2.936,7.2-8.375,0-5.274-1.93-8.037-7.53-8.037h-3.517Zm0,26.619h3.678c6.862,0,7.369-4.182,7.369-10.049,0-5.938-1.085-9.031-7.286-9.031h-3.761Z" transform="translate(382.123 218.694)" fill="#fff"/>
      <path id="Path_136" data-name="Path 136" d="M151.564,74.637h7.117l13.307,59.612h-8.544l-2.507-12.812H149.308L146.8,134.249h-8.544Zm3.6,17.163H155l-4.189,21.6h8.54Z" transform="translate(405.095 218.694)" fill="#fff"/>
      <path id="Path_137" data-name="Path 137" d="M147.818,74.637h8.206l12.887,35.917h.169V74.637h8.544v59.612h-8.037L156.523,98.418h-.169v35.831h-8.536Z" transform="translate(433.121 218.692)" fill="#fff"/>
      <path id="Path_138" data-name="Path 138" d="M157.361,74.637H170c9.625,0,14.982,5.781,14.982,15.406v27.88c0,11.051-5.695,16.326-15.74,16.326H157.361Zm8.536,51.575h3.938c4.767,0,6.61-2.35,6.61-7.451V90.043c0-4.689-1.584-7.369-6.61-7.369H165.9Z" transform="translate(461.083 218.694)" fill="#fff"/>
      <path id="Path_139" data-name="Path 139" d="M104.786,95.338h12.647c9.621,0,14.978,5.781,14.978,15.406v27.88c0,11.044-5.687,16.318-15.728,16.318h-11.9Zm8.548,51.567h3.93c4.767,0,6.618-2.342,6.618-7.448V110.744c0-4.693-1.6-7.369-6.618-7.369h-3.93Z" transform="translate(307.033 279.35)" fill="#fff"/>
      <path id="Path_140" data-name="Path 140" d="M113.863,95.338H139.31v8.037H122.4v17.5h14.73v8.037H122.4v17.493H139.31v8.536H113.863Z" transform="translate(333.629 279.349)" fill="#fff"/>
      <path id="Path_141" data-name="Path 141" d="M149.369,141.548a13.813,13.813,0,1,1-27.625,0V95.338h8.536v45.373c0,4.193,2.264,6.194,5.27,6.194s5.274-2,5.274-6.194V95.338h8.544Z" transform="translate(356.722 279.35)" fill="#fff"/>
      <path id="Path_142" data-name="Path 142" d="M139.6,103.375h-9.872V95.338h28.293v8.037h-9.876v51.567H139.6Z" transform="translate(380.127 279.349)" fill="#fff"/>
      <path id="Path_143" data-name="Path 143" d="M166.763,112.873h-8.536v-1.926c0-3.938-1.674-7.2-6.033-7.2-4.681,0-5.773,3.769-5.773,7.707,0,4.6.417,6.194,4.854,7.951L157.806,122c7.53,2.849,8.957,7.617,8.957,16.322,0,10.045-3.683,17.5-14.73,17.5-8.289,0-14.569-6.111-14.569-14.148v-3.183h8.544v2.676c0,3.1,1.666,6.111,6.025,6.111,5.773,0,6.194-3.431,6.194-8.874,0-6.363-.751-7.361-4.944-9.043l-6.107-2.507c-7.361-3.01-9.3-7.868-9.3-15.323,0-9.035,4.862-16.318,14.655-16.318a13.96,13.96,0,0,1,14.231,13.48Z" transform="translate(402.783 278.978)" fill="#fff"/>
      <path id="Path_144" data-name="Path 144" d="M174.037,142a13.776,13.776,0,0,1-13.563,13.818c-6.532,0-14.062-3.187-14.062-14.062V108.935c0-7.786,5.608-13.724,13.893-13.724,7.868,0,13.732,5.938,13.732,14.231v3.345H165.5v-2.845c0-3.348-2.012-6.194-5.274-6.194-4.276,0-5.278,2.932-5.278,6.944v30.474c0,3.431,1.34,6.111,5.2,6.111,2.342,0,5.357-1.336,5.357-6.025V138.32h8.536Z" transform="translate(429.002 278.978)" fill="#fff"/>
      <path id="Path_145" data-name="Path 145" d="M155.211,95.338h8.536v25.538h10.544V95.338h8.536v59.6h-8.536V128.406H163.747v26.536h-8.536Z" transform="translate(454.782 279.349)" fill="#fff"/>
      <path id="Path_146" data-name="Path 146" d="M164.285,95.338h8.544v51.068H189.74v8.536H164.285Z" transform="translate(481.371 279.349)" fill="#fff"/>
      <path id="Path_147" data-name="Path 147" d="M184.5,95.338h7.117l13.307,59.6h-8.536l-2.507-12.8H182.242l-2.511,12.8h-8.544Zm3.6,17.163h-.169l-4.19,21.6h8.54Z" transform="translate(501.595 279.35)" fill="#fff"/>
      <path id="Path_148" data-name="Path 148" d="M180.751,95.338h8.206l12.887,35.917h.169V95.338h8.544v59.6H202.52l-13.064-35.823h-.169v35.823h-8.536Z" transform="translate(529.62 279.349)" fill="#fff"/>
      <path id="Path_149" data-name="Path 149" d="M190.294,95.338h12.643c9.625,0,14.982,5.781,14.982,15.406v27.88c0,11.044-5.695,16.318-15.74,16.318H190.294ZM198.83,146.9h3.938c4.767,0,6.61-2.342,6.61-7.448V110.744c0-4.693-1.584-7.369-6.61-7.369H198.83Z" transform="translate(557.58 279.35)" fill="#fff"/>
    </g>
    <g id="Group_91" data-name="Group 91" transform="translate(1486.119 2773.018)" clip-path="url(#clip-path-3)">
      <path id="Path_90" data-name="Path 90" d="M804.8,198.25H633.333V15.721A15.717,15.717,0,0,0,608.762,2.732L316.67,201.811,24.579,2.732A15.723,15.723,0,0,0,0,15.721V537.884A15.721,15.721,0,0,0,15.72,553.6H158.28A15.721,15.721,0,0,0,174,537.884V506.455l132.023,121.6a15.719,15.719,0,0,0,21.3,0l132.012-121.6v31.429a15.721,15.721,0,0,0,15.72,15.72H617.613a15.721,15.721,0,0,0,15.72-15.72V451.957h161.68a1.963,1.963,0,0,0,1.965-1.965v-90.7a1.961,1.961,0,0,0-1.965-1.965H664.42V292.879H804.8a1.966,1.966,0,0,0,1.965-1.965v-90.7a1.968,1.968,0,0,0-1.965-1.965" transform="translate(0 0.003)" fill="#fff"/>
      <path id="Path_91" data-name="Path 91" d="M104.787,54.863h8.206l10.961,31.563h.169L135,54.863H143.3V114.47h-8.544V78.219h-.169l-8.45,25.62h-4.268L113.5,78.219h-.177V114.47h-8.536Z" transform="translate(307.034 160.752)" fill="#e62f4a"/>
      <path id="Path_92" data-name="Path 92" d="M116.5,69.3c0-9.711,7.369-14.569,14.317-14.569s14.313,4.858,14.313,14.569V100.78c0,9.711-7.369,14.569-14.313,14.569S116.5,110.491,116.5,100.78Zm8.536,31.476c0,4.1,2.68,6.029,5.781,6.029s5.773-1.926,5.773-6.029V69.3c0-4.1-2.68-6.029-5.773-6.029s-5.781,1.926-5.781,6.029Z" transform="translate(341.364 160.378)" fill="#e62f4a"/>
      <path id="Path_93" data-name="Path 93" d="M125.7,54.863h12.651c9.617,0,14.974,5.777,14.974,15.406V98.145c0,11.051-5.687,16.326-15.732,16.326H125.7Zm8.544,51.571h3.938c4.767,0,6.61-2.346,6.61-7.451V70.269c0-4.693-1.592-7.369-6.61-7.369h-3.938Z" transform="translate(368.323 160.753)" fill="#e62f4a"/>
      <path id="Path_94" data-name="Path 94" d="M134.781,54.863h25.447V62.9H143.317V80.4h14.738v8.037H143.317v17.5h16.911v8.54H134.781Z" transform="translate(394.919 160.752)" fill="#e62f4a"/>
      <path id="Path_95" data-name="Path 95" d="M142.661,54.863h13.732c10.132,0,15.068,5.942,15.068,17.5,0,6.866-1.926,11.885-7.369,14.9l9.212,27.208h-9.043L156.31,89.019h-5.105v25.451h-8.544Zm8.544,26.622h4.85c5.95,0,6.87-3.352,6.87-9.295,0-6.025-1-9.295-7.282-9.295h-4.437Z" transform="translate(418.009 160.753)" fill="#e62f4a"/>
      <path id="Path_96" data-name="Path 96" d="M164.068,54.863h7.117l13.307,59.608h-8.536l-2.507-12.812H161.812L159.3,114.471h-8.544Zm3.6,17.163H167.5l-4.182,21.6h8.532Z" transform="translate(441.731 160.753)" fill="#e62f4a"/>
      <path id="Path_97" data-name="Path 97" d="M168.022,62.9H158.15V54.863h28.293V62.9h-9.876V114.47h-8.544Z" transform="translate(463.392 160.752)" fill="#e62f4a"/>
      <path id="Path_98" data-name="Path 98" d="M165.925,69.3c0-9.711,7.369-14.569,14.317-14.569s14.313,4.858,14.313,14.569V100.78c0,9.711-7.361,14.569-14.313,14.569s-14.317-4.858-14.317-14.569Zm8.544,31.476c0,4.1,2.673,6.029,5.773,6.029s5.773-1.926,5.773-6.029V69.3c0-4.1-2.68-6.029-5.773-6.029s-5.773,1.926-5.773,6.029Z" transform="translate(486.174 160.378)" fill="#e62f4a"/>
      <path id="Path_99" data-name="Path 99" d="M175.126,54.863h13.732c10.132,0,15.068,5.942,15.068,17.5,0,6.866-1.926,11.885-7.369,14.9l9.212,27.208h-9.043l-7.951-25.451H183.67v25.451h-8.544Zm8.544,26.622h4.85c5.95,0,6.87-3.352,6.87-9.295,0-6.025-1-9.295-7.282-9.295H183.67Z" transform="translate(513.134 160.753)" fill="#e62f4a"/>
      <path id="Path_100" data-name="Path 100" d="M184.2,54.863H209.65V62.9H192.739V80.4h14.738v8.037H192.739v17.5H209.65v8.54H184.2Z" transform="translate(539.729 160.752)" fill="#e62f4a"/>
      <path id="Path_101" data-name="Path 101" d="M192,54.863h8.206L213.092,90.78h.169V54.863H221.8V114.47H213.76L200.7,78.64h-.161V114.47H192Z" transform="translate(562.575 160.752)" fill="#e62f4a"/>
      <path id="Path_102" data-name="Path 102" d="M123.711,134.245h-7.538L104.041,74.637h9.039l6.779,41.608h.169l6.862-41.608h9.039Z" transform="translate(304.85 218.694)" fill="#e62f4a"/>
      <path id="Path_103" data-name="Path 103" d="M113.457,74.638H138.9v8.037H121.993v17.5h14.738v8.037H121.993V125.7H138.9v8.544H113.457Z" transform="translate(332.437 218.696)" fill="#e62f4a"/>
      <path id="Path_104" data-name="Path 104" d="M121.339,74.638h13.724c10.132,0,15.068,5.942,15.068,17.5,0,6.862-1.926,11.889-7.369,14.9l9.212,27.212h-9.043L134.98,108.79h-5.105v25.455h-8.536Zm8.536,26.622h4.85c5.95,0,6.87-3.348,6.87-9.295,0-6.029-1-9.291-7.282-9.291h-4.437Z" transform="translate(355.533 218.696)" fill="#e62f4a"/>
      <path id="Path_105" data-name="Path 105" d="M130.413,74.638h12.474c11.047,0,15.15,7.282,15.15,15.068v2.177c0,6.363-2.095,8.709-5.864,11.051,4.024,1.926,5.864,5.526,5.864,11.72V118c0,10.379-4.94,16.243-15.988,16.243H130.413Zm8.544,24.445H142.8c5.695,0,7.2-2.928,7.2-8.371,0-5.274-1.93-8.037-7.538-8.037h-3.509Zm0,26.618h3.679c6.862,0,7.369-4.182,7.369-10.041,0-5.946-1.093-9.039-7.286-9.039h-3.761Z" transform="translate(382.121 218.696)" fill="#e62f4a"/>
      <path id="Path_106" data-name="Path 106" d="M151.564,74.638h7.117l13.307,59.6h-8.544l-2.507-12.808H149.3l-2.511,12.808h-8.536Zm3.6,17.159H155l-4.189,21.6h8.54Z" transform="translate(405.093 218.696)" fill="#e62f4a"/>
      <path id="Path_107" data-name="Path 107" d="M147.818,74.638h8.2l12.895,35.909h.169V74.638h8.536v59.608h-8.037L156.523,98.411h-.169v35.834h-8.536Z" transform="translate(433.119 218.696)" fill="#e62f4a"/>
      <path id="Path_108" data-name="Path 108" d="M157.361,74.638H170c9.625,0,14.981,5.777,14.981,15.4v27.88c0,11.051-5.695,16.326-15.74,16.326H157.361Zm8.536,51.571h3.938c4.767,0,6.61-2.35,6.61-7.451V90.04c0-4.685-1.592-7.365-6.61-7.365H165.9Z" transform="translate(461.081 218.696)" fill="#e62f4a"/>
      <path id="Path_109" data-name="Path 109" d="M104.786,95.338h12.647c9.621,0,14.978,5.781,14.978,15.406v27.88c0,11.051-5.691,16.326-15.736,16.326H104.786Zm8.54,51.575h3.938c4.767,0,6.61-2.35,6.61-7.451V110.744c0-4.689-1.592-7.369-6.61-7.369h-3.938Z" transform="translate(307.032 279.348)" fill="#e62f4a"/>
      <path id="Path_110" data-name="Path 110" d="M113.861,95.338h25.455v8.037H122.4v17.5h14.73v8.037H122.4v17.493h16.911v8.544H113.861Z" transform="translate(333.622 279.347)" fill="#e62f4a"/>
      <path id="Path_111" data-name="Path 111" d="M149.369,141.555a13.813,13.813,0,1,1-27.625,0V95.337h8.536v45.381c0,4.185,2.264,6.194,5.27,6.194s5.274-2.008,5.274-6.194V95.337h8.544Z" transform="translate(356.72 279.345)" fill="#e62f4a"/>
      <path id="Path_112" data-name="Path 112" d="M139.6,103.375h-9.872V95.338h28.293v8.037h-9.876v51.575H139.6Z" transform="translate(380.125 279.347)" fill="#e62f4a"/>
      <path id="Path_113" data-name="Path 113" d="M166.763,112.873h-8.544v-1.926c0-3.93-1.674-7.2-6.025-7.2-4.689,0-5.773,3.769-5.773,7.707,0,4.6.417,6.194,4.854,7.951L157.806,122c7.53,2.849,8.957,7.616,8.957,16.326,0,10.041-3.683,17.5-14.73,17.5-8.289,0-14.569-6.111-14.569-14.148v-3.187h8.544v2.68c0,3.1,1.666,6.119,6.025,6.119,5.773,0,6.186-3.439,6.186-8.874,0-6.363-.743-7.369-4.936-9.043l-6.107-2.515c-7.369-3.01-9.3-7.868-9.3-15.316,0-9.043,4.862-16.326,14.655-16.326a13.96,13.96,0,0,1,14.231,13.476Z" transform="translate(402.781 278.976)" fill="#e62f4a"/>
      <path id="Path_114" data-name="Path 114" d="M174.037,142.01a13.774,13.774,0,0,1-13.563,13.81c-6.532,0-14.062-3.18-14.062-14.062V108.943c0-7.789,5.608-13.732,13.893-13.732,7.868,0,13.732,5.942,13.732,14.231v3.348h-8.544v-2.849c0-3.348-2-6.194-5.274-6.194-4.268,0-5.27,2.932-5.27,6.952v30.466c0,3.439,1.34,6.119,5.188,6.119,2.35,0,5.357-1.344,5.357-6.033v-2.924h8.544Z" transform="translate(428.999 278.976)" fill="#e62f4a"/>
      <path id="Path_115" data-name="Path 115" d="M155.208,95.338h8.544v25.538H174.3V95.338h8.536v59.612H174.3V128.405H163.753v26.544h-8.544Z" transform="translate(454.774 279.347)" fill="#e62f4a"/>
      <path id="Path_116" data-name="Path 116" d="M164.285,95.338h8.536v51.068h16.911v8.544H164.285Z" transform="translate(481.368 279.347)" fill="#e62f4a"/>
      <path id="Path_117" data-name="Path 117" d="M184.5,95.338h7.117l13.307,59.612h-8.536l-2.515-12.812H182.234l-2.511,12.812h-8.536Zm3.6,17.163h-.169l-4.19,21.6h8.54Z" transform="translate(501.592 279.348)" fill="#e62f4a"/>
      <path id="Path_118" data-name="Path 118" d="M180.751,95.338h8.206l12.887,35.917h.169V95.338h8.536v59.612h-8.037l-13.056-35.831h-.169v35.831h-8.536Z" transform="translate(529.617 279.347)" fill="#e62f4a"/>
      <path id="Path_119" data-name="Path 119" d="M190.294,95.338h12.643c9.625,0,14.981,5.781,14.981,15.406v27.88c0,11.051-5.695,16.326-15.74,16.326H190.294Zm8.536,51.575h3.938c4.767,0,6.61-2.35,6.61-7.451V110.744c0-4.689-1.592-7.369-6.61-7.369H198.83Z" transform="translate(557.577 279.348)" fill="#e62f4a"/>
    </g>
  </g>
</svg>
