<svg xmlns="http://www.w3.org/2000/svg" width="2560" height="2880" viewBox="0 0 2560 2880">
  <g id="Group_123" data-name="Group 123" transform="translate(-42 -3357)">
    <rect id="Rectangle_95" data-name="Rectangle 95" width="2560" height="2880" transform="translate(42 3357)" fill="#2d2926"/>
    <g id="Group_96" data-name="Group 96" transform="translate(512.344 3978.429)">
      <path id="Path_101" data-name="Path 101" d="M429.015,304.928l-41.892,141.84-44.847.222,43.184-142.149Z" transform="translate(-170.92 572.972)" fill="#e0007a"/>
      <g id="Group_93" data-name="Group 93" transform="translate(31.138 277.082)">
        <path id="Path_102" data-name="Path 102" d="M396.1,650.112a87.251,87.251,0,0,0,26.573-4.649c21.266-7.3,46.516-28.568,46.516-80.407,0-44.52-26.573-62.46-43.19-68.44-7.984-3.334-12.625-3.334-21.274-4h-25.25V650.785Zm3.31-208.661c11.286-.657,22.6-1.323,33.234-7.311,13.939-7.968,34.557-31.887,34.557-72.439,0-8.617-2.012-57.145-39.887-74.411-7.96-4-13.94-5.323-30.565-6H379.478V441.451ZM324.994,230.8h56.472c35.895.665,66.451,2.653,95.044,27.911C505.744,284.62,517.7,323.161,517.7,361.036c0,33.226-9.3,67.8-35.887,89.722a111.819,111.819,0,0,1-30.557,15.959c15.27,4.649,19.936,6.629,27.246,11.286,30.581,19.936,43.854,59.815,43.854,95.02,0,55.165-31.23,101.689-83.734,118.29-15.286,5.323-27.238,7.327-58.476,8.65H324.994Z" transform="translate(-324.994 -230.802)" fill="#fff"/>
      </g>
      <path id="Path_103" data-name="Path 103" d="M553.888,595.151,498.058,381.833,440.913,595.151ZM351.856,703.47,493.417,230.309h11.278L642.255,703.47H583.122L567.17,641H427.614L411,703.47Z" transform="translate(-102.767 42.773)" fill="#fff"/>
      <g id="Group_94" data-name="Group 94" transform="translate(587.327 277.037)">
        <path id="Path_104" data-name="Path 104" d="M448.708,450.131c6.653,0,23.911,2,41.867-2.645,39.855-10,62.452-42.532,62.452-83.076,0-21.274-5.972-35.887-9.956-43.2-18.613-39.879-57.81-39.206-94.363-38.54Zm-55.165-219.29h59.806c7.311,0,48.512-1.339,80.407,10.621,29.907,11.3,73.121,43.863,73.121,121.625,0,11.294,0,55.141-26.589,87.71-7.327,8.641-13.3,13.3-29.907,25.25L612.184,700H553.692l-49.827-204.02c-19.27,3.335-23.936,4.665-55.157,4L450.023,700h-56.48Z" transform="translate(-393.543 -230.796)" fill="#fff"/>
        <path id="Path_105" data-name="Path 105" d="M482.68,450.131c6.669,0,23.927,2,41.875-2.645,39.855-10,62.451-42.532,62.451-83.076,0-21.274-5.972-35.887-9.964-43.2-18.6-39.879-57.8-39.206-94.363-38.54Zm-55.149-219.29h59.806c7.326,0,48.52-1.339,80.4,10.621,29.907,11.3,73.1,43.863,73.1,121.625,0,11.294,0,55.141-26.573,87.71-7.318,8.641-13.3,13.3-29.907,25.25L646.164,700H587.68l-49.827-204.02c-19.278,3.335-23.936,4.665-55.173,4L484.011,700h-56.48Z" transform="translate(-151.761 -230.796)" fill="#fff"/>
      </g>
      <path id="Path_106" data-name="Path 106" d="M691.7,230.8,601.311,458.074V699.965H546.844L545.5,457.408,455.786,230.8h60.457L574.75,403.576,634.558,230.8Z" transform="translate(636.565 46.278)" fill="#fff"/>
      <path id="Path_107" data-name="Path 107" d="M491.284,774.495H325.158V305.332h56.463l-1.332,418.65h116.3Z" transform="translate(-292.688 576.467)" fill="#fff"/>
      <path id="Path_108" data-name="Path 108" d="M553.56,669.667,497.729,456.349,440.584,669.667ZM351.528,777.986,493.072,304.841h11.294l137.56,473.145H582.786l-15.96-62.46H427.286l-16.609,62.46Z" transform="translate(-105.1 572.974)" fill="#fff"/>
      <path id="Path_109" data-name="Path 109" d="M393.3,774.495V305.332h166.8l5.982,50.5H451.78V514.657h78.412v51.171H451.78V774.495Z" transform="translate(192.026 576.467)" fill="#fff"/>
      <path id="Path_110" data-name="Path 110" d="M419.34,774.495V305.332h166.8l5.99,50.5H477.817V514.657h78.427v51.171H477.817V774.495Z" transform="translate(377.295 576.467)" fill="#fff"/>
      <path id="Path_111" data-name="Path 111" d="M638.8,669.667,582.97,456.349,525.825,669.667ZM436.785,777.986,578.321,304.841h11.3L727.176,777.986H668.035l-15.944-62.46H512.543l-16.625,62.46Z" transform="translate(501.396 572.974)" fill="#fff"/>
      <rect id="Rectangle_126" data-name="Rectangle 126" width="56.48" height="469.162" transform="translate(1280.394 881.799)" fill="#fff"/>
      <g id="Group_95" data-name="Group 95" transform="translate(1400.673 881.754)">
        <path id="Path_112" data-name="Path 112" d="M548.935,524.653c6.653,0,23.928,2,41.867-2.637,39.854-9.98,62.468-42.532,62.468-83.076,0-21.274-5.972-35.887-9.964-43.189-18.621-39.879-57.81-39.206-94.371-38.541ZM493.786,305.371h59.79c7.343,0,48.544-1.339,80.407,10.629,29.923,11.294,73.105,43.855,73.105,121.617,0,11.286,0,55.149-26.573,87.7-7.311,8.649-13.282,13.3-29.891,25.266l61.8,223.948H653.918l-49.8-204.012c-19.286,3.327-23.943,4.657-55.182,3.992l1.331,200.02h-56.48Z" transform="translate(-493.786 -305.326)" fill="#fff"/>
      </g>
      <rect id="Rectangle_127" data-name="Rectangle 127" width="489.748" height="86.391" transform="translate(0 1552.386)" fill="#fff"/>
      <rect id="Rectangle_128" data-name="Rectangle 128" width="489.748" height="86.383" fill="#fff"/>
    </g>
  </g>
</svg>
