<svg xmlns="http://www.w3.org/2000/svg" xmlns:xlink="http://www.w3.org/1999/xlink" width="2560" height="2879.999" viewBox="0 0 2560 2879.999">
  <defs>
    <clipPath id="clip-path">
      <rect id="Rectangle_189" data-name="Rectangle 189" width="2077.871" height="1032.803" fill="rgba(0,0,0,0)"/>
    </clipPath>
  </defs>
  <g id="Group_362" data-name="Group 362" transform="translate(0 -13227)">
    <path id="fond" d="M0,0H2560V2880H0Z" transform="translate(0 13227)" fill="#ddd" opacity="0.999"/>
    <g id="Group_363" data-name="Group 363" transform="translate(241.064 14133.781)">
      <rect id="Rectangle_184" data-name="Rectangle 184" width="472.092" height="472.092" transform="translate(471.657 530.184)" fill="#fff"/>
      <path id="Path_286" data-name="Path 286" d="M301.938,305.435,66.323,69.82h471.23Z" transform="translate(405.766 460.798)" fill="#584e93"/>
      <path id="Path_287" data-name="Path 287" d="M301.938,102.921,537.553,338.536H66.323Z" transform="translate(405.766 663.312)" fill="#fa9060"/>
      <rect id="Rectangle_185" data-name="Rectangle 185" width="472.092" height="472.092" transform="translate(471.657 57.21)" fill="#584e93"/>
      <g id="Group_224" data-name="Group 224" transform="translate(0 33.635)">
        <g id="Group_223" data-name="Group 223" clip-path="url(#clip-path)">
          <path id="Path_288" data-name="Path 288" d="M66.262,476.425V3.145A471.663,471.663,0,0,1,400.078,141.762,474.07,474.07,0,0,1,538.354,476.425Z" transform="translate(405.395 19.241)" fill="#f8d790"/>
          <path id="Path_289" data-name="Path 289" d="M66.262,272.516V36.474A236.027,236.027,0,0,1,302.3,272.516Z" transform="translate(405.395 223.15)" fill="#fe8f5c"/>
          <rect id="Rectangle_186" data-name="Rectangle 186" width="472.092" height="472.092" transform="translate(0 22.977)" fill="#ffccca"/>
          <path id="Path_290" data-name="Path 290" d="M472.092,476.341V3.061A472.687,472.687,0,0,0,0,476.341Z" transform="translate(0 18.727)" fill="#fff"/>
          <path id="Path_291" data-name="Path 291" d="M269.2,272.432V36.39A236.027,236.027,0,0,0,33.162,272.432Z" transform="translate(202.887 222.636)" fill="#f8d790"/>
          <rect id="Rectangle_187" data-name="Rectangle 187" width="472.092" height="472.092" transform="translate(0 496.549)" fill="#584e93"/>
          <rect id="Rectangle_188" data-name="Rectangle 188" width="236.042" height="472.092" transform="translate(236.042 496.549)" fill="#ffccca"/>
          <path id="Path_292" data-name="Path 292" d="M269.2,69.76H33.162A236.027,236.027,0,0,0,269.2,305.8Z" transform="translate(202.887 426.796)" fill="#584e93"/>
          <path id="Path_293" data-name="Path 293" d="M0,69.76V305.8H236.042Z" transform="translate(0 426.794)" fill="#fa905c"/>
          <path id="Path_294" data-name="Path 294" d="M0,102.921V338.963H236.042Z" transform="translate(0 629.677)" fill="#f8d790"/>
        </g>
      </g>
      <path id="Path_1172" data-name="Path 1172" d="M22.327,0H135.038V-28.783H51.379V-191.259H22.327ZM176.2,0h25.286l72.361-191.259H242.907L188.838-47.882,134.5-191.259H103.565ZM299.128,0H328.18V-76.4h42.771L404.307,0h32.28L400-82.583l12.912-6.456,13.719-20.175,7.263-26.9-8.07-28.245L405.383-184.8l-25.017-6.456H299.128ZM328.18-105.179v-57.3h47.882l13.988,4.3,9.684,9.415,3.766,13.45-4.035,13.988-6.456,9.415-13.719,6.725Z" transform="translate(1004.579 261)"/>
      <path id="Path_1171" data-name="Path 1171" d="M25.935,0H137.046V-22.386H48.594V-194.1H25.935ZM202.293,2.184h16.926l25.116-12.558,6.279-7.1,13.1,19.656,18.291-13.1L271.362-26.208v-82.719l-7.371-18.564-20.2-13.65-19.656-4.914H198.744l-17.472,5.187-13.1,8.463-7.644,7.1L176.085-109.2l5.187-5.187,8.463-5.46,11.739-3.822h19.383l13.377,3.276,11.466,7.371,3,8.19v20.748l-6.552-4.641L223.86-94.731H206.388l-27.027,6.825-20.2,20.2L155.337-49.14v15.834l15.288,22.113,13.1,7.644ZM205.569-20.2l-12.831-3.822-6.279-3.822L178-39.858v-7.371l2.184-9.555,10.647-10.647,18.018-4.914H221.13l13.377,3.822,8.463,4.368,5.733,6.006v10.1l-2.73,8.463L234.78-27.846,214.305-20.2ZM313.131,0H335.79V-99.372l8.19-11.739,19.656-12.558h17.472l16.107,4.641,6.825,10.647V0H426.7V-117.117L410.046-139.5l-24.3-6.552H360.633l-18.018,10.374-6.825,6.006v-14.2H313.131ZM511.056,2.184h24.57L552.552-8.19l6.006-6.279V0h22.386V-205.842H558.285v70.707l-7.644-4.914-16.38-6.006h-24.3l-27.3,13.1L464.1-107.835l-5.733,19.929v32.487L464.1-36.036,482.664-10.92ZM514.6-20.2l-17.2-8.19L484.3-46.137l-3.276-12.285V-84.9L484.3-97.734l13.1-17.472,16.107-8.736h17.472l11.193,3.549,10.374,6.825,5.733,7.1V-44.5L550.368-32.76,532.623-20.2ZM666.12,2.184h22.659L713.9-4.095,731.64-15.834,719.628-33.852l-14.2,9.009L686.868-20.2h-16.38l-16.653-8.19-13.1-17.745-3.549-12.012v-2.73H742.56V-89.544l-6.279-18.291L717.99-132.951l-27.573-13.1h-24.3l-27.3,13.1-18.564,25.116-5.733,19.929v32.487l5.733,19.383L638.82-10.92ZM637.182-83.265v-2.457l3.276-12.012,12.831-17.472,16.38-8.463h16.926l16.653,8.736,13.1,17.745L719.9-86.814v3.549ZM802.893,2.184h24.3l18.564-5.46,13.1-9.282,10.374-15.834V-51.6L858.585-69.069,843.024-79.443l-41.769-8.19-7.644-3.822-5.46-7.371v-12.012l3.822-6.552,4.641-3.822,10.374-3h18.291l15.288,4.641,13.1,9.009,12.285-18.291-16.38-11.193-22.386-6.006H803.985l-16.926,4.641-12.285,9.555L765.765-116.3V-92l11.466,15.834L794.7-66.885l39.312,7.917,8.19,5.733,4.641,7.917v10.374l-4.368,6.825L835.653-23.2l-11.466,3.276H805.9L788.97-24.3,781.6-30.03l-5.187-6.279L760.578-21.021l6.279,7.1,12.831,10.1Z" transform="translate(1004.579 507.247)"/>
      <path id="Path_1173" data-name="Path 1173" d="M25.935,0H48.594V-142.233l54.6,120.666h22.932l54.6-120.666V0h22.659V-194.1H181L114.66-48.321,48.321-194.1H25.935Zm262.9,2.184h22.113L328.965-8.19l7.1-6.279V0h22.386V-143.871H335.79V-44.5L327.327-32.76,307.944-19.929H292.383l-15.561-4.1L268.9-35.49V-143.871H246.246V-27.3L263.991-4.368Zm143.325,0h24.3l18.564-5.46,13.1-9.282L498.5-28.392V-51.6L487.851-69.069,472.29-79.443l-41.769-8.19-7.644-3.822-5.46-7.371v-12.012l3.822-6.552,4.641-3.822,10.374-3h18.291l15.288,4.641,13.1,9.009,12.285-18.291-16.38-11.193-22.386-6.006h-23.2l-16.926,4.641-12.285,9.555L395.031-116.3V-92L406.5-76.167l17.472,9.282,39.312,7.917,8.19,5.733,4.641,7.917v10.374l-4.368,6.825L464.919-23.2l-11.466,3.276H435.162L418.236-24.3l-7.371-5.733-5.187-6.279L389.844-21.021l6.279,7.1,12.831,10.1Zm144.963,0h22.659L624.9-4.095l17.745-11.739L630.63-33.852l-14.2,9.009L597.87-20.2H581.49l-16.653-8.19-13.1-17.745-3.549-12.012v-2.73H653.562V-89.544l-6.279-18.291-18.291-25.116-27.573-13.1h-24.3l-27.3,13.1-18.564,25.116-5.733,19.929v32.487l5.733,19.383L549.822-10.92ZM548.184-83.265v-2.457l3.276-12.012,12.831-17.472,16.38-8.463H597.6l16.653,8.736,13.1,17.745L630.9-86.814v3.549ZM726.453,2.184h22.113L766.584-8.19l7.1-6.279V0h22.386V-143.871H773.409V-44.5L764.946-32.76,745.563-19.929H730l-15.561-4.1L706.524-35.49V-143.871H683.865V-27.3L701.61-4.368ZM837.291,0H859.95V-99.372l8.19-11.739L887.8-123.669h17.472l13.923,5.187,6.825,11.193V0h22.659V-98.28l8.736-12.831,19.11-12.558h17.472l13.923,4.641,6.825,10.647V0H1037.4V-117.117L1020.747-139.5l-22.113-6.552H973.518l-19.11,10.374L942.4-125.307l-10.374-14.2-22.113-6.552H884.793l-18.018,10.374-6.825,6.006v-14.2H837.291Z" transform="translate(1004.579 749.494)"/>
      <g id="Group_226" data-name="Group 226" transform="translate(0 33.635)">
        <g id="Group_225" data-name="Group 225" clip-path="url(#clip-path)">
          <path id="Path_1194" data-name="Path 1194" d="M7.95-75.26v15.9h116.6v-15.9Z" transform="translate(1004.579 956.166)"/>
          <path id="Path_1193" data-name="Path 1193" d="M7.95-75.26v15.9h116.6v-15.9Z" transform="translate(1123.626 956.166)"/>
        </g>
      </g>
      <path id="Path_1174" data-name="Path 1174" d="M28.783,0h87.425l22.327-10.491,12.912-15.333,6.187-25.824L151.985-77.2,140.956-93.074l-13.988-8.608,13.988-7.532,7.532-10.76,5.38-20.982-5.38-25.286L131.81-184.8l-23.941-6.456H28.783ZM43.847-109.214v-67.519h61.87l18.023,5.111,11.3,12.912,3.766,17.216-3.766,14.526-5.111,6.725-16.678,11.029Zm0,94.688V-94.688h68.6l17.216,9.953,8.608,13.988,4.3,19.368-4.842,18.292-9.953,11.836-14.8,6.725ZM231.878,2.152h28.245l26.9-12.374,12.912-19.1,5.649-24.748V-87.156l-5.649-25.017L287.023-131l-26.362-12.912H231.609L204.978-131l-12.912,18.83-5.649,25.017v33.087l5.649,24.748,12.912,19.1Zm1.883-14.526-18.292-8.608-10.222-15.6-3.766-19.368V-86.08l4.035-19.368,9.146-13.988,19.368-9.684h23.941l18.561,9.684,10.222,14.257,3.766,19.1v30.128l-3.766,19.368-10.222,15.6L258.24-12.374ZM340.823,0h15.064V-101.413l15.064-16.409,16.678-11.3h20.982l18.561,5.111,8.608,13.719V0h15.064V-117.015L434.973-138l-23.134-5.918H386.822l-17.216,9.953-13.719,12.374v-20.175H340.823Zm150.64,0h15.064V-101.413l15.064-16.409,16.678-11.3h20.982l18.561,5.111,8.608,13.719V0h15.064V-117.015L585.613-138l-23.134-5.918H537.462l-17.216,9.953-13.719,12.374v-20.175H491.463Z" transform="translate(1257.924 987.738)"/>
    </g>
  </g>
</svg>
