<svg xmlns="http://www.w3.org/2000/svg" xmlns:xlink="http://www.w3.org/1999/xlink" width="2560" height="2880" viewBox="0 0 2560 2880">
  <defs>
    <clipPath id="clip-path">
      <rect id="Rectangle_136" data-name="Rectangle 136" width="1219.437" height="1712.375" fill="#d4551c"/>
    </clipPath>
  </defs>
  <g id="Group_163" data-name="Group 163" transform="translate(-981 -4314.252)">
    <rect id="Rectangle_141" data-name="Rectangle 141" width="2560" height="2880" transform="translate(981 4314.252)" fill="#212639"/>
    <g id="Group_110" data-name="Group 110" transform="translate(1651.68 4899.313)">
      <g id="Group_109" data-name="Group 109" clip-path="url(#clip-path)">
        <path id="Path_313" data-name="Path 313" d="M332.849,196.738c13.974-3.7,19.033-5.544,22.468-7.8,6.754-4.311,9.656-11.126,7.331-19.92s-8.224-13.283-16.228-13.684c-4.1-.26-9.407.64-23.385,4.341s-19.03,5.545-22.468,7.8c-6.754,4.307-9.656,11.126-7.327,19.919s8.224,13.28,16.225,13.681c4.1.26,9.407-.64,23.385-4.341" transform="translate(693.234 368.126)" fill="#d4551c"/>
        <path id="Path_314" data-name="Path 314" d="M609.718,0C273.517,0,0,273.52,0,609.722v492.935c0,336.2,273.517,609.718,609.718,609.718s609.718-273.517,609.718-609.718V609.722C1219.436,273.52,945.919,0,609.718,0M889.225,409.735l82.738-68.191a1.531,1.531,0,0,1,2.285.219l13.125,15.919a1.537,1.537,0,0,1-.219,2.289l-82.738,68.195a1.537,1.537,0,0,1-2.288-.219l-13.121-15.922a1.537,1.537,0,0,1,.219-2.289M766.314,317.613l39.054-77.268a.864.864,0,0,0-.431-1.311L780,226.435a1.537,1.537,0,0,1-.721-2.184l8.136-16.091a1.534,1.534,0,0,1,2.181-.718L862.517,244.3a1.535,1.535,0,0,1,.718,2.184L855.1,262.573a1.532,1.532,0,0,1-2.181.715l-24.935-12.6a.864.864,0,0,0-1.311.431l-39.054,77.265a1.534,1.534,0,0,1-2.181.718l-18.413-9.306a1.531,1.531,0,0,1-.715-2.181M622.25,176.04a1.533,1.533,0,0,1,1.705-1.54l20.6,1.041a1.537,1.537,0,0,1,1.54,1.705l-5.42,107.073a1.532,1.532,0,0,1-1.7,1.54l-20.6-1.042a1.535,1.535,0,0,1-1.54-1.705ZM395.393,223.071l38.164-15.262c17.948-7.179,33.543-4.5,44.672,8.9,4.1,5.009,7.3,10.381,14,27.122s8.082,22.838,8.568,29.293c1.176,17.375-8.268,30.075-26.216,37.254l-38.164,15.265a1.538,1.538,0,0,1-2.113-.907l-39.812-99.55a1.535,1.535,0,0,1,.9-2.113M226.054,806.544a2,2,0,0,1-2.764.162l-14.132-12.346a1.628,1.628,0,0,1-.162-2.437c5.848-7.311,11.372-17.22,11.372-28.919,0-11.534-5.359-18.032-13.158-18.032-6.5,0-10.56,3.9-12.346,17.058l-.812,5.848c-3.087,22.42-13.647,34.928-33.142,34.928-20.307,0-33.789-15.271-33.789-39.151,0-14.621,4.385-28.265,11.53-37.527.651-.974,1.3-1.136,2.437-.327l14.786,9.912a1.625,1.625,0,0,1,.489,2.272c-5.524,8.45-8.45,16.573-8.45,25.67,0,9.747,5.036,14.783,12.022,14.783,6.336,0,10.4-4.547,12.184-17.22l.812-5.848c3.087-22.744,13.482-34.766,33.465-34.766s34.763,14.786,34.763,43.378c0,17.22-6.822,33.951-15.106,42.562m18.524-215.535-4.459,20.142a1.537,1.537,0,0,1-1.941,1.234L133.5,589.2a1.536,1.536,0,0,1-1.234-1.938l9.276-41.871c5.2-23.472,22.441-34.46,43.061-29.893,20.3,4.5,31.413,21.932,26.249,45.245L206.6,579.93a.861.861,0,0,0,.742,1.163l36,7.978a1.535,1.535,0,0,1,1.234,1.938m58.468-149.015-81.8-69.32a1.539,1.539,0,0,1-.189-2.292l45.795-54.035a1.532,1.532,0,0,1,2.289-.189L282.4,327.394a1.535,1.535,0,0,1,.189,2.289L251.815,366a.861.861,0,0,0,.115,1.372l16.731,14.18a.863.863,0,0,0,1.375-.115l25.626-30.24a1.536,1.536,0,0,1,2.292-.189l13.138,11.133a1.533,1.533,0,0,1,.189,2.288l-25.629,30.243a.861.861,0,0,0,.115,1.372l17.472,14.81a.862.862,0,0,0,1.375-.115l30.776-36.313a1.532,1.532,0,0,1,2.288-.189l13.263,11.237a1.538,1.538,0,0,1,.185,2.292L305.338,441.8a1.541,1.541,0,0,1-2.292.189M610.163,465.84c-113.494,0-206.694,88.289-214.682,199.788H575.333a15.516,15.516,0,1,1,0,31.032H531.18v159.8L662.807,724.83V681.142a15.518,15.518,0,0,1,31.035,0V800.487a15.518,15.518,0,1,1-31.035,0V768.72L547.762,883.765l187.105,187.1h29.471a15.518,15.518,0,0,1,0,31.035H645a15.518,15.518,0,0,1,0-31.035h45.98l-159.8-159.8v159.8h44.153a15.518,15.518,0,1,1,0,31.035H455.991a15.518,15.518,0,1,1,0-31.035h44.157V696.659H394.861v393.368c0,118.718,96.584,215.306,215.3,215.306s215.306-96.588,215.306-215.306V899.282H721.17l69.438,69.439a15.518,15.518,0,0,1-21.945,21.945l-91.384-91.384H632.044a15.518,15.518,0,0,1,0-31.035H900.657a15.518,15.518,0,1,1,0,31.035H856.5v425.39a15.516,15.516,0,1,1-31.032,0V1209.534c-42.117,75.576-122.82,126.831-215.306,126.831-135.83,0-246.334-110.508-246.334-246.338V696.659H320.95a15.516,15.516,0,1,1,0-31.032h43.418C372.407,537,479.551,434.808,610.163,434.808,746,434.808,856.5,545.312,856.5,681.142V772.32h44.157a15.516,15.516,0,1,1,0,31.032H781.316a15.516,15.516,0,1,1,0-31.032h44.153V681.142c0-118.718-96.588-215.3-215.306-215.3m355.895,95.091c-4.944-18.686-.216-35.734,15.6-45.8,6.758-4.311,12.558-6.522,28.417-10.718s21.992-5.15,30-4.749c18.73.92,31.271,13.394,36.219,32.08s.222,35.734-15.6,45.8c-6.754,4.311-12.555,6.518-28.413,10.718s-22,5.15-30,4.749c-18.73-.923-31.275-13.394-36.222-32.08m124.475,171.6a3.011,3.011,0,0,1-1.625,2.76l-69.529,38.99v.812h69.529a1.536,1.536,0,0,1,1.625,1.625v18.359a1.536,1.536,0,0,1-1.625,1.625H981.69a1.534,1.534,0,0,1-1.624-1.625V775.741a2.85,2.85,0,0,1,1.624-2.761l69.364-39.155v-.809H981.69a1.535,1.535,0,0,1-1.624-1.628V713.033a1.534,1.534,0,0,1,1.624-1.624h107.218a1.535,1.535,0,0,1,1.625,1.624Z" fill="#d4551c"/>
        <path id="Path_315" data-name="Path 315" d="M68.741,160.167c-8.723-1.931-15.892,2.636-18.069,12.471L46.735,190.4a.864.864,0,0,0,.741,1.163l27.122,6.01a.86.86,0,0,0,1.159-.742L79.7,179.068c2.177-9.835-2.231-16.97-10.954-18.9" transform="translate(110.696 378.64)" fill="#d4551c"/>
        <path id="Path_316" data-name="Path 316" d="M150.46,137.064a.866.866,0,0,0,1.267.543l11.615-4.648c10.256-4.1,15.235-9.592,14.48-18.915-.152-3.434-1.116-7.6-6.424-20.877s-7.483-16.953-9.741-19.545c-5.885-7.274-13.276-7.813-23.533-3.714L126.51,74.555a.859.859,0,0,0-.543,1.264Z" transform="translate(298.355 159.649)" fill="#d4551c"/>
      </g>
    </g>
  </g>
</svg>
