<svg xmlns="http://www.w3.org/2000/svg" width="2560" height="1440" viewBox="0 0 2560 1440">
  <g id="Group_90" data-name="Group 90" transform="translate(0 -10081)">
    <rect id="Rectangle_119" data-name="Rectangle 119" width="2560" height="1440" transform="translate(0 10081)" fill="#fd0d1b"/>
    <path id="Path_89" data-name="Path 89" d="M461.37-703.04c-15.21,136.89-50.7,243.36-104.78,319.41l64.22,46.475c30.42-38.87,56.615-90.415,77.74-154.635H703.885c-11.83,64.22-27.04,119.99-45.63,169l78.585,21.97q30.42-106.47,50.7-215.475v-52.39H519.675c8.45-37.18,15.21-77.74,21.125-121.68ZM322.79-45.63l58.3-59.15c-35.49-52.39-69.29-99.71-101.4-142.805,31.265-81.965,56.615-175.76,75.2-280.54v-74.36H44.785v77.74h231.53c-11.83,76.9-27.885,147.03-48.165,209.56-47.32-59.15-90.415-109-130.13-148.72L44.785-412.36C97.175-354.055,147.03-293.215,195.2-229.84Q131.82-90.415,30.42-14.365L70.135,57.46c67.6-54.08,125.06-128.44,172.38-222.235C269.555-125.905,296.6-86.19,322.79-45.63ZM539.11-441.09c-.845,107.315-12.675,195.2-35.49,262.8C474.89-98.02,413.2-30.42,320.255,25.35l50.7,62.53C481.65,22.815,551.785-59.15,581.36-158.86c0-.845,0-1.69.845-1.69Q645.58-14.788,762.19,87.88L816.27,24.5C718.25-52.39,648.115-154.635,607.555-282.23c6.76-49.01,10.14-101.4,10.14-158.86Zm458.835-244.2L944.71-633.75c60.84,49.01,107.315,94.64,141.115,136.89l55.77-54.925C1102.725-595.725,1054.56-640.51,997.945-685.295Zm507,757.12H1684.93l18.59-76.05c-21.97,1.69-52.39,2.535-92.1,4.225C1571.7.845,1532.83,1.69,1494.8,1.69c-69.29,0-128.44-.845-178.295-1.69-52.39-1.69-92.1-9.3-118.3-21.125-21.125-11.83-42.25-28.73-64.22-51.545-5.07-5.07-9.3-10.14-14.365-14.365V-405.6H929.5v72.67h116.61V-92.1c-35.49,18.59-74.36,62.53-117.455,133.51L985.27,94.64c45.63-81.12,76.9-120.835,95.485-120.835,10.14,0,21.97,6.76,33.8,21.97,25.35,28.73,56.615,49.01,92.95,59.15,35.49,9.3,82.81,14.365,140.27,15.21C1404.39,70.98,1456.78,71.825,1504.945,71.825ZM1189.76-90.415c79.43-19.435,148.72-38.025,208.715-56.615l-14.365-75.205c-38.87,13.52-78.585,25.35-119.145,36.335V-563.615c59.995-21.125,107.315-43.94,142.805-67.6l-43.94-65.065c-43.1,30.42-100.555,56.615-173.225,79.43v416.585c0,18.59-7.6,32.11-21.97,38.87ZM1596.205-118.3c49.01,0,74.36-27.885,74.36-83.655v-444.47h-250.12V-24.5h76.9v-550.94h98.02V-218.01c0,17.745-8.45,27.04-24.505,27.04l-58.3-4.225,21.125,76.9Z" transform="translate(412.58 11105.04)" fill="#fff"/>
  </g>
</svg>
