<svg xmlns="http://www.w3.org/2000/svg" xmlns:xlink="http://www.w3.org/1999/xlink" width="2560" height="1076" viewBox="0 0 2560 1076">
  <defs>
    <clipPath id="clip-path">
      <path id="background" d="M0,0H2560V1076H0Z" transform="translate(748.779 409.783)" fill="none" stroke="#707070" stroke-width="1"/>
    </clipPath>
    <clipPath id="clip-path-2">
      <rect id="Rectangle_266" data-name="Rectangle 266" width="3240" height="2160" transform="translate(0 0)" fill="none"/>
    </clipPath>
  </defs>
  <g id="Group_114" data-name="Group 114" transform="translate(-748.779 -409.783)" clip-path="url(#clip-path)">
    <path id="background-2" data-name="background" d="M0,0H2560V1076H0Z" transform="translate(748.779 409.783)" fill="#2a3e4f"/>
    <g id="Group_319" data-name="Group 319" transform="translate(408.779 409.783)">
      <rect id="Rectangle_256" data-name="Rectangle 256" width="1080" height="1080" transform="translate(1080 1080)" fill="#fff"/>
      <path id="Path_1003" data-name="Path 1003" d="M584.928,584.929,45,45H1124.857Z" transform="translate(1034.831 1034.858)" fill="#584e93"/>
      <path id="Path_1004" data-name="Path 1004" d="M45,607.4H1124.857L584.928,67.472Z" transform="translate(1034.838 1551.646)" fill="#fa9060"/>
      <rect id="Rectangle_257" data-name="Rectangle 257" width="1080" height="1080" transform="translate(2160 0)" fill="#fff"/>
      <path id="Path_1005" data-name="Path 1005" d="M1169.859,0,90,1079.858H1169.859Z" transform="translate(2069.737)" fill="#fa9060"/>
      <g id="Group_304" data-name="Group 304" transform="translate(0 0)">
        <g id="Group_303" data-name="Group 303" clip-path="url(#clip-path-2)">
          <path id="Path_1006" data-name="Path 1006" d="M632.239,282.808c0,143.285-116.145,259.43-259.43,259.43s-259.43-116.145-259.43-259.43,116.145-259.43,259.43-259.43,259.43,116.145,259.43,259.43" transform="translate(2607.36 537.62)" fill="#f8d790"/>
          <path id="Path_1007" data-name="Path 1007" d="M608.861,259.43c0,143.285-116.145,259.43-259.43,259.43S90,402.715,90,259.43,206.146,0,349.431,0s259.43,116.145,259.43,259.43" transform="translate(2069.74 0)" fill="#ffcccb"/>
          <rect id="Rectangle_258" data-name="Rectangle 258" width="1080" height="1080" transform="translate(0 0)" fill="#ffccca"/>
          <path id="Path_1008" data-name="Path 1008" d="M1079.858,1079.858V0A1079.842,1079.842,0,0,0,0,1079.858Z" transform="translate(0 0)" fill="#fff"/>
          <path id="Path_1009" data-name="Path 1009" d="M562.429,562.429V22.5A539.921,539.921,0,0,0,22.5,562.429Z" transform="translate(517.429 517.429)" fill="#f8d790"/>
          <rect id="Rectangle_259" data-name="Rectangle 259" width="1080" height="1080" transform="translate(1080 0)" fill="#584e93"/>
          <path id="Path_1010" data-name="Path 1010" d="M45,1079.858H1124.857A1079.842,1079.842,0,0,0,45,0Z" transform="translate(1034.836 0)" fill="#f8d790"/>
          <path id="Path_1011" data-name="Path 1011" d="M45,562.429H584.928A539.921,539.921,0,0,0,45,22.5Z" transform="translate(1034.836 517.429)" fill="#fe8f5c"/>
          <rect id="Rectangle_260" data-name="Rectangle 260" width="1080" height="1080" transform="translate(0 1080)" fill="#584e93"/>
          <rect id="Rectangle_261" data-name="Rectangle 261" width="540" height="1080" transform="translate(540 1080)" fill="#ffccca"/>
          <path id="Path_1012" data-name="Path 1012" d="M562.429,45H22.5A539.921,539.921,0,0,0,562.429,584.929Z" transform="translate(517.429 1034.858)" fill="#584e93"/>
          <path id="Path_1013" data-name="Path 1013" d="M0,45V584.929H539.929Z" transform="translate(0 1034.858)" fill="#fa905c"/>
          <path id="Path_1014" data-name="Path 1014" d="M0,67.5V607.429H539.929Z" transform="translate(0 1552.287)" fill="#f8d790"/>
          <rect id="Rectangle_262" data-name="Rectangle 262" width="1079.187" height="1079.187" transform="translate(2160.413 1080.53)" fill="#fff"/>
          <path id="Path_1015" data-name="Path 1015" d="M112.515,67.486H651.244a540.273,540.273,0,0,1-157.779,381.55,538.552,538.552,0,0,1-380.95,158.043Z" transform="translate(2587.491 1551.965)" fill="#fe8f5c"/>
          <rect id="Rectangle_263" data-name="Rectangle 263" width="538.729" height="539.593" transform="translate(2699.07 1079.858)" fill="#f8d790"/>
          <path id="Path_1016" data-name="Path 1016" d="M112.476,584.593H652.069A539.593,539.593,0,0,0,112.476,45Z" transform="translate(2586.594 1034.858)" fill="#fff"/>
          <path id="Path_1017" data-name="Path 1017" d="M112.476,326.04H381.841a269.592,269.592,0,0,0-269.365-269.8Z" transform="translate(2586.594 1293.412)" fill="#f8d790"/>
          <rect id="Rectangle_264" data-name="Rectangle 264" width="538.225" height="539.593" transform="translate(2160.749 1619.451)" fill="#f8d790"/>
          <path id="Path_1018" data-name="Path 1018" d="M629.593,67.486H90A539.593,539.593,0,0,0,629.593,607.079Z" transform="translate(2069.717 1551.965)" fill="#fff"/>
          <path id="Path_1019" data-name="Path 1019" d="M371.059,67.486h-269.8a269.8,269.8,0,0,0,269.8,269.8Z" transform="translate(2328.73 1551.965)" fill="#f8d790"/>
          <rect id="Rectangle_265" data-name="Rectangle 265" width="539.593" height="539.593" transform="translate(2160.077 1079.858)" fill="#584e93"/>
          <path id="Path_1020" data-name="Path 1020" d="M630.1,584.593H90A539.839,539.839,0,0,1,630.1,45Z" transform="translate(2069.809 1034.858)" fill="#fff"/>
          <path id="Path_1021" data-name="Path 1021" d="M370.651,326.04H101.286a269.592,269.592,0,0,1,269.365-269.8Z" transform="translate(2329.26 1293.412)" fill="#584e93"/>
        </g>
      </g>
    </g>
  </g>
</svg>
