<svg xmlns="http://www.w3.org/2000/svg" width="2560" height="1440" viewBox="0 0 2560 1440"><g data-name="Group 138"><path data-name="Rectangle 130" fill="#fff" d="M0 0h2560v1440H0z"/><g data-name="Group 131"><g data-name="Group 121" fill="#f2f2f2" stroke="#f8544c" stroke-linecap="round" stroke-linejoin="round" stroke-width=".5"><path data-name="Path 157" d="M1349.472 924.859v-4.665h4.76l-18.01-27.07h-7.746v27.07h5.6v4.665h-17.922v-4.665h5.6v-58.8h-5.6v-4.665h17.921v4.665h-5.6v26.23h8.117l16.895-26.227h-4.951v-4.665h16.983v4.665h-5.033l-18.943 29.118 19.969 29.679h4.947v4.665Z"/><path data-name="Path 158" d="M1411.254 859.533v-4.665h12.133v65.327h5.6v4.665h-17.733v-4.665h5.6v-60.662Z"/><path data-name="Path 159" d="M1478.446 876.145v-4.672h12.133v48.716h5.6v4.665h-17.733v-4.665h5.6v-44.044Zm12.881-16.567a3.227 3.227 0 0 1-1.168 1.725 4.173 4.173 0 0 1-2.8.843 3.974 3.974 0 0 1-2.751-.843 3.252 3.252 0 0 1-1.121-1.725 15.636 15.636 0 0 1 0-4.855 3.276 3.276 0 0 1 1.121-1.725 4.7 4.7 0 0 1 3.169-.839q2.244 0 2.988 1.3a6.544 6.544 0 0 1 .746 3.268 15.5 15.5 0 0 1-.184 2.851Z"/><path data-name="Path 160" d="M1545.641 876.145v-4.667h9.986l1.587 5.971q9.43-7.276 19.786-7.28 8.213 0 11.807 4.061t3.589 12.646v33.318h5.6v4.665h-17.725v-4.665h5.6v-33.413q0-5.876-2.287-8.489t-7.606-2.613q-9.52 0-18.2 6.9v37.612h5.6v4.665h-17.737v-4.665h5.6v-44.046Z"/><path data-name="Path 161" d="M1647.459 876.145v-4.672h12.133v48.716h5.6v4.665h-17.733v-4.665h5.6v-44.044Zm12.883-16.567a3.232 3.232 0 0 1-1.171 1.725 4.172 4.172 0 0 1-2.8.843 3.974 3.974 0 0 1-2.751-.843 3.265 3.265 0 0 1-1.121-1.725 15.817 15.817 0 0 1 0-4.855 3.289 3.289 0 0 1 1.121-1.725 4.708 4.708 0 0 1 3.169-.839c1.5 0 2.49.433 2.99 1.3a6.567 6.567 0 0 1 .744 3.268 15.516 15.516 0 0 1-.181 2.851Z"/><path data-name="Path 162" d="M1713.719 859.533v-4.665h12.133v38.634h8.4l12.131-17.356h-4.851v-4.667h17.733v4.667h-5.6l-14.465 20.435 16.24 23.615h5.506v4.665h-17.738v-4.666h4.948l-14.836-21.651h-7.468v21.651h5.6v4.665h-17.733v-4.665h5.6v-60.662Z"/><path data-name="Path 163" d="M1806.67 871.478h12.135v38.075q0 5.973 2.38 8.541t8.257 2.565q9.986 0 18.852-8.119v-36.4h-5.6v-4.667h12.133v48.716h5.6v4.665h-9.986l-1.865-6.812q-9.8 8.12-20.534 8.116-8.773 0-12.273-3.917t-3.5-12.6v-33.5h-5.6Z"/><path data-name="Path 164" d="M1942.644 924.859v-4.665h5.6v-33.413q0-11.1-9.986-11.1-8.964 0-16.24 6.717v37.8h5.6v4.665h-17.731v-4.665h5.6v-44.053h-5.6v-4.667h9.988l1.492 5.788a26.188 26.188 0 0 1 18.109-7.1q10.264 0 13.717 7.746a27.059 27.059 0 0 1 8.354-5.5 25.349 25.349 0 0 1 10.308-2.243q15.68 0 15.679 16.612v33.412h5.6v4.665H1975.4v-4.665h5.6v-33.412q0-11.1-9.986-11.1-9.054 0-16.518 6.9a30.3 30.3 0 0 1 .278 4.2v33.412h5.6v4.665Z"/><path data-name="Path 165" d="M1343.22 1050.498h-27.066v-4.665h5.6v-58.8h-5.6v-4.665h23.336q14.464 0 18.475 7.468a20.984 20.984 0 0 1 1.96 9.748 22.5 22.5 0 0 1-1.865 9.848q-1.872 3.829-7.185 5.788 7.557 1.4 10.171 5.737t2.613 11.342q0 10.635-5.5 14.558-4.955 3.64-14.939 3.641Zm-14.743-37.7h11.014q8.207 0 10.964-3.173t2.751-9.332q0-6.16-2.751-9.287t-10.964-3.13h-11.015Zm0 32.2h14.743q8.214 0 10.967-3.315t2.753-9.846q0-6.532-2.753-9.936t-10.967-3.408h-14.744Z"/><path data-name="Path 166" d="M1432.952 1051.805q-12.46 0-17.078-6.67t-4.62-21.327a83.679 83.679 0 0 1 .375-8.539 35.2 35.2 0 0 1 1.677-7.513 16.568 16.568 0 0 1 3.639-6.347 17.56 17.56 0 0 1 6.441-4.012 27.209 27.209 0 0 1 9.8-1.587 26.849 26.849 0 0 1 9.755 1.587 17.16 17.16 0 0 1 6.347 4.012 16.961 16.961 0 0 1 3.591 6.347 35.455 35.455 0 0 1 1.679 7.513 83.706 83.706 0 0 1 .373 8.539v1.492h-37.143q.091 11.392 3.219 16.194t11.945 4.805q8.822 0 11.991-3.219t3.734-9.382l5.415.282a31.8 31.8 0 0 1-1.309 6.86 17.946 17.946 0 0 1-3.081 5.553q-4.294 5.411-16.75 5.412Zm.14-50.486a18.035 18.035 0 0 0-7.791 1.492 10.244 10.244 0 0 0-4.715 4.385q-2.616 4.857-2.8 12.971h30.517q-.191-8.4-2.708-13.157-2.985-5.691-12.503-5.691Z"/><path data-name="Path 167" d="M1516.524 1045.834h7.468v4.665h-19.6v-4.665h5.6v-44.045h-5.6v-4.665h9.988l2.052 10.264q6.535-11.1 19.6-11.572v6.252q-13.164.472-19.508 12.135Z"/><path data-name="Path 168" d="M1579.89 985.172v-4.665h12.135v65.327h5.6v4.665h-17.735v-4.665h5.6v-60.662Z"/><path data-name="Path 169" d="M1647.082 1001.784v-4.665h12.135v48.713h5.6v4.665h-17.735v-4.665h5.6v-44.048Zm12.883-16.567a3.251 3.251 0 0 1-1.168 1.727 4.176 4.176 0 0 1-2.8.843 3.983 3.983 0 0 1-2.753-.843 3.277 3.277 0 0 1-1.121-1.727 15.8 15.8 0 0 1 0-4.855 3.288 3.288 0 0 1 1.121-1.725 4.711 4.711 0 0 1 3.169-.839c1.5 0 2.492.433 2.99 1.3a6.551 6.551 0 0 1 .744 3.268 15.53 15.53 0 0 1-.182 2.851Z"/><path data-name="Path 170" d="M1714.276 1001.789v-4.665h9.986l1.587 5.969q9.43-7.276 19.786-7.278 8.213 0 11.807 4.059t3.589 12.646v33.318h5.6v4.665h-17.729v-4.665h5.6v-33.417q0-5.876-2.287-8.489t-7.605-2.613q-9.52 0-18.2 6.9v37.612h5.6v4.665h-17.734v-4.665h5.6v-44.042Z"/><path data-name="Path 171" d="M1316.154 1113.242v-5.228h16.988v5.228h-6.347l12.506 57.4 13.627-62.623h6.625l13.627 62.623 12.506-57.4h-6.35v-5.228h16.985v5.228h-4.012l-14.187 62.9h-9.8l-12.135-55.156-12.036 55.156h-9.8l-14.278-62.9Z"/><path data-name="Path 172" d="M1462.348 1177.448q-12.459 0-17.078-6.67t-4.622-21.33a83.681 83.681 0 0 1 .377-8.539 35.2 35.2 0 0 1 1.677-7.513 16.567 16.567 0 0 1 3.639-6.347 17.591 17.591 0 0 1 6.441-4.012 27.209 27.209 0 0 1 9.8-1.586 26.85 26.85 0 0 1 9.755 1.586 17.206 17.206 0 0 1 6.344 4.011 16.954 16.954 0 0 1 3.589 6.347 35.472 35.472 0 0 1 1.682 7.513 83.774 83.774 0 0 1 .373 8.539v1.492h-37.144q.091 11.392 3.219 16.194t11.945 4.805q8.822 0 11.991-3.217t3.734-9.382l5.415.282a31.808 31.808 0 0 1-1.308 6.858 17.974 17.974 0 0 1-3.081 5.553q-4.292 5.416-16.748 5.416Zm.14-50.486a18.035 18.035 0 0 0-7.791 1.494 10.265 10.265 0 0 0-4.717 4.383q-2.613 4.86-2.8 12.974h30.515q-.188-8.4-2.706-13.157-2.983-5.699-12.501-5.698Z"/><path data-name="Path 173" d="M1571.679 1122.758v18.848h-4.294q-.747-9.238-4.482-12.128a11.669 11.669 0 0 0-4.573-2.009 40.655 40.655 0 0 0-7.463-.511q-4.951 0-7.606 2.52a8.522 8.522 0 0 0-2.662 6.485q0 3.971 2.195 5.972t7.7 3.406l7.278 1.96q8.589 2.338 12.273 5.458t3.688 9.755q0 14.936-18.387 14.931-11.667 0-16.518-8.211l.186 6.907h-4.758v-18.855h4.29q1.591 14.655 15.961 14.653 12.689 0 12.691-9.425a7.141 7.141 0 0 0-2.147-5.411q-2.147-2.053-7.558-3.456l-7.278-1.96q-8.682-2.238-12.413-5.364t-3.734-9.943a14.012 14.012 0 0 1 4.434-10.869q4.427-4.062 13.109-4.061 11.1 0 15.4 6.719l-.095-5.411Z"/><path data-name="Path 174" d="M1620.861 1127.423v-4.665h8.4v-10.641l6.532-1.3v11.945h9.8v4.665h-9.8v37.049q0 4.291 1.164 6.068a3.87 3.87 0 0 0 3.456 1.77 25.558 25.558 0 0 0 5.551-.744l.841 4.572a29.554 29.554 0 0 1-7.605 1.3 12.723 12.723 0 0 1-4.76-.744 7.415 7.415 0 0 1-2.8-1.865 8.033 8.033 0 0 1-1.537-2.99 26.36 26.36 0 0 1-.839-7.373v-37.047Z"/></g><g data-name="Group 122" fill="#f2f2f2" stroke="#f8544c" stroke-miterlimit="10"><path data-name="Path 175" d="m1236.149 659.257.133.172v-.305Z"/><path data-name="Path 176" d="M1236.28 670.8V508.933l22.153-22.252v-94.865l-37.308-37.478 16.906-16.983-29.731-29.86h-20.986l-15.157-15.231h-83.944l-25.421 25.537-39.347-.013-15.4 15.468v35.42l18.371 18.456 11.665-11.712h38.468l-25.647 25.765h-23.316v16.4l19.82 19.911h40.3l14.551-14.628v24.582l-65.314 65.611-42-42.191h-46.056l-63.542-63.831h-61.788l-13.7 13.763 54.5 54.753h22.735l122.396 122.36h-31.423l-56.576 56.833h-46.054l-23.9-24.011h-39.64l-13.3 13.359 62.262 62.548h105.884l31.479-31.621 30.532 30.67v25.468l-111.48 111.983v60.03l19.82 19.909-12.689 12.749 29.73 29.864v52.265h-47.364l-19.092 19.178v19.178h113.239l21.422-21.522V965.11l41.848-42.036-.009-26.523 88.618 89.077h32.186v32.332h-41.535l-22.589 22.693v16.688h97.06l50.394-50.622v-60.38l-46.022-46.231v-71.44h24.485v-19.911l-45.472-45.677v-57.257l34.993-35.023Z"/></g><g data-name="Group 123" fill="none" stroke="#333" stroke-linecap="round" stroke-linejoin="round" stroke-width=".5" stroke-dasharray="1 2 1 2 1 2"><path data-name="Path 177" d="M1349.472 924.859v-4.665h4.76l-18.01-27.07h-7.746v27.07h5.6v4.665h-17.922v-4.665h5.6v-58.8h-5.6v-4.665h17.921v4.665h-5.6v26.23h8.117l16.895-26.227h-4.951v-4.665h16.983v4.665h-5.033l-18.943 29.118 19.969 29.679h4.947v4.665Z"/><path data-name="Path 178" d="M1411.254 859.533v-4.665h12.133v65.327h5.6v4.665h-17.733v-4.665h5.6v-60.662Z"/><path data-name="Path 179" d="M1478.446 876.145v-4.672h12.133v48.716h5.6v4.665h-17.733v-4.665h5.6v-44.044Zm12.881-16.567a3.227 3.227 0 0 1-1.168 1.725 4.173 4.173 0 0 1-2.8.843 3.974 3.974 0 0 1-2.751-.843 3.252 3.252 0 0 1-1.121-1.725 15.636 15.636 0 0 1 0-4.855 3.276 3.276 0 0 1 1.121-1.725 4.7 4.7 0 0 1 3.169-.839q2.244 0 2.988 1.3a6.544 6.544 0 0 1 .746 3.268 15.5 15.5 0 0 1-.184 2.851Z"/><path data-name="Path 180" d="M1545.641 876.145v-4.667h9.986l1.587 5.971q9.43-7.276 19.786-7.28 8.213 0 11.807 4.061t3.589 12.646v33.318h5.6v4.665h-17.725v-4.665h5.6v-33.413q0-5.876-2.287-8.489t-7.606-2.613q-9.52 0-18.2 6.9v37.612h5.6v4.665h-17.737v-4.665h5.6v-44.046Z"/><path data-name="Path 181" d="M1647.459 876.145v-4.672h12.133v48.716h5.6v4.665h-17.733v-4.665h5.6v-44.044Zm12.883-16.567a3.232 3.232 0 0 1-1.171 1.725 4.172 4.172 0 0 1-2.8.843 3.974 3.974 0 0 1-2.751-.843 3.265 3.265 0 0 1-1.121-1.725 15.817 15.817 0 0 1 0-4.855 3.289 3.289 0 0 1 1.121-1.725 4.708 4.708 0 0 1 3.169-.839c1.5 0 2.49.433 2.99 1.3a6.567 6.567 0 0 1 .744 3.268 15.516 15.516 0 0 1-.181 2.851Z"/><path data-name="Path 182" d="M1713.719 859.533v-4.665h12.133v38.634h8.4l12.131-17.356h-4.851v-4.667h17.733v4.667h-5.6l-14.465 20.435 16.24 23.615h5.506v4.665h-17.738v-4.666h4.948l-14.836-21.651h-7.468v21.651h5.6v4.665h-17.733v-4.665h5.6v-60.662Z"/><path data-name="Path 183" d="M1806.67 871.478h12.135v38.075q0 5.973 2.38 8.541t8.257 2.565q9.986 0 18.852-8.119v-36.4h-5.6v-4.667h12.133v48.716h5.6v4.665h-9.986l-1.865-6.812q-9.8 8.12-20.534 8.116-8.773 0-12.273-3.917t-3.5-12.6v-33.5h-5.6Z"/><path data-name="Path 184" d="M1942.644 924.859v-4.665h5.6v-33.413q0-11.1-9.986-11.1-8.964 0-16.24 6.717v37.8h5.6v4.665h-17.731v-4.665h5.6v-44.053h-5.6v-4.667h9.988l1.492 5.788a26.188 26.188 0 0 1 18.109-7.1q10.264 0 13.717 7.746a27.059 27.059 0 0 1 8.354-5.5 25.349 25.349 0 0 1 10.308-2.243q15.68 0 15.679 16.612v33.412h5.6v4.665H1975.4v-4.665h5.6v-33.412q0-11.1-9.986-11.1-9.054 0-16.518 6.9a30.3 30.3 0 0 1 .278 4.2v33.412h5.6v4.665Z"/><path data-name="Path 185" d="M1343.22 1050.498h-27.066v-4.665h5.6v-58.8h-5.6v-4.665h23.336q14.464 0 18.475 7.468a20.984 20.984 0 0 1 1.96 9.748 22.5 22.5 0 0 1-1.865 9.848q-1.872 3.829-7.185 5.788 7.557 1.4 10.171 5.737t2.613 11.342q0 10.635-5.5 14.558-4.955 3.64-14.939 3.641Zm-14.743-37.7h11.014q8.207 0 10.964-3.173t2.751-9.332q0-6.16-2.751-9.287t-10.964-3.13h-11.015Zm0 32.2h14.743q8.214 0 10.967-3.315t2.753-9.846q0-6.532-2.753-9.936t-10.967-3.408h-14.744Z"/><path data-name="Path 186" d="M1432.952 1051.805q-12.46 0-17.078-6.67t-4.62-21.327a83.679 83.679 0 0 1 .375-8.539 35.2 35.2 0 0 1 1.677-7.513 16.568 16.568 0 0 1 3.639-6.347 17.56 17.56 0 0 1 6.441-4.012 27.209 27.209 0 0 1 9.8-1.587 26.849 26.849 0 0 1 9.755 1.587 17.16 17.16 0 0 1 6.347 4.012 16.961 16.961 0 0 1 3.591 6.347 35.455 35.455 0 0 1 1.679 7.513 83.706 83.706 0 0 1 .373 8.539v1.492h-37.143q.091 11.392 3.219 16.194t11.945 4.805q8.822 0 11.991-3.219t3.734-9.382l5.415.282a31.8 31.8 0 0 1-1.309 6.86 17.946 17.946 0 0 1-3.081 5.553q-4.294 5.411-16.75 5.412Zm.14-50.486a18.035 18.035 0 0 0-7.791 1.492 10.244 10.244 0 0 0-4.715 4.385q-2.616 4.857-2.8 12.971h30.517q-.191-8.4-2.708-13.157-2.985-5.691-12.503-5.691Z"/><path data-name="Path 187" d="M1516.524 1045.834h7.468v4.665h-19.6v-4.665h5.6v-44.045h-5.6v-4.665h9.988l2.052 10.264q6.535-11.1 19.6-11.572v6.252q-13.164.472-19.508 12.135Z"/><path data-name="Path 188" d="M1579.89 985.172v-4.665h12.135v65.327h5.6v4.665h-17.735v-4.665h5.6v-60.662Z"/><path data-name="Path 189" d="M1647.082 1001.784v-4.665h12.135v48.713h5.6v4.665h-17.735v-4.665h5.6v-44.048Zm12.883-16.567a3.251 3.251 0 0 1-1.168 1.727 4.176 4.176 0 0 1-2.8.843 3.983 3.983 0 0 1-2.753-.843 3.277 3.277 0 0 1-1.121-1.727 15.8 15.8 0 0 1 0-4.855 3.288 3.288 0 0 1 1.121-1.725 4.711 4.711 0 0 1 3.169-.839c1.5 0 2.492.433 2.99 1.3a6.551 6.551 0 0 1 .744 3.268 15.53 15.53 0 0 1-.182 2.851Z"/><path data-name="Path 190" d="M1714.276 1001.789v-4.665h9.986l1.587 5.969q9.43-7.276 19.786-7.278 8.213 0 11.807 4.059t3.589 12.646v33.318h5.6v4.665h-17.729v-4.665h5.6v-33.417q0-5.876-2.287-8.489t-7.605-2.613q-9.52 0-18.2 6.9v37.612h5.6v4.665h-17.734v-4.665h5.6v-44.042Z"/><path data-name="Path 191" d="M1316.154 1113.242v-5.228h16.988v5.228h-6.347l12.506 57.4 13.627-62.623h6.625l13.627 62.623 12.506-57.4h-6.35v-5.228h16.985v5.228h-4.012l-14.187 62.9h-9.8l-12.135-55.156-12.036 55.156h-9.8l-14.278-62.9Z"/><path data-name="Path 192" d="M1462.348 1177.448q-12.459 0-17.078-6.67t-4.622-21.33a83.681 83.681 0 0 1 .377-8.539 35.2 35.2 0 0 1 1.677-7.513 16.567 16.567 0 0 1 3.639-6.347 17.591 17.591 0 0 1 6.441-4.012 27.209 27.209 0 0 1 9.8-1.586 26.85 26.85 0 0 1 9.755 1.586 17.206 17.206 0 0 1 6.344 4.011 16.954 16.954 0 0 1 3.589 6.347 35.472 35.472 0 0 1 1.682 7.513 83.774 83.774 0 0 1 .373 8.539v1.492h-37.144q.091 11.392 3.219 16.194t11.945 4.805q8.822 0 11.991-3.217t3.734-9.382l5.415.282a31.808 31.808 0 0 1-1.308 6.858 17.974 17.974 0 0 1-3.081 5.553q-4.292 5.416-16.748 5.416Zm.14-50.486a18.035 18.035 0 0 0-7.791 1.494 10.265 10.265 0 0 0-4.717 4.383q-2.613 4.86-2.8 12.974h30.515q-.188-8.4-2.706-13.157-2.983-5.699-12.501-5.698Z"/><path data-name="Path 193" d="M1571.679 1122.758v18.848h-4.294q-.747-9.238-4.482-12.128a11.669 11.669 0 0 0-4.573-2.009 40.655 40.655 0 0 0-7.463-.511q-4.951 0-7.606 2.52a8.522 8.522 0 0 0-2.662 6.485q0 3.971 2.195 5.972t7.7 3.406l7.278 1.96q8.589 2.338 12.273 5.458t3.688 9.755q0 14.936-18.387 14.931-11.667 0-16.518-8.211l.186 6.907h-4.758v-18.855h4.29q1.591 14.655 15.961 14.653 12.689 0 12.691-9.425a7.141 7.141 0 0 0-2.147-5.411q-2.147-2.053-7.558-3.456l-7.278-1.96q-8.682-2.238-12.413-5.364t-3.734-9.943a14.012 14.012 0 0 1 4.434-10.869q4.427-4.062 13.109-4.061 11.1 0 15.4 6.719l-.095-5.411Z"/><path data-name="Path 194" d="M1620.861 1127.423v-4.665h8.4v-10.641l6.532-1.3v11.945h9.8v4.665h-9.8v37.049q0 4.291 1.164 6.068a3.87 3.87 0 0 0 3.456 1.77 25.558 25.558 0 0 0 5.551-.744l.841 4.572a29.554 29.554 0 0 1-7.605 1.3 12.723 12.723 0 0 1-4.76-.744 7.415 7.415 0 0 1-2.8-1.865 8.033 8.033 0 0 1-1.537-2.99 26.36 26.36 0 0 1-.839-7.373v-37.047Z"/></g><g data-name="Group 124" fill="#f2f2f2" stroke="#f8544c" stroke-miterlimit="10"><path data-name="Path 195" d="M608.705 528.794h-19.856v-18.052a16.478 16.478 0 0 1 16.421-16.5h50.911v-51.138a16.479 16.479 0 0 1 16.424-16.496h17.973v19.95H676.04v67.638h-67.335Z"/><path data-name="Path 196" d="M809.855 528.794h-19.86v-14.6h-67.332v-67.636h-14.534v-19.95h17.973a16.479 16.479 0 0 1 16.421 16.5v51.142h50.911a16.477 16.477 0 0 1 16.421 16.5Z"/><path data-name="Path 197" d="M726.102 648.615h-17.973v-19.954h14.534v-67.633h67.332v-14.6h19.86v18.053a16.478 16.478 0 0 1-16.421 16.5h-50.912v51.14a16.479 16.479 0 0 1-16.42 16.494Z"/><path data-name="Path 198" d="M690.574 648.615h-17.969a16.478 16.478 0 0 1-16.421-16.494v-51.143H605.27a16.478 16.478 0 0 1-16.421-16.5v-18.049h19.856v14.6h67.332v67.632h14.534Z"/></g><path data-name="Path 199" d="M769.242 529.243h-58.581a2.538 2.538 0 0 1-2.533-2.544v-58.846a2.537 2.537 0 0 0-2.531-2.542h-12.493a2.536 2.536 0 0 0-2.531 2.542v58.846a2.538 2.538 0 0 1-2.533 2.544h-58.581a2.538 2.538 0 0 0-2.531 2.544v12.549a2.537 2.537 0 0 0 2.531 2.544h58.581a2.538 2.538 0 0 1 2.533 2.544v58.847a2.536 2.536 0 0 0 2.531 2.542h12.493a2.537 2.537 0 0 0 2.531-2.542v-58.848a2.538 2.538 0 0 1 2.533-2.544h58.581a2.537 2.537 0 0 0 2.531-2.544v-12.548a2.537 2.537 0 0 0-2.531-2.544Z" fill="#f2f2f2" stroke="#f8544c" stroke-miterlimit="10"/><path data-name="Path 200" d="M1514.848 671.786a.219.219 0 0 1-.022-.427c27.325-9.194 40.359-27.361 40.359-57.982 0-39.046-26.883-61.5-73.525-61.5h-34.912a13.376 13.376 0 0 0-13.346 13.407h0a13.569 13.569 0 0 0 13.538 13.6h32.455c29.476 0 44.7 13.017 44.7 38.394 0 26.029-16.194 41.646-44.049 41.646h-77.198a.219.219 0 0 1-.22-.22v-91.382a15.1 15.1 0 0 0-15.06-15.129h0a15.1 15.1 0 0 0-15.062 15.129v168.956a15.1 15.1 0 0 0 15.062 15.129h0a15.1 15.1 0 0 0 15.06-15.129v-50.446a.221.221 0 0 1 .22-.22h78.164c33.037 0 50.851 15.942 50.851 46.526 0 29.933-17.49 46.2-50.2 46.2h-95.715a13.472 13.472 0 0 0-13.441 13.5h0a13.474 13.474 0 0 0 13.441 13.5h99.276c49.88 0 78.708-26.029 78.708-70.281-.001-34.846-16.573-56.255-49.084-63.271Z" fill="#f2f2f2" stroke="#f8544c" stroke-linecap="round" stroke-linejoin="round"/><g data-name="Group 125" fill="#f2f2f2" stroke="#f8544c" stroke-linecap="round" stroke-linejoin="round"><path data-name="Path 201" d="M1623.204 560.34c-1.943-7.808-7.774-10.41-13.928-10.41a21.267 21.267 0 0 0-4.534.326c-7.45 1.3-13.6 5.206-13.6 12.689a25.713 25.713 0 0 0 .647 4.555l61.218 223.852c3.238 11.712 11.661 15.942 21.7 15.942 5.344 0 9.99-1.05 13.689-3.661Z"/><path data-name="Path 202" d="M1889.127 550.26a18.375 18.375 0 0 0-4.21-.326c-6.8 0-12.31 2.6-14.575 10.41l-40.815 154.551c-4.21 15.942-9.067 45.552-12.305 63.121-2.917-16.919-7.127-47.179-11.337-63.447l-38.545-150c-2.592-10.41-10.04-14.64-20.4-14.64-11.014 0-18.462 4.23-21.053 14.314l-34.275 133.38 14.793 54.69 28.228-107.7c5.182-20.174 9.069-47.83 12.307-65.726 2.915 17.9 6.478 46.2 11.661 66.374l36.924 146.091c2.915 12.038 11.661 15.942 21.377 15.942 10.365 0 18.462-4.23 21.7-15.617l63.484-225.154a16.428 16.428 0 0 0 .647-3.9c-.006-7.157-6.158-11.064-13.606-12.363Z"/></g><path data-name="Line 16" fill="none" stroke="#333" stroke-linecap="round" stroke-linejoin="round" stroke-width=".5" stroke-dasharray="1 2 1 2 1 2" d="M566.647 426.609h231.948"/><path data-name="Line 17" fill="none" stroke="#333" stroke-linecap="round" stroke-linejoin="round" stroke-width=".5" stroke-dasharray="1 2 1 2 1 2" d="M766.857 407.041h156.387"/><path data-name="Line 18" fill="none" stroke="#333" stroke-linecap="round" stroke-linejoin="round" stroke-width=".5" stroke-dasharray="1 2 1 2 1 2" d="M935.522 470.805h74.373"/><path data-name="Line 19" fill="none" stroke="#333" stroke-linecap="round" stroke-linejoin="round" stroke-width=".5" stroke-dasharray="1 2 1 2 1 2" d="M1034.564 437.482h62.157"/><path data-name="Line 20" fill="none" stroke="#333" stroke-linecap="round" stroke-linejoin="round" stroke-width=".5" stroke-dasharray="1 2 1 2 1 2" d="M1018.644 401.127h43.194"/><path data-name="Line 21" fill="none" stroke="#333" stroke-linecap="round" stroke-linejoin="round" stroke-width=".5" stroke-dasharray="1 2 1 2 1 2" d="M1028.126 375.462h56.275"/><path data-name="Line 22" fill="none" stroke="#333" stroke-linecap="round" stroke-linejoin="round" stroke-width=".5" stroke-dasharray="1 2 1 2 1 2" d="M1015.307 317.8h56.275"/><path data-name="Line 23" fill="none" stroke="#333" stroke-linecap="round" stroke-linejoin="round" stroke-width=".5" stroke-dasharray="1 2 1 2 1 2" d="M1027.54 395.75v30.778"/><path data-name="Line 24" fill="none" stroke="#333" stroke-linecap="round" stroke-linejoin="round" stroke-width=".5" stroke-dasharray="1 2 1 2 1 2" d="M1102.252 412.791v46.23"/><path data-name="Line 25" fill="none" stroke="#333" stroke-linecap="round" stroke-linejoin="round" stroke-width=".5" stroke-dasharray="1 2 1 2 1 2" d="M1008.047 323.402v56.843"/><path data-name="Line 26" fill="none" stroke="#333" stroke-linecap="round" stroke-linejoin="round" stroke-width=".5" stroke-dasharray="1 2 1 2 1 2" d="M1028.767 693.881v56.843"/><path data-name="Line 27" fill="none" stroke="#333" stroke-linecap="round" stroke-linejoin="round" stroke-width=".5" stroke-dasharray="1 2 1 2 1 2" d="M917.298 832.208v79.727"/><path data-name="Line 28" fill="none" stroke="#333" stroke-linecap="round" stroke-linejoin="round" stroke-width=".5" stroke-dasharray="1 2 1 2 1 2" d="M953.984 949.732v79.727"/><path data-name="Line 29" fill="none" stroke="#333" stroke-linecap="round" stroke-linejoin="round" stroke-width=".5" stroke-dasharray="1 2 1 2 1 2" d="M887.706 1022.928v42.725"/><path data-name="Line 30" fill="none" stroke="#333" stroke-linecap="round" stroke-linejoin="round" stroke-width=".5" stroke-dasharray="1 2 1 2 1 2" d="M1120.834 1030.419v35.234"/><path data-name="Line 31" fill="none" stroke="#333" stroke-linecap="round" stroke-linejoin="round" stroke-width=".5" stroke-dasharray="1 2 1 2 1 2" d="m1152.434 1008.843-39.826 39.826"/><path data-name="Line 32" fill="none" stroke="#333" stroke-linecap="round" stroke-linejoin="round" stroke-width=".5" stroke-dasharray="1 2 1 2 1 2" d="m1287.025 987.786-88.444 88.444"/><path data-name="Line 33" fill="none" stroke="#333" stroke-linecap="round" stroke-linejoin="round" stroke-width=".5" stroke-dasharray="1 2 1 2 1 2" d="M1184.981 971.1v61.998"/><path data-name="Line 34" fill="none" stroke="#333" stroke-linecap="round" stroke-linejoin="round" stroke-width=".5" stroke-dasharray="1 2 1 2 1 2" d="M1268.311 924.86v95.307"/><path data-name="Line 35" fill="none" stroke="#333" stroke-linecap="round" stroke-linejoin="round" stroke-width=".5" stroke-dasharray="1 2 1 2 1 2" d="M1222.25 814.98v109.88"/><path data-name="Line 36" fill="none" stroke="#333" stroke-linecap="round" stroke-linejoin="round" stroke-width=".5" stroke-dasharray="1 2 1 2 1 2" d="M1200.636 700.193v81.834"/><path data-name="Line 37" fill="none" stroke="#333" stroke-linecap="round" stroke-linejoin="round" stroke-width=".5" stroke-dasharray="1 2 1 2 1 2" d="M1246.591 796.377v49.344"/><path data-name="Line 38" fill="none" stroke="#333" stroke-linecap="round" stroke-linejoin="round" stroke-width=".5" stroke-dasharray="1 2 1 2 1 2" d="M1255.891 828.538h-47.688"/><path data-name="Line 39" fill="none" stroke="#333" stroke-linecap="round" stroke-linejoin="round" stroke-width=".5" stroke-dasharray="1 2 1 2 1 2" d="M1022.15 953.346v101.748"/><path data-name="Line 40" fill="none" stroke="#333" stroke-linecap="round" stroke-linejoin="round" stroke-width=".5" stroke-dasharray="1 2 1 2 1 2" d="m1074.507 912.81-71.947 71.947"/><path data-name="Line 41" fill="none" stroke="#333" stroke-linecap="round" stroke-linejoin="round" stroke-width=".5" stroke-dasharray="1 2 1 2 1 2" d="m1034.121 1022.973-44.105 44.105"/><path data-name="Line 42" fill="none" stroke="#333" stroke-linecap="round" stroke-linejoin="round" stroke-width=".5" stroke-dasharray="1 2 1 2 1 2" d="m916.307 1008.324-44.105 44.105"/><path data-name="Line 43" fill="none" stroke="#333" stroke-linecap="round" stroke-linejoin="round" stroke-width=".5" stroke-dasharray="1 2 1 2 1 2" d="M962.577 1017.887h-62.374"/><path data-name="Line 44" fill="none" stroke="#333" stroke-linecap="round" stroke-linejoin="round" stroke-width=".5" stroke-dasharray="1 2 1 2 1 2" d="M1010.85 1056.317H876.663"/><path data-name="Line 45" fill="none" stroke="#333" stroke-linecap="round" stroke-linejoin="round" stroke-width=".5" stroke-dasharray="1 2 1 2 1 2" d="M1237.85 1057.342h-134.187"/><path data-name="Line 46" fill="none" stroke="#333" stroke-linecap="round" stroke-linejoin="round" stroke-width=".5" stroke-dasharray="1 2 1 2 1 2" d="M1195.601 1018.011h-65.637"/><path data-name="Line 47" fill="none" stroke="#333" stroke-linecap="round" stroke-linejoin="round" stroke-width=".5" stroke-dasharray="1 2 1 2 1 2" d="M1195.601 985.509h-57.289"/><path data-name="Line 48" fill="none" stroke="#333" stroke-linecap="round" stroke-linejoin="round" stroke-width=".5" stroke-dasharray="1 2 1 2 1 2" d="m941.652 918.637-30.883 30.883"/><path data-name="Line 49" fill="none" stroke="#333" stroke-linecap="round" stroke-linejoin="round" stroke-width=".5" stroke-dasharray="1 2 1 2 1 2" d="m944.772 930.795-35.257-35.257"/><path data-name="Line 50" fill="none" stroke="#333" stroke-linecap="round" stroke-linejoin="round" stroke-width=".5" stroke-dasharray="1 2 1 2 1 2" d="m966.764 978.062-50.518-50.518"/><path data-name="Line 51" fill="none" stroke="#333" stroke-linecap="round" stroke-linejoin="round" stroke-width=".5" stroke-dasharray="1 2 1 2 1 2" d="m1279.475 957.589-80.451-80.451"/><path data-name="Line 52" fill="none" stroke="#333" stroke-linecap="round" stroke-linejoin="round" stroke-width=".5" stroke-dasharray="1 2 1 2 1 2" d="m1253.282 815.225-64.501-64.501"/><path data-name="Line 53" fill="none" stroke="#333" stroke-linecap="round" stroke-linejoin="round" stroke-width=".5" stroke-dasharray="1 2 1 2 1 2" d="m1159.213 991.887-105.304-105.304"/><path data-name="Line 54" fill="none" stroke="#333" stroke-linecap="round" stroke-linejoin="round" stroke-width=".5" stroke-dasharray="1 2 1 2 1 2" d="M1064.185 880.381v59.181"/><path data-name="Line 55" fill="none" stroke="#333" stroke-linecap="round" stroke-linejoin="round" stroke-width=".5" stroke-dasharray="1 2 1 2 1 2" d="m1021.102 411.311 33.537 33.537"/><path data-name="Line 56" fill="none" stroke="#333" stroke-linecap="round" stroke-linejoin="round" stroke-width=".5" stroke-dasharray="1 2 1 2 1 2" d="m999.3 359.839 33.537 33.537"/><path data-name="Line 57" fill="none" stroke="#333" stroke-linecap="round" stroke-linejoin="round" stroke-width=".5" stroke-dasharray="1 2 1 2 1 2" d="m1079.367 445.754 29.044-29.044"/><path data-name="Line 58" fill="none" stroke="#333" stroke-linecap="round" stroke-linejoin="round" stroke-width=".5" stroke-dasharray="1 2 1 2 1 2" d="m1229.039 516.15 36.96-36.96"/><path data-name="Line 59" fill="none" stroke="#333" stroke-linecap="round" stroke-linejoin="round" stroke-width=".5" stroke-dasharray="1 2 1 2 1 2" d="m1193.228 713.866 48.883-48.883"/><path data-name="Line 60" fill="none" stroke="#333" stroke-linecap="round" stroke-linejoin="round" stroke-width=".5" stroke-dasharray="1 2 1 2 1 2" d="m1028.126 521.742 87.836-87.836"/><path data-name="Line 61" fill="none" stroke="#333" stroke-linecap="round" stroke-linejoin="round" stroke-width=".5" stroke-dasharray="1 2 1 2 1 2" d="m912.315 663.641 72.575-72.575"/><path data-name="Line 62" fill="none" stroke="#333" stroke-linecap="round" stroke-linejoin="round" stroke-width=".5" stroke-dasharray="1 2 1 2 1 2" d="m955.8 717.427 52.247-52.247"/><path data-name="Line 63" fill="none" stroke="#333" stroke-linecap="round" stroke-linejoin="round" stroke-width=".5" stroke-dasharray="1 2 1 2 1 2" d="m792.109 650.466 25.811-25.811"/><path data-name="Line 64" fill="none" stroke="#333" stroke-linecap="round" stroke-linejoin="round" stroke-width=".5" stroke-dasharray="1 2 1 2 1 2" d="m1046.724 405.289 38.997-38.997"/><path data-name="Line 65" fill="none" stroke="#333" stroke-linecap="round" stroke-linejoin="round" stroke-width=".5" stroke-dasharray="1 2 1 2 1 2" d="m1021.623 391.879 23.268-23.268"/><path data-name="Line 66" fill="none" stroke="#333" stroke-linecap="round" stroke-linejoin="round" stroke-width=".5" stroke-dasharray="1 2 1 2 1 2" d="m1004.196 337.1 23.268-23.268"/><path data-name="Line 67" fill="none" stroke="#333" stroke-linecap="round" stroke-linejoin="round" stroke-width=".5" stroke-dasharray="1 2 1 2 1 2" d="m1057.179 323.334 38.328-38.328"/><path data-name="Line 68" fill="none" stroke="#333" stroke-linecap="round" stroke-linejoin="round" stroke-width=".5" stroke-dasharray="1 2 1 2 1 2" d="M851.049 475.547h48.549"/><path data-name="Line 69" fill="none" stroke="#333" stroke-linecap="round" stroke-linejoin="round" stroke-width=".5" stroke-dasharray="1 2 1 2 1 2" d="M823.617 706.714h160.028"/><path data-name="Line 70" fill="none" stroke="#333" stroke-linecap="round" stroke-linejoin="round" stroke-width=".5" stroke-dasharray="1 2 1 2 1 2" d="M858.314 654.9h88.107"/><path data-name="Line 71" fill="none" stroke="#333" stroke-linecap="round" stroke-linejoin="round" stroke-width=".5" stroke-dasharray="1 2 1 2 1 2" d="M805.076 630.716h58.791"/><path data-name="Line 72" fill="none" stroke="#333" stroke-linecap="round" stroke-linejoin="round" stroke-width=".5" stroke-dasharray="1 2 1 2 1 2" d="m842.855 622.119 37.304 37.304"/><path data-name="Line 73" fill="none" stroke="#333" stroke-linecap="round" stroke-linejoin="round" stroke-width=".5" stroke-dasharray="1 2 1 2 1 2" d="m788.585 634.054 83.051 83.051"/><path data-name="Line 74" fill="none" stroke="#333" stroke-linecap="round" stroke-linejoin="round" stroke-width=".5" stroke-dasharray="1 2 1 2 1 2" d="M957.482 597.914h58.791"/><path data-name="Line 75" fill="none" stroke="#333" stroke-linecap="round" stroke-linejoin="round" stroke-width=".5" stroke-dasharray="1 2 1 2 1 2" d="m813.779 946.616 260.687-260.687"/><path data-name="Line 76" fill="none" stroke="#333" stroke-linecap="round" stroke-linejoin="round" stroke-width=".5" stroke-dasharray="1 2 1 2 1 2" d="M1163.736 262.986 1278.78 378.03"/><path data-name="Line 77" fill="none" stroke="#333" stroke-linecap="round" stroke-linejoin="round" stroke-width=".5" stroke-dasharray="1 2 1 2 1 2" d="m1210.22 343.146 67.173 67.173"/><path data-name="Line 78" fill="none" stroke="#333" stroke-linecap="round" stroke-linejoin="round" stroke-width=".5" stroke-dasharray="1 2 1 2 1 2" d="m1162.203 282.384 34.531 34.531"/><path data-name="Line 79" fill="none" stroke="#333" stroke-linecap="round" stroke-linejoin="round" stroke-width=".5" stroke-dasharray="1 2 1 2 1 2" d="m1209.857 365.531 40.153-40.153"/><path data-name="Line 80" fill="none" stroke="#333" stroke-linecap="round" stroke-linejoin="round" stroke-width=".5" stroke-dasharray="1 2 1 2 1 2" d="m795.901 434.74 40.153-40.153"/><path data-name="Line 81" fill="none" stroke="#333" stroke-linecap="round" stroke-linejoin="round" stroke-width=".5" stroke-dasharray="1 2 1 2 1 2" d="M1172.982 307.599h55.075"/><path data-name="Line 82" fill="none" stroke="#333" stroke-linecap="round" stroke-linejoin="round" stroke-width=".5" stroke-dasharray="1 2 1 2 1 2" d="m770.345 381.251 151.257 151.257"/><path data-name="Line 83" fill="none" stroke="#333" stroke-linecap="round" stroke-linejoin="round" stroke-width=".5" stroke-dasharray="1 2 1 2 1 2" d="m868.306 389.987 94.903 94.903"/><path data-name="Line 84" fill="none" stroke="#333" stroke-linecap="round" stroke-linejoin="round" stroke-width=".5" stroke-dasharray="1 2 1 2 1 2" d="m965.753 441.494 126.32 126.32"/><path data-name="Line 85" fill="none" stroke="#333" stroke-linecap="round" stroke-linejoin="round" stroke-width=".5" stroke-dasharray="1 2 1 2 1 2" d="m877.61 465.973 139.918 139.918"/><path data-name="Line 86" fill="none" stroke="#333" stroke-linecap="round" stroke-linejoin="round" stroke-width=".5" stroke-dasharray="1 2 1 2 1 2" d="m989.283 666.071 50.612 50.612"/><path data-name="Line 87" fill="none" stroke="#333" stroke-linecap="round" stroke-linejoin="round" stroke-width=".5" stroke-dasharray="1 2 1 2 1 2" d="M1258.432 339.321v170.55"/><path data-name="Line 88" fill="none" stroke="#333" stroke-linecap="round" stroke-linejoin="round" stroke-width=".5" stroke-dasharray="1 2 1 2 1 2" d="M1236.28 491.913v192.84"/><path data-name="Line 89" fill="none" stroke="#333" stroke-linecap="round" stroke-linejoin="round" stroke-width=".5" stroke-dasharray="1 2 1 2 1 2" d="M1042.172 292.265h176.52"/><path data-name="Line 90" fill="none" stroke="#333" stroke-linecap="round" stroke-linejoin="round" stroke-width=".5" stroke-dasharray="1 2 1 2 1 2" d="M566.647 648.615h210.04"/><path data-name="Line 91" fill="none" stroke="#333" stroke-linecap="round" stroke-linejoin="round" stroke-width=".5" stroke-dasharray="1 2 1 2 1 2" d="M566.647 494.204h267.824"/><path data-name="Line 92" fill="none" stroke="#333" stroke-linecap="round" stroke-linejoin="round" stroke-width=".5" stroke-dasharray="1 2 1 2 1 2" d="M566.647 528.794h315.481"/><path data-name="Line 93" fill="none" stroke="#333" stroke-linecap="round" stroke-linejoin="round" stroke-width=".5" stroke-dasharray="1 2 1 2 1 2" d="M566.647 546.429h315.481"/><path data-name="Line 94" fill="none" stroke="#333" stroke-linecap="round" stroke-linejoin="round" stroke-width=".5" stroke-dasharray="1 2 1 2 1 2" d="M566.647 580.977h267.824"/><path data-name="Line 95" fill="none" stroke="#333" stroke-linecap="round" stroke-linejoin="round" stroke-width=".5" stroke-dasharray="1 2 1 2 1 2" d="M690.564 407.037v268.538"/><path data-name="Line 96" fill="none" stroke="#333" stroke-linecap="round" stroke-linejoin="round" stroke-width=".5" stroke-dasharray="1 2 1 2 1 2" d="M708.12 407.037v268.538"/><path data-name="Line 97" fill="none" stroke="#333" stroke-linecap="round" stroke-linejoin="round" stroke-width=".5" stroke-dasharray="1 2 1 2 1 2" d="M656.176 407.038v268.534"/><path data-name="Line 98" fill="none" stroke="#333" stroke-linecap="round" stroke-linejoin="round" stroke-width=".5" stroke-dasharray="1 2 1 2 1 2" d="M742.645 407.038v268.534"/><path data-name="Line 99" fill="none" stroke="#333" stroke-linecap="round" stroke-linejoin="round" stroke-width=".5" stroke-dasharray="1 2 1 2 1 2" d="M809.853 466.836v141.551"/><g data-name="Group 127"><g data-name="Group 126"><path data-name="Path 203" d="M1179.229 630.782v-67.713c0-9-6.429-13.178-15.106-13.178-9 0-15.427 4.178-15.427 13.178v99.332Z" fill="#f2f2f2" stroke="#f8544c" stroke-linecap="round" stroke-linejoin="round"/></g><path data-name="Path 204" d="M1326.114 804.278c4.178-3.212 7.071-8.035 7.071-12.855a13.874 13.874 0 0 0-2.893-8.358l-94.816-122.132 82.924-83.567a12.143 12.143 0 0 0 3.214-8.679 15.825 15.825 0 0 0-16.072-16.071 13.367 13.367 0 0 0-9.964 4.18l-146.881 152.606v84.6c0 8.677 6.426 13.176 15.427 13.176 8.677 0 15.106-4.5 15.106-13.176v-77.143l35.033-35.681 90.959 120.849a14.155 14.155 0 0 0 11.249 5.463 15.166 15.166 0 0 0 9.643-3.212Z" fill="#f2f2f2" stroke="#f8544c" stroke-linecap="round" stroke-linejoin="round"/></g><g data-name="Group 129"><g data-name="Group 128"><path data-name="Path 205" d="M1179.229 630.782v-67.713c0-9-6.429-13.178-15.106-13.178-9 0-15.427 4.178-15.427 13.178v99.332Z" fill="none" stroke="#333" stroke-linecap="round" stroke-linejoin="round" stroke-width=".5" stroke-dasharray="1 2 1 2 1 2"/></g><path data-name="Path 206" d="M1326.114 804.278c4.178-3.212 7.071-8.035 7.071-12.855a13.874 13.874 0 0 0-2.893-8.358l-94.816-122.132 82.924-83.567a12.143 12.143 0 0 0 3.214-8.679 15.825 15.825 0 0 0-16.072-16.071 13.367 13.367 0 0 0-9.964 4.18l-146.881 152.606v84.6c0 8.677 6.426 13.176 15.427 13.176 8.677 0 15.106-4.5 15.106-13.176v-77.143l35.033-35.681 90.959 120.849a14.155 14.155 0 0 0 11.249 5.463 15.166 15.166 0 0 0 9.643-3.212Z" fill="none" stroke="#333" stroke-linecap="round" stroke-linejoin="round" stroke-width=".5" stroke-dasharray="1 2 1 2 1 2"/></g><path data-name="Path 207" d="M1514.848 671.786a.219.219 0 0 1-.022-.427c27.325-9.194 40.359-27.361 40.359-57.982 0-39.046-26.883-61.5-73.525-61.5h-34.912a13.376 13.376 0 0 0-13.346 13.407h0a13.569 13.569 0 0 0 13.538 13.6h32.455c29.476 0 44.7 13.017 44.7 38.394 0 26.029-16.194 41.646-44.049 41.646h-77.198a.219.219 0 0 1-.22-.22v-91.382a15.1 15.1 0 0 0-15.06-15.129h0a15.1 15.1 0 0 0-15.062 15.129v168.956a15.1 15.1 0 0 0 15.062 15.129h0a15.1 15.1 0 0 0 15.06-15.129v-50.446a.221.221 0 0 1 .22-.22h78.164c33.037 0 50.851 15.942 50.851 46.526 0 29.933-17.49 46.2-50.2 46.2h-95.715a13.472 13.472 0 0 0-13.441 13.5h0a13.474 13.474 0 0 0 13.441 13.5h99.276c49.88 0 78.708-26.029 78.708-70.281-.001-34.846-16.573-56.255-49.084-63.271Z" fill="none" stroke="#333" stroke-linecap="round" stroke-linejoin="round" stroke-width=".5" stroke-dasharray="1 2 1 2 1 2"/><g data-name="Group 130" fill="none" stroke="#333" stroke-linecap="round" stroke-linejoin="round" stroke-width=".5" stroke-dasharray="1 2 1 2 1 2"><path data-name="Path 208" d="M1623.204 560.34c-1.943-7.808-7.774-10.41-13.928-10.41a21.267 21.267 0 0 0-4.534.326c-7.45 1.3-13.6 5.206-13.6 12.689a25.713 25.713 0 0 0 .647 4.555l61.218 223.852c3.238 11.712 11.661 15.942 21.7 15.942 5.344 0 9.99-1.05 13.689-3.661Z"/><path data-name="Path 209" d="M1889.127 550.26a18.375 18.375 0 0 0-4.21-.326c-6.8 0-12.31 2.6-14.575 10.41l-40.815 154.551c-4.21 15.942-9.067 45.552-12.305 63.121-2.917-16.919-7.127-47.179-11.337-63.447l-38.545-150c-2.592-10.41-10.04-14.64-20.4-14.64-11.014 0-18.462 4.23-21.053 14.314l-34.275 133.38 14.793 54.69 28.228-107.7c5.182-20.174 9.069-47.83 12.307-65.726 2.915 17.9 6.478 46.2 11.661 66.374l36.924 146.091c2.915 12.038 11.661 15.942 21.377 15.942 10.365 0 18.462-4.23 21.7-15.617l63.484-225.154a16.428 16.428 0 0 0 .647-3.9c-.006-7.157-6.158-11.064-13.606-12.363Z"/></g></g></g></svg>