<svg xmlns="http://www.w3.org/2000/svg" xmlns:xlink="http://www.w3.org/1999/xlink" width="2560" height="2880" viewBox="0 0 2560 2880">
  <defs>
    <clipPath id="clip-path">
      <path id="Path_89" data-name="Path 89" d="M0,0H2557.782V2880H0Z" fill="#d8d1c9"/>
    </clipPath>
    <clipPath id="clip-path-2">
      <rect id="Rectangle_184" data-name="Rectangle 184" width="1437.284" height="1285.042" fill="none"/>
    </clipPath>
  </defs>
  <g id="typo" transform="translate(-981 -2324)">
    <path id="bg" d="M0,0H2557.782V2880H0Z" transform="translate(981 2324)" fill="#fe5b00"/>
    <path id="bg-2" data-name="bg" d="M0,0H2560V1441.249H0Z" transform="translate(981 2324)" fill="#fe5b00"/>
    <g id="Mask_Group_19" data-name="Mask Group 19" transform="translate(981 2324)" clip-path="url(#clip-path)">
      <g id="Group_232" data-name="Group 232" transform="translate(561.36 972.356)">
        <g id="Group_225" data-name="Group 225" clip-path="url(#clip-path-2)">
          <path id="Path_1196" data-name="Path 1196" d="M109.344,0h57.888V-381.1h-32.16L0-313.024l25.728,51.992,83.616-42.88ZM325.888,4.288H381.1L436.84-20.9,473.824-69.68l13.4-47.168V-273.9L475.432-315.7l-28.944-41.808-55.744-27.872H327.5l-56.28,28.408-28.408,39.664-10.184,38.056v45.024l10.184,35.376,27.336,41.272L327.5-129.176h52.528L423.976-147.4l5.36-4.824v26.264L420.76-94.872c-7.5,10.184-14.472,18.224-21.976,27.336L367.7-53.6H339.288l-34.3-16.08-20.9-21.44L242.808-49.312,271.216-21.44Zm13.936-190.816L310.88-202.072,296.408-222.44l-5.36-18.224v-31.088l6.968-23.584,12.328-17.152L340.36-327.5h36.984L407.9-312.488c4.824,6.968,9.648,13.4,13.936,20.368l7.5,25.728v36.984l-5.36,10.72-21.44,18.76-32.7,13.4ZM518.848,0h72.36V-74.5h-72.36ZM733.784,4.288h52.528L836.16-19.3l38.056-38.056,19.3-46.632,8.576-48.24v-76.648l-8.576-48.24-19.3-46.632L836.16-361.8l-49.848-23.584H733.784L683.4-361.8l-37.52,38.056-19.3,46.632-8.576,48.24v76.648l8.576,48.24,19.3,46.632L683.4-19.3ZM746.112-53.6,718.24-67,695.192-91.656,683.4-120.064l-7.5-38.592v-65.928l7.5-35.912,11.256-30.016L717.7-313.56,746.648-327.5h26.8l28.408,13.936,23.584,23.048L836.7-260.5l7.5,35.912v65.928l-8.04,38.592L824.9-91.12,801.32-67,773.448-53.6ZM1020.008,0H1077.9V-381.1h-32.16L910.664-313.024l25.728,51.992,83.616-42.88Zm139.9-139.9h182.24v-50.92H1159.9Z" transform="translate(0 457.963)" fill="#2a3e4f"/>
          <path id="Path_1195" data-name="Path 1195" d="M146.328,4.288h52.528L248.7-19.3,286.76-57.352l19.3-46.632,8.576-48.24v-76.648l-8.576-48.24-19.3-46.632L248.7-361.8l-49.848-23.584H146.328L95.944-361.8l-37.52,38.056-19.3,46.632-8.576,48.24v76.648l8.576,48.24,19.3,46.632L95.944-19.3ZM158.656-53.6,130.784-67,107.736-91.656,95.944-120.064l-7.5-38.592v-65.928l7.5-35.912L107.2-290.512l23.048-23.048L159.192-327.5h26.8L214.4-313.56l23.584,23.048L249.24-260.5l7.5,35.912v65.928l-8.04,38.592L237.448-91.12,213.864-67,185.992-53.6ZM455.6,4.288h63.248l56.28-28.408,28.408-39.664L613.72-101.84v-46.632l-9.648-35.376L575.664-225.12l-56.816-28.408h-50.92l-46.1,18.76-4.824,4.824v-22.512l8.576-32.16c6.968-9.648,15.008-18.224,21.976-27.872L479.184-327.5h27.872l34.84,16.08,20.9,20.9,41.272-41.272-28.944-27.872-54.672-25.728H465.784l-56.816,26.8L372.52-309.808l-13.4,48.24V-107.2l11.792,41.808,28.944,41.808ZM469-53.6,438.984-68.608,424.512-88.44l-7.5-26.264v-39.128l6.432-10.184,21.976-18.224,32.7-13.936H506.52l28.944,15.544,14.472,20.368,5.9,18.76v32.16l-8.04,24.12L536-68.608,505.984-53.6ZM630.872,0h72.36V-74.5h-72.36ZM845.808,4.288h52.528L948.184-19.3,986.24-57.352l19.3-46.632,8.576-48.24v-76.648l-8.576-48.24-19.3-46.632L948.184-361.8l-49.848-23.584H845.808L795.424-361.8,757.9-323.744l-19.3,46.632-8.576,48.24v76.648l8.576,48.24,19.3,46.632L795.424-19.3ZM858.136-53.6,830.264-67,807.216-91.656l-11.792-28.408-7.5-38.592v-65.928l7.5-35.912,11.256-30.016,23.048-23.048L858.672-327.5h26.8L913.88-313.56l23.584,23.048L948.72-260.5l7.5,35.912v65.928l-8.04,38.592L936.928-91.12,913.344-67,885.472-53.6ZM1155.08,4.288h63.248l56.28-28.408,28.408-39.664L1313.2-101.84v-46.632l-9.648-35.376-28.408-41.272-56.816-28.408h-50.92l-46.1,18.76-4.824,4.824v-22.512l8.576-32.16c6.968-9.648,15.008-18.224,21.976-27.872l31.624-15.008h27.872l34.84,16.08,20.9,20.9,41.272-41.272-28.944-27.872-54.672-25.728h-54.672l-56.816,26.8L1072-309.808l-13.4,48.24V-107.2l11.792,41.808,28.944,41.808Zm13.4-57.888-30.016-15.008L1123.992-88.44l-7.5-26.264v-39.128l6.432-10.184L1144.9-182.24l32.7-13.936H1206l28.944,15.544,14.472,20.368,5.9,18.76v32.16l-8.04,24.12L1235.48-68.608,1205.464-53.6Z" transform="translate(0 931.992)" fill="#2a3e4f"/>
        </g>
      </g>
      <path id="Path_1178" data-name="Path 1178" d="M9.95,0H211.736V-42.586H68.058l140.1-208.552v-31.84H17.512v42.586H150.444L9.95-31.84ZM292.928,0h37.81l43.78-126.962L418.7,0h37.81L517.4-209.746H472.824L436.208-76.018,391.632-202.184H357.8L313.226-75.62,276.212-209.746H232.034ZM698.49,5.174,732.718-19.5,716-43.78V-157.21l-11.144-27.86-31.442-21.094L646.75-212.93H609.736l-26.666,7.96-17.91,11.542L549.24-178.7l29.452,30.646L589.836-158.8l10.746-7.164,13.134-4.776h25.472l17.512,4.378,13.532,9.154,3.184,7.96v17.114l-1.592-1.194-26.268-8.756H619.288l-39,9.95-29.85,30.248-5.97,27.462v24.278l23.084,33.432,19.5,11.542,27.064,8.358h25.472L676.2-15.522l4.776-5.174ZM619.686-39l-15.522-5.174L597-48.158l-9.95-14.328v-7.96l2.786-10.348,12.736-13.134,21.492-5.97h15.522l18.308,5.572,9.154,4.378,6.368,6.766v11.144l-3.184,8.756L656.7-48.954,630.83-39ZM784.06,0h42.586V-140.892l9.552-13.532,24.676-16.318h21.094l19.9,6.368,7.562,10.746V0h42.586V-169.15l-25.074-33.83-37.014-9.95h-35.82l-27.462,15.92v-12.736H784.06Zm216.114,0h163.18V-42.188h-103.48l101.49-135.32v-32.238h-155.22v41.79h96.714L1000.174-32.238Zm214.92-242.382h55.72v-57.71h-55.72ZM1221.86,0h42.586V-209.746H1221.86Zm176.712,66.864h35.422l28.656-9.95,31.84-21.094,9.95-29.85V-209.746h-42.188v7.96l-3.184-2.388-23.88-8.756h-35.422l-40.2,19.9L1332.9-157.21l-8.756,29.85v36.616l8.756,29.452,27.86,36.218,40.994,15.92h36.616l23.88-14.328V0l-3.582,8.756L1444.342,19.1l-15.522,5.572h-24.278L1386.234,19.9l-7.164-5.572L1365.936,1.194l-29.85,30.646,14.328,14.328L1371.508,59.7Zm9.552-118.206L1386.632-59.7l-16.318-22.288-3.582-13.93v-26.268l3.98-15.124L1387.428-160l19.5-11.144h23.084l13.134,4.776,12.338,7.96,6.766,7.96v68.456l-9.95,15.522-21.89,15.124ZM1550.21,0h176.712V-42.586H1612.3l94.326-104.674,17.512-35.82v-39.8l-26.666-42.188-42.984-21.094h-43.78l-41.79,18.706-21.89,23.084,30.646,30.646,16.716-17.512,25.472-11.94h24.278l23.482,11.144,13.134,21.89v17.91l-10.746,21.492L1550.21-35.82ZM1751.2,0h176.712V-42.586H1813.288l94.326-104.674,17.512-35.82v-39.8l-26.666-42.188-42.984-21.094H1811.7l-41.79,18.706-21.89,23.084,30.646,30.646,16.716-17.512,25.472-11.94h24.278l23.482,11.144,13.134,21.89v17.91L1871-170.742,1751.2-35.82Z" transform="translate(305 1586.959)" fill="#fff"/>
    </g>
  </g>
</svg>
