<svg xmlns="http://www.w3.org/2000/svg" width="2560" height="2880" viewBox="0 0 2560 2880">
  <g id="Group_83" data-name="Group 83" transform="translate(0 -8640)">
    <path id="Path_2311" data-name="Path 2311" d="M0,0H2560V2880H0Z" transform="translate(0 8640)" fill="#caff01"/>
    <path id="Path_2312" data-name="Path 2312" d="M160.152,282.392,141.669,221.24H56.725l-18.09,61.152H-4.033l80.028-256.6h46.8l80.028,256.6ZM67.54,185.257h63.315L99.394,79.471Zm333.483,97.135h-40.7V169.33q0-21.433-8.062-29.691t-23.4-8.258q-22.612,0-36.868,18.287T277.736,200.2v82.191h-40.7V99.134h40.7v46.011q6.1-23.792,22.612-37.065t40.7-13.272q28.118,0,44.045,18.287t15.927,56.236ZM635.208,190.96q0,21.433-6.784,38.933a86.153,86.153,0,0,1-19.466,30.183,89.273,89.273,0,0,1-30.379,19.761q-17.7,7.079-39.522,7.079a104.469,104.469,0,0,1-39.129-7.079,89.274,89.274,0,0,1-30.379-19.761,86.154,86.154,0,0,1-19.466-30.183q-6.784-17.5-6.784-38.933a107.585,107.585,0,0,1,6.784-38.638,87.6,87.6,0,0,1,19.466-30.674,86.7,86.7,0,0,1,30.379-19.86,105.773,105.773,0,0,1,39.129-6.98q21.826,0,39.522,6.98a86.7,86.7,0,0,1,30.379,19.86,87.6,87.6,0,0,1,19.466,30.674A107.585,107.585,0,0,1,635.208,190.96Zm-40.506,0a71.516,71.516,0,0,0-3.834-23.5A51.756,51.756,0,0,0,562.161,136a60.316,60.316,0,0,0-46.306,0,51.455,51.455,0,0,0-17.3,12.486,54.593,54.593,0,0,0-10.913,18.975,71.515,71.515,0,0,0-3.834,23.5,69.066,69.066,0,0,0,3.834,23.6,57.706,57.706,0,0,0,10.913,18.68,48.113,48.113,0,0,0,17.3,12.486,62.8,62.8,0,0,0,46.306,0,49.8,49.8,0,0,0,17.6-12.486,55.916,55.916,0,0,0,11.11-18.68A69.067,69.067,0,0,0,594.7,190.96Zm245.983,91.433h-40.7V169.33q0-21.433-8.062-29.691t-23.4-8.258q-22.612,0-36.868,18.287T717.4,200.2v82.191H676.7V99.134h40.7v46.011q6.1-23.792,22.612-37.065t40.7-13.272q28.118,0,44.045,18.287t15.927,56.236ZM1068.579,99.134,989.534,318.179q-8.848,23.792-25.758,32.64t-40.309,8.848a103.437,103.437,0,0,1-17.3-1.573,106.572,106.572,0,0,1-19.27-5.309l8.455-37.36a91.771,91.771,0,0,0,15.534,4.424,71.72,71.72,0,0,0,12.584,1.278q18.287,0,24.972-16.124l7.275-17.7-70-188.174h42.275l50.337,138.624,46.6-138.624Zm221.4,183.258h-40.7V156.746q0-12.978-2.655-19.171a9.422,9.422,0,0,0-9.34-6.194q-12.191,0-15.435,13.666t-3.244,39.817v97.528h-40.7V156.746q0-12.978-2.753-19.171a9.743,9.743,0,0,0-9.635-6.194q-11.994,0-15.042,13.666t-3.048,39.817v97.528h-40.7V99.134h41.1v26.545q4.326-15.14,12.781-23.006t22.612-7.865q11.8,0,19.761,7.177t10.913,19.761q6.882-13.764,14.256-20.351t22.711-6.587q18.877,0,29,13.862t10.126,41.98Zm224.551-91.433q0,21.433-6.784,38.933a86.153,86.153,0,0,1-19.466,30.183,89.274,89.274,0,0,1-30.379,19.761q-17.7,7.079-39.522,7.079a104.469,104.469,0,0,1-39.129-7.079,89.275,89.275,0,0,1-30.379-19.761,86.156,86.156,0,0,1-19.466-30.183q-6.784-17.5-6.784-38.933a107.585,107.585,0,0,1,6.784-38.638,87.6,87.6,0,0,1,19.466-30.674,86.7,86.7,0,0,1,30.379-19.86,105.773,105.773,0,0,1,39.129-6.98q21.826,0,39.522,6.98a86.7,86.7,0,0,1,30.379,19.86,87.6,87.6,0,0,1,19.466,30.674A107.585,107.585,0,0,1,1514.534,190.96Zm-40.506,0a71.516,71.516,0,0,0-3.834-23.5A51.757,51.757,0,0,0,1441.486,136a60.316,60.316,0,0,0-46.306,0,51.455,51.455,0,0,0-17.3,12.486,54.592,54.592,0,0,0-10.913,18.975,71.512,71.512,0,0,0-3.834,23.5,69.064,69.064,0,0,0,3.834,23.6,57.705,57.705,0,0,0,10.913,18.68,48.113,48.113,0,0,0,17.3,12.486,62.8,62.8,0,0,0,46.306,0,49.8,49.8,0,0,0,17.6-12.486,55.916,55.916,0,0,0,11.11-18.68A69.067,69.067,0,0,0,1474.029,190.96Zm81.994-91.826h40.7V212.392q0,21.236,8.062,29.494t23.4,8.258q22.416,0,36.77-18.287t14.354-50.534V99.134h40.7V282.392h-40.7V236.578q-6.1,23.6-22.612,36.966t-40.7,13.371q-28.118,0-44.045-18.385t-15.927-56.138Zm388.539,128.4q0,17.893-8.062,29.1a60.93,60.93,0,0,1-20.744,18.09,90.775,90.775,0,0,1-28.315,9.537,182.474,182.474,0,0,1-30.576,2.654,175.768,175.768,0,0,1-49.747-7.275q-24.775-7.275-42.865-19.073l16.91-33.427q21.629,12.584,39.621,17.795a129.138,129.138,0,0,0,36.081,5.211q24.579,0,35.786-5.211t11.208-14.452a9.8,9.8,0,0,0-3.146-7.472q-3.146-2.949-10.421-5.407a168.626,168.626,0,0,0-19.171-4.916q-11.9-2.458-29.593-5.211-14.157-2.36-26.84-5.8a77.745,77.745,0,0,1-22.318-9.733,49.053,49.053,0,0,1-15.435-15.927q-5.8-9.635-5.8-24.185,0-14.747,7.57-25.66a60.477,60.477,0,0,1,19.859-17.992,91.958,91.958,0,0,1,27.626-10.225,152.288,152.288,0,0,1,30.674-3.146,157.4,157.4,0,0,1,41.98,5.6,119.341,119.341,0,0,1,35.688,16.025L1918.411,147.9q-15.337-9.635-29.789-13.076a137.1,137.1,0,0,0-31.756-3.441q-7.275,0-15.14.787a65.726,65.726,0,0,0-14.551,3.048,32.781,32.781,0,0,0-11.11,6.1,11.915,11.915,0,0,0-4.424,9.34q0,7.275,12.879,11.9t43.947,9.143a271.867,271.867,0,0,1,30.871,6,87.393,87.393,0,0,1,23.989,9.831,44.875,44.875,0,0,1,15.632,15.927Q1944.562,213.179,1944.562,227.533ZM190.826,476.409q0,38.539-23.4,57.317T102.147,552.5H57.9v103.82H17.2v-256.6h84.551q42.275,0,65.674,19.368T190.826,476.409Zm-40.7-.59q0-19.663-12.879-29.494t-35.1-9.831H57.9v79.242h44.242q22.219,0,35.1-9.832T150.124,475.819Zm256.011,40.7a74.885,74.885,0,0,0-14.845-5.407,72.993,72.993,0,0,0-17.4-1.868,78.828,78.828,0,0,0-25.463,4.031,56.144,56.144,0,0,0-20.548,12.093,54.778,54.778,0,0,0-13.469,20.155q-4.817,12.093-4.817,28.609v45.618h41.1v36.573H227.4V619.752h41.489V509.836H227.4v-36.77H309.59v46.011q10.028-27.528,29.593-38.933t46.5-11.4a94.135,94.135,0,0,1,17.7,1.77,67.534,67.534,0,0,1,18.09,6.292Zm229.073,48.371q0,21.433-6.784,38.933a86.153,86.153,0,0,1-19.466,30.183,89.273,89.273,0,0,1-30.379,19.761q-17.7,7.079-39.522,7.079a104.468,104.468,0,0,1-39.129-7.079,89.273,89.273,0,0,1-30.379-19.761,86.154,86.154,0,0,1-19.466-30.183q-6.784-17.5-6.784-38.933a107.584,107.584,0,0,1,6.784-38.638,87.6,87.6,0,0,1,19.466-30.674,86.7,86.7,0,0,1,30.379-19.86,105.773,105.773,0,0,1,39.129-6.98q21.826,0,39.522,6.98a86.694,86.694,0,0,1,30.379,19.86,87.6,87.6,0,0,1,19.466,30.674A107.584,107.584,0,0,1,635.208,564.892Zm-40.506,0a71.516,71.516,0,0,0-3.834-23.5,51.757,51.757,0,0,0-28.708-31.461,60.316,60.316,0,0,0-46.306,0,51.453,51.453,0,0,0-17.3,12.486,54.592,54.592,0,0,0-10.913,18.975,71.515,71.515,0,0,0-3.834,23.5,69.066,69.066,0,0,0,3.834,23.6,57.707,57.707,0,0,0,10.913,18.68,48.112,48.112,0,0,0,17.3,12.486,62.8,62.8,0,0,0,46.306,0,49.8,49.8,0,0,0,17.6-12.486,55.916,55.916,0,0,0,11.11-18.68A69.067,69.067,0,0,0,594.7,564.892Z" transform="translate(150.634 8740.17)" fill="#d6d6d6"/>
    <path id="Path_2313" data-name="Path 2313" d="M245.626,277.854V266.176c-24.564-2.013-29.8-5.638-40.672-36.645C181.6,166.307,155.825,93.017,133.274,31.4L120.79,34.626,45.083,227.517C31.794,260.941,26.962,262.955,2.8,266.176v11.678H84.95V266.176c-28.189-2.416-31.813-5.638-23.356-30.2,5.235-15.3,10.067-30.6,15.705-45.907h81.747l20.538,56.378c4.43,14.094,1.611,16.913-23.356,19.732v11.678Zm-92.218-104.7H83.742C95.42,141.34,107.1,108.319,119.179,75.7h.805Zm283.5,84.566-12.886-1.208c-13.692-.805-16.511-2.819-16.511-21.746V12.88c-12.886,4.43-37.451,10.47-56.378,13.289V36.236c28.189,1.611,29.8,2.416,29.8,27.383v51.142c-8.054-3.624-20.538-4.832-26.175-4.832-49.532,0-95.439,40.672-95.439,92.62,0,52.351,38.256,79.734,68.056,79.734,4.027,0,15.3-2.416,30.6-11.276l22.954-13.289v24.565c20.538-7.651,47.921-12.484,55.975-14.094Zm-55.975-12.484c-9.665,6.443-24.564,13.692-38.659,13.692-25.37,0-52.351-22.551-52.351-66.445,0-52.753,32.216-67.653,50.74-67.653,14.094,0,30.2,5.638,40.27,18.524ZM537.178,109.93c-33.021,0-80.942,27.383-80.942,89.8,0,41.478,31.008,82.553,81.345,82.553,35.437,0,80.137-27.786,80.137-89C617.718,146.575,582.28,109.93,537.178,109.93Zm-4.027,12.886c34.229,0,52.753,36.243,52.753,78.123,0,49.532-19.732,68.056-44.3,68.056-32.216,0-53.559-34.229-53.559-80.942C488.049,145.77,509.8,122.816,533.151,122.816Zm150.609,4.027V12.88c-12.484,5.235-34.632,10.873-51.545,13.289v9.665c24.565,1.611,25.37,4.027,25.37,26.981V268.592c19.329,9.665,38.256,13.692,52.753,13.692,49.129,0,93.828-38.659,93.828-93.828,0-44.7-34.229-78.526-73.291-78.526a33.531,33.531,0,0,0-14.094,3.222Zm0,12.081c7.651-4.43,21.343-8.054,32.216-8.054,31.41,0,58.391,25.37,58.391,66.848,0,43.089-20.94,68.861-53.156,68.861-20.94,0-32.618-12.886-35.035-20.135-1.611-3.222-2.416-6.846-2.416-12.886Zm279.471,99.869c-13.692,12.484-27.383,18.927-43.089,18.927-25.773,0-55.572-20.94-55.975-71.68,45.907-1.208,93.426-4.832,99.466-6.04,6.443-1.611,8.054-4.43,8.054-12.886,0-29.8-24.967-57.183-55.975-57.183-18.927,0-39.062,10.067-53.961,26.981-15.3,16.913-24.162,40.27-24.162,65.64,0,42.283,26.981,79.734,71.68,79.734,11.678,0,36.243-6.443,60.4-34.229ZM907.257,124.427c20.94,0,34.632,16.913,34.632,36.645,0,5.235-2.416,7.651-9.665,8.054-22.954.805-44.7,1.208-66.445.805C872.625,140.132,889.135,124.427,907.257,124.427ZM252.069,539.435h-92.62v10.873c36.645,3.222,39.464,5.235,39.464,32.216v28.189c0,16.511-4.43,20.538-12.886,24.564-8.457,4.43-20.135,7.249-33.827,7.249-72.888,0-105.507-61.21-105.507-114.366,0-68.861,42.283-108.728,100.271-108.728,34.632,0,62.418,10.47,72.083,57.183l11.275-2.014c-3.222-23.759-4.832-45.1-6.04-58.391-12.081-2.819-41.075-10.873-72.485-10.873-70.069,0-139.736,39.867-139.736,126.849,0,73.291,53.961,124.433,134.5,124.433,29.4,0,60-8.054,83.761-13.692-2.416-10.47-2.819-22.551-2.819-35.035v-31.41c0-21.343,1.611-22.551,24.564-26.175ZM447.78,632.458l-10.873-.4c-14.5-.805-17.719-2.819-17.719-21.746V485.473c-18.927,4.43-38.256,6.04-57.183,6.846v9.665c28.591,3.222,30.6,4.832,30.6,26.981v84.969q-21.142,19.33-42.283,19.329c-17.719,0-34.632-8.859-34.632-43.491V540.24c0-24.162,0-42.686.805-54.767a371.013,371.013,0,0,1-51.142,6.846v9.665c21.746,3.624,23.759,5.235,23.759,26.981v70.472c0,42.283,22.551,56.78,46.31,56.78,10.067,0,16.913-2.416,27.786-8.859,11.276-6.04,20.135-12.886,29.4-20.135V654.2l2.416,2.013c17.316-5.638,35.84-11.276,52.753-13.289Zm51.545-181.616c10.067,0,17.719-8.859,17.719-18.524,0-10.873-7.651-18.927-17.316-18.927A18.653,18.653,0,0,0,480.8,432.317C480.8,441.982,489.258,450.841,499.325,450.841Zm-37.451,56.378c24.162,3.222,26.175,4.832,26.175,29.8V608.3c0,35.84-1.208,57.183-3.624,71.68-2.819,12.484-5.638,19.329-10.873,25.37-5.235,6.443-14.9,10.873-25.773,14.094-5.638,1.611-8.054,4.43-8.054,9.262,0,8.457,8.457,16.511,13.692,16.511,2.819,0,6.04-1.208,9.262-3.624,7.651-6.846,30.6-35.437,43.089-72.485,7.249-20.94,8.859-36.645,8.859-61.613V483.057c-14.9,7.249-33.021,12.081-52.753,14.9ZM705.1,638.1l-4.027-10.873a27.582,27.582,0,0,1-13.692,4.43c-6.846,0-13.289-5.638-13.289-22.551V538.629c0-18.927-4.027-33.827-16.108-44.7-7.651-6.846-19.329-10.067-30.2-10.067-21.746,4.43-45.5,18.927-54.767,25.773-7.249,5.235-12.081,9.665-12.081,14.9,0,8.859,9.262,15.705,15.3,15.705,5.235,0,9.262-2.416,10.47-8.054,3.624-10.873,6.443-18.524,11.276-23.759,3.624-4.43,9.665-7.651,17.719-7.651,19.329,0,33.021,15.3,33.021,42.686V548.7c-8.054,6.04-35.437,16.51-57.988,24.162-21.343,6.846-31.008,19.732-31.008,37.451,0,24.162,18.524,45.907,43.894,45.907,12.886,0,30.2-13.692,45.907-23.759a30.185,30.185,0,0,0,8.859,16.913c3.624,3.624,11.678,6.846,16.108,6.846Zm-56.378-18.927c-7.249,6.846-22.551,14.9-33.021,14.9-12.081,0-27.383-9.262-27.383-28.189,0-13.692,8.457-20.94,23.759-27.383l36.645-16.511ZM770.34,523.327V482.654a192.731,192.731,0,0,1-49.934,15.3v9.665c22.148,2.416,23.759,3.624,23.759,28.994v75.707c0,24.565-2.416,26.981-26.981,28.994v10.47h84.164v-10.47c-29.4-2.013-31.008-4.43-31.008-29.4V545.878c8.054-22.148,21.746-35.035,32.216-35.035,6.04,0,10.067,2.013,15.3,7.651,2.416,2.013,5.638,2.416,9.665.805,7.249-3.624,11.275-10.47,11.275-17.316,0-8.457-8.457-18.121-21.746-18.121-18.927,0-34.632,20.94-45.907,39.464ZM1004.307,638.1l-4.027-10.873a27.581,27.581,0,0,1-13.692,4.43c-6.846,0-13.289-5.638-13.289-22.551V538.629c0-18.927-4.027-33.827-16.108-44.7-7.651-6.846-19.329-10.067-30.2-10.067-21.746,4.43-45.5,18.927-54.767,25.773-7.248,5.235-12.081,9.665-12.081,14.9,0,8.859,9.262,15.705,15.3,15.705,5.235,0,9.262-2.416,10.47-8.054,3.624-10.873,6.443-18.524,11.275-23.759,3.624-4.43,9.665-7.651,17.719-7.651,19.329,0,33.021,15.3,33.021,42.686V548.7c-8.054,6.04-35.437,16.51-57.988,24.162-21.343,6.846-31.008,19.732-31.008,37.451,0,24.162,18.524,45.907,43.894,45.907,12.886,0,30.2-13.692,45.907-23.759a30.184,30.184,0,0,0,8.859,16.913c3.624,3.624,11.678,6.846,16.108,6.846Zm-56.378-18.927c-7.249,6.846-22.551,14.9-33.021,14.9-12.081,0-27.383-9.262-27.383-28.189,0-13.692,8.457-20.94,23.759-27.383l36.645-16.511ZM1111.021,638.5l-3.624-10.067c-4.832,2.416-14.5,6.443-24.162,6.443s-21.746-5.638-21.746-35.84V503.595h41.075c4.832-3.222,5.638-11.678,2.416-15.3h-43.491V437.955l-5.638-.4-20.537,24.565v26.175H1017.6l-10.47,10.873,1.611,4.43h26.578V612.323c0,28.994,12.484,43.894,35.035,43.894,4.027,0,10.068-1.611,17.316-5.235ZM1167,450.841c10.47,0,18.121-8.859,18.121-18.524,0-10.873-7.651-18.927-17.719-18.927a18.567,18.567,0,0,0-18.524,18.927C1148.875,441.982,1157.331,450.841,1167,450.841Zm42.283,200.946v-10.47c-24.162-2.013-26.981-4.43-26.981-29.4V483.057c-15.3,6.846-31.813,11.678-50.74,14.9v9.665c23.759,3.222,24.564,5.235,24.564,27.383V611.92c0,24.967-2.819,27.383-26.981,29.4v10.47Z" transform="translate(163.456 10177.157)" fill="#d6d6d6"/>
    <path id="Path_2314" data-name="Path 2314" d="M70.878,53.3H2.811V44.752H70.878Zm4.6,161.876H64.744L55.76,187.932H18.075L9.238,215.173H-1.5l31.7-95.309H43.783ZM52.912,179.095,36.918,129.943,20.923,179.095Zm102.463,8.837q0,13.657-8.837,20.449t-25.124,6.792H91.033V119.864h28.7a69.683,69.683,0,0,1,11.758.986,30.014,30.014,0,0,1,10.334,3.688,21.008,21.008,0,0,1,7.413,7.486q2.848,4.784,2.848,12.525,0,14.826-14.826,20.23Q155.375,170.331,155.375,187.932ZM142.083,144.55a14.727,14.727,0,0,0-2.118-8.253,14.365,14.365,0,0,0-5.4-4.93,23.344,23.344,0,0,0-7.23-2.337,48.859,48.859,0,0,0-7.6-.621h-18.7v32.354h18.7a51.589,51.589,0,0,0,8.034-.621,20.669,20.669,0,0,0,7.084-2.41,13.98,13.98,0,0,0,7.23-13.183Zm3.287,43.382q0-9.86-6.39-14.351t-17.565-4.492H101.038v37.539h20.376q11.174,0,17.565-4.711T145.37,187.932Zm95.379,2.264q-3.725,12.27-12.2,19.463t-21.326,7.194q-10.006,0-16.944-4.126a34.291,34.291,0,0,1-11.357-10.919,46.68,46.68,0,0,1-6.354-15.7,89.172,89.172,0,0,1,0-36.955,47.493,47.493,0,0,1,6.354-15.775,34.036,34.036,0,0,1,11.357-10.992q6.938-4.126,16.944-4.126a33.494,33.494,0,0,1,15.118,3.14,19.685,19.685,0,0,1,9.275,9.567v-11.1h8.545v31.258H231.62a23.828,23.828,0,0,0-1.935-9.531,24.689,24.689,0,0,0-5.222-7.778,23.71,23.71,0,0,0-7.778-5.149,24.45,24.45,0,0,0-9.458-1.862q-7.742,0-12.817,3.652a26.7,26.7,0,0,0-8.143,9.567,45.631,45.631,0,0,0-4.346,13.146,82.238,82.238,0,0,0,0,28.885,44.19,44.19,0,0,0,4.346,13.073,27.3,27.3,0,0,0,8.143,9.494q5.076,3.688,12.817,3.688,17.82,0,24.831-21.545Zm87.2-22.567a80.39,80.39,0,0,1-2.008,18.222,45.016,45.016,0,0,1-6.427,15.191,32.05,32.05,0,0,1-11.393,10.334q-6.975,3.8-16.834,3.8H260.319V119.864h30.966a33.633,33.633,0,0,1,16.688,3.907,32.912,32.912,0,0,1,11.393,10.48,46.556,46.556,0,0,1,6.5,15.191A77.232,77.232,0,0,1,327.948,167.628Zm-10.006,0q0-18.7-7.048-28.958a22.482,22.482,0,0,0-19.61-10.261H270.325v78.219h20.961q12.562,0,19.61-10.152T317.943,167.628Zm87.93,47.545h-60.91V119.864h60.91v8.545h-50.9v34.107h37.539v8.545H354.968v35.567h50.9Zm84.643-86.764h-50.9v34.107H477.15v8.545H439.611v44.112H429.605V119.864h60.91Zm91.947,39.365a83.481,83.481,0,0,1-2.008,18.551,47.825,47.825,0,0,1-6.427,15.629A33.493,33.493,0,0,1,562.633,212.8q-6.975,4.053-16.834,4.053-10.006,0-16.944-4.126A34.291,34.291,0,0,1,517.5,201.808a46.68,46.68,0,0,1-6.354-15.7,89.172,89.172,0,0,1,0-36.955,47.493,47.493,0,0,1,6.354-15.775,34.036,34.036,0,0,1,11.357-10.992q6.938-4.126,16.944-4.126a33.494,33.494,0,0,1,15.118,3.14,19.685,19.685,0,0,1,9.275,9.567v-11.1h8.545v31.258h-8.545a24.191,24.191,0,0,0-1.935-9.677,23.824,23.824,0,0,0-5.222-7.705A24.812,24.812,0,0,0,545.8,126.8q-7.742,0-12.817,3.652a26.7,26.7,0,0,0-8.143,9.567,45.629,45.629,0,0,0-4.346,13.146,82.239,82.239,0,0,0,0,28.885,44.188,44.188,0,0,0,4.346,13.073,27.3,27.3,0,0,0,8.143,9.494q5.076,3.688,12.817,3.688,11.539,0,18.185-8.91t7.888-25.051H550.765V165.8h31.7Zm77.34,47.4H649.723V171.061H608.9v44.112H598.892V119.864H608.9v42.652h40.826V119.864H659.8Zm74.565,0H693.54v-8.545h15.41V128.409H693.54v-8.545h40.826v8.545H719.029v78.219h15.337ZM829.088,178.8q0,18.112-7.705,28.081t-23.553,9.969q-12.708,0-21.326-6.683T764.453,190.2l8.691-3.287q3.14,11.831,9.348,16.615t15.337,4.784q6.719,0,10.919-2.7a18.357,18.357,0,0,0,6.427-6.9,29.532,29.532,0,0,0,3.031-9.421,68.824,68.824,0,0,0,.8-10.48V119.864h10.079Zm87.784,36.371H904.6l-31.7-46.669-10.079,11.247v35.421H852.821V119.864h10.006v46.376l40.826-46.376h13.219l-37.393,41.629Zm81.5,0h-60.91V119.864H947.47v86.764h50.9Zm84.643,0h-10.079V135.786l-16.871,49.152h-7.157l-16.8-49.152v79.388h-10.006V119.864h13l17.382,49.809,17.528-49.809h13Zm84.643,0h-12.416l-38.489-80.629v80.629H1106.75V119.864h14.1l36.736,76.9v-76.9h10.079Zm90.778-47.545a85.273,85.273,0,0,1-1.972,18.478,48.691,48.691,0,0,1-6.281,15.7,33.174,33.174,0,0,1-11.284,10.919q-6.975,4.126-16.98,4.126t-16.98-4.126a33.5,33.5,0,0,1-11.32-10.919,47.618,47.618,0,0,1-6.281-15.7,89.176,89.176,0,0,1,0-36.955,47.494,47.494,0,0,1,6.354-15.775,33.922,33.922,0,0,1,11.393-10.992q6.975-4.126,16.834-4.126t16.834,4.126a32.941,32.941,0,0,1,11.284,10.992,50.8,50.8,0,0,1,6.354,15.775A82.343,82.343,0,0,1,1258.439,167.628Zm-10.079,0a73.893,73.893,0,0,0-1.789-16.98,42.338,42.338,0,0,0-5.149-12.89,23.642,23.642,0,0,0-8.289-8.143,22.222,22.222,0,0,0-11.211-2.812q-7.815,0-12.891,3.652a26.7,26.7,0,0,0-8.143,9.567,44.124,44.124,0,0,0-4.272,13.146,87.154,87.154,0,0,0,0,28.885,42.772,42.772,0,0,0,4.272,13.073,27.3,27.3,0,0,0,8.143,9.494q5.076,3.688,12.891,3.688,7.742,0,12.854-3.688a27.148,27.148,0,0,0,8.18-9.494,42.09,42.09,0,0,0,4.236-13.073A90.726,90.726,0,0,0,1248.36,167.628Zm92.02-20.522q0,13.8-8.618,20.522t-24.174,6.719h-21.545v40.826h-10.006V119.864h31.4q15.7,0,24.32,6.829T1340.38,147.106Zm-10.006,0q0-9.86-6.208-14.278t-16.579-4.419h-21.545V165.8h21.545q10.371,0,16.579-4.419T1330.374,147.106Zm97.351,20.522a87.91,87.91,0,0,1-1.716,17.565,49.841,49.841,0,0,1-5.551,15.081,34.284,34.284,0,0,1-9.969,10.992,30.444,30.444,0,0,1-14.826,5.222q1.68,9.787,6.756,13.511t14.935,3.725q2.556,0,4.345-.073t3.469-.219v8.545q-2.118.146-4.053.219t-3.761.073q-14.9,0-22.458-6.354t-9.239-19.573a30.277,30.277,0,0,1-13.949-5.222,33.519,33.519,0,0,1-9.677-10.7,50.57,50.57,0,0,1-5.551-14.935,85.915,85.915,0,0,1-1.789-17.857,86.815,86.815,0,0,1,1.935-18.478,47.5,47.5,0,0,1,6.354-15.775,33.921,33.921,0,0,1,11.393-10.992q6.975-4.126,16.834-4.126t16.834,4.126a32.941,32.941,0,0,1,11.284,10.992,50.805,50.805,0,0,1,6.354,15.775A82.343,82.343,0,0,1,1427.725,167.628Zm-10.079,0a85.294,85.294,0,0,0-1.242-14.461,46.271,46.271,0,0,0-4.236-13.146,25.646,25.646,0,0,0-8.18-9.567,21.641,21.641,0,0,0-12.781-3.652q-7.815,0-12.89,3.652a26.7,26.7,0,0,0-8.143,9.567,44.121,44.121,0,0,0-4.272,13.146,87.821,87.821,0,0,0-1.205,14.461q0,18.989,6.9,29.834t19.609,10.846q12.562,0,19.5-10.846T1417.646,167.628Zm93.042,47.545H1497.98l-27.826-40.826h-14.826v40.826h-10.006V119.864h31.4q15.7,0,24.32,6.829t8.618,20.413a26.337,26.337,0,0,1-2.118,10.772,24.256,24.256,0,0,1-5.77,8.143,28.429,28.429,0,0,1-8.728,5.4,36.574,36.574,0,0,1-11.065,2.483Zm-11.393-68.067q0-9.713-6.025-14.205t-16.542-4.492h-21.4V165.8h21.4q10.517,0,16.542-4.419T1499.295,147.106Zm92.75,43.236a23.475,23.475,0,0,1-2.483,10.846,26.734,26.734,0,0,1-6.646,8.362,30.286,30.286,0,0,1-9.567,5.4,33.683,33.683,0,0,1-11.247,1.9,35.833,35.833,0,0,1-14.753-2.994,24.684,24.684,0,0,1-10.663-8.837v10.152h-8.472V186.179h8.472a18.034,18.034,0,0,0,2.264,8.947,24.62,24.62,0,0,0,5.77,6.975,26.5,26.5,0,0,0,8.07,4.565,27.3,27.3,0,0,0,9.312,1.643,24.351,24.351,0,0,0,7.815-1.205,19.6,19.6,0,0,0,6.281-3.433,16.148,16.148,0,0,0,4.273-5.441,16.423,16.423,0,0,0,1.57-7.3,14.839,14.839,0,0,0-2.008-7.888,18.543,18.543,0,0,0-5.4-5.624,37.019,37.019,0,0,0-7.632-3.98q-4.236-1.643-8.618-3.25-5.185-1.826-10.371-3.834a38.582,38.582,0,0,1-9.275-5.076,24.77,24.77,0,0,1-6.646-7.486,21.661,21.661,0,0,1-2.556-10.992,21.426,21.426,0,0,1,2.483-10.407,24.563,24.563,0,0,1,6.5-7.705,28.77,28.77,0,0,1,9.348-4.784,36.983,36.983,0,0,1,10.955-1.643,29,29,0,0,1,12.817,2.848,20.655,20.655,0,0,1,9.166,8.691v-9.933h8.837v27.242H1580.8a18.546,18.546,0,0,0-1.789-8.07,19.523,19.523,0,0,0-4.857-6.427,24.292,24.292,0,0,0-7.011-4.236,22.3,22.3,0,0,0-8.326-1.57,30.312,30.312,0,0,0-7.376.876,17.3,17.3,0,0,0-6.135,2.812,14.052,14.052,0,0,0-4.2,5,15.846,15.846,0,0,0-1.57,7.3,10.708,10.708,0,0,0,1.862,6.354,17.715,17.715,0,0,0,5,4.638,43.022,43.022,0,0,0,7.267,3.652q4.126,1.643,8.435,3.323,5.4,1.9,10.736,4.236a44.981,44.981,0,0,1,9.567,5.624,26.741,26.741,0,0,1,6.938,8.07A23.355,23.355,0,0,1,1592.045,190.342Zm87.053-38.27h-8.545V128.409H1650.1v78.219h15.337v8.545h-40.826v-8.545h15.41V128.409h-20.449v23.663h-8.545V119.864H1679.1Zm81.064,29.14a55.878,55.878,0,0,1-1.789,14.68,30.093,30.093,0,0,1-5.551,11.211,25.185,25.185,0,0,1-9.531,7.194,37.86,37.86,0,0,1-27.351,0,24.621,24.621,0,0,1-9.421-7.194,30.707,30.707,0,0,1-5.478-11.284,56.712,56.712,0,0,1-1.789-14.753v-61.2h10.006v61.348a58.208,58.208,0,0,0,.767,9.129,25.948,25.948,0,0,0,2.994,8.764,19.044,19.044,0,0,0,6.208,6.573q3.981,2.629,10.407,2.629t10.48-2.629a18.822,18.822,0,0,0,6.281-6.573,25.384,25.384,0,0,0,2.958-8.764,61.061,61.061,0,0,0,.73-9.129V119.864h10.079Zm92.823-61.348-31.843,95.309h-13.584l-31.551-95.309h10.59l27.826,85.157,27.68-85.157Zm84.643,0-17.163,95.309h-11.832l-9.714-46.522-9.859,46.522h-11.685l-17.017-95.309h10.59l13.438,78.438,9.568-51.2h9.859l9.641,51.2,13.438-78.438Zm81.649,95.309h-27.022v-8.545h6.427L1983.71,175.37l-15.118,31.258h6.427v8.545h-27.1v-8.545h9.275l20.669-39.438-20.3-38.781H1949.6v-8.545h27.242v8.545h-7.961l14.826,30.528,14.388-30.528h-7.669v-8.545h27.242v8.545h-8.253l-19.865,38.781L2010,206.628h9.275Zm84.5-86.764h-7.741l-22.714,45.646v32.573h15.337v8.545h-40.826v-8.545h15.41V174.055l-22.714-45.646h-7.741v-8.545h26.876v8.545h-7.888l16.579,35.933,16.433-35.933H2076.9v-8.545h26.876Zm79.9,86.764h-61.2v-8.545l47.91-78.219h-39.365V151.78h-8.545V119.864h59.669v8.545l-47.4,78.219h40.388V182.892h8.545ZM10.406,343.089a74.5,74.5,0,0,0,2.556,19.865l44.624-47.107a27.539,27.539,0,0,0-8.654-10.079,20.829,20.829,0,0,0-12.014-3.506q-12.854,0-19.683,10.919T10.406,343.089ZM16.4,371.061q7.23,12.854,20.522,12.854,12.562,0,19.5-10.919t6.938-29.907a72.17,72.17,0,0,0-.657-9.969,72.965,72.965,0,0,0-1.826-9.02ZM.4,343.089a82.349,82.349,0,0,1,2.045-18.478A50.8,50.8,0,0,1,8.8,308.836a32.94,32.94,0,0,1,11.284-10.992q6.975-4.126,16.834-4.126t16.834,4.126a33.59,33.59,0,0,1,11.357,10.992,48.545,48.545,0,0,1,6.354,15.775,85.271,85.271,0,0,1,1.972,18.478,85.271,85.271,0,0,1-1.972,18.478,48.688,48.688,0,0,1-6.281,15.7A33.173,33.173,0,0,1,53.9,388.187q-6.975,4.126-16.98,4.126t-16.98-4.126a33.5,33.5,0,0,1-11.32-10.919,47.616,47.616,0,0,1-6.281-15.7A86.816,86.816,0,0,1,.4,343.089Zm141.463,47.545H101.038v-8.545h15.41V317.016a27.26,27.26,0,0,1-4.163,6.39,37.385,37.385,0,0,1-6.719,6.208,40.559,40.559,0,0,1-8.508,4.711,25.114,25.114,0,0,1-9.6,1.9V325.853a20.2,20.2,0,0,0,9.567-2.775,40.869,40.869,0,0,0,9.421-7.084,39.564,39.564,0,0,0,7.157-9.786,23.429,23.429,0,0,0,2.848-10.882h10.079v86.764h15.337Zm94.722-70.624a32.962,32.962,0,0,1-.694,7.084,23.513,23.513,0,0,1-2.483,6.354,47.242,47.242,0,0,1-4.711,6.792q-2.921,3.579-7.376,8.18l-33.23,33.669h40.242v-18.7h8.545v27.242H174.946V381.8l37.1-37.685q2.848-2.848,5.441-5.7a58,58,0,0,0,4.638-5.77,26.941,26.941,0,0,0,3.213-6.062,18.7,18.7,0,0,0,1.169-6.573q0-8.764-5.806-13.256a22.75,22.75,0,0,0-14.351-4.492q-11.978,0-18.112,6.646T182.1,328.117h-9.275q0-16.14,8.618-25.27t24.9-9.129a36.824,36.824,0,0,1,11.576,1.789,30.557,30.557,0,0,1,9.64,5.149,24.125,24.125,0,0,1,6.61,8.216A24.735,24.735,0,0,1,236.586,320.01Zm87.345,44.331a25.346,25.346,0,0,1-2.556,11.43,27.568,27.568,0,0,1-6.829,8.8,31.891,31.891,0,0,1-9.86,5.7,33.834,33.834,0,0,1-11.722,2.045,42.2,42.2,0,0,1-12.89-1.9,32.437,32.437,0,0,1-10.517-5.551,27.928,27.928,0,0,1-7.413-9.2,33.543,33.543,0,0,1-3.433-12.708l9.714-1.315q.876,11.028,7.669,16.579t16.871,5.551a22.9,22.9,0,0,0,8.107-1.424,20.081,20.081,0,0,0,6.646-4.053,19.585,19.585,0,0,0,4.492-6.135,18.187,18.187,0,0,0,1.643-7.815,21.154,21.154,0,0,0-1.862-9.531,13.8,13.8,0,0,0-5.368-5.77,23.229,23.229,0,0,0-8.654-2.812,86.014,86.014,0,0,0-11.941-.73v-8.545a53.8,53.8,0,0,0,9.6-.84,28.4,28.4,0,0,0,8.289-2.775,16.633,16.633,0,0,0,5.916-5.149,13.872,13.872,0,0,0,2.264-8.18q0-8.034-5.331-12.89t-13.8-4.857q-10.663,0-17.09,5.587t-6.427,17.565h-9.421a35.155,35.155,0,0,1,2.41-13.365,27.946,27.946,0,0,1,6.719-9.969,29.179,29.179,0,0,1,10.371-6.208,39.9,39.9,0,0,1,13.438-2.154,35.482,35.482,0,0,1,11.43,1.789,28.226,28.226,0,0,1,9.275,5.149,23.328,23.328,0,0,1,6.208,8.216,26.446,26.446,0,0,1,2.228,11.138,19.328,19.328,0,0,1-4.857,13.475q-4.857,5.368-13.84,6.756a25.1,25.1,0,0,1,8.91,2.885,20.96,20.96,0,0,1,6.354,5.478,25.05,25.05,0,0,1,3.907,7.34A26.167,26.167,0,0,1,323.931,364.342Zm85.52,26.292H368.625v-8.545h15.41v-18.7H341.384V354.7l39.949-59.376h12.708V354.7h15.41v8.691h-15.41v18.7h15.41ZM384.035,354.7V307.156L351.973,354.7Zm110.5,3.944a33.016,33.016,0,0,1-2.629,13.146,33.791,33.791,0,0,1-7.194,10.7,33.011,33.011,0,0,1-10.992,7.194,36.684,36.684,0,0,1-14.022,2.629,38.22,38.22,0,0,1-12.708-2.045,31.563,31.563,0,0,1-10.261-5.843,28.743,28.743,0,0,1-7.121-9.348,35.376,35.376,0,0,1-3.286-12.708l9.713-1.534a28.817,28.817,0,0,0,2.337,9.239,23.176,23.176,0,0,0,4.966,7.267,22.516,22.516,0,0,0,7.23,4.711,23.724,23.724,0,0,0,9.129,1.716,26.446,26.446,0,0,0,10.407-1.935,22.342,22.342,0,0,0,7.778-5.4,24.253,24.253,0,0,0,4.93-8.034,27.474,27.474,0,0,0,1.716-9.75A28.712,28.712,0,0,0,482.81,348.6a23.5,23.5,0,0,0-4.857-8,22.307,22.307,0,0,0-7.705-5.295,25.659,25.659,0,0,0-10.115-1.935,26.733,26.733,0,0,0-11.211,2.447,26.407,26.407,0,0,0-9.312,7.121H429.605V295.325h59.669v8.545H439.611v29.8a31.46,31.46,0,0,1,9.969-6.536,29.763,29.763,0,0,1,11.43-2.3,37.149,37.149,0,0,1,13.511,2.374,30.975,30.975,0,0,1,10.59,6.719,30.049,30.049,0,0,1,6.938,10.626A38.059,38.059,0,0,1,494.532,358.645Zm86.1-.438a36.833,36.833,0,0,1-2.593,14.169,30.8,30.8,0,0,1-7.23,10.7,32.376,32.376,0,0,1-10.992,6.829,38.4,38.4,0,0,1-13.73,2.41q-10.152,0-17.017-4.126a32.521,32.521,0,0,1-11.065-10.919,48.446,48.446,0,0,1-6.062-15.7,90.092,90.092,0,0,1-1.862-18.478,68.115,68.115,0,0,1,2.52-18.624,49.288,49.288,0,0,1,7.559-15.812,36.76,36.76,0,0,1,12.6-10.919,37.208,37.208,0,0,1,17.711-4.017q14.169,0,23.59,9.86l-6.573,5.843q-6.573-7.157-17.017-7.157a30.063,30.063,0,0,0-13.548,2.921,27.128,27.128,0,0,0-9.786,8.143A36.074,36.074,0,0,0,521.3,325.89a63.073,63.073,0,0,0-1.935,16.1,17.925,17.925,0,0,1,3.871-7.011,29.926,29.926,0,0,1,6.573-5.66,35.546,35.546,0,0,1,8.07-3.8A27.875,27.875,0,0,1,546.6,324.1a36.547,36.547,0,0,1,13.73,2.52A31.058,31.058,0,0,1,578.116,344.4,36.749,36.749,0,0,1,580.636,358.207Zm-10.006,0a30.5,30.5,0,0,0-1.643-10.115,23.854,23.854,0,0,0-4.711-8.143,21.656,21.656,0,0,0-7.559-5.4,24.914,24.914,0,0,0-10.115-1.972,27.579,27.579,0,0,0-10.188,1.826,22.467,22.467,0,0,0-13,12.89,26.718,26.718,0,0,0-1.789,9.969,34.706,34.706,0,0,0,1.461,10.188,23.729,23.729,0,0,0,4.528,8.435,21.785,21.785,0,0,0,7.632,5.77,25.576,25.576,0,0,0,10.846,2.118,26.512,26.512,0,0,0,9.9-1.789,22.791,22.791,0,0,0,7.778-5.076,22.207,22.207,0,0,0,5.076-8.107A30.214,30.214,0,0,0,570.63,358.207ZM662.5,304.162A106.813,106.813,0,0,0,648.116,323.3a87.681,87.681,0,0,0-8.326,19.683,117.389,117.389,0,0,0-3.944,21.91q-1.022,11.649-1.169,25.744H624.161q.146-13.292,1.424-25.051a124.8,124.8,0,0,1,4.492-22.458,97.6,97.6,0,0,1,8.764-20.413,102.713,102.713,0,0,1,14.023-18.843H607.437v18.7h-8.545V295.325H662.5Zm86.25,59.669a27.928,27.928,0,0,1-2.7,12.817,24.958,24.958,0,0,1-7.413,8.8,32.029,32.029,0,0,1-11.065,5.185,55.471,55.471,0,0,1-27.1,0,32.085,32.085,0,0,1-10.992-5.185,24.956,24.956,0,0,1-7.413-8.8,27.928,27.928,0,0,1-2.7-12.817,22.893,22.893,0,0,1,1.424-7.815,26.292,26.292,0,0,1,4.09-7.34,22.614,22.614,0,0,1,6.5-5.624,22.166,22.166,0,0,1,8.435-2.812,15.166,15.166,0,0,1-7.157-2.629,22.529,22.529,0,0,1-5.295-5.112,24.091,24.091,0,0,1-3.36-6.354,19.828,19.828,0,0,1-1.205-6.573,23.213,23.213,0,0,1,9.421-19.354,30.874,30.874,0,0,1,10.006-4.857,43.415,43.415,0,0,1,23.663,0,30.873,30.873,0,0,1,10.006,4.857,23.213,23.213,0,0,1,9.421,19.354,19.827,19.827,0,0,1-1.205,6.573,24.086,24.086,0,0,1-3.36,6.354,21.971,21.971,0,0,1-5.368,5.112,15.72,15.72,0,0,1-7.3,2.629,21.926,21.926,0,0,1,8.472,2.812,23.279,23.279,0,0,1,6.5,5.624,27.29,27.29,0,0,1,4.2,7.34A21.9,21.9,0,0,1,748.754,363.831Zm-13.438-44.258q0-8.034-5.7-12.671t-15.556-4.638q-9.86,0-15.556,4.638t-5.7,12.671a14.72,14.72,0,0,0,5.4,11.977q5.4,4.455,15.848,4.455t15.848-4.455A14.72,14.72,0,0,0,735.316,319.572Zm3.433,44.258a18.309,18.309,0,0,0-2.008-8.874,16.6,16.6,0,0,0-5.478-5.989,24.476,24.476,0,0,0-7.851-3.36,41.792,41.792,0,0,0-18.7,0,24.477,24.477,0,0,0-7.851,3.36,16.6,16.6,0,0,0-5.478,5.989,20.526,20.526,0,0,0,0,17.711,18.12,18.12,0,0,0,5.478,6.208,24.54,24.54,0,0,0,7.851,3.688,36.864,36.864,0,0,0,18.7,0,24.539,24.539,0,0,0,7.851-3.688,18.119,18.119,0,0,0,5.478-6.208A18.36,18.36,0,0,0,738.748,363.831Zm24.171-36.006a36.583,36.583,0,0,1,2.629-14.242,31.22,31.22,0,0,1,7.267-10.7,31.92,31.92,0,0,1,10.992-6.792,38.926,38.926,0,0,1,13.73-2.374q10.006,0,16.944,4.126a32.094,32.094,0,0,1,11.138,10.992,49.326,49.326,0,0,1,6.062,15.7,89.038,89.038,0,0,1,1.862,18.4,67.206,67.206,0,0,1-2.556,18.624,49.874,49.874,0,0,1-7.559,15.775,36.1,36.1,0,0,1-30.272,14.972,31.161,31.161,0,0,1-23.59-9.933l6.573-5.843a20.874,20.874,0,0,0,7.632,5.441,24.406,24.406,0,0,0,9.385,1.789,29.6,29.6,0,0,0,13.475-2.921,27.968,27.968,0,0,0,9.787-8.143,35.32,35.32,0,0,0,5.916-12.562,63.382,63.382,0,0,0,1.935-16.177,20.223,20.223,0,0,1-3.944,7.011,29.227,29.227,0,0,1-6.5,5.7,34.252,34.252,0,0,1-8.143,3.834,28.117,28.117,0,0,1-8.654,1.424,36.084,36.084,0,0,1-13.73-2.556,31.46,31.46,0,0,1-17.82-17.82A36.086,36.086,0,0,1,762.919,327.825Zm10.079,0a30.5,30.5,0,0,0,1.643,10.115,23.853,23.853,0,0,0,4.711,8.143,21.264,21.264,0,0,0,7.559,5.368,25.322,25.322,0,0,0,10.115,1.935,28.079,28.079,0,0,0,10.188-1.789,23.037,23.037,0,0,0,7.924-5,21.893,21.893,0,0,0,5.076-7.778A27.5,27.5,0,0,0,822,328.7a33.921,33.921,0,0,0-1.5-10.188,24.521,24.521,0,0,0-4.528-8.435,21.064,21.064,0,0,0-7.6-5.733,25.965,25.965,0,0,0-10.845-2.081,26.511,26.511,0,0,0-9.9,1.789,22.791,22.791,0,0,0-7.778,5.076,22.258,22.258,0,0,0-5.076,8.07A30.131,30.131,0,0,0,773,327.825Zm116.924-32.5L886.2,363.831h-5.989l-3.725-68.506Zm.146,95.309H876.484V377.05h13.584Zm84.643,0H961.127V377.05h13.584Zm25.562-74.64a22.512,22.512,0,0,1-2.081,9.969,35.271,35.271,0,0,1-5.222,7.851,64,64,0,0,1-6.865,6.719,79.761,79.761,0,0,0-6.865,6.5,34.324,34.324,0,0,0-5.258,7.34,18.9,18.9,0,0,0-2.118,9.02h-10.59a23.031,23.031,0,0,1,2.154-10.152,43.641,43.641,0,0,1,5.295-8.362,61.876,61.876,0,0,1,6.975-7.34q3.834-3.433,6.975-6.792a40.891,40.891,0,0,0,5.295-6.975,14.932,14.932,0,0,0,2.155-7.778q0-6.427-3.944-10.079t-11.466-3.652a20.226,20.226,0,0,0-8.07,1.5,17.353,17.353,0,0,0-5.843,4.017A19.24,19.24,0,0,0,957,313.8a28.182,28.182,0,0,0-1.862,7.742l-8.983-1.388q1.315-12.27,8.435-19.354t19.975-7.084q12.124,0,18.916,6.208A20.768,20.768,0,0,1,1000.273,315.994Zm18.255,11.978h12.124a69.684,69.684,0,0,1,3.214-13.365,39.815,39.815,0,0,1,5.7-10.846,26.144,26.144,0,0,1,8.508-7.34,25.836,25.836,0,0,1,28.556,3.725q6.829,6.427,10.553,20.157l-8.837,2.264a33.719,33.719,0,0,0-6.865-14.643q-4.82-5.66-11.539-5.66-7.3,0-12.306,6.427t-6.975,19.281h18.7v8.253h-19.573q-.146,1.607-.146,3.323v6.938q0,1.643.146,3.323h19.573v8.253h-18.7q1.826,13,6.9,19.354t12.379,6.354q6.719,0,11.539-5.77a34.58,34.58,0,0,0,6.865-14.753l8.837,2.41q-3.725,13.73-10.553,20.194a25.768,25.768,0,0,1-28.556,3.761,26.509,26.509,0,0,1-8.508-7.267,39.851,39.851,0,0,1-5.77-10.846,67.81,67.81,0,0,1-3.286-13.438h-11.978v-8.253h11.247q-.146-1.68-.146-3.4V339.62q0-1.789.146-3.4h-11.247Zm154.463,21.4A59.353,59.353,0,0,1,1168.756,362a64.821,64.821,0,0,1-7.23,12.051l11.466,10.736-6.865,7.815-11.466-11.247a49.077,49.077,0,0,1-11.978,7.888,33.257,33.257,0,0,1-14.242,3.067,27.08,27.08,0,0,1-10.48-2.045,27.426,27.426,0,0,1-8.581-5.551,27.144,27.144,0,0,1-5.843-8.216,24.029,24.029,0,0,1-2.191-10.261,33.84,33.84,0,0,1,.986-8.435,28.715,28.715,0,0,1,2.7-6.9,27.091,27.091,0,0,1,4.053-5.514,47.346,47.346,0,0,1,5.039-4.565,52.666,52.666,0,0,1-7.011-11.284,27.555,27.555,0,0,1-2.483-11.284q0-11.247,6.536-17.893t17.419-6.646a28.394,28.394,0,0,1,9.312,1.5,22.773,22.773,0,0,1,7.559,4.272,19.3,19.3,0,0,1,5,6.719,21.707,21.707,0,0,1,1.789,9.056,19.5,19.5,0,0,1-2.264,9.714,27.635,27.635,0,0,1-5.7,7.084,45.49,45.49,0,0,1-7.778,5.551q-4.346,2.483-8.508,5.185l26.292,24.685a50.383,50.383,0,0,0,5.733-10.115,63.162,63.162,0,0,0,3.4-10.407Zm-44.551,33.3a26.241,26.241,0,0,0,10.626-2.154,31.358,31.358,0,0,0,8.8-5.733l-25.124-24.539-2.191-2.118a26.655,26.655,0,0,0-6.1,7.559,22.039,22.039,0,0,0-2.3,10.553,16.18,16.18,0,0,0,4.565,11.722A15.608,15.608,0,0,0,1128.441,382.673ZM1115,318.258a27.906,27.906,0,0,0,1.278,7.778,31.811,31.811,0,0,0,5.441,9.823q3.725-2.191,7.413-4.309a44.083,44.083,0,0,0,6.5-4.492,20.556,20.556,0,0,0,4.528-5.295,13.159,13.159,0,0,0,1.716-6.792,11.261,11.261,0,0,0-3.8-8.983,13.992,13.992,0,0,0-9.494-3.286,12.333,12.333,0,0,0-5.66,1.278,13.859,13.859,0,0,0-4.345,3.433,14.016,14.016,0,0,0-2.7,5A19.758,19.758,0,0,0,1115,318.258Zm107.941-5.989a18.172,18.172,0,0,1-5.368,12.927,19.737,19.737,0,0,1-5.879,3.98,17.384,17.384,0,0,1-7.157,1.5,17.211,17.211,0,0,1-7.084-1.5,19.265,19.265,0,0,1-5.843-3.98,17.75,17.75,0,0,1-3.871-5.843,18.373,18.373,0,0,1-1.388-7.084,19.2,19.2,0,0,1,1.388-7.194,17.1,17.1,0,0,1,3.871-5.916,19.608,19.608,0,0,1,5.843-3.944,17.211,17.211,0,0,1,7.084-1.5,17.384,17.384,0,0,1,7.157,1.5,20.1,20.1,0,0,1,5.879,3.944,17.273,17.273,0,0,1,3.944,5.916A18.767,18.767,0,0,1,1222.944,312.269Zm32.938-14.534-61.056,94.871-6.865-4.382,61.2-95.09ZM1258,373.909a17.058,17.058,0,0,1-1.5,7.157,20.535,20.535,0,0,1-3.98,5.843,17.482,17.482,0,0,1-5.916,3.98,18.5,18.5,0,0,1-7.157,1.424,18.147,18.147,0,0,1-7.157-1.424,17.81,17.81,0,0,1-5.806-3.907,19.608,19.608,0,0,1-3.944-5.843,17.558,17.558,0,0,1-1.5-7.23,17.383,17.383,0,0,1,1.5-7.157,19.131,19.131,0,0,1,3.944-5.806,18.455,18.455,0,0,1,20.048-3.871,19.449,19.449,0,0,1,5.916,3.871,18.2,18.2,0,0,1,4.053,5.806A17.383,17.383,0,0,1,1258,373.909Zm-42.506-61.64a10.852,10.852,0,0,0-3.141-7.888,11.02,11.02,0,0,0-15.556,0,11.384,11.384,0,0,0,0,15.7,11.02,11.02,0,0,0,15.556,0A10.764,10.764,0,0,0,1215.495,312.269Zm34.983,61.64a10.484,10.484,0,0,0-3.214-7.815,10.764,10.764,0,0,0-7.815-3.14,10.73,10.73,0,0,0-10.955,10.955,10.764,10.764,0,0,0,3.14,7.815,10.484,10.484,0,0,0,7.815,3.214,10.972,10.972,0,0,0,11.028-11.028Zm92.6-33.23a64.846,64.846,0,0,1-.8,10.079A33.31,33.31,0,0,1,1339.5,360a18.96,18.96,0,0,1-5.258,6.756,12.679,12.679,0,0,1-8.18,2.629,11.683,11.683,0,0,1-4.09-.73,10.75,10.75,0,0,1-5.952-5.368,9.416,9.416,0,0,1-.913-4.2v-2.045a20.471,20.471,0,0,1-5.039,8.91,10.923,10.923,0,0,1-7.961,3.433,14.3,14.3,0,0,1-8.034-2.118,15.7,15.7,0,0,1-5.149-5.624,25.837,25.837,0,0,1-2.739-7.961,51.349,51.349,0,0,1-.8-9.129,42.162,42.162,0,0,1,1.242-10.334,28.084,28.084,0,0,1,3.725-8.691,19.3,19.3,0,0,1,6.171-5.989,16.274,16.274,0,0,1,8.582-2.227,13.219,13.219,0,0,1,5.4,1.278,10.541,10.541,0,0,1,4.6,3.98V318.7h9.567v38.343a5.146,5.146,0,0,0,.876,3.36,3.181,3.181,0,0,0,2.556,1.022,4.273,4.273,0,0,0,3.506-1.972,15.653,15.653,0,0,0,2.337-5,39.73,39.73,0,0,0,1.278-6.683,64.8,64.8,0,0,0,.4-7.084,81.455,81.455,0,0,0-.621-10.042,52.9,52.9,0,0,0-2.045-9.494,40.212,40.212,0,0,0-3.688-8.326,26.587,26.587,0,0,0-5.514-6.646,24.064,24.064,0,0,0-7.522-4.382,27.92,27.92,0,0,0-9.677-1.57q-8.253,0-13.8,3.506a26.6,26.6,0,0,0-8.947,9.421,43.385,43.385,0,0,0-4.857,13.657,87.731,87.731,0,0,0-1.461,16.286,86.325,86.325,0,0,0,1.461,16.1,43.383,43.383,0,0,0,4.857,13.621,26.486,26.486,0,0,0,8.983,9.421,25.42,25.42,0,0,0,13.767,3.506,26.082,26.082,0,0,0,10.736-2.118,31.569,31.569,0,0,0,8.618-5.7l4.309,4.966q-9.348,9.421-23.663,9.421a36.083,36.083,0,0,1-12.014-1.862,30.207,30.207,0,0,1-9.348-5.222,33.071,33.071,0,0,1-6.938-7.961,46.671,46.671,0,0,1-4.711-10.079,64.184,64.184,0,0,1-2.666-11.612,91.971,91.971,0,0,1-.84-12.489,90.038,90.038,0,0,1,.876-12.671,66.2,66.2,0,0,1,2.7-11.649,46.665,46.665,0,0,1,4.711-10.079,32.072,32.072,0,0,1,6.975-7.924,31.209,31.209,0,0,1,9.348-5.185,35.52,35.52,0,0,1,11.9-1.862q9.86,0,16.834,4.053a33.671,33.671,0,0,1,11.357,10.7,46.3,46.3,0,0,1,6.354,15.045A74.838,74.838,0,0,1,1343.082,340.679Zm-27.972-9.056a11.3,11.3,0,0,0-3.98-5,9.454,9.454,0,0,0-5.076-1.424,7.317,7.317,0,0,0-4.784,1.643,12.581,12.581,0,0,0-3.323,4.382,24.108,24.108,0,0,0-1.935,6.208,39.934,39.934,0,0,0-.621,7.048q0,7.961,2.081,11.978t5.879,4.017a7.958,7.958,0,0,0,4.893-1.643,14.045,14.045,0,0,0,3.725-4.309,22.574,22.574,0,0,0,2.337-5.989,28.041,28.041,0,0,0,.8-6.61Zm41.991,45.354h23.3V392.9a30.63,30.63,0,0,1-1.461,9.531,22.345,22.345,0,0,1-4.382,7.851,21.348,21.348,0,0,1-7.267,5.368,24.075,24.075,0,0,1-10.188,2.008v-8.472q14.826,0,14.826-16.287v-2.264H1357.1Zm40.826,0h23.225V392.9a31.351,31.351,0,0,1-1.424,9.531,21.893,21.893,0,0,1-4.345,7.851,21.348,21.348,0,0,1-7.267,5.368,24.075,24.075,0,0,1-10.188,2.008v-8.472q14.68,0,14.68-16.287v-2.264h-14.68Zm111.885-40.753h-23.371V320.3a29.946,29.946,0,0,1,1.5-9.531,22.812,22.812,0,0,1,4.418-7.851,21.759,21.759,0,0,1,7.267-5.4,23.7,23.7,0,0,1,10.188-2.045v8.545q-14.826,0-14.826,16.287v2.264h14.826Zm-40.826,0h-23.225V320.3a31.351,31.351,0,0,1,1.424-9.531,21.332,21.332,0,0,1,11.612-13.256,23.706,23.706,0,0,1,10.188-2.045v8.545q-14.68,0-14.68,16.287v2.264h14.68Zm125.469,38.2h-16.14v16.141h-8.545V374.42h-18.7v16.141h-8.545V374.42h-16.141v-8.034h16.141V347.106h-16.141v-7.961h16.141V322.494h8.545v16.652h18.7V322.494h8.545v16.652h16.14v7.961h-16.14v19.281h16.14Zm-24.685-8.034V347.106h-18.7v19.281Zm87.492,51.343a80.693,80.693,0,0,1-13.876-13.913,85.1,85.1,0,0,1-10.152-16.615,92.858,92.858,0,0,1-6.281-18.478,87.712,87.712,0,0,1,0-38.964,92.2,92.2,0,0,1,6.281-18.4,85.554,85.554,0,0,1,10.152-16.579,80.693,80.693,0,0,1,13.876-13.913l5.258,6.573A74.608,74.608,0,0,0,1650.14,300a80.616,80.616,0,0,0-14.9,66.862,78.474,78.474,0,0,0,5.7,16.579,86.717,86.717,0,0,0,9.129,15.045,68.173,68.173,0,0,0,12.452,12.671Zm93.042-68.36a86.749,86.749,0,0,1-2.191,19.427,89.079,89.079,0,0,1-6.391,18.4,90.461,90.461,0,0,1-10.225,16.615,79.628,79.628,0,0,1-13.84,13.913l-5.258-6.573a73.927,73.927,0,0,0,12.379-12.6,83.939,83.939,0,0,0,9.275-15.045,77.525,77.525,0,0,0,5.77-16.652,79.916,79.916,0,0,0,1.935-17.492,81.4,81.4,0,0,0-1.935-17.6,77.078,77.078,0,0,0-5.77-16.761A82.8,82.8,0,0,0,1724.778,300a74.607,74.607,0,0,0-12.379-12.562l5.258-6.573a79.628,79.628,0,0,1,13.84,13.913,91,91,0,0,1,10.225,16.579,88.773,88.773,0,0,1,8.581,38.014Zm34.98-19.281a23.531,23.531,0,0,1,2.3-10.334,24.2,24.2,0,0,1,7.559-8.728,23.811,23.811,0,0,1-7.121-7.34,20.806,20.806,0,0,1-2.739-11.138,21.727,21.727,0,0,1,8.582-17.893,29.226,29.226,0,0,1,9.275-4.711,37.865,37.865,0,0,1,11.284-1.643,40.49,40.49,0,0,1,11.284,1.57,32.348,32.348,0,0,1,9.933,4.784,27.625,27.625,0,0,1,7.486,8.07A28.926,28.926,0,0,1,1847,294.3l-9.421,1.534q-1.607-9.641-7.449-14.351t-15.7-4.711a28.212,28.212,0,0,0-6.719.84,19.248,19.248,0,0,0-6.208,2.7,14.344,14.344,0,0,0-4.492,4.857,14.632,14.632,0,0,0-1.716,7.376,10.759,10.759,0,0,0,3.871,8.618,39.192,39.192,0,0,0,9.714,5.843q5.843,2.556,12.562,4.966A70.808,70.808,0,0,1,1834,317.892a33.18,33.18,0,0,1,9.75,8.8q3.907,5.295,3.907,13.694a25.815,25.815,0,0,1-2.045,10.115,24.458,24.458,0,0,1-6.354,8.728,24.888,24.888,0,0,1,6.062,7.632,23.416,23.416,0,0,1,2.337,10.919,24.193,24.193,0,0,1-2.41,10.773,25.051,25.051,0,0,1-6.536,8.362,31.107,31.107,0,0,1-9.567,5.368,33.849,33.849,0,0,1-11.43,1.935,45.686,45.686,0,0,1-12.051-1.57,35.5,35.5,0,0,1-10.553-4.784,31.646,31.646,0,0,1-8.289-8.216,32.968,32.968,0,0,1-5.039-12.014l9.275-2.41q2.118,10.152,8.91,15.337t17.747,5.185a26.111,26.111,0,0,0,7.705-1.132,18.726,18.726,0,0,0,6.354-3.286,15.808,15.808,0,0,0,4.236-5.295,16.3,16.3,0,0,0,1.57-7.376,14.169,14.169,0,0,0-3.871-10.371,32.61,32.61,0,0,0-9.714-6.646,125.05,125.05,0,0,0-12.562-4.966,77.058,77.058,0,0,1-12.562-5.477,31.426,31.426,0,0,1-9.714-8.143Q1785.283,338.123,1785.283,330.089Zm10.006-.146a11.626,11.626,0,0,0,3.433,8.691,30.509,30.509,0,0,0,8.655,5.77,110.218,110.218,0,0,0,11.5,4.492,97.937,97.937,0,0,1,12.124,4.93,19.123,19.123,0,0,0,4.784-5.624,14.03,14.03,0,0,0,1.789-6.938,14.329,14.329,0,0,0-3.068-9.421,26.927,26.927,0,0,0-7.778-6.354,70.093,70.093,0,0,0-10.517-4.711q-5.806-2.081-11.357-4.492a18.106,18.106,0,0,0-7.34,5.989A13.787,13.787,0,0,0,1795.289,329.943Zm137.739,14.022H1864.96v-8.691h68.067Zm0,32.135H1864.96v-8.545h68.067Zm84.643-16.14h-29.8v29.725H1979.4V359.96h-29.8v-8.545h29.8V321.69h8.472v29.725h29.8Zm98.228-37.393a40.2,40.2,0,0,1-3.067,15.52,41.433,41.433,0,0,1-8.435,13,40.733,40.733,0,0,1-12.854,8.947,39.406,39.406,0,0,1-16.323,3.36,41.376,41.376,0,0,1-15.3-2.921,40.415,40.415,0,0,1-22.239-21.143,41.668,41.668,0,0,1-.219-32.61,41.032,41.032,0,0,1,21.764-21.764,41.2,41.2,0,0,1,31.551-.146,40.632,40.632,0,0,1,12.927,8.618,41.752,41.752,0,0,1,8.91,13A39.539,39.539,0,0,1,2115.9,322.567Zm-4.747,0a34.781,34.781,0,0,0-2.775-13.8,37.054,37.054,0,0,0-7.632-11.466,36.109,36.109,0,0,0-11.43-7.851,34.681,34.681,0,0,0-14.1-2.885,36.326,36.326,0,0,0-25.562,10.334,35.031,35.031,0,0,0-7.778,11.466,36.442,36.442,0,0,0,7.669,39.876,35.418,35.418,0,0,0,11.466,7.632,36.315,36.315,0,0,0,14.205,2.775,35.869,35.869,0,0,0,25.379-10.407,36.517,36.517,0,0,0,7.705-11.43A35.429,35.429,0,0,0,2111.151,322.567Zm-13.657,24.539H2083.91L2071.2,329.432h-2.556v17.674H2058.2V297.735h19.573a25.8,25.8,0,0,1,7.157.986,18.114,18.114,0,0,1,6.062,2.994,14.394,14.394,0,0,1,4.126,4.93,15.034,15.034,0,0,1,1.5,6.938,15.826,15.826,0,0,1-3.579,10.261q-3.579,4.419-10.444,5.149Zm-11.174-33.522A7.951,7.951,0,0,0,2084.2,308q-2.118-2.3-6.427-2.3h-9.129v15.7h9.129a8.654,8.654,0,0,0,6.281-2.191A7.483,7.483,0,0,0,2086.32,313.583Zm95.817,38.343q-7.011,10.736-21.983,10.736a28.657,28.657,0,0,1-10.7-1.935,24.017,24.017,0,0,1-13.8-13.84,28.741,28.741,0,0,1-1.935-10.663,28.24,28.24,0,0,1,1.862-10.334,25.5,25.5,0,0,1,5.295-8.4,24.685,24.685,0,0,1,8.289-5.7,27.656,27.656,0,0,1,10.992-2.081q14.972,0,21.983,10.736l-7.742,5.258q-4.017-7.3-14.241-7.3-7.449,0-11.722,5.076a19.111,19.111,0,0,0-4.272,12.744,19.584,19.584,0,0,0,4.126,12.525q4.126,5.222,11.868,5.222,10.225,0,14.241-7.3Zm18.7-15.556a40.015,40.015,0,0,1-3.067,15.447,40.889,40.889,0,0,1-21.435,22.02,39.407,39.407,0,0,1-16.323,3.36,41.377,41.377,0,0,1-15.3-2.921,40.354,40.354,0,0,1-13.109-8.326,41.394,41.394,0,0,1-9.129-12.854,41.672,41.672,0,0,1-.219-32.61,42.124,42.124,0,0,1,8.764-13.11,40.749,40.749,0,0,1,13-8.837,41.028,41.028,0,0,1,31.66-.073,41.5,41.5,0,0,1,13,8.618,40.841,40.841,0,0,1,8.874,13.036A40.31,40.31,0,0,1,2200.833,336.37Zm-4.747,0a34.705,34.705,0,0,0-2.848-13.949,37.424,37.424,0,0,0-7.705-11.5,36.919,36.919,0,0,0-11.43-7.851,34.312,34.312,0,0,0-14.1-2.921,34.886,34.886,0,0,0-14.022,2.848,37.887,37.887,0,0,0-11.539,7.705,35.135,35.135,0,0,0-7.778,11.43,36.215,36.215,0,0,0,47.289,47.472,36.381,36.381,0,0,0,11.5-7.632,35.912,35.912,0,0,0,7.778-11.43A35.246,35.246,0,0,0,2196.086,336.37Z" transform="translate(155.391 9537.995)" fill="#d6d6d6"/>
    <path id="Path_2315" data-name="Path 2315" d="M65.116,47.005V40.381H0v6.624ZM87.808,206.117v-4.087c-8.6-.7-10.43-1.973-14.235-12.826-8.175-22.128-17.2-47.78-25.088-69.344l-4.369,1.128L17.618,188.5c-4.651,11.7-6.342,12.4-14.8,13.531v4.087H31.571v-4.087c-9.866-.846-11.135-1.973-8.175-10.571,1.832-5.356,3.524-10.712,5.5-16.068H57.505l7.188,19.732c1.55,4.933.564,5.92-8.175,6.906v4.087ZM55.532,169.471H31.149c4.087-11.135,8.175-22.692,12.4-34.108h.282Zm86.68-9.3c6.342-1.973,16.49-7.047,16.49-19.168,0-6.061-2.537-11.98-7.188-15.081-3.946-2.819-9.443-4.369-19.168-4.369H99.224V125.5c10.712.846,11.135,1.55,11.135,12.121v52.29c0,10.712-.564,11.416-12.262,12.121v4.087h28.33c10.148,0,18.464-1.55,25.229-5.215,7.893-4.369,12.685-11.135,12.685-19.873,0-13.249-10.007-18.6-22.128-20.719Zm-21.987-1.409V133.671c0-4.369.564-5.638,1.691-6.483,1.268-.7,4.51-1.268,7.893-1.268,13.249,0,18.041,8.034,18.041,16.349,0,10.853-6.342,16.49-20.578,16.49Zm0,4.792h6.906c15.645,0,25.37,5.215,25.37,18.746,0,13.812-9.725,19.027-21.142,19.168-8.739,0-11.135-2.4-11.135-11.7ZM254.263,182.72c-6.765,13.531-13.249,20.155-26.5,20.155-19.591,0-34.531-16.209-34.531-40.592,0-19.591,11.839-37.491,33.827-37.491,14.8,0,21.846,6.061,25.088,19.309l4.087-.987c-.7-7.047-1.55-12.262-2.537-19.732-3.665-.7-12.4-3.524-22.833-3.524-28.612,0-49.753,17.618-49.753,45.243,0,20.437,14.094,42.706,45.666,42.706,9.866,0,20.437-2.678,24.242-3.524,2.255-4.087,5.638-13.812,7.329-20.155Zm15.645-61.17v4.087c10.289.846,11.276,1.268,11.276,12.262v51.867c0,10.994-.987,11.7-12.544,12.4v3.946h30.585c16.068,0,28.471-3.242,38.337-10.712,10.007-7.611,16.068-19.45,16.068-34.813,0-12.4-4.651-21.846-10.994-28.048-8.034-7.752-20.155-10.994-36.786-10.994Zm21.283,13.672c0-4.933.564-6.342,1.691-7.329,1.409-.987,4.933-1.691,10.994-1.691,8.6,0,16.209,1.55,22.128,4.933,10.994,6.2,16.068,17.9,16.068,31.008,0,20.437-11.135,38.9-36.5,38.9-10.007,0-14.376-2.537-14.376-12.4Zm137.279,49.612a36.306,36.306,0,0,1-6.342,12.262c-2.819,3.242-6.624,4.369-16.49,4.369-6.765,0-11.276,0-13.812-1.691-2.4-1.691-3.383-4.651-3.383-10.712v-24.1h12.967c11.416,0,11.98.564,13.813,9.866h4.228V149.88h-4.228c-1.55,8.738-2.114,9.866-13.812,9.866H388.441V130.43c0-3.805.282-4.228,4.228-4.228H403.8c9.3,0,12.685.987,14.235,3.805a33.048,33.048,0,0,1,4.087,11.135l4.228-.423c-.564-7.188-1.128-16.209-1.269-19.168H367.159V125.5c10.43.846,11.416,1.268,11.416,12.685v51.444c0,10.571-.987,11.7-13.108,12.544v3.946h62.861c1.128-3.946,3.805-16.772,4.51-20.719ZM503.169,141c-.564-6.342-1.128-14.235-1.268-19.45H444.819V125.5c10.289.846,11.276,1.409,11.276,12.4v51.726c0,10.994-.987,11.839-11.7,12.4v4.087h35.1v-4.087c-12.262-.7-13.531-1.409-13.531-12.4v-23.4h13.953c11.7,0,12.121,1.268,13.813,10.571h4.228V151.571h-4.228c-1.691,8.457-2.114,9.443-13.812,9.443H465.96V130.289c0-3.665.423-4.087,4.228-4.087h11.135c9.584,0,12.262.987,14.235,4.51,1.691,2.819,2.255,5.074,3.383,10.571Zm97.956,25.793H568.708V170.6c12.826,1.128,13.813,1.832,13.813,11.275v9.866c0,5.779-1.55,7.188-4.51,8.6a25.871,25.871,0,0,1-11.839,2.537c-25.511,0-36.927-21.423-36.927-40.028,0-24.1,14.8-38.055,35.1-38.055,12.121,0,21.846,3.665,25.229,20.014l3.946-.7c-1.128-8.316-1.691-15.786-2.114-20.437-4.228-.987-14.376-3.805-25.37-3.805-24.524,0-48.908,13.953-48.908,44.4,0,25.652,18.886,43.552,47.075,43.552,10.289,0,21-2.819,29.316-4.792a56.169,56.169,0,0,1-.987-12.262V179.76c0-7.47.564-7.893,8.6-9.161ZM701.759,121.55h-33.4V125.5c10.43.846,11.416,1.55,11.416,12.121v20.86H634.106v-20.86c0-10.571,1.128-11.276,11.276-12.121V121.55h-33.4V125.5c11.135.846,12.121,1.409,12.121,12.121v52.431c0,10.853-.987,11.276-11.839,11.98v4.087h33.827v-4.087c-10.853-.7-11.98-1.409-11.98-11.98V164.4h45.666v25.652c0,10.712-1.128,11.276-12.544,11.98v4.087h34.531v-4.087c-10.853-.7-11.98-1.128-11.98-11.98V137.618c0-10.712,1.128-11.276,11.98-12.121Zm46.934,84.566v-4.087c-10.853-.564-12.121-1.128-12.121-12.4V137.9c0-10.994,1.268-11.557,12.121-12.4V121.55H714.726V125.5c10.994.846,11.98,1.409,11.98,12.4v51.726c0,11.135-.987,11.839-11.98,12.4v4.087Zm47.075-84.566H762.506V125.5c10.853.846,11.839,1.691,11.839,12.4v44.115c0,10.994-.141,18.182-1.268,24.383-1.55,7.47-5.5,13.672-12.967,17.336l1.973,4.087a35.426,35.426,0,0,0,11.416-7.329c7.752-7.329,10.853-15.927,10.853-33.686V137.9c0-10.712,1.128-11.557,11.417-12.4Zm93.023,84.566v-4.087c-6.483-.564-9.3-1.691-16.209-8.879-5.779-6.061-20.719-22.551-30.726-34.813,9.161-9.3,18.886-19.027,23.4-23.115,8.175-7.47,10.853-8.738,21.142-9.725V121.55h-31.29V125.5l3.242.423c5.5.7,5.5,1.832,1.832,6.342a285.21,285.21,0,0,1-21.987,22.974c-3.665,3.383-6.061,4.933-9.161,5.638V138.6c0-11.416,1.409-12.262,11.7-13.108V121.55h-33.4V125.5c10.712.846,11.839,1.409,11.839,13.108v50.74c0,11.135-1.128,12.121-11.275,12.685v4.087h33.4v-4.087c-10.994-.564-12.262-1.55-12.262-12.685V164.679c2.4-.564,4.369-.141,7.611,3.524,12.4,14.094,22.551,26.216,33.122,37.914Zm68.217-21.142c-1.973,6.061-4.369,10.007-6.765,12.544-2.96,3.242-7.329,3.946-14.517,3.946-5.638,0-10.289-.282-12.826-1.691-2.4-1.409-3.242-3.946-3.242-10.994V137.9c0-10.994,1.409-11.7,12.121-12.4V121.55H897.953V125.5c10.994.846,11.839,1.55,11.839,12.4v51.726c0,10.994-.987,11.839-11.98,12.4v4.087h58.633c1.268-3.946,4.087-16.49,4.792-20.437Zm121.916,21.142v-4.087c-11.557-.846-11.98-1.55-12.4-15.927l-1.269-45.384c-.423-14.235.564-14.094,12.262-15.222V121.55h-21.987l-30.867,65.821-29.88-65.821h-20.86V125.5c11.98,1.128,12.4,1.409,11.275,18.041l-1.832,26.92a212.631,212.631,0,0,1-2.4,23.679c-.987,5.779-3.523,7.047-11.135,7.752v4.228H1000.7v-4.228c-8.6-.7-11.98-1.691-12.262-7.752-.141-4.933,0-10.148.564-21.423l1.832-37.491h.282l29.316,69.908h2.678l32.276-71.881h.282l.564,52.854c0,14.376-.282,15.081-11.135,15.927v4.087Zm101.2-84.566H1148.41V125.5c9.02.423,12.262,2.114,12.967,7.893.423,3.524.846,9.3.846,21.705v32.7h-.423l-54.4-66.244H1088.65V125.5c6.2.564,9.3,1.55,11.98,4.792,2.255,3.1,2.537,3.1,2.537,12.685v28.471a215.492,215.492,0,0,1-.846,22.269c-.7,6.342-4.087,8.034-11.7,8.316v4.087h31.571v-4.087c-8.739-.423-11.98-1.973-12.826-8.6-.141-3.805-.564-10.148-.564-21.987V139.168h.282l54.827,67.935H1168V155.095c0-12.4.282-18.182.564-22.128.7-5.356,4.087-7.047,11.557-7.47Zm54.827-1.691c-26.92,0-43.411,21.142-43.411,44.961,0,25.229,19.027,42.988,41.719,42.988,23.82,0,43.411-16.772,43.411-45.1C1276.669,136.349,1256.514,119.859,1234.95,119.859Zm-2.96,5.074c17.054,0,32.276,13.531,32.276,41.156,0,25.229-13.39,36.645-28.048,36.645-18.464,0-32.558-17.2-32.558-41.719C1203.66,136.208,1217.614,124.933,1231.99,124.933Zm58.633-3.383V125.5c9.866.564,10.994.987,10.994,12.544v51.585c0,10.571-.986,11.7-11.839,12.4v4.087h35.1v-4.087c-12.121-.7-13.39-1.269-13.39-12.4V169.471l9.866,2.678a29.662,29.662,0,0,0,6.061-.141c12.544-1.55,25.229-10.007,25.229-26.779,0-8.6-3.383-14.517-8.175-18.182-5.356-3.946-12.826-5.5-21.846-5.5Zm20.86,12.262c0-3.665.423-5.215,1.55-6.2.846-.987,3.805-1.691,7.752-1.691,11.276,0,20.3,6.2,20.3,20.014,0,15.927-10.289,20.719-19.45,20.719a28.121,28.121,0,0,1-10.148-1.832Zm142.635,90.2a193.342,193.342,0,0,1-31.712-18.182c14.8-4.792,29.457-19.027,29.457-42.424,0-26.638-19.732-43.552-41.3-43.552-27.484,0-43.834,21.283-43.834,45.384a42.5,42.5,0,0,0,14.376,32.276c8.175,7.611,18.745,9.866,25.793,10.289,15.927,10.853,25.934,15.786,30.021,16.913a75.633,75.633,0,0,0,16.209,2.114Zm-48.626-21.705c-14.8-3.1-26.638-18.323-26.638-40.451,0-26.075,14.376-36.786,28.471-36.786,18.041,0,32.135,14.658,32.135,41.578,0,20.719-10.43,32.417-21.846,35.518a25.511,25.511,0,0,0-3.806-2.537Zm136.434,1.268a20.274,20.274,0,0,1-10.007-6.342,116.371,116.371,0,0,1-10.43-13.108c-3.806-5.779-9.3-14.376-11.7-18.6,9.866-4.369,16.631-11.416,16.631-22.692,0-7.752-3.523-13.672-8.879-17.054-4.792-3.1-11.275-4.228-20.3-4.228h-31.853V125.5c10.43.846,11.416,1.128,11.416,12.262v51.867c0,11.135-.986,11.839-12.121,12.4v4.087h33.827v-4.087c-10.712-.564-11.839-1.409-11.839-12.4V169.471h4.651c7.329,0,9.443,1.409,11.7,4.933,3.806,6.2,8.739,14.517,13.249,20.86,6.483,8.6,11.98,11.276,20.014,11.7,1.691.141,3.242.141,5.074.141Zm-55.25-38.619V133.249c0-3.524.423-5.074,1.55-5.92.987-.7,3.242-1.269,7.047-1.269,10.289,0,20.014,4.933,20.014,18.886,0,7.047-2.255,12.121-7.329,16.068-3.383,2.678-7.47,3.946-14.376,3.946ZM1596.33,141c-.987-8.6-1.691-13.531-2.114-18.182a51.45,51.45,0,0,0-16.208-2.96c-16.491,0-26.357,10.571-26.357,22.974,0,14.94,13.672,20.719,21.282,24.806,9.725,5.215,17.054,9.584,17.054,19.45,0,9.584-5.779,15.786-15.927,15.786-13.39,0-18.6-12.826-20.719-20.719l-4.087.987c.846,6.624,2.4,17.054,3.524,20.014a30.89,30.89,0,0,0,6.061,2.537,40.916,40.916,0,0,0,12.826,2.114c16.913,0,28.471-10.571,28.471-24.524,0-15.081-13.249-20.719-22.692-25.37-9.866-5.074-16.349-9.3-16.349-19.168,0-6.483,4.087-14.235,14.517-14.235,11.557,0,14.376,9.02,16.49,17.054Zm87.385.141c-.7-7.329-1.269-16.631-1.41-22.833h-2.96c-1.973,2.4-2.678,3.242-6.2,3.242h-51.021c-3.665,0-5.215-.282-7.188-3.242h-2.819c-.282,7.329-.987,15.645-1.55,23.256h4.228c1.55-5.638,2.537-9.3,3.946-11.416,1.691-2.96,4.369-3.946,14.235-3.946h9.161v63.707c0,10.289-1.128,11.557-13.249,12.121v4.087h36.927v-4.087c-12.685-.564-13.672-1.973-13.672-12.121V126.2h9.866c9.866,0,11.557.987,13.672,4.087,1.409,1.973,2.537,5.074,3.805,11.275Zm100.211-19.591h-31.853V125.5c9.443.7,12.262,2.114,12.967,7.047.564,4.087.846,9.725.846,22.269v8.175c0,22.833-6.624,37.632-24.806,37.632-15.363,0-24.947-10.571-24.947-33.263V138.182c0-11.275.987-11.98,11.416-12.685V121.55h-33.122V125.5c10.571.987,11.7,1.55,11.7,12.685v32.135c0,15.5,3.806,25.37,11.417,31.149,5.92,4.651,13.249,6.342,20.578,6.342,8.457,0,17.336-2.678,23.538-9.02,7.47-7.893,10.007-19.027,10.007-34.954v-8.879c0-12.685.282-18.464.7-22.128.423-5.215,3.665-6.765,11.557-7.329Zm95.419,0h-29.739V125.5c10.712,1.268,11.7,2.114,9.161,9.3-3.665,11.7-14.376,38.9-21.142,55.673h-.141c-9.443-24.1-18.745-48.767-21.987-57.646-1.973-5.5-1.691-6.342,7.752-7.329V121.55h-31.007V125.5c7.752.846,10.007,1.691,13.672,10.853,7.329,18.746,18.323,47.216,26.92,70.895h3.946c9.725-26.638,23.819-60.183,27.061-68.076,4.933-11.557,6.483-12.544,15.5-13.672Zm130.232,0h-28.471V125.5c9.725,1.268,10.289,2.537,8.739,10.148-2.114,9.3-9.866,35.518-15.222,52.854h-.282c-8.034-23.256-15.5-43.974-22.692-65.68h-3.806c-6.625,21.423-14.235,42.706-21.283,65.821h-.282c-5.92-19.309-11.135-36.927-16.349-54.827-1.832-6.342-1.55-7.188,8.034-8.316V121.55h-30.726V125.5c8.034.987,10.007,1.973,13.249,12.4,7.047,23.4,14.517,45.948,21.283,69.344h3.946c6.765-21.283,13.953-42,21.564-65.68h.282c7.047,20.437,15.645,44.538,22.692,65.68h4.088c10.571-36.223,18.6-61.592,21.423-69.344,3.805-10.289,4.792-11.135,13.813-12.4Zm90.063,84.566v-4.087c-9.161-.7-12.544-3.1-18.464-12.121s-13.108-19.873-20.014-31.008c9.443-14.517,13.39-19.873,15.363-22.974,6.061-8.175,8.6-9.3,18.6-10.43V121.55h-29.88V125.5c8.316.987,9.021,2.255,5.92,8.034-3.665,6.624-7.752,12.967-12.826,21-5.779-8.457-10.571-15.927-14.94-23.538-2.114-3.665-1.973-4.651,6.06-5.5V121.55h-31.149V125.5c9.443.987,11.276,2.4,17.336,11.557l16.631,26.638c-11.557,17.9-18.182,27.343-21,31.008-3.665,4.792-7.893,6.765-15.645,7.329v4.087h29.88v-4.087c-8.6-.846-9.02-2.114-5.92-7.47,4.651-8.6,10.007-17.477,15.927-26.357,7.752,12.121,13.954,22.128,17.477,27.766,2.4,4.228,1.409,5.356-6.483,6.061v4.087Zm82.875-84.566H2153.34V125.5c10.43,1.128,10.712,1.973,7.611,8.6-3.806,8.034-10.289,20.014-15.363,29.034-5.92-9.866-12.262-20.3-17.759-30.444-2.678-4.369-3.1-5.92,6.483-7.188V121.55h-30.3V125.5c7.893.7,9.3,2.255,14.517,10.994l16.631,28.189c2.255,4.228,2.819,5.356,2.819,7.752v17.336c0,10.853-.987,11.7-12.967,12.262v4.087h36.5v-4.087c-12.4-.564-13.531-1.691-13.531-12.262V172.29a12.685,12.685,0,0,1,1.973-7.47c6.343-11.416,10.853-19.168,16.631-28.471,5.356-8.738,6.906-9.725,15.927-10.853Zm78.083,61.874c-2.255,6.061-4.228,10.289-6.906,13.108-3.664,3.805-7.893,4.651-24.524,4.651-8.6,0-17.759-.282-22.128-.7,18.182-26.5,36.5-51.444,54.686-77.1l-.987-1.832h-51.445c-3.947,0-5.356-.282-6.906-3.242h-3.383c-.282,5.92-1.127,15.363-1.55,23.82h4.229c1.55-5.92,2.819-9.02,4.51-11.416,2.255-3.242,4.369-4.228,18.182-4.228h23.256c-18.746,26.638-37.35,51.726-55.814,77.66l1.127,1.973h67.23c1.55-5.074,3.946-17.477,4.933-21.846ZM31.853,309.555C12.544,309.555,5.5,329.71,5.5,346.2c0,18.886,7.047,36.927,26.356,36.927,19.027,0,26.216-20.3,26.216-36.927C58.069,328.3,50.881,309.555,31.853,309.555Zm0,4.51c12.121,0,15.5,16.49,15.5,32.135s-3.383,32.276-15.363,32.276S15.927,361.7,15.927,346.2C15.927,330.556,19.45,314.065,31.853,314.065Zm84.566,67.512v-3.946c-12.121-.846-12.826-1.55-12.826-11.135V309.555a97.1,97.1,0,0,1-22.128,6.624V319.7l6.483.141c5.638.141,5.92.7,5.92,7.047V366.5c0,9.443-.564,10.289-12.4,11.135v3.946Zm69.626-17.759c-3.665,8.175-5.5,9.02-12.4,9.02H150.387l18.746-17.2c11.7-10.712,15.927-17.336,15.927-27.484,0-11.416-10.43-18.6-21.846-18.6a24.781,24.781,0,0,0-17.336,7.47l-7.188,10.289,2.96,3.1c3.383-5.074,9.161-12.4,17.9-12.4,9.443,0,15.5,5.215,15.5,14.8s-8.739,18.464-16.772,26.638c-6.624,6.483-13.953,12.826-21.142,19.027v3.1h48.344c1.55-5.92,2.678-11.135,4.369-16.49Zm50.176-20.578a112.068,112.068,0,0,0,8.879-6.906,14.578,14.578,0,0,0,3.805-9.584c0-9.866-7.611-17.2-19.309-17.2a22.117,22.117,0,0,0-16.209,7.188l-5.779,8.175,2.96,2.678c3.1-4.51,8.6-10.571,15.786-10.571s12.544,4.228,12.544,12.121c0,9.866-9.443,14.94-21.423,18.746l.987,3.946a33.1,33.1,0,0,1,8.879-1.691c7.47,0,16.349,5.074,16.349,16.631,0,12.544-6.624,20.155-16.068,20.155a23.746,23.746,0,0,1-16.349-6.483,2.144,2.144,0,0,0-2.819,0c-1.128.846-2.819,2.4-3.242,4.087-.141,1.691.141,2.819,1.973,4.651,1.55,1.691,7.047,4.51,13.108,4.51,10.007,0,33.827-9.584,33.827-30.444,0-9.584-6.624-17.618-17.9-19.873Zm75.687,48.344V369.033h12.544v-6.342H311.909V309.837h-5.074c-13.672,18.182-26.638,37.35-38.76,55.391v3.806h34.39v22.551Zm-9.443-28.893H276.673c8.739-14.235,16.913-26.638,25.652-38.9h.141Zm49.753-42.706h29.6l3.1-7.752-.7-1.128H347.567l-4.651,39.182a39.411,39.411,0,0,1,12.685-2.255c15.081,0,22.128,8.034,22.128,19.309,0,9.584-5.779,19.591-17.2,19.591-8.034,0-13.249-4.087-15.927-6.2-1.409-.987-2.255-.7-3.524.282a8.91,8.91,0,0,0-2.678,3.524c-.141,1.691.282,2.819,1.832,4.51,1.973,1.832,7.752,4.651,13.672,4.651,6.624-.141,15.363-3.524,22.269-9.3,7.893-6.342,11.557-13.953,11.557-21.705,0-10.712-8.316-22.128-25.088-22.128-3.665,0-9.161,2.114-13.531,3.805Zm63,16.772c3.805-17.759,16.068-25.793,24.383-29.6a52.307,52.307,0,0,1,14.235-4.651l-.987-4.51c-5.356,1.128-10.994,2.255-16.068,4.228-13.672,4.933-33.686,19.732-33.686,48.485,0,19.591,11.275,32.417,26.5,32.417,15.081,0,26.216-13.108,26.216-28.612,0-13.531-9.3-24.383-23.256-24.383a19.947,19.947,0,0,0-8.316,1.973Zm12.544.7c12.544,0,17.9,10.853,17.9,21.283,0,9.02-3.665,19.732-13.812,19.732-11.839,0-18.323-13.249-18.323-28.612a26.232,26.232,0,0,1,.987-8.6A27.855,27.855,0,0,1,427.764,337.462Zm94.291-26.356H472.585c-.423,5.638-1.128,11.98-2.255,19.027H474.7c2.819-8.739,3.665-10.148,12.121-10.148h27.766c-9.866,22.128-25.088,50.458-38.478,72.3l.987,1.409,9.02-1.128c12.967-27.343,24.665-53.277,37.209-79.633Zm40.733-12.121c-13.953,0-22.833,10.43-22.833,21,0,9.02,5.215,15.222,13.953,20.155-4.792,2.96-9.584,6.483-11.416,8.457-2.678,2.819-5.92,6.624-5.92,12.544,0,13.953,11.276,21.987,24.806,21.987,10.853,0,25.37-8.316,25.37-23.256,0-11.557-8.316-17.9-16.913-22.551,5.638-4.369,9.443-7.752,10.148-8.738a17.45,17.45,0,0,0,3.524-10.712C583.507,307.582,574.769,298.984,562.789,298.984Zm-1.268,4.228c6.061,0,12.967,4.933,12.967,15.5,0,7.611-3.524,12.4-8.6,16.349-9.161-4.51-17.054-8.739-17.054-18.323C548.835,309.978,553.486,303.212,561.52,303.212Zm1.268,75.546c-8.879,0-16.49-6.765-16.49-18.182,0-7.329,4.51-13.953,11.416-18.041,9.725,4.369,19.45,10.43,19.45,20.155C577.165,372.839,570.963,378.758,562.789,378.758Zm65.539-69.2c-16.349,0-26.216,14.94-26.216,27.907,0,13.672,9.584,23.538,23.4,23.538a14.954,14.954,0,0,0,7.611-1.973l9.443-4.792c-4.792,20.155-19.309,32.84-37.632,35.8l.564,4.228c2.537,0,10.148-1.269,17.477-4.228,17.618-7.047,30.726-23.679,30.726-48.2C653.7,324.213,644.4,309.555,628.328,309.555Zm-1.691,4.51c13.108,0,16.49,15.927,16.49,27.343,0,2.255,0,5.5-.282,8.316a23.737,23.737,0,0,1-12.685,3.946c-10.853,0-17.9-9.3-17.9-20.719C612.26,325.341,616.065,314.065,626.636,314.065ZM680.195,294.9c-4.087,0-6.483.846-6.483,3.665,0,2.114.423,5.074.987,10.43,1.691,15.081,2.114,30.3,3.242,47.357.564.846,3.946.846,4.651,0,1.128-17.054,1.691-32.276,3.242-47.357.564-5.356.846-8.316.846-10.43C686.678,295.742,684.423,294.9,680.195,294.9Zm.141,88.231c4.228,0,7.329-2.96,7.329-7.611a7.192,7.192,0,0,0-7.329-7.329,7.076,7.076,0,0,0-7.188,7.329C673.148,380.168,676.108,383.128,680.336,383.128Zm50.176-29.88c-4.228-3.383-6.624-6.2-6.624-10.712,0-6.624,10.712-12.544,14.8-15.927,4.087-3.524,6.2-6.765,6.2-11.135,0-10.712-9.725-20.578-20.578-20.578a21.316,21.316,0,0,0-11.98,4.933c-1.973,1.55-2.819,2.96-2.819,4.51,0,3.1,3.524,5.356,5.074,5.356,1.269,0,6.2-6.624,14.658-6.624,4.792,0,7.893,2.819,7.893,7.611,0,5.779-8.175,11.275-12.544,14.517-8.034,6.342-10.712,10.148-10.712,14.658,0,7.893,9.3,15.222,14.094,16.772ZM726,383.128c3.805,0,6.906-2.819,6.906-7.47A6.949,6.949,0,0,0,726,368.61a6.861,6.861,0,0,0-6.906,7.047C719.1,380.309,722.055,383.128,726,383.128Zm83.58-18.182c-4.087,7.893-7.611,13.531-15.786,13.531-10.148,0-16.49-10.007-17.9-24.524h26.779v-4.933H775.332a26.258,26.258,0,0,1,.282-7.611h27.061v-4.933H776.037c1.973-13.953,7.752-22.41,17.759-22.41s12.967,5.074,15.363,13.813l3.805-.846c-.564-5.638-.987-10.289-1.832-15.363a65.212,65.212,0,0,0-15.222-2.114c-16.068,0-26.92,10.571-30.162,26.92h-8.316v4.933h7.611a42.676,42.676,0,0,0-.423,7.611h-7.188v4.933h7.611c1.691,13.953,8.316,29.175,27.907,29.175a52.159,52.159,0,0,0,15.222-2.4c1.55-2.678,4.087-10.148,5.074-14.235ZM913.6,325.763H883.436v4.087c9.02.987,10.712,2.255,8.316,8.175a79.711,79.711,0,0,1-7.893,15.5,276.687,276.687,0,0,0-21.564-20.014,93.873,93.873,0,0,0,10.148-8.034,15.2,15.2,0,0,0,5.356-11.416c.141-10.43-8.6-17.9-18.745-17.9-11.557,0-21.283,8.457-21.283,20.3,0,6.906,3.665,12.262,9.443,17.618-11.135,8.316-19.591,13.531-19.591,25.652,0,11.416,9.161,23.679,25.652,23.679,9.443,0,18.464-4.369,28.048-17.336,4.087,4.369,9.584,10.853,11.135,12.685,1.691,1.691,8.739,4.651,14.8,5.5l.987-1.55c-3.664-7.047-15.786-20.578-20.86-25.652,4.792-7.047,7.893-12.544,11.135-17.477,4.369-6.483,5.92-8.879,15.081-9.725Zm-55.955-24.947c6.2,0,10.853,6.2,10.994,13.531-.141,6.483-3.524,11.557-10.007,16.35-7.893-5.638-11.98-10.289-11.98-16.772C846.649,306.031,851.16,300.816,857.643,300.816Zm-1.55,74c-8.6,0-18.182-6.2-18.182-18.323,0-6.765,3.664-12.826,12.967-19.309,12.544,10.007,21,18.041,27.061,25.088C873.429,368.61,865.4,374.812,856.093,374.812Zm138.83-74.982-4.651-3.1L938.122,382.7l4.228,3.242Zm-53.136-.987c-13.39,0-19.027,13.249-19.027,24.242,0,10.853,5.638,24.242,19.027,24.242s19.027-13.39,19.027-24.242C960.814,312.092,955.176,298.843,941.787,298.843Zm.141,4.087c8.6,0,9.866,13.531,9.866,20.155,0,6.483-1.269,20.014-9.866,20.014-8.457,0-10.007-13.249-10.007-20.014S933.471,302.931,941.928,302.931ZM991.963,334.5c-13.249,0-19.027,13.249-19.027,24.383,0,10.853,5.779,24.242,19.027,24.242,13.531,0,19.027-13.39,19.027-24.383S1005.493,334.5,991.963,334.5Zm.141,4.228c8.6,0,9.866,13.39,9.866,20.155,0,6.483-1.269,20.014-9.866,20.014-8.316,0-9.866-13.39-9.866-20.155C982.237,351.838,983.788,338.73,992.1,338.73Zm99.788,43.974c-3.1,1.832-13.672,5.074-21,5.074-26.5,0-35.377-17.759-35.377-34.954,0-24.242,16.349-41.578,40.874-41.578,17.9,0,30.726,10.289,30.726,28.189,0,17.618-10.289,26.5-18.464,26.779-3.524.141-4.228-1.268-2.96-8.175,1.973-10.289,4.228-20.437,6.624-29.739a21.865,21.865,0,0,1-4.792-.7,45.791,45.791,0,0,0-6.342-.987c-8.034.282-14.8,4.087-20.719,9.584A35.779,35.779,0,0,0,1049.75,361c0,7.611,3.242,10.853,6.2,10.853,6.061,0,18.323-10.43,22.551-16.913l.282.141-1.409,7.329c-.986,5.356-1.127,9.443,5.779,9.443,17.336,0,30.726-14.658,30.726-32.276,0-17.9-13.108-33.686-36.645-33.686-24.947,0-50.035,17.759-50.176,48.485,0,26.5,18.886,39.605,39.323,39.605a53.945,53.945,0,0,0,27.061-7.047Zm-15.786-50.6a17.9,17.9,0,0,1,7.047,1.55c-.846,3.665-1.973,9.866-3.1,13.953-8.457,10.994-15.645,15.786-17.9,15.786-1.55,0-2.819-.846-2.819-5.215,0-8.457,4.087-17.9,7.893-21.987A12.03,12.03,0,0,1,1076.106,332.106Zm82.029,33.545c-2.114,0-5.638,1.409-5.638,5.074a2.43,2.43,0,0,0,1.691,2.537c4.51.564,8.738,3.383,8.738,8.175,0,5.215-4.087,8.034-10.853,10.571l1.55,4.369c8.316-2.114,17.336-8.034,17.336-17.336A13.253,13.253,0,0,0,1158.135,365.651Zm-24.242,0c-2.114,0-5.5,1.409-5.5,5.074,0,1.409.7,2.4,1.691,2.537,4.369.564,8.6,3.383,8.6,8.175,0,5.215-4.228,8.034-10.712,10.571l1.41,4.369c8.316-2.114,17.336-8.034,17.336-17.336A13.253,13.253,0,0,0,1133.893,365.651Zm69.485-77.378c-8.175,2.114-16.772,7.752-16.772,16.913,0,8.316,6.624,13.249,12.121,13.249h.141c2.114,0,5.5-1.55,5.5-5.074a2.228,2.228,0,0,0-1.832-2.4c-4.087-.7-8.034-3.383-8.034-8.175,0-5.356,3.806-8.175,10.289-10.712Zm23.256,0c-8.175,2.114-16.772,7.752-16.772,16.913,0,8.316,6.624,13.249,12.262,13.249h.141c2.114,0,5.5-1.55,5.5-5.074a2.349,2.349,0,0,0-1.832-2.4c-4.228-.7-8.175-3.383-8.175-8.175,0-5.356,3.806-8.175,10.43-10.712Zm68.358,34.249h-11.276l4.228-20.719h-5.215l-4.369,20.719h-14.376l4.51-20.719h-5.215l-4.51,20.719h-12.685l-1.128,7.329h12.262l-3.947,18.464h-12.826l-1.55,7.329h12.685l-5.215,23.4h5.215l4.933-23.4h14.658l-4.933,23.4h5.215l4.933-23.4h11.7l1.269-7.329h-11.276l3.946-18.464h11.839Zm-18.182,7.329-3.946,18.464h-14.376l3.946-18.464Zm64.834,70.472c-13.108-10.853-21-31.571-21-53.981s7.893-43.411,21-53.841l-2.537-3.383c-19.168,12.826-27.766,33.826-27.766,57.082,0,23.679,8.6,44.961,27.766,57.364ZM1357.43,292.5c13.39,10.571,21.142,31.43,21.142,53.841s-7.611,43.129-21.142,53.841l2.678,3.383c19.591-13.108,27.766-33.686,27.766-57.223,0-23.4-8.175-44.256-27.766-57.223Zm99.929,63.143c.141-9.443-5.638-16.49-12.544-22.128-4.651-4.087-10.571-8.879-14.517-12.685-4.087-3.665-4.933-6.483-4.933-9.443s2.678-7.329,8.6-7.329a15.6,15.6,0,0,1,10.007,3.665,2.246,2.246,0,0,0,2.678-.423,5.885,5.885,0,0,0,2.255-4.228,3.671,3.671,0,0,0-1.55-2.96c-1.691-1.55-5.5-2.96-9.02-2.96-8.457,1.832-13.531,5.92-20.155,12.967-6.343,6.765-10.712,14.517-10.712,22.833,0,8.034,3.947,14.8,9.725,20.3,3.383,3.383,9.3,9.3,12.967,12.826,7.047,6.483,9.161,10.289,9.02,14.235,0,5.779-5.215,8.457-9.584,8.457-5.074,0-9.443-3.1-10.571-3.805a2.889,2.889,0,0,0-2.819.7c-1.128.846-2.537,2.4-2.537,3.946,0,1.409.846,2.678,2.678,4.087,2.678,2.114,7.188,2.96,9.161,2.96,7.188-2.114,12.4-5.779,18.745-12.262C1450.312,377.913,1457.359,367.624,1457.359,355.644Zm-42.988-27.766c0-4.51,1.832-8.879,4.651-12.826h.564c-.423,4.651,1.973,9.584,5.356,12.826,2.114,2.255,10.43,9.584,15.081,13.813,8.316,7.329,10.571,13.953,10.571,19.732,0,5.356-2.114,10.571-5.215,15.081l-.282-.282c.423-3.1-1.128-7.893-2.4-10.007-1.55-2.255-4.933-6.483-17.054-17.2C1417.331,341.126,1414.371,335.066,1414.371,327.878ZM1537.7,338.589v-6.483H1473.99v6.483Zm0,24.524v-6.624H1473.99v6.624Zm80.9-12.262v-6.624h-28.048V316.461h-7.47v27.766h-28.189v6.624h28.189v30.726h7.47V350.851Zm32.981-55.391a18.557,18.557,0,0,0-18.6,18.464c0,10.43,8.175,18.323,18.6,18.323a18.394,18.394,0,1,0,0-36.786Zm0,3.383c8.316,0,14.376,6.624,14.376,15.081,0,8.6-6.061,14.8-14.376,14.8-8.175,0-14.376-6.2-14.376-14.8C1637.2,305.468,1643.405,298.843,1651.58,298.843Zm10.712,22.974a5.343,5.343,0,0,1-1.832-1.409,31.758,31.758,0,0,1-4.792-6.624c2.4-.846,3.806-2.4,3.806-4.651,0-4.369-3.665-5.215-6.906-5.215H1642.7v2.255c2.4.141,2.537.282,2.537,2.819v9.443c0,2.678-.141,2.678-2.678,2.819v2.255h9.725v-2.255c-2.4-.141-2.537-.141-2.537-2.819v-3.242h.423a2,2,0,0,1,1.973.987c.564.846,1.409,2.819,2.537,4.51,1.691,2.4,3.805,2.96,7.047,2.96Zm-12.544-8.879V308c0-1.409.423-1.832,1.691-1.832a3.366,3.366,0,0,1,1.832,6.2,5.529,5.529,0,0,1-2.537.564Zm72.868-12.544c-22.128,0-38.76,17.336-38.76,39.464,0,21.705,16.631,39.182,38.76,39.182,22.269,0,38.76-17.477,38.76-39.182C1761.375,317.73,1744.885,300.394,1722.615,300.394Zm.141,4.651c18.746,0,32.276,14.8,32.276,34.672,0,19.591-13.531,34.531-32.276,34.531s-32.558-14.94-32.558-34.531C1690.2,319.844,1704.011,305.045,1722.756,305.045Zm16.49,42.142c-2.678,6.765-6.624,10.994-13.812,10.994-8.739,0-15.363-7.47-15.363-19.027,0-10.571,5.638-18.041,14.94-18.041,6.765,0,10.712,3.524,12.826,10.712l3.1-.564c-.423-5.638-.846-8.316-1.41-11.839a36.2,36.2,0,0,0-13.249-2.255c-13.531,0-25.37,8.457-25.37,22.974,0,10.853,7.893,22.128,24.665,22.128a42.136,42.136,0,0,0,13.39-2.4c1.128-2.4,2.537-8.457,3.383-12.121Z" transform="translate(158.202 10933.479)" fill="#d6d6d6"/>
  </g>
</svg>
