<svg xmlns="http://www.w3.org/2000/svg" width="2560.499" height="1440" viewBox="0 0 2560.499 1440">
  <g id="typo" transform="translate(-981 -2206.322)">
    <path id="Path_77" data-name="Path 77" d="M0,0H2560V1440H0Z" transform="translate(981 2206.322)" fill="#e5e4e5"/>
    <g id="Group_88" data-name="Group 88" transform="translate(1197.762 3345.065)">
      <path id="Path_115" data-name="Path 115" d="M6.24-.96A.907.907,0,0,0,7.2,0H31.488C42.912,0,50.88-4.9,54.048-14.688c1.152-3.648,1.728-7.3,1.728-17.952s-.576-14.3-1.728-17.952C50.88-60.384,42.912-65.28,31.488-65.28H7.2a.907.907,0,0,0-.96.96ZM20.352-13.152V-52.128a.509.509,0,0,1,.576-.576H28.32c6.528,0,10.464,1.92,12.1,7.2.672,1.92,1.056,4.416,1.056,12.864S41.088-21.7,40.416-19.776c-1.632,5.28-5.568,7.2-12.1,7.2H20.928A.509.509,0,0,1,20.352-13.152ZM63.84-.96A.907.907,0,0,0,64.8,0H76.992a.907.907,0,0,0,.96-.96V-64.32a.907.907,0,0,0-.96-.96H64.8a.907.907,0,0,0-.96.96Zm23.712,0a.907.907,0,0,0,.96.96H99.36a.907.907,0,0,0,.96-.96V-41.952h.48L123.936-.96a1.689,1.689,0,0,0,1.632.96h11.424a.907.907,0,0,0,.96-.96V-64.32a.907.907,0,0,0-.96-.96H126.144a.907.907,0,0,0-.96.96v41.088h-.48L101.664-64.32a1.782,1.782,0,0,0-1.632-.96H88.512a.907.907,0,0,0-.96.96Zm127.1.96a.685.685,0,0,0,.576-1.152L201.312-28.7c7.872-2.5,12.864-8.928,12.864-17.76,0-11.328-8.256-18.816-20.448-18.816H170.112a.907.907,0,0,0-.96.96V-.96a.907.907,0,0,0,.96.96h6.624a.907.907,0,0,0,.96-.96V-27.072a.509.509,0,0,1,.576-.576h14.4L205.728-.96c.288.672.576.96,1.248.96Zm-21.12-35.616H178.272a.509.509,0,0,1-.576-.576V-56.736a.509.509,0,0,1,.576-.576h15.264c7.584,0,12.1,4.032,12.1,10.848S201.12-35.616,193.536-35.616Zm46.752,53.952c12.96,0,20.064-7.3,20.064-20.352V-45.024a.907.907,0,0,0-.96-.96h-6.144a.907.907,0,0,0-.96.96v4.32h-.1c-2.112-3.84-6.048-6.336-12.768-6.336-7.776,0-13.152,3.936-15.456,11.136-1.152,3.456-1.536,6.816-1.536,12.1s.384,8.64,1.536,12.1c2.3,7.2,7.68,11.136,15.456,11.136,6.72,0,10.656-2.5,12.768-6.336h.1v5.376c0,8.448-4.032,12.384-11.616,12.384-4.416,0-7.68-1.728-10.848-4.608a.9.9,0,0,0-1.44,0l-3.936,3.936a.863.863,0,0,0-.1,1.344C227.424,15.552,233.856,18.336,240.288,18.336Zm1.152-26.3c-4.992,0-8.16-2.4-9.7-6.912a28.386,28.386,0,0,1-1.152-8.928,28.8,28.8,0,0,1,1.152-8.928c1.536-4.416,4.7-6.816,9.7-6.816,4.8,0,8.16,2.112,9.792,6.816a28.339,28.339,0,0,1,1.056,8.928,27.954,27.954,0,0,1-1.056,8.928C249.6-10.176,246.24-7.968,241.44-7.968ZM291.36-.96a.907.907,0,0,0,.96.96h24.768c14.112,0,22.656-6.144,22.656-19.008,0-7.776-4.416-13.152-8.736-14.784v-.192c4.32-2.4,7.584-6.816,7.584-13.92,0-10.368-6.624-17.376-20.832-17.376H292.32a.907.907,0,0,0-.96.96Zm14.688-37.632a.509.509,0,0,1-.576-.576V-53.28a.509.509,0,0,1,.576-.576h9.984c5.376,0,8.544,2.784,8.544,7.584s-3.168,7.68-8.544,7.68ZM305.472-12V-27.168a.509.509,0,0,1,.576-.576H316.8c5.76,0,8.832,3.168,8.832,8.16,0,5.088-3.072,8.16-8.832,8.16H306.048A.509.509,0,0,1,305.472-12ZM386.688,0a.907.907,0,0,0,.96-.96V-64.32a.907.907,0,0,0-.96-.96h-11.52a.907.907,0,0,0-.96.96v22.176h-.1c-2.208-3.168-6.048-5.376-12.192-5.376-7.776,0-13.344,3.744-15.744,11.136-1.152,3.648-1.632,7.1-1.632,13.152,0,5.952.48,9.5,1.632,13.152,2.4,7.3,7.968,11.136,15.744,11.136,6.144,0,9.984-2.208,12.192-5.376h.1V-.96a.907.907,0,0,0,.96.96ZM366.24-10.272c-3.648,0-6.144-1.728-7.2-4.992-.576-1.824-.864-3.84-.864-7.968s.288-6.144.864-7.968c1.056-3.36,3.552-4.992,7.2-4.992,3.552,0,6.048,1.632,7.1,4.992.576,1.824.864,3.84.864,7.968s-.288,6.144-.864,7.968C372.288-12,369.792-10.272,366.24-10.272ZM419.616-.96a.907.907,0,0,0,.96.96H457.92a.907.907,0,0,0,.96-.96V-4.224a.907.907,0,0,0-.96-.96H425.664a.509.509,0,0,1-.576-.576V-64.32a.907.907,0,0,0-.96-.96h-3.552a.907.907,0,0,0-.96.96ZM483.072.288a.907.907,0,0,0,.96-.96V-3.744a.907.907,0,0,0-.96-.96h-1.824c-5.28,0-7.392-1.536-7.392-7.68V-40.608a.509.509,0,0,1,.576-.576h8.64a.907.907,0,0,0,.96-.96v-2.688a.907.907,0,0,0-.96-.96h-8.64a.509.509,0,0,1-.576-.576V-59.52a.907.907,0,0,0-.96-.96h-3.264a.907.907,0,0,0-.96.96v13.152a.509.509,0,0,1-.576.576h-4.8a.907.907,0,0,0-.96.96v2.688a.907.907,0,0,0,.96.96h4.8a.509.509,0,0,1,.576.576V-12.1c0,9.024,3.264,12.384,11.9,12.384Z" transform="translate(-6.1 65.28)" fill="#fc1896"/>
    </g>
    <path id="Path_116" data-name="Path 116" d="M2188.125,586.126c-65.344-65.344-63.528-146.118-63.528-257.748s-1.815-192.4,63.528-257.745C2231.446,27.312,2284.693,2.19,2353.391,0V112.76c-30.133,2.334-55.4,15.262-71.789,34.108-24.5,27.227-30.856,57.176-30.856,181.51s6.352,154.286,30.856,181.513c16.388,18.846,41.655,31.774,71.789,34.108v112.76C2284.693,654.569,2231.446,629.447,2188.125,586.126ZM1585.506,651.47V5.289h259.561c126.15,0,199.665,70.79,199.665,181.51,0,71.7-47.195,117.984-79.867,133.411,39.024,18.152,88.942,58.992,88.942,145.211,0,120.7-82.59,186.049-197.849,186.049Zm126.15-112.536h131.6c57.179,0,84.406-36.3,84.406-79.867s-27.227-78.958-84.406-78.958h-131.6Zm0-272.268h123.43c53.543,0,83.494-29.949,83.494-74.422s-29.95-74.419-83.494-74.419h-123.43Zm-527.292,384.8-255.932-396.6v396.6H802.282V5.289H914.819L1170.75,400.984V5.289H1296.9V651.47Zm-622.583,0V5.289h126.15V651.47ZM0,651.47V5.289H233.243C300.4,5.289,361.209,24.348,403.866,67c72.6,72.606,65.344,161.547,65.344,258.654s7.259,191.5-65.344,264.1C361.209,632.411,300.4,651.47,233.243,651.47ZM126.152,538.933h95.294c43.563,0,72.6-13.613,94.387-39.933,23.595-29.043,27.224-75.328,27.224-173.345s-3.629-138.856-27.224-167.9c-21.784-26.32-50.824-39.933-94.387-39.933H126.152Z" transform="translate(1187.608 2527.958)" fill="#fff" stroke="rgba(0,0,0,0)" stroke-width="1"/>
    <g id="colors" transform="translate(981 2751.312)">
      <rect id="Rectangle_119" data-name="Rectangle 119" width="1175.831" height="168.383" transform="translate(265.418)" fill="#ff0096"/>
      <rect id="Rectangle_129" data-name="Rectangle 129" width="1118.751" height="168.383" transform="translate(1441.249)" fill="#fff"/>
      <rect id="Rectangle_130" data-name="Rectangle 130" width="265.418" height="168.383" fill="#2d2926"/>
    </g>
  </g>
</svg>
