<svg xmlns="http://www.w3.org/2000/svg" xmlns:xlink="http://www.w3.org/1999/xlink" width="2560" height="2880" viewBox="0 0 2560 2880">
  <defs>
    <clipPath id="clip-path">
      <rect id="shape" width="2560" height="2880" transform="translate(978 5513)" fill="#d2e7d9"/>
    </clipPath>
    <clipPath id="clip-path-2">
      <rect id="Rectangle_131" data-name="Rectangle 131" width="1416.725" height="1109.419" fill="none"/>
    </clipPath>
  </defs>
  <g id="Group_105" data-name="Group 105" transform="translate(-978 -5513)" clip-path="url(#clip-path)">
    <rect id="bg" width="2560" height="2880" transform="translate(978 5513)" fill="#f3f3f3"/>
    <g id="MV_logo_blue" data-name="MV logo blue" transform="translate(1605.871 6398.539)">
      <g id="Group_93" data-name="Group 93" transform="translate(0)" clip-path="url(#clip-path-2)">
        <path id="Path_150" data-name="Path 150" d="M1097.471,3.2a27.638,27.638,0,0,0-28.455,1.586L556.1,354.151,43.149,4.786A27.61,27.61,0,0,0,0,27.587V943.9a27.6,27.6,0,0,0,27.606,27.587h250.33A27.6,27.6,0,0,0,305.542,943.9V888.753L537.4,1102.129a27.628,27.628,0,0,0,37.4,0L806.623,888.753V943.9a27.6,27.6,0,0,0,27.606,27.587h250.343a27.6,27.6,0,0,0,27.606-27.587V27.587A27.576,27.576,0,0,0,1097.471,3.2" transform="translate(0.006 0)" fill="#323745"/>
        <path id="Path_151" data-name="Path 151" d="M824.81,50.445H103.166a3.442,3.442,0,0,0-3.451,3.448V492.211a3.442,3.442,0,0,0,3.451,3.448h704.46a3.446,3.446,0,0,0,3.451-3.448V333.036a3.451,3.451,0,0,0-3.451-3.448H578.3V216.5H824.81a3.446,3.446,0,0,0,3.451-3.448V53.893a3.446,3.446,0,0,0-3.451-3.448" transform="translate(588.464 297.457)" fill="#e62f4a"/>
        <path id="Path_152" data-name="Path 152" d="M104.787,54.863H119.2l19.248,55.38h.3l19.11-55.38h14.562V159.457h-15V95.843h-.283L142.276,140.8h-7.5L120.088,95.843h-.3v63.615h-15Z" transform="translate(618.397 323.506)" fill="#fff"/>
        <path id="Path_153" data-name="Path 153" d="M116.5,80.293c0-17.035,12.94-25.559,25.142-25.559s25.135,8.524,25.135,25.559v55.242c0,17.042-12.926,25.559-25.135,25.559S116.5,152.577,116.5,135.535Zm15,55.242c0,7.2,4.693,10.573,10.138,10.573s10.138-3.372,10.138-10.573V80.293c0-7.2-4.693-10.573-10.138-10.573s-10.138,3.372-10.138,10.573Z" transform="translate(687.544 322.748)" fill="#fff"/>
        <path id="Path_154" data-name="Path 154" d="M125.707,54.863h22.2c16.888,0,26.308,10.138,26.308,27.028v48.925c0,19.387-10,28.642-27.64,28.642h-20.87Zm14.99,90.491h6.915c8.371,0,11.608-4.11,11.608-13.069V81.891c0-8.228-2.8-12.924-11.608-12.924H140.7Z" transform="translate(741.855 323.509)" fill="#fff"/>
        <path id="Path_155" data-name="Path 155" d="M134.781,54.863h44.687v14.1H149.785v30.7h25.867v14.1H149.785v30.7h29.683v14.986H134.781Z" transform="translate(795.406 323.506)" fill="#fff"/>
        <path id="Path_156" data-name="Path 156" d="M142.664,54.863h24.1c17.792,0,26.46,10.421,26.46,30.7,0,12.042-3.382,20.856-12.94,26.145l16.177,47.746h-15.88L166.619,114.8h-8.965v44.663h-14.99Zm14.99,46.711h8.516c10.449,0,12.064-5.876,12.064-16.3,0-10.579-1.76-16.311-12.788-16.311h-7.792Z" transform="translate(841.926 323.509)" fill="#fff"/>
        <path id="Path_157" data-name="Path 157" d="M174.146,54.863h12.485L210,159.458h-14.99l-4.4-22.476H170.171l-4.41,22.476h-15Zm6.329,30.111h-.3l-7.343,37.9H187.8Z" transform="translate(889.686 323.509)" fill="#fff"/>
        <path id="Path_158" data-name="Path 158" d="M175.5,68.966H158.15v-14.1h49.69v14.1H190.49v90.491H175.5Z" transform="translate(933.316 323.506)" fill="#fff"/>
        <path id="Path_159" data-name="Path 159" d="M165.926,80.293c0-17.035,12.94-25.559,25.142-25.559S216.2,63.258,216.2,80.293v55.242c0,17.042-12.926,25.559-25.135,25.559s-25.142-8.517-25.142-25.559Zm15,55.242c0,7.2,4.693,10.573,10.138,10.573s10.145-3.372,10.145-10.573V80.293c0-7.2-4.7-10.573-10.145-10.573S180.93,73.093,180.93,80.293Z" transform="translate(979.206 322.748)" fill="#fff"/>
        <path id="Path_160" data-name="Path 160" d="M175.129,54.863h24.1c17.792,0,26.46,10.421,26.46,30.7,0,12.042-3.382,20.856-12.94,26.145l16.177,47.746h-15.88L199.084,114.8h-8.965v44.663h-14.99Zm14.99,46.711h8.516c10.449,0,12.064-5.876,12.064-16.3,0-10.579-1.76-16.311-12.789-16.311h-7.792Z" transform="translate(1033.517 323.509)" fill="#fff"/>
        <path id="Path_161" data-name="Path 161" d="M184.2,54.863h44.7v14.1H199.193v30.7h25.88v14.1h-25.88v30.7H228.9v14.986H184.2Z" transform="translate(1087.067 323.506)" fill="#fff"/>
        <path id="Path_162" data-name="Path 162" d="M192,54.863h14.41l22.644,63.022h.283V54.863h14.99V159.457h-14.1l-22.94-62.87H207v62.87H192Z" transform="translate(1133.08 323.506)" fill="#fff"/>
        <path id="Path_163" data-name="Path 163" d="M138.6,179.239H125.353l-21.312-104.6h15.88l11.905,73.015h.311l12.05-73.015h15.86Z" transform="translate(613.993 440.112)" fill="#fff"/>
        <path id="Path_164" data-name="Path 164" d="M113.457,74.637h44.687v14.1h-29.7v30.711h25.88v14.1h-25.88v30.7h29.7v14.986H113.457Z" transform="translate(669.562 440.109)" fill="#fff"/>
        <path id="Path_165" data-name="Path 165" d="M121.34,74.637h24.1c17.792,0,26.46,10.435,26.46,30.7,0,12.048-3.368,20.856-12.94,26.152l16.177,47.753H159.27l-13.976-44.67H136.33v44.67H121.34Zm14.99,46.725h8.53c10.435,0,12.05-5.89,12.05-16.318,0-10.573-1.76-16.3-12.788-16.3H136.33Z" transform="translate(716.083 440.11)" fill="#fff"/>
        <path id="Path_166" data-name="Path 166" d="M130.414,74.637h21.905c19.4,0,26.605,12.786,26.605,26.449v3.821c0,11.166-3.665,15.269-10.283,19.393,7.053,3.379,10.283,9.7,10.283,20.566v5.876c0,18.214-8.675,28.5-28.075,28.5H130.414Zm15,42.9h6.757c10,0,12.643-5.145,12.643-14.7,0-9.255-3.389-14.1-13.223-14.1h-6.177Zm0,46.711h6.46c12.05,0,12.94-7.338,12.94-17.635,0-10.421-1.9-15.849-12.8-15.849h-6.6Z" transform="translate(769.633 440.11)" fill="#fff"/>
        <path id="Path_167" data-name="Path 167" d="M161.629,74.637h12.5l23.368,104.6h-15L178.1,156.756H157.668l-4.41,22.483h-15Zm6.322,30.118h-.3l-7.357,37.9h15Z" transform="translate(815.9 440.11)" fill="#fff"/>
        <path id="Path_168" data-name="Path 168" d="M147.818,74.637h14.41l22.63,63.022h.3V74.637h15v104.6H186.045l-22.94-62.877h-.3v62.877h-14.99Z" transform="translate(872.344 440.109)" fill="#fff"/>
        <path id="Path_169" data-name="Path 169" d="M157.361,74.637h22.2c16.9,0,26.308,10.138,26.308,27.035V150.6c0,19.393-10,28.649-27.627,28.649H157.361Zm14.99,90.505h6.915c8.371,0,11.608-4.124,11.608-13.076V101.672c0-8.228-2.781-12.931-11.608-12.931h-6.915Z" transform="translate(928.659 440.11)" fill="#fff"/>
        <path id="Path_170" data-name="Path 170" d="M104.787,95.338h22.2c16.9,0,26.308,10.145,26.308,27.035V171.3c0,19.38-9.986,28.635-27.627,28.635H104.787Zm15,90.491h6.9c8.371,0,11.622-4.11,11.622-13.069V122.373c0-8.235-2.809-12.931-11.622-12.931h-6.9Z" transform="translate(618.396 562.177)" fill="#fff"/>
        <path id="Path_171" data-name="Path 171" d="M113.863,95.338H158.55v14.1h-29.7v30.711H154.72v14.1H128.853v30.7h29.7v14.98H113.863Z" transform="translate(671.96 562.174)" fill="#fff"/>
        <path id="Path_172" data-name="Path 172" d="M170.254,176.428a24.256,24.256,0,1,1-48.51,0V95.337h14.99v79.622c0,7.359,3.975,10.869,9.255,10.869,5.3,0,9.262-3.51,9.262-10.869V95.337h15Z" transform="translate(718.467 562.171)" fill="#fff"/>
        <path id="Path_173" data-name="Path 173" d="M147.069,109.441H129.732v-14.1h49.684v14.1H162.072v90.491h-15Z" transform="translate(765.609 562.174)" fill="#fff"/>
        <path id="Path_174" data-name="Path 174" d="M188.915,126.2h-14.99v-3.379c0-6.91-2.94-12.635-10.594-12.635-8.22,0-10.138,6.614-10.138,13.524,0,8.069.732,10.869,8.523,13.952l11.47,4.552c13.223,5,15.728,13.366,15.728,28.642,0,17.628-6.467,30.711-25.867,30.711-14.555,0-25.584-10.724-25.584-24.828v-5.586h15v4.7c0,5.442,2.926,10.724,10.58,10.724,10.138,0,10.877-6.021,10.877-15.573,0-11.166-1.318-12.917-8.682-15.869l-10.725-4.4c-12.926-5.283-16.329-13.807-16.329-26.89,0-15.855,8.537-28.635,25.735-28.635,15,0,24.99,12.042,24.99,23.656Z" transform="translate(811.244 561.428)" fill="#fff"/>
        <path id="Path_175" data-name="Path 175" d="M194.922,177.323c0,12.931-10.435,24.249-23.817,24.249-11.47,0-24.693-5.593-24.693-24.676v-57.6c0-13.662,9.848-24.083,24.4-24.083,13.817,0,24.114,10.421,24.114,24.973v5.869h-14.99V121.06c0-5.876-3.533-10.869-9.262-10.869-7.509,0-9.255,5.145-9.255,12.186v53.477c0,6.021,2.34,10.724,9.11,10.724,4.113,0,9.407-2.345,9.407-10.573v-5.145h14.99Z" transform="translate(864.044 561.428)" fill="#fff"/>
        <path id="Path_176" data-name="Path 176" d="M155.211,95.338H170.2v44.815h18.517V95.338h14.99V199.932h-14.99V153.366H170.2v46.566h-14.99Z" transform="translate(915.971 562.174)" fill="#fff"/>
        <path id="Path_177" data-name="Path 177" d="M164.285,95.338h14.99v89.615h29.7v14.98H164.285Z" transform="translate(969.522 562.174)" fill="#fff"/>
        <path id="Path_178" data-name="Path 178" d="M194.562,95.338h12.5l23.368,104.595h-14.99l-4.4-22.469H190.6l-4.41,22.469h-15Zm6.322,30.118h-.3l-7.357,37.9h15Z" transform="translate(1010.253 562.177)" fill="#fff"/>
        <path id="Path_179" data-name="Path 179" d="M180.752,95.338h14.41l22.63,63.029h.3V95.338h15V199.932H218.965l-22.927-62.863h-.3v62.863h-14.99Z" transform="translate(1066.701 562.174)" fill="#fff"/>
        <path id="Path_180" data-name="Path 180" d="M190.295,95.338h22.2c16.9,0,26.309,10.145,26.309,27.035V171.3c0,19.38-10,28.635-27.64,28.635h-20.87Zm14.99,90.491H212.2c8.372,0,11.622-4.11,11.622-13.069V122.373c0-8.235-2.8-12.931-11.622-12.931h-6.915Z" transform="translate(1123.018 562.177)" fill="#fff"/>
      </g>
    </g>
  </g>
</svg>
