<svg xmlns="http://www.w3.org/2000/svg" width="2560.5" height="2882.497" viewBox="0 0 2560.5 2882.497">
  <g id="typo" transform="translate(-981 -2324)">
    <path id="Path_77" data-name="Path 77" d="M0,0H2560V2882.5H0Z" transform="translate(981 2324)" fill="#d2e7d9"/>
    <g id="Group_120" data-name="Group 120" transform="translate(981 2324)">
      <path id="Intersection_1" data-name="Intersection 1" d="M19841.7,14083.831c-13.291,0-22.148-8.861-22.148-22.147V12600c0-13.287,8.857-22.148,22.148-22.148h203.748c17.719,0,28.793,6.644,37.648,22.148l419.9,710.946v450.978l-437.617-736.7h-8.857v1036.464c0,13.286-8.855,22.147-22.148,22.147Zm-438.506,0c-13.287,0-22.148-8.861-22.148-22.147V12600c0-13.287,8.861-22.148,22.148-22.148h217.041c13.287,0,22.143,8.861,22.143,22.148v1461.684c0,13.286-8.855,22.147-22.143,22.147Zm-1229.143,0c-13.287,0-22.148-8.861-22.148-22.147V12600c0-13.287,8.861-22.148,22.148-22.148h538.168c259.117,0,431.861,115.166,502.727,334.42,24.365,75.295,37.652,157.239,37.652,418.57s-13.287,343.275-37.652,418.57c-70.865,219.253-243.609,334.419-502.727,334.419Zm239.188-1257.935v1009.891q0,13.283,13.287,13.286h223.684c166.1,0,267.975-55.364,312.266-190.461,15.5-42.078,26.574-110.735,26.574-327.771,0-219.253-11.074-285.692-26.574-327.771-44.291-135.1-146.17-190.462-312.266-190.462h-223.684Q18413.237,12812.609,18413.242,12825.9Z" transform="translate(-17943 -11755)" fill="#fff" stroke="rgba(0,0,0,0)" stroke-miterlimit="10" stroke-width="1"/>
    </g>
    <path id="Path_183" data-name="Path 183" d="M3.094,42.911a1.824,1.824,0,0,0,1.747,1.844h23A34.1,34.1,0,0,0,61.9,10.7,34.062,34.062,0,0,0,27.838-23.17h-23a1.824,1.824,0,0,0-1.747,1.844Zm12.517-9.995V-11.428H26.673c12.614,0,21.833,9.509,21.833,22.124,0,12.712-9.218,22.221-21.833,22.221Zm59.094,9.995a1.909,1.909,0,0,0,1.844,1.844h9.024a1.909,1.909,0,0,0,1.844-1.844V-21.326a1.909,1.909,0,0,0-1.844-1.844H76.549a1.909,1.909,0,0,0-1.844,1.844Zm30.372,0a1.909,1.909,0,0,0,1.844,1.844h8.83a1.842,1.842,0,0,0,1.844-1.844V1.186h.1l40.56,44.539h2.329a1.824,1.824,0,0,0,1.844-1.747v-65.3a1.909,1.909,0,0,0-1.844-1.844h-8.927a1.842,1.842,0,0,0-1.844,1.844V18.749h-.1L109.347-24.14h-2.426a1.824,1.824,0,0,0-1.844,1.747Zm96.452,0a1.909,1.909,0,0,0,1.844,1.844h8.83a1.842,1.842,0,0,0,1.844-1.844V1.186h.1L254.7,45.725h2.329a1.824,1.824,0,0,0,1.844-1.747v-65.3a1.909,1.909,0,0,0-1.844-1.844h-8.927a1.842,1.842,0,0,0-1.844,1.844V18.749h-.1L205.8-24.14h-2.426a1.824,1.824,0,0,0-1.844,1.747Zm75.008,0a1.842,1.842,0,0,0,1.844,1.844h39.493a1.842,1.842,0,0,0,1.844-1.844V34.954a1.842,1.842,0,0,0-1.844-1.844H289.152V16.129h23.968a1.842,1.842,0,0,0,1.844-1.844V6.232a1.909,1.909,0,0,0-1.844-1.844H289.152V-11.526h28.722a1.842,1.842,0,0,0,1.844-1.844v-7.957a1.842,1.842,0,0,0-1.844-1.844H278.381a1.842,1.842,0,0,0-1.844,1.844Zm51.137-.873c-.776,1.261,0,2.717,1.747,2.717H339.9a2.126,2.126,0,0,0,1.65-.873L355.232,21.66h.291L369.4,43.881a1.972,1.972,0,0,0,1.65.873h10.48a1.733,1.733,0,0,0,1.65-2.717L363,9.919l19.5-30.372a1.745,1.745,0,0,0-1.65-2.717H369.594a1.786,1.786,0,0,0-1.553.873L355.427-1.725h-.1L342.909-22.3a1.928,1.928,0,0,0-1.553-.873H330.1a1.745,1.745,0,0,0-1.65,2.717L347.858,9.919Zm76.366.873a1.909,1.909,0,0,0,1.844,1.844h9.024a1.909,1.909,0,0,0,1.844-1.844V-11.526H431.6a1.842,1.842,0,0,0,1.844-1.844v-7.957A1.842,1.842,0,0,0,431.6-23.17h-42.4a1.842,1.842,0,0,0-1.844,1.844v7.957a1.842,1.842,0,0,0,1.844,1.844h14.846Zm60.938,0a1.842,1.842,0,0,0,1.844,1.844h8.927a1.909,1.909,0,0,0,1.844-1.844v-22.8h12.129A21.826,21.826,0,0,0,511.361-1.725,21.7,21.7,0,0,0,489.625-23.17h-22.8a1.842,1.842,0,0,0-1.844,1.844ZM477.593,8.27v-19.5h11.256c5.434,0,9.995,4.075,9.995,9.412A10,10,0,0,1,488.849,8.27Zm44.83,34.641a1.842,1.842,0,0,0,1.844,1.844h8.927a1.909,1.909,0,0,0,1.844-1.844V18.167h10.771l12.906,25.714a1.663,1.663,0,0,0,1.553.873h10.189a1.836,1.836,0,0,0,1.65-2.814L558.811,17.294c8.442-3.4,14.361-10.674,14.361-19.6A21.018,21.018,0,0,0,552.019-23.17H524.267a1.842,1.842,0,0,0-1.844,1.844ZM535.135,7.784v-19.31h15.817a9.654,9.654,0,0,1,9.606,9.412,9.883,9.883,0,0,1-9.606,9.9ZM582.2,10.889a34.884,34.884,0,0,0,69.768,0,34.884,34.884,0,1,0-69.768,0Zm12.615,0a22.27,22.27,0,1,1,44.539,0,22.269,22.269,0,0,1-44.539,0Z" transform="translate(1204.947 2722.177)" fill="#fff"/>
  </g>
</svg>
