<svg xmlns="http://www.w3.org/2000/svg" width="2560" height="1440" viewBox="0 0 2560 1440">
  <g id="quote" transform="translate(-4061 -1187)">
    <rect id="background" width="2560" height="1440" transform="translate(4061 1187)" fill="#ff0096"/>
    <rect id="background-2" data-name="background" width="2560" height="1440" transform="translate(4061 1187)" fill="#ff0096"/>
    <path id="Path_118" data-name="Path 118" d="M21.775-3.35A3.165,3.165,0,0,0,25.125,0H67.67a3.165,3.165,0,0,0,3.35-3.35v-221.1a3.165,3.165,0,0,0-3.35-3.35H25.125a3.165,3.165,0,0,0-3.35,3.35Zm82.745,0A3.165,3.165,0,0,0,107.87,0h37.855a3.165,3.165,0,0,0,3.35-3.35V-146.4h1.675L231.485-3.35A5.9,5.9,0,0,0,237.18,0h39.865a3.165,3.165,0,0,0,3.35-3.35v-221.1a3.165,3.165,0,0,0-3.35-3.35H239.19a3.165,3.165,0,0,0-3.35,3.35V-81.07h-1.675l-80.4-143.38a6.218,6.218,0,0,0-5.695-3.35h-40.2a3.165,3.165,0,0,0-3.35,3.35ZM472.015,0a3.165,3.165,0,0,0,3.35-3.35V-181.9a1.777,1.777,0,0,1,2.01-2.01h57.62a3.165,3.165,0,0,0,3.35-3.35V-224.45a3.165,3.165,0,0,0-3.35-3.35H366.49a3.165,3.165,0,0,0-3.35,3.35v37.185a3.165,3.165,0,0,0,3.35,3.35h57.62a1.777,1.777,0,0,1,2.01,2.01V-3.35A3.165,3.165,0,0,0,429.47,0Zm83.75-3.35A3.165,3.165,0,0,0,559.115,0H601.66a3.165,3.165,0,0,0,3.35-3.35V-91.12a1.777,1.777,0,0,1,2.01-2.01h74.37a1.777,1.777,0,0,1,2.01,2.01V-3.35A3.165,3.165,0,0,0,686.75,0h42.545a3.165,3.165,0,0,0,3.35-3.35v-221.1a3.165,3.165,0,0,0-3.35-3.35H686.75a3.165,3.165,0,0,0-3.35,3.35v85.425a1.777,1.777,0,0,1-2.01,2.01H607.02a1.777,1.777,0,0,1-2.01-2.01V-224.45a3.165,3.165,0,0,0-3.35-3.35H559.115a3.165,3.165,0,0,0-3.35,3.35Zm210.38,0A3.165,3.165,0,0,0,769.495,0h146.06a3.165,3.165,0,0,0,3.35-3.35V-39.195a3.165,3.165,0,0,0-3.35-3.35H817.4a1.777,1.777,0,0,1-2.01-2.01V-91.79a1.777,1.777,0,0,1,2.01-2.01h81.74a3.165,3.165,0,0,0,3.35-3.35v-35.51a3.165,3.165,0,0,0-3.35-3.35H817.4a1.777,1.777,0,0,1-2.01-2.01v-45.225a1.777,1.777,0,0,1,2.01-2.01h98.155a3.165,3.165,0,0,0,3.35-3.35V-224.45a3.165,3.165,0,0,0-3.35-3.35H769.495a3.165,3.165,0,0,0-3.35,3.35Zm248.235,0A3.165,3.165,0,0,0,1017.73,0h37.855a3.165,3.165,0,0,0,3.35-3.35V-146.4h1.675L1141.345-3.35a5.9,5.9,0,0,0,5.7,3.35h39.865a3.165,3.165,0,0,0,3.35-3.35v-221.1a3.165,3.165,0,0,0-3.35-3.35H1149.05a3.165,3.165,0,0,0-3.35,3.35V-81.07h-1.675l-80.4-143.38a6.218,6.218,0,0,0-5.7-3.35h-40.2a3.165,3.165,0,0,0-3.35,3.35Zm192.29,0c-.67,2.01,0,3.35,2.345,3.35H1252.9c2.345,0,3.685-1,4.355-3.35l12.73-39.865h79.73L1362.78-3.35C1363.45-1,1364.79,0,1367.135,0h43.55c2.345,0,3.015-1.34,2.345-3.35l-77.05-221.1a4.339,4.339,0,0,0-4.355-3.35h-42.21a4.339,4.339,0,0,0-4.355,3.35Zm77.05-81.74,25.8-79.73h1.005l25.795,79.73ZM1429.445-3.35A3.165,3.165,0,0,0,1432.8,0h37.855A3.165,3.165,0,0,0,1474-3.35v-128.3h1.34l42.21,96.145c1.34,3.015,3.35,4.355,6.365,4.355h23.115c3.015,0,5.025-1.34,6.365-4.355l42.21-96.145h1.34V-3.35A3.165,3.165,0,0,0,1600.3,0h37.855a3.165,3.165,0,0,0,3.35-3.35v-221.1a3.165,3.165,0,0,0-3.35-3.35h-39.195c-2.68,0-4.355,1.005-5.36,3.35L1536.98-94.47h-1.34l-57.62-129.98c-1.005-2.345-2.68-3.35-5.36-3.35H1432.8a3.165,3.165,0,0,0-3.35,3.35ZM1675-3.35A3.165,3.165,0,0,0,1678.35,0h146.06a3.165,3.165,0,0,0,3.35-3.35V-39.195a3.165,3.165,0,0,0-3.35-3.35h-98.155a1.777,1.777,0,0,1-2.01-2.01V-91.79a1.777,1.777,0,0,1,2.01-2.01h81.74a3.165,3.165,0,0,0,3.35-3.35v-35.51a3.165,3.165,0,0,0-3.35-3.35h-81.74a1.777,1.777,0,0,1-2.01-2.01v-45.225a1.777,1.777,0,0,1,2.01-2.01h98.155a3.165,3.165,0,0,0,3.35-3.35V-224.45a3.165,3.165,0,0,0-3.35-3.35H1678.35a3.165,3.165,0,0,0-3.35,3.35ZM105.19,336.685c39.865,0,71.355-18.425,83.08-55.275,5.025-15.745,6.365-28.475,6.365-62.31s-1.34-46.565-6.365-62.31c-11.725-36.85-43.215-55.275-83.08-55.275S33.835,119.94,22.11,156.79c-5.025,15.745-6.365,28.475-6.365,62.31s1.34,46.565,6.365,62.31C33.835,318.26,65.325,336.685,105.19,336.685Zm0-43.55c-18.76,0-30.82-9.38-35.845-25.125-2.68-8.04-3.685-19.1-3.685-48.91s1.005-40.87,3.685-48.91c5.025-15.745,17.085-25.125,35.845-25.125s30.82,9.38,35.845,25.125c2.68,8.04,3.685,19.1,3.685,48.91s-1.005,40.87-3.685,48.91C136.01,283.755,123.95,293.135,105.19,293.135ZM222.1,329.65a3.165,3.165,0,0,0,3.35,3.35H268a3.165,3.165,0,0,0,3.35-3.35V243.89a1.777,1.777,0,0,1,2.01-2.01H355.1a3.165,3.165,0,0,0,3.35-3.35V203.02a3.165,3.165,0,0,0-3.35-3.35H273.36a1.777,1.777,0,0,1-2.01-2.01v-47.9a1.777,1.777,0,0,1,2.01-2.01h98.155a3.165,3.165,0,0,0,3.35-3.35V108.55a3.165,3.165,0,0,0-3.35-3.35H225.455a3.165,3.165,0,0,0-3.35,3.35ZM4.69,662.65c-.67,2.01,0,3.35,2.345,3.35H50.92c2.345,0,3.685-1.005,4.355-3.35L68,622.785h79.73L160.8,662.65c.67,2.345,2.01,3.35,4.355,3.35h43.55c2.345,0,3.015-1.34,2.345-3.35L134,441.55a4.339,4.339,0,0,0-4.355-3.35H87.435a4.339,4.339,0,0,0-4.355,3.35Zm77.05-81.74,25.8-79.73h1l25.795,79.73Zm145.725,81.74a3.165,3.165,0,0,0,3.35,3.35H268.67a3.165,3.165,0,0,0,3.35-3.35V519.6H273.7L354.43,662.65a5.9,5.9,0,0,0,5.7,3.35H399.99a3.165,3.165,0,0,0,3.35-3.35V441.55a3.165,3.165,0,0,0-3.35-3.35H362.135a3.165,3.165,0,0,0-3.35,3.35V584.93H357.11l-80.4-143.38a6.218,6.218,0,0,0-5.695-3.35h-40.2a3.165,3.165,0,0,0-3.35,3.35Zm209.375,0a3.165,3.165,0,0,0,3.35,3.35h84.755c39.865,0,67.67-17.085,78.725-51.255,4.02-12.73,6.03-25.46,6.03-62.645s-2.01-49.915-6.03-62.645c-11.055-34.17-38.86-51.255-78.725-51.255H440.19a3.165,3.165,0,0,0-3.35,3.35ZM486.085,620.1V484.1a1.777,1.777,0,0,1,2.01-2.01h25.8c22.78,0,36.515,6.7,42.21,25.125,2.345,6.7,3.685,15.41,3.685,44.89s-1.34,38.19-3.685,44.89c-5.695,18.425-19.43,25.125-42.21,25.125H488.1A1.777,1.777,0,0,1,486.085,620.1ZM692.11,640.54c10.72,16.75,35.845,29.145,63.65,29.145,51.925,0,83.08-29.48,83.08-85.425V441.55a3.165,3.165,0,0,0-3.35-3.35H792.945a3.165,3.165,0,0,0-3.35,3.35V586.6c0,25.8-12.06,39.53-33.5,39.53-12.06,0-22.11-6.7-27.8-13.4-1.675-1.675-3.35-1.675-4.69-.67L692.445,635.85C691.105,637.19,691.105,638.865,692.11,640.54Zm265.655,29.145c50.92,0,87.1-30.82,87.1-87.435V441.55a3.165,3.165,0,0,0-3.35-3.35H998.97a3.165,3.165,0,0,0-3.35,3.35V583.59c0,27.135-15.075,42.545-37.855,42.545-23.115,0-38.19-15.41-38.19-42.545V441.55a3.165,3.165,0,0,0-3.35-3.35H873.68a3.165,3.165,0,0,0-3.35,3.35v140.7C870.33,638.865,906.51,669.685,957.765,669.685Zm196.31,0c58.96,0,89.445-30.485,89.445-71.69s-24.79-62.645-71.69-69.01l-12.06-1.675c-26.13-3.685-35.51-12.06-35.51-25.125,0-14.4,10.385-24.79,30.485-24.79,18.76,0,35.51,6.03,52.93,17.42,1.675,1.005,3.35.67,4.69-1.005l20.435-30.485c1.675-2.345,1.34-3.685-.67-5.025-19.1-14.74-47.235-23.785-77.385-23.785-49.245,0-80.735,27.8-80.735,69.68,0,40.2,25.795,61.975,72.025,68.34l12.06,1.675c27.135,3.685,35.175,12.06,35.175,25.46,0,16.08-13.4,27.135-37.185,27.135-24.12,0-44.555-11.39-59.63-23.45-1.675-1.34-3.685-1.34-5.025.335l-25.46,29.145a4.119,4.119,0,0,0,.335,5.7C1084.06,655.615,1118.565,669.685,1154.075,669.685ZM1355.41,666a3.165,3.165,0,0,0,3.35-3.35V484.1a1.777,1.777,0,0,1,2.01-2.01h57.62a3.165,3.165,0,0,0,3.35-3.35V441.55a3.165,3.165,0,0,0-3.35-3.35h-168.5a3.165,3.165,0,0,0-3.35,3.35v37.185a3.165,3.165,0,0,0,3.35,3.35h57.62a1.777,1.777,0,0,1,2.01,2.01V662.65a3.165,3.165,0,0,0,3.35,3.35Zm149.075-3.35a3.165,3.165,0,0,0,3.35,3.35h42.545a3.165,3.165,0,0,0,3.35-3.35V576.89a1.777,1.777,0,0,1,2.01-2.01h81.74a3.165,3.165,0,0,0,3.35-3.35V536.02a3.165,3.165,0,0,0-3.35-3.35h-81.74a1.777,1.777,0,0,1-2.01-2.01v-47.9a1.777,1.777,0,0,1,2.01-2.01H1653.9a3.165,3.165,0,0,0,3.35-3.35V441.55a3.165,3.165,0,0,0-3.35-3.35h-146.06a3.165,3.165,0,0,0-3.35,3.35Zm259.96,7.035c39.865,0,71.355-18.425,83.08-55.275,5.025-15.745,6.365-28.475,6.365-62.31s-1.34-46.565-6.365-62.31c-11.725-36.85-43.215-55.275-83.08-55.275s-71.355,18.425-83.08,55.275c-5.025,15.745-6.365,28.475-6.365,62.31s1.34,46.565,6.365,62.31C1693.09,651.26,1724.58,669.685,1764.445,669.685Zm0-43.55c-18.76,0-30.82-9.38-35.845-25.125-2.68-8.04-3.685-19.1-3.685-48.91s1.005-40.87,3.685-48.91c5.025-15.745,17.085-25.125,35.845-25.125s30.82,9.38,35.845,25.125c2.68,8.04,3.685,19.1,3.685,48.91s-1.005,40.87-3.685,48.91C1795.265,616.755,1783.2,626.135,1764.445,626.135ZM2054.89,666c2.345,0,3.35-2.01,2.345-4.02l-44.89-89.78c25.125-11.055,40.535-34.17,40.535-63.315,0-41.54-30.82-70.685-77.385-70.685H1884.71a3.165,3.165,0,0,0-3.35,3.35v221.1a3.165,3.165,0,0,0,3.35,3.35h42.545a3.165,3.165,0,0,0,3.35-3.35V581.245a1.777,1.777,0,0,1,2.01-2.01H1963.1l39.195,83.415c1.005,2.345,2.01,3.35,5.025,3.35Zm-82.075-128.64h-40.2a1.777,1.777,0,0,1-2.01-2.01V482.755a1.777,1.777,0,0,1,2.01-2.01h40.2c18.76,0,30.82,11.055,30.82,28.14C2003.635,526.3,1991.575,537.36,1972.815,537.36ZM114.57,999a3.165,3.165,0,0,0,3.35-3.35V817.095a1.777,1.777,0,0,1,2.01-2.01h57.62a3.165,3.165,0,0,0,3.35-3.35V774.55a3.165,3.165,0,0,0-3.35-3.35H9.045a3.165,3.165,0,0,0-3.35,3.35v37.185a3.165,3.165,0,0,0,3.35,3.35h57.62a1.777,1.777,0,0,1,2.01,2.01V995.65a3.165,3.165,0,0,0,3.35,3.35Zm83.75-3.35a3.165,3.165,0,0,0,3.35,3.35h42.545a3.165,3.165,0,0,0,3.35-3.35V907.88a1.777,1.777,0,0,1,2.01-2.01h74.37a1.777,1.777,0,0,1,2.01,2.01v87.77A3.165,3.165,0,0,0,329.3,999H371.85a3.165,3.165,0,0,0,3.35-3.35V774.55a3.165,3.165,0,0,0-3.35-3.35H329.3a3.165,3.165,0,0,0-3.35,3.35v85.425a1.777,1.777,0,0,1-2.01,2.01h-74.37a1.777,1.777,0,0,1-2.01-2.01V774.55a3.165,3.165,0,0,0-3.35-3.35H201.67a3.165,3.165,0,0,0-3.35,3.35Zm210.38,0a3.165,3.165,0,0,0,3.35,3.35H558.11a3.165,3.165,0,0,0,3.35-3.35V959.8a3.165,3.165,0,0,0-3.35-3.35H459.955a1.777,1.777,0,0,1-2.01-2.01V907.21a1.777,1.777,0,0,1,2.01-2.01H541.7a3.165,3.165,0,0,0,3.35-3.35V866.34a3.165,3.165,0,0,0-3.35-3.35h-81.74a1.777,1.777,0,0,1-2.01-2.01V815.755a1.777,1.777,0,0,1,2.01-2.01H558.11a3.165,3.165,0,0,0,3.35-3.35V774.55a3.165,3.165,0,0,0-3.35-3.35H412.05a3.165,3.165,0,0,0-3.35,3.35Z" transform="translate(4170 1485)" fill="#fff"/>
    <path id="Path_117" data-name="Path 117" d="M254-22.017c-11.814,0-19.869-8.592-19.869-23.091,0-48.867,74.106-88.6,74.106-178.284,0-29.535-20.406-53.163-52.089-53.163-50.478,0-77.328,45.645-91.827,96.66-3.759,12.888-8.055,34.9-12.351,51.552-2.685,9.666-4.3,15.573-7.518,15.573-2.148,0-3.222-1.611-3.222-5.37,0-9.666,12.351-38.664,12.351-74.643,0-45.645-20.943-83.772-66.051-83.772-33.831,0-49.941,26.85-49.941,57.459a96.041,96.041,0,0,0,7.518,35.979c2.148,4.833,3.759,7.518,6.981,7.518,2.148,0,4.3-2.148,4.3-4.833,0-6.981-9.129-16.11-9.129-38.664,0-23.628,10.74-40.812,26.313-40.812,12.351,0,20.943,11.277,20.943,26.85,0,66.588-72.5,113.307-72.5,177.747,0,29.535,19.869,63.366,58,63.366,41.886,0,66.051-26.313,74.106-98.808,1.611-12.888,4.3-34.368,12.351-51.552,9.666-20.943,27.387-36.516,58.533-36.516,31.683,0,48.867,17.721,48.867,32.757,0,44.571-118.677,33.294-118.677,101.493,0,29,24.165,51.552,62.292,51.552,23.628,0,42.423-9.666,53.163-20.943,23.091-23.091,25.239-64.44,39.738-128.88,5.907-25.239,24.165-94.512,55.311-94.512,8.055,0,15.573,5.907,15.573,19.332,0,41.349-76.254,75.717-76.254,152.508,0,47.793,37.053,73.569,83.235,73.569,56.385,0,77.865-36.516,77.865-72.495a87.519,87.519,0,0,0-6.444-33.294c-3.222-7.518-4.833-8.592-7.518-8.592-3.222,0-4.3,3.222-4.3,4.833,0,5.907,9.129,15.573,9.129,36.516,0,26.313-13.962,47.793-31.146,47.793-15.036,0-24.165-11.814-24.165-29.535,0-60.144,80.55-82.7,80.55-158.952,0-42.96-29-70.884-67.125-70.884-70.884,0-99.345,66.588-113.844,131.028S284.073-22.017,254-22.017Zm377.511-78.4c5.37-27.387,15.036-66.588,18.795-66.588,2.148,0,2.685,2.148,2.685,5.37,0,5.907-13.425,52.626-13.425,88.068,0,60.144,29,81.624,55.311,81.624C730.32,8.055,747.5-28.461,747.5-63.9a86.335,86.335,0,0,0-6.444-33.831c-3.222-7.518-4.833-8.592-6.981-8.592a4.733,4.733,0,0,0-4.833,4.833c0,5.907,9.129,13.425,9.129,38.127,0,31.683-15.573,54.774-34.368,54.774-15.036,0-21.48-15.036-21.48-32.22,0-62.292,86.994-103.641,86.994-177.747,0-31.683-16.11-58-51.015-58-51.552,0-69.273,73.032-81.624,110.085-17.184,53.163-52.089,71.421-97.734,71.421-27.924,0-43.5-10.74-43.5-25.776,0-34.368,54.774-27.387,94.512-46.182,22.554-10.74,42.423-29,42.423-59.607,0-24.165-15.573-49.941-49.941-49.941-27.387,0-49.4,18.258-64.977,43.5C494.04-194.931,483.3-132.639,483.3-89.142c0,63.366,31.146,97.2,64.44,97.2C607.347,8.055,622.92-58,631.512-100.419ZM839.331-75.18c-54.774,0-62.829-27.924-62.829-45.108,0-16.647,7.518-24.165,7.518-30.609,0-3.222-1.611-4.833-4.3-4.833-2.148,0-4.3,1.074-6.981,8.592-3.222,7.518-6.981,27.387-6.981,47.256,0,67.125,52.089,107.937,111.7,107.937,49.941,0,119.214-28.461,119.214-98.808,0-48.33-33.294-67.662-70.347-89.142-27.924-16.11-41.886-35.979-41.886-57.459,0-18.258,12.351-30.072,28.461-30.072,15.573,0,24.7,10.2,24.7,26.313,0,12.351-5.37,22.017-5.37,34.9,0,22.554,17.721,37.053,37.59,37.053,21.48,0,40.812-16.11,40.812-43.5,0-43.5-48.867-63.9-91.827-63.9-58,0-129.954,37.053-129.954,95.586,0,36.516,27.924,57.459,59.07,57.459,20.406,0,37.59-8.592,51.552-17.184,16.647-10.2,26.313-18.795,37.59-18.795s16.11,8.592,16.11,16.647C953.175-118.677,908.6-75.18,839.331-75.18ZM1087.425-332.4a57.059,57.059,0,0,0,57.459,56.922c35.979,0,59.607-32.22,59.607-62.829,0-32.22-26.313-54.237-56.922-54.237C1111.59-392.547,1087.425-362.475,1087.425-332.4Zm9.666,323.811c-15.573,0-22.554-12.888-22.554-27.387,0-68.2,86.994-110.622,86.994-181.506,0-29.535-17.184-54.774-50.478-54.774-22.017,0-43.5,13.962-59.07,36.516-23.628,33.831-38.127,86.457-38.127,133.713,0,75.18,35.442,110.085,69.81,110.085,38.664,0,55.848-36.516,55.848-72.495a87.519,87.519,0,0,0-6.444-33.294c-3.222-7.518-4.833-8.592-7.518-8.592-3.222,0-4.3,3.222-4.3,4.833,0,5.907,9.129,15.573,9.129,36.516C1130.385-30.609,1114.275-8.592,1097.091-8.592ZM1348.944-123.51c42.423,0,68.736-34.368,68.736-70.347,0-42.96-36.516-82.7-99.882-82.7-88.6,0-151.434,77.328-151.434,155.73,0,67.662,47.256,128.88,124.584,128.88,78.939,0,129.417-60.144,129.417-117.066,0-9.129-1.611-25.776-8.055-25.776-2.148,0-4.3,2.148-4.3,5.37,0,4.3,3.222,7.518,3.222,17.184,0,32.22-22.554,51.552-52.089,51.552-45.645,0-105.789-52.089-105.789-128.343,0-56.922,32.757-78.4,56.385-78.4,12.888,0,22.017,6.444,22.017,18.795,0,14.5-11.814,16.647-24.7,27.924-9.666,8.592-18.8,21.48-18.8,40.275C1288.263-150.9,1310.817-123.51,1348.944-123.51Z" transform="translate(4669 1848)" fill="#fff"/>
    <path id="Path_119" data-name="Path 119" d="M170.922-140.91v-1.464c58.926-.366,102.48-7.686,102.48-55.632,0-57.828-63.318-58.194-109.434-58.194H1.464v.732c8.052,7.686,16.1,23.058,16.1,51.606V-52.338c0,28.548-8.052,43.92-16.1,51.606V0h162.5c81.618,0,126.27-26.718,126.27-74.664C290.238-130.662,229.116-140.91,170.922-140.91Zm-25.254-3.66v-108.7c9.516,0,14.64,28.914,14.64,56.73C160.308-170.19,155.55-144.57,145.668-144.57Zm0,141.642V-138.714c9.882,0,14.64,33.672,14.64,67.344C160.308-37.332,155.55-2.928,145.668-2.928ZM565.1-152.988,438.834-4.392h-6.588v-199.47c0-28.548,9.882-43.92,19.764-51.606v-.732H288.042v.732c8.052,7.686,16.1,23.058,16.1,51.606V-52.338c0,28.548-8.052,43.92-16.1,51.606V0H549l16.836-152.988ZM837.042-34.77,707.112-262.056h-.732l-106.872,53.07,38.053,67.267L576.45-34.774c-10.98,19.032-18.3,29.28-22.692,34.038V0H697.6V-.736L659.514-68.08h19.713l19.464,34.4c9.882,17.2,13.176,28.182,13.176,32.94V0H859.73V-.736c-4.392-4.758-12.078-15.006-22.692-34.038Zm-181.258-39.9-25.448-45,9.959-17.206,35.2,62.209ZM975.024-259.86c-81.618,0-120.048,28.548-120.048,80.52,0,88.572,168.726,155.55,168.726,173.484,0,2.2-1.1,4.758-6.954,4.758-28.182,0-105.042-40.626-157.38-128.466h-.732L861.564-10.98C906.948,0,955.992,4.392,997.35,4.392c68.808,0,118.218-26.718,118.218-87.108,0-94.794-176.412-143.106-176.412-166.9,0-2.562,1.83-4.392,9.15-4.392,23.058,0,98.454,34.77,150.792,109.068h.732l-9.15-100.284C1046.028-254.736,1008.7-259.86,975.024-259.86Zm137.982,3.66v134.688h.732l77.958-130.3h3.66v199.47c0,28.548-9.882,43.92-19.764,51.606V0H1343.22V-.732c-9.882-7.686-19.764-23.058-19.764-51.606v-199.47h3.66l77.592,130.3h.732l.366-134.688Z" transform="translate(4842 2505)" fill="#fff"/>
  </g>
</svg>
