<svg xmlns="http://www.w3.org/2000/svg" width="897" height="505" viewBox="0 0 897 505"><defs><clipPath id="a"><path data-name="Rectangle 129" fill="#333" d="M0 0h897v505H0z"/></clipPath></defs><g data-name="Group 135"><g data-name="Mask Group 17" clip-path="url(#a)"><path data-name="Path 213" d="M210.7 73.665a9.518 9.518 0 0 1 3.9.634 4.745 4.745 0 0 1 2.209 2.562L221.555 88h5.5v-2.35h-2.915l-4.04-9.35a7.568 7.568 0 0 0-2.3-3.1 8.589 8.589 0 0 0 3.173-1.41 5.662 5.662 0 0 0 1.833-2.3 10.53 10.53 0 0 0 .776-2.679 22.255 22.255 0 0 0 .188-3.1 24.225 24.225 0 0 0-.164-3.055 10.008 10.008 0 0 0-.776-2.679 5.844 5.844 0 0 0-1.692-2.28 8.678 8.678 0 0 0-3.032-1.433 16.783 16.783 0 0 0-4.63-.564h-12.69v2.35h2.82v29.6h-2.82V88h9.014v-2.35h-2.82V73.665Zm-3.713-2.773V56.463h6.486a10.815 10.815 0 0 1 3.713.541 3.983 3.983 0 0 1 2.115 1.622 6.562 6.562 0 0 1 .87 2.209 16.009 16.009 0 0 1 .212 2.867 15.683 15.683 0 0 1-.212 2.82 6.562 6.562 0 0 1-.87 2.209 3.983 3.983 0 0 1-2.115 1.622 10.815 10.815 0 0 1-3.713.541Zm36 17.766a15.646 15.646 0 0 0 5.053-.7 6.541 6.541 0 0 0 3.1-2.045 9.011 9.011 0 0 0 1.527-2.773 15.939 15.939 0 0 0 .658-3.455l-2.725-.145a7.469 7.469 0 0 1-1.88 4.724q-1.6 1.621-5.828 1.621-4.653 0-6.228-2.421t-1.621-8.155h18.707v-.752a42.352 42.352 0 0 0-.188-4.3 17.808 17.808 0 0 0-.846-3.784 8.505 8.505 0 0 0-1.809-3.2 8.628 8.628 0 0 0-3.2-2.021 13.5 13.5 0 0 0-4.911-.8 13.692 13.692 0 0 0-4.935.8 8.844 8.844 0 0 0-3.243 2.021 8.33 8.33 0 0 0-1.833 3.2 17.808 17.808 0 0 0-.846 3.784 42.347 42.347 0 0 0-.188 4.3q0 7.379 2.327 10.74t8.909 3.361Zm-.235-25.427a9.745 9.745 0 0 1 3.972.7 4.7 4.7 0 0 1 2.326 2.139 10.446 10.446 0 0 1 1.034 2.938 23.288 23.288 0 0 1 .329 3.713h-15.369a20.792 20.792 0 0 1 .352-3.619 10.581 10.581 0 0 1 1.081-2.937 5.065 5.065 0 0 1 2.35-2.185 9.084 9.084 0 0 1 3.925-.749Zm27.636 16.121a15.568 15.568 0 0 0 4.371-.541 8.152 8.152 0 0 0 2.844-1.363 5.694 5.694 0 0 0 1.6-2.139 9.3 9.3 0 0 0 .752-2.514 21.67 21.67 0 0 0 .164-2.89q0-4.418-1.5-6.486l3.149-3.149-1.98-1.97-3.337 3.337a13.567 13.567 0 0 0-6.063-1.175 15.317 15.317 0 0 0-4.347.541 8.438 8.438 0 0 0-2.844 1.363 5.385 5.385 0 0 0-1.6 2.138 9.788 9.788 0 0 0-.729 2.514 21.67 21.67 0 0 0-.165 2.891q0 5.452 2.444 7.52l-2.021 1.927a6.155 6.155 0 0 0-2.068 4.371 3.9 3.9 0 0 0 2.585 3.9 6.6 6.6 0 0 0-2.726 5.264 6.7 6.7 0 0 0 .775 3.431 4.621 4.621 0 0 0 2.4 1.95 13.736 13.736 0 0 0 3.36.846 38.3 38.3 0 0 0 4.465.212q2.256 0 3.619-.07a18.354 18.354 0 0 0 3.173-.493 7.4 7.4 0 0 0 2.8-1.175 6.156 6.156 0 0 0 1.715-2.232 8.083 8.083 0 0 0 .729-3.6 5.879 5.879 0 0 0-1.81-4.653 7.527 7.527 0 0 0-5.146-1.6h-10.766q-2.491 0-2.491-2.021a3.673 3.673 0 0 1 1.222-2.726l2.256-2.16a15.533 15.533 0 0 0 5.17.752Zm0-2.491q-3.995 0-5.24-1.692a8.927 8.927 0 0 1-1.245-5.264 8.927 8.927 0 0 1 1.245-5.264q1.246-1.692 5.24-1.692 4.042 0 5.288 1.692a8.927 8.927 0 0 1 1.245 5.264 8.927 8.927 0 0 1-1.245 5.264q-1.246 1.692-5.288 1.692Zm-.47 19.975q-1.974 0-3.22-.117a11.753 11.753 0 0 1-2.491-.517 3.349 3.349 0 0 1-1.833-1.269 3.909 3.909 0 0 1-.588-2.232A5.8 5.8 0 0 1 263.949 88h10.105q4.846 0 4.846 3.807 0 3.29-2 4.159t-6.982.87Zm19.552-35.72h-2.82v2.35h2.82v16.873q0 4.371 1.762 6.345t6.18 1.974a16.014 16.014 0 0 0 10.34-4.089l.941 3.431h5.029v-2.35H310.9V61.116h-6.11v2.35h2.82V81.8a13.891 13.891 0 0 1-9.494 4.089q-2.961 0-4.16-1.292t-1.2-4.3V61.116Zm29.892-6.016h2.82v30.55h-2.82V88h8.93v-2.35h-2.82v-32.9h-6.11ZM352.027 88h5.029v-2.35h-2.82V67.978q0-7.52-9.306-7.52a16.619 16.619 0 0 0-4.7.564 5.867 5.867 0 0 0-2.891 1.763 7.664 7.664 0 0 0-1.457 2.562 14.207 14.207 0 0 0-.587 3.384l2.773.141a6.538 6.538 0 0 1 1.527-4.277q1.34-1.363 5.335-1.363 6.016 0 6.016 4.747v4.7l-8.695.564q-4.747.329-6.439 2.115t-1.692 5.827a7.905 7.905 0 0 0 1.763 5.593q1.762 1.88 6.18 1.88a13.354 13.354 0 0 0 9.118-3.713Zm-9.494-2.021q-2.867 0-4.042-1.151a4.7 4.7 0 0 1-1.175-3.5q0-3.2 1.057-4.3t4.065-1.292l8.507-.517v7.1a12 12 0 0 1-8.412 3.66ZM368.2 61.116h-5.029v2.35h2.82V85.65h-2.82V88h9.87v-2.35h-3.76V69.717a10.961 10.961 0 0 1 9.823-6.11v-3.149a11.235 11.235 0 0 0-9.87 5.828Z" fill="#333"/><path data-name="Intersection 1" d="M752.06 505q3.406-8.359 3.406-20.844 0-32.157-40.891-32.157h-85.356q-18.262 15.087-18.262 39.7a38.18 38.18 0 0 0 2.132 13.3h-25.541a79.9 79.9 0 0 1-.807-11.712q0-25.805 23.026-44.464-21.835-9.131-21.835-32.951 0-19.453 17.468-36.921l17.071-16.277q-20.644-17.468-20.644-63.52a183.183 183.183 0 0 1 1.389-24.416 82.7 82.7 0 0 1 6.154-21.24 45.482 45.482 0 0 1 13.5-18.063q8.734-6.948 24.019-11.513t36.723-4.566q31.362 0 51.213 9.926l28.187-28.187 16.674 16.674-26.6 26.6q12.7 17.468 12.7 54.786a182.99 182.99 0 0 1-1.39 24.415 78.562 78.562 0 0 1-6.352 21.24 48.088 48.088 0 0 1-13.5 18.063q-8.535 6.948-24.019 11.513t-36.921 4.566q-25.805 0-43.67-6.352l-19.056 18.262q-10.322 9.924-10.322 23.026 0 17.071 21.042 17.071h90.913q28.187 0 43.471 13.5t15.285 39.3A77.9 77.9 0 0 1 778.588 505ZM639.343 254.69q-10.521 14.292-10.521 44.464t10.521 44.464q10.519 14.291 44.265 14.292 34.142 0 44.662-14.292t10.521-44.464q0-30.173-10.521-44.464t-44.662-14.292q-33.745.002-44.265 14.293Zm217.953 199.295a96.584 96.584 0 0 1-24.615-9.331 60.8 60.8 0 0 1-17.468-14.887 82.889 82.889 0 0 1-11.513-18.659 102.625 102.625 0 0 1-6.551-22.431 218.044 218.044 0 0 1-3.176-24.218q-.793-11.314-.794-26t.794-26a218.058 218.058 0 0 1 3.176-24.217 102.625 102.625 0 0 1 6.551-22.431 82.889 82.889 0 0 1 11.513-18.659 60.8 60.8 0 0 1 17.468-14.887 96.584 96.584 0 0 1 24.615-9.331 137.168 137.168 0 0 1 32.752-3.573q3.548 0 6.952.135v23.491q-3.375-.2-6.952-.2-19.056 0-32.355 5.757t-20.247 13.9q-6.948 8.138-10.918 22.232a127.914 127.914 0 0 0-4.764 25.407q-.794 11.315-.794 28.385t.794 28.386a127.91 127.91 0 0 0 4.764 25.407q3.97 14.094 10.918 22.232t20.247 13.9q13.3 5.757 32.355 5.757 3.578 0 6.952-.2v23.492q-3.405.135-6.952.135a137.168 137.168 0 0 1-32.748-3.591Zm-452.581-24.812q-19.65-28.386-19.651-90.716a357.578 357.578 0 0 1 1.588-36.325 150.4 150.4 0 0 1 7.146-31.959q5.558-16.673 15.483-27t27.394-17.071q17.467-6.749 41.684-6.75t41.487 6.75q17.27 6.749 27 17.071t15.284 27a150.48 150.48 0 0 1 7.146 31.959 357.791 357.791 0 0 1 1.588 36.325v6.353H412.858q.4 48.433 13.7 68.879t52.6 20.446q35.731 0 49.228-13.7t15.88-39.9l23.027 1.191a134.655 134.655 0 0 1-5.559 29.179 76.11 76.11 0 0 1-12.9 23.424q-8.932 11.314-26.2 17.269t-42.677 5.956q-55.591.004-75.242-28.381Zm40.1-180.04a42.794 42.794 0 0 0-19.851 18.461 89.39 89.39 0 0 0-9.13 24.813 175.63 175.63 0 0 0-2.978 30.569h129.819a196.689 196.689 0 0 0-2.779-31.363 88.206 88.206 0 0 0-8.735-24.812 39.724 39.724 0 0 0-19.651-18.064q-13.3-5.955-33.547-5.955-19.851-.001-33.15 6.351ZM115.7 453.787a122.164 122.164 0 0 1-27.393-9.529 52.176 52.176 0 0 1-19.056-16.674 105.889 105.889 0 0 1-12.108-21.835q-4.367-10.917-6.749-28.385t-2.978-32.356q-.6-14.886-.6-37.913 0-30.967 2.184-52.206a186.409 186.409 0 0 1 8.932-41.09q6.749-19.851 18.659-31.561t31.958-18.659q20.05-6.948 48.236-6.948 50.022 0 69.872 36.127v-30.569h21.438v85.752h-21.438q-2.382-31.363-17.667-49.426t-52.2-18.064q-21.438 0-36.524 5.955t-23.821 15.682q-8.733 9.726-13.5 27a185.605 185.605 0 0 0-6.153 34.539q-1.39 17.27-1.39 43.472 0 24.216.6 38.31a304.543 304.543 0 0 0 2.977 30.569q2.382 16.475 7.344 25.606a70.477 70.477 0 0 0 13.5 17.27q8.535 8.138 21.637 11.513t31.363 3.374q69.871 0 71.857-65.9v-40.89h-45.258v-19.85h70.667V452h-16.277l-4.368-33.348q-21.835 38.907-76.62 38.907-21.046-.001-37.124-3.772ZM285.815 452v-19.85h23.82V174.1h-23.82v-19.851h51.61v277.9h23.82V452Z" fill="#f8544c"/><path data-name="Path 214" d="M72.518 73.195h5.358v4.841q-.235 7.8-8.507 7.8a15.047 15.047 0 0 1-3.713-.4 5.686 5.686 0 0 1-2.562-1.36 8.342 8.342 0 0 1-1.594-2.045A9.26 9.26 0 0 1 60.627 79a36.053 36.053 0 0 1-.353-3.619q-.07-1.668-.07-4.536 0-3.1.164-5.146a21.978 21.978 0 0 1 .732-4.09 7.839 7.839 0 0 1 1.6-3.2 7.323 7.323 0 0 1 2.82-1.857 11.792 11.792 0 0 1 4.324-.705q4.371 0 6.18 2.139a10 10 0 0 1 2.092 5.851h2.538V53.69h-2.543v3.619q-2.35-4.277-8.272-4.277a17.52 17.52 0 0 0-5.711.823 9.949 9.949 0 0 0-3.783 2.209 9.364 9.364 0 0 0-2.209 3.736 22.074 22.074 0 0 0-1.058 4.865q-.259 2.514-.259 6.18 0 2.726.071 4.489t.352 3.83a14.523 14.523 0 0 0 .8 3.36 12.534 12.534 0 0 0 1.434 2.585 6.176 6.176 0 0 0 2.255 1.974 14.462 14.462 0 0 0 3.244 1.128 19.363 19.363 0 0 0 4.394.447q6.486 0 9.071-4.606L78.957 88h1.927V70.845h-8.366ZM88.4 55.1h2.82v30.55H88.4V88h8.93v-2.35h-2.82v-32.9H88.4Zm26.277 33.558a15.646 15.646 0 0 0 5.053-.7 6.541 6.541 0 0 0 3.1-2.045 9.011 9.011 0 0 0 1.528-2.773 15.94 15.94 0 0 0 .658-3.455l-2.725-.145a7.469 7.469 0 0 1-1.88 4.724q-1.6 1.621-5.828 1.621-4.653 0-6.228-2.421t-1.621-8.154h18.706v-.752a42.347 42.347 0 0 0-.188-4.3 17.809 17.809 0 0 0-.846-3.784 8.505 8.505 0 0 0-1.81-3.2 8.628 8.628 0 0 0-3.2-2.021 13.5 13.5 0 0 0-4.911-.8 13.692 13.692 0 0 0-4.935.8 8.844 8.844 0 0 0-3.243 2.021 8.33 8.33 0 0 0-1.833 3.2 17.808 17.808 0 0 0-.846 3.784 42.348 42.348 0 0 0-.188 4.3q0 7.379 2.326 10.74t8.911 3.36Zm-.235-25.427a9.745 9.745 0 0 1 3.972.7 4.7 4.7 0 0 1 2.326 2.139 10.445 10.445 0 0 1 1.034 2.938 23.289 23.289 0 0 1 .329 3.713h-15.369a20.791 20.791 0 0 1 .352-3.619 10.581 10.581 0 0 1 1.081-2.937 5.065 5.065 0 0 1 2.35-2.185 9.084 9.084 0 0 1 3.925-.749Zm27.636 16.121a15.568 15.568 0 0 0 4.371-.541 8.152 8.152 0 0 0 2.843-1.363 5.694 5.694 0 0 0 1.6-2.139 9.3 9.3 0 0 0 .752-2.514 21.67 21.67 0 0 0 .164-2.89q0-4.418-1.5-6.486l3.149-3.149-1.979-1.97-3.337 3.337a13.567 13.567 0 0 0-6.063-1.175 15.317 15.317 0 0 0-4.348.538 8.438 8.438 0 0 0-2.843 1.363 5.385 5.385 0 0 0-1.6 2.138 9.788 9.788 0 0 0-.729 2.514 21.67 21.67 0 0 0-.164 2.891q0 5.452 2.444 7.52l-2.019 1.926a6.155 6.155 0 0 0-2.068 4.371 3.9 3.9 0 0 0 2.585 3.9 6.6 6.6 0 0 0-2.726 5.265 6.7 6.7 0 0 0 .776 3.431 4.621 4.621 0 0 0 2.4 1.95 13.736 13.736 0 0 0 3.361.846 38.3 38.3 0 0 0 4.465.212q2.256 0 3.619-.07a18.354 18.354 0 0 0 3.173-.493 7.4 7.4 0 0 0 2.8-1.175 6.156 6.156 0 0 0 1.715-2.232 8.083 8.083 0 0 0 .729-3.6 5.879 5.879 0 0 0-1.817-4.65 7.527 7.527 0 0 0-5.146-1.6h-10.764q-2.491 0-2.491-2.021a3.673 3.673 0 0 1 1.222-2.726l2.256-2.16a15.533 15.533 0 0 0 5.17.752Zm0-2.491q-4 0-5.241-1.692a8.928 8.928 0 0 1-1.245-5.264 8.928 8.928 0 0 1 1.245-5.264q1.245-1.692 5.241-1.692 4.042 0 5.287 1.692a8.928 8.928 0 0 1 1.245 5.264 8.928 8.928 0 0 1-1.245 5.264q-1.245 1.692-5.287 1.692Zm-.47 19.975q-1.974 0-3.219-.117a11.754 11.754 0 0 1-2.489-.519 3.349 3.349 0 0 1-1.833-1.269 3.909 3.909 0 0 1-.59-2.231 5.8 5.8 0 0 1 2.162-4.7h10.105q4.841 0 4.841 3.807 0 3.29-2 4.159t-6.977.87Zm28.2-10.951a9.628 9.628 0 0 1-3.831-.681 6.465 6.465 0 0 1-2.4-1.645 6.889 6.889 0 0 1-1.293-2.632 15.135 15.135 0 0 1-.564-3.008q-.094-1.34-.094-3.361t.094-3.36a15.135 15.135 0 0 1 .564-3.008 6.889 6.889 0 0 1 1.293-2.632 6.465 6.465 0 0 1 2.4-1.645 9.628 9.628 0 0 1 3.831-.682 9.628 9.628 0 0 1 3.83.682 6.465 6.465 0 0 1 2.4 1.645 6.889 6.889 0 0 1 1.292 2.632 15.136 15.136 0 0 1 .564 3.008q.094 1.34.094 3.36t-.094 3.361a15.136 15.136 0 0 1-.564 3.008 6.889 6.889 0 0 1-1.292 2.632 6.465 6.465 0 0 1-2.4 1.645 9.628 9.628 0 0 1-3.83.681Zm0 2.773a16.239 16.239 0 0 0 3.878-.423 11.434 11.434 0 0 0 2.914-1.105 7.2 7.2 0 0 0 2.068-1.762 9.808 9.808 0 0 0 1.363-2.209 12.145 12.145 0 0 0 .776-2.655 25.8 25.8 0 0 0 .376-2.867q.094-1.339.094-3.078t-.094-3.078a25.8 25.8 0 0 0-.376-2.867 12.145 12.145 0 0 0-.776-2.656 9.808 9.808 0 0 0-1.363-2.209 7.2 7.2 0 0 0-2.068-1.763 11.434 11.434 0 0 0-2.914-1.1 16.239 16.239 0 0 0-3.878-.423 16.239 16.239 0 0 0-3.878.423 11.435 11.435 0 0 0-2.914 1.1 7.2 7.2 0 0 0-2.068 1.763 9.808 9.808 0 0 0-1.363 2.209 12.145 12.145 0 0 0-.775 2.656 25.8 25.8 0 0 0-.376 2.867q-.094 1.339-.094 3.078t.094 3.078a25.8 25.8 0 0 0 .376 2.863 12.145 12.145 0 0 0 .775 2.655 9.808 9.808 0 0 0 1.363 2.209 7.2 7.2 0 0 0 2.068 1.766 11.435 11.435 0 0 0 2.914 1.1 16.239 16.239 0 0 0 3.878.428Z" fill="#f8544c"/></g></g></svg>