<svg xmlns="http://www.w3.org/2000/svg" xmlns:xlink="http://www.w3.org/1999/xlink" width="2560" height="2880" viewBox="0 0 2560 2880">
  <defs>
    <clipPath id="clip-path">
      <rect id="Rectangle_136" data-name="Rectangle 136" width="1218.078" height="1710.468" fill="none"/>
    </clipPath>
  </defs>
  <g id="Group_164" data-name="Group 164" transform="translate(18766 18302.311)">
    <path id="Path_4300" data-name="Path 4300" d="M0,0H2560V2880H0Z" transform="translate(-18766 -18302.311)" fill="#d4551c"/>
    <g id="Group_138" data-name="Group 138" transform="translate(-18093.217 -17716.303)">
      <g id="Group_109" data-name="Group 109" clip-path="url(#clip-path)">
        <path id="Path_313" data-name="Path 313" d="M332.8,196.691c13.958-3.7,19.012-5.538,22.443-7.787,6.747-4.306,9.645-11.114,7.323-19.9s-8.215-13.268-16.21-13.669c-4.1-.259-9.4.64-23.359,4.336s-19.008,5.538-22.443,7.791c-6.747,4.3-9.646,11.114-7.319,19.9s8.215,13.265,16.207,13.666c4.1.259,9.4-.64,23.359-4.336" transform="translate(692.136 367.543)" fill="#212639"/>
        <path id="Path_314" data-name="Path 314" d="M609.039,0C273.212,0,0,273.216,0,609.043v492.386c0,335.827,273.212,609.039,609.039,609.039s609.039-273.213,609.039-609.039V609.043C1218.078,273.216,944.866,0,609.039,0m279.2,409.278,82.646-68.115a1.529,1.529,0,0,1,2.283.219l13.11,15.9a1.535,1.535,0,0,1-.219,2.286l-82.646,68.119a1.535,1.535,0,0,1-2.286-.219l-13.107-15.9a1.535,1.535,0,0,1,.219-2.286M765.46,317.259l39.01-77.182a.863.863,0,0,0-.431-1.31l-24.9-12.585a1.536,1.536,0,0,1-.721-2.182l8.127-16.073a1.532,1.532,0,0,1,2.178-.717l72.836,36.815a1.534,1.534,0,0,1,.717,2.182l-8.124,16.073a1.53,1.53,0,0,1-2.178.714l-24.907-12.588a.863.863,0,0,0-1.31.431l-39.01,77.179a1.532,1.532,0,0,1-2.178.717l-18.392-9.3a1.53,1.53,0,0,1-.714-2.178m-143.9-141.416a1.532,1.532,0,0,1,1.7-1.539l20.581,1.04a1.535,1.535,0,0,1,1.539,1.7L639.966,284a1.53,1.53,0,0,1-1.7,1.539l-20.581-1.04a1.533,1.533,0,0,1-1.539-1.7Zm-226.6,46.979,38.121-15.245c17.928-7.171,33.505-4.491,44.622,8.888,4.1,5,7.292,10.369,13.982,27.092s8.073,22.813,8.558,29.26c1.175,17.355-8.259,30.041-26.186,37.212l-38.121,15.248a1.536,1.536,0,0,1-2.111-.906l-39.768-99.439a1.533,1.533,0,0,1,.9-2.111M225.8,805.645a2,2,0,0,1-2.761.162l-14.117-12.332a1.626,1.626,0,0,1-.162-2.434c5.841-7.3,11.359-17.2,11.359-28.886,0-11.521-5.353-18.012-13.144-18.012-6.491,0-10.548,3.9-12.332,17.039l-.811,5.841c-3.084,22.4-13.632,34.889-33.1,34.889-20.284,0-33.751-15.255-33.751-39.108,0-14.6,4.38-28.233,11.518-37.485.65-.973,1.3-1.135,2.434-.327l14.77,9.9a1.623,1.623,0,0,1,.488,2.269c-5.518,8.44-8.44,16.554-8.44,25.641,0,9.737,5.03,14.766,12.009,14.766,6.329,0,10.386-4.542,12.171-17.2l.811-5.841c3.084-22.719,13.467-34.728,33.428-34.728s34.724,14.77,34.724,43.33c0,17.2-6.814,33.913-15.09,42.515m18.5-215.295-4.454,20.119a1.536,1.536,0,0,1-1.939,1.232l-104.56-23.163a1.534,1.534,0,0,1-1.232-1.936l9.265-41.825c5.195-23.446,22.416-34.421,43.013-29.859,20.278,4.491,31.378,21.907,26.22,45.195l-4.249,19.17a.86.86,0,0,0,.741,1.162l35.963,7.969a1.533,1.533,0,0,1,1.232,1.936m58.4-148.849L221,372.258a1.537,1.537,0,0,1-.189-2.289l45.744-53.975a1.531,1.531,0,0,1,2.286-.188l13.248,11.225a1.534,1.534,0,0,1,.189,2.286l-30.742,36.276a.86.86,0,0,0,.115,1.37l16.712,14.164a.862.862,0,0,0,1.374-.115l25.6-30.206a1.535,1.535,0,0,1,2.289-.188l13.123,11.12a1.531,1.531,0,0,1,.189,2.286l-25.6,30.21a.86.86,0,0,0,.114,1.37L302.9,410.4a.861.861,0,0,0,1.374-.114l30.742-36.273a1.531,1.531,0,0,1,2.286-.189l13.248,11.225a1.537,1.537,0,0,1,.185,2.289L305,441.313a1.54,1.54,0,0,1-2.289.189m306.775,23.82c-113.367,0-206.464,88.191-214.443,199.566H574.692a15.5,15.5,0,1,1,0,31h-44.1V855.506l131.48-131.484V680.383a15.5,15.5,0,0,1,31,0V799.6a15.5,15.5,0,1,1-31,0V767.864L547.152,882.78l186.9,186.9h29.438a15.5,15.5,0,0,1,0,31H644.279a15.5,15.5,0,0,1,0-31h45.929L530.588,910.057v159.619h44.1a15.5,15.5,0,0,1,0,31H455.483a15.5,15.5,0,0,1,0-31h44.107V695.884H394.421v392.93c0,118.586,96.477,215.066,215.063,215.066s215.066-96.48,215.066-215.066V898.281H720.367l69.361,69.361a15.5,15.5,0,0,1-21.921,21.92l-91.282-91.282H631.34a15.5,15.5,0,1,1,0-31H899.654a15.5,15.5,0,0,1,0,31H855.547V1323.2a15.5,15.5,0,1,1-31,0v-115.01c-42.07,75.492-122.683,126.69-215.066,126.69-135.679,0-246.06-110.385-246.06-246.063V695.884H320.592a15.5,15.5,0,1,1,0-31h43.37c8.03-128.484,115.054-230.563,245.521-230.563,135.682,0,246.063,110.381,246.063,246.06V771.46h44.107a15.5,15.5,0,1,1,0,31H780.446a15.5,15.5,0,1,1,0-31h44.1V680.383c0-118.586-96.48-215.062-215.066-215.062m355.5,94.985c-4.939-18.665-.216-35.694,15.581-45.75,6.75-4.306,12.544-6.515,28.385-10.706s21.968-5.144,29.964-4.744c18.709.919,31.236,13.379,36.179,32.044s.222,35.694-15.581,45.75c-6.747,4.306-12.541,6.511-28.381,10.706s-21.971,5.144-29.964,4.744c-18.709-.922-31.24-13.379-36.182-32.044m124.336,171.406a3.008,3.008,0,0,1-1.623,2.757l-69.452,38.946v.811H1087.7a1.534,1.534,0,0,1,1.623,1.623v18.339a1.534,1.534,0,0,1-1.623,1.623H980.6a1.532,1.532,0,0,1-1.623-1.623V774.877a2.847,2.847,0,0,1,1.623-2.757l69.287-39.111V732.2H980.6a1.533,1.533,0,0,1-1.623-1.626V712.239a1.532,1.532,0,0,1,1.623-1.623h107.1a1.534,1.534,0,0,1,1.623,1.623Z" fill="#212639"/>
        <path id="Path_315" data-name="Path 315" d="M68.716,160.166C60,158.237,52.842,162.8,50.667,172.623l-3.932,17.743a.863.863,0,0,0,.741,1.161l27.092,6a.859.859,0,0,0,1.158-.741l3.932-17.743c2.175-9.824-2.229-16.951-10.942-18.881" transform="translate(110.521 378.041)" fill="#212639"/>
        <path id="Path_316" data-name="Path 316" d="M150.433,136.986a.865.865,0,0,0,1.266.542l11.6-4.643c10.245-4.1,15.218-9.582,14.463-18.894-.151-3.431-1.114-7.592-6.417-20.853s-7.474-16.935-9.73-19.524c-5.878-7.265-13.261-7.8-23.506-3.71l-11.6,4.643a.858.858,0,0,0-.542,1.263Z" transform="translate(297.883 159.396)" fill="#212639"/>
      </g>
    </g>
  </g>
</svg>
