<svg xmlns="http://www.w3.org/2000/svg" xmlns:xlink="http://www.w3.org/1999/xlink" width="2560" height="2882" viewBox="0 0 2560 2882">
  <defs>
    <clipPath id="clip-path">
      <rect id="Rectangle_165" data-name="Rectangle 165" width="2560" height="2882" transform="translate(42 4314.252)" fill="#212639"/>
    </clipPath>
    <clipPath id="clip-path-2">
      <rect id="Rectangle_140" data-name="Rectangle 140" width="420.174" height="601.049" fill="#212639"/>
    </clipPath>
    <clipPath id="clip-path-3">
      <rect id="Rectangle_140-2" data-name="Rectangle 140" width="420.174" height="601.049" fill="none"/>
    </clipPath>
    <clipPath id="clip-path-4">
      <rect id="Rectangle_140-3" data-name="Rectangle 140" width="420.174" height="601.049" fill="#dfd8ce"/>
    </clipPath>
  </defs>
  <g id="Mask_Group_17" data-name="Mask Group 17" transform="translate(-42 -4314.252)" clip-path="url(#clip-path)">
    <path id="Path_4462" data-name="Path 4462" d="M25.62-1.05A.992.992,0,0,0,26.67,0h6.72a.992.992,0,0,0,1.05-1.05v-69.3a.992.992,0,0,0-1.05-1.05h-6.3a2.385,2.385,0,0,0-1.68.63L13.125-61.845a1.7,1.7,0,0,0-.735,1.47v7.77c0,.84.525,1.05,1.155.63L25.41-60.27h.21ZM63.945-13.965c2,8.715,9.66,15.12,21.21,15.12,12.39,0,21.315-8.61,21.315-21.1,0-9.765-5.775-15.855-10.185-17.745v-.21a17.653,17.653,0,0,0,8.82-15.33c0-11.235-7.56-19.32-20.16-19.32-11.445,0-18.585,6.93-20.055,14.91a1.016,1.016,0,0,0,.84,1.26l6.3,1.575a1.063,1.063,0,0,0,1.26-.84c1.26-4.83,4.725-8.715,11.34-8.715,7.14,0,11.445,4.725,11.445,11.34,0,7.245-4.725,11.97-11.865,11.97H81.165a.992.992,0,0,0-1.05,1.05v6.09a.992.992,0,0,0,1.05,1.05h3.15c7.98,0,13.125,5.25,13.125,13.23,0,7.245-4.62,12.6-12.285,12.6-7.56,0-11.235-4.515-12.705-9.03-.21-.63-.63-.945-1.26-.735l-6.4,1.575A1.063,1.063,0,0,0,63.945-13.965ZM164.64-1.05A.992.992,0,0,0,165.69,0h6.72a.992.992,0,0,0,1.05-1.05v-69.3a.992.992,0,0,0-1.05-1.05h-6.3a2.385,2.385,0,0,0-1.68.63l-12.285,8.925a1.7,1.7,0,0,0-.735,1.47v7.77c0,.84.525,1.05,1.155.63L164.43-60.27h.21Zm56.91,0A.992.992,0,0,0,222.6,0h6.72a.992.992,0,0,0,1.05-1.05v-69.3a.992.992,0,0,0-1.05-1.05h-6.3a2.385,2.385,0,0,0-1.68.63l-12.285,8.925a1.7,1.7,0,0,0-.735,1.47v7.77c0,.84.525,1.05,1.155.63L221.34-60.27h.21Zm82.11,0A.992.992,0,0,0,304.71,0h6.72a.992.992,0,0,0,1.05-1.05v-69.3a.992.992,0,0,0-1.05-1.05h-6.3a2.385,2.385,0,0,0-1.68.63l-12.285,8.925a1.7,1.7,0,0,0-.735,1.47v7.77c0,.84.525,1.05,1.155.63L303.45-60.27h.21Zm46.725-.105c-.315.735,0,1.155.63,1.155h7.035c.84,0,1.05-.21,1.365-.945l24.57-61.845a3.106,3.106,0,0,0,.21-1.05v-6.51a.992.992,0,0,0-1.05-1.05H345.03a.992.992,0,0,0-1.05,1.05v16.695a.992.992,0,0,0,1.05,1.05h6.3a.992.992,0,0,0,1.05-1.05V-62.58a.557.557,0,0,1,.63-.63h21.735v.315Zm75.6-11.235c2.835,8.715,9.66,13.545,19.53,13.545s16.7-4.83,19.53-13.545c.84-2.73,1.575-6.51,1.575-23.31s-.735-20.58-1.575-23.31c-2.835-8.715-9.66-13.545-19.53-13.545s-16.695,4.83-19.53,13.545c-.84,2.73-1.575,6.51-1.575,23.31S425.145-15.12,425.985-12.39Zm8.715-1.785c-.735-2.205-1.155-5.25-1.155-21.525s.42-19.32,1.155-21.525c1.68-4.725,5.565-7.14,10.815-7.14s9.135,2.415,10.815,7.14c.735,2.205,1.155,5.25,1.155,21.525s-.42,19.32-1.155,21.525c-1.68,4.725-5.565,7.14-10.815,7.14S436.38-9.45,434.7-14.175Z" transform="translate(1671.435 5453.957) rotate(-90)" fill="#dfd8ce"/>
    <path id="Path_4461" data-name="Path 4461" d="M25.62-1.05A.992.992,0,0,0,26.67,0h6.72a.992.992,0,0,0,1.05-1.05v-69.3a.992.992,0,0,0-1.05-1.05h-6.3a2.385,2.385,0,0,0-1.68.63L13.125-61.845a1.7,1.7,0,0,0-.735,1.47v7.77c0,.84.525,1.05,1.155.63L25.41-60.27h.21ZM65.835-12.39C68.67-3.675,75.5,1.155,85.365,1.155s16.695-4.83,19.53-13.545c.84-2.73,1.575-6.51,1.575-23.31s-.735-20.58-1.575-23.31c-2.835-8.715-9.66-13.545-19.53-13.545S68.67-67.725,65.835-59.01C65-56.28,64.26-52.5,64.26-35.7S65-15.12,65.835-12.39Zm8.715-1.785C73.815-16.38,73.4-19.425,73.4-35.7s.42-19.32,1.155-21.525c1.68-4.725,5.565-7.14,10.815-7.14S94.5-61.95,96.18-57.225c.735,2.205,1.155,5.25,1.155,21.525s-.42,19.32-1.155,21.525c-1.68,4.725-5.565,7.14-10.815,7.14S76.23-9.45,74.55-14.175Zm71.085-6.51c0,13.65,9.345,21.84,21.84,21.84,12.39,0,21.945-8.19,21.945-22.155,0-13.02-9.03-21.21-20.265-21.21-3.045,0-5.88.735-7.245,1.68l-.21-.21,15.96-29.61c.315-.63.1-1.05-.63-1.05h-7.14c-.735,0-1.05.1-1.365.735L150.36-36.96C147.63-31.92,145.635-26.355,145.635-20.685Zm9.03.1c0-7.98,5.04-13.44,12.81-13.44s12.915,5.46,12.915,13.44S175.245-7.035,167.475-7.035,154.665-12.6,154.665-20.58Zm56.7,19.425c-.315.735,0,1.155.63,1.155h7.035c.84,0,1.05-.21,1.365-.945l24.57-61.845a3.107,3.107,0,0,0,.21-1.05v-6.51a.992.992,0,0,0-1.05-1.05H206.01a.992.992,0,0,0-1.05,1.05v16.695a.992.992,0,0,0,1.05,1.05h6.3a.992.992,0,0,0,1.05-1.05V-62.58a.557.557,0,0,1,.63-.63h21.735v.315Zm73.08-18.69c0,12.495,9.03,21,22.05,21s22.05-8.5,22.05-21c0-8.4-4.41-14.6-10.08-17.64v-.21a17.181,17.181,0,0,0,8.4-15.12c0-10.71-7.56-19.74-20.37-19.74-12.7,0-20.37,9.03-20.37,19.74a17.181,17.181,0,0,0,8.4,15.12v.21C288.855-34.44,284.445-28.245,284.445-19.845Zm22.05-21.735c-6.93,0-11.34-5.145-11.34-11.445a10.976,10.976,0,0,1,11.34-11.34,10.976,10.976,0,0,1,11.34,11.34C317.835-46.725,313.425-41.58,306.495-41.58Zm-13.02,21.315c0-7.56,5.145-13.125,13.02-13.125s13.02,5.565,13.02,13.125c0,7.665-5.145,13.23-13.02,13.23C298.725-7.035,293.475-12.6,293.475-20.265ZM353.22-1.05c-.315.63-.1,1.05.63,1.05h7.14c.735,0,1.05-.105,1.365-.735L380.52-34.44c2.73-5.04,4.725-10.6,4.725-16.275,0-13.65-9.345-21.84-21.84-21.84-12.39,0-21.945,8.19-21.945,22.155,0,13.02,9.03,21.21,20.265,21.21,3.045,0,5.88-.735,7.245-1.68l.21.21ZM363.4-37.38c-7.77,0-12.915-5.46-12.915-13.44s5.145-13.545,12.915-13.545,12.81,5.565,12.81,13.545S371.175-37.38,363.4-37.38ZM442.68-1.05A.992.992,0,0,0,443.73,0h6.72a.992.992,0,0,0,1.05-1.05v-69.3a.992.992,0,0,0-1.05-1.05h-6.3a2.385,2.385,0,0,0-1.68.63l-12.285,8.925a1.7,1.7,0,0,0-.735,1.47v7.77c0,.84.525,1.05,1.155.63L442.47-60.27h.21Z" transform="translate(1360.147 5596.654) rotate(-90)" fill="#d4551c"/>
    <path id="Path_4463" data-name="Path 4463" d="M6.588-20.412c0,12.852,9.288,21.6,22.68,21.6s22.68-8.748,22.68-21.6c0-8.64-4.536-15.012-10.368-18.144v-.216a17.672,17.672,0,0,0,8.64-15.552c0-11.016-7.776-20.3-20.952-20.3-13.068,0-20.952,9.288-20.952,20.3a17.672,17.672,0,0,0,8.64,15.552v.216C11.124-35.424,6.588-29.052,6.588-20.412Zm22.68-22.356C22.14-42.768,17.6-48.06,17.6-54.54A11.289,11.289,0,0,1,29.268-66.2,11.289,11.289,0,0,1,40.932-54.54C40.932-48.06,36.4-42.768,29.268-42.768ZM15.876-20.844c0-7.776,5.292-13.5,13.392-13.5S42.66-28.62,42.66-20.844c0,7.884-5.292,13.608-13.392,13.608C21.276-7.236,15.876-12.96,15.876-20.844Zm51.948,6.7c1.4,8.964,9.288,15.336,20.628,15.336,9.288,0,16.848-4.644,19.548-12.96a37.793,37.793,0,0,0,1.512-11.88,40.978,40.978,0,0,0-1.62-12.744c-2.592-7.884-9.18-12.1-18.144-12.1-6.048,0-10.368,2.484-12.1,4.752h-.324V-64.368a.573.573,0,0,1,.648-.648H106.92A1.02,1.02,0,0,0,108-66.1V-72.36a1.02,1.02,0,0,0-1.08-1.08H69.984a1.02,1.02,0,0,0-1.08,1.08v39.1a1.02,1.02,0,0,0,1.08,1.08h6.372c.756,0,.972-.324,1.3-1.08,1.188-3.456,4.968-6.8,10.8-6.8,5.076,0,9.072,2.16,10.692,7.128.756,2.052,1.08,4.752,1.08,9.288,0,4.32-.216,7.128-.972,9.18-1.62,4.752-5.724,7.236-10.8,7.236-6.8,0-10.8-3.78-11.988-8.964a1.151,1.151,0,0,0-1.4-.864l-6.372,1.62A1.045,1.045,0,0,0,67.824-14.148Zm91.044,12.96c-.324.756,0,1.188.648,1.188h7.236c.864,0,1.08-.216,1.4-.972l25.272-63.612a3.2,3.2,0,0,0,.216-1.08v-6.7a1.02,1.02,0,0,0-1.08-1.08h-39.2a1.02,1.02,0,0,0-1.08,1.08v17.172a1.02,1.02,0,0,0,1.08,1.08h6.48a1.02,1.02,0,0,0,1.08-1.08v-9.18a.573.573,0,0,1,.648-.648h22.356v.324Zm51.948-12.96c1.4,8.964,9.288,15.336,20.628,15.336,9.288,0,16.848-4.644,19.548-12.96a37.793,37.793,0,0,0,1.512-11.88,40.978,40.978,0,0,0-1.62-12.744c-2.592-7.884-9.18-12.1-18.144-12.1-6.048,0-10.368,2.484-12.1,4.752h-.324V-64.368a.573.573,0,0,1,.648-.648h28.944a1.02,1.02,0,0,0,1.08-1.08V-72.36a1.02,1.02,0,0,0-1.08-1.08H212.976a1.02,1.02,0,0,0-1.08,1.08v39.1a1.02,1.02,0,0,0,1.08,1.08h6.372c.756,0,.972-.324,1.3-1.08,1.188-3.456,4.968-6.8,10.8-6.8,5.076,0,9.072,2.16,10.692,7.128.756,2.052,1.08,4.752,1.08,9.288,0,4.32-.216,7.128-.972,9.18-1.62,4.752-5.724,7.236-10.8,7.236-6.8,0-10.8-3.78-11.988-8.964a1.151,1.151,0,0,0-1.4-.864l-6.372,1.62A1.045,1.045,0,0,0,210.816-14.148Zm81.972,1.3H321.3a.573.573,0,0,1,.648.648V-1.08A1.02,1.02,0,0,0,323.028,0h6.912a1.02,1.02,0,0,0,1.08-1.08V-12.2a.573.573,0,0,1,.648-.648h6.7a1.02,1.02,0,0,0,1.08-1.08v-6.156a1.02,1.02,0,0,0-1.08-1.08h-6.7a.573.573,0,0,1-.648-.648V-41.04a1.02,1.02,0,0,0-1.08-1.08h-6.912a1.02,1.02,0,0,0-1.08,1.08v19.224a.573.573,0,0,1-.648.648H301.86v-.216L325.3-72.468c.216-.54,0-.972-.756-.972H317.3a1.446,1.446,0,0,0-1.512.864l-23.76,51.408a2.876,2.876,0,0,0-.324,1.3v5.94A1.02,1.02,0,0,0,292.788-12.852Zm58.536,0h28.512a.573.573,0,0,1,.648.648V-1.08A1.02,1.02,0,0,0,381.564,0h6.912a1.02,1.02,0,0,0,1.08-1.08V-12.2a.573.573,0,0,1,.648-.648h6.7a1.02,1.02,0,0,0,1.08-1.08v-6.156a1.02,1.02,0,0,0-1.08-1.08h-6.7a.573.573,0,0,1-.648-.648V-41.04a1.02,1.02,0,0,0-1.08-1.08h-6.912a1.02,1.02,0,0,0-1.08,1.08v19.224a.573.573,0,0,1-.648.648H360.4v-.216l23.436-51.084c.216-.54,0-.972-.756-.972H375.84a1.446,1.446,0,0,0-1.512.864l-23.76,51.408a2.876,2.876,0,0,0-.324,1.3v5.94A1.02,1.02,0,0,0,351.324-12.852Zm84.456,0h28.512a.573.573,0,0,1,.648.648V-1.08A1.02,1.02,0,0,0,466.02,0h6.912a1.02,1.02,0,0,0,1.08-1.08V-12.2a.573.573,0,0,1,.648-.648h6.7a1.02,1.02,0,0,0,1.08-1.08v-6.156a1.02,1.02,0,0,0-1.08-1.08h-6.7a.573.573,0,0,1-.648-.648V-41.04a1.02,1.02,0,0,0-1.08-1.08H466.02a1.02,1.02,0,0,0-1.08,1.08v19.224a.573.573,0,0,1-.648.648h-19.44v-.216l23.436-51.084c.216-.54,0-.972-.756-.972H460.3a1.446,1.446,0,0,0-1.512.864l-23.76,51.408a2.876,2.876,0,0,0-.324,1.3v5.94A1.02,1.02,0,0,0,435.78-12.852Zm58.536-8.424c0,14.04,9.612,22.464,22.464,22.464,12.744,0,22.572-8.424,22.572-22.788,0-13.392-9.288-21.816-20.844-21.816-3.132,0-6.048.756-7.452,1.728l-.216-.216L527.256-72.36c.324-.648.108-1.08-.648-1.08h-7.344c-.756,0-1.08.108-1.4.756L499.176-38.016C496.368-32.832,494.316-27.108,494.316-21.276Zm9.288.108c0-8.208,5.184-13.824,13.176-13.824s13.284,5.616,13.284,13.824S524.772-7.236,516.78-7.236,503.6-12.96,503.6-21.168Z" transform="translate(1078.039 5453.957) rotate(-90)" fill="#212639"/>
    <g id="Group_118" data-name="Group 118" transform="translate(824.893 5541.37)">
      <g id="Group_117" data-name="Group 117" clip-path="url(#clip-path-2)">
        <path id="Path_341" data-name="Path 341" d="M210.087,0C94.244,0,0,96.007,0,214.014V387.036C0,505.044,94.244,601.049,210.087,601.049s210.087-96.005,210.087-214.013V214.014C420.174,96.007,325.929,0,210.087,0" fill="#212639"/>
      </g>
    </g>
    <g id="Group_119" data-name="Group 119" transform="translate(1118.065 5684.068)">
      <g id="Group_117-2" data-name="Group 117" clip-path="url(#clip-path-3)">
        <path id="Path_341-2" data-name="Path 341" d="M210.087,0C94.244,0,0,96.007,0,214.014V387.036C0,505.044,94.244,601.049,210.087,601.049s210.087-96.005,210.087-214.013V214.014C420.174,96.007,325.929,0,210.087,0" fill="#d4551c"/>
      </g>
    </g>
    <g id="Group_120" data-name="Group 120" transform="translate(1411.231 5541.37)">
      <g id="Group_117-3" data-name="Group 117" clip-path="url(#clip-path-4)">
        <path id="Path_341-3" data-name="Path 341" d="M210.087,0C94.244,0,0,96.007,0,214.014V387.036C0,505.044,94.244,601.049,210.087,601.049s210.087-96.005,210.087-214.013V214.014C420.174,96.007,325.929,0,210.087,0" fill="#dfd8ce"/>
      </g>
    </g>
  </g>
</svg>
