<svg xmlns="http://www.w3.org/2000/svg" xmlns:xlink="http://www.w3.org/1999/xlink" width="2560" height="2880" viewBox="0 0 2560 2880">
  <defs>
    <clipPath id="clip-path">
      <rect id="Rectangle_152" data-name="Rectangle 152" width="1712.929" height="1718.633" fill="none"/>
    </clipPath>
  </defs>
  <g id="Group_158" data-name="Group 158" transform="translate(16926.359 21473.689)">
    <path id="Path_4398" data-name="Path 4398" d="M0,0H2560V2880H0Z" transform="translate(-16926.359 -21473.689)" fill="#212639"/>
    <g id="Group_151" data-name="Group 151" transform="translate(-16502.83 -20891.758)">
      <g id="Group_150" data-name="Group 150" clip-path="url(#clip-path)">
        <path id="Path_4399" data-name="Path 4399" d="M292.912,391.57a12.145,12.145,0,0,0-16.438-5.053,11.732,11.732,0,0,0-3.686,3.016,13.041,13.041,0,0,0-2.235,4.119,11.567,11.567,0,0,0-.532,4.683,12,12,0,0,0,1.368,4.612l16.757,31.7a12,12,0,0,0,3.043,3.729,11.505,11.505,0,0,0,4.167,2.2,13.019,13.019,0,0,0,4.663.469,11.543,11.543,0,0,0,4.565-1.348,12.111,12.111,0,0,0,5.085-16.426Z" transform="translate(794.229 1132.893)" fill="#d4551c"/>
        <path id="Path_4400" data-name="Path 4400" d="M191.061,392.753l-11.388-5.495a5.756,5.756,0,0,0-4.47-.252,5.469,5.469,0,0,0-3.366,2.9L160.791,412.79a5.476,5.476,0,0,0-.173,4.443,5.762,5.762,0,0,0,2.98,3.343l11.388,5.5a5.81,5.81,0,0,0,4.6.252,5.68,5.68,0,0,0,3.394-2.956l10.939-22.67a5.618,5.618,0,0,0,.225-4.549,5.917,5.917,0,0,0-3.087-3.394" transform="translate(471.378 1137.541)" fill="#d4551c"/>
        <path id="Path_4401" data-name="Path 4401" d="M219.865,399.123l-7.174-.694a5.781,5.781,0,0,0-4.285,1.3,5.473,5.473,0,0,0-2.156,3.879l-4.466,46.254A6.056,6.056,0,0,0,207.1,456.3l7.178.694a9.477,9.477,0,0,0,10.186-8.376l3.812-39.442a8.767,8.767,0,0,0-2.141-6.725,9.065,9.065,0,0,0-6.268-3.331" transform="translate(593.54 1172.044)" fill="#d4551c"/>
        <path id="Path_4402" data-name="Path 4402" d="M708.544,295.611a338.008,338.008,0,1,0,99,239.008,335.793,335.793,0,0,0-99-239.008m-7.281,166.442c56.27,20.084,88.5,46.475,88.5,72.566s-32.233,52.482-88.5,72.566a486.381,486.381,0,0,0,0-145.132m3.938-17.474c-2.448-.859-4.935-1.7-7.442-2.527a422.4,422.4,0,0,0-22.153-75.223c52.344,30.222,90.411,71.7,106.151,118.942-17.344-15.484-43.14-29.469-76.555-41.193M568.056,325.861a394.4,394.4,0,0,1,82.4,27.834,394.235,394.235,0,0,1,27.834,82.4,650.871,650.871,0,0,0-91.8-18.432,650.256,650.256,0,0,0-18.436-91.8m8.065,208.758a896.4,896.4,0,0,1-5.57,101.018,897.251,897.251,0,0,1-101.014,5.57,897.273,897.273,0,0,1-101.018-5.57,918.846,918.846,0,0,1,0-202.037,918.82,918.82,0,0,1,202.033,0,896.408,896.408,0,0,1,5.57,101.018m-7.848-119.147a937.317,937.317,0,0,0-197.476,0c4.667-33.912,11.353-65.486,19.879-93.509a464.959,464.959,0,0,1,157.722,0c8.526,28.023,15.208,59.6,19.875,93.509m-215.7,2.192a650.762,650.762,0,0,0-91.8,18.432,394.558,394.558,0,0,1,27.834-82.4,394.475,394.475,0,0,1,82.4-27.834,650.834,650.834,0,0,0-18.436,91.8m-2.188,18.215a936.62,936.62,0,0,0,0,197.476c-33.912-4.667-65.49-11.349-93.509-19.875a464.685,464.685,0,0,1,0-157.722c28.019-8.526,59.6-15.208,93.509-19.879m2.188,215.7a650.943,650.943,0,0,0,18.436,91.8,394.482,394.482,0,0,1-82.4-27.833,394.561,394.561,0,0,1-27.834-82.4,650.762,650.762,0,0,0,91.8,18.432m18.219,2.192a917.425,917.425,0,0,0,98.74,5.215,917.353,917.353,0,0,0,98.736-5.215c-4.667,33.912-11.349,65.486-19.875,93.509a464.959,464.959,0,0,1-157.722,0c-8.526-28.023-15.212-59.6-19.879-93.509m215.7-2.192a650.872,650.872,0,0,0,91.8-18.432,394.316,394.316,0,0,1-27.834,82.4,394.4,394.4,0,0,1-82.4,27.833,650.365,650.365,0,0,0,18.436-91.8m2.188-18.219a917.312,917.312,0,0,0,5.219-98.736,917.439,917.439,0,0,0-5.219-98.74c33.912,4.671,65.49,11.353,93.509,19.879a464.693,464.693,0,0,1,0,157.722c-28.019,8.526-59.6,15.208-93.509,19.875M695.974,308.182a319,319,0,0,1,75.558,119.447c-16.264-22.595-37.81-43.424-64.209-61.734A341.732,341.732,0,0,0,663.8,340.355a341.789,341.789,0,0,0-25.539-43.526c-18.31-26.4-39.139-47.945-61.734-64.205a319,319,0,0,1,119.447,75.558m-58.647,20.368A422.5,422.5,0,0,0,562.1,306.4c-.832-2.507-1.667-4.994-2.531-7.442-11.719-33.415-25.709-59.211-41.189-76.555,47.239,15.736,88.72,53.8,118.942,106.151M469.537,214.385c26.091,0,52.482,32.237,72.566,88.507a486.413,486.413,0,0,0-145.136,0c20.088-56.27,46.479-88.507,72.57-88.507M379.492,298.95c-.855,2.448-1.695,4.939-2.523,7.446a422.311,422.311,0,0,0-75.223,22.153c30.222-52.348,71.7-90.411,118.942-106.151-15.484,17.344-29.473,43.14-41.2,76.551m-136.4,9.232a319.036,319.036,0,0,1,119.447-75.558c-22.591,16.26-43.424,37.807-61.734,64.205a341.789,341.789,0,0,0-25.539,43.526,341.737,341.737,0,0,0-43.522,25.539c-26.4,18.31-47.945,39.139-64.209,61.734A319.1,319.1,0,0,1,243.1,308.182m20.368,58.647a422.08,422.08,0,0,0-22.149,75.223q-3.766,1.242-7.446,2.527c-33.411,11.723-59.207,25.709-76.555,41.193,15.74-47.243,53.807-88.72,106.151-118.942M237.81,462.053a486.375,486.375,0,0,0,0,145.132C181.54,587.1,149.3,560.71,149.3,534.619s32.237-52.482,88.507-72.566m-3.942,162.606q3.672,1.289,7.446,2.527a422.176,422.176,0,0,0,22.149,75.223c-52.344-30.222-90.411-71.7-106.151-118.942,17.348,15.484,43.144,29.469,76.555,41.193m9.228,136.4a319.1,319.1,0,0,1-75.558-119.447c16.264,22.595,37.811,43.424,64.209,61.734a341.737,341.737,0,0,0,43.522,25.539,341.811,341.811,0,0,0,25.539,43.526c18.31,26.395,39.143,47.945,61.734,64.205A319.085,319.085,0,0,1,243.1,761.056m58.651-20.368a422.306,422.306,0,0,0,75.223,22.154c.828,2.507,1.667,4.994,2.523,7.442,11.723,33.415,25.713,59.211,41.2,76.555-47.243-15.74-88.72-53.807-118.942-106.151m167.79,114.165c-26.091,0-52.482-32.237-72.57-88.507a486.4,486.4,0,0,0,145.136,0c-20.084,56.27-46.475,88.507-72.566,88.507m90.036-84.569c.863-2.448,1.7-4.935,2.531-7.442a422.5,422.5,0,0,0,75.223-22.154c-30.222,52.344-71.7,90.411-118.942,106.151,15.48-17.344,29.469-43.14,41.189-76.555m136.4-9.228a319.052,319.052,0,0,1-119.447,75.558c22.595-16.26,43.424-37.811,61.734-64.205A341.811,341.811,0,0,0,663.8,728.882a341.732,341.732,0,0,0,43.522-25.539c26.4-18.31,47.945-39.139,64.209-61.734a319,319,0,0,1-75.558,119.447m-20.368-58.647a422.494,422.494,0,0,0,22.153-75.223c2.507-.828,4.994-1.667,7.442-2.527,33.415-11.723,59.211-25.709,76.555-41.193-15.74,47.243-53.807,88.72-106.151,118.942" transform="translate(386.93 578.404)" fill="#d4551c"/>
        <path id="Path_4403" data-name="Path 4403" d="M147.218,52.317a1.425,1.425,0,0,0,1.435-.867,2.808,2.808,0,0,0-.516-3.027,1.188,1.188,0,0,0-1.857.15,3.007,3.007,0,0,0-.572,1.837h0c.036.193.079.552.169.895a1.479,1.479,0,0,0,1.344,1.013" transform="translate(428.643 141.339)" fill="#d4551c"/>
        <path id="Path_4404" data-name="Path 4404" d="M251.815,157.569c17.218-6.906,24.116-27.081,29-35.808s13.836-29.32,8.893-31.3a4.046,4.046,0,0,0-3.315.221q-4.571,2.052-10.1,9.894a165.909,165.909,0,0,0-10.639,17.435q-5.126,9.6-9.181,19.1c-2.708,6.339-4.64,11.207-6.752,17.62-.371,1.872-.17,3.544,2.093,2.838" transform="translate(734.217 265.37)" fill="#d4551c"/>
        <path id="Path_4405" data-name="Path 4405" d="M216.581,171.7a2.9,2.9,0,0,0,1.659,1.474q3.228-9.455,6.457-18.913,1.8-5.706,3.019-10.371t2.014-8.991q.8-4.334,1.257-8.625c.3-2.858,4.1-23.911-1.522-17.049a39.821,39.821,0,0,0-4.9,9.011c-1.309,2.677-5.278,12.212-6.027,14.522s-1.407,4.675-1.975,7.072-1.076,5.061-1.525,7.986a44.856,44.856,0,0,0-.816,11.069A50.8,50.8,0,0,0,216,169.7a14.972,14.972,0,0,0,.579,2" transform="translate(630.054 317.311)" fill="#d4551c"/>
        <path id="Path_4406" data-name="Path 4406" d="M159.308,56.874a3.107,3.107,0,0,0,2.416,1.975,8.124,8.124,0,0,0,1.8.13c1.092-.016,2.176-.095,3.264-.15v.051H168.6c.6,0,1.206.039,1.813.043a3.415,3.415,0,0,0,3.784-3.106,6.676,6.676,0,0,0,.122-1.794,35.209,35.209,0,0,1-.189-5.432,14.222,14.222,0,0,0-.181-2.523,2.6,2.6,0,0,0-1.514-1.916A5.361,5.361,0,0,0,170,43.519c-2.172,0-4.348,0-6.524.071a9.363,9.363,0,0,0-1.774.323,3.5,3.5,0,0,0-2.87,2.917,6.991,6.991,0,0,0-.221,1.427c0,2.058,0,4.107.095,6.165a8.59,8.59,0,0,0,.6,2.452" transform="translate(466.622 128.027)" fill="#d4551c"/>
        <path id="Path_4407" data-name="Path 4407" d="M1704.592,802.731a29.913,29.913,0,0,0-32.5-7.17A1687.23,1687.23,0,0,1,1457.457,863.3l-1.013-339.4a33.521,33.521,0,0,0-33.522-33.419h-14.289a33.522,33.522,0,0,1-33.522-33.522V34.763a33.52,33.52,0,0,0-33.478-33.518L1066.206.891a55.778,55.778,0,0,0-44.551,22.118,206.684,206.684,0,0,1-165.192,82.263,206.7,206.7,0,0,1-165.523-82.7A55.752,55.752,0,0,0,646.46.351L371.38,0a33.522,33.522,0,0,0-33.565,33.522V456.965a33.522,33.522,0,0,1-33.522,33.522H288.987A33.519,33.519,0,0,0,255.466,524V863.3A1686.586,1686.586,0,0,1,40.854,795.568a30.043,30.043,0,0,0-10.911-2.062h0A29.953,29.953,0,0,0,.024,824.695a150.587,150.587,0,0,0,18.692,66.267A141.109,141.109,0,0,0,50.8,929.7a164.557,164.557,0,0,0,42.186,25.559,28.765,28.765,0,0,0-3.859,16.162,122.471,122.471,0,0,0,16.524,54.366c15.4,26.15,39.647,44.776,72.077,55.364,4.916,1.62,10.328,3.319,16.138,5.069a28.6,28.6,0,0,0-3.083,16.6,122.491,122.491,0,0,0,19.512,53.369c12.472,18.728,29.592,33.049,51.043,42.781,40.861,292.061,290.177,518.711,593.185,519.665,305.274.962,557.8-225.692,597.493-519.866,21.235-9.724,38.213-23.974,50.606-42.58a122.493,122.493,0,0,0,19.512-53.369,28.6,28.6,0,0,0-3.083-16.6c5.826-1.758,11.258-3.461,16.189-5.085,32.378-10.572,56.629-29.2,72.022-55.348a122.364,122.364,0,0,0,16.524-54.37,28.689,28.689,0,0,0-3.855-16.158,164.251,164.251,0,0,0,42.182-25.559,141.123,141.123,0,0,0,32.091-38.737,150.64,150.64,0,0,0,18.693-66.267,30.088,30.088,0,0,0-8.31-21.964M961.348,172.362a11.1,11.1,0,0,0-3.559-.674c-2.306.016-4.616,0-6.922.051a12.337,12.337,0,0,0-2.14.367,3.51,3.51,0,0,0-1.88,1.052c-.5.52-.966,1.08-1.466,1.612a3.544,3.544,0,0,1-2.59,1.167c-1.447.032-2.9.095-4.36.047a2.516,2.516,0,0,1-2.357-2.357c-.032-.363-.063-.725-.067-1.088-.02-2.176-.039-4.372-.043-6.555a12.812,12.812,0,0,1,.091-1.451,2.831,2.831,0,0,1,2.077-2.29,13.26,13.26,0,0,1,4.316-.371,100.665,100.665,0,0,0,11.278.422c5.586-.032,11.167-.028,16.757-.055,1.45,0,2.913-.075,4.367-.1.607,0,1.21,0,1.817.039a2.353,2.353,0,0,1,2.121,2.144c.075,1.935.067,3.883.063,5.822a3.882,3.882,0,0,1-.682,2.054c-.323.512-.678,1-1.041,1.49q-3.228,4.4-6.48,8.794c-.576.78-1.171,1.545-1.762,2.318-1.037,1.348-2.121,2.657-3.106,4.04-2.468,3.457-4.9,6.946-7.336,10.422a48.379,48.379,0,0,1-4.47,5.739,9.943,9.943,0,0,0-2.318,3.658,2.37,2.37,0,0,0,1.758,3.067,3.842,3.842,0,0,0,.725.13q4.908.29,9.811.572a7.134,7.134,0,0,0,1.451-.043,5.014,5.014,0,0,0,3.461-1.8c.071-.095.142-.193.221-.284,1.778-2.219,2.294-2.223,5.014-2.219.851,0,1.7.028,2.546.1a2.555,2.555,0,0,1,2.113,2.2c.024.244.047.485.055.725.071,2.306.146,4.612.2,6.914,0,.485,0,.97-.036,1.451a2.375,2.375,0,0,1-2.1,2.164c-.6.051-1.206.051-1.817.051H957.217l-.012.055h-9.831c-2.791,0-5.582.032-8.376.032a11.177,11.177,0,0,1-1.451-.11,1.975,1.975,0,0,1-1.447-1.474,8.9,8.9,0,0,1-.138-1.447c.016-1.21.083-2.416.13-3.638a9.337,9.337,0,0,1,1.569-4.785c.4-.6.832-1.206,1.269-1.774q3.654-4.778,7.312-9.535c.374-.485.765-.95,1.088-1.451a76.721,76.721,0,0,1,5.247-6.985,42.553,42.553,0,0,0,3.382-4.738,50.007,50.007,0,0,1,4.45-6.208,31.768,31.768,0,0,0,2.093-2.972,3.482,3.482,0,0,0,.5-1.73,2.494,2.494,0,0,0-1.652-2.558m-87.892-5.3c.071-.966-.035-1.932.016-2.9a2.414,2.414,0,0,1,1.652-2.192,4.066,4.066,0,0,1,1.4-.335c2.547-.035,5.093-.059,7.643-.02a4.3,4.3,0,0,1,3.863,2.3,13.419,13.419,0,0,1,.678,1.289,41.947,41.947,0,0,0,3.055,5.369,30.928,30.928,0,0,1,2.55,4.817c1.932,4.454,4.163,8.759,6.394,13.067a11.49,11.49,0,0,0,2.05,2.984,7.512,7.512,0,0,0,1.151.875,1.425,1.425,0,0,0,1.9-.481,4.718,4.718,0,0,0,.461-.978,11.6,11.6,0,0,0,.5-3.224q-.012-4.547.02-9.1a16.773,16.773,0,0,0-.465-3.6,3.949,3.949,0,0,0-1.427-2.475,5.72,5.72,0,0,1-2.349-5.4c.047-.721-.016-1.447.012-2.172a5.822,5.822,0,0,1,.185-1.072,2.449,2.449,0,0,1,1.794-1.632,15.436,15.436,0,0,1,1.809-.122c3.761.016,7.521.051,11.282.087a6.531,6.531,0,0,1,.725.067,2.469,2.469,0,0,1,2.117,2.172c.059,1.573.059,3.142.051,4.726a3.27,3.27,0,0,1-1.021,2.271,10.872,10.872,0,0,1-1.411,1.139,4.483,4.483,0,0,0-1.663,3.122,8.5,8.5,0,0,0-.059,1.451v13.824c0,5.46.075,10.915-.114,16.371a34.582,34.582,0,0,0,.406,7.249,12.793,12.793,0,0,1-.315,4.691,2.885,2.885,0,0,1-2.152,2.235,3.769,3.769,0,0,1-1.068.181c-1.206.028-2.416.071-3.638,0a3.744,3.744,0,0,1-3.291-1.955c-1.033-1.935-1.872-3.946-2.96-5.834a61.347,61.347,0,0,1-3.161-5.728,96.117,96.117,0,0,0-4.726-9.019,31.591,31.591,0,0,1-2.255-4.557,15.221,15.221,0,0,0-.753-1.656,5.349,5.349,0,0,0-1.892-2.156,1.618,1.618,0,0,0-2.389.8,4.342,4.342,0,0,0-.288,1.041c-.075,1.088-.1,2.176-.134,3.272-.1,3.757.288,7.517-.142,11.274a7.623,7.623,0,0,0,.3,2.148,3.02,3.02,0,0,0,.855,1.577c.591.607,1.234,1.163,1.794,1.8a3.62,3.62,0,0,1,.982,2.3c.039,1.328.059,2.657,0,4a3.038,3.038,0,0,1-2.558,2.692,16.673,16.673,0,0,1-2.172.118q-5.1-.018-10.19-.075a7.076,7.076,0,0,1-1.08-.118,2.51,2.51,0,0,1-1.876-2.014c-.024-1.817,0-3.623.055-5.452a2.707,2.707,0,0,1,.7-1.648,9.149,9.149,0,0,1,1.289-1.273,5.792,5.792,0,0,0,2.172-4.8c0-1.691-.02-3.394-.075-5.093-.087-3.39-.229-6.784,0-10.71v-6.749q0-3.276-.016-6.551a13.269,13.269,0,0,0-.059-1.813A4.726,4.726,0,0,0,876,172.315a3.135,3.135,0,0,0-.284-.229,5.03,5.03,0,0,1-2.255-5.026m-30.688,34.491c-.13-3.157-.118-6.311,0-9.464.154-4.245.28-8.495.016-12.744-.071-1.206,0-2.428-.047-3.638a5.321,5.321,0,0,0-1.711-3.891,15.857,15.857,0,0,1-1.3-1.277,3.982,3.982,0,0,1-1.029-2.286,30.734,30.734,0,0,1,0-4,2.916,2.916,0,0,1,2.673-2.558c.725-.047,1.451-.047,2.176-.051h4.368v0h4.738a10.3,10.3,0,0,1,1.809.1,2.614,2.614,0,0,1,2.176,1.723,4.31,4.31,0,0,1,.335,2.133c-.032.244-.079.485-.114.725-.485,3.4.4,3.422-3,6.208a5.116,5.116,0,0,0-1.49,3.973,4.16,4.16,0,0,0,.095,1.084,12.029,12.029,0,0,1,.032,3.627c-.154,1.932-.146,3.875-.173,5.818-.012,1.332.106,2.673.043,4-.166,3.52-.106,7.04.024,10.556.083,2.3.311,4.588.481,6.894a3.852,3.852,0,0,0,1.521,2.795c.284.229.564.461.863.666a4.067,4.067,0,0,1,1.644,2.744,9.364,9.364,0,0,1-.453,5.369,1.729,1.729,0,0,1-1.352,1.1,9.222,9.222,0,0,1-1.805.138,45.468,45.468,0,0,0-8.349.378,15.928,15.928,0,0,1-3.272.055,3.306,3.306,0,0,1-3.142-3c-.055-.6-.083-1.206-.091-1.817-.036-3.142-.107-3.623,2.334-5.724a5.368,5.368,0,0,0,1.663-2.759,9.3,9.3,0,0,0,.39-2.507c0-1.451,0-2.913-.051-4.368m-58.947-37.424a2.249,2.249,0,0,1,1.908-1.486c.966-.079,1.932-.087,2.9-.095a34.122,34.122,0,0,0,5.073-.28,28.185,28.185,0,0,1,4-.177c2.172-.032,4.372-.02,6.555-.039a23.64,23.64,0,0,1,4.718.272,11.77,11.77,0,0,0,4.348.016,30.839,30.839,0,0,1,5.814-.2,3.025,3.025,0,0,1,.725.114,2.84,2.84,0,0,1,2.219,2.172,2.932,2.932,0,0,1,.138.71q.03,4.009.028,8.018a3.725,3.725,0,0,1-.682,2.042,2.212,2.212,0,0,1-1.451,1.029,18.915,18.915,0,0,1-5.44.063,2.666,2.666,0,0,1-1.573-.855c-.509-.516-.966-1.08-1.431-1.644a4.429,4.429,0,0,0-3.449-1.766q-3.465-.106-6.922-.142a5.231,5.231,0,0,0-1.439.193,2.969,2.969,0,0,0-2.1,1.853,6.292,6.292,0,0,0-.434,3.209,14.094,14.094,0,0,1-.091,5.077,5.738,5.738,0,0,0,.548,3.189,2.166,2.166,0,0,0,1.313,1.21,4.143,4.143,0,0,0,2.858,0,3.3,3.3,0,0,0,1.194-.792c.583-.615,1.056-1.332,1.62-1.963a2.449,2.449,0,0,1,1.6-.792,23,23,0,0,1,5.073.181,2.768,2.768,0,0,1,2.267,2.511c0,.122.024.24.028.363q.035,5.836.063,11.66a8.342,8.342,0,0,1-.106,1.084,2.653,2.653,0,0,1-2.208,2.121c-.24.028-.481.047-.725.055-.6,0-1.206-.043-1.817,0a5.758,5.758,0,0,1-5.408-2.373,3.556,3.556,0,0,0-3.623-1.19,2.734,2.734,0,0,0-2.251,2.1,12.585,12.585,0,0,0-.189,2.176,18.915,18.915,0,0,1-.382,5.073,4.717,4.717,0,0,0-.075,1.451,7.309,7.309,0,0,0,.241,1.427,3.28,3.28,0,0,0,2.491,2.4,5.324,5.324,0,0,0,1.451.2c2.416,0,4.856,0,7.285-.012.244-.012.485-.032.725-.067a3.923,3.923,0,0,0,2.535-1.3c.485-.544.9-1.143,1.384-1.691a3.184,3.184,0,0,1,2.192-1.187c1.573-.1,3.142-.13,4.722-.106a2.634,2.634,0,0,1,2.211,2.121,9.133,9.133,0,0,1,.087,1.088q.041,3.642.063,7.285c0,.363-.02.725-.043,1.092a2.215,2.215,0,0,1-2.129,2.085c-.244.02-.485.043-.725.047l-16.394.028,0,.1c-2.913-.055-5.826-.134-8.739-.162-2.066-.02-4.127.035-6.193.047-.725,0-1.451,0-2.176-.043a2.5,2.5,0,0,1-2.2-1.656,3.305,3.305,0,0,1-.359-1.025c-.075-1.447-.118-2.9-.11-4.348a2.233,2.233,0,0,1,.773-1.6c.619-.572,1.3-1.084,1.971-1.6a4,4,0,0,0,1.593-3.142c.02-.363.035-.725.031-1.092q-.047-7.651-.1-15.3c0-.966-.043-1.932.024-2.9.272-3.883.055-7.769.039-11.656a11.635,11.635,0,0,0-.13-1.813,5.235,5.235,0,0,0-1.4-2.9c-.43-.426-.9-.82-1.309-1.265a6.409,6.409,0,0,1-.855-1.171,8.029,8.029,0,0,1-.146-6.011M723.512,215.94a4.409,4.409,0,0,1,1.742-3.812c.39-.3.745-.619,1.119-.934a4.733,4.733,0,0,0,1.652-3.56c.016-.363.035-.725.039-1.088,0-.607.024-1.21,0-1.825a79.635,79.635,0,0,1-.122-11.353c.067-5.767.118-10.139.166-14.5q0-1.277-.039-2.55a4.749,4.749,0,0,0-2.077-4.04,9.127,9.127,0,0,1-1.38-1.179,2.848,2.848,0,0,1-.895-1.932c-.016-1.451-.016-2.917.059-4.372a2.936,2.936,0,0,1,2.511-2.724,4.975,4.975,0,0,1,.725-.079c3.4,0,6.8,0,10.2-.028a7.441,7.441,0,0,1,3.177.69,2.231,2.231,0,0,1,1.3,1.652,13.98,13.98,0,0,1,.028,5.073,2.838,2.838,0,0,1-.848,1.577c-.607.6-1.25,1.151-1.861,1.742a3.708,3.708,0,0,0-1.06,1.872,12.484,12.484,0,0,0-.453,3.236c.039.966.039,1.932.016,2.913a12.291,12.291,0,0,0,.548,3.587,3.141,3.141,0,0,0,2.2,2.243,9.154,9.154,0,0,0,2.137.441c2.172.11,4.364.162,6.547.189a5.471,5.471,0,0,0,1.415-.307,3.2,3.2,0,0,0,2.3-2.57,3.161,3.161,0,0,0,.1-.721c0-2.673.012-5.341-.016-8.01a4.747,4.747,0,0,0-.292-1.419,3.268,3.268,0,0,0-.985-1.5,5.065,5.065,0,0,0-.887-.639,4.026,4.026,0,0,1-2.156-4.253c.067-.966.02-1.935.091-2.9a3.221,3.221,0,0,1,3.114-3c.725-.047,1.451-.051,2.176-.039,2.913.055,5.826.138,8.739.185a6.368,6.368,0,0,1,2.818.607,2.2,2.2,0,0,1,1.029.993,6.209,6.209,0,0,1,.528,1.352,9.183,9.183,0,0,1,0,3.623,4.482,4.482,0,0,1-1.332,2.539c-.54.481-1.108.946-1.644,1.447a4.656,4.656,0,0,0-1.549,4.281,46.635,46.635,0,0,1,.284,7.99c-.035,3.642.012,7.285.051,10.927a57.359,57.359,0,0,1-.4,10.174,7.822,7.822,0,0,0,.607,3.922,3.231,3.231,0,0,0,.82,1.179c.619.576,1.352,1.033,1.959,1.62a2.647,2.647,0,0,1,.725,1.23,17.728,17.728,0,0,1,.544,4.32,4.931,4.931,0,0,1-.513,2.1,2.141,2.141,0,0,1-1.695,1.21,6.639,6.639,0,0,1-1.084.095q-5.824-.1-11.656-.217a2.262,2.262,0,0,1-.363-.02,3.187,3.187,0,0,1-3.11-3.362,15.529,15.529,0,0,1,.355-3.248,4.5,4.5,0,0,1,1.565-2.787,12.133,12.133,0,0,0,1.108-.95,4.167,4.167,0,0,0,1.183-2.6c.047-.481.043-.966.047-1.451.024-1.691.039-3.4.059-5.1,0-.485.016-.966,0-1.451a3.256,3.256,0,0,0-2.96-3.54,7.173,7.173,0,0,0-1.451-.162c-2.062-.016-4.127,0-6.189,0a7.96,7.96,0,0,0-2.5.481,3.231,3.231,0,0,0-2.219,2.657,5.378,5.378,0,0,0-.107,1.809,66.015,66.015,0,0,1,.509,6.886,3.82,3.82,0,0,0,.106.729,2.83,2.83,0,0,0,.887,1.557c.635.56,1.332,1.045,1.975,1.6a2.379,2.379,0,0,1,.816,1.585,23.3,23.3,0,0,1-.17,5.444,2.627,2.627,0,0,1-2,1.9,6.741,6.741,0,0,1-1.088.083c-3.65-.154-7.281.193-10.919.351a6.545,6.545,0,0,1-2.5-.359,2.224,2.224,0,0,1-1.5-1.884,7.206,7.206,0,0,1-.095-1.088c0-.851.043-1.691.028-2.55m-52.864-51.548a3,3,0,0,1,2.192-2.2,9.364,9.364,0,0,1,1.451-.138q5.457-.012,10.911,0a5.285,5.285,0,0,1,1.088.079,2.755,2.755,0,0,1,2.156,1.754,6.878,6.878,0,0,1,.457,1.746,23.753,23.753,0,0,1,.095,2.9,4.058,4.058,0,0,1-1.328,2.9c-.442.41-.938.761-1.411,1.139a4.036,4.036,0,0,0-1.526,3.169c-.028.848-.039,1.691-.016,2.546.091,3.516.016,7.032.024,10.548,0,5.456.036,10.911-.134,16.367a28.2,28.2,0,0,0,.158,3.264,4.348,4.348,0,0,0,.382,1.391,2.764,2.764,0,0,0,1.833,1.636,5.524,5.524,0,0,0,1.786.327c1.951-.134,3.867.3,5.787.359.367,0,.725.016,1.092,0a4.211,4.211,0,0,0,3.662-2.014c1.388-2.416,2.452-2.452,4.813-2.416.966,0,1.932.039,2.9.13a2.777,2.777,0,0,1,2.472,2.7v.363q.024,3.82.036,7.635a9.9,9.9,0,0,1-.095,1.084,2.4,2.4,0,0,1-1.9,1.959,24.79,24.79,0,0,1-2.539.154c-2.9,0-5.822-.032-8.727-.043H689.71l.02.039q-8-.089-16-.185a6.212,6.212,0,0,1-1.08-.126,2.073,2.073,0,0,1-1.451-1.021,4.392,4.392,0,0,1-.643-1.671,16.7,16.7,0,0,1,.083-3.26,4.252,4.252,0,0,1,1.931-3.347,4.774,4.774,0,0,0,2.3-4.628c-.059-3.027-.036-6.063-.114-9.094a68.818,68.818,0,0,1,.367-10.887,20.3,20.3,0,0,0,.122-2.543c.016-2.176.028-4.364,0-6.547a23.494,23.494,0,0,0-.217-2.527,4.573,4.573,0,0,0-2.188-3.595,6.977,6.977,0,0,1-.875-.65,2.374,2.374,0,0,1-.911-1.526c-.2-1.561-.367-3.126-.513-4.7a3.977,3.977,0,0,1,.106-1.076m-54.76,26.166a78.633,78.633,0,0,0-.465-11.274c-.122-1.08-.1-2.172-.126-3.272a4.589,4.589,0,0,0-1.766-3.816,7.259,7.259,0,0,1-1.064-.993,3.16,3.16,0,0,1-.895-1.947c-.028-1.577-.051-3.157.036-4.726a2.662,2.662,0,0,1,2.365-2.4c.6-.059,1.21-.118,1.813-.118,2.9,0,5.826.047,8.743.067h3.642l.008.1c1.817-.039,3.642-.035,5.459-.134,2.677-.146,5.341.063,8.01.1a4.928,4.928,0,0,1,3.595,1.526c1.423,1.49,2.779,3.051,4.107,4.628A5.093,5.093,0,0,1,650.607,172c-.244,3.623.138,7.285-.371,10.911a20,20,0,0,0-.051,2.172c-.035,1.092-.024,2.176-.138,3.276a28.8,28.8,0,0,0,.24,7.249,29.225,29.225,0,0,1-.043,8.7,9.7,9.7,0,0,0,.355,4.675,3.756,3.756,0,0,0,1.21,1.77,8.677,8.677,0,0,0,.891.631,4.5,4.5,0,0,1,2.058,3.674,19.657,19.657,0,0,1,.043,3.268,5,5,0,0,1-.544,1.719,2.946,2.946,0,0,1-2.274,1.62,1.914,1.914,0,0,1-.363.051,83.606,83.606,0,0,1-12.72-.544,3.586,3.586,0,0,1-.355-.091,1.886,1.886,0,0,1-1.486-1.451q-.361-2.152-.528-4.332a3.307,3.307,0,0,1,.832-2.353,13.526,13.526,0,0,1,1.565-1.514,5,5,0,0,0,1.727-3.5c.02-.24.043-.485.043-.725-.02-2.066-.036-4.127-.071-6.193a8.941,8.941,0,0,0-.166-1.447,3.93,3.93,0,0,0-3.177-3.126,6.618,6.618,0,0,0-1.08-.122c-2.066,0-4.131.028-6.2.047a7.779,7.779,0,0,0-2.476.552,3.275,3.275,0,0,0-2.2,2.673,11.176,11.176,0,0,0-.095,2.176c.016,1.581.055,3.157.106,4.734a11.524,11.524,0,0,0,.177,1.8,4.345,4.345,0,0,0,1.6,2.775c.386.3.765.6,1.139.907a3.388,3.388,0,0,1,1.376,2.838c-.055,1.451-.083,2.913-.2,4.364a2.938,2.938,0,0,1-2.7,2.535c-.725.036-1.451.024-2.176.024q-4.547,0-9.106-.032c-.6,0-1.206-.016-1.813-.075a2.532,2.532,0,0,1-2.073-2.235c0-1.573.024-3.153.154-4.726A3.96,3.96,0,0,1,613,212.124a14.016,14.016,0,0,1,1.1-.95,4.4,4.4,0,0,0,1.628-3.142,20.651,20.651,0,0,0,.095-3.276c-.217-4.734-.055-9.464.063-14.2m-7.505,362.029c-.051,1.182-14.447,37.093-19.221,49.053q-2.141,5.339-4.3,11.049t-3.985,11.384q-1.59,4.594-2.759,8.889a66.487,66.487,0,0,0-1.778,8.976q-1.005,6.073.445,8.2c.97,1.423,2.4,1.742,4.308.981q3.524-1.419,7.237-6.141a104.109,104.109,0,0,0,16.733-26.462c9.571-16.741,34.062-93.556,37.057-96.331s12.988,5.55,9.334,17.1c-1.829,4.576-17.033,46.553-18.917,51.938s-3.634,10.832-5.251,16.335q-1.8,5.753-3.627,11.376a35.549,35.549,0,0,0-1.88,10.611q.053,5.446,3.331,4.04c2.042-.875,4.513-3,7.415-6.413a116.6,116.6,0,0,0,9.043-12.389q4.683-7.279,9.575-15.8c2.14-3.737,4.151-7.359,6.063-10.9q.544-1.378,1.12-2.787,2.69-6.569,5.373-12.661c1.794-4.06,3.564-7.659,5.054-10.923,22.461-49.135,16.666-58.789,24.94-52.908a11.5,11.5,0,0,1,3.37,4.2,13.707,13.707,0,0,1,1.5,5.455,13.9,13.9,0,0,1-.993,6.122c-1.1,2.866-6.272,15.905-6.346,16.272a4.726,4.726,0,0,1-.445,1.21c1.135-1.36,9-16.922,11.96-22.169s5.964-10.608,9.027-16.091q5.475-10.655,12.184-13.867c4.908-2.345,13.726-1.155,15.689,8.124a31.984,31.984,0,0,1,.824,5.664,40.48,40.48,0,0,1-.229,5.787c-.213,1.868,13.706-25.926,19.264-32.162,5.16-5.787,12.212-3.662,13.966-3a16.156,16.156,0,0,1,4.722,2.763q4.228,3.766,3.268,11.069a67.714,67.714,0,0,1-2.3,10.864q-1.62,5.481-3.544,10.706-3.832,9.443-7.505,19.055t-6.973,19.272q-1.484,3.991-2.586,7.549T756.6,562.86c-.039.524-.122,1.4-.233,2.633a10.233,10.233,0,0,0,.166,3.327c.229.989.623,1.7,1.277,1.912,4.289,1.4,26.6-21.5,39.1-71.407,10.73-72.881,57.973-126.846,65.577-165.03,9.906-49.727-7.1-56.641-3.666-60.492,3.713-4.167,34.365,28.015,1.005,98.283-21.191,44.634-44.567,98.038-48.891,129.144-4.5,32.371-.721,52.368,12.212,37.57,12.279-14.053,21.684-39.718,21.743-40.172s-.3-.907-1.041-1.392c-.434-.465-2.712-1.707-3.753-2.736q-5.517-5.162-6.78-14.829a70.465,70.465,0,0,1,.465-20.415,92.8,92.8,0,0,1,5.98-20.975,64.505,64.505,0,0,1,9.729-16.729c5.479-6.544,10.521-5.424,13.426-5.329s10.8,2.093,11.4,11.96a62.678,62.678,0,0,1-.359,12c-.5,4.064-1.242,8.219-1.924,12.512-2.586,16.244-11.305,39.036-11.522,39.478,3.378-.639,8.132-3.422,11.778-7.068a93.293,93.293,0,0,0,10.351-12.425q4.884-6.953,8.909-14T897.7,447.3a5.021,5.021,0,0,1,.378-.666c1.344-3.213,18.755-42.162,15.9-51.757-1.514-2.692-1.384-7.048-1.08-9.91s.8-6.07,1.506-9.638,1.533-7.233,2.511-11.014,2.267-7.182,3.37-10.41c10.58-31,18.59-17.738,16.919-6.342q-2.271,11.016-4.884,21.046c-1.746,6.689-6.035,24.065-6.579,25.173q4.712-3.536,8.235-6.5a34.058,34.058,0,0,1,7.2-4.718,22.919,22.919,0,0,1,4.789-1.648c5.68-1.325,15.074,1.372,10.131,14.266a95.916,95.916,0,0,1-5.168,11.991c-13.674,25.11-20.218,46.467-21.542,52.525a60.13,60.13,0,0,0-1.727,14.944c.181,3.9,1.143,5.85,2.909,5.85q2.211.213,5.877-4.218a99.665,99.665,0,0,0,7.86-11.262q4.192-6.835,8.475-14.845t7.888-15.314c2.4-4.86,21.858-55.557,39.064-75.026a34.018,34.018,0,0,1,11.629-8.475,24.985,24.985,0,0,1,8.148-2.16,20.432,20.432,0,0,1,8.684,1.183,7.541,7.541,0,0,1,5.262,6.153,26.364,26.364,0,0,1-.331,10.04,58.251,58.251,0,0,1-3.406,10.777q-2.259,5.327-3.906,8.6-2.519,4.689-6.059,10.726a127.11,127.11,0,0,1-7.852,11.818,94.37,94.37,0,0,1-9.11,10.517,35.712,35.712,0,0,1-10.008,7.158,17.308,17.308,0,0,1-10.671,1.659s-8.234,23.285-1.2,31.314c2.684,3.059,14.636,12.1,39.825-26.872,3.221-4.979,6.469-10.162,9.618-15.633s6.027-10.686,8.648-15.657,4.868-9.468,6.741-13.5c.56-1.206,1.064-2.3,1.533-3.311.075-.343.15-.674.233-1.017q2.211-6.037,4.367-11.8a77.382,77.382,0,0,1,5.243-11.152q1.484-2.921,4.135-7.612t5.645-9.39q3-4.7,6.031-8.767c2.022-2.712,16.008-20.856,26.513-24.175a22.751,22.751,0,0,1,10.69-1.049,16.953,16.953,0,0,1,9.24,4.131c4.916,4.781.386,16.982-.028,18.661a101.364,101.364,0,0,1-5.353,12.224c-8.763,17.4-15.641,25.985-16.781,27.3-7.588,8.227-19.694,2.093-13.32-2.523a25.649,25.649,0,0,0,5.089-5.042,89.167,89.167,0,0,0,6.1-8.475q3.092-4.819,6.145-10.359t5.408-10.411a81.4,81.4,0,0,0,3.626-8.782c2.941-8.4.946-12.618-3.63-9.508a85.732,85.732,0,0,0-20.332,20.222,196.228,196.228,0,0,0-15.342,25.2,120.588,120.588,0,0,0-8.373,17.9q-3.412,9.206-5.972,18.933a34.381,34.381,0,0,0-.24,12.015,24,24,0,0,0,3.347,9.3c1.6,2.428,3.591,4.147,6.094,4.565,17.644,2.937,53.874-61.213,56.542-64.9,14.088-19.473,49.041-113.956,52.332-129.211,10.69-49.569-6.067-53.29-2.633-57.141,3.508-3.93,30.565,27,6.465,89.922-1.115,2.913-15.094,42.667-19.437,52.47.816-.635,4.517-8.321,11.865-18.389q6.894-10.761,14.013-13.245c5.038-1.758,10.714-.808,14.1,4.892a24.446,24.446,0,0,1,2.87,13.509,53.25,53.25,0,0,1-3.414,14.908,163,163,0,0,1-7.024,15.941q-4.122,8.2-7.73,16.509-2.708,5.978-5.042,10.962t-4.261,10.206c-3.181,9.7-3.54,11.857-1.987,13.276,4.856,3.709,15.369-8.9,19.268-13.879a183.934,183.934,0,0,0,12.046-17.6q6.2-10.123,12.259-21.373c3.981-7.375,6.618-9.665,11.5-20.935s24.664-58.505,25.2-59.652c-1.951.572-17.782,5.629-20.383,6.157a35.608,35.608,0,0,1-7.762.721,18.019,18.019,0,0,1-7.056-1.431c-9.22-4.072-7.829-11.356-4.994-11.25a142.524,142.524,0,0,0,44.764-10.872,6.033,6.033,0,0,0,4.1-4.131q.751-1.939,1.332-3.587a18,18,0,0,1,1.447-3.122q2.212-6.049,4.648-12.149c1.624-4.064,7.722-19.414,11.743-27.274,1.32-2.913,4.919-6.642,7.545-5.664,3.075,1.525,5.274,5.952,6.741,12.409.915,6.465-3.169,4.6-13.655,32.516.055.233.106.465.161.7,2.188-.576,17.805-7.876,29.931-7.466,12.366.414,17.837,7.911,17.624,9.76q1.076,4.659-3.233,3.7c-1.525-.374-3.011-1.1-4.58-1.116-17.683-.173-48.323,14.2-48.323,14.2-1.052,3.09-31.405,71.876-36.683,89.031-6.654,21.617-4.714,35.3,3.6,32.351,10.746-3.8,16.765-9.051,33.47-40.893,2.684-5.117,13.875-26.186,17.1-31.649q1.153-2.282,2.515-2.637a1.839,1.839,0,0,1,2.188,1.151,2.809,2.809,0,0,1-.035,2.964c-3.623,6.544-26.288,53.373-36.514,64.745q-1.36,1.407-3.422,3.4a37.548,37.548,0,0,1-4.651,3.792,40.662,40.662,0,0,1-5.732,3.288,22.194,22.194,0,0,1-6.437,1.8c-16.9,2.424-25.39-12.389-19.008-34.858q-4.346,8.177-9.129,16.473c-4.293,7.454-8.664,14.455-13.2,20.939-15.645,22.354-21.57,20.253-23.809,20.249a18.807,18.807,0,0,1-4.707-1.135,13.68,13.68,0,0,1-7.9-10.844,48.33,48.33,0,0,1,1.348-13.442,111.465,111.465,0,0,1,5.042-16.189q3.323-8.509,6.879-16.568t6.819-14.735q3.27-6.67,4.853-10.233c.6-1.541,3.82-7.537,3.433-14.833-.067-1.238-.418-1.983-1.12-2.239-1.285-.713-3.579.623-6.875,4.044a139.955,139.955,0,0,0-10.482,12.4q-5.534,7.273-10.426,14.743c-3.26,4.975-5.574,8.656-6.953,11.014-29.71,67.28-23.221,74.959-29.209,77.88s-10.533-3.528-11.767-7.482-.339-9.835,2.673-17.616q3.358-10.43,6.236-17.762c-.449.686-.895,1.368-1.324,2.034-1.833,2.842-14.577,24.01-16.729,27.514s-4.092,6.768-6.082,9.6c-13.674,19.418-21.038,21.68-23.371,22.686a16.584,16.584,0,0,1-6.871,1.455,37.147,37.147,0,0,1-6.91-.788q-7.929-2.1-11.573-6.95a23.023,23.023,0,0,1-4.36-11.633,51.471,51.471,0,0,1,0-10.221q-2.974,6.1-6.429,12.571c-2.968,5.554-5.609,10.923-8.645,15.673-30.762,48.118-50.223,40.455-56.652,33.108-11.621-13.288-6.311-28.969-6.019-31.464-.978,2.129-1.987,4.328-3.059,6.638q-3.855,8.3-8.384,17.321t-9.3,17.017a110.8,110.8,0,0,1-9.654,13.9q-4.89,5.907-9.429,8.089-5.41,2.607-9.539-.737-11-10.2-6.22-27a97.8,97.8,0,0,1,4.139-13.32c1.987-5.282,28.559-59.112,26.351-60.878q-1.933-2.129-6.91.252-5.191,2.5-10.891,9.054c-.256.3-48.493,159.484-63.232,180.167-8.558,12.011-21.948,3.15-16.071-4.454,17.12-22.173,43.53-96.919,48.568-113.479-.241.351-7.084,11.581-7.328,11.932-3.071,4.383-6.216,8.609-10.107,11.92-10.442,8.877-16.583,8.861-16.583,8.861a6.977,6.977,0,0,0-1.277,2.274c-.982,2.006-5.783,22.011-26.1,43.187-18.188,18.953-27.991,4.951-30.475-.26a59.609,59.609,0,0,1-4.182-23.576s-26.478,69.625-50.744,64.6c-2.231-.461-3.9-2.14-4.955-5.337a30.029,30.029,0,0,1-.808-14.983,92.876,92.876,0,0,1,4.762-16.887q3.3-8.627,7.371-17.025t6.815-15.275c.221-.437.678-1.589,1.372-3.437s1.439-3.812,2.247-5.889,1.482-4,2.03-5.787a16.742,16.742,0,0,0,.776-2.905,38.977,38.977,0,0,0,1.707-6.141,34.453,34.453,0,0,0,.714-6.287,16.118,16.118,0,0,0-.481-4.7c-.351-1.175-1.045-1.549-2.038-1.033-5.743,2.988-43.487,76.464-57.543,115.844-1.1,3.079-1.979,6.185-3.051,9.185a4.853,4.853,0,0,0-.441,1.21c-.079.367-.41.69-.982.954a7.238,7.238,0,0,1-3.457-.918,21.98,21.98,0,0,1-3.39-2.2,8.843,8.843,0,0,1-2.519-3.106,8.434,8.434,0,0,1-.887-3.851,6.478,6.478,0,0,1-.012-1.624,10.808,10.808,0,0,1,.536-2.377c7.6-24.022,38.78-81.408,34.976-94.361q-.367-1.591-2.1-.765a13.889,13.889,0,0,0-4.423,3.749,55.661,55.661,0,0,0-4.277,5.944q-2.022,3.222-3.69,6.41t-2.606,5.385c-34.893,59.881-37.637,100.691-50.07,106.431-9.906,4.573-12.362-11.1-8.648-19.157,0-.016-6.993,10.891-9.472,14.68a130.056,130.056,0,0,1-10.17,13.737q-4.931,5.729-8.869,7.4a6.432,6.432,0,0,1-5.393.055,12.735,12.735,0,0,1-4.541-3.536,24.684,24.684,0,0,1-3.4-5.385,26.53,26.53,0,0,1-1.935-5.258c-.662.615-6.287,9.9-7.888,12.7s-3.465,5.8-5.617,8.991a25.154,25.154,0,0,1-4.758,4.9c-6.484,4.7-12.547,4.813-15.31,3.946a14.574,14.574,0,0,1-6.977-4.738,17.244,17.244,0,0,1-4.2-8.31A64.042,64.042,0,0,1,566.9,614.55c2.211-6.394,18.511-44.843,28.535-68.6,1.258-3.22,3.221-3.8,8.786-2q5.96,1.892,4.155,8.645M555.907,211.923a12.8,12.8,0,0,1,1.258-.721,5.214,5.214,0,0,0,2.751-3.646c.268-1.06.548-2.121.725-3.193a48.957,48.957,0,0,1,1.328-5.661c1.009-3.623,2.014-7.249,2.945-10.872.481-1.876.753-3.8,1.19-5.692.658-2.83,1.4-5.645,2.29-8.416a36.006,36.006,0,0,0,1.861-8.132,5.146,5.146,0,0,1,.67-2.062,3.022,3.022,0,0,1,2.594-1.746c1.573-.063,3.142-.032,4.726.051a3.511,3.511,0,0,1,3.126,2.645c.323,1.167.6,2.349.816,3.54.343,1.912.875,3.772,1.4,5.645a29.614,29.614,0,0,1,1.052,4.6,23.348,23.348,0,0,0,.65,2.83c.146.587.367,1.155.493,1.746.836,3.914,1.738,7.8,2.917,11.629.56,3.6,1.624,7.084,2.468,10.619.225.942.485,1.876.792,2.8a5.224,5.224,0,0,0,2.7,3.268,11.761,11.761,0,0,1,1.581.891,3.037,3.037,0,0,1,1.4,2.416c.039,1.336,0,2.661,0,4a2.5,2.5,0,0,1-.126.725,2.808,2.808,0,0,1-2.334,2.034c-.481.047-.966.079-1.447.083a49.141,49.141,0,0,0-5.8.363,47.453,47.453,0,0,1-5.077.106,2.217,2.217,0,0,1-.363-.032,3.629,3.629,0,0,1-3.3-4.068c.028-.725.256-1.439.284-2.164a5.564,5.564,0,0,1,1.742-3.879,8.422,8.422,0,0,0,.721-.824,3.562,3.562,0,0,0-2.306-5.605,31.566,31.566,0,0,0-6.9.012,3.4,3.4,0,0,0-2.834,2.01,3.178,3.178,0,0,0,.185,3.118,3.361,3.361,0,0,0,.646.875,5.234,5.234,0,0,1,1.616,4.616c-.079,1.206-.059,2.416-.138,3.627a2,2,0,0,1-1.64,1.723,17.3,17.3,0,0,1-1.809.134c-1.691.016-3.4,0-5.093,0l-.039-.055h-5.093a13.885,13.885,0,0,1-1.809-.154,2.332,2.332,0,0,1-1.872-1.975c-.091-1.691-.146-3.382-.146-5.073a2.479,2.479,0,0,1,1.19-2.14M499.94,182.84c0-1.691,0-3.4-.039-5.1a16.682,16.682,0,0,0-.24-2.164,5.357,5.357,0,0,0-2.125-3.682,8.339,8.339,0,0,1-.812-.725,3.459,3.459,0,0,1-1.147-2.586c0-1.447-.051-2.913,0-4.364a2.685,2.685,0,0,1,2.3-2.464,9.957,9.957,0,0,1,1.084-.087q5.1-.077,10.2-.134c.481,0,.966.016,1.447.047a2.559,2.559,0,0,1,2.464,1.809,12.96,12.96,0,0,1,.461,5.747,2.868,2.868,0,0,1-1.1,1.837c-.56.465-1.194.832-1.77,1.273a3.516,3.516,0,0,0-1.384,2.472,17.17,17.17,0,0,0,.079,4.714,3.457,3.457,0,0,0,.78,1.62,2.3,2.3,0,0,0,2.613.725,5.917,5.917,0,0,0,2.156-1.321c1.36-1.388,2.724-2.771,4.029-4.206a6.1,6.1,0,0,0,1.628-4.671c-.118-1.935-.114-3.883-.142-5.822a5.793,5.793,0,0,1,.122-1.451,5.121,5.121,0,0,1,.544-1.336,2.514,2.514,0,0,1,2.066-1.3c.481-.039.966-.039,1.451-.032,1.092.016,2.172.063,3.276.075s2.172,0,3.276,0l.032-.15h6.555a17.57,17.57,0,0,1,1.817.063,2.927,2.927,0,0,1,2.46,2.353,22.511,22.511,0,0,1,.028,5.073,2.559,2.559,0,0,1-1.423,1.991,4.643,4.643,0,0,1-1.715.572,7.093,7.093,0,0,0-3.831,1.963,31.215,31.215,0,0,0-2.255,2.369,35.944,35.944,0,0,1-4.155,4.08,56.809,56.809,0,0,0-5.668,5.649,16.149,16.149,0,0,0-1.336,1.727,3.866,3.866,0,0,0-.24,4.139,11.684,11.684,0,0,0,.95,1.545,17.966,17.966,0,0,0,1.143,1.419c3.753,4.3,7.214,8.834,10.611,13.414.071.1.154.185.221.288a7.8,7.8,0,0,0,4.206,3.311,12.923,12.923,0,0,1,1.348.556,3.252,3.252,0,0,1,1.8,2.172,12.058,12.058,0,0,1,.221,5.05,3.134,3.134,0,0,1-2.479,2.381,5.663,5.663,0,0,1-1.805.028,47.951,47.951,0,0,0-10.891-.394,22.74,22.74,0,0,1-2.539,0,2.416,2.416,0,0,1-2.081-1.782,3.325,3.325,0,0,1-.154-.706c-.067-1.577-.142-3.154-.158-4.73a8.9,8.9,0,0,1,.568-2.842,4.673,4.673,0,0,0-.508-3.867c-.114-.213-.24-.422-.374-.623a84.612,84.612,0,0,0-6.346-7.97,7.41,7.41,0,0,0-1.1-.946,2.772,2.772,0,0,0-3.851.714,4.408,4.408,0,0,0-.824,2.377c-.028,2.306-.059,4.612-.024,6.918a4.067,4.067,0,0,0,1.8,3.406,4.643,4.643,0,0,1,2.5,5.219,18.17,18.17,0,0,1-.13,2.539,3.891,3.891,0,0,1-.6,1.3,1.726,1.726,0,0,1-1.175.792,6.889,6.889,0,0,1-1.451.146q-5.457-.03-10.919-.091a13.225,13.225,0,0,1-1.809-.15,2.662,2.662,0,0,1-1.908-1.991,17.93,17.93,0,0,1,.051-5.073,2.943,2.943,0,0,1,.836-1.589c.5-.52,1.092-.966,1.6-1.486a4,4,0,0,0,1.21-2.586c.173-3.382.639-6.752.568-10.166-.1-5.1.016-10.194.032-15.294m-53.018,536.5a304.935,304.935,0,0,1,50.649-15.425c2.539-5.716,5.128-11.731,6.808-16.773a6.369,6.369,0,0,0,.434-1.6c.008-.114.016-.241.02-.378a1.057,1.057,0,0,0-1.734-.966,58.055,58.055,0,0,1-18.811,10.655c-36.628,12.318-47.046-24.239-48.059-32.095a87.066,87.066,0,0,1,.619-25.1,167.8,167.8,0,0,1,6.48-26.288q4.334-13.02,7.872-21.984a67.367,67.367,0,0,1,4.249-8.771q2.383-4.115,4.427-7.994,6.741-12.405,14.38-23.825c5.085-7.6,23.462-34.838,27.838-40.1s8.853-10.761,13.41-16.457q4.813-5.694,10.241-11.7,5.422-5.984,11.2-11.593a128.236,128.236,0,0,1,11.908-10.233,60.339,60.339,0,0,1,12.7-7.415,38.064,38.064,0,0,1,15.669-3.181c5.262.091,16.114,1.8,22.236,10.288,4.253,5.893,6.634,13.706,6.134,18.527-2.393,22.965-16.5,48.434-19.946,53.531a104.375,104.375,0,0,1-11.629,14.34,111.489,111.489,0,0,1-13.406,11.853,53.524,53.524,0,0,1-13.536,7.809c-9.894,3.552-16.1-4.308-16.311-4.573a1.388,1.388,0,0,1,.544-2.1c1.238-.485,8.739-1.758,20.62-12.575.024-.032.055-.055.079-.083q2.85-2.613,6.745-6.989c2.609-2.929,32.39-29.205,33.143-69.74.035-2-2.566-6.784-5.976-8.152-15.665-6.283-41.867,19.9-83.315,76.118-4.06,5.507-7.876,11.357-11.743,17.324s-7.572,11.9-11.1,17.8a166.1,166.1,0,0,0-9.007,17.053q-2.477,5.481-4.7,10.28-2.223,4.783-4.013,9.685l-.035.087q-3.211,6.829-5.909,14.167a71.75,71.75,0,0,0-3.765,15.393,1.331,1.331,0,0,1-.028.134,53.549,53.549,0,0,0-1.529,15.8,58.677,58.677,0,0,0,2.889,16.6,27.237,27.237,0,0,0,7.43,12,10.929,10.929,0,0,0,12.062,2.006c42.564-17.522,62.053-79.827,62.053-79.827-4.565.406-48.773,32.359-67.532,24.932-6.729-2.661-2.834-7.32-1.734-7.482,22.268-3.28,63.981-29.406,76.39-36.774,15.574-9.255,27.763-5.621,17.431,10.836a4.911,4.911,0,0,1-1.892,1.049c-.477.193-1.072.989-1.786,2.409a1.524,1.524,0,0,0-.075.162c-6,15.953-38.6,99.631-38.926,100.534,128.694-10.647,201.087-28,241.81-45.706,31.224-13.576,43.42-24.53,53.807-35.808s22.524-3.327,19.268,2.87c-3.843,7.32-11.826,17.1-55.356,39.139-43.684,21.377-121.193,39.986-256,45.99-2.176.071-4.364.307-6.547.489-1.119,2.345-2.211,4.837-3.26,7.505-1.608,3.839-3.067,7.6-4.482,11.234-20.947,53.807-48.367,77.722-68.62,86.169-17.336,7.233-43.053,4.624-49.995-9.216-19.323-38.52,29.434-70.993,59.219-83.863M185.087,1058.617c-62.1-20.277-71.151-69.8-72.3-88.641a4.914,4.914,0,0,1,5.014-5.2,5.391,5.391,0,0,1,1.632.252q11.163,3.494,22.161,6.827,10.8,3.329,22.591,6.764l200.227,48.316a563.875,563.875,0,0,0-4.446,64.15c-.032,3.138-.024,6.26,0,9.366-62.987-10.233-136.077-29.064-174.885-41.831m106.34,125.947c-63.129-16.8-74.907-65.75-77.1-84.5a4.922,4.922,0,0,1,5.01-5.483,5.52,5.52,0,0,1,1.348.17c48,12.153,93.8,22.445,140.157,31.141a407.293,407.293,0,0,0,10.221,69.976c.528,2.2,1.076,4.368,1.632,6.516-32.083-5.944-61.17-12.421-81.273-17.821m180.948,153.709c-20.821-23.718-54.209-70.437-71.506-123.83q-1.212-3.743-2.318-7.5-2.454-8.278-4.435-16.607c-16.087-66.972-10.9-135.423-2.617-184.89-15.2-2.44-34.211-5.826-58.848-10.678-79.3-14.514-171.2-40.164-219.905-57.279-77.9-27.175-88.069-89.938-89.039-113.759a6.228,6.228,0,0,1,8.514-6.082C186.9,877.93,344.307,914.179,498.88,926.391q-.3,1.3-.646,2.59l2.215-.095a425.818,425.818,0,0,0-40.708,212.463c4.927,76.445,31.228,155.712,95.417,227.158a3.467,3.467,0,0,1-2.365,5.984c-2.389.169-5.042.3-7.931.3-17.92,0-44.8-4.967-72.487-36.514M598.1,1495.968a17.3,17.3,0,0,1-3.138,7.013,4.92,4.92,0,0,1-3.315,2.03,4.827,4.827,0,0,1-3.745-.93,5.037,5.037,0,0,1-2.042-3.331,4.783,4.783,0,0,1,.907-3.776,7.3,7.3,0,0,0,1.38-3.354,9.7,9.7,0,0,0-.2-3.713,11.009,11.009,0,0,0-1.7-3.662,13.223,13.223,0,0,0-3.051-3.134,12.034,12.034,0,0,0-7.9-2.535,8.06,8.06,0,0,0-6.441,3.248,11.79,11.79,0,0,0-2.255,4.726,10.183,10.183,0,0,0,.335,4.805,21.888,21.888,0,0,0,2.669,5.5q1.916,2.956,4.746,6.666,2.229,3.122,4.419,6.208a28.113,28.113,0,0,1,3.453,6.524,16.42,16.42,0,0,1-2.322,16.217,22.18,22.18,0,0,1-7.553,6.54,25.171,25.171,0,0,1-9.575,2.838,29.5,29.5,0,0,1-10.395-.922,29.823,29.823,0,0,1-21.369-22.567,25.244,25.244,0,0,1-.095-9.993,22.275,22.275,0,0,1,4.044-9.133,5.082,5.082,0,1,1,8.171,6.043,12.431,12.431,0,0,0-2.31,5.495,15.3,15.3,0,0,0,.268,6.078,18.851,18.851,0,0,0,2.649,5.925,20.688,20.688,0,0,0,11.081,8.2,18.821,18.821,0,0,0,6.449.792,15.247,15.247,0,0,0,5.893-1.533,12.477,12.477,0,0,0,4.588-3.82,6.76,6.76,0,0,0,1.376-3.252,7.648,7.648,0,0,0-.572-3.587,21.8,21.8,0,0,0-2.365-4.328q-1.62-2.371-4.04-5.637-2.543-3.5-4.967-7.06a30.68,30.68,0,0,1-3.784-7.659q-3.424-10.04,3.339-19.177a17.332,17.332,0,0,1,5.795-5.061,19.183,19.183,0,0,1,7.273-2.2,22.808,22.808,0,0,1,21.184,10.5,23.035,23.035,0,0,1,3.031,7.391,18.7,18.7,0,0,1,.079,7.627m76.354,46.684-10.939,22.67a15.983,15.983,0,0,1-3.839,5.1,15.455,15.455,0,0,1-5.377,3.114,17.377,17.377,0,0,1-6.2.879,15.379,15.379,0,0,1-6.208-1.549l-11.388-5.495a5.764,5.764,0,0,0-4.466-.256,5.481,5.481,0,0,0-3.37,2.905l-4.517,9.366a5.084,5.084,0,1,1-9.157-4.419l30.711-63.649a2.573,2.573,0,0,1,2.5-1.226,8.806,8.806,0,0,1,4.056.974l20.652,9.965a15.427,15.427,0,0,1,5.073,3.891,17.606,17.606,0,0,1,3.169,5.4,15.474,15.474,0,0,1,.907,6.145,16,16,0,0,1-1.6,6.181m81.936,14.751a5.244,5.244,0,0,1-6.4,3.615l-23.911-6.654a5.779,5.779,0,0,0-4.442.54,5.476,5.476,0,0,0-2.8,3.453l-3.93,14.12a5.485,5.485,0,0,0,.615,4.4,5.789,5.789,0,0,0,3.524,2.759l7.517,2.093a4.8,4.8,0,0,1,3.059,2.444,4.97,4.97,0,0,1,.473,3.812,5.093,5.093,0,0,1-2.4,3.134,4.813,4.813,0,0,1-3.887.513l-7.513-2.089a5.779,5.779,0,0,0-4.439.532,5.438,5.438,0,0,0-2.8,3.429l-2.68,9.626a5.57,5.57,0,0,0,.591,4.494,5.773,5.773,0,0,0,3.528,2.751l23.907,6.658a5.067,5.067,0,0,1,3.13,2.42,5.1,5.1,0,0,1-1.955,7.025,5.061,5.061,0,0,1-3.93.457l-33.813-9.409a5.861,5.861,0,0,1-4.029-7.135l18-64.666a5.848,5.848,0,0,1,7.131-4.025l33.813,9.409a5.124,5.124,0,0,1,3.134,2.408,4.8,4.8,0,0,1,.512,3.883m71.719,64.339a18.845,18.845,0,0,1-2.259,7.379,19.716,19.716,0,0,1-11.349,9.354,18.786,18.786,0,0,1-7.679.8l-20.585-1.987a2.513,2.513,0,0,1-1.75-.942,2.485,2.485,0,0,1-.587-1.9l6.957-71.991a3.119,3.119,0,0,1,1.967-2.542,7.586,7.586,0,0,1,4.159-.666l17.411,1.683a18.815,18.815,0,0,1,7.379,2.255,19.756,19.756,0,0,1,9.35,11.353,18.781,18.781,0,0,1,.8,7.679Zm52.636,17.64a5,5,0,0,1-7.2.276,5.075,5.075,0,0,1-1.62-3.6l-2.641-68.258a5.081,5.081,0,1,1,10.154-.39l2.645,68.254a5.132,5.132,0,0,1-1.336,3.721m90.726-81.553a4.8,4.8,0,0,1-3.244,2.2l-12.295,2.385a5.854,5.854,0,0,0-4.584,6.788l10.943,56.384a5.025,5.025,0,0,1-.8,3.883,4.9,4.9,0,0,1-3.264,2.2,4.708,4.708,0,0,1-3.784-.828,5.115,5.115,0,0,1-2.133-3.319l-10.943-56.385a5.847,5.847,0,0,0-6.788-4.58l-13.69,2.657a4.814,4.814,0,0,1-3.831-.824,4.95,4.95,0,0,1-2.125-3.2,5.094,5.094,0,0,1,.753-3.879,4.818,4.818,0,0,1,3.244-2.2l47.338-9.184a4.8,4.8,0,0,1,3.828.824,5.08,5.08,0,0,1,2.148,3.311,4.959,4.959,0,0,1-.776,3.764m67.221,49.742a4.995,4.995,0,0,1-6.784,2.444,5.107,5.107,0,0,1-2.633-2.941l-23.186-64.253a5.082,5.082,0,1,1,9.559-3.453l23.19,64.252a5.107,5.107,0,0,1-.146,3.95m75.81-39.06a22.657,22.657,0,0,1-4.033,7.545,22.155,22.155,0,0,1-15.358,8.12,22.457,22.457,0,0,1-16.051-4.951,21.477,21.477,0,0,1-5.625-6.851l-16.792-31.764a21.974,21.974,0,0,1-2.519-8.558,22.3,22.3,0,0,1,4.923-16.1,22.193,22.193,0,0,1,15.358-8.12,22.792,22.792,0,0,1,8.506.919,22.552,22.552,0,0,1,7.572,4.088,21.966,21.966,0,0,1,5.653,6.9l16.792,31.764a21.574,21.574,0,0,1,2.491,8.51,22.773,22.773,0,0,1-.918,8.5m-258.039-88.574a366.923,366.923,0,1,1,259.446-107.467,364.516,364.516,0,0,1-259.446,107.467m340.314,37.672a4.015,4.015,0,0,1-.847.812,5.15,5.15,0,0,1-2.5,1.06,4.988,4.988,0,0,1-2.755-.4l-46.794-20.73c-1.494-.635-2.412-.717-2.747-.256s-.02,1.32.95,2.562l25.9,33.151a5.082,5.082,0,1,1-8.01,6.256l-41.981-53.732a5.181,5.181,0,0,1-1.127-3.169,4.531,4.531,0,0,1,1.143-3.142,4.669,4.669,0,0,1,2.708-1.817,4.981,4.981,0,0,1,3.292.28l46.885,20.656c1.494.635,2.408.745,2.74.339s-.016-1.265-1.033-2.57l-25.76-32.966a4.857,4.857,0,0,1-1.021-3.776,5.017,5.017,0,0,1,1.943-3.394,4.9,4.9,0,0,1,3.67-.993,4.847,4.847,0,0,1,3.418,1.9l41.91,53.641a4.788,4.788,0,0,1,1.052,3.153,5.393,5.393,0,0,1-1.033,3.13m301.818-417.543c-2.188,18.748-13.966,67.694-77.1,84.5-20.1,5.4-49.191,11.877-81.274,17.821.556-2.148,1.1-4.312,1.632-6.516a407.706,407.706,0,0,0,10.221-69.976c46.356-8.7,92.157-18.988,140.157-31.141a5.519,5.519,0,0,1,1.348-.17,4.924,4.924,0,0,1,5.01,5.483m29.245-41.449c-38.812,12.768-111.9,31.6-174.885,41.831.028-3.106.035-6.228,0-9.366a563.84,563.84,0,0,0-4.446-64.15l200.369-48.355q11.589-3.376,22.256-6.666,11.116-3.382,22.354-6.886a5.392,5.392,0,0,1,1.632-.252,4.909,4.909,0,0,1,5.01,5.2c-1.147,18.842-10.194,68.364-72.294,88.641m72.341-121.13c-48.71,17.116-140.6,42.765-219.909,57.279-24.637,4.852-43.648,8.239-58.844,10.678,8.274,49.467,13.469,117.917-2.614,184.89-1.336,5.55-2.8,11.089-4.435,16.607q-1.118,3.755-2.322,7.5c-17.3,53.393-50.685,100.112-71.506,123.83-27.692,31.547-54.567,36.514-72.491,36.514-2.885,0-5.538-.126-7.927-.3a3.466,3.466,0,0,1-2.365-5.984c64.189-71.447,90.49-150.714,95.417-227.158a425.817,425.817,0,0,0-40.708-212.463l2.215.095c-.233-.859-.453-1.723-.651-2.59,154.573-12.212,311.984-48.461,466.663-108.744a6.228,6.228,0,0,1,8.515,6.082c-.97,23.821-11.14,86.583-89.039,113.759" transform="translate(-0.001 0)" fill="#d4551c"/>
        <path id="Path_4408" data-name="Path 4408" d="M198.707,180.088c-.485.079-2.31.292-2.791.371a176.862,176.862,0,0,0-24.061,5.775c-3.1,1-6.946,2.389-10.812,4.036-3.808,1.62-7.521,3.417-11.179,5.377a126.122,126.122,0,0,0-23.115,15.842c-32.142,27.936-26.994,41.87-23,50.736,8.01,17.805,57.977,19.8,94.964-82.137" transform="translate(296.471 529.796)" fill="#d4551c"/>
      </g>
    </g>
  </g>
</svg>
