<svg xmlns="http://www.w3.org/2000/svg" xmlns:xlink="http://www.w3.org/1999/xlink" width="2560" height="2880" viewBox="0 0 2560 2880">
  <defs>
    <clipPath id="clip-path">
      <path id="fond" d="M0,0H2560V2880H0Z" transform="translate(981 5101)" fill="none"/>
    </clipPath>
    <clipPath id="clip-path-2">
      <rect id="Rectangle_339" data-name="Rectangle 339" width="1689.331" height="2193.995" fill="none"/>
    </clipPath>
  </defs>
  <g id="Mask_Group_50" data-name="Mask Group 50" transform="translate(-981 -5101)" clip-path="url(#clip-path)">
    <path id="fond-2" data-name="fond" d="M0,0H2560V2880H0Z" transform="translate(981 5101)" fill="#ddd"/>
    <g id="Group_356" data-name="Group 356" transform="translate(1416.334 5444.002)">
      <path id="Path_1176" data-name="Path 1176" d="M94.944,0h16.192L63.48-130.824H51.336L3.68,0H19.872L33.488-39.192h47.84ZM38.824-54.28l18.584-53.544L75.992-54.28ZM130.64,0h15.272V-61.272L149.96-70.1l7.544-8.464,10.12-4.784h7.912l7.36,2.024,3.68-14.536-9.2-2.576h-11.96L152.9-92.552l-6.992,6.808V-96.968H130.64Zm93.472,1.472h15.64l14.352-4.6L266.064-14.9,255.392-25.392l-9.568,9.016-7.912,2.76H227.056l-11.224-5.52L207-31.1l-2.392-8.464V-57.224l2.208-8.648,8.648-11.776,11.04-5.7h11.408l8.28,2.576,9.2,9.2L266.248-81.7,254.1-93.84l-14.352-4.6h-15.64l-18.4,8.832L193.2-72.68l-3.864,13.432v21.9L193.2-24.288,205.712-7.36ZM287.776,0h15.272V-66.24l5.888-8.648,12.88-8.464h11.776l9.936,3.128,4.6,7.176V0H363.4V-78.936L352.176-94.024,336.72-98.44H319.792l-12.328,6.992-4.416,3.68v-50.968H287.776ZM417.128,1.472h11.408l16.928-8.464,4.232-4.784,8.832,13.248L470.856-7.36l-7.176-10.3V-73.416l-4.968-12.512-13.616-9.2L431.848-98.44H414.736l-11.776,3.5-8.832,5.7-5.152,4.784L399.464-73.6l3.5-3.5,5.7-3.68,7.912-2.576H429.64l9.016,2.208,7.728,4.968,2.024,5.52v13.984L443.992-59.8l-12.328-4.048H419.888l-18.216,4.6L388.056-45.632,385.48-33.12v10.672l10.3,14.9,8.832,5.152Zm2.208-15.088-8.648-2.576-4.232-2.576-5.7-8.1v-4.968l1.472-6.44,7.176-7.176,12.144-3.312h8.28l9.016,2.576,5.7,2.944,3.864,4.048v6.808l-1.84,5.7-7.544,7.912-13.8,5.152ZM516.672,1.472h19.5L554.76-7.36l9.2-13.616,3.68-16.56V-59.248l-3.68-16.56-9.2-13.616L536.176-98.44h-19.5l-18.584,9.016-9.2,13.616-3.68,16.56v21.712l3.68,16.56,9.2,13.616Zm2.576-14.9-10.856-5.336-5.52-8.28L500.48-39.376v-18.4l2.392-11.96,5.336-8.1,11.04-5.52H533.6l10.672,5.52,5.7,8.1,2.392,11.96v18.4l-2.392,12.328-5.52,8.28L533.6-13.432ZM592.112,0h15.272V-138.736H592.112Zm71.024,1.472h19.5L701.224-7.36l9.2-13.616,3.68-16.56V-59.248l-3.68-16.56-9.2-13.616L682.64-98.44h-19.5l-18.584,9.016-9.2,13.616-3.68,16.56v21.712l3.68,16.56,9.2,13.616Zm2.576-14.9-10.856-5.336-5.52-8.28-2.392-12.328v-18.4l2.392-11.96,5.336-8.1,11.04-5.52h14.352l10.672,5.52,5.7,8.1,2.392,11.96v18.4L696.44-27.048l-5.52,8.28-10.856,5.336Zm102.3,44.344h16.192l13.616-4.6,13.984-9.384,4.6-13.432V-96.968H801.136v5.888l-5.152-3.312-11.04-4.048H768.568l-18.4,8.832L737.656-72.68l-3.864,13.432v17.48L737.656-28.7l12.88,16.928L769.3-4.416h16.56l11.408-6.992,3.864-3.68V1.84l-2.208,5.52L791.016,12.7l-8.464,3.128H769.488l-8.832-2.392-4.6-3.128-4.6-4.6L740.784,16.56l5.152,4.968,9.016,5.888ZM771.7-19.5l-11.96-4.784L751.272-35.88l-2.208-7.912V-57.224l2.208-8.648L760.1-77.648l10.856-5.888h11.776l7.544,2.392,6.992,4.6,3.864,4.784v35.144L795.8-27.968,783.84-19.5Zm70.656-96.6h22.08v-22.632h-22.08ZM845.664,0h15.272V-96.968H845.664Zm73.048,1.472h15.272L950.912-2.76l11.96-7.912-8.1-12.144-9.568,6.072L932.7-13.616h-11.04l-11.224-5.52L901.6-31.1l-2.392-8.1v-1.84h71.024v-19.32L966-72.68,953.672-89.608,935.088-98.44H918.712l-18.4,8.832L887.8-72.68l-3.864,13.432v21.9L887.8-24.288,900.312-7.36Zm-19.5-57.592v-1.656l2.208-8.1,8.648-11.776,11.04-5.7h11.408l11.224,5.888,8.832,11.96,2.392,6.992v2.392Z" transform="translate(686.896 1179.354)"/>
      <rect id="Rectangle_336" data-name="Rectangle 336" width="22.412" height="22.946" transform="translate(1082.51 1038.652)"/>
      <rect id="Rectangle_337" data-name="Rectangle 337" width="22.412" height="22.946" transform="translate(1127.334 1038.652)"/>
      <rect id="Rectangle_338" data-name="Rectangle 338" width="624.796" height="624.254" transform="translate(0 774.575)" fill="#584e93"/>
      <path id="Path_1140" data-name="Path 1140" d="M0,711.11H624.8V86.856Z" transform="translate(0 687.72)" fill="#fa905c"/>
      <g id="Group_351" data-name="Group 351">
        <g id="Group_350" data-name="Group 350" clip-path="url(#clip-path-2)">
          <path id="Path_1141" data-name="Path 1141" d="M318.4,255.012c0,82.83-67.2,149.973-150.1,149.973S18.182,337.841,18.182,255.012s67.21-149.973,150.112-149.973,150.1,67.143,150.1,149.973" transform="translate(144.104 831.69)" fill="#f8d790"/>
        </g>
      </g>
      <path id="Path_1175" data-name="Path 1175" d="M17.48,0H32.752V-95.864l36.8,81.328H85.008l36.8-81.328V0H137.08V-130.824H121.992L77.28-32.568,32.568-130.824H17.48ZM193.936,1.472h11.408l16.928-8.464,4.232-4.784,8.832,13.248L247.664-7.36l-7.176-10.3V-73.416L235.52-85.928l-13.616-9.2L208.656-98.44H191.544l-11.776,3.5-8.832,5.7-5.152,4.784L176.272-73.6l3.5-3.5,5.7-3.68,7.912-2.576h13.064l9.016,2.208,7.728,4.968,2.024,5.52v13.984L220.8-59.8l-12.328-4.048H196.7l-18.216,4.6L164.864-45.632,162.288-33.12v10.672l10.3,14.9,8.832,5.152Zm2.208-15.088L187.5-16.192l-4.232-2.576-5.7-8.1v-4.968l1.472-6.44,7.176-7.176,12.144-3.312h8.28l9.016,2.576,5.7,2.944,3.864,4.048v6.808l-1.84,5.7-7.544,7.912-13.8,5.152ZM269.928,0H285.2V-138.736H269.928ZM343.9,1.472h15.272L376.1-2.76l11.96-7.912-8.1-12.144-9.568,6.072L357.88-13.616H346.84l-11.224-5.52L326.784-31.1l-2.392-8.1v-1.84h71.024v-19.32L391.184-72.68,378.856-89.608,360.272-98.44H343.9l-18.4,8.832L312.984-72.68,309.12-59.248v21.9l3.864,13.064L325.5-7.36Zm-19.5-57.592v-1.656l2.208-8.1,8.648-11.776,11.04-5.7H357.7l11.224,5.888,8.832,11.96,2.392,6.992v2.392ZM417.68,0h15.272V-61.272L437-70.1l7.544-8.464,10.12-4.784h7.912l7.36,2.024,3.68-14.536-9.2-2.576h-11.96l-12.512,5.888-6.992,6.808V-96.968H417.68Zm97.152,1.472H530.1L547.032-2.76l11.96-7.912-8.1-12.144-9.568,6.072-12.512,3.128h-11.04l-11.224-5.52L497.72-31.1l-2.392-8.1v-1.84h71.024v-19.32L562.12-72.68,549.792-89.608,531.208-98.44H514.832l-18.4,8.832L483.92-72.68l-3.864,13.432v21.9l3.864,13.064L496.432-7.36Zm-19.5-57.592v-1.656l2.208-8.1,8.648-11.776,11.04-5.7h11.408l11.224,5.888,8.832,11.96,2.392,6.992v2.392Zm90.16-59.984h22.08v-22.632h-22.08ZM588.8,0h15.272V-96.968H588.8Z" transform="translate(686.896 375.905)"/>
      <g id="Group_353" data-name="Group 353">
        <g id="Group_352" data-name="Group 352" clip-path="url(#clip-path-2)">
          <rect id="Rectangle_340" data-name="Rectangle 340" width="625.017" height="624.475" fill="#584e93"/>
          <rect id="Rectangle_341" data-name="Rectangle 341" width="313.935" height="624.475" transform="translate(311.081)" fill="#ffccca"/>
          <path id="Path_1142" data-name="Path 1142" d="M347.4,0H35a312.146,312.146,0,0,0,91.5,220.718,312.7,312.7,0,0,0,220.9,91.409Z" transform="translate(277.398 -0.008)" fill="#584e93"/>
          <path id="Path_1143" data-name="Path 1143" d="M0,0V312.127H312.4Z" transform="translate(0 -0.004)" fill="#fa905c"/>
          <path id="Path_1144" data-name="Path 1144" d="M0,35V347.127H312.4Z" transform="translate(0 277.123)" fill="#f8d790"/>
        </g>
      </g>
      <path id="Path_1177" data-name="Path 1177" d="M17.48,0H32.752V-62.008H77.1V-77.1H32.752v-38.64H95.128v-15.088H17.48ZM126.96,1.472h19.5L165.048-7.36l9.2-13.616,3.68-16.56V-59.248l-3.68-16.56-9.2-13.616L146.464-98.44h-19.5l-18.584,9.016-9.2,13.616L95.5-59.248v21.712l3.68,16.56,9.2,13.616Zm2.576-14.9L118.68-18.768l-5.52-8.28-2.392-12.328v-18.4l2.392-11.96,5.336-8.1,11.04-5.52h14.352l10.672,5.52,5.7,8.1,2.392,11.96v18.4l-2.392,12.328-5.52,8.28-10.856,5.336Zm103.592,14.9h8.464L258.7-2.392,254.84-16.928l-13.064,3.312h-5.152L230-16.192l-4.6-6.624V-79.488h25.392V-94.576H225.4v-33.856H210.128v33.856h-17.48v15.088h17.48v61.64l10.12,14.536Zm66.792,0h19.5L338.008-7.36l9.2-13.616,3.68-16.56V-59.248l-3.68-16.56-9.2-13.616L319.424-98.44h-19.5l-18.584,9.016-9.2,13.616-3.68,16.56v21.712l3.68,16.56,9.2,13.616Zm2.576-14.9L291.64-18.768l-5.52-8.28-2.392-12.328v-18.4l2.392-11.96,5.336-8.1,11.04-5.52h14.352l10.672,5.52,5.7,8.1,2.392,11.96v18.4l-2.392,12.328-5.52,8.28-10.856,5.336ZM404.8,30.912h16.192l13.616-4.6,13.984-9.384,4.6-13.432V-96.968H437.92v5.888l-5.152-3.312-11.04-4.048H405.352l-18.4,8.832L374.44-72.68l-3.864,13.432v17.48L374.44-28.7l12.88,16.928,18.768,7.36h16.56l11.408-6.992,3.864-3.68V1.84l-2.208,5.52L427.8,12.7l-8.464,3.128H406.272l-8.832-2.392-4.6-3.128-4.6-4.6L377.568,16.56l5.152,4.968,9.016,5.888ZM408.48-19.5l-11.96-4.784L388.056-35.88l-2.208-7.912V-57.224l2.208-8.648,8.832-11.776,10.856-5.888H419.52l7.544,2.392,6.992,4.6,3.864,4.784v35.144l-5.336,8.648L420.624-19.5ZM481.9,0h15.272V-61.272l4.048-8.832,7.544-8.464,10.12-4.784h7.912l7.36,2.024,3.68-14.536-9.2-2.576h-11.96L504.16-92.552l-6.992,6.808V-96.968H481.9ZM580.7,1.472h11.408L609.04-6.992l4.232-4.784L622.1,1.472,634.432-7.36l-7.176-10.3V-73.416l-4.968-12.512-13.616-9.2L595.424-98.44H578.312l-11.776,3.5-8.832,5.7-5.152,4.784L563.04-73.6l3.5-3.5,5.7-3.68,7.912-2.576h13.064l9.016,2.208,7.728,4.968,2.024,5.52v13.984L607.568-59.8,595.24-63.848H583.464l-18.216,4.6L551.632-45.632,549.056-33.12v10.672l10.3,14.9,8.832,5.152Zm2.208-15.088-8.648-2.576-4.232-2.576-5.7-8.1v-4.968l1.472-6.44,7.176-7.176L585.12-48.76h8.28l9.016,2.576,5.7,2.944,3.864,4.048v6.808l-1.84,5.7L602.6-18.768l-13.8,5.152ZM662.032,0H677.3V-79.488H701.96V-94.576H677.3V-115.92l4.6-6.808,6.992-2.392h4.968l13.616,3.5,3.864-14.9-16.376-3.68h-7.36l-15.456,4.784-10.12,15.088v25.76h-17.48v15.088h17.48ZM728.64-116.1h22.08v-22.632H728.64ZM731.952,0h15.272V-96.968H731.952ZM805,1.472h15.272L837.2-2.76l11.96-7.912-8.1-12.144L831.5-16.744l-12.512,3.128h-11.04l-11.224-5.52L787.888-31.1l-2.392-8.1v-1.84H856.52v-19.32L852.288-72.68,839.96-89.608,821.376-98.44H805l-18.4,8.832L774.088-72.68l-3.864,13.432v21.9l3.864,13.064L786.6-7.36ZM785.5-56.12v-1.656l2.208-8.1,8.648-11.776,11.04-5.7H818.8l11.224,5.888,8.832,11.96,2.392,6.992v2.392Z" transform="translate(686.896 1958.923)"/>
      <g id="Group_355" data-name="Group 355">
        <g id="Group_354" data-name="Group 354" clip-path="url(#clip-path-2)">
          <rect id="Rectangle_343" data-name="Rectangle 343" width="624.796" height="624.254" transform="translate(0 1569.741)" fill="#fff"/>
          <path id="Path_1145" data-name="Path 1145" d="M35,211.021H347.4A312.254,312.254,0,0,1,35,523.148Z" transform="translate(277.398 1670.847)" fill="#fe8f5c"/>
          <rect id="Rectangle_344" data-name="Rectangle 344" width="312.398" height="312.127" transform="translate(0 1569.741)" fill="#584e93"/>
          <path id="Path_1146" data-name="Path 1146" d="M312.4,488.148H0A312.254,312.254,0,0,1,312.4,176.021Z" transform="translate(0 1393.72)" fill="#fff"/>
          <path id="Path_1147" data-name="Path 1147" d="M173.7,349.585H17.5A156.143,156.143,0,0,1,173.7,193.521Z" transform="translate(138.699 1532.283)" fill="#584e93"/>
          <rect id="Rectangle_345" data-name="Rectangle 345" width="312.398" height="312.127" transform="translate(312.398 1569.741)" fill="#f8d790"/>
          <path id="Path_1148" data-name="Path 1148" d="M35,488.148V176.021A312.254,312.254,0,0,1,347.4,488.148Z" transform="translate(277.398 1393.72)" fill="#fff"/>
          <path id="Path_1149" data-name="Path 1149" d="M35,349.585V193.521A156.143,156.143,0,0,1,191.2,349.585Z" transform="translate(277.398 1532.283)" fill="#f8d790"/>
          <rect id="Rectangle_346" data-name="Rectangle 346" width="312.398" height="312.127" transform="translate(0 1881.868)" fill="#f8d790"/>
          <path id="Path_1150" data-name="Path 1150" d="M312.4,211.021V523.148A312.255,312.255,0,0,1,0,211.021Z" transform="translate(0 1670.847)" fill="#fff"/>
          <path id="Path_1151" data-name="Path 1151" d="M173.7,211.021V367.085A156.142,156.142,0,0,1,17.5,211.021Z" transform="translate(138.699 1670.847)" fill="#f8d790"/>
        </g>
      </g>
    </g>
  </g>
</svg>
