<svg xmlns="http://www.w3.org/2000/svg" width="2560" height="2880" viewBox="0 0 2560 2880"><g data-name="Group 130"><g data-name="Group 96"><path data-name="Rectangle 140" fill="#fff" d="M0 0h2560v2880H0z"/><path data-name="Path 148" d="M179.786 685.303a15.852 15.852 0 0 1-11.643-4.794 15.852 15.852 0 0 1-4.795-11.644V470.24a16.384 16.384 0 0 1 3.424-10.273 15.845 15.845 0 0 1 9.246-5.822 15.87 15.87 0 0 1 18.49 9.251q6.849 15.068 14.04 29.793 5.822 13.013 13.013 27.567t13.016 27.224q5.822-12.671 12.842-27.225t12.842-27.567q6.849-14.725 14.04-29.793a17.584 17.584 0 0 1 7.705-8.048 15.19 15.19 0 0 1 10.787-1.2 16.635 16.635 0 0 1 9.417 5.822 15.881 15.881 0 0 1 3.6 10.273v198.62a16.438 16.438 0 1 1-32.875 0V543.871q-4.452 9.246-8.561 18.15t-7.534 15.753-7.534 15.753a16.372 16.372 0 0 1-5.993 7.02 15.649 15.649 0 0 1-8.732 2.568q-10.616 0-15.068-9.589-3.767-7.534-7.534-15.753-3.424-6.849-7.534-15.753t-8.219-18.15v124.995a15.852 15.852 0 0 1-4.794 11.643 15.852 15.852 0 0 1-11.646 4.795Zm178.073 0a16.369 16.369 0 0 1-16.438-16.438V470.24a16.438 16.438 0 1 1 32.875 0v198.62a16.369 16.369 0 0 1-16.438 16.438Zm113.349-38.355a22.362 22.362 0 0 0 7.191-8.219 31.87 31.87 0 0 0 3.082-10.616 25.8 25.8 0 0 0-7.191-20.547l-54.792-56.162a54.3 54.3 0 0 1-13.013-20.547 57.008 57.008 0 0 1-3.082-23.971 58.353 58.353 0 0 1 6.849-23.115 57.479 57.479 0 0 1 37.841-28.594 57.419 57.419 0 0 1 24.143-.343 62.93 62.93 0 0 1 22.088 9.76 53.532 53.532 0 0 1 16.266 17.979 15.09 15.09 0 0 1 1.541 12.328 17.8 17.8 0 0 1-7.705 10.273 15.09 15.09 0 0 1-12.328 1.541 16.422 16.422 0 0 1-9.931-7.705 26.614 26.614 0 0 0-16.438-11.986 23.987 23.987 0 0 0-19.862 4.794 24.613 24.613 0 0 0-2.74 36.642l54.449 56.162a60.837 60.837 0 0 1 13.355 21.232 56.806 56.806 0 0 1 3.424 24.656 57.515 57.515 0 0 1-7.191 23.971 63.678 63.678 0 0 1-16.1 18.835 57.137 57.137 0 0 1-22.6 10.616 58.882 58.882 0 0 1-47.943-9.76 56.164 56.164 0 0 1-16.438-18.321 14.694 14.694 0 0 1-1.883-12.5 16.45 16.45 0 0 1 7.705-10.1 15.09 15.09 0 0 1 12.328-1.541 17.8 17.8 0 0 1 10.273 7.705 26.346 26.346 0 0 0 17.465 12.671 25.974 25.974 0 0 0 21.237-5.138Zm122.939 38.354a56.6 56.6 0 0 1-22.43-4.452 57.538 57.538 0 0 1-30.649-30.649 56.6 56.6 0 0 1-4.452-22.43V511.34a56.6 56.6 0 0 1 4.452-22.43 57.538 57.538 0 0 1 30.649-30.649 58.733 58.733 0 0 1 44.861 0 57.538 57.538 0 0 1 30.649 30.649 56.6 56.6 0 0 1 4.452 22.43v116.431a56.6 56.6 0 0 1-4.452 22.43 57.538 57.538 0 0 1-30.649 30.649 56.6 56.6 0 0 1-22.429 4.453Zm0-198.62a24.554 24.554 0 0 0-24.654 24.658v116.431a24.657 24.657 0 1 0 49.313 0V511.34a24.554 24.554 0 0 0-24.656-24.656ZM278.408 810.41a54.278 54.278 0 0 1-4.794 22.6 61.919 61.919 0 0 1-12.671 18.492 61.92 61.92 0 0 1 12.671 18.492 54.278 54.278 0 0 1 4.794 22.6v19.177a54.791 54.791 0 0 1-4.623 22.43 61.589 61.589 0 0 1-12.328 18.321 55.144 55.144 0 0 1-18.321 12.328 56.986 56.986 0 0 1-22.259 4.452h-41.091a15.852 15.852 0 0 1-11.643-4.794 15.852 15.852 0 0 1-4.795-11.639v-195.88a15.852 15.852 0 0 1 4.794-11.643 15.852 15.852 0 0 1 11.643-4.794h41.094a56.987 56.987 0 0 1 22.259 4.452 55.144 55.144 0 0 1 18.321 12.328 61.589 61.589 0 0 1 12.328 18.321 54.792 54.792 0 0 1 4.623 22.43Zm-32.872 82.188a24.554 24.554 0 0 0-24.657-24.658h-24.656v68.49h24.656a24.554 24.554 0 0 0 24.656-24.656Zm-24.657-57.531a24.554 24.554 0 0 0 24.657-24.657v-12.328a24.554 24.554 0 0 0-24.656-24.656h-24.657v61.641Zm142.459 135.61a56.6 56.6 0 0 1-22.43-4.452 57.538 57.538 0 0 1-30.649-30.649 56.6 56.6 0 0 1-4.452-22.43V796.713a56.6 56.6 0 0 1 4.452-22.43 57.538 57.538 0 0 1 30.649-30.65 58.734 58.734 0 0 1 44.861 0 57.538 57.538 0 0 1 30.649 30.649 56.6 56.6 0 0 1 4.452 22.43v116.433a56.6 56.6 0 0 1-4.452 22.43 57.538 57.538 0 0 1-30.649 30.649 56.6 56.6 0 0 1-22.431 4.453Zm0-198.62a24.554 24.554 0 0 0-24.656 24.656v116.432a24.657 24.657 0 1 0 49.313 0V796.713a24.554 24.554 0 0 0-24.656-24.656Zm105.47 197.25a16.369 16.369 0 0 1-16.438-16.438v-197.25a16.438 16.438 0 1 1 32.875 0v180.813h52.052a16.438 16.438 0 1 1 0 32.875Zm160.271-228.756a56.6 56.6 0 0 1 22.43 4.452 57.537 57.537 0 0 1 30.649 30.649 56.6 56.6 0 0 1 4.452 22.43v113.693a56.6 56.6 0 0 1-4.452 22.43 57.537 57.537 0 0 1-30.65 30.65 56.6 56.6 0 0 1-22.43 4.452h-41.093a16.369 16.369 0 0 1-16.438-16.438v-195.88a16.369 16.369 0 0 1 16.438-16.438Zm24.656 57.531a24.554 24.554 0 0 0-24.656-24.656h-24.657v163.006h24.656a24.554 24.554 0 0 0 24.656-24.656Zm-473.949 452.49a10.551 10.551 0 0 1-10.958-10.958v-198.621a10.888 10.888 0 0 1 2.4-6.849 9.8 9.8 0 0 1 6.164-3.767 11.934 11.934 0 0 1 7.191.856 10.349 10.349 0 0 1 5.137 4.966q8.9 19.177 17.465 36.984 7.191 15.41 14.725 31.677t12.667 26.88q2.4-5.137 5.65-12.157t6.849-14.725q3.6-7.705 7.363-15.924t7.534-15.753q8.561-17.807 17.465-36.984a10.349 10.349 0 0 1 5.137-4.966 11.934 11.934 0 0 1 7.191-.856 9.8 9.8 0 0 1 6.164 3.767 10.888 10.888 0 0 1 2.4 6.849v198.62a10.373 10.373 0 0 1-3.253 7.876 10.826 10.826 0 0 1-7.705 3.082 10.551 10.551 0 0 1-10.964-10.956v-149.65q-6.164 13.013-12.157 25.855l-10.784 23.115q-5.822 11.986-10.959 23.287-3.424 6.164-9.931 6.164-7.191 0-9.931-6.164-5.137-11.3-10.958-23.287-4.794-10.273-10.958-23.115t-11.986-25.855v149.65a10.373 10.373 0 0 1-3.253 7.876 10.826 10.826 0 0 1-7.705 3.083Zm178.073 0a10.826 10.826 0 0 1-7.705-3.082 10.373 10.373 0 0 1-3.253-7.876v-198.621a10.373 10.373 0 0 1 3.253-7.876 10.826 10.826 0 0 1 7.705-3.082 10.551 10.551 0 0 1 10.958 10.958v198.62a10.551 10.551 0 0 1-10.958 10.958Zm116.433-28.423a32.089 32.089 0 0 0 10.958-36.3 30.865 30.865 0 0 0-7.191-11.3l-54.792-56.162a48.978 48.978 0 0 1-11.643-18.492 49.872 49.872 0 0 1-2.74-21.574 48.458 48.458 0 0 1 6.164-21.061 54.268 54.268 0 0 1 14.383-16.609 51.478 51.478 0 0 1 19.862-9.417 49 49 0 0 1 21.917-.171 53.661 53.661 0 0 1 19.862 8.732 51.816 51.816 0 0 1 14.725 16.266 9.888 9.888 0 0 1 1.2 8.219 10.991 10.991 0 0 1-5.308 6.849 9.45 9.45 0 0 1-8.219 1.027 10.622 10.622 0 0 1-6.507-5.137 30.476 30.476 0 0 0-44.518-8.9q-10.616 7.876-11.643 21.574a29.513 29.513 0 0 0 8.219 23.286l54.792 56.5a53.858 53.858 0 0 1 11.814 19.006 52.583 52.583 0 0 1-3.253 44.176 51.271 51.271 0 0 1-14.725 16.951 56.546 56.546 0 0 1-20.547 9.588 50.383 50.383 0 0 1-22.6.342 55.282 55.282 0 0 1-20.718-9.075 53 53 0 0 1-15.239-16.609 11.567 11.567 0 0 1 4.109-15.068 9.888 9.888 0 0 1 8.219-1.2 10.991 10.991 0 0 1 6.849 5.308 31.594 31.594 0 0 0 21.232 15.068 30.526 30.526 0 0 0 25.338-5.818Zm119.857 28.423a50.386 50.386 0 0 1-20.376-4.109 52.5 52.5 0 0 1-27.565-27.568 50.385 50.385 0 0 1-4.109-20.376v-116.432a50.758 50.758 0 0 1 4.109-20.2 52.414 52.414 0 0 1 11.13-16.609 52.946 52.946 0 0 1 16.435-11.138 52.143 52.143 0 0 1 40.58 0 51.584 51.584 0 0 1 27.738 27.738 50.758 50.758 0 0 1 4.109 20.2v116.441a50.385 50.385 0 0 1-4.109 20.376 52.947 52.947 0 0 1-11.13 16.438 52.413 52.413 0 0 1-16.609 11.13 50.758 50.758 0 0 1-20.203 4.109Zm0-198.62a28.821 28.821 0 0 0-21.4 8.9 29.27 29.27 0 0 0-8.732 21.232v116.435a30.136 30.136 0 1 0 60.271 0v-116.432a28.732 28.732 0 0 0-2.4-11.643 30.807 30.807 0 0 0-16.1-16.095 28.731 28.731 0 0 0-11.639-2.398Zm-321.217 336.056a51.606 51.606 0 0 1-32.19 48.285l31.505 84.927a9.848 9.848 0 0 1-.171 8.219 11 11 0 0 1-6.335 5.822 9.849 9.849 0 0 1-8.219-.171 11 11 0 0 1-5.822-6.335l-32.875-88.695h-28.081v84.927a10.551 10.551 0 0 1-10.958 10.958 10.826 10.826 0 0 1-7.705-3.082 10.373 10.373 0 0 1-3.253-7.876V1327.74a10.374 10.374 0 0 1 3.253-7.876 10.826 10.826 0 0 1 7.705-3.082h41.093a50.755 50.755 0 0 1 20.2 4.11 51.585 51.585 0 0 1 27.738 27.738 50.757 50.757 0 0 1 4.109 20.2Zm-52.053 30.132a29.82 29.82 0 0 0 30.135-30.135v-19.177a29.27 29.27 0 0 0-8.732-21.232 28.821 28.821 0 0 0-21.4-8.9h-30.138v79.444Zm90.407-90.407a10.551 10.551 0 0 1 10.958-10.958h68.49a10.961 10.961 0 1 1 0 21.917h-57.531v72.6h50.682a10.961 10.961 0 1 1 0 21.917h-50.682v79.448h57.531a10.961 10.961 0 1 1 0 21.917h-68.49a10.551 10.551 0 0 1-10.958-10.958Zm121.912 39.724a50.2 50.2 0 0 1 10.787-31.677 52.321 52.321 0 0 1 27.91-18.664 48.657 48.657 0 0 1 17.122-1.712 52.245 52.245 0 0 1 16.266 3.938 53.607 53.607 0 0 1 25.17 22.088 9.888 9.888 0 0 1 1.2 8.219 10.99 10.99 0 0 1-5.308 6.849 9.45 9.45 0 0 1-8.219 1.027 12.024 12.024 0 0 1-6.849-5.137 27.889 27.889 0 0 0-14.212-12.842 28.9 28.9 0 0 0-19.348-1.2 30.514 30.514 0 0 0-16.266 10.787 28.82 28.82 0 0 0-6.335 18.321v116.433a28.82 28.82 0 0 0 8.9 21.4 30.051 30.051 0 0 0 51.367-21.4v-43.827h-23.284a10.827 10.827 0 0 1-7.705-3.082 11.161 11.161 0 0 1 0-15.753 10.826 10.826 0 0 1 7.705-3.082h34.245a10.551 10.551 0 0 1 10.958 10.958v54.792a50.385 50.385 0 0 1-4.109 20.376 52.951 52.951 0 0 1-11.13 16.438 52.419 52.419 0 0 1-16.609 11.129 52.145 52.145 0 0 1-40.58 0 52.493 52.493 0 0 1-27.567-27.567 50.386 50.386 0 0 1-4.109-20.376Zm164.375 116.433a30.136 30.136 0 1 0 60.271 0v-157.523a10.551 10.551 0 0 1 10.958-10.958 10.827 10.827 0 0 1 7.705 3.082 10.373 10.373 0 0 1 3.253 7.876v157.527a50.384 50.384 0 0 1-4.109 20.376 51.531 51.531 0 0 1-11.3 16.438 55.109 55.109 0 0 1-16.609 11.129 49.54 49.54 0 0 1-20.033 4.109 50.383 50.383 0 0 1-20.376-4.109 52.493 52.493 0 0 1-27.567-27.567 50.384 50.384 0 0 1-4.109-20.376v-157.527a10.551 10.551 0 0 1 10.958-10.958 10.827 10.827 0 0 1 7.705 3.082 10.374 10.374 0 0 1 3.253 7.876Zm136.98 50.682a10.551 10.551 0 0 1-10.958-10.958v-197.247a10.551 10.551 0 0 1 10.958-10.958 10.827 10.827 0 0 1 7.705 3.082 10.374 10.374 0 0 1 3.253 7.876v186.292h57.531a10.827 10.827 0 0 1 7.705 3.082 11.161 11.161 0 0 1 0 15.753 10.826 10.826 0 0 1-7.705 3.082Zm224.3-12.328a9.814 9.814 0 0 1-.856 8.219 11.38 11.38 0 0 1-7.02 5.137 9.813 9.813 0 0 1-8.219-.856 11.3 11.3 0 0 1-5.137-6.678q-1.37-5.137-3.082-11.3-1.712-5.479-3.6-12.671t-4.281-16.1h-66.426q-2.74 8.9-4.452 16.1t-3.424 12.671q-1.712 6.164-3.082 11.3a11.3 11.3 0 0 1-5.137 6.678 10.5 10.5 0 0 1-8.561.856 11.3 11.3 0 0 1-6.678-5.137 9.814 9.814 0 0 1-.856-8.219l54.792-198.62a10.922 10.922 0 0 1 3.938-5.993 11.13 11.13 0 0 1 13.356 0 10.923 10.923 0 0 1 3.938 5.993Zm-38.354-56.161q-3.424-12.671-7.191-26.2t-7.363-26.54q-3.6-13.013-6.849-24.827t-5.65-21.061q-2.74 9.246-5.822 21.061t-6.678 24.827q-3.6 13.013-7.363 26.54t-7.191 26.2Zm174.309-78.075a51.607 51.607 0 0 1-32.19 48.285l31.505 84.927a9.848 9.848 0 0 1-.171 8.219 11 11 0 0 1-6.335 5.822 9.849 9.849 0 0 1-8.219-.171 11 11 0 0 1-5.822-6.335l-32.875-88.694h-28.08v84.927a10.551 10.551 0 0 1-10.958 10.958 10.826 10.826 0 0 1-7.705-3.082 10.373 10.373 0 0 1-3.253-7.876V1327.74a10.374 10.374 0 0 1 3.253-7.876 10.826 10.826 0 0 1 7.705-3.082h41.094a50.755 50.755 0 0 1 20.2 4.11 51.586 51.586 0 0 1 27.738 27.738 50.758 50.758 0 0 1 4.109 20.2Zm-52.051 30.132a29.82 29.82 0 0 0 30.135-30.135v-19.177a29.27 29.27 0 0 0-8.732-21.232 28.821 28.821 0 0 0-21.4-8.9h-30.139v79.444Zm-862.971 398.728q-6.507 0-6.507-6.506V1611.74q0-5.479 5.137-6.506 4.794-1.027 7.191 3.767 11.3 23.629 20.889 44.176 4.109 8.9 8.39 17.807t8.048 16.951q3.767 8.048 6.849 14.554t4.794 10.273q1.712-3.767 4.623-10.273t6.678-14.549q3.767-8.047 8.048-16.951t8.39-17.807q9.589-20.547 20.889-44.176 2.4-4.794 7.534-3.767t5.137 6.506v198.62a6.432 6.432 0 0 1-6.507 6.506q-6.507 0-6.507-6.506v-169.17q-5.822 11.986-13.184 27.4t-13.87 29.445q-7.876 16.438-15.41 32.875a5.943 5.943 0 0 1-5.822 3.767 6.623 6.623 0 0 1-6.164-3.767q-7.876-16.438-15.41-32.875-6.507-14.041-13.7-29.451t-13.013-27.4v169.17a6.432 6.432 0 0 1-6.507 6.506Zm178.073 0a6.432 6.432 0 0 1-6.507-6.506V1611.74a6.432 6.432 0 0 1 6.507-6.506 6.871 6.871 0 0 1 4.794 1.883 6.029 6.029 0 0 1 2.055 4.623v198.62a6.029 6.029 0 0 1-2.055 4.623 6.872 6.872 0 0 1-4.794 1.885Zm119.172-20.547a38.185 38.185 0 0 0 9.931-11.472 35.531 35.531 0 0 0 4.452-14.554 36.038 36.038 0 0 0-10.273-28.081l-54.449-56.161a47.905 47.905 0 0 1-10.616-17.123 48.787 48.787 0 0 1-2.74-19.862 45.758 45.758 0 0 1 5.65-19.006 48.922 48.922 0 0 1 12.842-15.239 48.093 48.093 0 0 1 38.354-8.561 49.377 49.377 0 0 1 18.326 7.878 45.169 45.169 0 0 1 13.527 14.725q2.74 5.822-2.4 9.246a6.358 6.358 0 0 1-4.966.685 6.251 6.251 0 0 1-3.938-3.082 34.048 34.048 0 0 0-9.76-10.787 37.185 37.185 0 0 0-13.527-5.993 35.9 35.9 0 0 0-14.383.171 30.155 30.155 0 0 0-13.014 6.335 35.625 35.625 0 0 0-13.7 24.656 33.586 33.586 0 0 0 9.589 26.711l54.792 56.5a45.3 45.3 0 0 1 10.958 17.465 52.117 52.117 0 0 1 2.74 20.547 46.571 46.571 0 0 1-5.822 19.862 50.275 50.275 0 0 1-13.7 15.753 49.357 49.357 0 0 1-18.835 8.9 44.63 44.63 0 0 1-20.547 0 48.025 48.025 0 0 1-19.177-8.219 50.453 50.453 0 0 1-14.04-15.41 6.359 6.359 0 0 1-.685-4.966 6.11 6.11 0 0 1 3.425-3.938 6.016 6.016 0 0 1 4.794-.685 7.615 7.615 0 0 1 4.109 3.082 35.416 35.416 0 0 0 23.971 17.465 33.441 33.441 0 0 0 15.41-.171 36.5 36.5 0 0 0 13.702-6.671Zm69.517-143.486a46.609 46.609 0 0 1 3.767-18.663 46.864 46.864 0 0 1 25.17-25.17 48.119 48.119 0 0 1 37.327 0 46.864 46.864 0 0 1 25.17 25.17 46.609 46.609 0 0 1 3.767 18.663v116.433a46.611 46.611 0 0 1-3.767 18.664 46.864 46.864 0 0 1-25.17 25.17 48.118 48.118 0 0 1-37.327 0 46.863 46.863 0 0 1-25.17-25.17 46.611 46.611 0 0 1-3.767-18.664Zm82.188 0a33.712 33.712 0 0 0-2.74-13.527 34.275 34.275 0 0 0-18.321-18.321 34.765 34.765 0 0 0-27.053 0 34.274 34.274 0 0 0-18.321 18.321 33.711 33.711 0 0 0-2.74 13.527v116.433a33.712 33.712 0 0 0 2.74 13.527 34.277 34.277 0 0 0 18.321 18.321 34.765 34.765 0 0 0 27.053 0 34.277 34.277 0 0 0 18.321-18.321 33.713 33.713 0 0 0 2.74-13.527Zm-448.95 448.037a6.872 6.872 0 0 1-4.794-1.883 6.029 6.029 0 0 1-2.055-4.623v-197.251a6.029 6.029 0 0 1 2.055-4.623 6.872 6.872 0 0 1 4.794-1.883 6.432 6.432 0 0 1 6.507 6.506v190.744h61.982a6.507 6.507 0 1 1 0 13.013Zm119.172 1.37a6.432 6.432 0 0 1-6.507-6.506v-198.621a6.432 6.432 0 0 1 6.507-6.506 6.872 6.872 0 0 1 4.794 1.883 6.029 6.029 0 0 1 2.055 4.623v198.625a6.029 6.029 0 0 1-2.055 4.623 6.872 6.872 0 0 1-4.794 1.877Zm57.874-164.033a45.878 45.878 0 0 1 9.931-29.108 46.714 46.714 0 0 1 25.345-16.78 45.581 45.581 0 0 1 30.649 1.712 46.934 46.934 0 0 1 23.115 20.2q2.74 5.822-2.4 9.246a6.359 6.359 0 0 1-4.965.685 6.251 6.251 0 0 1-3.938-3.082 33.067 33.067 0 0 0-16.78-14.725 33.92 33.92 0 0 0-22.259-1.37 32.223 32.223 0 0 0-18.492 12.157 33.848 33.848 0 0 0-7.191 21.06v116.436a33.9 33.9 0 0 0 10.273 24.485 37.732 37.732 0 0 0 10.958 7.363 32.511 32.511 0 0 0 13.355 2.74 33.713 33.713 0 0 0 13.527-2.74 34.275 34.275 0 0 0 18.321-18.321 33.711 33.711 0 0 0 2.74-13.527v-48.285h-27.74a6.507 6.507 0 1 1 0-13.013h34.245q6.507 0 6.507 6.506v54.792a46.613 46.613 0 0 1-3.767 18.664 46.863 46.863 0 0 1-25.17 25.17 46.609 46.609 0 0 1-18.663 3.767 45.4 45.4 0 0 1-18.492-3.767 50.606 50.606 0 0 1-15.068-10.1 46.994 46.994 0 0 1-14.04-33.731Zm227.386 48.285v-89.379a6.432 6.432 0 0 1 6.507-6.506 6.872 6.872 0 0 1 4.794 1.883 6.029 6.029 0 0 1 2.055 4.623v198.625a6.029 6.029 0 0 1-2.055 4.623 6.872 6.872 0 0 1-4.794 1.883 6.432 6.432 0 0 1-6.507-6.506v-96.228h-68.832v96.228a6.029 6.029 0 0 1-2.055 4.623 6.872 6.872 0 0 1-4.794 1.883 6.432 6.432 0 0 1-6.507-6.506v-198.625a6.432 6.432 0 0 1 6.507-6.506 6.872 6.872 0 0 1 4.794 1.883 6.029 6.029 0 0 1 2.055 4.623v89.379Zm150.335-94.516a6.872 6.872 0 0 1 4.794 1.884 6.228 6.228 0 0 1 0 9.246 6.872 6.872 0 0 1-4.794 1.883h-37.67v190.749a6.029 6.029 0 0 1-2.055 4.623 6.872 6.872 0 0 1-4.794 1.883 6.432 6.432 0 0 1-6.507-6.506v-190.748h-38.011a6.507 6.507 0 1 1 0-13.013Z" fill="#ccc"/></g><path data-name="Path 149" d="M231.153 2231.909a5.413 5.413 0 0 1 3.853 1.541 5.581 5.581 0 0 1 0 7.876 5.413 5.413 0 0 1-3.853 1.541h-85.612a5.333 5.333 0 0 1-3.938-1.541 5.8 5.8 0 0 1 0-7.876 5.333 5.333 0 0 1 3.938-1.541Zm-15.923 179.9a4.907 4.907 0 0 1-.428 4.109 5.69 5.69 0 0 1-3.51 2.568 4.907 4.907 0 0 1-4.109-.428 5.65 5.65 0 0 1-2.568-3.339q-.685-2.568-1.541-5.65-.856-2.74-1.8-6.335t-2.14-8.048h-33.217q-1.37 4.452-2.226 8.048t-1.709 6.335q-.856 3.082-1.541 5.65a5.65 5.65 0 0 1-2.568 3.339 5.252 5.252 0 0 1-4.281.428 5.65 5.65 0 0 1-3.339-2.568 4.907 4.907 0 0 1-.431-4.109l27.4-99.31a5.461 5.461 0 0 1 1.969-3 5.565 5.565 0 0 1 6.678 0 5.461 5.461 0 0 1 1.969 3Zm-19.178-28.081q-1.712-6.335-3.6-13.1t-3.681-13.27q-1.8-6.507-3.424-12.414t-2.825-10.53q-1.37 4.623-2.911 10.53t-3.335 12.415q-1.8 6.507-3.681 13.27t-3.6 13.1Zm35.1-69.175a5.275 5.275 0 0 1 5.479-5.479h20.551a25.379 25.379 0 0 1 10.1 2.055 25.793 25.793 0 0 1 13.869 13.869 25.378 25.378 0 0 1 2.055 10.1v6.164a25.007 25.007 0 0 1-2.74 11.643 26.566 26.566 0 0 1-7.363 8.9 26.566 26.566 0 0 1 7.363 8.9 25.007 25.007 0 0 1 2.74 11.643v9.589a25.192 25.192 0 0 1-2.055 10.188 26.473 26.473 0 0 1-5.565 8.219 26.207 26.207 0 0 1-8.3 5.565 25.379 25.379 0 0 1-10.1 2.055h-20.553a5.275 5.275 0 0 1-5.479-5.479Zm41.094 67.8a14.365 14.365 0 0 0-1.2-5.822 15.4 15.4 0 0 0-8.048-8.048 14.365 14.365 0 0 0-5.822-1.2h-15.064v39.724h15.07a14.635 14.635 0 0 0 10.616-4.366 14.41 14.41 0 0 0 4.452-10.7Zm0-47.258a14.366 14.366 0 0 0-1.2-5.822 15.4 15.4 0 0 0-8.048-8.048 14.364 14.364 0 0 0-5.822-1.2h-15.064v36.3h15.07a14.635 14.635 0 0 0 10.616-4.366 14.41 14.41 0 0 0 4.452-10.7Zm49.484 82.7a25.75 25.75 0 0 1-14.04-9.332 25.362 25.362 0 0 1-5.308-15.838v-58.21a25.362 25.362 0 0 1 5.308-15.838 25.75 25.75 0 0 1 14.04-9.332 24.328 24.328 0 0 1 8.561-.856 26.125 26.125 0 0 1 8.133 1.969 26.8 26.8 0 0 1 12.585 11.044 5.367 5.367 0 0 1 .428 4.109 5.65 5.65 0 0 1-2.483 3.424 4.725 4.725 0 0 1-4.109.514 6.012 6.012 0 0 1-3.424-2.568 14.777 14.777 0 0 0-7.277-6.421 14.448 14.448 0 0 0-9.674-.6 14.831 14.831 0 0 0-8.048 5.394 14.667 14.667 0 0 0-3.082 9.161v58.216a14.667 14.667 0 0 0 3.082 9.161 14.831 14.831 0 0 0 8.048 5.394 14.448 14.448 0 0 0 9.674-.6 14.777 14.777 0 0 0 7.277-6.421 5.651 5.651 0 0 1 3.424-2.483 5.367 5.367 0 0 1 4.109.428 5.651 5.651 0 0 1 2.483 3.424 5.367 5.367 0 0 1-.428 4.109 24.188 24.188 0 0 1-5.479 6.678 27.717 27.717 0 0 1-7.106 4.366 26.126 26.126 0 0 1-8.133 1.969 24.329 24.329 0 0 1-8.56-.854Zm74.652-108.721a25.38 25.38 0 0 1 10.1 2.055 25.793 25.793 0 0 1 13.869 13.869 25.378 25.378 0 0 1 2.055 10.1v56.847a25.192 25.192 0 0 1-2.055 10.188 26.473 26.473 0 0 1-5.565 8.219 26.206 26.206 0 0 1-8.3 5.565 25.379 25.379 0 0 1-10.1 2.055h-20.548a5.275 5.275 0 0 1-5.479-5.479v-97.94a5.275 5.275 0 0 1 5.479-5.479Zm15.068 26.026a14.635 14.635 0 0 0-4.366-10.616 14.41 14.41 0 0 0-10.7-4.452h-15.067v86.982h15.065a14.91 14.91 0 0 0 15.068-15.068Zm32.19-20.547a5.275 5.275 0 0 1 5.479-5.479h34.245a5.481 5.481 0 1 1 0 10.958h-28.763v36.3h25.341a5.481 5.481 0 1 1 0 10.958h-25.341v39.724h28.766a5.481 5.481 0 1 1 0 10.958h-34.245a5.275 5.275 0 0 1-5.479-5.479Zm68.49 103.42a5.413 5.413 0 0 1-3.853-1.541 5.187 5.187 0 0 1-1.627-3.938v-97.94a5.187 5.187 0 0 1 1.627-3.938 5.413 5.413 0 0 1 3.853-1.541h34.252a5.481 5.481 0 1 1 0 10.958h-28.77v36.3h25.341a5.481 5.481 0 1 1 0 10.958h-25.341v45.2a5.275 5.275 0 0 1-5.479 5.479Zm54.107-83.558a25.1 25.1 0 0 1 5.394-15.838 26.16 26.16 0 0 1 13.955-9.332 24.328 24.328 0 0 1 8.561-.856 26.125 26.125 0 0 1 8.133 1.969 26.8 26.8 0 0 1 12.585 11.044 4.944 4.944 0 0 1 .6 4.109 5.5 5.5 0 0 1-2.654 3.424 4.724 4.724 0 0 1-4.109.514 6.012 6.012 0 0 1-3.424-2.568 13.945 13.945 0 0 0-7.106-6.421 14.448 14.448 0 0 0-9.674-.6 15.257 15.257 0 0 0-8.133 5.394 14.411 14.411 0 0 0-3.168 9.161v58.216a14.41 14.41 0 0 0 4.452 10.7 15.025 15.025 0 0 0 25.684-10.7v-21.916H595.69a5.413 5.413 0 0 1-3.853-1.541 5.58 5.58 0 0 1 0-7.876 5.413 5.413 0 0 1 3.853-1.541h17.122a5.275 5.275 0 0 1 5.479 5.479v27.4a25.193 25.193 0 0 1-2.055 10.188 26.474 26.474 0 0 1-5.565 8.219 26.207 26.207 0 0 1-8.3 5.565 26.073 26.073 0 0 1-20.29 0 26.247 26.247 0 0 1-13.784-13.784 25.193 25.193 0 0 1-2.055-10.188Zm113.693-20.547a5.187 5.187 0 0 1 1.627-3.938 5.413 5.413 0 0 1 3.853-1.541 5.275 5.275 0 0 1 5.479 5.479v99.31a5.275 5.275 0 0 1-5.479 5.479 5.413 5.413 0 0 1-3.853-1.541 5.187 5.187 0 0 1-1.627-3.938v-45.888h-30.133v45.889a5.275 5.275 0 0 1-5.479 5.479 5.413 5.413 0 0 1-3.853-1.541 5.187 5.187 0 0 1-1.627-3.938v-99.31a5.187 5.187 0 0 1 1.627-3.938 5.413 5.413 0 0 1 3.853-1.541 5.275 5.275 0 0 1 5.479 5.479v42.464h30.135Zm39.724 104.789a5.413 5.413 0 0 1-3.853-1.541 5.187 5.187 0 0 1-1.627-3.938v-99.31a5.187 5.187 0 0 1 1.627-3.938 5.413 5.413 0 0 1 3.853-1.541 5.275 5.275 0 0 1 5.479 5.479v99.31a5.275 5.275 0 0 1-5.479 5.479Zm63.182-26.026a25.755 25.755 0 0 1-3.51 13.1 25.316 25.316 0 0 1-9.5 9.5 26.437 26.437 0 0 1-26.026 0 5.5 5.5 0 0 1-2.654-3.424 4.944 4.944 0 0 1 .6-4.109 6.012 6.012 0 0 1 3.339-2.568 4.984 4.984 0 0 1 4.2.514 14.216 14.216 0 0 0 7.448 2.055 15.124 15.124 0 0 0 7.62-2.055 14.044 14.044 0 0 0 5.479-5.479 14.969 14.969 0 0 0 2.055-7.534v-78.763a5.275 5.275 0 0 1 5.479-5.479 5.413 5.413 0 0 1 3.853 1.541 5.187 5.187 0 0 1 1.627 3.938Zm77.565 18.15a5.132 5.132 0 0 1 .257 4.2 5.514 5.514 0 0 1-2.825 3.168 5.132 5.132 0 0 1-4.2.257 4.9 4.9 0 0 1-3-2.825l-24.656-50.854-9.589 13.356v35.1a5.275 5.275 0 0 1-5.479 5.479 5.413 5.413 0 0 1-3.853-1.541 5.187 5.187 0 0 1-1.627-3.938v-99.31a5.187 5.187 0 0 1 1.627-3.938 5.413 5.413 0 0 1 3.853-1.541 5.275 5.275 0 0 1 5.479 5.479v45.374l34.594-48.632a5.3 5.3 0 0 1 3.6-2.226 5.361 5.361 0 0 1 4.109 1.027 5.3 5.3 0 0 1 2.226 3.6 5.361 5.361 0 0 1-1.027 4.109l-26.54 37.327Zm22.6 7.191a5.275 5.275 0 0 1-5.479-5.479v-98.625a5.275 5.275 0 0 1 5.479-5.479 5.413 5.413 0 0 1 3.853 1.541 5.187 5.187 0 0 1 1.627 3.938v93.146h28.766a5.413 5.413 0 0 1 3.853 1.541 5.581 5.581 0 0 1 0 7.876 5.413 5.413 0 0 1-3.853 1.541Zm59.586.685a5.275 5.275 0 0 1-5.479-5.479v-99.31a5.444 5.444 0 0 1 1.2-3.424 4.9 4.9 0 0 1 3.082-1.883 5.966 5.966 0 0 1 3.6.428 5.174 5.174 0 0 1 2.568 2.483q4.452 9.589 8.732 18.492 3.6 7.705 7.363 15.838t6.335 13.441q1.2-2.568 2.825-6.078t3.424-7.363q1.8-3.853 3.681-7.962t3.767-7.876q4.281-8.9 8.732-18.492a5.174 5.174 0 0 1 2.565-2.483 5.967 5.967 0 0 1 3.6-.428 4.9 4.9 0 0 1 3.082 1.883 5.444 5.444 0 0 1 1.2 3.424v99.31a5.187 5.187 0 0 1-1.627 3.938 5.413 5.413 0 0 1-3.852 1.541 5.275 5.275 0 0 1-5.479-5.479v-74.824q-3.082 6.507-6.078 12.927l-5.396 11.558q-2.911 5.993-5.479 11.643a5.4 5.4 0 0 1-4.965 3.082 4.975 4.975 0 0 1-4.966-3.082q-2.568-5.65-5.479-11.643-2.4-5.137-5.479-11.558t-5.993-12.927v74.825a5.187 5.187 0 0 1-1.627 3.938 5.413 5.413 0 0 1-3.853 1.541Zm138.178-.171a4.9 4.9 0 0 1-3.6-.342 5.6 5.6 0 0 1-2.568-2.568q-7.191-14.725-14.04-28.937-2.911-5.993-6.078-12.5t-6.25-12.927q-3.082-6.421-5.907-12.414t-5.222-10.958v75.339a5.481 5.481 0 1 1-10.958 0v-99.31a5.444 5.444 0 0 1 1.2-3.424 4.9 4.9 0 0 1 3.082-1.883 5.966 5.966 0 0 1 3.6.428 5.174 5.174 0 0 1 2.568 2.483q7.02 14.725 13.869 28.937 2.911 5.993 6.078 12.5t6.25 12.927q3.082 6.421 5.993 12.414t5.308 10.958v-75.341a5.481 5.481 0 1 1 10.958 0v99.31a5.444 5.444 0 0 1-1.2 3.424 4.9 4.9 0 0 1-3.079 1.885Zm51.539.171a25.193 25.193 0 0 1-10.188-2.055 26.248 26.248 0 0 1-13.784-13.784 25.192 25.192 0 0 1-2.055-10.188v-58.215a25.377 25.377 0 0 1 2.055-10.1 26.208 26.208 0 0 1 5.565-8.3 26.475 26.475 0 0 1 8.219-5.565 26.072 26.072 0 0 1 20.29 0 25.793 25.793 0 0 1 13.876 13.859 25.377 25.377 0 0 1 2.055 10.1v58.216a25.192 25.192 0 0 1-2.055 10.188 26.476 26.476 0 0 1-5.565 8.219 26.206 26.206 0 0 1-8.3 5.565 25.378 25.378 0 0 1-10.109 2.061Zm0-99.31a14.41 14.41 0 0 0-10.7 4.452 14.635 14.635 0 0 0-4.366 10.616v58.216a15.068 15.068 0 1 0 30.135 0v-58.216a14.366 14.366 0 0 0-1.2-5.822 15.4 15.4 0 0 0-8.048-8.048 14.365 14.365 0 0 0-5.817-1.197Zm47.258-4.794a5.275 5.275 0 0 1 5.479-5.479h20.547a25.379 25.379 0 0 1 10.1 2.055 25.793 25.793 0 0 1 13.869 13.869 25.379 25.379 0 0 1 2.055 10.1v9.589a25.193 25.193 0 0 1-2.055 10.188 26.474 26.474 0 0 1-5.565 8.219 26.2 26.2 0 0 1-8.3 5.565 25.378 25.378 0 0 1-10.1 2.055h-15.068v42.465a5.481 5.481 0 1 1-10.958 0Zm41.094 20.547a14.365 14.365 0 0 0-1.2-5.822 15.4 15.4 0 0 0-8.047-8.048 14.365 14.365 0 0 0-5.822-1.2h-15.068v39.724h15.068a14.635 14.635 0 0 0 10.616-4.366 14.41 14.41 0 0 0 4.452-10.7Zm25.341-.685a25.377 25.377 0 0 1 2.055-10.1 26.208 26.208 0 0 1 5.565-8.3 26.473 26.473 0 0 1 8.219-5.565 26.072 26.072 0 0 1 20.29 0 25.793 25.793 0 0 1 13.869 13.869 25.377 25.377 0 0 1 2.055 10.1v58.216a25.244 25.244 0 0 1-2.311 10.787 26.746 26.746 0 0 1-6.25 8.561l7.876 13.527a4.725 4.725 0 0 1 .514 4.109 6.012 6.012 0 0 1-2.568 3.424 5.367 5.367 0 0 1-4.109.428 5.651 5.651 0 0 1-3.424-2.483l-7.705-13.527a39.888 39.888 0 0 1-3.938.856 25.858 25.858 0 0 1-14.3-1.712 26.247 26.247 0 0 1-13.784-13.784 25.192 25.192 0 0 1-2.055-10.188Zm26.026-15.068a14.365 14.365 0 0 0-5.822 1.2 15.4 15.4 0 0 0-8.047 8.048 14.365 14.365 0 0 0-1.2 5.822v58.216a14.41 14.41 0 0 0 4.452 10.7 15.025 15.025 0 0 0 25.684-10.7v-58.218a14.635 14.635 0 0 0-4.366-10.616 14.41 14.41 0 0 0-10.697-4.451Zm99.31 25.341a25.8 25.8 0 0 1-16.1 24.143l15.753 42.464a4.924 4.924 0 0 1-.086 4.109 5.5 5.5 0 0 1-3.168 2.911 4.924 4.924 0 0 1-4.109-.086 5.5 5.5 0 0 1-2.911-3.168l-16.43-44.346h-14.04v42.464a5.276 5.276 0 0 1-5.479 5.479 5.414 5.414 0 0 1-3.853-1.541 5.187 5.187 0 0 1-1.627-3.938v-98.626a5.187 5.187 0 0 1 1.627-3.938 5.414 5.414 0 0 1 3.853-1.541h20.547a25.38 25.38 0 0 1 10.1 2.055 25.792 25.792 0 0 1 13.869 13.869 25.377 25.377 0 0 1 2.055 10.1Zm-26.026 15.068a14.91 14.91 0 0 0 15.075-15.067v-9.589a14.635 14.635 0 0 0-4.366-10.616 14.41 14.41 0 0 0-10.7-4.452h-15.068v39.724Zm74.654 44.69a16.045 16.045 0 0 0 5.479-18.15 15.431 15.431 0 0 0-3.6-5.65l-27.4-28.081a24.487 24.487 0 0 1-5.822-9.246 24.933 24.933 0 0 1-1.37-10.787 24.228 24.228 0 0 1 3.082-10.53 27.134 27.134 0 0 1 7.192-8.3 25.738 25.738 0 0 1 9.931-4.709 24.5 24.5 0 0 1 10.958-.086 26.829 26.829 0 0 1 9.931 4.366 25.908 25.908 0 0 1 7.363 8.133 4.945 4.945 0 0 1 .6 4.109 5.5 5.5 0 0 1-2.654 3.424 4.725 4.725 0 0 1-4.109.514 5.311 5.311 0 0 1-3.253-2.568 15.238 15.238 0 0 0-22.259-4.452 14.111 14.111 0 0 0-5.822 10.787 14.756 14.756 0 0 0 4.109 11.643l27.4 28.252a26.931 26.931 0 0 1 5.907 9.5 26.293 26.293 0 0 1-1.627 22.088 25.637 25.637 0 0 1-7.363 8.476 28.272 28.272 0 0 1-10.273 4.794 25.192 25.192 0 0 1-11.3.171 27.643 27.643 0 0 1-10.359-4.537 26.5 26.5 0 0 1-7.619-8.3 5.784 5.784 0 0 1 2.055-7.534 4.944 4.944 0 0 1 4.109-.6 5.5 5.5 0 0 1 3.424 2.654 15.8 15.8 0 0 0 10.616 7.534 15.263 15.263 0 0 0 12.678-2.915Zm79.106-95.372a5.481 5.481 0 1 1 0 10.958h-16.78v93.147a5.275 5.275 0 0 1-5.479 5.479 5.413 5.413 0 0 1-3.853-1.541 5.187 5.187 0 0 1-1.627-3.938v-93.147h-16.78a5.413 5.413 0 0 1-3.853-1.541 5.58 5.58 0 0 1 0-7.876 5.413 5.413 0 0 1 3.853-1.541Zm31.505 83.558a15.068 15.068 0 1 0 30.135 0v-78.764a5.275 5.275 0 0 1 5.479-5.479 5.413 5.413 0 0 1 3.853 1.541 5.187 5.187 0 0 1 1.627 3.938v78.763a25.194 25.194 0 0 1-2.055 10.188 25.765 25.765 0 0 1-5.651 8.219 27.551 27.551 0 0 1-8.3 5.565 24.771 24.771 0 0 1-10.017 2.055 25.193 25.193 0 0 1-10.188-2.055 26.247 26.247 0 0 1-13.784-13.784 25.192 25.192 0 0 1-2.055-10.188v-78.763a5.275 5.275 0 0 1 5.479-5.479 5.414 5.414 0 0 1 3.853 1.541 5.187 5.187 0 0 1 1.627 3.938Zm57.189-77.222a5.126 5.126 0 0 1 .428-4.2 5.568 5.568 0 0 1 3.339-2.654 5.658 5.658 0 0 1 4.195.6 4.955 4.955 0 0 1 2.483 3.339q4.452 15.753 8.561 30.649 1.712 6.335 3.6 13.1t3.681 13.27q1.8 6.507 3.425 12.5t3 10.616q1.2-4.623 2.825-10.616t3.424-12.5q1.8-6.507 3.681-13.27t3.6-13.1q4.109-14.9 8.561-30.649a4.954 4.954 0 0 1 2.483-3.339 5.658 5.658 0 0 1 4.195-.6 5.568 5.568 0 0 1 3.339 2.654 5.126 5.126 0 0 1 .428 4.2l-27.4 99.31a4.6 4.6 0 0 1-1.8 2.825 5.565 5.565 0 0 1-6.678 0 5.455 5.455 0 0 1-1.969-2.825Zm77.393-.171a5.757 5.757 0 0 1 .6-4.281 5.014 5.014 0 0 1 3.339-2.4 5.659 5.659 0 0 1 4.2.6 5.028 5.028 0 0 1 2.483 3.51q3.425 14.554 6.849 28.594 1.37 5.993 3 12.414t3.168 12.842q1.541 6.421 3 12.414t2.654 10.958q1.2-4.965 2.568-10.958t2.911-12.414l3.082-12.842q1.541-6.421 3.082-12.414 3.425-14.04 7.021-28.594a4.9 4.9 0 0 1 1.883-3.082 5.445 5.445 0 0 1 3.425-1.2q4.109 0 5.308 4.281 3.424 14.554 6.849 28.594 1.37 5.993 3 12.414t3.167 12.842q1.541 6.421 3 12.414t2.654 10.958q1.2-4.965 2.568-10.958t2.911-12.414l3.082-12.842q1.541-6.421 3.082-12.414 3.424-14.04 7.02-28.594a5.1 5.1 0 0 1 2.4-3.51 5.4 5.4 0 0 1 4.109-.6 5.318 5.318 0 0 1 3.425 2.4 5.52 5.52 0 0 1 .685 4.281l-23.971 99.31a5.46 5.46 0 0 1-1.969 3 5.348 5.348 0 0 1-3.339 1.113 5.713 5.713 0 0 1-3.425-1.113 4.574 4.574 0 0 1-1.884-3q-3.6-14.383-7.02-28.595-1.541-5.993-3.082-12.5t-3.082-12.927q-1.56-6.417-2.925-12.417t-2.568-10.958q-1.2 4.965-2.654 10.958t-3 12.414q-1.541 6.421-3.168 12.927t-3 12.5q-3.424 14.212-6.849 28.595a5.463 5.463 0 0 1-1.969 3 5.349 5.349 0 0 1-3.339 1.113 5.713 5.713 0 0 1-3.424-1.113 4.573 4.573 0 0 1-1.884-3Zm121.056 102.906a5.513 5.513 0 0 1-2.825-3.168 5.133 5.133 0 0 1 .257-4.2l24.485-48.97-22.773-45.546a4.892 4.892 0 0 1-.257-4.109 5.506 5.506 0 0 1 2.825-3.253 5.632 5.632 0 0 1 4.109-.171 5.2 5.2 0 0 1 3.253 2.74l19.006 38.012 19.006-38.012a5.191 5.191 0 0 1 3.168-2.74 5.9 5.9 0 0 1 4.2.171 5.2 5.2 0 0 1 2.74 3.253 5.631 5.631 0 0 1-.171 4.109l-22.774 45.548 24.485 48.97a5.9 5.9 0 0 1 .171 4.2 5.192 5.192 0 0 1-2.74 3.168 5.132 5.132 0 0 1-4.195.257 5.514 5.514 0 0 1-3.168-2.825l-20.718-41.436-20.718 41.436a5.508 5.508 0 0 1-3.253 2.825 4.892 4.892 0 0 1-4.109-.26Zm93.146-54.963-23.458-46.916a4.892 4.892 0 0 1-.257-4.109 5.507 5.507 0 0 1 2.825-3.253 5.632 5.632 0 0 1 4.109-.171 5.2 5.2 0 0 1 3.253 2.74l19.006 38.012 19.006-38.012a5.19 5.19 0 0 1 3.167-2.74 5.9 5.9 0 0 1 4.195.171 5.507 5.507 0 0 1 2.825 3.253 4.892 4.892 0 0 1-.257 4.109l-23.458 46.916v50a5.481 5.481 0 1 1-10.958 0Zm46.744 49.313a4.559 4.559 0 0 1 .514-2.055q9.075-21.746 16.78-40.238 3.253-7.876 6.592-15.753t6.164-14.725q2.825-6.849 5.051-12.071t3.253-7.62h-32.872a5.481 5.481 0 1 1 0-10.958h41.1a5.131 5.131 0 0 1 4.623 2.4 7.015 7.015 0 0 1 .856 3.082 9.366 9.366 0 0 1-.342 2.055q-9.246 21.917-16.951 40.409-3.424 7.876-6.678 15.838t-6.164 14.725q-2.911 6.763-5.051 11.9t-3.167 7.534h32.874a5.481 5.481 0 1 1 0 10.958h-41.1a5.131 5.131 0 0 1-4.623-2.4 7.018 7.018 0 0 1-.854-3.082ZM181.156 2618.42a25.193 25.193 0 0 1-10.188-2.055 26.247 26.247 0 0 1-13.786-13.784 25.193 25.193 0 0 1-2.055-10.188v-58.216a25.379 25.379 0 0 1 2.055-10.1 26.207 26.207 0 0 1 5.565-8.3 26.473 26.473 0 0 1 8.219-5.565 25.192 25.192 0 0 1 10.188-2.055 24.771 24.771 0 0 1 10.019 2.052 27.551 27.551 0 0 1 8.3 5.565 25.816 25.816 0 0 1 7.709 18.403v58.216a25.193 25.193 0 0 1-2.055 10.188 25.764 25.764 0 0 1-5.65 8.219 27.55 27.55 0 0 1-8.3 5.565 24.772 24.772 0 0 1-10.021 2.055Zm0-99.31a14.41 14.41 0 0 0-10.7 4.452 14.635 14.635 0 0 0-4.366 10.616v58.216a14.91 14.91 0 0 0 15.068 15.068 14.635 14.635 0 0 0 10.616-4.366 14.41 14.41 0 0 0 4.452-10.7v-58.219a14.365 14.365 0 0 0-1.2-5.822 15.4 15.4 0 0 0-8.044-8.046 14.366 14.366 0 0 0-5.826-1.2Zm58.559 19.006a5.124 5.124 0 0 1-3.767 1.541 5.571 5.571 0 0 1-3.938-9.417l20.547-20.547a5.017 5.017 0 0 1 2.825-1.455 6.614 6.614 0 0 1 3.168.257 5.082 5.082 0 0 1 3.424 5.137v99.31a5.187 5.187 0 0 1-1.627 3.938 5.413 5.413 0 0 1-3.853 1.541 5.275 5.275 0 0 1-5.479-5.479v-86.127Zm61.3-9.417a6.012 6.012 0 0 1-2.568-3.424 4.725 4.725 0 0 1 .514-4.109 23.906 23.906 0 0 1 15.581-11.986 25.864 25.864 0 0 1 10.017-.77 26.435 26.435 0 0 1 9.5 3 25.738 25.738 0 0 1 7.705 6.335 23.73 23.73 0 0 1 4.623 8.9 25.28 25.28 0 0 1-1.883 19.691q-7.191 13.527-13.356 25.512-2.74 5.137-5.479 10.359t-5.137 9.931q-2.4 4.709-4.452 8.561t-3.253 6.078h29.279a5.413 5.413 0 0 1 3.853 1.541 5.581 5.581 0 0 1 0 7.876 5.413 5.413 0 0 1-3.853 1.541h-38.353a4.815 4.815 0 0 1-4.623-2.568 5.035 5.035 0 0 1-.171-5.479l35.957-68.49a14 14 0 0 0 1.027-11.3 15.581 15.581 0 0 0-2.654-5.222 13.05 13.05 0 0 0-4.537-3.681 14.954 14.954 0 0 0-11.3-1.37 15.58 15.58 0 0 0-5.222 2.654 13.556 13.556 0 0 0-3.681 4.366 6.012 6.012 0 0 1-3.424 2.568 4.725 4.725 0 0 1-4.112-.515Zm93.317 78.25a14.831 14.831 0 0 0 8.048-5.394 14.666 14.666 0 0 0 3.082-9.161v-10.274a15.2 15.2 0 0 0-15.068-15.068 5.481 5.481 0 1 1 0-10.958 14.635 14.635 0 0 0 10.616-4.366 14.41 14.41 0 0 0 4.452-10.7v-6.849a14.666 14.666 0 0 0-3.082-9.16 14.831 14.831 0 0 0-8.048-5.394 14.448 14.448 0 0 0-9.674.6 14.776 14.776 0 0 0-7.277 6.421 6.012 6.012 0 0 1-3.424 2.568 4.725 4.725 0 0 1-4.109-.514 6.012 6.012 0 0 1-2.568-3.424 4.725 4.725 0 0 1 .514-4.109 26.8 26.8 0 0 1 12.585-11.044 26.126 26.126 0 0 1 8.133-1.969 24.329 24.329 0 0 1 8.561.856 25.75 25.75 0 0 1 14.04 9.332 25.362 25.362 0 0 1 5.308 15.838v6.849a25.007 25.007 0 0 1-2.74 11.643 26.567 26.567 0 0 1-7.363 8.9 26.565 26.565 0 0 1 7.363 8.9 25.007 25.007 0 0 1 2.74 11.643v10.273a25.362 25.362 0 0 1-5.308 15.838 25.75 25.75 0 0 1-14.04 9.332 24.329 24.329 0 0 1-8.561.856 26.125 26.125 0 0 1-8.133-1.969 27.718 27.718 0 0 1-7.106-4.366 24.189 24.189 0 0 1-5.479-6.678 4.725 4.725 0 0 1-.514-4.109 6.012 6.012 0 0 1 2.568-3.425 5.367 5.367 0 0 1 4.109-.428 5.651 5.651 0 0 1 3.424 2.483 14.777 14.777 0 0 0 7.277 6.421 14.447 14.447 0 0 0 9.672.605Zm48.8-12.5a5.361 5.361 0 0 1-4.452-2.226 5.175 5.175 0 0 1-.856-4.966l23.971-75.339a6.363 6.363 0 0 1 2.825-3.168 4.7 4.7 0 0 1 4.2-.257 4.938 4.938 0 0 1 3.767 5.137 3.208 3.208 0 0 1-.342 1.712q-4.965 16.1-9.417 29.793-1.883 5.822-3.767 11.729t-3.51 11.13q-1.627 5.222-2.911 9.246t-1.969 6.25h21.232v-18.492a5.481 5.481 0 1 1 10.958 0v18.492h8.219a5.481 5.481 0 1 1 0 10.958h-8.219v18.492a5.481 5.481 0 1 1-10.958 0v-18.492Zm74.825-25.855a5.461 5.461 0 0 1-3-1.969 5.348 5.348 0 0 1-1.113-3.339v-48.97a5.275 5.275 0 0 1 5.479-5.479h35.615a5.481 5.481 0 1 1 0 10.958h-30.135v30.82a25.979 25.979 0 0 1 38.354 22.944v18.835a25.362 25.362 0 0 1-5.308 15.838 25.75 25.75 0 0 1-14.04 9.332 24.329 24.329 0 0 1-8.561.856 26.124 26.124 0 0 1-8.133-1.969 27.716 27.716 0 0 1-7.106-4.366 24.188 24.188 0 0 1-5.479-6.678 5.367 5.367 0 0 1-.428-4.109 5.65 5.65 0 0 1 2.483-3.425 5.367 5.367 0 0 1 4.109-.428 5.651 5.651 0 0 1 3.424 2.483 14.777 14.777 0 0 0 7.277 6.421 14.447 14.447 0 0 0 9.674.6 14.831 14.831 0 0 0 8.048-5.394 14.666 14.666 0 0 0 3.082-9.161v-18.835a14.667 14.667 0 0 0-3.082-9.161 14.831 14.831 0 0 0-8.048-5.394 14.448 14.448 0 0 0-9.674.6 14.777 14.777 0 0 0-7.277 6.421 4.789 4.789 0 0 1-2.568 2.4 5.525 5.525 0 0 1-3.596.168Zm92.119 49.826a25.194 25.194 0 0 1-10.188-2.055 26.248 26.248 0 0 1-13.784-13.784 25.194 25.194 0 0 1-2.055-10.188v-58.216a25.1 25.1 0 0 1 5.394-15.838 26.16 26.16 0 0 1 13.955-9.332 24.328 24.328 0 0 1 8.561-.856 26.125 26.125 0 0 1 8.133 1.969 26.8 26.8 0 0 1 12.585 11.044 4.725 4.725 0 0 1 .514 4.109 6.012 6.012 0 0 1-2.568 3.424 4.725 4.725 0 0 1-4.109.514 6.012 6.012 0 0 1-3.424-2.568 13.906 13.906 0 0 0-7.191-6.421 15.092 15.092 0 0 0-20.889 13.955v19.862a25.992 25.992 0 0 1 25.17-2.74 25.792 25.792 0 0 1 13.869 13.869 25.379 25.379 0 0 1 2.055 10.1v17.122a25.194 25.194 0 0 1-2.055 10.188 26.475 26.475 0 0 1-5.565 8.219 26.205 26.205 0 0 1-8.3 5.565 25.379 25.379 0 0 1-10.111 2.058Zm0-58.216a14.365 14.365 0 0 0-5.822 1.2 15.4 15.4 0 0 0-8.048 8.048 14.365 14.365 0 0 0-1.2 5.822v17.122a14.41 14.41 0 0 0 4.452 10.7 15.025 15.025 0 0 0 25.684-10.7v-17.125a14.635 14.635 0 0 0-4.366-10.616 14.41 14.41 0 0 0-10.703-4.452Zm48.628-26.711a5.413 5.413 0 0 1-3.853-1.541 5.187 5.187 0 0 1-1.627-3.938v-13.7a5.187 5.187 0 0 1 1.627-3.938 5.413 5.413 0 0 1 3.853-1.541h41.094a5.349 5.349 0 0 1 4.281 2.055 5.409 5.409 0 0 1 1.027 4.794l-23.975 98.625a5.014 5.014 0 0 1-2.4 3.339 5.4 5.4 0 0 1-4.109.6 4.9 4.9 0 0 1-3.082-1.883 5.444 5.444 0 0 1-1.2-3.424 2.812 2.812 0 0 1 .086-.685 2.812 2.812 0 0 0 .086-.685q5.479-22.6 10.1-41.436 2.055-8.048 3.938-16.1t3.6-14.9l3-11.986q1.284-5.137 1.8-7.363h-28.768v8.223a5.275 5.275 0 0 1-5.479 5.479Zm92.29 84.927a24.772 24.772 0 0 1-10.017-2.055 27.551 27.551 0 0 1-8.3-5.565 25.764 25.764 0 0 1-5.65-8.219 25.193 25.193 0 0 1-2.055-10.188v-10.273a25.006 25.006 0 0 1 2.74-11.643 26.564 26.564 0 0 1 7.363-8.9 26.566 26.566 0 0 1-7.363-8.9 25.006 25.006 0 0 1-2.74-11.643v-6.849a25.816 25.816 0 0 1 7.705-18.407 27.551 27.551 0 0 1 8.3-5.565 24.771 24.771 0 0 1 10.017-2.055 25.378 25.378 0 0 1 10.1 2.055 25.793 25.793 0 0 1 13.869 13.869 25.38 25.38 0 0 1 2.055 10.1v6.849a25.006 25.006 0 0 1-2.74 11.643 27.5 27.5 0 0 1-7.191 8.9 27.5 27.5 0 0 1 7.191 8.9 25.006 25.006 0 0 1 2.74 11.643v10.273a25.194 25.194 0 0 1-2.055 10.188 26.474 26.474 0 0 1-5.565 8.219 26.2 26.2 0 0 1-8.3 5.565 25.379 25.379 0 0 1-10.107 2.058Zm-15.068-77.393a14.411 14.411 0 0 0 4.452 10.7 15.025 15.025 0 0 0 25.684-10.7v-6.849a14.635 14.635 0 0 0-4.366-10.616 14.973 14.973 0 0 0-16.523-3.253 15.4 15.4 0 0 0-8.048 8.048 14.365 14.365 0 0 0-1.2 5.822Zm30.135 41.094a14.635 14.635 0 0 0-4.369-10.612 14.972 14.972 0 0 0-16.523-3.253 15.4 15.4 0 0 0-8.048 8.048 14.365 14.365 0 0 0-1.2 5.822v10.273a14.411 14.411 0 0 0 4.452 10.7 15.025 15.025 0 0 0 25.684-10.7Zm54.621-4.794a24.772 24.772 0 0 1-10.017-2.055 27.552 27.552 0 0 1-8.3-5.565 25.762 25.762 0 0 1-5.65-8.219 25.192 25.192 0 0 1-2.055-10.188v-17.123a25.815 25.815 0 0 1 7.705-18.407 27.55 27.55 0 0 1 8.3-5.565 24.771 24.771 0 0 1 10.017-2.055 25.378 25.378 0 0 1 10.1 2.055 25.792 25.792 0 0 1 13.869 13.869 25.38 25.38 0 0 1 2.055 10.1v58.216a25.361 25.361 0 0 1-5.308 15.838 25.733 25.733 0 0 1-13.869 9.332 24.875 24.875 0 0 1-16.78-1.027 25.761 25.761 0 0 1-12.5-11.13 4.944 4.944 0 0 1-.6-4.109 5.507 5.507 0 0 1 10.017-1.37 14.777 14.777 0 0 0 7.277 6.421 14.447 14.447 0 0 0 9.674.6 14.831 14.831 0 0 0 8.048-5.394 14.666 14.666 0 0 0 3.082-9.161v-19.858a24.254 24.254 0 0 1-15.065 4.794Zm0-58.216a14.366 14.366 0 0 0-5.822 1.2 15.4 15.4 0 0 0-8.048 8.048 14.366 14.366 0 0 0-1.2 5.822v17.122a14.41 14.41 0 0 0 4.452 10.7 15.025 15.025 0 0 0 25.684-10.7v-17.126a14.635 14.635 0 0 0-4.366-10.616 14.41 14.41 0 0 0-10.7-4.452Zm54.278 99.31a7.311 7.311 0 1 1 5.051-2.14 6.908 6.908 0 0 1-5.054 2.139Zm-5.478-101.366a5.187 5.187 0 0 1 1.627-3.938 5.413 5.413 0 0 1 3.853-1.541 5.275 5.275 0 0 1 5.479 5.479v68.49a5.275 5.275 0 0 1-5.479 5.479 5.413 5.413 0 0 1-3.853-1.541 5.187 5.187 0 0 1-1.627-3.938Zm59.929 5.137a15.238 15.238 0 0 0-22.259 4.452 6.012 6.012 0 0 1-3.339 2.568 4.985 4.985 0 0 1-4.2-.514 5.651 5.651 0 0 1-2.483-3.424 4.944 4.944 0 0 1 .6-4.109 25.906 25.906 0 0 1 7.363-8.133 26.83 26.83 0 0 1 9.931-4.366 24.5 24.5 0 0 1 10.958.086 25.739 25.739 0 0 1 9.931 4.709 26.8 26.8 0 0 1 7.191 8.39 24.559 24.559 0 0 1 3.082 10.445 26.553 26.553 0 0 1-1.627 10.958 25.412 25.412 0 0 1-5.907 9.246l-8.561 8.732a14.493 14.493 0 0 0-4.452 10.616v13.7a5.275 5.275 0 0 1-5.479 5.479 5.413 5.413 0 0 1-3.853-1.541 5.187 5.187 0 0 1-1.627-3.938v-13.7a25.268 25.268 0 0 1 1.969-9.845 27.623 27.623 0 0 1 5.565-8.476l8.732-8.732a14.232 14.232 0 0 0 4.281-11.643 17.853 17.853 0 0 0-1.8-6.164 13.136 13.136 0 0 0-4.02-4.796Zm-2.055 89.037a7.311 7.311 0 1 1-2.14-5.051 6.908 6.908 0 0 1 2.136 5.05Zm64.723-91.605a14.832 14.832 0 0 0-8.048 5.394 14.666 14.666 0 0 0-3.082 9.16v9.931h21.913a5.414 5.414 0 0 1 3.853 1.541 5.581 5.581 0 0 1 0 7.876 5.414 5.414 0 0 1-3.853 1.541h-21.917v16.442h15.068a5.413 5.413 0 0 1 3.853 1.541 5.581 5.581 0 0 1 0 7.876 5.413 5.413 0 0 1-3.853 1.541h-15.068v9.931a14.666 14.666 0 0 0 3.082 9.161 14.832 14.832 0 0 0 8.048 5.394 14.447 14.447 0 0 0 9.674-.6 14.777 14.777 0 0 0 7.277-6.421l1.712-2.911a5.486 5.486 0 0 1 3.339-2.654 5.233 5.233 0 0 1 4.195.6 5.635 5.635 0 0 1 2.483 3.339 5.233 5.233 0 0 1-.6 4.195l-1.712 2.911a25.761 25.761 0 0 1-12.5 11.13 24.875 24.875 0 0 1-16.78 1.027 25.733 25.733 0 0 1-13.869-9.332 25.362 25.362 0 0 1-5.308-15.838v-9.931h-8.219a5.481 5.481 0 1 1 0-10.958h8.219v-16.443h-8.219a5.481 5.481 0 1 1 0-10.958h8.219v-9.931a25.362 25.362 0 0 1 5.308-15.838 25.733 25.733 0 0 1 13.869-9.332 24.874 24.874 0 0 1 16.78 1.027 25.761 25.761 0 0 1 12.5 11.13l1.712 2.911a5.233 5.233 0 0 1 .6 4.195 5.635 5.635 0 0 1-2.483 3.339 5.233 5.233 0 0 1-4.195.6 5.486 5.486 0 0 1-3.339-2.654l-1.712-2.911a14.777 14.777 0 0 0-7.277-6.421 14.448 14.448 0 0 0-9.674-.601Zm92.115 80.985-3.082 5.137a25.521 25.521 0 0 1-7.191 7.791 29.352 29.352 0 0 1-9.589 4.366 24.284 24.284 0 0 1-10.53.086 28.306 28.306 0 0 1-9.674-4.024 25.507 25.507 0 0 1-11.13-17.465 25.393 25.393 0 0 1 5.137-20.033l13.7-17.807-11.643-15.068-.171-.171v-.171h-.171v-.171a22.679 22.679 0 0 1-3.681-11.558 21.667 21.667 0 0 1 2.825-11.729 22.327 22.327 0 0 1 8.561-8.818 21.215 21.215 0 0 1 11.986-2.825 23.22 23.22 0 0 1 11.729 3.767 22.818 22.818 0 0 1 10.012 21.32 22.424 22.424 0 0 1-4.623 11.386l-10.958 14.04 13.014 16.947 4.281 5.65 5.308-8.732a5.368 5.368 0 0 1 7.534-1.884 5.634 5.634 0 0 1 2.483 3.339 5.232 5.232 0 0 1-.6 4.195l-7.539 12.332 13.527 17.294a5.667 5.667 0 0 1 1.113 4.109 5 5 0 0 1-2.14 3.6 6.012 6.012 0 0 1-4.109 1.2 4.724 4.724 0 0 1-3.6-2.055Zm-25.341-50.85 9.075-11.814a11.918 11.918 0 0 0 2.4-5.993 11.458 11.458 0 0 0-5.137-10.873 11.877 11.877 0 0 0-5.996-1.97 10.752 10.752 0 0 0-6.164 1.455 12.575 12.575 0 0 0-4.452 4.537 12.1 12.1 0 0 0-1.455 6.078 11.553 11.553 0 0 0 1.8 5.907Zm18.15 41.608-7.021-9.076-11.13-14.554-11.986 15.41a14.848 14.848 0 0 0-2.911 11.643 12.538 12.538 0 0 0 2.055 5.65 17.6 17.6 0 0 0 4.281 4.452 14.322 14.322 0 0 0 11.643 2.226 15.145 15.145 0 0 0 9.76-7.02Zm106.673-14.212a19.664 19.664 0 0 1 7.876 1.627 20.285 20.285 0 0 1 10.873 10.873 20.092 20.092 0 0 1 0 15.838 20.974 20.974 0 0 1-4.366 6.421 20.7 20.7 0 0 1-6.506 4.366 20.09 20.09 0 0 1-15.838 0 20.751 20.751 0 0 1-10.787-10.787 20.09 20.09 0 0 1 0-15.838 20.7 20.7 0 0 1 4.366-6.507 20.971 20.971 0 0 1 6.421-4.366 19.477 19.477 0 0 1 7.96-1.627Zm0 30.82a10.238 10.238 0 1 0-7.448-3 10.111 10.111 0 0 0 7.447 3Zm-27.567-78.935a19.478 19.478 0 0 1-1.627 7.962 20.969 20.969 0 0 1-4.366 6.421 20.7 20.7 0 0 1-6.507 4.366 20.09 20.09 0 0 1-15.838 0 20.75 20.75 0 0 1-10.789-10.787 20.089 20.089 0 0 1 0-15.838 20.7 20.7 0 0 1 4.366-6.507 20.97 20.97 0 0 1 6.421-4.366 20.089 20.089 0 0 1 15.838 0 20.284 20.284 0 0 1 10.873 10.873 19.664 19.664 0 0 1 1.628 7.877Zm-30.82 0a10.238 10.238 0 1 0 3-7.448 10.112 10.112 0 0 0-3.001 7.449Zm60.785-20.376a5.192 5.192 0 0 1 2.74 3.168 5.9 5.9 0 0 1-.171 4.2l-47.943 99.31a5.515 5.515 0 0 1-3.168 2.825 5.132 5.132 0 0 1-4.195-.257 5.513 5.513 0 0 1-2.825-3.168 5.132 5.132 0 0 1 .257-4.2l47.943-99.31a5.191 5.191 0 0 1 3.168-2.74 5.9 5.9 0 0 1 4.192.173Zm128.59 15.924a55.772 55.772 0 0 1 11.814 17.807 54.1 54.1 0 0 1 4.109 20.889v31.848a21.853 21.853 0 0 1-1.712 8.647 22.477 22.477 0 0 1-11.9 11.9 21.85 21.85 0 0 1-8.647 1.712h-34.246a21.849 21.849 0 0 1-8.647-1.712 21.337 21.337 0 0 1-7.02-4.794 24.357 24.357 0 0 1-4.794-7.106 21.693 21.693 0 0 1 0-17.294 22.957 22.957 0 0 1 11.815-11.814 20.952 20.952 0 0 1 8.647-1.8h11.986v-11.64a11.08 11.08 0 0 0-1.969-6.335 11.488 11.488 0 0 0-5.394-4.281 12.081 12.081 0 0 0-6.935-.685 11.553 11.553 0 0 0-6.078 3.253 5.354 5.354 0 0 1-3.681 1.37 5.025 5.025 0 0 1-3.681-1.541 5.354 5.354 0 0 1-1.37-3.681 4.485 4.485 0 0 1 1.541-3.51 21.058 21.058 0 0 1 11.3-5.993 22.875 22.875 0 0 1 12.671 1.2 20.8 20.8 0 0 1 10.1 7.962 21.377 21.377 0 0 1 3.767 12.243v45.886h11.986a11.984 11.984 0 0 0 11.986-11.986v-31.848a43.807 43.807 0 0 0-13.013-31.334 42.861 42.861 0 0 0-14.382-9.842 45.134 45.134 0 0 0-34.074 0 47.345 47.345 0 0 0-24.228 24.228 43.8 43.8 0 0 0-3.339 16.951v30.821a44.232 44.232 0 0 0 3.339 17.122 42.861 42.861 0 0 0 9.846 14.383 43.809 43.809 0 0 0 31.334 13.013h18.835a4.847 4.847 0 0 1 3.681 1.541 5.072 5.072 0 0 1 1.455 3.6 4.978 4.978 0 0 1-5.137 5.137h-18.835a54.1 54.1 0 0 1-20.889-4.109 55.772 55.772 0 0 1-17.807-11.815 57 57 0 0 1-11.9-17.807 53.567 53.567 0 0 1-4.196-21.065v-30.82a53.14 53.14 0 0 1 4.195-20.889 54.908 54.908 0 0 1 29.708-29.707 54.534 54.534 0 0 1 41.95 0 56.994 56.994 0 0 1 17.807 11.896Zm-52.566 70.545a11.984 11.984 0 0 0 11.984 11.986h11.986v-23.972h-11.986a11.984 11.984 0 0 0-11.986 11.986Zm94.858 35.615a4.941 4.941 0 0 1-4.024 0 5.309 5.309 0 0 1-2.825-2.74 4.942 4.942 0 0 1 0-4.024 5.309 5.309 0 0 1 2.74-2.825 3.328 3.328 0 0 0 2.226-3.425v-2.911h-.171a5.262 5.262 0 0 1-5.308-5.308 4.846 4.846 0 0 1 1.541-3.681 5.281 5.281 0 0 1 3.767-1.455h5.479a4.978 4.978 0 0 1 5.137 5.137v8.219a14.077 14.077 0 0 1-8.561 13.013Zm26.711-9.589a3.328 3.328 0 0 0 2.226-3.425v-2.911h-.171a5.262 5.262 0 0 1-5.308-5.308 4.846 4.846 0 0 1 1.541-3.681 5.282 5.282 0 0 1 3.767-1.455h5.479a4.978 4.978 0 0 1 5.137 5.137v8.219a14.077 14.077 0 0 1-8.561 13.013 4.942 4.942 0 0 1-4.024 0 5.309 5.309 0 0 1-2.825-2.74 4.941 4.941 0 0 1 0-4.024 5.309 5.309 0 0 1 2.737-2.825Zm73.115-102.734a3.736 3.736 0 0 0-2.226 3.424v3.082h.171a5.282 5.282 0 0 1 3.767 1.455 4.846 4.846 0 0 1 1.541 3.681 5.262 5.262 0 0 1-5.308 5.308h-5.479a4.846 4.846 0 0 1-3.681-1.541 5.281 5.281 0 0 1-1.455-3.767v-8.218a14.077 14.077 0 0 1 8.561-13.013 4.942 4.942 0 0 1 4.024 0 5.309 5.309 0 0 1 2.825 2.74 4.942 4.942 0 0 1 0 4.024 5.309 5.309 0 0 1-2.74 2.825Zm-30.82 0a3.736 3.736 0 0 0-2.226 3.424v3.082h.171a5.282 5.282 0 0 1 3.767 1.455 4.846 4.846 0 0 1 1.541 3.681 5.262 5.262 0 0 1-5.308 5.308h-5.479a4.847 4.847 0 0 1-3.681-1.541 5.282 5.282 0 0 1-1.455-3.767v-8.218a14.077 14.077 0 0 1 8.561-13.013 4.942 4.942 0 0 1 4.024 0 5.309 5.309 0 0 1 2.825 2.74 4.942 4.942 0 0 1 0 4.024 5.309 5.309 0 0 1-2.744 2.825Zm100.68 34.759v16.951h11.815a5.282 5.282 0 0 1 3.767 1.455 4.846 4.846 0 0 1 1.541 3.681 5.262 5.262 0 0 1-5.308 5.308h-11.815v32.361a5.262 5.262 0 0 1-5.308 5.308 4.847 4.847 0 0 1-3.681-1.541 5.282 5.282 0 0 1-1.455-3.767v-32.361h-16.956v32.361a5.262 5.262 0 0 1-5.308 5.308 4.846 4.846 0 0 1-3.681-1.541 5.281 5.281 0 0 1-1.455-3.767v-32.361h-11.986a4.846 4.846 0 0 1-3.681-1.541 5.282 5.282 0 0 1-1.455-3.767 4.978 4.978 0 0 1 5.137-5.137h11.986v-16.951h-11.986a4.846 4.846 0 0 1-3.681-1.541 5.281 5.281 0 0 1-1.455-3.767 4.978 4.978 0 0 1 5.137-5.137h11.986v-29.108a4.978 4.978 0 0 1 5.137-5.137 5.282 5.282 0 0 1 3.767 1.455 4.847 4.847 0 0 1 1.541 3.681v29.108h16.951v-29.107a4.978 4.978 0 0 1 5.137-5.137 5.281 5.281 0 0 1 3.767 1.455 4.846 4.846 0 0 1 1.541 3.681v29.108h11.815a5.282 5.282 0 0 1 3.767 1.455 4.847 4.847 0 0 1 1.541 3.681 5.262 5.262 0 0 1-5.308 5.308Zm-10.445 0h-16.955v16.951h16.951Zm71.914-49.826a92.8 92.8 0 0 0-8.989 13.7 108.411 108.411 0 0 0-6.592 14.9 97.455 97.455 0 0 0-5.137 31.334 96.44 96.44 0 0 0 5.137 31.334 108.411 108.411 0 0 0 6.592 14.9 92.8 92.8 0 0 0 8.989 13.7 5.667 5.667 0 0 1 1.113 4.109 5 5 0 0 1-2.14 3.6 6.012 6.012 0 0 1-4.109 1.2 4.725 4.725 0 0 1-3.6-2.055 102.551 102.551 0 0 1-17.122-31.848 107.7 107.7 0 0 1 0-69.86 102.738 102.738 0 0 1 7.191-16.609 116.018 116.018 0 0 1 9.931-15.239 4.725 4.725 0 0 1 3.6-2.055 6.012 6.012 0 0 1 4.109 1.2 5 5 0 0 1 2.14 3.6 5.667 5.667 0 0 1-1.117 4.088Zm40.923 58.216a105.811 105.811 0 0 1-5.822 34.93 107.8 107.8 0 0 1-17.294 31.848 4.725 4.725 0 0 1-3.6 2.055 6.012 6.012 0 0 1-4.109-1.2 5.189 5.189 0 0 1-1.969-3.6 5.668 5.668 0 0 1 1.113-4.109 92.766 92.766 0 0 0 8.989-13.7 108.413 108.413 0 0 0 6.592-14.9 96.439 96.439 0 0 0 5.137-31.334 97.455 97.455 0 0 0-5.137-31.334 108.414 108.414 0 0 0-6.592-14.9 92.766 92.766 0 0 0-8.989-13.7 5.668 5.668 0 0 1-1.113-4.109 5.189 5.189 0 0 1 1.969-3.6 6.012 6.012 0 0 1 4.109-1.2 4.725 4.725 0 0 1 3.6 2.055 111.165 111.165 0 0 1 17.294 31.848 105.811 105.811 0 0 1 5.818 34.949Zm59.415-9.417a20.4 20.4 0 0 1 6.678 8.989 19.206 19.206 0 0 1 .855 11.043 21.255 21.255 0 0 1-2.4 6.421 25.436 25.436 0 0 1-4.109 5.394 19.754 19.754 0 0 1 4.794 13.184 20 20 0 0 1-1.712 8.9 18.915 18.915 0 0 1-5.479 7.191 20.44 20.44 0 0 1-17.122 4.794 21.748 21.748 0 0 1-8.39-3.424 20.38 20.38 0 0 1-6.164-6.678 4.945 4.945 0 0 1-.6-4.109 5.5 5.5 0 0 1 2.654-3.424 5.183 5.183 0 0 1 4.024-.428 5.634 5.634 0 0 1 3.339 2.483 9.982 9.982 0 0 0 7.02 4.794 10.11 10.11 0 0 0 10.7-5.65 8.546 8.546 0 0 0 .771-4.281 8.951 8.951 0 0 0-3.6-7.534l-19.177-15.239h-.171a22.156 22.156 0 0 1-6.506-9.161 19.206 19.206 0 0 1-.856-11.044 20.6 20.6 0 0 1 6.507-11.815 21.307 21.307 0 0 1-4.965-13.184 21.881 21.881 0 0 1 1.883-8.9 18.919 18.919 0 0 1 5.479-7.191 20.234 20.234 0 0 1 17.122-4.794 21.748 21.748 0 0 1 8.39 3.424 20.381 20.381 0 0 1 6.164 6.678 4.944 4.944 0 0 1 .6 4.109 5.494 5.494 0 0 1-2.654 3.424 4.566 4.566 0 0 1-4.024.514 6.011 6.011 0 0 1-3.339-2.568 9.983 9.983 0 0 0-7.02-4.794 9.165 9.165 0 0 0-8.048 2.226 9.421 9.421 0 0 0-3.6 7.705 10.1 10.1 0 0 0 3.767 7.534Zm-7.534 24.656a10.545 10.545 0 0 0 2.825-2.911 9.757 9.757 0 0 0 1.455-3.6 10.066 10.066 0 0 0-3.424-9.589l-13.7-10.958a10.615 10.615 0 0 0-4.452 6.507 9.316 9.316 0 0 0 3.6 9.589Zm85.27-.171a5.481 5.481 0 1 1 0 10.958h-41.103a5.413 5.413 0 0 1-3.853-1.541 5.58 5.58 0 0 1 0-7.876 5.413 5.413 0 0 1 3.853-1.541Zm0-27.4a5.481 5.481 0 1 1 0 10.958h-41.103a5.413 5.413 0 0 1-3.853-1.541 5.58 5.58 0 0 1 0-7.876 5.413 5.413 0 0 1 3.853-1.541Zm71.229 13.7a5.412 5.412 0 0 1 3.852 1.541 5.58 5.58 0 0 1 0 7.876 5.412 5.412 0 0 1-3.852 1.541h-15.068v15.069a5.187 5.187 0 0 1-1.627 3.938 5.413 5.413 0 0 1-3.853 1.541 5.275 5.275 0 0 1-5.479-5.479v-15.068h-15.068a5.481 5.481 0 1 1 0-10.958h15.063v-15.068a5.275 5.275 0 0 1 5.479-5.479 5.413 5.413 0 0 1 3.853 1.541 5.187 5.187 0 0 1 1.627 3.938v15.068Zm64.552 31.334a4.928 4.928 0 0 1-3.6-1.541 5.124 5.124 0 0 1-1.541-3.767v-50.681a4.846 4.846 0 0 1 1.541-3.681 5.072 5.072 0 0 1 3.6-1.455h13.7a18.706 18.706 0 0 1 13.356 5.479 20 20 0 0 1 4.109 5.993 17.732 17.732 0 0 1 1.541 7.363 18.049 18.049 0 0 1-2.911 10.1 19.415 19.415 0 0 1-7.705 6.849l9.926 17.466a5.369 5.369 0 0 1-1.883 7.191 5.183 5.183 0 0 1-4.024.428 4.983 4.983 0 0 1-3.168-2.483l-11.814-20.547h-5.822v17.979a5.262 5.262 0 0 1-5.308 5.308Zm22.259-42.292a8.067 8.067 0 0 0-2.483-5.907 8.267 8.267 0 0 0-6.078-2.483h-8.39v16.951h8.39a8.128 8.128 0 0 0 6.078-2.568 8.352 8.352 0 0 0 2.479-5.992Zm-65.065 11.3a54.049 54.049 0 0 1 16.1-38.868 53.6 53.6 0 0 1 17.722-11.815 56.022 56.022 0 0 1 42.121 0 53.6 53.6 0 0 1 17.722 11.815 54.927 54.927 0 0 1-38.868 93.831 53.761 53.761 0 0 1-20.975-4.2 54.6 54.6 0 0 1-33.817-50.768Zm54.792-44.347a44.261 44.261 0 0 0-44.347 44.347 44.431 44.431 0 0 0 3.339 17.037 44.474 44.474 0 0 0 82.188 0 44.429 44.429 0 0 0 3.339-17.037 44.263 44.263 0 0 0-44.518-44.347Zm120.884 24.143a8.774 8.774 0 0 0-4.623 3.082 8.191 8.191 0 0 0-1.712 5.137v23.971a8.191 8.191 0 0 0 1.712 5.137 8.774 8.774 0 0 0 4.623 3.082 7.359 7.359 0 0 0 5.394-.342 8.539 8.539 0 0 0 4.024-3.6 5.628 5.628 0 0 1 3.253-2.483 4.625 4.625 0 0 1 3.938.6 4.968 4.968 0 0 1 2.483 3.082 4.626 4.626 0 0 1-.6 3.938 18.681 18.681 0 0 1-9.161 8.133 17.931 17.931 0 0 1-12.071.77 18.916 18.916 0 0 1-10.1-6.763 18.285 18.285 0 0 1-3.938-11.558V2551.3a18.285 18.285 0 0 1 3.938-11.558 18.916 18.916 0 0 1 10.1-6.763 17.612 17.612 0 0 1 12.071.856 19.368 19.368 0 0 1 9.161 8.048 4.626 4.626 0 0 1 .6 3.938 4.968 4.968 0 0 1-2.483 3.082 4.625 4.625 0 0 1-3.938.6 5.628 5.628 0 0 1-3.253-2.483 8.539 8.539 0 0 0-4.024-3.6 7.36 7.36 0 0 0-5.398-.339Zm57.018 20.2a54.856 54.856 0 0 1-54.963 54.963 53.762 53.762 0 0 1-20.975-4.2 54.841 54.841 0 0 1-17.722-89.636 53.6 53.6 0 0 1 17.722-11.815 56.022 56.022 0 0 1 42.121 0 53.6 53.6 0 0 1 17.722 11.815 54.048 54.048 0 0 1 16.1 38.868Zm-54.972 44.524a43.809 43.809 0 1 0-16.951-3.339 44.234 44.234 0 0 0 16.951 3.339Z" fill="#ccc"/></g></svg>