<svg xmlns="http://www.w3.org/2000/svg" xmlns:xlink="http://www.w3.org/1999/xlink" width="2560" height="2880" viewBox="0 0 2560 2880">
  <defs>
    <clipPath id="clip-path">
      <rect id="Rectangle_153" data-name="Rectangle 153" width="1998.935" height="1998.935" fill="none"/>
    </clipPath>
  </defs>
  <g id="Group_159" data-name="Group 159" transform="translate(15997.427 21473.689)">
    <path id="Path_4409" data-name="Path 4409" d="M0,0H2560V2880H0Z" transform="translate(-15997.427 -21473.689)" fill="#d4551c"/>
    <g id="Group_153" data-name="Group 153" transform="translate(-15716.896 -21031.908)">
      <g id="Group_152" data-name="Group 152" clip-path="url(#clip-path)">
        <path id="Path_4410" data-name="Path 4410" d="M999.469,1998.933c-134.925,0-265.815-26.427-389.04-78.545A1002.961,1002.961,0,0,1,78.548,1388.507C26.43,1265.282,0,1134.392,0,999.467s26.43-265.815,78.548-389.04A1002.96,1002.96,0,0,1,610.429,78.546C733.654,26.428,864.544,0,999.469,0s265.815,26.427,389.04,78.545a1002.961,1002.961,0,0,1,531.881,531.881c52.118,123.225,78.547,254.116,78.547,389.04s-26.43,265.815-78.547,389.04a1002.962,1002.962,0,0,1-531.881,531.881c-123.225,52.118-254.115,78.545-389.04,78.545m0-1982.771c-262.651,0-509.58,102.28-695.3,288S16.164,736.816,16.164,999.467s102.28,509.58,288.006,695.3,432.649,288,695.3,288,509.58-102.28,695.3-288,288.006-432.651,288.006-695.3-102.28-509.58-288.006-695.3-432.649-288-695.3-288" transform="translate(0 0.002)" fill="#212639"/>
        <path id="Path_4411" data-name="Path 4411" d="M822.039,1548.2c-193.967,0-376.326-75.534-513.48-212.688S95.868,1016,95.868,822.037s75.537-376.323,212.691-513.48S628.071,95.869,822.039,95.869s376.323,75.534,513.477,212.688,212.694,319.513,212.694,513.48-75.537,376.323-212.694,513.48S1016.006,1548.2,822.039,1548.2m0-1436.174c-189.648,0-367.947,73.852-502.051,207.956s-207.956,312.4-207.956,502.051,73.855,367.947,207.956,502.051,312.4,207.956,502.051,207.956,367.947-73.852,502.048-207.956,207.959-312.4,207.959-502.051-73.855-367.947-207.959-502.051S1011.687,112.03,822.039,112.03" transform="translate(177.431 177.432)" fill="#212639"/>
        <path id="Path_4412" data-name="Path 4412" d="M143.869,293.782a1.1,1.1,0,0,1,1.634,1.149l-1.81,8.6a.992.992,0,0,1-.7.79L90.1,325.742l45.684,9.624c.77.162,1.075.63.935,1.271l-1.511,7.184c-.137.641-.6.946-1.374.784L43.493,325.577c-.767-.162-1.075-.627-.938-1.268l1.511-7.187c.137-.644.6-.946,1.374-.784l42.217,8.892-36.67-38.414a1.2,1.2,0,0,1-.3-1.135l1.676-7.956c.162-.77,1.294-1.066,2.061-.234L90.4,316.024Z" transform="translate(78.702 512.647)" fill="#212639"/>
        <path id="Path_4413" data-name="Path 4413" d="M139,296.74a1.146,1.146,0,0,1,.442,1.431l-2.378,6.252a.992.992,0,0,1-1.676.345L57.47,249.186c-.445-.311-.473-.6-.288-1.092l3.774-9.929a.877.877,0,0,1,.941-.624l94.826,10.377c.952.083,1.551.73,1.223,1.585l-2.469,6.5a1.061,1.061,0,0,1-1.28.775L130.94,254.11l-11.092,29.175ZM67.41,246.652l45.461,31.735,9.647-25.375Z" transform="translate(105.632 439.633)" fill="#212639"/>
        <path id="Path_4414" data-name="Path 4414" d="M159.623,265.008a1.042,1.042,0,0,1,.448,1.608l-3.487,6.166a1.045,1.045,0,0,1-1.611.445L74.61,227.78a1.045,1.045,0,0,1-.448-1.608l9.75-17.239c9.359-16.552,21.942-22.547,38.269-13.313,14.034,7.939,16.218,19.268,12.013,31.5l45.9.348c1.175.06,1.665.79,1.214,1.588l-4.068,7.193a1.149,1.149,0,0,1-1.152.7l-46.071-.59-5.1,9.017Zm-36.194-32.972c6.845-12.1,5.878-20.785-6.112-27.561s-19.742-3.181-26.586,8.917l-4.9,8.678c-.391.684-.291,1.041.393,1.428l31.849,18.011Z" transform="translate(136.872 354.019)" fill="#212639"/>
        <path id="Path_4415" data-name="Path 4415" d="M171.806,213.944c.621.485.992.436,1.391-.08l24.534-31.427a1.044,1.044,0,0,1,1.656-.208l4.55,3.555a1.04,1.04,0,0,1,.2,1.653l-30.178,38.668a1.046,1.046,0,0,1-1.659.2L99.522,169.5a1.042,1.042,0,0,1-.205-1.656l4.359-5.585a1.042,1.042,0,0,1,1.656-.205Z" transform="translate(183.224 299.336)" fill="#212639"/>
        <path id="Path_4416" data-name="Path 4416" d="M172.045,180.935l28.243,29.785a1.044,1.044,0,0,1-.043,1.668l-5.14,4.872a1.043,1.043,0,0,1-1.668-.043l-63.527-66.99a1.044,1.044,0,0,1,.043-1.668l5.14-4.872a1.045,1.045,0,0,1,1.671.043L165,173.512c.544.573.915.582,1.488.043l18.647-17.686c.573-.542.582-.915.037-1.485L156.936,124.6a1.1,1.1,0,0,1,.046-1.668l5.234-4.963a1,1,0,0,1,1.571.134l63.524,66.988a1.007,1.007,0,0,1,.051,1.579l-5.234,4.96a1.1,1.1,0,0,1-1.668-.043l-28.246-29.782c-.539-.573-.907-.582-1.48-.04l-18.653,17.686c-.57.542-.579.912-.037,1.482" transform="translate(239.705 217.746)" fill="#212639"/>
        <path id="Path_4417" data-name="Path 4417" d="M222.815,129.268a1.1,1.1,0,0,1,1.642.294l3.3,4.735a1.1,1.1,0,0,1-.294,1.642l-25.72,17.906,19.482,27.98c.45.644.815.71,1.354.336l32.713-22.778a1.1,1.1,0,0,1,1.642.294l3.3,4.735a1.1,1.1,0,0,1-.294,1.642l-40.247,28.02a1.043,1.043,0,0,1-1.642-.294L165.3,118.028a1.044,1.044,0,0,1,.3-1.645l40.244-28.02a1.1,1.1,0,0,1,1.642.294l3.3,4.735a1.1,1.1,0,0,1-.294,1.645L177.77,117.811c-.539.373-.6.741-.151,1.385L197.1,147.174Z" transform="translate(305.417 163.088)" fill="#212639"/>
        <path id="Path_4418" data-name="Path 4418" d="M227.384,86.963,208.3,96.3a1.04,1.04,0,0,1-1.576-.542l-2.537-5.183a1.044,1.044,0,0,1,.542-1.579l48.3-23.624a1.044,1.044,0,0,1,1.579.542l2.534,5.183a1.044,1.044,0,0,1-.542,1.579l-19.083,9.336c-.59.288-.71.639-.365,1.346l33.534,68.561c.348.707.7.827,1.289.539l19.083-9.336a1.045,1.045,0,0,1,1.579.545l2.534,5.183a1.044,1.044,0,0,1-.542,1.579l-48.3,23.624a1.044,1.044,0,0,1-1.579-.542l-2.537-5.183a1.045,1.045,0,0,1,.544-1.579l19.083-9.336c.587-.288.71-.639.365-1.346L228.67,87.5c-.348-.707-.7-.827-1.286-.539" transform="translate(377.585 120.668)" fill="#212639"/>
        <path id="Path_4419" data-name="Path 4419" d="M285.134,53.037a1.046,1.046,0,0,1,.773-1.482l5.753-1.816c.624-.2,1.12.06,1.357.81l27.8,88.043a1.009,1.009,0,0,1-.647,1.443l-6.124,1.936c-1.132.354-1.582.222-2.07-.448L261.821,79.378l22.35,70.785a1.1,1.1,0,0,1-.77,1.48l-5.627,1.776a1.041,1.041,0,0,1-1.482-.77l-27.8-88.043a1.045,1.045,0,0,1,.773-1.48l6-1.9c1.126-.354,1.579-.225,2.067.448l50.151,62.144Z" transform="translate(459.746 91.937)" fill="#212639"/>
        <path id="Path_4420" data-name="Path 4420" d="M346.509,39.848a1.045,1.045,0,0,1,1.351.981l.964,6.089a2.642,2.642,0,0,1-.163,1.485l-33.28,84.144,44.689-7.078c.778-.123,1.229.205,1.331.852l.9,5.7a1.043,1.043,0,0,1-.981,1.351L307.7,141.863a1.042,1.042,0,0,1-1.351-.981l-.964-6.086a2.651,2.651,0,0,1,.162-1.488l33.28-84.144-44.689,7.078a1.046,1.046,0,0,1-1.354-.981l-.878-5.57a1.044,1.044,0,0,1,.978-1.351Z" transform="translate(540.2 73.704)" fill="#212639"/>
        <path id="Path_4421" data-name="Path 4421" d="M415.709,96.482c-.775-.12-.978-.547-.858-1.326l.815-5.314c.1-.65.442-1.126,1.217-1.009l21.649,3.324a1.072,1.072,0,0,1,.855,1.326l-6.012,39.144a1.633,1.633,0,0,1-.884,1.457c-6.32,3.142-12.543,3.911-20.448,2.7-22.943-3.524-28.522-25.075-24.3-52.554,5.693-37.069,22.88-45.31,38.431-42.921a43.151,43.151,0,0,1,18.775,8.19c.59.487.322,1.374-.017,1.853l-3.37,4.658a1.417,1.417,0,0,1-2.152.2c-4.271-3.31-9.305-5.938-14.362-6.716-11.275-1.73-22.649,5.81-27.328,36.27-4.1,26.7,1.3,40.795,15.819,43.024,5.054.775,9.422-.011,11.583-1.14l4.459-29.032Z" transform="translate(715.224 75.743)" fill="#212639"/>
        <path id="Path_4422" data-name="Path 4422" d="M444.992,147.248c-18.4-5.744-19.7-15.223-14.188-32.872l20.067-64.217c.234-.75.6-1.052,1.351-.815l7.013,2.189c.75.237.881.69.647,1.44l-20.568,65.844c-3.874,12.4-1.987,17.795,8.025,20.919,9.892,3.09,14.642-.231,18.51-12.626L486.42,61.265c.237-.75.6-1.046,1.354-.815l7.01,2.189c.753.237.881.69.647,1.44L475.37,128.3c-5.513,17.649-11.976,24.7-30.378,18.946" transform="translate(792.026 91.177)" fill="#212639"/>
        <path id="Path_4423" data-name="Path 4423" d="M485.689,159.436l21.529-78.989-35.193,71.7c-.345.707-.755.944-1.346.656l-5.414-2.66c-.47-.231-.536-.7-.185-1.405l40.678-82.884q.522-1.061,1.229-.713l10.12,4.969a.832.832,0,0,1,.422.935l-21.586,79.106L545.43,84.74a.793.793,0,0,1,1.117-.185l9.413,4.624q.71.346.191,1.405l-40.683,82.884c-.348.707-.753.944-1.223.713l-5.417-2.657c-.59-.291-.65-.758-.305-1.462l35.19-71.7L494.4,163.712a.715.715,0,0,1-.995.242l-7.3-3.583c-.473-.231-.53-.4-.416-.935" transform="translate(860.35 120.402)" fill="#212639"/>
        <path id="Path_4424" data-name="Path 4424" d="M574.686,100.4c18.194,12.877,18.624,24.748,10.217,36.63-5.608,7.919-14.687,12.578-28.593,7.714,9.362,11.283,9.65,21.771,2.529,31.832-8.336,11.771-19.69,14.656-37.673,1.93l-16.8-11.893a1.042,1.042,0,0,1-.279-1.645l53.33-75.349a1.042,1.042,0,0,1,1.645-.279ZM516.407,163.89c-.453.641-.391,1.006.143,1.385l9.741,6.9c11.132,7.877,18.6,6.411,24.579-2.044,6.742-9.524,5.568-19.67-9.091-30.05l-5.673-4.014Zm45.553-62.54c-.644-.456-1.009-.391-1.463.251l-19.7,27.826,5.781,4.091c12.307,8.712,22.989,7.919,30.11-2.141,6.212-8.778,4.105-16.694-5.85-23.738Z" transform="translate(932.422 164.816)" fill="#212639"/>
        <path id="Path_4425" data-name="Path 4425" d="M544.458,191.685a1.043,1.043,0,0,1-1.668.048l-5.154-4.863a1.044,1.044,0,0,1-.048-1.668l63.381-67.144a1.04,1.04,0,0,1,1.665-.046l14.4,13.593c13.832,13.054,16.634,26.7,3.763,40.341-11.072,11.731-22.6,11.138-33.465,4.119L576,220.555c-.337,1.123-1.163,1.425-1.833.8l-6.006-5.673a1.146,1.146,0,0,1-.411-1.286L579.36,169.8l-7.538-7.113Zm40.683-27.245c10.109,9.542,18.77,10.685,28.22.67s7.823-18.41-2.286-27.952l-7.25-6.842c-.57-.539-.941-.53-1.483.043l-25.118,26.609Z" transform="translate(994.23 217.684)" fill="#212639"/>
        <path id="Path_4426" data-name="Path 4426" d="M631.6,209.911a1.1,1.1,0,0,1-.205,1.659l-4.547,3.549a1.1,1.1,0,0,1-1.656-.2l-19.294-24.7-26.869,20.99c-.624.485-.67.85-.265,1.368l24.54,31.421a1.1,1.1,0,0,1-.2,1.656l-4.547,3.552a1.1,1.1,0,0,1-1.659-.205L566.7,210.342a1.045,1.045,0,0,1,.205-1.656l72.76-56.83a1.046,1.046,0,0,1,1.659.2l30.193,38.657a1.1,1.1,0,0,1-.2,1.656l-4.55,3.552a1.1,1.1,0,0,1-1.653-.205L640.566,164.3c-.4-.516-.77-.562-1.391-.077L612.3,185.209Z" transform="translate(1048.25 280.46)" fill="#212639"/>
        <path id="Path_4427" data-name="Path 4427" d="M681.113,206.634a43.173,43.173,0,0,1,5.271,19.8c-.014.767-.878,1.109-1.465,1.14l-5.741.259c-1.058,0-1.448-.684-1.5-1.562-.066-5.4-1.137-10.978-3.675-15.42-5.662-9.909-18.639-14.123-45.4,1.166s-29.722,28.608-24.063,38.514c2.534,4.441,6.8,8.2,11.417,11a1.423,1.423,0,0,1,.587,2.084l-3.141,4.815c-.328.485-1.057,1.055-1.725.681a43.148,43.148,0,0,1-14.377-14.593c-7.808-13.667-6.277-32.664,26.29-51.268s49.712-10.274,57.517,3.39" transform="translate(1098.221 356.19)" fill="#212639"/>
        <path id="Path_4428" data-name="Path 4428" d="M651.225,257.309l-38.272,14.8a1.043,1.043,0,0,1-1.528-.673l-2.551-6.605a1.039,1.039,0,0,1,.673-1.525l86.085-33.294a1.043,1.043,0,0,1,1.525.676l2.557,6.605a1.046,1.046,0,0,1-.676,1.525l-38.272,14.8c-.736.282-.887.621-.6,1.354l9.271,23.966c.279.736.616.884,1.351.6l38.275-14.8a1.1,1.1,0,0,1,1.525.676l2.6,6.725c.24.613.014,1.12-.718,1.405l-86.085,33.291a1.006,1.006,0,0,1-1.479-.553l-2.6-6.725a1.1,1.1,0,0,1,.676-1.525l38.275-14.8c.733-.282.884-.621.6-1.354l-9.271-23.969c-.282-.733-.624-.884-1.357-.6" transform="translate(1126.669 425.484)" fill="#212639"/>
        <path id="Path_4429" data-name="Path 4429" d="M623.6,318.953a1.041,1.041,0,0,1,.9-1.408l82.31-18.3c.77-.168.964-.482.824-1.123l-5.149-23.168a1.04,1.04,0,0,1,.892-1.408L709,272.291a1.041,1.041,0,0,1,1.408.9l12.752,57.346a1.047,1.047,0,0,1-.9,1.411l-5.63,1.251a1.04,1.04,0,0,1-1.405-.9l-5.157-23.171c-.14-.639-.45-.838-1.22-.667l-82.31,18.3a1.044,1.044,0,0,1-1.408-.9Z" transform="translate(1154.05 503.865)" fill="#212639"/>
        <path id="Path_4430" data-name="Path 4430" d="M680.591,413.114a1.1,1.1,0,0,1-1.283,1.069l-5.747-.522a1.1,1.1,0,0,1-1.069-1.28l2.828-31.216-33.958-3.076c-.778-.071-1.066.165-1.123.818l-3.6,39.706a1.1,1.1,0,0,1-1.28,1.069l-5.75-.522a1.1,1.1,0,0,1-1.066-1.283l4.424-48.842a1.043,1.043,0,0,1,1.283-1.069l91.943,8.327a1.043,1.043,0,0,1,1.066,1.283l-4.424,48.845a1.1,1.1,0,0,1-1.28,1.069l-5.747-.522a1.1,1.1,0,0,1-1.069-1.28l3.595-39.706c.06-.653-.174-.938-.961-1.006L683.419,381.9Z" transform="translate(1163.285 681.007)" fill="#212639"/>
        <path id="Path_4431" data-name="Path 4431" d="M635.19,409.378l5.576,4.216a1.079,1.079,0,0,1,.26,1.688c-3.749,4.746-7.327,9.4-9.727,19.072-2.683,10.822,1.44,18.732,10.479,20.973,8.781,2.175,13.992-.316,25.734-13.35,13.108-14.721,21.207-17.983,32.282-15.24,11.839,2.936,20.58,14.017,16.449,30.694-2.366,9.547-5.06,16.038-9.724,22.316a1.1,1.1,0,0,1-1.682.26l-5.225-4a1.027,1.027,0,0,1-.291-1.559,48.027,48.027,0,0,0,8.581-18.274c2.811-11.329-2.74-17.84-10.12-19.667-7.13-1.768-11.677-.87-22.592,11.56-14.029,15.711-21.329,20.654-35.2,17.216-13.242-3.281-21.441-14.9-17.056-32.6,2.586-10.437,5.374-16.774,10.864-23.114a.956.956,0,0,1,1.4-.194" transform="translate(1150.703 757.252)" fill="#212639"/>
        <path id="Path_4432" data-name="Path 4432" d="M611.345,457.67a1.041,1.041,0,0,1,1.542-.633l77.789,32.516c.73.305,1.069.162,1.326-.442l9.151-21.9a1.045,1.045,0,0,1,1.545-.636l5.322,2.227a1.043,1.043,0,0,1,.633,1.542L686,524.547a1.043,1.043,0,0,1-1.542.636l-5.325-2.226a1.038,1.038,0,0,1-.63-1.542l9.151-21.9c.251-.6.114-.947-.616-1.251l-77.789-32.516a1.045,1.045,0,0,1-.636-1.542Z" transform="translate(1126.162 845.626)" fill="#212639"/>
        <path id="Path_4433" data-name="Path 4433" d="M604.324,489.621c4.205,2.42,5.334,6.246,2.911,10.454s-6.294,5.154-10.5,2.734-5.217-6.181-2.8-10.388,6.18-5.22,10.391-2.8" transform="translate(1096.858 903.794)" fill="#212639"/>
        <path id="Path_4434" data-name="Path 4434" d="M586.6,545.339c-.621-.482-.992-.436-1.391.083l-13.1,16.891a1.041,1.041,0,0,1-1.653.211l-4.145-3.216a1.041,1.041,0,0,1-.208-1.653l32.935-42.488a1.043,1.043,0,0,1,1.656-.211l4.142,3.213a1.041,1.041,0,0,1,.214,1.656l-13.173,17c-.4.516-.356.887.265,1.369l61.144,47.4c.619.482.986.436,1.391-.083l13.173-17a1.041,1.041,0,0,1,1.653-.208l4.148,3.216a1.041,1.041,0,0,1,.208,1.653l-18.553,23.938a1.047,1.047,0,0,1-1.659.211Z" transform="translate(1047.158 952.484)" fill="#212639"/>
        <path id="Path_4435" data-name="Path 4435" d="M575.538,588.395c8.7-8.356,20.956-13.2,34.668,1.08,14.987,15.608,11.258,30.093.376,40.538-13.9,13.35-26.643,10.308-44.532-8.327-28.7-29.9-26.5-56.006-8.809-72.991a1.1,1.1,0,0,1,1.671.034l3.906,4.068a1.1,1.1,0,0,1-.034,1.668c-13.057,12.535-14.362,31.059,2.09,52.169a40.821,40.821,0,0,1,10.665-18.239M605.6,624.069c8.986-8.629,7.506-17.934-2.118-27.963-8.9-9.271-15.873-8.578-23.533-1.22-4.923,4.721-7.925,11.061-9.815,17.421,17.524,18.259,26.29,20.571,35.466,11.762" transform="translate(1007.121 1014.835)" fill="#212639"/>
        <path id="Path_4436" data-name="Path 4436" d="M579.627,642.1l3.261,4.6a1.044,1.044,0,0,1-.282,1.645l-42.6,30.161a1.107,1.107,0,0,1-1.651-.279l-3.333-4.712a3.111,3.111,0,0,1-.7-1.434L515.5,580.81a1.149,1.149,0,0,1,.51-1.325l5.565-3.943a1.1,1.1,0,0,1,1.733.861l18.037,91.521,36.712-25.994a1.011,1.011,0,0,1,1.571.174" transform="translate(954.013 1064.806)" fill="#212639"/>
        <path id="Path_4437" data-name="Path 4437" d="M502.858,641.213c10.776-5.425,23.909-6.457,32.815,11.232,9.73,19.328,1.907,32.077-11.566,38.859-17.222,8.666-28.5,2.01-40.119-21.064-18.633-37.02-8.846-61.329,13.062-72.356a1.1,1.1,0,0,1,1.582.524l2.54,5.037a1.1,1.1,0,0,1-.525,1.585c-16.167,8.139-22.866,25.457-13.356,50.476a40.835,40.835,0,0,1,15.565-14.294m18.236,42.941c11.129-5.6,12.455-14.929,6.2-27.347-5.779-11.48-12.646-12.869-22.133-8.093-6.092,3.067-10.83,8.242-14.51,13.763,11.38,22.61,19.08,27.4,30.441,21.677" transform="translate(877.55 1106.272)" fill="#212639"/>
        <path id="Path_4438" data-name="Path 4438" d="M428.135,722.345c-22.017,3.5-30.617-4.7-32.9-19.074-1.517-9.584,1.725-19.257,15.078-25.489-14.582-1.537-22.116-8.84-24.046-21.013-2.255-14.245,3.857-24.243,25.611-27.693l20.335-3.224a1.039,1.039,0,0,1,1.346.981L448.019,718a1.04,1.04,0,0,1-.981,1.348Zm-2.648-86.136c-.123-.776-.422-.995-1.072-.892l-11.779,1.87c-13.47,2.135-17.786,8.4-16.164,18.627,1.827,11.526,9.752,17.969,27.493,15.152l6.865-1.086Zm11.084,76.569c.778-.123,1-.425.875-1.2l-5.339-33.668-7,1.106c-14.89,2.363-21.977,10.391-20.05,22.564,1.685,10.619,8.723,14.813,20.765,12.9Z" transform="translate(714.079 1158.266)" fill="#212639"/>
        <path id="Path_4439" data-name="Path 4439" d="M385.31,631.709a1.043,1.043,0,0,1,1.172-1.192l7.078-.054a1.043,1.043,0,0,1,1.192,1.169l.73,92.314a1.043,1.043,0,0,1-1.172,1.189l-19.8.157c-19.009.148-30.483-7.76-30.632-26.509-.128-16.127,8.6-23.673,21.3-26.133L342.568,632.7c-.533-1.046-.145-1.836.773-1.842l8.259-.066a1.142,1.142,0,0,1,1.186.647l22.481,40.21,10.36-.083ZM374.8,679.522c-13.9.111-20.939,5.282-20.831,19.049s7.1,18.7,21,18.587l9.966-.08c.784-.006,1.046-.271,1.041-1.058l-.291-36.584Z" transform="translate(633.57 1166.848)" fill="#212639"/>
        <path id="Path_4440" data-name="Path 4440" d="M312.728,678.6a1.1,1.1,0,0,1-1-1.334l.818-5.713a1.1,1.1,0,0,1,1.337-1L344.9,675l4.841-33.753c.111-.778-.111-1.075-.758-1.169l-39.463-5.659a1.1,1.1,0,0,1-1-1.334l.821-5.713a1.1,1.1,0,0,1,1.334-1l48.552,6.962a1.043,1.043,0,0,1,1,1.337l-13.105,91.387a1.042,1.042,0,0,1-1.334,1L297.237,720.1a1.1,1.1,0,0,1-1-1.337l.818-5.713a1.1,1.1,0,0,1,1.337-1l39.458,5.659c.653.094.949-.128,1.06-.91l4.838-33.748Z" transform="translate(548.242 1159.247)" fill="#212639"/>
        <path id="Path_4441" data-name="Path 4441" d="M308.674,625.665l-8.641,81.416,23.291-76.4c.228-.753.6-1.052,1.22-.861l5.773,1.759c.5.151.639.6.4,1.357l-26.92,88.32c-.228.753-.6,1.055-1.1.9l-10.79-3.29a.828.828,0,0,1-.559-.855l8.678-81.541-38.411,72.475a.787.787,0,0,1-1.072.359l-10.032-3.056c-.5-.157-.641-.607-.411-1.36l26.923-88.32c.228-.755.6-1.055,1.1-.9l5.77,1.759c.627.191.761.644.533,1.4l-23.288,76.4,38.246-72.393a.713.713,0,0,1,.944-.4l7.78,2.369c.5.154.587.316.562.858" transform="translate(462.693 1139.392)" fill="#212639"/>
        <path id="Path_4442" data-name="Path 4442" d="M234.157,649.323a1.1,1.1,0,0,1-.547-1.574l2.506-5.2a1.1,1.1,0,0,1,1.574-.55l28.237,13.612,14.807-30.717c.342-.707.219-1.058-.371-1.346l-35.917-17.313a1.1,1.1,0,0,1-.547-1.576l2.506-5.2a1.1,1.1,0,0,1,1.576-.553l44.181,21.3a1.04,1.04,0,0,1,.55,1.574l-40.093,83.174a1.045,1.045,0,0,1-1.576.55l-44.187-21.3a1.1,1.1,0,0,1-.55-1.574l2.5-5.2a1.105,1.105,0,0,1,1.579-.55L246.3,694.2c.59.285.941.162,1.28-.547l14.81-30.717Z" transform="translate(381.56 1108.191)" fill="#212639"/>
        <path id="Path_4443" data-name="Path 4443" d="M247.088,600.842a1.039,1.039,0,0,1,1.631-.334l5.915,3.9a1.044,1.044,0,0,1,.334,1.636L204.11,683.084a1.04,1.04,0,0,1-1.631.337l-16.526-10.907c-15.87-10.474-20.982-23.436-10.651-39.084,8.883-13.461,20.332-14.858,32.245-9.821l3.5-45.766c.14-1.166.9-1.6,1.668-1.1l6.89,4.55a1.139,1.139,0,0,1,.624,1.2L216.482,628.4l8.644,5.707ZM211.71,634.681c-11.6-7.657-20.329-7.289-27.912,4.2s-4.53,19.476,7.07,27.134l8.316,5.488c.656.433,1.023.359,1.457-.3l20.152-30.532Z" transform="translate(314.501 1067.038)" fill="#212639"/>
        <path id="Path_4444" data-name="Path 4444" d="M194.382,606.336l27.869-30.127a1.046,1.046,0,0,1,1.671-.066l5.2,4.809a1.043,1.043,0,0,1,.063,1.668L166.5,650.383a1.042,1.042,0,0,1-1.665.066l-5.2-4.809a1.041,1.041,0,0,1-.066-1.668l27.869-30.127c.536-.579.522-.949-.054-1.482L168.514,594.91c-.576-.536-.949-.519-1.485.057l-27.866,30.127a1.1,1.1,0,0,1-1.671.066l-5.294-4.9a1.011,1.011,0,0,1,.031-1.579l62.689-67.763a1.009,1.009,0,0,1,1.571-.154l5.3,4.9a1.1,1.1,0,0,1,.063,1.668l-27.869,30.127c-.536.579-.525.947.054,1.483L192.9,606.4c.579.533.949.519,1.482-.06" transform="translate(243.996 1018.774)" fill="#212639"/>
        <path id="Path_4445" data-name="Path 4445" d="M194.676,557.57a1.147,1.147,0,0,1,1.454.351l4.168,5.231a.99.99,0,0,1-.562,1.616l-87.53,38.688c-.493.225-.755.1-1.086-.311l-6.617-8.307a.879.879,0,0,1-.054-1.126l57.269-76.276c.553-.778,1.417-.958,1.99-.239l4.325,5.436a1.059,1.059,0,0,1,.017,1.494L153.9,542.772l19.442,24.414ZM115.1,593.613l50.47-22.923-16.908-21.233Z" transform="translate(192.982 956.382)" fill="#212639"/>
        <path id="Path_4446" data-name="Path 4446" d="M114.3,495.247a1.1,1.1,0,0,1,.436-1.611l5.006-2.871a1.1,1.1,0,0,1,1.614.439l17.934,31.287,36.524-20.936a1.044,1.044,0,0,1,1.611.436l3.521,6.146a1.042,1.042,0,0,1-.436,1.611l-80.1,45.915a1.04,1.04,0,0,1-1.611-.436L74.4,512.674a1.1,1.1,0,0,1,.436-1.611l5.006-2.871a1.1,1.1,0,0,1,1.611.439l19.83,34.589c.325.567.687.667,1.366.274l29.583-16.956Z" transform="translate(137.365 907.955)" fill="#212639"/>
        <path id="Path_4447" data-name="Path 4447" d="M99.229,471.424a1.1,1.1,0,0,1,.67-1.528l5.379-2.092a1.1,1.1,0,0,1,1.525.673l11.366,29.215,31.778-12.361c.733-.282.884-.624.647-1.234l-14.453-37.16a1.1,1.1,0,0,1,.676-1.525l5.377-2.092a1.1,1.1,0,0,1,1.525.67l17.78,45.718a1.046,1.046,0,0,1-.673,1.528L74.772,524.7a1.04,1.04,0,0,1-1.525-.673l-17.78-45.715a1.1,1.1,0,0,1,.676-1.528l5.377-2.092a1.1,1.1,0,0,1,1.528.673l14.448,37.16c.239.61.579.761,1.314.476l31.778-12.358Z" transform="translate(102.475 820.296)" fill="#212639"/>
        <path id="Path_4448" data-name="Path 4448" d="M46.217,432.849a1.044,1.044,0,0,1-1.414-.892l-1.326-5.884c-.145-.641.151-1.112.918-1.283l90.062-20.335c.77-.174,1.243.123,1.383.764l1.42,6.266c.257,1.152.088,1.594-.621,2.024L70.514,458.286l72.41-16.349a1.1,1.1,0,0,1,1.411.892l1.3,5.756a1.041,1.041,0,0,1-.889,1.411L54.681,470.331a1.044,1.044,0,0,1-1.414-.892L51.878,463.3c-.257-1.152-.088-1.591.619-2.021L118.624,416.5Z" transform="translate(80.401 748.466)" fill="#212639"/>
        <line id="Line_16" data-name="Line 16" x2="64.003" y2="64.003" transform="translate(496.755 496.756)" fill="#d4551c"/>
        <path id="Path_4449" data-name="Path 4449" d="M243.5,251.583a8.065,8.065,0,0,1-5.716-2.366l-64-64a8.081,8.081,0,0,1,11.429-11.429l64,64a8.081,8.081,0,0,1-5.713,13.795" transform="translate(317.258 317.258)" fill="#212639"/>
        <line id="Line_17" data-name="Line 17" x2="64.003" y2="64.003" transform="translate(1438.176 1438.177)" fill="#d4551c"/>
        <path id="Path_4450" data-name="Path 4450" d="M573.734,581.815a8.052,8.052,0,0,1-5.716-2.366l-64-64a8.081,8.081,0,0,1,11.429-11.429l64,64a8.08,8.08,0,0,1-5.713,13.795" transform="translate(928.447 928.445)" fill="#212639"/>
        <line id="Line_18" data-name="Line 18" x1="64.003" y2="64.003" transform="translate(1438.176 496.756)" fill="#d4551c"/>
        <path id="Path_4451" data-name="Path 4451" d="M509.73,251.583a8.081,8.081,0,0,1-5.713-13.795l64-64a8.081,8.081,0,0,1,11.429,11.429l-64,64a8.065,8.065,0,0,1-5.716,2.366" transform="translate(928.445 317.258)" fill="#212639"/>
        <line id="Line_19" data-name="Line 19" x1="64.003" y2="64.003" transform="translate(496.756 1438.177)" fill="#d4551c"/>
        <path id="Path_4452" data-name="Path 4452" d="M179.5,581.815a8.08,8.08,0,0,1-5.713-13.795l64-64a8.081,8.081,0,0,1,11.429,11.429l-64,64a8.052,8.052,0,0,1-5.716,2.366" transform="translate(317.258 928.445)" fill="#212639"/>
        <path id="Path_4453" data-name="Path 4453" d="M686.651,567.83c8.239-30.948,43.531-76.022,41.832-86.969-131.35-75.175-199.917-173.119-219.168-152.3V429.812s15.286-6.477,24.029-1.163c8.37,5.16,103.358,75.363,103.358,75.363a188.82,188.82,0,0,0-8.3,18.245c-45.669-35.734-91.276-71.275-96.123-74.642-9.938-6.95-22.96-.659-22.96-.659v29.816s10.7-6.543,23.844,4.182c4.025,3.053,46.046,35.481,86.872,67.03-17.108,64.542-13.273,148.018-10,233.952L473.963,682.007V225.833C543.6,291.638,683,285.472,689.8,285.281c6.8-.251,7.991-8.079-.944-8.963S548.947,251.5,505.6,168.527L449.68,206.271V664.206l-19.941-14.721V218.852l-79.7,51.428,14.031,12.834V641.967s-5.6,25.2-25.167,34.506c-5.091,2.392-2.953,8.3.316,8.555,11.762,1.48,23.089,2.3,41.08,15.286,15.788,11.417,191.173,146.1,232.125,177.649,0,7.583,0,15.16-.188,22.678C568.825,867.3,378.658,721.23,364.065,710.44c-11.075-8.176-28.248-7.044-28.248-7.044v31.609s11.261-3.207,28.248,6.8c6.038,3.552,209.224,159.689,247.1,188.816-3.019,56.269-11.888,109.3-33.28,154.028-17.675,37.146-54.789,65.018-84.483,82.6-14.781,8.743-89.2,5.659-19.437-133.114a246.347,246.347,0,0,1,16.292-23.18l.125.125,53.03-55.482-273.2-202.562v89.423c13.527,9.718,132.231,100.995,189.54,145l-10.066,16.988-179.474-133.3V899.2L441.187,1027.9c-37.619,65.078-21.7,130.626,8.743,161.075a1.208,1.208,0,0,0-.251.094s.125-.031.251-.066c10.631,10.573,23.023,16.956,35.478,17.555a35.433,35.433,0,0,0,5.16-.157c105.872-3.461,201.054-112.922,223.387-236.438,23.334-129.591-16.737-272.515,11.132-372.033,0,0-15.85-12.4-38.437-30.1m12.771,329.981c-4.906,109.806-39.318,216.716-150.664,268.96l10.571-7.326a66.771,66.771,0,0,0,8.932-5.727c1.194-.972,2.264-1.916,3.4-2.891l.373-.191h-.066c173-141.165,82.476-358.571,109.772-554.936,11.135,8.555,18.182,14.029,18.182,14.029-17.675,78.16,4.342,180.449-.5,288.083" transform="translate(500.092 311.906)" fill="#212639"/>
        <path id="Path_4454" data-name="Path 4454" d="M192.949,350.067v8.678q-.03,6.188-.077,12.409c-.037,4.915-.108,9.829-.123,14.741,0,2.58.071,5.157.1,7.734v3.093c0,6.309,2.671,9.185,8.692,9.51,1.289.071,2.577.108,3.869.242a5.537,5.537,0,0,1,4.362,3.931q.859,4.575,1.448,9.185a10.847,10.847,0,0,1-.242,3.093,4.9,4.9,0,0,1-3.66,3.609,20.373,20.373,0,0,1-2.315.211c-5.157.037-10.348.083-15.52.051a65.83,65.83,0,0,0-10.83.584,31.06,31.06,0,0,1-6.959.288,51.08,51.08,0,0,0-10.8-.046,6.55,6.55,0,0,1-4.356-1.377,4.4,4.4,0,0,1-2.11-3.093,53.164,53.164,0,0,1-.048-12.375,4.817,4.817,0,0,1,4.071-4.125c1.548-.125,3.093-.094,4.641-.177a23.394,23.394,0,0,0,3.093-.276,8.1,8.1,0,0,0,6.494-6.868,33.707,33.707,0,0,0,.137-3.869c0-11.643-.077-23.279-.091-34.922,0-5.434,0-10.867.063-16.3a15.327,15.327,0,0,0-1.249-6.038A5.776,5.776,0,0,0,168.4,334.7c-1.913-.778-3.94-1.289-5.841-2.092a5.608,5.608,0,0,1-3.532-4.727,19.5,19.5,0,0,1,3.424-14.006c2.683-3.794,5.67-7.366,8.644-10.956a12.468,12.468,0,0,1,2.968-2.455,7.561,7.561,0,0,1,2.851-1.129,34.548,34.548,0,0,1,10.055.1,6.975,6.975,0,0,1,5.542,5.77,22.493,22.493,0,0,1,.14,2.321c.048,6.7.068,13.45.125,20.181.009,8.011.091,16.03.18,22.356" transform="translate(285.095 553.419)" fill="#212639"/>
        <path id="Path_4455" data-name="Path 4455" d="M150.96,395.272c-.088-3.888-.2-7.768-.245-11.651-.028-2.332,0-4.641.083-6.993a10.954,10.954,0,0,1,2.919-7.039c2.437-2.68,4.98-5.262,7.512-7.862a14.4,14.4,0,0,1,9.741-4.239c2.577-.168,5.154-.168,7.768-.168q11.263,0,22.527.091a38.363,38.363,0,0,1,3.883.128,13.5,13.5,0,0,1,8.946,4.125c2.255,2.5,4.49,5.017,6.657,7.592a17.522,17.522,0,0,1,3.82,13.752,116.092,116.092,0,0,0,.234,27.114,34.568,34.568,0,0,1-.088,10.827,26.4,26.4,0,0,0-.1,8.5,44.935,44.935,0,0,1,.516,6.186c.077,8.55.077,17.093.1,25.643a20.64,20.64,0,0,1-.85,6.126,15.328,15.328,0,0,1-3.238,6.124c-2.281,2.474-4.584,4.94-7.044,7.218A16.441,16.441,0,0,1,200.458,485a120.973,120.973,0,0,0-15.511-.516c-4.918.057-9.838-.04-14.756-.088a9.72,9.72,0,0,1-6.95-3.036c-3.093-3.093-6.118-6.326-9.071-9.584a13.672,13.672,0,0,1-3.176-11.58,5.854,5.854,0,0,1,4.513-4.769,48.256,48.256,0,0,1,10.827-.242,5.987,5.987,0,0,1,3.449,1.659,23.524,23.524,0,0,1,2.577,2.882,10.279,10.279,0,0,0,9.641,3.94,43.476,43.476,0,0,1,12.344.319,10.752,10.752,0,0,0,6.745-1.4,5.043,5.043,0,0,0,2.742-3.609,19.3,19.3,0,0,0,.413-4.615c-.254-4.641-.234-9.316-.043-13.977a16.362,16.362,0,0,0-.308-3.857,6.075,6.075,0,0,0-4.564-4.821,21.094,21.094,0,0,0-5.382-.542c-3.883-.031-7.771.12-11.654.134-3.367,0-6.734-.04-10.1-.077a15.137,15.137,0,0,1-9.958-3.82c-3.093-2.722-6.009-5.7-8.84-8.715a9.1,9.1,0,0,1-2.378-6.414v-17.09Zm20.3-3.093c.433,4.353.778,8.715,1.34,13.057a5.926,5.926,0,0,0,4.31,4.963,22.918,22.918,0,0,0,7.575,1.289,86.045,86.045,0,0,0,13.8-1.545,6.926,6.926,0,0,0,5.8-5.533,22.83,22.83,0,0,0,1.029-7.631c-.334-4.125-.65-8.213-1.137-12.3a7.065,7.065,0,0,0-5.519-5.8,30.056,30.056,0,0,0-12.25-.713,35.2,35.2,0,0,1-4.615.365,30.427,30.427,0,0,0-3.093.291,7.342,7.342,0,0,0-6.186,5.154,24.725,24.725,0,0,0-1.052,8.39Z" transform="translate(278.92 661.321)" fill="#212639"/>
        <path id="Path_4456" data-name="Path 4456" d="M561.81,299.036q14.762.163,29.534.314a9.752,9.752,0,0,1,5.157,1.457,4.46,4.46,0,0,1,2.164,3.093,17.058,17.058,0,0,1,.268,3.093c0,2.329-.163,4.641-.137,6.99a26.825,26.825,0,0,1-2.791,12c-.556,1.172-1.14,2.326-1.728,3.481a241.813,241.813,0,0,0-14.4,35.19c-1.192,3.692-2.677,7.289-4.125,10.89s-2.976,7.175-4.519,10.739c-1.032,2.378-2.164,4.7-3.2,7.076a25.927,25.927,0,0,0-1.651,4.342,5.632,5.632,0,0,0,2.064,6.243c1.029.778,2.161,1.434,3.2,2.2a7.881,7.881,0,0,1,3.526,6.58v7.777a14.143,14.143,0,0,1-.154,1.545,5.621,5.621,0,0,1-4.513,4.738,6.575,6.575,0,0,1-2.284.268,200.039,200.039,0,0,0-27.94-.567c-2.851,0-5.7.125-8.55.094a15,15,0,0,1-3.062-.47,6.035,6.035,0,0,1-4.011-4.367,33.9,33.9,0,0,1,.154-10.827A5.617,5.617,0,0,1,528.8,406.5c1.97-.633,4-1.1,5.987-1.671a7.648,7.648,0,0,0,4.729-3.794,53.738,53.738,0,0,0,3.284-7.027c1.691-4.641,3.851-9.046,5.93-13.5a229.266,229.266,0,0,0,10.126-25.218,159.06,159.06,0,0,1,6.836-18.157,36.079,36.079,0,0,0,3.039-8.789,6.568,6.568,0,0,0-.408-3.792,4.174,4.174,0,0,0-1.944-2.329,13.693,13.693,0,0,0-3.609-1.383,41.114,41.114,0,0,0-10.827-.279,6.387,6.387,0,0,0-4.091,2.064c-1.22,1.334-2.272,2.825-3.447,4.2a7.347,7.347,0,0,1-5.416,2.677,50.916,50.916,0,0,1-6.186-.074,14.291,14.291,0,0,1-3.729-.969,6.246,6.246,0,0,1-4.424-5.836c-.154-5.673-.131-11.395,0-17.093a6.637,6.637,0,0,1,6.081-6.089c2.061-.18,4.125-.171,6.186-.171q12.435-.03,24.873,0Z" transform="translate(970.375 553.45)" fill="#212639"/>
        <path id="Path_4457" data-name="Path 4457" d="M524.272,395.255c-.088-3.888-.2-7.768-.242-11.651-.031-2.332,0-4.641.083-6.993a10.936,10.936,0,0,1,2.916-7.039c2.44-2.68,4.98-5.263,7.512-7.862a14.4,14.4,0,0,1,9.741-4.239c2.577-.168,5.157-.168,7.771-.168q11.259,0,22.524.091a38.365,38.365,0,0,1,3.883.128,13.517,13.517,0,0,1,8.949,4.125c2.252,2.5,4.49,5.017,6.656,7.592a17.545,17.545,0,0,1,3.82,13.752,115.934,115.934,0,0,0,.231,27.114,34.568,34.568,0,0,1-.088,10.827,26.4,26.4,0,0,0-.1,8.5,44.94,44.94,0,0,1,.516,6.186c.077,8.55.077,17.093.1,25.643a20.547,20.547,0,0,1-.85,6.126,15.326,15.326,0,0,1-3.238,6.124c-2.278,2.474-4.584,4.94-7.041,7.218a16.444,16.444,0,0,1-13.638,4.259,120.953,120.953,0,0,0-15.511-.516c-4.917.057-9.838-.04-14.755-.088a9.726,9.726,0,0,1-6.95-3.036c-3.093-3.093-6.118-6.326-9.071-9.584a13.671,13.671,0,0,1-3.176-11.58,5.854,5.854,0,0,1,4.513-4.769,48.256,48.256,0,0,1,10.827-.242,5.987,5.987,0,0,1,3.449,1.659,23.532,23.532,0,0,1,2.577,2.882,10.278,10.278,0,0,0,9.641,3.94,43.474,43.474,0,0,1,12.344.319,10.767,10.767,0,0,0,6.745-1.4,5.043,5.043,0,0,0,2.742-3.609,19.3,19.3,0,0,0,.413-4.615c-.254-4.641-.234-9.316-.043-13.977a16.366,16.366,0,0,0-.308-3.857,6.075,6.075,0,0,0-4.564-4.821,21.1,21.1,0,0,0-5.382-.542c-3.883-.031-7.771.12-11.651.134-3.367,0-6.734-.04-10.1-.077a15.123,15.123,0,0,1-9.955-3.82c-3.093-2.722-6.012-5.7-8.843-8.715a9.1,9.1,0,0,1-2.378-6.414V395.17Zm20.3-3.093c.433,4.353.778,8.715,1.34,13.057a5.926,5.926,0,0,0,4.31,4.963,22.918,22.918,0,0,0,7.574,1.288,86.033,86.033,0,0,0,13.8-1.545,6.926,6.926,0,0,0,5.8-5.533,22.831,22.831,0,0,0,1.029-7.631c-.333-4.125-.65-8.213-1.137-12.3a7.072,7.072,0,0,0-5.519-5.807,30.106,30.106,0,0,0-12.25-.71,35.194,35.194,0,0,1-4.615.365,30.425,30.425,0,0,0-3.093.291,7.345,7.345,0,0,0-6.186,5.154,24.728,24.728,0,0,0-1.052,8.39Z" transform="translate(969.841 661.289)" fill="#212639"/>
        <path id="Path_4458" data-name="Path 4458" d="M798.554,1488.546c-184.3,0-357.579-71.771-487.9-202.095s-202.1-303.594-202.1-487.9,71.774-357.576,202.1-487.9,303.6-202.095,487.9-202.095,357.576,71.771,487.9,202.095,202.095,303.6,202.095,487.9-71.774,357.576-202.095,487.9-303.6,202.095-487.9,202.095m0-1363.827c-179.99,0-349.2,70.089-476.474,197.359S124.721,618.565,124.721,798.552s70.089,349.2,197.359,476.471,296.484,197.362,476.474,197.362,349.2-70.092,476.471-197.362,197.359-296.484,197.359-476.471-70.089-349.2-197.359-476.474S978.541,124.719,798.554,124.719" transform="translate(200.915 200.917)" fill="#212639"/>
      </g>
    </g>
  </g>
</svg>
