<svg xmlns="http://www.w3.org/2000/svg" xmlns:xlink="http://www.w3.org/1999/xlink" width="2557.781" height="2879.999" viewBox="0 0 2557.781 2879.999">
  <defs>
    <clipPath id="clip-path">
      <path id="fond" d="M0,0H2557.781V2880H0Z" transform="translate(0 0)" fill="#4d805a"/>
    </clipPath>
    <clipPath id="clip-path-2">
      <rect id="Rectangle_178" data-name="Rectangle 178" width="1355.54" height="902.703" fill="#fe5b00"/>
    </clipPath>
  </defs>
  <g id="Group_343" data-name="Group 343" transform="translate(-981 -15187)">
    <g id="Mask_Group_31" data-name="Mask Group 31" transform="translate(981 15187)" clip-path="url(#clip-path)">
      <path id="fond-2" data-name="fond" d="M0,0H2557.781V2880H0Z" transform="translate(0 0)" fill="#dbf227"/>
    </g>
    <g id="Group_270" data-name="Group 270" transform="translate(1582.12 16175.648)">
      <g id="Group_213" data-name="Group 213" transform="translate(0 0)">
        <g id="Group_212" data-name="Group 212" clip-path="url(#clip-path-2)">
          <path id="Path_1182" data-name="Path 1182" d="M14.345,0H75.8V-12.382H26.878v-94.979H14.345Zm97.7,1.208H121.4L135.3-5.738l3.473-3.926,7.248,10.872L156.134-6.04,150.245-14.5V-60.249l-4.077-10.268-11.174-7.55-10.872-2.718H110.079l-9.664,2.869-7.248,4.681-4.228,3.926L97.546-60.4l2.869-2.869,4.681-3.02,6.493-2.114H122.31l7.4,1.812,6.342,4.077,1.661,4.53v11.476l-3.624-2.567L123.971-52.4h-9.664L99.358-48.622,88.184-37.448,86.07-27.18v8.758L94.526-6.191l7.248,4.228Zm1.812-12.382-7.1-2.114L103.284-15.4,98.6-22.046v-4.077l1.208-5.285L105.7-37.3l9.966-2.718h6.795l7.4,2.114,4.681,2.416,3.171,3.322v5.587l-1.51,4.681L130.011-15.4l-11.325,4.228ZM173.5,0h12.533V-54.964l4.53-6.493L201.434-68.4H211.1l8.909,2.567,3.775,5.889V0h12.533V-64.779L227.1-77.161l-13.439-3.624H199.773l-9.966,5.738-3.775,3.322v-7.852H173.5ZM283.125,1.208h13.59l9.362-5.738L309.4-8V0h12.382V-113.854H309.248v39.109l-4.228-2.718-9.06-3.322H282.521l-15.1,7.248L257.153-59.645l-3.171,11.023v17.969l3.171,10.721L267.421-6.04Zm1.963-12.382-9.513-4.53-7.248-9.815-1.812-6.8V-46.961l1.812-7.1,7.248-9.664,8.909-4.832h9.664l6.191,1.963,5.738,3.775,3.171,3.926v34.277l-4.379,6.493-9.815,6.946ZM369.044,1.208h12.533l13.892-3.473,9.815-6.493-6.644-9.966-7.852,4.983L380.52-11.174h-9.06l-9.211-4.53L355-25.519l-1.963-6.644v-1.51h58.286V-49.528l-3.473-10.117L397.734-73.537l-15.251-7.248H369.044l-15.1,7.248L343.676-59.645l-3.171,11.023v17.969l3.171,10.721L353.944-6.04ZM353.038-46.055v-1.359l1.812-6.644,7.1-9.664,9.06-4.681h9.362l9.211,4.832,7.248,9.815,1.963,5.738v1.963ZM444.846,1.208h13.439l10.268-3.02L475.8-6.946l5.738-8.758V-28.539L475.65-38.2l-8.607-5.738-23.1-4.53-4.228-2.114-3.02-4.077v-6.644l2.114-3.624,2.567-2.114,5.738-1.661h10.117l8.456,2.567,7.248,4.983,6.795-10.117-9.06-6.191-12.382-3.322H445.45l-9.362,2.567-6.795,5.285-4.983,8.607v13.439l6.342,8.758,9.664,5.134,21.744,4.379,4.53,3.171,2.567,4.379v5.738l-2.416,3.775-3.775,2.718-6.342,1.812H446.507l-9.362-2.416-4.077-3.171L430.2-20.083l-8.758,8.456L424.914-7.7l7.1,5.587ZM500.867,0H513.4V-78.671l30.2,66.742h12.684l30.2-66.742V0h12.533V-107.361H586.635L549.942-26.727l-36.693-80.634H500.867ZM646.431,1.208h12.231l9.966-5.738L672.554-8V0h12.382V-79.577H672.4v54.964l-4.681,6.493L657-11.023h-8.607l-8.607-2.265-4.379-6.342V-79.577H622.875V-15.1L632.69-2.416Zm79.426,0H739.3l10.268-3.02,7.248-5.134L762.55-15.7V-28.539L756.661-38.2l-8.607-5.738-23.1-4.53-4.228-2.114-3.02-4.077v-6.644l2.114-3.624,2.567-2.114,5.738-1.661h10.117l8.456,2.567,7.248,4.983,6.795-10.117-9.06-6.191L739.3-80.785H726.461L717.1-78.218l-6.8,5.285-4.983,8.607v13.439l6.342,8.758,9.664,5.134,21.744,4.379,4.53,3.171,2.567,4.379v5.738l-2.416,3.775-3.775,2.718-6.342,1.812H727.518l-9.362-2.416-4.077-3.171-2.869-3.473-8.758,8.456L705.925-7.7l7.1,5.587Zm80.332,0h12.533l13.892-3.473,9.815-6.493-6.644-9.966-7.852,4.983-10.268,2.567H808.6l-9.211-4.53-7.248-9.815-1.963-6.644v-1.51h58.286V-49.528L845-59.645,834.879-73.537l-15.251-7.248H806.189l-15.1,7.248L780.821-59.645,777.65-48.622v17.969l3.171,10.721L791.089-6.04ZM790.183-46.055v-1.359l1.812-6.644,7.1-9.664,9.06-4.681h9.362l9.211,4.832,7.248,9.815,1.963,5.738v1.963ZM888.937,1.208h12.231l9.966-5.738L915.06-8V0h12.382V-79.577H914.909v54.964l-4.681,6.493-10.721,7.1H890.9l-8.607-2.265-4.379-6.342V-79.577H865.381V-15.1L875.2-2.416ZM950.394,0h12.533V-54.964l4.53-6.493L978.329-68.4h9.664l7.7,2.869,3.775,6.191V0H1012V-54.36l4.832-7.1L1027.4-68.4h9.664l7.7,2.567,3.775,5.889V0h12.533V-64.779l-9.211-12.382-12.231-3.624h-13.892l-10.57,5.738-6.644,5.738-5.738-7.852L990.56-80.785H976.668L966.7-75.047l-3.775,3.322v-7.852H950.394Z" transform="translate(0 716.796)" fill="#fe5b00"/>
          <path id="Path_1181" data-name="Path 1181" d="M4.38-41.464v8.76H68.62v-8.76Z" transform="translate(0 854.02)" fill="#fe5b00"/>
          <path id="Path_1180" data-name="Path 1180" d="M4.38-41.464v8.76H68.62v-8.76Z" transform="translate(67.757 854.02)" fill="#fe5b00"/>
        </g>
      </g>
      <path id="Path_1179" data-name="Path 1179" d="M15.836,0h48.1L76.22-5.772l7.1-8.436,3.4-14.208L83.62-42.476l-6.068-8.732-7.7-4.736,7.7-4.144,4.144-5.92,2.96-11.544L81.7-91.464,72.52-101.676l-13.172-3.552H15.836Zm8.288-60.088V-97.236h34.04l9.916,2.812,6.216,7.1,2.072,9.472L74.3-69.856l-2.812,3.7-9.176,6.068Zm0,52.1V-52.1h37.74l9.472,5.476,4.736,7.7L78.44-28.268,75.776-18.2,70.3-11.692l-8.14,3.7Zm103.6,9.176h15.54l14.8-6.808,7.1-10.508,3.108-13.616v-18.2l-3.108-13.764-7.1-10.36-14.5-7.1H127.576l-14.652,7.1-7.1,10.36-3.108,13.764v18.2l3.108,13.616,7.1,10.508Zm1.036-7.992L118.7-11.544l-5.624-8.584L111-30.784V-47.36l2.22-10.656,5.032-7.7,10.656-5.328H142.08l10.212,5.328,5.624,7.844,2.072,10.508v16.576l-2.072,10.656-5.624,8.584L142.228-6.808ZM187.812,0H196.1V-55.8l8.288-9.028,9.176-6.216h11.544l10.212,2.812,4.736,7.548V0h8.288V-64.38l-8.732-11.544L226.884-79.18H213.12L203.648-73.7,196.1-66.9V-78h-8.288Zm83.176,0h8.288V-55.8l8.288-9.028,9.176-6.216h11.544L318.5-68.228l4.736,7.548V0h8.288V-64.38l-8.732-11.544L310.06-79.18H296.3L286.824-73.7,279.276-66.9V-78h-8.288Z" transform="translate(144.341 852.674)" fill="#fe5b00"/>
      <path id="Path_259" data-name="Path 259" d="M39.808,30.507H66.194V230.469h103v26.067H39.808Z" transform="translate(136.071 104.279)" fill="#fe5b00"/>
      <path id="Path_260" data-name="Path 260" d="M131.545,33.4h27.7L228.51,217.569,297.77,33.4h27.7L240.789,257.236H216.232Z" transform="translate(449.642 114.16)" fill="#fe5b00"/>
      <path id="Path_261" data-name="Path 261" d="M240.344,30.55h93.943L363.8,38.167l23.487,23.487,9.2,32.054-8.567,31.1-15.552,22.851L353.643,157.5l43.8,98.706h-29.2L327.3,162.26H266.685V256.2H240.344Zm95.212,105.687L354.6,127.03l9.2-13.643L369.2,94.662,363.8,75.615,350.153,61.968l-18.724-5.395H266.685v79.664Z" transform="translate(821.534 104.425)" fill="#fe5b00"/>
      <g id="Group_215" data-name="Group 215" transform="translate(0 0)">
        <g id="Group_214" data-name="Group 214" clip-path="url(#clip-path-2)">
          <rect id="Rectangle_179" data-name="Rectangle 179" width="410.036" height="410.037" transform="translate(934.459 42.781)" fill="#fe5b00"/>
          <path id="Path_262" data-name="Path 262" d="M312.108,419.721h0c-113.229,0-205.02-91.792-205.02-205.021S198.88,9.684,312.108,9.684s205.02,91.787,205.02,205.016S425.337,419.721,312.108,419.721Z" transform="translate(366.044 33.102)" fill="#fe5b00"/>
          <path id="Path_263" data-name="Path 263" d="M410.446,355.457V120.41L206.888,2.887,3.335,120.41V355.457L206.888,472.98Z" transform="translate(11.399 9.869)" fill="#fe5b00"/>
        </g>
      </g>
    </g>
  </g>
</svg>
