<svg xmlns="http://www.w3.org/2000/svg" width="897" height="1010" viewBox="0 0 897 1010">
  <g id="typo" transform="translate(-981 -2324)">
    <path id="Path_77" data-name="Path 77" d="M0,0H897V1010H0Z" transform="translate(981 2324)" fill="#cc0813"/>
    <g id="Group_88" data-name="Group 88" transform="translate(1047 2465.199)">
      <text id="Bold" transform="translate(10.41 622.32)" fill="#333" font-size="53" font-family="BrandonGrotesque-Bold, Brandon Grotesque" font-weight="700"><tspan x="0" y="0">Bold</tspan></text>
      <text id="Brandon_Grotesque" data-name="Brandon Grotesque" transform="translate(10.459 14)" fill="#e5e5e5" font-size="34" font-family="BrandonGrotesque-Bold, Brandon Grotesque" font-weight="700"><tspan x="0" y="0">Brandon Grotesque</tspan></text>
    </g>
    <path id="Intersection_1" data-name="Intersection 1" d="M2119.818,16985.7c0-36.271,29.53-67.086,65.8-67.086a63.31,63.31,0,0,1,8.544.576v35.348a29.471,29.471,0,0,0-8.544-1.258c-17.331,0-30.814,14.445-30.814,32.42,0,18.3,13.483,33.064,30.814,33.064a28.9,28.9,0,0,0,8.544-1.285v35.375a63.31,63.31,0,0,1-8.544.576C2149.348,17053.434,2119.818,17022.621,2119.818,16985.7Zm-160.182.32c0-37.555,25.361-67.406,63.558-67.406a77.27,77.27,0,0,1,28.571,5.773v-92.768a6.315,6.315,0,0,1,6.1-6.1h27.283a6.315,6.315,0,0,1,6.1,6.1v212.5a6.315,6.315,0,0,1-6.1,6.1h-12.52c-2.885,0-5.132-2.568-6.095-6.1l-3.21-9.953s-15.088,19.262-42.054,19.262C1986.28,17053.434,1959.635,17022.941,1959.635,16986.023Zm37.239,0c0,17.977,12.2,32.744,29.209,32.744s24.719-13.162,26.966-20.867v-37.234s-8.989-7.383-25.04-7.383C2010.036,16953.283,1996.874,16968.051,1996.874,16986.023Zm-340.581,23.436c0-22.793,18.615-40.445,51.36-40.445a82.5,82.5,0,0,1,23.43,3.531c.321-16.373-4.815-22.15-16.689-22.15s-28.571,2.568-35.955,4.814c-4.494,1.285-6.742-1.605-7.384-5.777l-2.889-16.693c-.959-4.816,1.605-7.062,4.494-8.025,2.568-.965,23.114-6.1,43.659-6.1,40.124,0,49.433,20.861,49.433,55.854v69.654a6.315,6.315,0,0,1-6.1,6.1H1748.1c-2.247,0-3.852-.963-5.458-4.494l-3.852-8.664c-7.384,6.736-19.257,16.367-39.161,16.367C1673.945,17053.434,1656.293,17036.74,1656.293,17009.459Zm35.308,0c0,9.631,6.741,16.693,16.693,16.693,10.273,0,20.22-8.668,22.146-12.521v-17.656a50.25,50.25,0,0,0-17.973-3.852C1699.948,16992.123,1691.6,16999.186,1691.6,17009.459Zm209.29,40.766a6.092,6.092,0,0,1-6.095-6.1v-63.555c0-16.693-8.668-27.287-24.077-27.287a32.232,32.232,0,0,0-30.176,20.225v70.617c0,4.494-1.922,6.1-8.021,6.1h-23.756a6.315,6.315,0,0,1-6.1-6.1v-116.2a6.1,6.1,0,0,1,6.1-6.1h12.2c2.889,0,4.494,1.605,5.457,3.854l4.494,11.877a63.176,63.176,0,0,1,45.26-18.936c40.766,0,57.138,30.492,57.138,63.875v61.633a6.315,6.315,0,0,1-6.1,6.1Zm-338.655,0a6.315,6.315,0,0,1-6.1-6.1v-116.2a6.1,6.1,0,0,1,6.1-6.1h12.2a5.878,5.878,0,0,1,5.778,4.174l4.494,12.52c4.494-6.42,16.372-19.9,36.271-19.9,15.088,0,28.571,4.811,24.719,12.836l-11.878,20.867c-1.605,2.889-4.815,4.174-7.384,2.889-.963-.32-5.778-1.926-9.31-1.926a26,26,0,0,0-22.788,13.162v77.68c0,4.494-2.889,6.1-7.384,6.1Zm-182.645,0a6.1,6.1,0,0,1-6.1-6.1v-212.5a6.1,6.1,0,0,1,6.1-6.1H1453.1c38.2,0,67.732,25.684,67.732,59.387,0,24.719-20.225,43.975-35.308,51.037,17.01,5.459,41.729,22.793,41.729,52.324,0,35.949-30.818,61.953-69.979,61.953Zm35.308-37.877h38.839c16.051,0,28.892-12.52,28.892-29.213,0-16.047-16.051-27.926-32.745-27.926H1414.9Zm0-92.451h34.345c16.372,0,27.608-12.836,27.608-28.887s-11.236-27.287-27.608-27.287H1414.9Z" transform="translate(-316.164 -14197.5)" fill="#94762a"/>
  </g>
</svg>
