<svg xmlns="http://www.w3.org/2000/svg" width="2560.997" height="2882.497" viewBox="0 0 2560.997 2882.497"><g data-name="Group 140"><path data-name="Path 77" d="M.497 0h2560v2882.5H.497Z" fill="#e6e7ea"/><g data-name="Group 139"><path data-name="Intersection 1" d="M.5 1901.758v-197.349c56.7 80.736 143.66 134.8 265.418 134.8 173.512 0 318.84-123.632 431.634-242.931l69.4 65.069c-130.137 167.014-329.688 286.314-546.591 286.314C138.43 1947.657 64.91 1931.21.5 1901.758Zm2013.633-383.566c0-307.311 248.887-593.054 546.364-659.9v80.729c-159.27 68.421-282.532 270.4-305.597 423h147.5c8.066 0 78.383-8.525 158.1-36.9v109.739c-30.9 5.118-57.125 7.405-75.68 7.405h-242.93a643.147 643.147 0 0 0-6.508 91.1c0 175.7 93.266 301.493 277.634 301.493a336.659 336.659 0 0 0 47.484-3.409v91.105a552.019 552.019 0 0 1-103.883 9.907c-240.757.007-442.484-164.832-442.484-414.269Zm-505.372 286.3c0-28.193 21.688-101.935 28.191-130.138l140.989-516.222c8.672-32.535 17.355-67.235 17.355-101.945 0-67.234-41.219-108.452-108.449-108.452-82.426 0-210.4 58.563-275.469 110.628-45.547 36.866-60.727 93.263-75.918 149.659l-186.532 698.415H840.7l360.06-1338.275c4.344-19.521 8.672-32.534 8.672-49.879 0-56.4-73.742-43.383-73.742-75.917 0-6.508 10.84-34.711 13.016-54.231l308-6.507L1296.2 980.274c119.289-80.249 258.11-136.645 403.442-136.645 121.453 0 206.043 67.244 206.043 193.041 0 45.548-8.672 78.083-19.52 121.466L1736.5 1702.561c-4.34 19.521-17.344 62.894-17.344 80.249 0 21.686 17.344 41.217 36.863 41.217 34.711 0 73.754-43.382 99.781-65.079 6.508 13.014 30.359 41.217 30.359 58.572 0 23.852-123.633 114.949-225.578 114.949-84.581-.001-151.82-36.867-151.82-127.974ZM.5 572.021c142.512-140.528 327.946-231.6 545.216-231.6 193.043 0 260.289 121.466 323.184 121.466 58.563 0 23.863-39.042 110.617-39.042h54.231L929.635 811.094H875.4c-106.278 0-34.7-171.355-143.153-303.659-43.378-52.055-112.789-75.914-173.515-75.914C275.6 431.521 95.676 675.232.5 943.28Z" fill="#fff" stroke="rgba(0,0,0,0)" stroke-miterlimit="10"/></g><path data-name="Path 98" d="M236.659 2333.094a17.5 17.5 0 0 0 .679-2.62c0-1.747-4.561-.776-4.561-3.59a24.014 24.014 0 0 1 .582-2.814l13.877-51.526c1.358-5.046 5.822-2.038 6.7-5.24l.67-2.421h-20.567a17.5 17.5 0 0 0-.679 2.62c0 1.747 4.27 1.067 4.27 3.59a23.816 23.816 0 0 1-.776 2.814l-13.877 51.521c-1.358 5.046-5.337 2.038-6.21 5.24l-.679 2.426Zm78.7-69.865c-3.687 1.747-8.054 1.65-12.032 1.65H268.39a31.429 31.429 0 0 1-5.434-.485 13.468 13.468 0 0 1-3.784-1.164l-4.466 17.077h2.426c6.986 0 3.2-11.062 16.981-11.062h7.181l-15.136 55.892c-1.65 6.016-7.084 2.038-7.957 5.531l-.582 2.426h23.579a13.919 13.919 0 0 0 .679-2.717c0-2.329-5.822-.679-5.822-4.172a20.394 20.394 0 0 1 .873-4.075l14.265-52.885h8.345c8.442 0 4.27 11.062 8.83 11.062h2.426Zm54.63 3.493h-2.426c-3.881 0-2.329 1.747-4.949 1.747-2.814 0-5.822-5.434-14.458-5.434-23.385 0-38.523 23.579-38.523 44.83 0 14.361 8.733 27.073 23.968 27.073 9.7 0 18.631-5.337 24.453-12.809l-3.105-2.911c-5.046 5.337-11.547 10.868-19.31 10.868-10.965 0-15.623-9.8-15.623-19.407 0-15.623 8.442-43.569 28.722-43.569a10.244 10.244 0 0 1 7.763 3.4c4.852 5.919 1.65 13.585 6.4 13.585h2.426Zm85.39 0h-2.426c-3.881 0-2.329 1.747-4.949 1.747-2.814 0-5.822-5.434-14.458-5.434-23.385 0-38.523 23.579-38.523 44.83 0 14.361 8.733 27.073 23.968 27.073 9.7 0 18.631-5.337 24.453-12.809l-3.105-2.911c-5.046 5.337-11.547 10.868-19.31 10.868-10.969-.003-15.623-9.803-15.623-19.403 0-15.623 8.442-43.569 28.722-43.569a10.244 10.244 0 0 1 7.763 3.4c4.852 5.919 1.65 13.585 6.4 13.585h2.426Zm-5.725 66.372h9.315l8.337-31.245c.679-2.523 1.358-5.046 3.4-6.7 2.911-2.329 8.636-4.949 12.323-4.949a4.487 4.487 0 0 1 4.852 4.852 17.957 17.957 0 0 1-.776 4.561l-6.307 23.094a41.629 41.629 0 0 0-1.261 5.822c0 4.075 3.008 5.725 6.792 5.725 4.561 0 10.092-4.075 10.092-5.143 0-.776-1.067-2.038-1.358-2.62-1.164.97-2.911 2.911-4.464 2.911a1.813 1.813 0 0 1-1.65-1.844 26.6 26.6 0 0 1 .776-3.59l6.7-24.356a20.514 20.514 0 0 0 .873-5.434c0-5.628-3.784-8.636-9.218-8.636-6.5 0-12.712 2.523-18.048 6.113l7.174-26.772-13.779.291c-.1.873-.582 2.135-.582 2.426 0 1.456 3.3.873 3.3 3.4a9.813 9.813 0 0 1-.388 2.232Zm93.052-10.48c-4.173 3.784-9.509 7.278-15.331 7.278-8.248 0-12.42-5.628-12.42-13.488a28.78 28.78 0 0 1 .291-4.075h10.868c5.046 0 22.8-3.784 22.8-16.787 0-7.375-7.181-9.995-13.585-9.995-15.72 0-30.275 14.458-30.275 30.178 0 11.159 9.024 18.534 19.8 18.534 7.957 0 14.943-3.881 20.668-9.024Zm-26.878-13.876c1.261-8.345 9.218-19.989 18.631-19.989 3.687 0 6.016 2.426 6.016 6.113 0 11.644-17.175 13.876-18.048 13.876Zm65.789-43.855-13.391.291c-.1.873-.582 2.135-.582 2.426 0 1.456 3.3.873 3.3 3.4a6.367 6.367 0 0 1-.388 2.232l-12.518 46.665a29.213 29.213 0 0 0-1.164 7.084 7.137 7.137 0 0 0 7.472 7.278c4.949 0 9.509-3.105 9.509-4.561 0-.582-.97-1.844-1.261-2.426-1.358.873-2.717 2.135-4.367 2.135-1.941 0-2.62-1.553-2.62-3.4a21.968 21.968 0 0 1 .776-4.27Zm21.057 21.828 3.2-11.935c.194-.776-.582-.679-.97-.582l-2.717.485c-5.822.97-5.337.194-6.7 5.434-2.62 10.189-6.6 4.658-7.666 8.539l-.679 2.426h5.337l-8.248 30.663a25.568 25.568 0 0 0-1.164 5.919c0 4.658 4.075 6.6 8.151 6.6 2.329 0 9.509-1.553 9.509-3.784a10.845 10.845 0 0 0-1.067-2.426 9.224 9.224 0 0 1-4.172 1.358c-1.747 0-3.4-.97-3.4-2.911a26.2 26.2 0 0 1 .776-3.784l8.539-31.633h9.024l1.261-4.367Zm44.83 35.9c-4.172 3.784-9.509 7.278-15.331 7.278-8.248 0-12.42-5.628-12.42-13.488a28.784 28.784 0 0 1 .291-4.075h10.862c5.046 0 22.8-3.784 22.8-16.787 0-7.375-7.181-9.995-13.585-9.995-15.72 0-30.275 14.458-30.275 30.178 0 11.159 9.024 18.534 19.8 18.534 7.957 0 14.943-3.881 20.668-9.024Zm-26.879-13.873c1.261-8.345 9.218-19.989 18.631-19.989 3.687 0 6.016 2.426 6.016 6.113 0 11.644-17.175 13.876-18.048 13.876Zm84.905-7.763a32.1 32.1 0 0 0 1.165-6.792c0-5.434-4.949-8.636-9.995-8.636-6.5 0-12.226 2.62-17.272 6.6l.873-3.008a19.953 19.953 0 0 0 .679-3.105.355.355 0 0 0-.388-.388 48.118 48.118 0 0 1-7.956 1.937l-6.4.97a9.852 9.852 0 0 0-.582 2.426c0 1.456 3.784.873 3.784 3.4a5.391 5.391 0 0 1-.388 2.038l-9.8 36.679h9.121l7.855-29.213c.776-2.717 1.261-5.822 3.59-7.763 3.105-2.717 8.442-5.725 12.712-5.725 3.008 0 4.755 1.941 4.755 4.949a11.586 11.586 0 0 1-.776 3.978l-5.919 22.124a23.221 23.221 0 0 0-1.067 6.307c0 4.27 3.008 6.5 7.084 6.5 3.105 0 9.8-2.911 9.8-5.531 0-.485-1.067-1.844-1.261-2.232-1.067.873-3.3 2.911-4.755 2.911a2.082 2.082 0 0 1-1.941-2.232 21.432 21.432 0 0 1 .776-3.59Zm8.054 32.118h9.315l8.345-31.245c.679-2.523 1.358-5.046 3.4-6.7 2.911-2.329 8.636-4.949 12.323-4.949a4.487 4.487 0 0 1 4.852 4.852 17.958 17.958 0 0 1-.776 4.561l-6.307 23.094a41.633 41.633 0 0 0-1.261 5.822c0 4.075 3.008 5.725 6.792 5.725 4.561 0 10.092-4.075 10.092-5.143 0-.776-1.067-2.038-1.359-2.62-1.164.97-2.911 2.911-4.464 2.911a1.813 1.813 0 0 1-1.65-1.844 26.593 26.593 0 0 1 .776-3.59l6.7-24.356a20.514 20.514 0 0 0 .873-5.434c0-5.628-3.784-8.636-9.218-8.636-6.5 0-12.711 2.523-18.048 6.113l7.173-26.771-13.779.291c-.1.873-.582 2.135-.582 2.426 0 1.456 3.3.873 3.3 3.4a9.812 9.812 0 0 1-.388 2.232Zm85.487-11.935a7.513 7.513 0 0 1-3.105 4.561 13.718 13.718 0 0 1-9.121 3.687c-5.725 0-8.442-4.852-8.442-10.092 0-11.256 8.636-30.566 21.639-30.566 2.523 0 6.307 1.067 6.307 4.367a10.753 10.753 0 0 1-.485 2.426Zm11.548-31.341c-3.493-2.717-6.016-4.27-10.771-4.27-15.914 0-31.342 16.4-31.342 32.215 0 9.315 5.24 16.5 15.04 16.5a21.943 21.943 0 0 0 14.846-5.919c.388 3.881 2.717 5.919 6.6 5.919 3.687 0 10.092-2.814 10.092-4.852a20.151 20.151 0 0 0-1.456-2.426 6.992 6.992 0 0 1-4.561 1.941 1.834 1.834 0 0 1-1.844-2.038 18.949 18.949 0 0 1 .97-4.658l9.024-33.771c.582-1.941.388-2.232-.1-2.232-.388 0-.873.388-1.261.582Zm11.935 43.277h9.315l8.054-29.693c.679-2.523 1.358-5.434 3.105-7.375 2.911-3.2 8.151-6.113 12.42-6.113 3.2 0 4.464 2.523 4.464 5.434a41.7 41.7 0 0 1-1.552 7.375l-8.154 30.372h9.412l8.345-31.148c.582-2.232 1.164-4.755 2.814-6.5 2.717-2.814 7.763-5.531 11.644-5.531 2.814 0 5.24 1.358 5.24 4.367 0 1.844-1.067 5.337-1.552 7.181l-5.531 19.989a23.22 23.22 0 0 0-1.067 6.307c0 4.27 3.008 6.5 7.084 6.5 2.329 0 9.218-1.941 9.218-4.949 0-.485-1.164-1.844-1.456-2.232-1.067.873-2.523 2.329-3.978 2.329a2.082 2.082 0 0 1-1.941-2.232 21.438 21.438 0 0 1 .776-3.59l6.016-22.124a35.345 35.345 0 0 0 1.358-7.666c0-6.113-5.434-8.248-10.674-8.248a23.459 23.459 0 0 0-17.078 7.181c-.1-5.046-4.755-7.181-9.315-7.181a27.332 27.332 0 0 0-17.175 6.5l.776-3.008a19.96 19.96 0 0 0 .679-3.105.355.355 0 0 0-.388-.388 48.118 48.118 0 0 1-7.953 1.937l-5.725.97a9.852 9.852 0 0 0-.582 2.426c0 1.456 3.687.582 3.687 3.105a8.342 8.342 0 0 1-.388 2.329Zm157.584-66.76a2.666 2.666 0 0 1-2.132 1.165c-1.941 0-5.628-4.464-14.07-4.464-10.868 0-22.221 7.472-22.221 20.086 0 18.437 24.453 18.34 24.453 34.059 0 8.733-7.375 13.973-15.526 14.167-7.666 0-11.353-3.4-13.585-10.383-1.359-3.784-1.553-4.27-3.881-4.27h-2.426l-4.367 16.4h4.755a4.516 4.516 0 0 1 3.493-1.844c3.4 0 8.927 3.687 16.2 3.687 12.712 0 24.744-8.539 24.744-22.027 0-18.728-24.938-20.183-24.938-33.671 0-7.472 6.987-12.614 13.973-12.614 7.666 0 9.9 5.822 10.771 9.8.776 3.4 2.038 3.59 3.105 3.59h2.426l3.694-13.681Zm22.318 20.377 3.2-11.935c.194-.776-.582-.679-.97-.582l-2.717.485c-5.822.97-5.337.194-6.7 5.434-2.62 10.189-6.6 4.658-7.666 8.539l-.679 2.426h5.337l-8.248 30.663a25.571 25.571 0 0 0-1.164 5.919c0 4.658 4.076 6.6 8.151 6.6 2.329 0 9.509-1.553 9.509-3.784a10.846 10.846 0 0 0-1.067-2.426 9.224 9.224 0 0 1-4.172 1.358c-1.747 0-3.4-.97-3.4-2.911a26.206 26.206 0 0 1 .776-3.784l8.539-31.633h9.024l1.261-4.367Zm45.024 1.262c-2.523-1.941-5.24-2.426-8.345-2.426-16.2 0-30.469 17.66-30.469 33.186 0 8.927 5.628 15.526 14.749 15.526a21.536 21.536 0 0 0 14.458-5.919c.1 3.59 2.135 5.919 6.5 5.919 4.075 0 9.8-3.2 9.8-4.949a7.328 7.328 0 0 0-1.261-2.232c-1.164.776-2.911 2.329-4.367 2.329a2.108 2.108 0 0 1-1.941-2.329 16.508 16.508 0 0 1 .776-4.27l15.526-57.925-13.779.291a9.852 9.852 0 0 0-.582 2.426c0 1.456 3.3.873 3.3 3.4a8.253 8.253 0 0 1-.388 2.135Zm-8.83 32.8a11.911 11.911 0 0 1-11.838 8.636c-5.725 0-8.248-4.658-8.248-9.8 0-10.965 8.054-30.469 20.959-30.469 2.523 0 6.307.776 6.307 3.978a8.32 8.32 0 0 1-.485 2.62Z" fill="#404040"/><path data-name="Path 97" d="M1310.718 2406.183h8.345c.582 0 8.636.194 8.636 10.383 0 11.935-9.121 16.2-15.137 16.2h-8.928Zm9.708 32.026c10.577 0 23.773-5.434 23.773-19.8 0-10.286-9.995-15.817-19.019-15.526l-.194-.194c19.892-1.358 23.385-13 23.385-17.466 0-15.234-13.585-15.234-20.474-15.234h-29.115a18.314 18.314 0 0 0-.873 3.3c0 2.523 4.464 1.067 4.464 3.687a4.533 4.533 0 0 1-.291 1.65l-13.682 51.04c-1.359 4.851-6.21 2.62-7.084 5.628l-.776 2.915Zm-1.46-62.786h1.36c6.986 0 11.547.776 11.547 9.121 0 11.353-8.539 16.2-19.6 16.2Zm60.937 15.817c-15.623 0-29.79 11.741-29.79 28.237 0 12.615 10.48 20.377 22.415 20.377 16.593 0 29.79-11.741 29.79-28.237 0-12.614-10.479-20.377-22.415-20.377Zm1.261 3.978c4.949 0 5.531 5.919 5.531 9.509 0 7.278-5.531 31.148-15.428 31.148-4.561 0-5.531-5.919-5.531-9.509 0-7.277 5.822-31.148 15.429-31.148Zm59.095-25.909-20.377.679a11.893 11.893 0 0 0-.679 3.105c0 2.135 3.59.291 3.59 3.881a4.929 4.929 0 0 1-.291 1.65l-12.033 45.123a33.507 33.507 0 0 0-1.358 7.569c0 5.822 4.852 8.539 10.092 8.539 6.792 0 14.07-4.852 14.07-6.889a6.756 6.756 0 0 0-1.067-2.232l-.291-.582c-1.553 1.067-3.978 2.523-5.822 2.523a2.021 2.021 0 0 1-1.941-2.232 17.209 17.209 0 0 1 .776-3.881Zm60.647 0-20.474.679a11.894 11.894 0 0 0-.679 3.105c0 1.844 3.105.679 3.105 3.881a4.928 4.928 0 0 1-.291 1.65l-3.784 14.167a16.777 16.777 0 0 0-7.86-1.553c-12.906 0-30.857 14.652-30.857 32.8 0 9.315 6.016 15.817 15.428 15.817 5.531 0 10.48-2.62 14.555-6.113 1.358 4.464 5.822 6.113 10.189 6.113 4.852 0 12.906-3.881 12.906-6.113a2.758 2.758 0 0 0-.388-1.164l-.97-1.747c-1.358 1.164-3.4 2.62-5.143 2.62-1.65 0-2.135-1.067-2.135-2.523a18.076 18.076 0 0 1 .679-3.3Zm-31.246 58.513c-1.941 2.62-5.434 5.628-8.733 5.628-4.075 0-5.143-5.24-5.143-8.442 0-8.248 6.986-28.819 17.175-28.819 1.941 0 3.59 2.135 3.59 3.978a10.342 10.342 0 0 1-.582 3.008Zm71.612-57.833a18.312 18.312 0 0 0-.873 3.3c0 2.717 4.852.776 4.852 3.687a8.329 8.329 0 0 1-.291 1.65l-13.78 50.846c-1.358 5.143-5.725 2.135-6.986 5.822l-.968 2.915h27.558a29.405 29.405 0 0 0 .873-3.4c0-2.426-4.755-.776-4.755-3.59a4.532 4.532 0 0 1 .291-1.65l13.2-49.294c2.232-8.248 6.113-3.2 7.569-7.86l.776-2.426Zm51.137 12.52a11.442 11.442 0 0 0 .582-2.62c0-1.067-1.358-.873-2.135-.873-.1 0-1.067.1-1.164.1l-11.838 1.261-2.038 7.569c-1.65 6.21-6.113 4.561-6.889 7.472l-.776 2.911h4.949l-6.7 24.938a34.224 34.224 0 0 0-1.456 8.248c0 5.919 5.628 8.345 10.771 8.345 7.083 0 13.973-5.337 13.973-7.181a3.391 3.391 0 0 0-.485-1.261l-.776-1.456c-1.65 1.164-4.27 2.814-6.21 2.814a2.17 2.17 0 0 1-2.426-2.329 13.187 13.187 0 0 1 .679-3.4l7.666-28.722h9.606l1.456-5.434h-9.509Zm36.776 40.269c-.776 2.62-1.067 4.464-2.911 6.5-1.747 2.038-4.464 4.172-7.278 4.172-3.978 0-5.24-4.755-5.24-8.054 0-9.606 7.084-29.207 17.078-29.207a4.391 4.391 0 0 1 4.464 3.59Zm11.841-26.589-.776-.582c-3.784-2.62-7.084-4.367-11.838-4.367-15.817 0-30.566 16.5-30.566 31.924 0 9.121 5.628 16.69 15.234 16.69a22.01 22.01 0 0 0 14.943-6.113c1.067 4.172 5.725 6.113 9.606 6.113 6.4 0 13.682-4.075 13.682-6.016a10.607 10.607 0 0 0-1.359-2.814c-1.456 1.067-3.687 2.426-5.434 2.426a1.938 1.938 0 0 1-1.941-2.135 10.755 10.755 0 0 1 .485-2.426l9.412-35.029c0-.291.679-1.844-.194-1.844a9.221 9.221 0 0 0-1.747.582Zm51.523-26.88-20.377.679a11.893 11.893 0 0 0-.679 3.105c0 2.135 3.59.291 3.59 3.881a4.929 4.929 0 0 1-.291 1.65l-12.033 45.123a33.507 33.507 0 0 0-1.358 7.569c0 5.822 4.852 8.539 10.092 8.539 6.792 0 14.07-4.852 14.07-6.889a6.756 6.756 0 0 0-1.067-2.232l-.291-.582c-1.553 1.067-3.978 2.523-5.822 2.523a2.021 2.021 0 0 1-1.941-2.232 17.209 17.209 0 0 1 .776-3.881Zm24.259 61.423a12.132 12.132 0 0 1-5.24 2.329 1.967 1.967 0 0 1-2.042-1.94 12.381 12.381 0 0 1 .582-3.2l9.218-32.994a22.235 22.235 0 0 0 .679-2.717c0-.582-.1-.97-.776-.97a5.89 5.89 0 0 0-1.747.485c-3.687 1.261-11.547 2.038-15.526 2.038h-3.008a17.8 17.8 0 0 0-.679 3.105c0 2.135 3.687.485 3.687 3.881a5.384 5.384 0 0 1-.291 1.65l-5.919 22.221a27.81 27.81 0 0 0-1.164 6.307c0 6.4 5.24 8.927 10.868 8.927s12.809-3.978 12.809-6.307a1.79 1.79 0 0 0-.485-1.164Zm-1.553-62.1c-4.561 0-8.248 4.27-8.248 8.636 0 4.949 3.493 8.83 8.539 8.83 4.658 0 8.248-4.172 8.248-8.733a8.594 8.594 0 0 0-8.539-8.734Zm49.2 58.415c-3.493 3.493-7.763 6.889-13 6.889-6.889 0-9.218-6.307-9.218-12.323 0-16.108 11.353-25.908 16.011-25.908.679 0 1.261.291 1.261.97 0 1.067-1.65 2.232-1.65 4.755a6.531 6.531 0 0 0 6.792 6.307 7.455 7.455 0 0 0 7.472-7.375c0-6.6-7.181-9.121-12.614-9.121-18.922 0-32.895 15.04-32.895 30.76 0 11.547 8.927 17.854 19.8 17.854a28.428 28.428 0 0 0 20.959-9.606Z" fill="#aa8d3f"/><path data-name="Path 99" d="M1317.122 2296.959c7.763 0 12.42 3.784 12.42 11.256 0 19.5-20.183 17.951-21.736 17.951h-9.994l7.86-29.207Zm-.392 33.283c.873 0 23.191-.776 23.191-20.086 0-8.733-6.5-14.167-14.652-15.428v-.199c7.087-1.063 18.634-5.138 18.634-17.559 0-11.353-10.383-14.943-16.108-14.943h-28.528a17.5 17.5 0 0 0-.679 2.62c0 1.747 4.561.776 4.561 3.59a24.014 24.014 0 0 1-.582 2.814l-13.876 51.526c-1.361 5.045-5.822 2.037-6.696 5.239l-.679 2.426Zm-2.81-64.14h8.054c6.5 0 11.547 1.553 11.547 8.83 0 15.914-13.876 17.951-15.914 17.951h-10.868Zm54.825 65.3c14.846 0 27.946-13.391 27.946-28.237 0-7.957-4.27-20.474-20.377-20.474-14.264 0-27.461 13.294-27.461 27.752-.001 11.066 8.344 20.964 19.891 20.964Zm18.533-33.473c0 9.8-5.919 30.275-18.243 30.275-7.472 0-10.771-7.084-10.771-13.585 0-10.577 6.113-28.722 19.019-28.722 6.89.001 9.995 5.823 9.995 12.032Zm35.806 33.477c14.846.001 27.946-13.39 27.946-28.236 0-7.957-4.27-20.474-20.377-20.474-14.264 0-27.461 13.294-27.461 27.752-.001 11.061 8.344 20.959 19.891 20.959Zm18.533-33.477c0 9.8-5.919 30.275-18.242 30.275-7.472 0-10.771-7.084-10.771-13.585 0-10.577 6.113-28.722 19.019-28.722 6.889.001 9.994 5.823 9.994 12.032Zm32.7-.679c.582-2.135.97-3.784 2.814-5.337 2.911-2.329 7.763-4.464 11.547-4.464 3.4 0 6.113 1.941 6.113 5.628 0 9.218-12.323 14.264-23.385 14.749Zm-18.048 32.992h9.121l5.14-18.824 7.86-.776 5.24 11.45c1.747 4.27 4.172 9.315 9.606 9.315 3.4 0 9.218-2.62 9.218-4.464 0-.97-1.067-1.456-1.553-2.135a5.536 5.536 0 0 1-3.4 1.358c-2.426 0-4.075-3.881-4.949-5.628l-5.337-11.935c7.375-2.523 16.5-8.054 16.5-16.787 0-6.307-4.561-9.121-10.383-9.121-6.5 0-11.256 2.232-16.593 5.434l6.991-26.1-14.07.291a9.853 9.853 0 0 0-.582 2.426c0 1.456 3.687.873 3.687 3.4a9.055 9.055 0 0 1-.388 2.135Zm95.385 0a17.5 17.5 0 0 0 .679-2.62c0-1.747-4.561-.776-4.561-3.59a24.011 24.011 0 0 1 .582-2.814l13.876-51.525c1.358-5.046 5.822-2.038 6.7-5.24l.679-2.426h-20.579a17.5 17.5 0 0 0-.679 2.62c0 1.747 4.27 1.067 4.27 3.59a23.813 23.813 0 0 1-.776 2.814l-13.873 51.526c-1.359 5.046-5.337 2.038-6.21 5.24l-.679 2.426Zm32.216-46.382 3.202-11.931c.194-.776-.582-.679-.97-.582l-2.717.485c-5.822.97-5.337.194-6.7 5.434-2.62 10.189-6.6 4.658-7.666 8.539l-.675 2.424h5.337l-8.251 30.66a25.568 25.568 0 0 0-1.164 5.919c0 4.658 4.075 6.6 8.151 6.6 2.329 0 9.509-1.553 9.509-3.784a10.843 10.843 0 0 0-1.067-2.426 9.224 9.224 0 0 1-4.172 1.358c-1.747 0-3.4-.97-3.4-2.911a26.2 26.2 0 0 1 .776-3.784l8.545-31.632h9.022l1.261-4.367Zm37.26 34.447a7.513 7.513 0 0 1-3.1 4.561 13.718 13.718 0 0 1-9.121 3.687c-5.725 0-8.442-4.852-8.442-10.092 0-11.256 8.636-30.566 21.639-30.566 2.523 0 6.307 1.067 6.307 4.367a10.755 10.755 0 0 1-.485 2.426Zm11.548-31.342c-3.493-2.717-6.016-4.27-10.771-4.27-15.914 0-31.342 16.4-31.342 32.215 0 9.315 5.24 16.5 15.04 16.5a21.943 21.943 0 0 0 14.846-5.919c.388 3.881 2.717 5.919 6.6 5.919 3.687 0 10.092-2.814 10.092-4.852a20.149 20.149 0 0 0-1.456-2.426 6.992 6.992 0 0 1-4.561 1.941 1.834 1.834 0 0 1-1.844-2.038 18.948 18.948 0 0 1 .97-4.658l9.025-33.771c.582-1.941.388-2.232-.1-2.232-.388 0-.873.388-1.261.582Zm38.814-24.936-13.391.291c-.1.873-.582 2.135-.582 2.426 0 1.456 3.3.873 3.3 3.4a6.368 6.368 0 0 1-.388 2.232l-12.518 46.668a29.213 29.213 0 0 0-1.164 7.084 7.137 7.137 0 0 0 7.472 7.278c4.949 0 9.509-3.105 9.509-4.561 0-.582-.97-1.844-1.261-2.426-1.358.873-2.717 2.135-4.367 2.135-1.941 0-2.62-1.553-2.62-3.4a21.968 21.968 0 0 1 .776-4.27Zm4.852 57.639a20.624 20.624 0 0 0-.97 5.434c0 3.881 3.59 6.307 7.084 6.307 4.852 0 9.995-2.911 9.995-4.27 0-.776-.776-1.65-1.261-2.426-1.261.776-2.717 1.844-4.27 1.844-1.456 0-2.135-1.261-2.135-2.62a7.749 7.749 0 0 1 .485-2.523l9.217-35.225a12.807 12.807 0 0 0 .679-3.105.355.355 0 0 0-.388-.388 48.119 48.119 0 0 1-7.957 1.941l-6.7.97a9.854 9.854 0 0 0-.582 2.426c0 1.456 4.172.582 4.172 3.2a9 9 0 0 1-.388 2.329Zm23-51.719a5.011 5.011 0 0 0-5.046-5.046 5.011 5.011 0 0 0-5.046 5.046 5.011 5.011 0 0 0 5.046 5.046 5.011 5.011 0 0 0 5.043-5.049Zm36 53.078c-3.881 3.2-7.86 6.016-13.1 6.016-7.666 0-10.868-6.4-10.868-14.458 0-9.218 6.7-26.3 19.5-26.3.582 0 1.941.194 1.941 1.553 0 .776-.291 1.553-.291 2.329a4.694 4.694 0 0 0 4.949 4.462 4.93 4.93 0 0 0 5.046-4.949c0-5.628-6.21-6.986-10.674-6.986-15.331 0-30.372 14.652-30.372 30.081 0 11.159 7.375 18.631 18.631 18.631a25.255 25.255 0 0 0 17.66-7.666Z" fill="#fc00e3"/></g></svg>