<svg xmlns="http://www.w3.org/2000/svg" width="897" height="1010" viewBox="0 0 897 1010"><defs><clipPath id="a"><path data-name="Path 21281" d="M0 0h897v1010H0z" transform="translate(981 2324)" fill="#333"/></clipPath><clipPath id="b"><path data-name="Path 7" d="M188.714-215.4h-19.468c-.628 2.2-1.884 5.338-6.594 5.338-8.792 0-15.386-14.13-41.134-14.13C69.708-224.2 8.164-162.024 8.164-78.814c0 58.09 33.6 83.21 69.394 83.21 38.622 0 70.336-30.772 78.814-68.766l-14.758-13.188C130.624-40.192 108.33-25.12 93.258-25.12c-17.9 0-23.55-16.956-23.55-36.11 0-38.308 26.376-135.962 60.288-135.962 14.13 0 18.526 15.7 19.782 26.376 1.57 13.816.628 27.632 13.816 27.632h6.28zm94.2-4.4-74.414 1.256-1.884 7.536a24.885 24.885 0 0 0-1.256 5.338c0 7.85 12.246 5.338 12.246 17.27 0 4.082-.942 8.792-3.14 16.642L167.048 0h54.008l30.458-106.76c3.14-3.454 10.048-8.792 15.7-8.792 4.4 0 7.222 2.512 7.222 7.222 0 14.758-18.84 59.346-18.84 85.094C255.6-5.652 267.528 4.4 287 4.4c18.212 0 32.656-9.42 49.612-23.55l-6.594-15.072c-2.2 1.256-8.478 4.71-12.874 4.71-3.454 0-5.652-3.454-5.652-6.908 0-18.212 20.724-67.2 20.724-87.292 0-19.468-10.048-31.4-27-31.4-13.816 0-26.69 7.222-46.472 18.84zm186.83 176.154C456.556-33.6 447.136-25.12 429.866-25.12c-14.758 0-21.666-5.966-21.666-20.41 0-6.908 1.57-12.874 3.14-19.154h11.932c47.728 0 75.988-26.376 75.988-57.148 0-17.27-16.014-33.284-43.96-33.284-54.95 0-104.876 46.472-104.876 105.19 0 28.574 22.922 54.322 56.834 54.322C432.692 4.4 458.44-9.42 475.4-27.946zm-17.584-87.606c4.4 0 8.164 2.826 8.164 8.164 0 13.188-16.642 34.54-42.39 36.424 5.966-21.352 21.98-44.588 34.226-44.588zm86.978-87.292-1.884 7.536A24.883 24.883 0 0 0 536-205.67c0 7.85 12.246 5.338 12.246 17.27a53.29 53.29 0 0 1-1.884 13.188l-33.6 119.006c-3.768 13.5-5.024 22.294-5.024 27.946 0 19.468 12.246 32.656 32.656 32.656 21.98 0 36.11-10.048 50.554-24.492l-7.536-14.444c-3.14 1.884-7.536 4.71-12.56 4.71s-6.908-4.082-6.908-7.536c0-4.082 1.256-7.85 3.454-15.072L614.812-219.8zm180.55 13.188-39.564 5.966c-15.386 2.2-16.328 5.338-23.55 25.12-12.56 34.54-32.028 13.816-39.25 37.052l-3.768 11.618h26.69l-19.468 65.94c-2.826 9.42-5.024 22.608-5.024 30.458 0 19.154 11.618 33.6 34.854 33.6 25.748 0 47.728-16.014 61.23-33.912l-5.652-14.446c-7.536 6.908-15.7 12.56-22.922 12.56-6.594 0-9.734-3.768-9.734-9.734 0-4.4 1.57-11.618 4.4-21.352l18.208-63.114h34.54l7.536-25.12h-34.54zm133.764 161.71C840.264-33.6 830.844-25.12 813.574-25.12c-14.758 0-21.666-5.966-21.666-20.41 0-6.908 1.57-12.874 3.14-19.154h11.932c47.728 0 75.988-26.376 75.988-57.148 0-17.27-16.014-33.284-43.96-33.284-54.95 0-104.876 46.472-104.876 105.19 0 28.574 22.922 54.322 56.834 54.322C816.4 4.4 842.148-9.42 859.1-27.946zm-17.584-87.606c4.4 0 8.164 2.826 8.164 8.164 0 13.188-16.642 34.54-42.39 36.424 5.966-21.352 21.98-44.588 34.226-44.588z" transform="translate(1047 2853.391)" fill="#cc0813"/></clipPath></defs><path data-name="Path 77" d="M0 0h897v1010H0z" fill="#333"/><g data-name="Group 88" font-style="italic"><text data-name="Bold Condensed Italic" transform="translate(76.41 763.519)" fill="#94762a" font-size="53" font-family="CheltenhamStd-BoldCondIt, ITC Cheltenham Std" font-weight="700"><tspan x="0" y="0">Bold Condensed Italic</tspan></text><text data-name="Book Condensed Italic" transform="translate(75.221 849.462)" fill="#94762a" font-size="53" font-family="CheltenhamStd-BookCondIt, ITC Cheltenham Std"><tspan x="0" y="0">Book Condensed Italic</tspan></text><text data-name="Light Condensed Italic" transform="translate(75.112 930.801)" fill="#94762a" font-size="53" font-family="CheltenhamStd-LightCondIt, ITC Cheltenham Std" font-weight="300"><tspan x="0" y="0">Light Condensed Italic</tspan></text><text data-name="Cheltenham Std" transform="translate(76.459 155.199)" fill="#e5e5e5" font-size="34" font-family="CheltenhamStd-BoldCondIt, ITC Cheltenham Std" font-weight="700"><tspan x="0" y="0">Cheltenham Std</tspan></text></g><g data-name="Mask Group 22" clip-path="url(#a)" transform="translate(-981 -2324)"><g data-name="Mask Group 4" clip-path="url(#b)"><path data-name="Path 8" d="M981 2324h897v1010H981z" fill="#cc0813"/></g></g></svg>