<svg xmlns="http://www.w3.org/2000/svg" xmlns:xlink="http://www.w3.org/1999/xlink" width="2560" height="2880" viewBox="0 0 2560 2880">
  <defs>
    <clipPath id="clip-path">
      <rect id="Rectangle_150" data-name="Rectangle 150" width="2006.971" height="2006.971" fill="#d4551c"/>
    </clipPath>
  </defs>
  <g id="Group_156" data-name="Group 156" transform="translate(18765.359 21473.689)">
    <path id="Path_4308" data-name="Path 4308" d="M0,0H2560V2880H0Z" transform="translate(-18765.359 -21473.689)" fill="#212639"/>
    <g id="Group_147" data-name="Group 147" transform="translate(-18488.846 -21035.922)">
      <g id="Group_146" data-name="Group 146" clip-path="url(#clip-path)">
        <path id="Path_4309" data-name="Path 4309" d="M49.825,428.72l85.22,17.134a3.156,3.156,0,0,0,3.768-2.5l2.313-11.5a3.241,3.241,0,0,0-2.5-3.766l-39.866-8.017L147.7,394.411a2.9,2.9,0,0,0,1.388-2.168L151.956,378a2.926,2.926,0,0,0-4.1-3.274l-51.146,27.8L65.138,360.676a2.835,2.835,0,0,0-5.126,1.145l-2.627,13.071a3.179,3.179,0,0,0,.807,2.743l30.5,40.406-35.291-7.1a3.241,3.241,0,0,0-3.766,2.5l-2.313,11.5a3.158,3.158,0,0,0,2.5,3.768" transform="translate(56.028 426.226)" fill="#d4551c"/>
        <path id="Path_4310" data-name="Path 4310" d="M137.97,389.3a2.354,2.354,0,0,0,4.046-.887l4.124-10.843a4.017,4.017,0,0,0-1.119-4.562l-11.136-11.226,14.17-37.263,15.783-.988c2.076-.21,3.156-.8,3.867-2.667l4.122-10.843a2.353,2.353,0,0,0-2.433-3.351l-98.474,6.49a2.264,2.264,0,0,0-2.177,1.6l-.472,1.248a2.394,2.394,0,0,0,.564,2.638ZM99.741,327.4l32.157-2.035-9.525,25.049L99.6,327.775Z" transform="translate(80.737 363.625)" fill="#d4551c"/>
        <path id="Path_4311" data-name="Path 4311" d="M91.5,292.341l76.5,44.01a2.527,2.527,0,0,0,3.458-.931l6.118-10.631a2.621,2.621,0,0,0-.933-3.458l-29.466-16.953,7.379-12.828,39.466,2.251a2.288,2.288,0,0,0,2.1-1.252l6.981-12.131a2.524,2.524,0,0,0-2.221-3.9l-38.458-1.056c1.738-12.38-2.872-24.415-13.5-30.53a28.874,28.874,0,0,0-39.337,10.9L90.573,288.881a2.531,2.531,0,0,0,.931,3.46m31.217-27.258a13.265,13.265,0,0,1,17.792-4.992,13.582,13.582,0,0,1,5.2,18.223L134.88,297.147l-23-13.228Z" transform="translate(106.991 285.954)" fill="#d4551c"/>
        <path id="Path_4312" data-name="Path 4312" d="M195.844,271.666a2.536,2.536,0,0,0,3.558-.422L229.589,232.9a2.53,2.53,0,0,0-.422-3.556l-8.592-6.765a2.531,2.531,0,0,0-3.556.424l-21.033,26.716-58.775-46.272a2.622,2.622,0,0,0-3.558.422l-7.589,9.639a2.536,2.536,0,0,0,.424,3.558Z" transform="translate(148.834 240.627)" fill="#d4551c"/>
        <path id="Path_4313" data-name="Path 4313" d="M222.654,260.907a2.625,2.625,0,0,0,3.58.122l9.06-8.468a2.533,2.533,0,0,0,.122-3.58l-25.125-26.889,31.759-29.676L267.176,219.3a2.531,2.531,0,0,0,3.58.122l8.964-8.376a2.622,2.622,0,0,0,.122-3.58l-60.265-64.495a2.625,2.625,0,0,0-3.58-.12l-8.964,8.376a2.531,2.531,0,0,0-.12,3.58l24.122,25.816L199.276,210.3l-24.124-25.818a2.531,2.531,0,0,0-3.58-.12l-9.06,8.465a2.625,2.625,0,0,0-.122,3.582Z" transform="translate(191.784 168.622)" fill="#d4551c"/>
        <path id="Path_4314" data-name="Path 4314" d="M266.394,212.093a2.532,2.532,0,0,0,3.515.691l45.042-30.257a2.531,2.531,0,0,0,.691-3.515l-6.1-9.077a2.536,2.536,0,0,0-3.517-.689l-32.758,22-13.007-19.366L287.6,153.522a2.532,2.532,0,0,0,.693-3.515l-6.173-9.185a2.62,2.62,0,0,0-3.515-.691l-27.333,18.362-12.194-18.15,32.758-22.006a2.529,2.529,0,0,0,.691-3.513l-6.1-9.075a2.533,2.533,0,0,0-3.515-.693l-45.042,30.259a2.531,2.531,0,0,0-.691,3.515Z" transform="translate(257.01 124.059)" fill="#d4551c"/>
        <path id="Path_4315" data-name="Path 4315" d="M308.27,172.82a2.63,2.63,0,0,0,3.405,1.128l11.075-5.574a2.622,2.622,0,0,0,1.128-3.4L284.222,86.125a2.625,2.625,0,0,0-3.4-1.126L269.744,90.57a2.619,2.619,0,0,0-1.123,3.4Z" transform="translate(318.22 100.494)" fill="#d4551c"/>
        <path id="Path_4316" data-name="Path 4316" d="M336.717,168.981a2.626,2.626,0,0,0,3.213,1.589l11.49-3.895a2.532,2.532,0,0,0,1.587-3.213l-18.4-54.3.127-.044L407.166,149.2l3.029-1.027a2.506,2.506,0,0,0,1.628-3.086L383.029,60.089a2.62,2.62,0,0,0-3.211-1.585L368.2,62.441a2.527,2.527,0,0,0-1.585,3.211l17.67,52.158-.127.044L312.709,79.831,309.551,80.9a2.5,2.5,0,0,0-1.628,3.086Z" transform="translate(364.977 69.228)" fill="#d4551c"/>
        <path id="Path_4317" data-name="Path 4317" d="M379.849,70.962l32.845-5.674.09.525-26.935,77.445.409,2.365a2.621,2.621,0,0,0,2.927,2.066l56.1-9.7a2.528,2.528,0,0,0,2.063-2.927l-1.882-10.9a2.533,2.533,0,0,0-2.929-2.063l-33.5,5.788-.046-.262L435.24,49.347l-.3-1.7a2.621,2.621,0,0,0-2.929-2.066L377.1,55.065a2.622,2.622,0,0,0-2.063,2.929l1.884,10.9a2.621,2.621,0,0,0,2.927,2.063" transform="translate(444.658 54.003)" fill="#d4551c"/>
        <path id="Path_4318" data-name="Path 4318" d="M513.855,138.09a67.367,67.367,0,0,0,33.617-6.208,2.558,2.558,0,0,0,1.218-2.048l2.518-34.043A2.507,2.507,0,0,0,549,93.09L523.468,91.2a2.454,2.454,0,0,0-2.713,2.341l-.776,10.5a2.421,2.421,0,0,0,2.35,2.581l10.636.785-.833,11.3a41.681,41.681,0,0,1-16.069,2.157c-16.754-1.239-28.887-16.172-27.669-32.662,1.228-16.623,15.44-29.877,32.065-28.651a30.231,30.231,0,0,1,19.51,9.2,2.273,2.273,0,0,0,3.454.256l8.885-8.035a2.582,2.582,0,0,0,.144-3.733,50.4,50.4,0,0,0-31.536-14.762,47.935,47.935,0,0,0-7.06,95.609" transform="translate(556.705 50.214)" fill="#d4551c"/>
        <path id="Path_4319" data-name="Path 4319" d="M564.026,150.193c20.45,5.047,40.041-7.01,44.9-26.684l13.289-53.844a2.624,2.624,0,0,0-1.854-3.067l-12.3-3.034A2.532,2.532,0,0,0,605,65.417l-13.1,53.068c-2.682,10.874-12.459,17.661-23.72,14.883s-16.627-13.3-13.912-24.305l13.064-52.941a2.529,2.529,0,0,0-1.851-3.064l-12.3-3.036a2.621,2.621,0,0,0-3.064,1.854L536.829,105.72a36.562,36.562,0,0,0,27.2,44.473" transform="translate(635.244 59.234)" fill="#d4551c"/>
        <path id="Path_4320" data-name="Path 4320" d="M591.739,151.088l10.957,4.9a2.579,2.579,0,0,0,3.005-.848l27.676-42.98c.12.052.365.164.365.164l.171,57.467a2.4,2.4,0,0,0,1.471,2.264l2.192.979a2.266,2.266,0,0,0,2.667-.415l42.681-38.325s.243.109.363.166L669.858,183.8a2.889,2.889,0,0,0,1.5,2.861l11.077,4.949a2.316,2.316,0,0,0,3.443-1.823l22.188-88.221a2.252,2.252,0,0,0-1.375-2.807l-1.947-.87a2.3,2.3,0,0,0-2.616.291l-52.454,45.5c-.12-.057-.12-.057-.365-.166l-1.108-69.426a2.421,2.421,0,0,0-1.526-2.14l-1.948-.87a2.248,2.248,0,0,0-3.008.846l-51.037,75.332a2.441,2.441,0,0,0,1.062,3.834" transform="translate(699.767 83.975)" fill="#d4551c"/>
        <path id="Path_4321" data-name="Path 4321" d="M684.877,201.249c13.514,9.056,30.159,7.206,38.469-5.2,6.828-10.192,2.306-21.888-2.3-27.7,6.837,1.049,18.268-.922,23.982-9.449,7.792-11.633,3.539-27.32-9.641-36.152L710.02,105.756a2.533,2.533,0,0,0-3.517.7l-49.124,73.327a2.531,2.531,0,0,0,.693,3.515Zm28.5-74.149,11.851,7.941c5.65,3.784,6.929,10.258,3.218,15.8s-10.555,7.373-16.205,3.589l-11.851-7.943Zm-21.149,31.569,12.072,8.089c5.759,3.858,8.553,11.667,4.844,17.2a11.9,11.9,0,0,1-16.723,3.4l-13.4-8.977Z" transform="translate(778.972 124.887)" fill="#d4551c"/>
        <path id="Path_4322" data-name="Path 4322" d="M712.619,220.4a2.626,2.626,0,0,0,3.58-.146l23.044-25,10.883,10.03-10.909,38a2.291,2.291,0,0,0,.756,2.328l10.3,9.491a2.523,2.523,0,0,0,4.286-1.307l9.523-37.286c11.691,4.431,24.452,2.588,32.764-6.43a28.884,28.884,0,0,0-1.945-40.784l-28.041-25.846a2.535,2.535,0,0,0-3.58.146L703.452,208.5a2.53,2.53,0,0,0,.146,3.58Zm54.375-55.063,15.982,14.73a13.265,13.265,0,0,1,.942,18.459,13.584,13.584,0,0,1-18.926,1.056L749.01,184.85Z" transform="translate(833.316 169.297)" fill="#d4551c"/>
        <path id="Path_4323" data-name="Path 4323" d="M745.288,248.728l33.89,42.379a2.527,2.527,0,0,0,3.561.4l8.538-6.828a2.528,2.528,0,0,0,.4-3.558l-24.648-30.823,18.222-14.572,20.568,25.72a2.533,2.533,0,0,0,3.561.4l8.642-6.911a2.623,2.623,0,0,0,.4-3.561l-20.568-25.72,17.077-13.656,24.649,30.821a2.534,2.534,0,0,0,3.561.4l8.538-6.828a2.532,2.532,0,0,0,.4-3.561l-33.89-42.379a2.534,2.534,0,0,0-3.561-.4l-68.929,55.124a2.53,2.53,0,0,0-.4,3.561" transform="translate(883.058 224.686)" fill="#d4551c"/>
        <path id="Path_4324" data-name="Path 4324" d="M788.874,314.926a45.745,45.745,0,0,0,27.361,21.637,2.537,2.537,0,0,0,3.187-1.679l3.277-11.418a2.457,2.457,0,0,0-1.663-2.889,32.019,32.019,0,0,1-16.756-13.893c-8.507-14.8-2.636-32.935,11.81-41.243,14.561-8.374,33.243-4.507,41.75,10.286a31.555,31.555,0,0,1,3.416,21.72,2.135,2.135,0,0,0,1.661,2.889l11.335,2.863a2.478,2.478,0,0,0,3.169-1.978c2.529-11.912,1.377-22.476-5.335-34.15a48,48,0,1,0-83.211,47.855" transform="translate(927.682 288.011)" fill="#d4551c"/>
        <path id="Path_4325" data-name="Path 4325" d="M804.842,331.728l4.295,11.635a2.53,2.53,0,0,0,3.252,1.5l34.524-12.741,15.051,40.775L827.44,385.638a2.533,2.533,0,0,0-1.5,3.255L830.19,400.4a2.623,2.623,0,0,0,3.252,1.5l82.8-30.565a2.619,2.619,0,0,0,1.5-3.252L913.5,356.574a2.53,2.53,0,0,0-3.253-1.5L877.1,367.308l-15.051-40.775L895.192,314.3a2.531,2.531,0,0,0,1.5-3.252L892.4,299.41a2.625,2.625,0,0,0-3.254-1.5l-82.8,30.565a2.622,2.622,0,0,0-1.5,3.252" transform="translate(954.166 353.077)" fill="#d4551c"/>
        <path id="Path_4326" data-name="Path 4326" d="M827.628,401.588a2.621,2.621,0,0,0-1.976,2.988l2.472,12.148a2.622,2.622,0,0,0,2.986,1.978L904.4,403.791l4.066,19.989a2.533,2.533,0,0,0,2.988,1.978l10.712-2.181a2.529,2.529,0,0,0,1.978-2.988L912.531,363.5a2.533,2.533,0,0,0-2.988-1.978L898.83,363.7a2.534,2.534,0,0,0-1.978,2.988l4.068,19.988Z" transform="translate(978.954 428.611)" fill="#d4551c"/>
        <path id="Path_4327" data-name="Path 4327" d="M904.274,458.01c-15.729-.428-24.067,11.882-29.473,24.27-4.837,11.071-9.659,16.675-16.456,16.489-5.731-.155-10.12-5.477-9.93-12.406.236-8.664,8.393-19.245,8.813-19.9a3.092,3.092,0,0,0-.811-4.557l-8.131-5.023c-2.1-1.257-2.785-.61-4.017.557-2.605,2.6-10.737,12.245-11.2,29.035-.514,18.793,11.825,31,25.552,31.374,17.193.47,25.33-14.245,30.88-27.031,4.695-10.675,9.093-15.49,15.357-15.32,4.267.118,9.217,4.387,9.01,11.984-.2,7.329-7.141,17.276-7.836,18.325-1.11,1.569-.1,3.6,1.471,4.708l7.46,5.272a3.3,3.3,0,0,0,4.42-.68c2.072-2.61,9.285-12.817,9.659-26.41.577-21.193-12.909-30.364-24.771-30.688" transform="translate(987.791 540.932)" fill="#d4551c"/>
        <path id="Path_4328" data-name="Path 4328" d="M921.369,526.087l-86.984-15.051a2.526,2.526,0,0,0-2.927,2.063l-2.094,12.087a2.621,2.621,0,0,0,2.066,2.927l30.878,5.344-2.844,16.426A29.991,29.991,0,0,0,883.958,584.3c15.9,2.752,31.333-8.246,34.13-24.406l5.344-30.878a2.533,2.533,0,0,0-2.063-2.929m-19.261,29.958c-1.272,7.359-7.86,12.579-15.086,11.327a13.743,13.743,0,0,1-11.324-15.9l2.64-15.241,26.408,4.571Z" transform="translate(983.372 605.912)" fill="#d4551c"/>
        <path id="Path_4329" data-name="Path 4329" d="M915.031,592.065l-83.847-27.545a2.528,2.528,0,0,0-3.2,1.615l-16.936,51.551a2.528,2.528,0,0,0,1.615,3.2l10.385,3.412a2.53,2.53,0,0,0,3.2-1.615l12.319-37.492,22.163,7.283-10.277,31.284a2.533,2.533,0,0,0,1.615,3.2l10.513,3.453a2.622,2.622,0,0,0,3.2-1.615L876.057,597.5l20.771,6.824-12.317,37.492a2.533,2.533,0,0,0,1.615,3.2l10.387,3.412a2.534,2.534,0,0,0,3.2-1.615l16.935-51.551a2.532,2.532,0,0,0-1.615-3.2" transform="translate(961.541 669.225)" fill="#d4551c"/>
        <path id="Path_4330" data-name="Path 4330" d="M892.047,656.6,813.6,616.151a2.506,2.506,0,0,0-3.351.975l-14.48,28.085a46.664,46.664,0,1,0,82.953,42.764L893.2,659.89a2.5,2.5,0,0,0-1.152-3.294m-26.933,22.565c-7.941,15.405-25.359,20.675-40.762,12.734-15.525-8-21.335-25.25-13.394-40.655l6.964-13.51,54.158,27.921Z" transform="translate(937.418 730.26)" fill="#d4551c"/>
        <path id="Path_4331" data-name="Path 4331" d="M775.15,671.828a2.621,2.621,0,0,0-3.528.619L764.5,682.595a2.623,2.623,0,0,0,.619,3.53l72.247,50.7a2.626,2.626,0,0,0,3.53-.618l7.121-10.15a2.619,2.619,0,0,0-.619-3.528Z" transform="translate(905.988 796.104)" fill="#d4551c"/>
        <path id="Path_4332" data-name="Path 4332" d="M822.134,740.751a2.533,2.533,0,0,0-3.578.21L804.993,756.2l-55.87-49.73a2.624,2.624,0,0,0-3.575.21l-8.245,9.261a2.625,2.625,0,0,0,.21,3.578l55.87,49.728-13.562,15.237a2.533,2.533,0,0,0,.208,3.578l8.166,7.268a2.533,2.533,0,0,0,3.578-.208L830.51,751.6a2.537,2.537,0,0,0-.21-3.578Z" transform="translate(873.533 836.971)" fill="#d4551c"/>
        <path id="Path_4333" data-name="Path 4333" d="M719.181,737.847a2.623,2.623,0,0,0-3.576-.208l-9.261,8.247a2.622,2.622,0,0,0-.21,3.578l58.7,65.924a2.62,2.62,0,0,0,3.576.208l9.261-8.247a2.622,2.622,0,0,0,.208-3.578Z" transform="translate(836.573 873.929)" fill="#d4551c"/>
        <path id="Path_4334" data-name="Path 4334" d="M677.591,775.318A48,48,0,1,0,743.955,788.7a47.694,47.694,0,0,0-66.364-13.385m43.534,65.531a30.669,30.669,0,1,1-33.94-51.092,30.614,30.614,0,0,1,42.329,8.537c9.3,14,5.606,33.258-8.389,42.554" transform="translate(777.871 909.711)" fill="#d4551c"/>
        <path id="Path_4335" data-name="Path 4335" d="M664.416,797.884a2.62,2.62,0,0,0-3.329-1.32l-11.141,4.806a2.534,2.534,0,0,0-1.32,3.331l22.719,52.633-.123.055-75.417-34.1-2.937,1.268a2.506,2.506,0,0,0-1.373,3.207l35.557,82.378a2.62,2.62,0,0,0,3.329,1.322l11.261-4.861a2.531,2.531,0,0,0,1.322-3.329l-21.82-50.552.122-.054,74.271,32.124,3.062-1.322a2.5,2.5,0,0,0,1.373-3.207Z" transform="translate(701.145 944.293)" fill="#d4551c"/>
        <path id="Path_4336" data-name="Path 4336" d="M558.032,827.8l-31.91,4.8c-16.085,2.419-27.136,15-24.913,29.772,1.823,12.128,13.049,17.722,20.373,18.913-5.762,3.832-12.876,12.992-11.348,23.145,2.083,13.844,15.8,22.57,31.49,20.207l30.194-4.542a2.535,2.535,0,0,0,2.129-2.883l-13.132-87.285a2.534,2.534,0,0,0-2.883-2.129m-38.178,33.925a11.9,11.9,0,0,1,10.061-13.783l15.954-2.4,3.532,23.47-14.373,2.162c-6.854,1.031-14.181-2.855-15.173-9.449m21.092,46.987c-6.725,1.01-12.035-2.911-13.025-9.5s2.826-12.562,9.554-13.573l14.107-2.122,3.471,23.075Z" transform="translate(593.967 981.516)" fill="#d4551c"/>
        <path id="Path_4337" data-name="Path 4337" d="M507.344,834.012l-12.268-.051a2.623,2.623,0,0,0-2.542,2.525l-.14,34-14.8-.061L460,835.02a2.28,2.28,0,0,0-2.127-1.209l-14-.057a2.524,2.524,0,0,0-2.282,3.86l18.131,33.94c-11.619,4.621-19.794,14.59-19.844,26.856a28.88,28.88,0,0,0,28.95,28.786l38.139.157a2.535,2.535,0,0,0,2.544-2.525l.356-88.273a2.53,2.53,0,0,0-2.522-2.544M492.1,911.291l-21.735-.088a13.266,13.266,0,0,1-13.149-12.988,13.583,13.583,0,0,1,13.257-13.549l21.735.09Z" transform="translate(521.58 988.616)" fill="#d4551c"/>
        <path id="Path_4338" data-name="Path 4338" d="M449.605,835.617,396,827.143a2.532,2.532,0,0,0-2.9,2.1l-1.707,10.8a2.534,2.534,0,0,0,2.107,2.9l38.983,6.161-3.644,23.049-32.528-5.143a2.533,2.533,0,0,0-2.9,2.107l-1.729,10.931a2.621,2.621,0,0,0,2.109,2.9l32.53,5.143-3.416,21.6-38.983-6.164a2.532,2.532,0,0,0-2.9,2.107l-1.707,10.8a2.53,2.53,0,0,0,2.107,2.9l53.6,8.474a2.531,2.531,0,0,0,2.9-2.107l13.783-87.185a2.532,2.532,0,0,0-2.105-2.9" transform="translate(449.739 980.738)" fill="#d4551c"/>
        <path id="Path_4339" data-name="Path 4339" d="M421.073,838.825l-11.368-3.845a2.585,2.585,0,0,0-2.914,1.124l-23.519,45.387-.38-.131-5.558-57.192a2.4,2.4,0,0,0-1.676-2.115l-2.273-.77a2.267,2.267,0,0,0-2.616.663l-38.9,42.154s-.251-.087-.378-.126l8.743-50.386a2.9,2.9,0,0,0-1.757-2.708l-11.493-3.886a2.316,2.316,0,0,0-3.257,2.135L309.92,899.034a2.251,2.251,0,0,0,1.633,2.667l2.02.682a2.3,2.3,0,0,0,2.575-.536L364.1,851.638l.38.129,7.613,69.008a2.432,2.432,0,0,0,1.72,1.989l2.022.684a2.248,2.248,0,0,0,2.914-1.125l43.741-79.78a2.442,2.442,0,0,0-1.414-3.718" transform="translate(367.424 956.677)" fill="#d4551c"/>
        <path id="Path_4340" data-name="Path 4340" d="M342.024,808.51l-47.765-25.77a2.534,2.534,0,0,0-3.432,1.027l-5.193,9.624a2.535,2.535,0,0,0,1.027,3.434l34.738,18.74L310.32,836.1l-28.987-15.639a2.533,2.533,0,0,0-3.432,1.027l-5.257,9.742a2.621,2.621,0,0,0,1.029,3.432L302.659,850.3l-10.382,19.245-34.738-18.738a2.532,2.532,0,0,0-3.434,1.025l-5.191,9.624a2.534,2.534,0,0,0,1.027,3.434l47.765,25.765a2.528,2.528,0,0,0,3.432-1.025l41.914-77.692a2.529,2.529,0,0,0-1.027-3.432" transform="translate(294.789 927.764)" fill="#d4551c"/>
        <path id="Path_4341" data-name="Path 4341" d="M287.763,780.019a2.622,2.622,0,0,0-3.547.5l-20.487,27.132-11.81-8.918,7.141-38.88a2.3,2.3,0,0,0-.981-2.245l-11.169-8.435a2.524,2.524,0,0,0-4.14,1.72l-5.829,38.032c-12.07-3.268-24.585-.19-31.975,9.6a28.875,28.875,0,0,0,5.921,40.388l30.428,22.977a2.528,2.528,0,0,0,3.547-.5l53.186-70.431a2.531,2.531,0,0,0-.5-3.547Zm-48.724,60.1L221.7,827.028a13.265,13.265,0,0,1-2.741-18.275c4.5-5.958,13.088-7.158,18.727-2.9l17.342,13.095Z" transform="translate(236.248 887.611)" fill="#d4551c"/>
        <path id="Path_4342" data-name="Path 4342" d="M254.3,748.988a2.529,2.529,0,0,0-3.58-.1L224.012,774.2,194.12,742.652l26.71-25.309a2.533,2.533,0,0,0,.1-3.58l-8.437-8.9a2.62,2.62,0,0,0-3.58-.1l-64.064,60.7a2.619,2.619,0,0,0-.1,3.58l8.437,8.9a2.534,2.534,0,0,0,3.58.1l25.643-24.3L212.3,785.294l-25.645,24.3a2.531,2.531,0,0,0-.1,3.582l8.527,9a2.62,2.62,0,0,0,3.58.1l64.064-60.7a2.623,2.623,0,0,0,.1-3.583Z" transform="translate(170.851 834.884)" fill="#d4551c"/>
        <path id="Path_4343" data-name="Path 4343" d="M214.4,722.194l-6.468-9.628a4.018,4.018,0,0,0-4.369-1.722l-15.6,2.605-22.229-33.088,8.31-13.451c1.027-1.816,1.172-3.038.057-4.7l-6.468-9.628a2.354,2.354,0,0,0-4.142.05L111.91,736.753a2.27,2.27,0,0,0,.046,2.7l.743,1.106a2.4,2.4,0,0,0,2.483,1.064l97.6-15.615a2.354,2.354,0,0,0,1.615-3.814m-73.992-.4-.223-.332,16.911-27.422,14.944,22.244Z" transform="translate(132.193 772.361)" fill="#d4551c"/>
        <path id="Path_4344" data-name="Path 4344" d="M183.028,644.162l-5.226-11.1a2.625,2.625,0,0,0-3.373-1.213l-30.517,14.376-14.035-29.792a2.621,2.621,0,0,0-3.37-1.213l-9.89,4.66a2.621,2.621,0,0,0-1.211,3.373l14.032,29.792-22.675,10.682-16.819-35.7a2.531,2.531,0,0,0-3.37-1.213l-9.893,4.66a2.53,2.53,0,0,0-1.211,3.37L98.6,683.936a2.531,2.531,0,0,0,3.373,1.213l79.849-37.617a2.529,2.529,0,0,0,1.211-3.37" transform="translate(89.197 729.233)" fill="#d4551c"/>
        <path id="Path_4345" data-name="Path 4345" d="M161.259,608.993l-15.875-51.9a2.532,2.532,0,0,0-3.163-1.683l-10.457,3.2a2.53,2.53,0,0,0-1.683,3.163l11.547,37.746-22.316,6.826-9.635-31.5a2.531,2.531,0,0,0-3.163-1.681L95.931,576.4a2.625,2.625,0,0,0-1.683,3.165l9.635,31.494-20.913,6.4L71.425,579.716a2.531,2.531,0,0,0-3.163-1.681l-10.457,3.2a2.532,2.532,0,0,0-1.681,3.165L72,636.3a2.53,2.53,0,0,0,3.165,1.681l84.413-25.818a2.533,2.533,0,0,0,1.683-3.165" transform="translate(66.415 658.445)" fill="#d4551c"/>
        <path id="Path_4346" data-name="Path 4346" d="M145.827,567.822,144.179,555.8a2.534,2.534,0,0,0-2.857-2.166l-56.8,7.792-.02-.131,53.057-63.531-.435-3.172a2.509,2.509,0,0,0-2.723-2.184L45.51,504.606a2.62,2.62,0,0,0-2.166,2.852l1.666,12.155a2.531,2.531,0,0,0,2.855,2.164l54.554-7.482.017.131L51.589,577.385l.455,3.3a2.5,2.5,0,0,0,2.721,2.183l88.9-12.194a2.623,2.623,0,0,0,2.166-2.855" transform="translate(51.37 583.849)" fill="#d4551c"/>
        <path id="Path_4347" data-name="Path 4347" d="M332.958,332.957A763.915,763.915,0,1,0,576.535,168.734,763.736,763.736,0,0,0,332.958,332.957m1074.96,8.763c142.4,142.4,220.817,331.721,220.817,533.1s-78.42,390.7-220.817,533.1-331.721,220.817-533.1,220.817-390.7-78.42-533.1-220.817S120.9,1076.2,120.9,874.819s78.422-390.7,220.819-533.1S673.442,120.9,874.821,120.9s390.7,78.42,533.1,220.817" transform="translate(128.666 128.667)" fill="#d4551c"/>
        <path id="Path_4348" data-name="Path 4348" d="M204.379,761.146c0,148.718,57.913,288.533,163.074,393.691s244.976,163.074,393.693,163.074,288.533-57.913,393.691-163.074,163.074-244.974,163.074-393.691S1260,472.611,1154.837,367.453,909.862,204.379,761.146,204.379,472.611,262.292,367.453,367.453,204.379,612.428,204.379,761.146m224.782-344.14-46.795-46.794c102.092-99,236.241-153.441,378.78-153.441s276.688,54.445,378.778,153.441l-46.794,46.794a6.2,6.2,0,0,0,8.762,8.763l46.836-46.836c101.121,102.507,156.792,238.073,156.792,382.214,0,142.613-54.5,276.831-153.6,378.942a6.074,6.074,0,0,0-.955-1.281l-49.072-49.072a6.2,6.2,0,0,0-8.762,8.763l49.072,49.072a6.126,6.126,0,0,0,1.336.986C1041.01,1249.788,905.368,1305.52,761.146,1305.52s-279.864-55.732-382.393-156.965a6.127,6.127,0,0,0,1.336-.986l49.072-49.072a6.2,6.2,0,0,0-8.763-8.763l-49.072,49.072a6.071,6.071,0,0,0-.955,1.281c-99.1-102.111-153.6-236.329-153.6-378.942,0-144.141,55.671-279.707,156.792-382.214L420.4,425.768a6.2,6.2,0,0,0,8.763-8.763" transform="translate(242.34 242.34)" fill="#d4551c"/>
        <path id="Path_4349" data-name="Path 4349" d="M1928.112,612.882a1007.007,1007.007,0,0,0-534.022-534.02C1270.372,26.533,1138.952,0,1003.487,0S736.6,26.533,612.882,78.862A1007.026,1007.026,0,0,0,78.859,612.882C26.533,736.6,0,868.019,0,1003.487s26.533,266.885,78.859,390.6a1007.021,1007.021,0,0,0,534.022,534.022c123.719,52.329,255.137,78.859,390.6,78.859s266.885-26.531,390.6-78.859a1007,1007,0,0,0,534.022-534.022c52.329-123.717,78.859-255.137,78.859-390.6s-26.531-266.885-78.859-390.6M1916.7,1389.263A994.61,994.61,0,0,1,1389.263,1916.7c-122.183,51.68-251.977,77.882-385.777,77.882s-263.594-26.2-385.779-77.882A994.609,994.609,0,0,1,90.273,1389.263C38.6,1267.08,12.391,1137.287,12.391,1003.487S38.6,739.893,90.273,617.71A994.622,994.622,0,0,1,617.708,90.273c122.185-51.68,251.979-77.882,385.779-77.882s263.594,26.2,385.777,77.882A994.623,994.623,0,0,1,1916.7,617.71c51.68,122.183,77.882,251.977,77.882,385.777s-26.2,263.594-77.882,385.777" fill="#d4551c"/>
        <path id="Path_4350" data-name="Path 4350" d="M697.8,340.112l6.61,11.023a2.72,2.72,0,0,0,3.6.9l78.466-47.052a2.719,2.719,0,0,0,.9-3.6l-6.612-11.023a2.714,2.714,0,0,0-3.6-.9L698.705,336.51a2.719,2.719,0,0,0-.9,3.6" transform="translate(827.003 342.812)" fill="#d4551c"/>
        <path id="Path_4351" data-name="Path 4351" d="M713.894,361.474l4.64,11.987a2.621,2.621,0,0,0,3.4,1.5l35.575-13.768,16.262,42.019L738.2,416.981a2.623,2.623,0,0,0-1.5,3.4l4.59,11.86a2.719,2.719,0,0,0,3.4,1.5l85.327-33.029a2.719,2.719,0,0,0,1.5-3.4l-4.592-11.858a2.625,2.625,0,0,0-3.4-1.5l-34.154,13.219L773.1,355.156l34.155-13.219a2.626,2.626,0,0,0,1.5-3.4l-4.64-11.987a2.717,2.717,0,0,0-3.4-1.5L715.4,358.078a2.716,2.716,0,0,0-1.5,3.4" transform="translate(846.302 385.236)" fill="#d4551c"/>
        <path id="Path_4352" data-name="Path 4352" d="M733.166,409.989l2.037,12.553a2.717,2.717,0,0,0,3.014,2.171l34.788-5.648,2.459,15.143-33.208,24.017a2.363,2.363,0,0,0-.875,2.38l2.326,14.325a2.616,2.616,0,0,0,4.334,1.678l31.619-24.318c6.7,11.095,18.284,17.755,30.836,15.718A29.936,29.936,0,0,0,835,433.5l-6.334-39.02a2.622,2.622,0,0,0-3.012-2.17l-90.317,14.664a2.622,2.622,0,0,0-2.17,3.012m81.609,2.433,3.611,22.24a13.751,13.751,0,0,1-11.04,15.654c-7.642,1.239-14.935-4.015-16.111-11.248l-3.609-22.238Z" transform="translate(869.303 465.14)" fill="#d4551c"/>
        <path id="Path_4353" data-name="Path 4353" d="M740.122,457.039l-1.594,56.233a2.624,2.624,0,0,0,2.549,2.7l11.331.319a2.623,2.623,0,0,0,2.7-2.549l1.158-40.9,24.179.686-.968,34.126a2.624,2.624,0,0,0,2.551,2.7l11.466.326a2.719,2.719,0,0,0,2.7-2.551l.968-34.126,22.657.645-1.161,40.9a2.623,2.623,0,0,0,2.551,2.7l11.329.321a2.62,2.62,0,0,0,2.7-2.551l1.6-56.23a2.626,2.626,0,0,0-2.549-2.7l-91.465-2.594a2.626,2.626,0,0,0-2.7,2.551" transform="translate(875.702 538.904)" fill="#d4551c"/>
        <path id="Path_4354" data-name="Path 4354" d="M835.728,551.165l-96.155-8.006a2.658,2.658,0,0,0-2.682,1.655l-.774,2.072a2.353,2.353,0,0,0,.6,2.732l50.106,44.814-.243.649-67.31,1.283a2.357,2.357,0,0,0-2.247,1.67l-.774,2.072a2.658,2.658,0,0,0,.944,3.008l77.883,56.954a2.41,2.41,0,0,0,3.978-1.172l4.446-11.912a2.837,2.837,0,0,0-.942-3.008l-46.738-32.493.195-.518,61.083-.806a2.23,2.23,0,0,0,2.245-1.668l.872-2.332a2.228,2.228,0,0,0-.606-2.732l-45.664-40.5.195-.518,56.694,5.816a2.836,2.836,0,0,0,2.682-1.655l4.448-11.912a2.411,2.411,0,0,0-2.238-3.491" transform="translate(849.115 644.029)" fill="#d4551c"/>
        <path id="Path_4355" data-name="Path 4355" d="M735.451,594.277a2.44,2.44,0,0,0-4.293.035l-6.5,10.113a4.168,4.168,0,0,0,.157,4.866l8.9,13.768-22.341,34.76-16.218-2.372c-2.151-.234-3.371.133-4.492,1.875l-6.5,10.116a2.44,2.44,0,0,0,1.753,3.919l101.254,14.478a2.354,2.354,0,0,0,2.551-1.156l.745-1.161a2.486,2.486,0,0,0-.006-2.8Zm25.534,70.951-33.048-4.811,15.018-23.37,18.255,27.831Z" transform="translate(810.66 703.161)" fill="#d4551c"/>
        <path id="Path_4356" data-name="Path 4356" d="M698.909,644.187a2.623,2.623,0,0,0-3.711.063l-8.841,9.141a2.716,2.716,0,0,0,.061,3.711l25.335,24.5-10.666,11.027-39.105-12.249a2.373,2.373,0,0,0-2.433.726l-10.087,10.43a2.615,2.615,0,0,0,1.246,4.477l38.4,10.793c-4.881,12.008-3.292,25.274,5.849,34.113a29.936,29.936,0,0,0,42.3-1l27.479-28.415a2.622,2.622,0,0,0-.061-3.711ZM726.394,727.3a13.752,13.752,0,0,1-19.149.516c-5.562-5.381-5.713-14.371-.62-19.639l15.663-16.192,19.77,19.121Z" transform="translate(769.091 762.964)" fill="#d4551c"/>
        <path id="Path_4357" data-name="Path 4357" d="M658.545,682.644a2.624,2.624,0,0,0-3.657-.645l-46.071,32.27a2.624,2.624,0,0,0-.643,3.657l6.5,9.283a2.625,2.625,0,0,0,3.657.643l33.505-23.468,13.877,19.809-27.96,19.584a2.623,2.623,0,0,0-.645,3.657l6.581,9.394a2.717,2.717,0,0,0,3.656.645l27.96-19.584,13,18.563-33.505,23.471a2.622,2.622,0,0,0-.645,3.656l6.5,9.281a2.623,2.623,0,0,0,3.657.645l46.069-32.27a2.623,2.623,0,0,0,.645-3.657Z" transform="translate(720.574 808.107)" fill="#d4551c"/>
        <path id="Path_4358" data-name="Path 4358" d="M568.1,722.939a2.718,2.718,0,0,0-3.364-1.576L552.65,725.73a2.719,2.719,0,0,0-1.576,3.362l31.1,86.039a2.718,2.718,0,0,0,3.362,1.576l12.085-4.369a2.715,2.715,0,0,0,1.578-3.36Z" transform="translate(653.263 855.181)" fill="#d4551c"/>
        <path id="Path_4359" data-name="Path 4359" d="M567.6,731.614l-12.382,2.208a2.624,2.624,0,0,0-2.122,3.047l10.433,58.5-.136.026-68.009-52.309-3.265.583a2.6,2.6,0,0,0-2.146,2.909L506.3,838.149a2.719,2.719,0,0,0,3.047,2.122l12.518-2.232a2.621,2.621,0,0,0,2.122-3.047L513.967,778.8l.135-.022,67.325,50.042,3.4-.608a2.6,2.6,0,0,0,2.149-2.909l-16.33-91.567a2.719,2.719,0,0,0-3.047-2.125" transform="translate(580.938 867.461)" fill="#d4551c"/>
        <path id="Path_4360" data-name="Path 4360" d="M439.9,735.353a69.823,69.823,0,0,0-35.228,3.768,2.659,2.659,0,0,0-1.423,2.022l-5.279,34.98a2.6,2.6,0,0,0,2.068,2.968l26.238,3.958a2.543,2.543,0,0,0,2.986-2.206l1.63-10.8a2.515,2.515,0,0,0-2.227-2.852l-10.931-1.648,1.753-11.615a43.265,43.265,0,0,1,16.776-.962c17.217,2.6,28.581,18.988,26.023,35.929-2.577,17.08-18.31,29.661-35.391,27.083a31.336,31.336,0,0,1-19.438-11.038,2.356,2.356,0,0,0-3.552-.536l-9.812,7.6a2.676,2.676,0,0,0-.439,3.847A52.226,52.226,0,0,0,425.078,833.6,49.678,49.678,0,0,0,439.9,735.353" transform="translate(466.046 871.033)" fill="#d4551c"/>
        <path id="Path_4361" data-name="Path 4361" d="M398.5,721.893c-20.424-7.729-42.08,2.256-49.514,21.9l-20.343,53.771a2.715,2.715,0,0,0,1.528,3.386l12.279,4.647a2.624,2.624,0,0,0,3.384-1.528l20.052-53c4.107-10.859,15.009-16.634,26.255-12.378s15.466,15.753,11.311,26.738l-20,52.869a2.625,2.625,0,0,0,1.526,3.385l12.279,4.645a2.717,2.717,0,0,0,3.386-1.528l20.345-53.771c7.432-19.647-2.192-41.463-22.487-49.142" transform="translate(389.504 852.872)" fill="#d4551c"/>
        <path id="Path_4362" data-name="Path 4362" d="M360.953,703.507l-10.97-6.7a2.715,2.715,0,0,0-3.609.872l-40.393,66.173-18.048-11.016a2.624,2.624,0,0,0-3.609.874l-5.9,9.672a2.623,2.623,0,0,0,.872,3.609l51.549,31.463a2.62,2.62,0,0,0,3.609-.874l5.9-9.672a2.624,2.624,0,0,0-.872-3.609l-18.05-11.016,40.393-66.173a2.718,2.718,0,0,0-.872-3.608" transform="translate(329.68 825.815)" fill="#d4551c"/>
        <path id="Path_4363" data-name="Path 4363" d="M341.638,697.94l-42.395-36.961a2.621,2.621,0,0,0-3.7.256l-7.449,8.54a2.626,2.626,0,0,0,.256,3.7l30.832,26.88-15.89,18.229-25.73-22.43a2.624,2.624,0,0,0-3.7.254l-7.536,8.645a2.72,2.72,0,0,0,.254,3.7l25.728,22.43L277.4,748.275l-30.834-26.88a2.623,2.623,0,0,0-3.7.254l-7.447,8.542a2.624,2.624,0,0,0,.256,3.7l42.392,36.959a2.626,2.626,0,0,0,3.707-.251l60.117-68.958a2.625,2.625,0,0,0-.254-3.7" transform="translate(278.38 782.98)" fill="#d4551c"/>
        <path id="Path_4364" data-name="Path 4364" d="M313.991,676.542l-7.617-10.008a2.625,2.625,0,0,0-3.679-.5l-47.3,35.993-.083-.109,15.5-84.394-2.009-2.64a2.6,2.6,0,0,0-3.572-.586l-74.02,56.333a2.718,2.718,0,0,0-.5,3.681l7.7,10.118a2.621,2.621,0,0,0,3.679.5l45.426-34.568.083.109L233.8,733.22l2.092,2.75a2.6,2.6,0,0,0,3.572.584l74.024-56.331a2.722,2.722,0,0,0,.5-3.681" transform="translate(225.54 727.836)" fill="#d4551c"/>
        <path id="Path_4365" data-name="Path 4365" d="M261.286,602.974l-4-12.214a2.622,2.622,0,0,0-3.314-1.679L217.72,600.945l-14.015-42.827,36.257-11.864a2.623,2.623,0,0,0,1.679-3.314l-3.954-12.083a2.719,2.719,0,0,0-3.314-1.681l-86.962,28.458a2.716,2.716,0,0,0-1.679,3.312l3.954,12.085A2.627,2.627,0,0,0,153,574.714l34.81-11.394,14.013,42.825-34.81,11.392a2.625,2.625,0,0,0-1.679,3.314l4,12.214a2.723,2.723,0,0,0,3.314,1.683l86.962-28.461a2.718,2.718,0,0,0,1.679-3.314" transform="translate(172.662 627.327)" fill="#d4551c"/>
        <path id="Path_4366" data-name="Path 4366" d="M132.653,498.448a8.79,8.79,0,0,0-7.711,9.727,8.67,8.67,0,0,0,9.591,7.724,8.791,8.791,0,0,0,7.864-9.6,8.912,8.912,0,0,0-9.744-7.849" transform="translate(148.087 590.971)" fill="#d4551c"/>
        <path id="Path_4367" data-name="Path 4367" d="M238.435,556.888l-1.287-11.956a4.171,4.171,0,0,0-3.178-3.69L218.4,536.108l-4.426-41.092,14.116-8.332c1.821-1.169,2.542-2.219,2.319-4.282l-1.287-11.956a2.441,2.441,0,0,0-3.825-1.952l-87.928,52.292a2.343,2.343,0,0,0-1.259,2.5l.146,1.375a2.483,2.483,0,0,0,1.762,2.173l97.093,32.777a2.441,2.441,0,0,0,3.322-2.721m-67.7-36.082-.046-.411,28.756-17,2.975,27.621Z" transform="translate(161.367 555.016)" fill="#d4551c"/>
        <path id="Path_4368" data-name="Path 4368" d="M132.86,500.371a8.79,8.79,0,0,0,7.862-9.606,8.908,8.908,0,0,0-9.742-7.847,8.792,8.792,0,0,0-7.711,9.729,8.673,8.673,0,0,0,9.591,7.724" transform="translate(146.104 572.556)" fill="#d4551c"/>
        <path id="Path_4369" data-name="Path 4369" d="M231.813,495.426l1.292-12.509a2.628,2.628,0,0,0-2.341-2.883l-59.118-6.1.013-.138L240.7,422.844l.339-3.3a2.6,2.6,0,0,0-2.2-2.868l-92.522-9.554a2.718,2.718,0,0,0-2.883,2.341l-1.3,12.649a2.624,2.624,0,0,0,2.345,2.881l56.775,5.865-.015.138-66.669,50.915-.354,3.436a2.6,2.6,0,0,0,2.205,2.868l92.52,9.556a2.723,2.723,0,0,0,2.883-2.343" transform="translate(159.115 482.726)" fill="#d4551c"/>
        <path id="Path_4370" data-name="Path 4370" d="M148.023,410.382l86.8,28.933a2.6,2.6,0,0,0,3.279-1.53l10.358-31.077a48.57,48.57,0,0,0-30.681-61.36c-25.175-8.4-52.665,5.462-61.1,30.764L146.32,407.19a2.6,2.6,0,0,0,1.7,3.191m24-27.4c5.683-17.044,22.686-25.221,39.73-19.536,17.176,5.727,25.875,22.465,20.192,39.51L226.957,417.9l-59.92-19.973Z" transform="translate(173.357 406.583)" fill="#d4551c"/>
        <path id="Path_4371" data-name="Path 4371" d="M173.074,339.02l79.38,45.5a2.629,2.629,0,0,0,3.587-.97l27.971-48.805a2.624,2.624,0,0,0-.973-3.585l-9.831-5.635a2.627,2.627,0,0,0-3.585.973l-20.345,35.492-20.983-12.026,16.974-29.617a2.623,2.623,0,0,0-.973-3.585l-9.952-5.7a2.714,2.714,0,0,0-3.582.973l-16.977,29.617-19.665-11.272,20.343-35.492a2.623,2.623,0,0,0-.97-3.585l-9.834-5.637a2.626,2.626,0,0,0-3.585.973l-27.973,48.8a2.623,2.623,0,0,0,.973,3.585" transform="translate(203.651 338.308)" fill="#d4551c"/>
        <path id="Path_4372" data-name="Path 4372" d="M290.316,283.15l-.092.1-83.845,2.892-2.28,2.6a2.6,2.6,0,0,0,.138,3.615l69.893,61.38a2.718,2.718,0,0,0,3.707-.238l8.3-9.451a2.625,2.625,0,0,0-.24-3.7l-44.659-39.221.092-.1,85.795-1.55,2.188-2.492a2.6,2.6,0,0,0-.135-3.615l-69.9-61.382a2.718,2.718,0,0,0-3.7.243l-8.391,9.554a2.626,2.626,0,0,0,.238,3.707Z" transform="translate(241.221 274.337)" fill="#d4551c"/>
        <path id="Path_4373" data-name="Path 4373" d="M334.254,282.474a3.275,3.275,0,0,0,4.5,1.316l10.666-5.845a3.363,3.363,0,0,0,1.316-4.5l-20.26-36.967L383.5,258.167a3,3,0,0,0,2.645-.347l13.213-7.239a3.031,3.031,0,0,0-.144-5.438l-56.187-22,12.107-52.969a2.938,2.938,0,0,0-4.33-3.3l-12.12,6.64a3.308,3.308,0,0,0-1.639,2.474l-11.678,51.159-17.934-32.725a3.364,3.364,0,0,0-4.5-1.316l-10.666,5.847a3.272,3.272,0,0,0-1.314,4.5Z" transform="translate(344.492 197.385)" fill="#d4551c"/>
        <path id="Path_4374" data-name="Path 4374" d="M374.024,256.807a2.722,2.722,0,0,0,3.276,1.751l12.3-3.731a2.623,2.623,0,0,0,1.748-3.276l-11.073-36.5,43.109-13.082,11.075,36.5a2.623,2.623,0,0,0,3.274,1.751l12.166-3.692a2.719,2.719,0,0,0,1.751-3.274l-26.566-87.541a2.716,2.716,0,0,0-3.274-1.751l-12.168,3.692a2.626,2.626,0,0,0-1.749,3.276l10.634,35.042-43.107,13.082-10.636-35.044a2.623,2.623,0,0,0-3.274-1.749l-12.3,3.731a2.718,2.718,0,0,0-1.749,3.276Z" transform="translate(411.877 170.58)" fill="#d4551c"/>
        <path id="Path_4375" data-name="Path 4375" d="M468.6,234.245a69.849,69.849,0,0,0,33.438-11.718,2.659,2.659,0,0,0,.924-2.295l-2.852-35.263a2.6,2.6,0,0,0-2.693-2.417l-26.45,2.14a2.545,2.545,0,0,0-2.407,2.828l.883,10.883a2.511,2.511,0,0,0,2.817,2.267l11.021-.892.946,11.709a43.243,43.243,0,0,1-16.113,4.771c-17.357,1.405-32.165-11.956-33.547-29.038-1.394-17.219,11.051-33.064,28.27-34.456a31.345,31.345,0,0,1,21.449,6.306,2.357,2.357,0,0,0,3.58-.288l7.816-9.646a2.673,2.673,0,0,0-.45-3.845A52.238,52.238,0,0,0,460.586,135.2a49.684,49.684,0,0,0,8.015,99.045" transform="translate(492.07 160.126)" fill="#d4551c"/>
        <path id="Path_4376" data-name="Path 4376" d="M514.754,166.461l12.441-.142-13.228,64.862a2.624,2.624,0,0,0,2.048,3.1l11.646,2.376a2.6,2.6,0,0,0,2.962-2.074l17.729-86.938a2.6,2.6,0,0,0-1.91-3.069l-9.48-1.932-22.843,12.406a2.856,2.856,0,0,0-1.172,2.3l-.542,6.8a2.283,2.283,0,0,0,2.35,2.313" transform="translate(607.569 169.135)" fill="#d4551c"/>
        <path id="Path_4377" data-name="Path 4377" d="M550.789,243.605c12.494.481,50.071-2.752,64.033-40.618,7.169-19.453,2.693-39.667-17.667-47.173-15.949-5.882-34.235,2.551-40.259,18.891-6.837,18.544,3.112,33.112,16.08,37.894a37.03,37.03,0,0,0,16.124,1.821C579.818,227.2,558.2,229.1,551.386,228.8c-2.75-.129-3.794,1.106-3.718,2.9l.159,8.752c-.1,1.878.953,3,2.962,3.154m29.986-42.565a16.046,16.046,0,0,1-9.32-20.673c3.012-8.17,12.21-12.734,20.378-9.722,10.5,3.873,11.4,15.84,8.146,24.657-3.152,4.144-10.645,8.892-19.2,5.738" transform="translate(649.388 182.536)" fill="#d4551c"/>
        <path id="Path_4378" data-name="Path 4378" d="M589.378,256.079l8.889,5.058c2.042,1.163,4,.525,5.93-.918l78.656-54.952.476-.841a2.718,2.718,0,0,0-.984-3.58l-49.973-28.434a2.719,2.719,0,0,0-3.58.984l-4.785,8.409a2.721,2.721,0,0,0,.983,3.582l31.713,18.043-68.28,47.337-.75,1.322c-1.1,1.921.262,3.171,1.7,3.991" transform="translate(696.358 204.059)" fill="#d4551c"/>
        <path id="Path_4379" data-name="Path 4379" d="M636.132,265.206c-2.562-1.01-3.95-.175-4.457,1.547l-2.662,8.336c-.7,1.744-.063,3.152,1.79,3.939,11.67,4.476,48.285,13.506,73.686-17.851,13.049-16.107,15.311-36.683-1.547-50.34-13.208-10.7-33.228-8.6-44.189,4.931-12.441,15.355-7.709,32.349,3.029,41.048a36.989,36.989,0,0,0,14.677,6.909c-12.9,9.115-33.975,3.958-40.327,1.48m36.751-16.826a16.044,16.044,0,0,1-2.171-22.568c5.482-6.765,15.654-8.127,22.419-2.647,8.7,7.047,5.692,18.662-.223,25.964-4.315,2.907-12.939,4.992-20.026-.75" transform="translate(745.516 241.921)" fill="#d4551c"/>
        <path id="Path_4380" data-name="Path 4380" d="M49.107,456.364A24.783,24.783,0,1,0,73.891,431.58a24.782,24.782,0,0,0-24.784,24.784" transform="translate(58.228 511.742)" fill="#d4551c"/>
        <path id="Path_4381" data-name="Path 4381" d="M288.8,260.046a24.783,24.783,0,1,0-24.784-24.784A24.784,24.784,0,0,0,288.8,260.046" transform="translate(313.054 249.575)" fill="#d4551c"/>
        <path id="Path_4382" data-name="Path 4382" d="M701.866,299.189a24.783,24.783,0,1,0-24.784-24.782,24.783,24.783,0,0,0,24.784,24.782" transform="translate(802.843 295.988)" fill="#d4551c"/>
        <path id="Path_4383" data-name="Path 4383" d="M389.971,256.341c.555.608,1.193,1.139,1.775,1.722a7.078,7.078,0,0,1,1.9,3.939,15.758,15.758,0,0,1,.173,2.463c.028,5.276.317,10.553-.052,15.829-.092,1.314-.033,2.625-.033,3.939q.072,10.387.14,20.78c0,.5-.022.988-.044,1.484a5.433,5.433,0,0,1-2.166,4.264c-.911.7-1.838,1.394-2.677,2.173a3.041,3.041,0,0,0-1.049,2.179c-.006,1.969.05,3.939.153,5.906a4.383,4.383,0,0,0,.487,1.392,3.392,3.392,0,0,0,2.992,2.247c.984.057,1.969.057,2.953.057,2.8-.018,5.6-.09,8.411-.063,3.956.037,7.91.144,11.866.221l0-.135,22.26-.039c.328,0,.656-.035.986-.059a3.013,3.013,0,0,0,2.894-2.835c.033-.5.059-.988.059-1.484q-.036-4.947-.087-9.893a13.325,13.325,0,0,0-.118-1.476,3.573,3.573,0,0,0-3-2.878c-2.151-.035-4.282.011-6.415.142a4.34,4.34,0,0,0-2.977,1.611c-.649.748-1.22,1.558-1.877,2.3a5.32,5.32,0,0,1-3.44,1.764,8.71,8.71,0,0,1-.986.094c-3.3.015-6.612.015-9.893.015a7.507,7.507,0,0,1-1.969-.269,4.455,4.455,0,0,1-3.386-3.259,10.215,10.215,0,0,1-.328-1.937,6.473,6.473,0,0,1,.1-1.969,25.663,25.663,0,0,0,.518-6.889,17.6,17.6,0,0,1,.256-2.953,3.71,3.71,0,0,1,3.058-2.848,4.821,4.821,0,0,1,4.922,1.617,7.817,7.817,0,0,0,7.34,3.22c.833-.057,1.648,0,2.472,0,.328-.009.656-.042.984-.076a3.589,3.589,0,0,0,2.992-2.879,10.737,10.737,0,0,0,.153-1.473q-.039-7.911-.09-15.834c0-.162-.037-.326-.037-.49a3.753,3.753,0,0,0-3.078-3.41,30.915,30.915,0,0,0-6.89-.247,3.308,3.308,0,0,0-2.173,1.073c-.767.857-1.412,1.832-2.2,2.664a4.421,4.421,0,0,1-1.62,1.075,5.533,5.533,0,0,1-3.878,0,2.923,2.923,0,0,1-1.783-1.639,7.781,7.781,0,0,1-.748-4.332,19.069,19.069,0,0,0,.122-6.892,8.531,8.531,0,0,1,.59-4.36,4.022,4.022,0,0,1,2.861-2.516,7.013,7.013,0,0,1,1.952-.26q4.695.049,9.4.19a6.033,6.033,0,0,1,4.684,2.4c.632.767,1.255,1.532,1.943,2.236a3.613,3.613,0,0,0,2.138,1.161,25.811,25.811,0,0,0,7.385-.085,3.005,3.005,0,0,0,1.969-1.395,5.027,5.027,0,0,0,.927-2.776q0-5.442-.037-10.885a3.927,3.927,0,0,0-.186-.964,3.871,3.871,0,0,0-3.014-2.953,4.29,4.29,0,0,0-.986-.155,41.967,41.967,0,0,0-7.893.273,15.984,15.984,0,0,1-5.908-.02,32.078,32.078,0,0,0-6.409-.367c-2.966.024-5.947,0-8.9.048a39.486,39.486,0,0,0-5.427.243,46.544,46.544,0,0,1-6.889.385c-1.314.011-2.625.015-3.939.127a3.046,3.046,0,0,0-2.592,2.02,10.91,10.91,0,0,0,.2,8.164,8.5,8.5,0,0,0,1.158,1.585" transform="translate(459.967 289.014)" fill="#d4551c"/>
        <path id="Path_4384" data-name="Path 4384" d="M422.776,274.873c1.021,6.946-.026,5.423,4.4,10.6.656.752,1.281,1.519,1.967,2.227A11.882,11.882,0,0,0,431,289.34a8.951,8.951,0,0,0,6.527,1.7,59.086,59.086,0,0,1,10.365-.38,21.96,21.96,0,0,1,5.818,1.047,3.844,3.844,0,0,1,2.465,2.278A7.991,7.991,0,0,1,457,297.32c-.035,2-.094,3.963-.094,5.932a25.323,25.323,0,0,1-.774,5.373,3.613,3.613,0,0,1-2.627,2.688,6.214,6.214,0,0,1-1.939.328c-3.292-.018-6.605-.037-9.886-.153a6.1,6.1,0,0,1-5.106-2.577,6.42,6.42,0,0,0-4.995-2.787,44.06,44.06,0,0,0-4.92-.249,4.052,4.052,0,0,0-3.974,3.687,9.8,9.8,0,0,0,2.771,8.144c1.475,1.569,3.073,3,4.509,4.594a8.755,8.755,0,0,0,7.5,2.953c5.6-.317,11.2-.341,16.806-.107.5.028.992,0,1.486,0a9.55,9.55,0,0,0,5.906-2.2c1.777-1.46,3.517-2.979,5.25-4.5a8.248,8.248,0,0,0,2.951-6.533c-.02-3.462,0-6.922,0-10.094-.055-1.945-.131-3.609-.16-5.237-.011-1.81-.017-3.624.068-5.436a7.223,7.223,0,0,0-2.009-5.408c-1.218-1.346-2.463-2.662-3.751-3.939a10.088,10.088,0,0,0-10.063-4.035c-3.792.1-7.582.157-11.37.192a13.415,13.415,0,0,1-2.955-.232,4.218,4.218,0,0,1-3.349-3.283,15.349,15.349,0,0,1-.33-2.444c-.129-1.478-.122-2.97-.354-4.43a21.169,21.169,0,0,1,.522-7.357,4.266,4.266,0,0,1,3.425-3.176,9.248,9.248,0,0,1,1.469-.151c3.134.033,6.264.092,9.394.144a4.111,4.111,0,0,1,.494.044,7.051,7.051,0,0,1,5.082,2.693,12.671,12.671,0,0,0,1.639,1.847,4.052,4.052,0,0,0,2.645,1.211c1.969.031,3.939.052,5.908-.068a4.03,4.03,0,0,0,3.512-3.611,9.9,9.9,0,0,0-2.155-7.4c-1.405-1.823-2.837-3.646-4.374-5.362a8.46,8.46,0,0,0-6.546-2.977q-8.9.043-17.8.083h-.5a13.54,13.54,0,0,0-9.386,3.79,35.02,35.02,0,0,0-4.264,4.8,11.665,11.665,0,0,0-1.51,3.091,12.644,12.644,0,0,0-.61,4.385q.069,7.167.179,14.341a6.745,6.745,0,0,0,.052.984" transform="translate(501.017 288.609)" fill="#d4551c"/>
        <path id="Path_4385" data-name="Path 4385" d="M456.956,262.841c1.486.085,2.959.085,4.439.085a5.459,5.459,0,0,0,4-1.642c.82-.8,1.589-1.676,2.441-2.444a5.679,5.679,0,0,1,6.055-.452,3.8,3.8,0,0,1,1.689,2.352,12.771,12.771,0,0,1,.361,2.92c.02,3.132-.063,6.262-.063,9.388v11.862l.057,0v18.773c0,1.161.006,2.306-.048,3.458a5.1,5.1,0,0,1-1.6,3.51c-.708.682-1.471,1.314-2.208,1.969a5.257,5.257,0,0,0-1.615,3,17.3,17.3,0,0,0-.085,6.38,3.986,3.986,0,0,0,3.862,3.209,15.7,15.7,0,0,0,2.953-.173,28.337,28.337,0,0,1,9.82-.037,26.53,26.53,0,0,0,4.428.218,3.241,3.241,0,0,0,2.953-2.837c.085-1.491.085-2.964.085-4.444.046-3.864.186-4.485-3.331-7.075a5.558,5.558,0,0,1-2.044-3.281,9.044,9.044,0,0,1-.162-3.419,73.732,73.732,0,0,0,.044-15.77,45.252,45.252,0,0,1,.059-11.326,19.991,19.991,0,0,0,.216-3.447c-.037-1.805-.164-3.613-.328-5.414a19.168,19.168,0,0,1,.763-8.3,4.05,4.05,0,0,1,5.72-2.14,7.247,7.247,0,0,1,1.552,1.2c.914.951,1.733,1.978,2.649,2.92a3.434,3.434,0,0,0,2.181,1.058,37.964,37.964,0,0,0,7.392,0,3.763,3.763,0,0,0,2.774-2.54,5.861,5.861,0,0,0,.225-1.456c-.061-2.962-.1-5.934-.284-8.887a18.394,18.394,0,0,0-.741-3.873,4.072,4.072,0,0,0-1.119-1.576,3.9,3.9,0,0,0-2.684-1.089,42.764,42.764,0,0,0-8.861.365,32.325,32.325,0,0,1-10.323.072,16.745,16.745,0,0,0-2.953-.273,118.651,118.651,0,0,0-16.275.47,12.614,12.614,0,0,1-1.969.081,37.108,37.108,0,0,1-7.875-.453,8.57,8.57,0,0,0-2.457-.02,3.916,3.916,0,0,0-3.322,3.2,13.345,13.345,0,0,0-.107,1.478q-.026,4.692,0,9.388a11.918,11.918,0,0,0,.1,1.478,4.234,4.234,0,0,0,3.626,3.536" transform="translate(537.392 288.656)" fill="#d4551c"/>
        <path id="Path_4386" data-name="Path 4386" d="M494.692,307.723a5.323,5.323,0,0,1-1.945,2.782,19.443,19.443,0,0,0-2.38,1.751,3.165,3.165,0,0,0-.984,1.665c-.326,2.275-.584,4.573-.7,6.87a4.207,4.207,0,0,0,1.274,3.134,3.457,3.457,0,0,0,3.117,1.174,34.538,34.538,0,0,1,6.382-.6c4.616.033,9.233,0,13.849,0l0-.081c4.286.066,8.57.151,12.861.192,1.488.013,2.962-.033,4.441-.118a4.367,4.367,0,0,0,2.689-1.128,49.369,49.369,0,0,0,6.33-6.924,9.144,9.144,0,0,0,1.967-5.5c.037-2.966.057-5.945.1-8.9.05-3.3-.111-6.6.216-9.884a71.721,71.721,0,0,0-.074-16.758,25.2,25.2,0,0,1-.166-2.953q-.1-5.695-.164-11.377c-.015-1.668.022-3.309.022-4.949a6.091,6.091,0,0,0-1.185-3.7,37.009,37.009,0,0,0-6.863-7.08,7.956,7.956,0,0,0-5.532-1.775c-2.146.122-4.273.262-6.411.378a17.09,17.09,0,0,1-2.953.068,129.97,129.97,0,0,0-18.771-.278,31.884,31.884,0,0,1-4.92.046,6.484,6.484,0,0,0-3.355.682,3.3,3.3,0,0,0-1.7,1.716,4.108,4.108,0,0,0-.437,1.4c-.142,1.819-.254,3.617-.3,5.427a4.158,4.158,0,0,0,1.6,3.462,10.273,10.273,0,0,0,1.158.922,6.711,6.711,0,0,1,2.929,5.451,10.906,10.906,0,0,1-.14,2.446,26.371,26.371,0,0,0-.024,7.4,44.513,44.513,0,0,1,.457,7.394c.02,4.284.083,8.572.083,12.859v11.377a10.079,10.079,0,0,1-.477,3.41m13.322-44.6a9.067,9.067,0,0,1,.857-3.825,3.755,3.755,0,0,1,2.625-2.068,8.2,8.2,0,0,1,1.969-.254c3.3.011,6.612.063,9.893.1.166,0,.332.039.5.039a4.851,4.851,0,0,1,4.922,4.623,23.094,23.094,0,0,1,.16,3.456c-.006,10.4.182,20.784-.2,31.173-.09,2.308-.046,4.632-.02,6.927a15.713,15.713,0,0,1-.984,5.327,3.676,3.676,0,0,1-1.95,2.133,7.627,7.627,0,0,1-3.32.872c-2.968,0-5.949.018-8.9-.048a9.983,9.983,0,0,1-2.413-.477,4.4,4.4,0,0,1-3.237-3.939,7.775,7.775,0,0,1-.1-1.48c.223-7.254.175-14.509-.136-23.484.1-5.2.234-12.131.339-19.075" transform="translate(579.45 288.75)" fill="#d4551c"/>
        <path id="Path_4387" data-name="Path 4387" d="M524.977,286.606a2.472,2.472,0,0,0,1.969,1.348c1.148.129,2.3.129,3.445.177l.026-.177c.986,0,1.969.039,2.953,0a4.919,4.919,0,0,0,1.458-.234,3.55,3.55,0,0,0,2.592-2.726,20.953,20.953,0,0,0,0-6.892,3.584,3.584,0,0,0-2.7-2.608,34.59,34.59,0,0,0-7.4-.063,2.946,2.946,0,0,0-2.343,1.639,6.373,6.373,0,0,0-.809,2.315,31.9,31.9,0,0,0-.048,4.92,6.235,6.235,0,0,0,.857,2.3" transform="translate(621.385 326.392)" fill="#d4551c"/>
        <path id="Path_4388" data-name="Path 4388" d="M447.446,670.139a76.388,76.388,0,0,1,7.7-7.674,48,48,0,0,0,5.637-5.536,41.032,41.032,0,0,1,3.069-3.22,9.591,9.591,0,0,1,5.2-2.664,6.376,6.376,0,0,0,2.328-.776,3.467,3.467,0,0,0,1.932-2.706,30.26,30.26,0,0,0-.037-6.889,3.97,3.97,0,0,0-3.344-3.193,23.848,23.848,0,0,0-2.465-.085h-8.9l-.042.2c-1.5,0-2.953.02-4.45,0s-2.966-.083-4.45-.1c-.656-.009-1.311-.009-1.969.041a3.411,3.411,0,0,0-2.8,1.77,7.086,7.086,0,0,0-.739,1.814,8.261,8.261,0,0,0-.168,1.969c.042,2.634.035,5.279.194,7.9a8.3,8.3,0,0,1-2.208,6.348c-1.775,1.945-3.626,3.825-5.471,5.711a8.012,8.012,0,0,1-2.929,1.792,3.131,3.131,0,0,1-3.547-.984,4.648,4.648,0,0,1-1.06-2.2,23.126,23.126,0,0,1-.1-6.406,4.774,4.774,0,0,1,1.873-3.353c.785-.6,1.648-1.1,2.4-1.729a3.889,3.889,0,0,0,1.5-2.494,17.6,17.6,0,0,0-.621-7.81,3.492,3.492,0,0,0-3.346-2.459c-.656-.039-1.314-.057-1.969-.057q-6.924.075-13.842.179a13.8,13.8,0,0,0-1.478.118,3.644,3.644,0,0,0-3.117,3.344c-.07,1.972,0,3.961,0,5.928a4.7,4.7,0,0,0,1.554,3.513,12.5,12.5,0,0,0,1.1.986,7.257,7.257,0,0,1,2.883,5,22.071,22.071,0,0,1,.328,2.938c.057,2.306.057,4.627.057,6.922-.02,6.924-.177,13.849-.044,20.769.092,4.634-.538,9.211-.774,13.805a5.418,5.418,0,0,1-1.641,3.51c-.684.706-1.482,1.309-2.168,2.02a3.989,3.989,0,0,0-1.132,2.155,24.246,24.246,0,0,0-.072,6.889,3.611,3.611,0,0,0,2.592,2.706,18.451,18.451,0,0,0,2.455.2q7.416.085,14.833.12a9.052,9.052,0,0,0,1.969-.2,2.357,2.357,0,0,0,1.593-1.075,5.352,5.352,0,0,0,.815-1.771,25.6,25.6,0,0,0,.175-3.447,6.309,6.309,0,0,0-3.388-7.091,5.536,5.536,0,0,1-2.446-4.625c-.044-3.13,0-6.26.033-9.395a6.05,6.05,0,0,1,1.119-3.228,3.765,3.765,0,0,1,5.23-.966,10.181,10.181,0,0,1,1.5,1.281,114.406,114.406,0,0,1,8.616,10.828,9.425,9.425,0,0,1,.509.848,6.328,6.328,0,0,1,.688,5.25,12.014,12.014,0,0,0-.771,3.858c.022,2.14.125,4.282.214,6.422a4.4,4.4,0,0,0,.214.962,3.275,3.275,0,0,0,2.824,2.417,32.376,32.376,0,0,0,3.449,0,65.012,65.012,0,0,1,14.787.535,7.764,7.764,0,0,0,2.455-.037,4.263,4.263,0,0,0,3.366-3.235,16.264,16.264,0,0,0-.3-6.854,4.43,4.43,0,0,0-2.444-2.953,17.5,17.5,0,0,0-1.827-.754,10.612,10.612,0,0,1-5.714-4.5c-.09-.138-.2-.26-.3-.391-4.614-6.221-9.313-12.378-14.408-18.218a23.831,23.831,0,0,1-1.55-1.926,15.663,15.663,0,0,1-1.292-2.1,5.247,5.247,0,0,1,.328-5.622,20.907,20.907,0,0,1,1.814-2.343" transform="translate(486.271 755.735)" fill="#d4551c"/>
        <path id="Path_4389" data-name="Path 4389" d="M505.457,650.158a6.1,6.1,0,0,0,1.812-3.445,12.526,12.526,0,0,0,0-4.922,8.628,8.628,0,0,0-.721-1.832,2.96,2.96,0,0,0-1.395-1.349,8.577,8.577,0,0,0-3.827-.826c-3.958-.063-7.915-.175-11.873-.249-.984-.018-1.967-.011-2.953.052a4.371,4.371,0,0,0-4.225,4.068c-.1,1.314-.033,2.625-.122,3.939a5.455,5.455,0,0,0,2.927,5.775,7.245,7.245,0,0,1,1.2.865,4.467,4.467,0,0,1,1.338,2.046,6.156,6.156,0,0,1,.393,1.921c.044,3.628.024,7.252.024,10.878a4.037,4.037,0,0,1-.135.984,4.34,4.34,0,0,1-3.126,3.489,7.325,7.325,0,0,1-1.921.417c-2.966-.035-5.939-.1-8.892-.26a12.192,12.192,0,0,1-2.9-.6,4.267,4.267,0,0,1-2.979-3.043,16.444,16.444,0,0,1-.745-4.872c.033-1.333.033-2.645-.02-3.958a16.831,16.831,0,0,1,.616-4.389,5.025,5.025,0,0,1,1.438-2.549c.826-.8,1.7-1.559,2.527-2.361a3.867,3.867,0,0,0,1.148-2.144,19.021,19.021,0,0,0-.033-6.891,3.037,3.037,0,0,0-1.768-2.243,10.122,10.122,0,0,0-4.319-.933c-4.616.033-9.233.033-13.849.033a7.866,7.866,0,0,0-.986.109,3.992,3.992,0,0,0-3.41,3.7c-.1,1.976-.1,3.965-.076,5.934a3.825,3.825,0,0,0,1.213,2.625,12.356,12.356,0,0,0,1.873,1.6,6.464,6.464,0,0,1,2.822,5.486q.053,1.731.052,3.462c-.063,5.923-.133,11.86-.227,19.689a108.027,108.027,0,0,0,.168,15.418c.033.835,0,1.65,0,2.474,0,.5-.033.988-.055,1.484a6.423,6.423,0,0,1-2.245,4.831c-.5.426-.992.868-1.517,1.268a5.975,5.975,0,0,0-2.365,5.178c.02,1.165-.039,2.308-.039,3.462a9.285,9.285,0,0,0,.127,1.478,3.018,3.018,0,0,0,2.041,2.559,8.9,8.9,0,0,0,3.39.49c4.938-.214,9.871-.686,14.826-.479a10.092,10.092,0,0,0,1.475-.109,3.569,3.569,0,0,0,2.715-2.579,31.569,31.569,0,0,0,.23-7.392,3.228,3.228,0,0,0-1.1-2.153c-.872-.756-1.823-1.412-2.686-2.173a3.859,3.859,0,0,1-1.2-2.118,5.308,5.308,0,0,1-.144-.984,88.691,88.691,0,0,0-.693-9.355,7.478,7.478,0,0,1,.142-2.455,4.4,4.4,0,0,1,3.023-3.609,10.828,10.828,0,0,1,3.381-.656c2.8,0,5.606-.022,8.409,0a10.464,10.464,0,0,1,1.967.221,4.417,4.417,0,0,1,4.02,4.809c.024.656,0,1.314,0,1.969-.026,2.306-.048,4.627-.081,6.922-.007.656,0,1.314-.063,1.969a5.66,5.66,0,0,1-1.606,3.528,17.226,17.226,0,0,1-1.5,1.29,6.091,6.091,0,0,0-2.127,3.783,20.65,20.65,0,0,0-.483,4.413,4.333,4.333,0,0,0,4.223,4.568,3.786,3.786,0,0,0,.5.022q7.911.157,15.827.293a8.534,8.534,0,0,0,1.473-.129,2.91,2.91,0,0,0,2.3-1.639,6.735,6.735,0,0,0,.7-2.859,24.707,24.707,0,0,0-.741-5.869,3.6,3.6,0,0,0-.986-1.668c-.824-.8-1.821-1.419-2.66-2.2a4.272,4.272,0,0,1-1.113-1.6,10.612,10.612,0,0,1-.828-5.322,77.859,77.859,0,0,0,.542-13.818c-.052-4.944-.118-9.893-.072-14.839a62.738,62.738,0,0,0-.385-10.852,6.324,6.324,0,0,1,2.107-5.81c.73-.682,1.5-1.311,2.232-1.969" transform="translate(531.552 755.942)" fill="#d4551c"/>
        <path id="Path_4390" data-name="Path 4390" d="M533.535,676.635a8.077,8.077,0,0,0-.328-2.428,2.524,2.524,0,0,0-2.092-1.884c-1.311-.12-2.625-.1-3.937-.12a80.047,80.047,0,0,1-13.805-.544,3.749,3.749,0,0,0-4.177,3.314c-.085,2.319-.085,4.616-.085,6.913a5.046,5.046,0,0,0,.171.986,2.832,2.832,0,0,0,2.057,1.926,17.572,17.572,0,0,0,1.969.14c.986.02,1.969-.052,2.953,0a4.457,4.457,0,0,1,4.21,3.552,8.084,8.084,0,0,1,.328,1.939c.037,2.964.122,5.943,0,8.9-.173,4.479-1.965,6.21-6.408,6.448H513.9c-2.47-.039-4.944-.089-7.414-.111a12.758,12.758,0,0,1-4.339-.861,3.347,3.347,0,0,1-1.969-2.1,4.946,4.946,0,0,1-.328-1.44,30.915,30.915,0,0,1-.083-3.456c.269-5.274.332-10.54.107-15.816-.05-1.161,0-2.306.017-3.458a51.537,51.537,0,0,0-.413-8.88,7.706,7.706,0,0,1-.039-2.455,55.586,55.586,0,0,0,.522-8.859,19.924,19.924,0,0,1,.2-2.953,4.918,4.918,0,0,1,3.9-3.987,7.9,7.9,0,0,1,1.469-.183c3.294.022,6.605.072,9.886.12a6.779,6.779,0,0,1,.986.118,4.4,4.4,0,0,1,3.724,3.48c.315,1.613.525,3.252.813,4.872a2.881,2.881,0,0,0,2.356,2.251c2.3.153,4.594.236,6.89.328a3.466,3.466,0,0,0,.968-.186,3.081,3.081,0,0,0,2.061-1.969,3.854,3.854,0,0,0,.282-1.445c.017-2.47.026-4.942-.024-7.412a9.311,9.311,0,0,0-2.548-6.264c-1.207-1.34-2.389-2.715-3.609-4.052a16.5,16.5,0,0,0-1.421-1.373,7.469,7.469,0,0,0-5.394-2.063c-.986.037-1.969.037-2.953.037-5.11.074-10.216.179-15.324.216a22.057,22.057,0,0,0-4.887.623,7.336,7.336,0,0,0-3.473,1.779c-1.556,1.467-3.084,2.968-4.555,4.525a10.369,10.369,0,0,0-2.852,7.657c.05,3.132,0,6.262,0,9.392.011,1.978.046,3.965.072,5.934.024,1.659.07,3.3.07,4.94-.039,5.11-.116,10.216-.157,15.324-.013,1.661-.044,3.3.074,4.942a48.279,48.279,0,0,1,0,11.318q-.01.246,0,.492a8.934,8.934,0,0,0,2.424,6.8c1.773,1.943,3.72,3.735,5.661,5.517a6.394,6.394,0,0,0,4.05,1.641c.826.042,1.644.072,2.468.072q9.639-.164,19.278-.328a4.943,4.943,0,0,0,.984-.063,23.469,23.469,0,0,0,2.369-.656,9.465,9.465,0,0,0,3.357-2.046c1.554-1.469,3.1-2.959,4.57-4.514a6.965,6.965,0,0,0,1.945-4.922c.026-3.788.142-7.578.208-11.364.02-1.311,0-2.625,0-3.939l-.162-.024c-.039-4.778-.061-9.556-.127-14.334" transform="translate(576.769 756.047)" fill="#d4551c"/>
        <path id="Path_4391" data-name="Path 4391" d="M285.095,497.111a4.163,4.163,0,0,0,2.774.876,32.545,32.545,0,0,1,6.874.028,19.768,19.768,0,0,0,4.428-.184,42.011,42.011,0,0,1,6.892-.372c3.292.02,6.6-.009,9.878-.031a13.262,13.262,0,0,0,1.473-.135,3.118,3.118,0,0,0,2.33-2.3,6.931,6.931,0,0,0,.153-1.969q-.371-2.931-.92-5.845a3.524,3.524,0,0,0-2.778-2.5c-.82-.085-1.639-.107-2.461-.153-3.831-.208-5.532-2.039-5.532-6.052v-1.969c-.02-1.639-.066-3.281-.066-4.92.011-3.128.057-6.256.079-9.381q.033-3.964.05-7.9v-5.523c-.055-4.026-.109-9.128-.116-14.227-.035-4.284-.048-8.577-.079-12.843a14.52,14.52,0,0,0-.087-1.478,4.441,4.441,0,0,0-3.528-3.672,22.1,22.1,0,0,0-6.4-.066,4.835,4.835,0,0,0-1.816.719,7.91,7.91,0,0,0-1.889,1.563c-1.891,2.284-3.794,4.557-5.5,6.973a12.4,12.4,0,0,0-2.177,8.911,3.569,3.569,0,0,0,2.247,3.01c1.211.511,2.5.837,3.718,1.333a3.659,3.659,0,0,1,2,2.077,9.717,9.717,0,0,1,.8,3.843c-.039,3.456-.039,6.913-.039,10.371.009,7.41.059,14.815.059,22.225a21.505,21.505,0,0,1-.09,2.461,5.15,5.15,0,0,1-4.131,4.371,15.233,15.233,0,0,1-1.969.177c-.983.052-1.969.033-2.953.111a3.065,3.065,0,0,0-2.592,2.625,33.9,33.9,0,0,0,.033,7.875,2.8,2.8,0,0,0,1.342,1.969" transform="translate(336.165 493.618)" fill="#d4551c"/>
        <path id="Path_4392" data-name="Path 4392" d="M327.773,510.591a16.873,16.873,0,0,1,.066-5.408,22.035,22.035,0,0,0,.057-6.894,73.836,73.836,0,0,1-.149-17.254,11.153,11.153,0,0,0-2.431-8.752c-1.379-1.637-2.8-3.239-4.236-4.833a8.608,8.608,0,0,0-5.694-2.625,23.921,23.921,0,0,0-2.472-.079q-7.167-.059-14.334-.059c-1.666,0-3.3,0-4.946.107a9.152,9.152,0,0,0-6.2,2.7c-1.611,1.657-3.228,3.3-4.78,5.005a6.966,6.966,0,0,0-1.858,4.481c-.053,1.493-.072,2.966-.053,4.448.031,2.47.1,4.944.155,7.416l.039-.057v10.878a5.786,5.786,0,0,0,1.512,4.081c1.8,1.921,3.659,3.816,5.626,5.547a9.642,9.642,0,0,0,6.336,2.433c2.144.02,4.286.046,6.431.046,2.47-.009,4.944-.1,7.414-.085a13.4,13.4,0,0,1,3.427.348,3.86,3.86,0,0,1,2.9,3.067,10.4,10.4,0,0,1,.2,2.457c-.12,2.966-.133,5.939.026,8.894a12.277,12.277,0,0,1-.262,2.938,3.215,3.215,0,0,1-1.744,2.3,6.871,6.871,0,0,1-4.293.887,27.668,27.668,0,0,0-7.856-.2,6.54,6.54,0,0,1-6.135-2.507,14.821,14.821,0,0,0-1.642-1.832,3.815,3.815,0,0,0-2.2-1.06,30.646,30.646,0,0,0-6.889.157,3.72,3.72,0,0,0-2.872,3.034,8.7,8.7,0,0,0,2.022,7.368c1.88,2.074,3.8,4.133,5.773,6.1a6.193,6.193,0,0,0,4.422,1.932c3.132.031,6.262.094,9.392.057a76.319,76.319,0,0,1,9.871.328,10.483,10.483,0,0,0,8.68-2.71c1.565-1.451,3.032-3.021,4.483-4.6a9.757,9.757,0,0,0,2.059-3.9,13.161,13.161,0,0,0,.542-3.9c-.013-5.443-.013-10.879-.063-16.319a28.238,28.238,0,0,0-.328-3.937m-13.062-15.936a4.4,4.4,0,0,1-3.69,3.521,54.9,54.9,0,0,1-8.785.986,14.76,14.76,0,0,1-4.819-.82,3.776,3.776,0,0,1-2.743-3.163c-.358-2.761-.577-5.539-.852-8.308v-.011a15.725,15.725,0,0,1,.669-5.342,4.669,4.669,0,0,1,3.936-3.279c.654-.094,1.312-.157,1.969-.186a22.005,22.005,0,0,0,2.938-.232,19.154,19.154,0,0,1,7.8.452,4.5,4.5,0,0,1,3.51,3.7c.313,2.6.511,5.2.726,7.829a14.558,14.558,0,0,1-.656,4.854" transform="translate(332.881 550.999)" fill="#d4551c"/>
        <path id="Path_4393" data-name="Path 4393" d="M642.081,440.551a100.827,100.827,0,0,0-4.352,11.554,146.144,146.144,0,0,1-6.443,16.05c-1.322,2.837-2.7,5.639-3.775,8.594a34.076,34.076,0,0,1-2.09,4.472,4.868,4.868,0,0,1-3.01,2.415c-1.266.361-2.555.658-3.81,1.062a3.575,3.575,0,0,0-2.529,2.807,21.561,21.561,0,0,0-.1,6.89,3.843,3.843,0,0,0,2.553,2.78,9.774,9.774,0,0,0,1.95.3c1.814.02,3.626-.061,5.44-.061a127.768,127.768,0,0,1,17.781.361,4.136,4.136,0,0,0,1.453-.17,3.578,3.578,0,0,0,2.872-3.014,9.273,9.273,0,0,0,.1-.986v-4.946a5.017,5.017,0,0,0-2.245-4.188c-.662-.485-1.382-.9-2.037-1.4a3.584,3.584,0,0,1-1.314-3.974,16.755,16.755,0,0,1,1.049-2.763c.658-1.508,1.379-2.988,2.035-4.5.981-2.269,1.954-4.546,2.874-6.837s1.869-4.579,2.625-6.929a154.154,154.154,0,0,1,9.165-22.4c.374-.737.745-1.471,1.1-2.216a17.031,17.031,0,0,0,1.775-7.635c-.015-1.5.09-2.966.09-4.45a11.049,11.049,0,0,0-.171-1.969,2.844,2.844,0,0,0-1.379-1.967,6.191,6.191,0,0,0-3.281-.927q-9.4-.1-18.8-.2l-.018.146q-7.915-.02-15.829,0c-1.312,0-2.625-.007-3.937.109a4.223,4.223,0,0,0-3.869,3.875c-.085,3.626-.1,7.268,0,10.878a3.974,3.974,0,0,0,2.815,3.714,9.163,9.163,0,0,0,2.371.616,32.009,32.009,0,0,0,3.939.046,4.663,4.663,0,0,0,3.445-1.7c.75-.876,1.419-1.825,2.194-2.673a4.064,4.064,0,0,1,2.6-1.314,26.176,26.176,0,0,1,6.892.177,8.767,8.767,0,0,1,2.3.879,2.648,2.648,0,0,1,1.235,1.484,4.169,4.169,0,0,1,.26,2.413,22.947,22.947,0,0,1-1.932,5.593" transform="translate(730.113 493.634)" fill="#d4551c"/>
        <path id="Path_4394" data-name="Path 4394" d="M615.706,488.771v10.878a5.8,5.8,0,0,0,1.513,4.081c1.8,1.921,3.659,3.814,5.628,5.545a9.623,9.623,0,0,0,6.337,2.433c2.142.022,4.284.048,6.428.048,2.47-.009,4.944-.1,7.416-.085a13.47,13.47,0,0,1,3.425.345,3.862,3.862,0,0,1,2.9,3.069,10.268,10.268,0,0,1,.2,2.454c-.12,2.966-.134,5.941.026,8.9a12.144,12.144,0,0,1-.262,2.935,3.209,3.209,0,0,1-1.744,2.3,6.851,6.851,0,0,1-4.293.89,27.59,27.59,0,0,0-7.856-.2,6.543,6.543,0,0,1-6.135-2.507,14.864,14.864,0,0,0-1.641-1.834,3.8,3.8,0,0,0-2.194-1.056,30.672,30.672,0,0,0-6.892.153,3.723,3.723,0,0,0-2.87,3.036,8.691,8.691,0,0,0,2.02,7.368c1.88,2.074,3.8,4.133,5.773,6.1a6.178,6.178,0,0,0,4.424,1.932c3.13.031,6.26.094,9.39.057a76.721,76.721,0,0,1,9.871.328,10.467,10.467,0,0,0,8.68-2.71c1.565-1.451,3.031-3.019,4.483-4.594a9.757,9.757,0,0,0,2.061-3.9,13.145,13.145,0,0,0,.54-3.9c-.013-5.443-.013-10.878-.061-16.319a28.915,28.915,0,0,0-.328-3.939,16.743,16.743,0,0,1,.066-5.408,22.029,22.029,0,0,0,.055-6.892,73.731,73.731,0,0,1-.147-17.256,11.165,11.165,0,0,0-2.433-8.752c-1.377-1.637-2.8-3.237-4.236-4.831a8.594,8.594,0,0,0-5.694-2.625,23.867,23.867,0,0,0-2.47-.081q-7.17-.059-14.336-.059c-1.663,0-3.3,0-4.946.107a9.166,9.166,0,0,0-6.2,2.7c-1.613,1.655-3.23,3.3-4.782,5.005a6.948,6.948,0,0,0-1.856,4.479c-.052,1.5-.072,2.966-.052,4.45.028,2.47.1,4.942.153,7.416Zm12.883-1.926a15.714,15.714,0,0,1,.669-5.34,4.679,4.679,0,0,1,3.939-3.281q.98-.141,1.967-.184a22.028,22.028,0,0,0,2.938-.234,19.189,19.189,0,0,1,7.8.455,4.492,4.492,0,0,1,3.51,3.694c.313,2.6.514,5.2.726,7.829a14.562,14.562,0,0,1-.656,4.857,4.407,4.407,0,0,1-3.687,3.521,54.936,54.936,0,0,1-8.784.984,14.718,14.718,0,0,1-4.822-.82,3.77,3.77,0,0,1-2.743-3.161c-.356-2.763-.577-5.539-.853-8.308Z" transform="translate(729.831 550.982)" fill="#d4551c"/>
        <path id="Path_4395" data-name="Path 4395" d="M341.691,833.738a4.537,4.537,0,0,1,1.65,3.862l-6.675,86.573a4.544,4.544,0,0,0,6.977,4.179l79.292-50.622a2.278,2.278,0,0,0,1-1.427l2.782-55.809a2.282,2.282,0,0,1,4.509.5v44.032a4.545,4.545,0,0,0,6.817,3.937l19.062-11.005a2.277,2.277,0,0,0,1.108-1.593l1.18-50.287a2.255,2.255,0,0,1,4.479.378v43.6a2.29,2.29,0,0,0,3.412,2.052L507.6,829.15a2.285,2.285,0,0,0,1.113-1.563l7.362-51.015a2.283,2.283,0,0,1,4.511.678L509.027,881.371a2.282,2.282,0,0,0,3.405,2.234l33.1-19.014a4.545,4.545,0,0,1,6.594,5.318l-23.962,75.437a2.28,2.28,0,0,0,.73,2.457l48.849,39.966a4.547,4.547,0,0,0,7.08-1.781l4.273-10.336a4.545,4.545,0,0,1,7.921-.874l14.352,20.474a4.544,4.544,0,0,0,7.442,0l14.352-20.474a4.545,4.545,0,0,1,7.921.872l4.275,10.339a4.545,4.545,0,0,0,7.078,1.781L701.285,947.8a2.279,2.279,0,0,0,.728-2.457l-23.962-75.437a4.546,4.546,0,0,1,6.6-5.318l33.094,19.014a2.282,2.282,0,0,0,3.405-2.234l-11.56-104.122a2.281,2.281,0,0,1,4.509-.678l7.362,51.015a2.292,2.292,0,0,0,1.113,1.563l37.217,21.186a4.359,4.359,0,0,0,6.516-3.788V806.761a2.283,2.283,0,0,1,4.533-.367c.5,2.933.9,48.672,1.128,49.968a2.266,2.266,0,0,0,1.108,1.591l19.06,11.005a4.545,4.545,0,0,0,6.817-3.937V820.99a2.282,2.282,0,0,1,4.509-.5L806.24,876.3a2.286,2.286,0,0,0,1,1.427l79.294,50.622a4.545,4.545,0,0,0,6.977-4.179L886.833,837.6a4.543,4.543,0,0,1,1.65-3.862l13.3-10.909a2.283,2.283,0,0,0,.818-2.033L858.2,446.26a34.32,34.32,0,0,0-34.073-30.22H739.286a11.389,11.389,0,0,0-10.878,14.931c1.991,5.851,1.6,12.354-5.646,17.39a2.494,2.494,0,0,1-.437.238l-26.837,22.087a2.28,2.28,0,0,1-3.115-1.637L671.981,331.363a2.284,2.284,0,0,0-1.906-1.792l-6.966-1.008a4.547,4.547,0,0,0-4.5,2.072l-2.367,3.749-9.65-13.847a49.133,49.133,0,0,0-41.754-21.007c-22.1.647-51.424,2.221-61.859,4.6-37.455,8.529-49.533,75.755-39.217,78.241q.531.128,1.056.223a23.116,23.116,0,0,0,11.375-.715c21.167-7.066,31.719,9.877,29.5,27.156l-8.076,59.752a2.282,2.282,0,0,1-3.147,1.812l-26.622-22a2.4,2.4,0,0,1-.435-.238c-7.25-5.036-7.639-11.539-5.648-17.39a11.388,11.388,0,0,0-10.879-14.931H406.05a34.32,34.32,0,0,0-34.073,30.22L327.574,820.8a2.28,2.28,0,0,0,.82,2.033ZM596.022,333.889a2.7,2.7,0,0,1,3.792.437,12.985,12.985,0,0,0,20.389,0,2.7,2.7,0,1,1,4.229,3.355,18.387,18.387,0,0,1-28.847,0,2.7,2.7,0,0,1,.437-3.792" transform="translate(388.398 355.139)" fill="#d4551c"/>
      </g>
    </g>
  </g>
</svg>
