<svg xmlns="http://www.w3.org/2000/svg" width="2560" height="2880" viewBox="0 0 2560 2880"><g data-name="Group 103"><path fill="#f5f4f4" d="M0 0h2560v2880H0z"/><g data-name="Group 99"><g data-name="Group 3" fill="#383838"><g data-name="Group 1"><path data-name="Path 1" d="M1929.235 1306.574a9.9 9.9 0 0 1 6.464-4.976 10.705 10.705 0 0 1 8.1.924 10.351 10.351 0 0 1 5.12 6.326 10.6 10.6 0 0 1-.782 8.17c-1.991 3.764-3.841 7.245-5.543 10.584-2.984 5.681-6.251 11.934-7.6 14.495h12.151a2.275 2.275 0 0 1 0 4.549h-15.917a1.953 1.953 0 0 1-1.917-1.07 2.043 2.043 0 0 1-.072-2.275l14.922-28.418a6.3 6.3 0 0 0-2.561-8.385 6.368 6.368 0 0 0-4.69-.569 6.092 6.092 0 0 0-3.693 2.919 2.292 2.292 0 0 1-3.979-2.275Z"/><path data-name="Path 2" d="M1928.663 1437.664v-24.157a10.8 10.8 0 1 1 21.6 0v24.157a10.8 10.8 0 0 1-21.6 0Zm4.548-24.157v24.157a6.252 6.252 0 1 0 12.5 0v-24.157a6.252 6.252 0 1 0-12.5 0Z"/><path data-name="Path 3" d="M1932.643 1517.309a2.308 2.308 0 0 1-1.633-3.9l8.526-8.528a2.442 2.442 0 0 1 2.484-.494 2.1 2.1 0 0 1 1.423 2.131v41.205a2.243 2.243 0 0 1-2.275 2.274 2.16 2.16 0 0 1-2.269-2.274v-35.732l-4.693 4.685a2.084 2.084 0 0 1-1.563.633Z"/><path data-name="Path 4" d="M1928.026 1623.671v-7.106a10.8 10.8 0 0 1 21.6 0v24.163a10.8 10.8 0 0 1-7.958 10.444 10.625 10.625 0 0 1-12.151-5.049 2.293 2.293 0 0 1 .786-3.12 2.359 2.359 0 0 1 3.121.845 6.131 6.131 0 0 0 7.036 2.918 6.228 6.228 0 0 0 4.615-6.038v-8.25a9.953 9.953 0 0 1-6.249 2 10.842 10.842 0 0 1-10.8-10.807Zm4.546-7.106v7.106a6.25 6.25 0 1 0 12.5 0v-7.106a6.25 6.25 0 0 0-12.5 0Z"/></g><g data-name="Group 2"><path data-name="Path 5" d="M606.704 1301.449h14.209a2.275 2.275 0 1 1 0 4.549h-11.935v15.062h10.517a2.272 2.272 0 1 1 0 4.545h-10.517v16.488h11.935a2.275 2.275 0 1 1 0 4.549h-14.209a2.164 2.164 0 0 1-2.274-2.274v-40.644a2.164 2.164 0 0 1 2.274-2.275Z"/><path data-name="Path 6" d="M618.784 1437.802a6.237 6.237 0 0 0-1.843-5.114l-11.37-11.652a10.377 10.377 0 0 1-2.984-8.312 10.73 10.73 0 0 1 4.263-7.816 10.537 10.537 0 0 1 8.669-1.988 10.685 10.685 0 0 1 7.176 5.187 2.264 2.264 0 0 1-.853 3.128 2.231 2.231 0 0 1-3.058-.854 5.862 5.862 0 0 0-4.191-2.983 6.086 6.086 0 0 0-5.042 1.134 5.708 5.708 0 0 0-2.418 4.475 6.113 6.113 0 0 0 1.705 4.835l11.368 11.72a11.162 11.162 0 1 1-17.69 13.355 2.369 2.369 0 0 1 .854-3.125 2.26 2.26 0 0 1 3.127.856 6.6 6.6 0 0 0 9.664 1.916 6.16 6.16 0 0 0 2.623-4.762Z"/><path data-name="Path 7" d="M624.183 1506.791a2.164 2.164 0 0 1-2.273 2.274h-6.964v38.65a2.163 2.163 0 0 1-2.27 2.276 2.244 2.244 0 0 1-2.276-2.276v-38.65h-6.961a2.272 2.272 0 1 1 0-4.545h18.471a2.163 2.163 0 0 1 2.273 2.271Z"/><path data-name="Path 8" d="M623.897 1616.851v23.59a10.792 10.792 0 0 1-10.8 10.8h-8.525a2.164 2.164 0 0 1-2.275-2.275v-40.642a2.164 2.164 0 0 1 2.275-2.275h8.525a10.8 10.8 0 0 1 10.8 10.802Zm-10.8-6.253h-6.251v36.094h6.251a6.216 6.216 0 0 0 6.253-6.251v-23.59a6.264 6.264 0 0 0-6.251-6.253Z"/></g></g><g data-name="Group 8"><g data-name="Group 4"><path data-name="Path 9" d="M645.712 1155.398a2.537 2.537 0 0 1-2.541-2.54v-25.385a2.54 2.54 0 0 1 5.079 0v25.385a2.539 2.539 0 0 1-2.538 2.54Z" fill="#383838"/></g><g data-name="Group 5"><path data-name="Path 10" d="M645.712 1100.707a2.538 2.538 0 0 1-2.541-2.54v-58.615c0-36.458 3.088-87.591 8.264-136.777a2.538 2.538 0 1 1 5.047.53c-5.155 49.025-8.233 99.955-8.233 136.248v58.616a2.54 2.54 0 0 1-2.537 2.538Zm11.583-224.251a2.387 2.387 0 0 1-.314-.022 2.537 2.537 0 0 1-2.207-2.83q.6-4.85 1.238-9.709a2.538 2.538 0 1 1 5.034.658q-.634 4.841-1.231 9.675a2.546 2.546 0 0 1-2.518 2.228Z" fill="#383838"/></g><g data-name="Group 6"><path data-name="Path 11" d="M1911.604 1100.835a2.54 2.54 0 0 1-2.539-2.539v-9.771a2.54 2.54 0 1 1 5.079 0v9.771a2.542 2.542 0 0 1-2.54 2.539Zm0-39.081a2.539 2.539 0 0 1-2.539-2.54v-19.664c0-35.646-3.356-102.867-12.8-175.005a2.538 2.538 0 1 1 5.033-.659c9.481 72.378 12.845 139.868 12.845 175.664v19.664a2.54 2.54 0 0 1-2.539 2.544ZM662.639 837.8a2.47 2.47 0 0 1-.387-.032 2.536 2.536 0 0 1-2.124-2.891c2.615-17.06 5.478-33.282 8.5-48.226a2.537 2.537 0 1 1 4.974 1.007c-3.009 14.861-5.853 31.007-8.455 47.986a2.544 2.544 0 0 1-2.508 2.156Zm1232.019-.1a2.538 2.538 0 0 1-2.506-2.156c-2.607-17-5.461-33.154-8.469-48.019a2.538 2.538 0 0 1 4.976-1.007c3.025 14.943 5.891 31.18 8.508 48.255a2.536 2.536 0 0 1-2.124 2.894 2.34 2.34 0 0 1-.385.033Zm-1217.18-76.624a2.716 2.716 0 0 1-.6-.071 2.542 2.542 0 0 1-1.863-3.073c5.581-22.8 11.7-42.134 18.177-57.454a635.445 635.445 0 0 1 65.918-118.676 2.538 2.538 0 1 1 4.148 2.926 629.83 629.83 0 0 0-65.388 117.731c-6.376 15.072-12.407 34.142-17.923 56.68a2.538 2.538 0 0 1-2.469 1.937Zm1202.319-.14a2.536 2.536 0 0 1-2.463-1.933q-1.173-4.792-2.4-9.438a2.54 2.54 0 0 1 4.911-1.294q1.233 4.686 2.416 9.522a2.538 2.538 0 0 1-1.859 3.073 2.777 2.777 0 0 1-.604.07Zm-10.746-37.6a2.545 2.545 0 0 1-2.407-1.726c-2.328-6.917-4.752-13.357-7.2-19.146a628.128 628.128 0 0 0-88.928-148.965 2.541 2.541 0 0 1 3.96-3.185 633.489 633.489 0 0 1 89.641 150.169c2.5 5.91 4.971 12.472 7.341 19.5a2.541 2.541 0 0 1-2.408 3.353ZM778.63 562.258a2.537 2.537 0 0 1-2-4.1q3.011-3.861 6.079-7.693a2.54 2.54 0 0 1 3.962 3.177q-3.045 3.8-6.033 7.637a2.526 2.526 0 0 1-2.008.979Zm24.932-30.076a2.541 2.541 0 0 1-1.908-4.219 649.888 649.888 0 0 1 27.636-29.421q3.071-3.068 6.177-6.093a2.538 2.538 0 0 1 3.539 3.64q-3.079 3-6.126 6.043a647.942 647.942 0 0 0-27.416 29.191 2.533 2.533 0 0 1-1.902.863Zm950.057-.15a2.526 2.526 0 0 1-1.905-.859 643.14 643.14 0 0 0-27.289-29.041q-3.111-3.116-6.265-6.179a2.54 2.54 0 0 1 3.543-3.638q3.176 3.088 6.311 6.228a646.092 646.092 0 0 1 27.506 29.271 2.541 2.541 0 0 1-1.9 4.219ZM858.698 476.85a2.541 2.541 0 0 1-1.687-4.437 633.234 633.234 0 0 1 164.32-105.693 2.537 2.537 0 1 1 2.057 4.638 628.323 628.323 0 0 0-163.01 104.85 2.538 2.538 0 0 1-1.68.642Zm839.771-.133a2.508 2.508 0 0 1-1.679-.637q-3.645-3.229-7.327-6.4a2.541 2.541 0 0 1 3.316-3.85q3.705 3.2 7.377 6.451a2.538 2.538 0 0 1-1.687 4.437Zm-29.994-25.025a2.534 2.534 0 0 1-1.563-.541 629.177 629.177 0 0 0-142.815-84.048 643.77 643.77 0 0 0-26.4-10.474 2.536 2.536 0 1 1 1.765-4.756 635.627 635.627 0 0 1 26.609 10.556 633.937 633.937 0 0 1 143.97 84.729 2.538 2.538 0 0 1-1.567 4.535Zm-619.05-91.365a2.539 2.539 0 0 1-.925-4.9q4.576-1.785 9.172-3.486a2.538 2.538 0 0 1 1.77 4.758q-4.56 1.691-9.1 3.459a2.518 2.518 0 0 1-.919.168Zm36.833-13.028a2.539 2.539 0 0 1-.772-4.957 630.63 630.63 0 0 1 47.251-13.088 2.535 2.535 0 1 1 1.165 4.935 629.752 629.752 0 0 0-46.868 12.985 2.464 2.464 0 0 1-.779.124Zm384.625-.061a2.527 2.527 0 0 1-.775-.122 625.66 625.66 0 0 0-46.872-12.973 2.538 2.538 0 1 1 1.164-4.94 629.613 629.613 0 0 1 47.253 13.078 2.539 2.539 0 0 1-.77 4.958Zm-308.893-19.027a2.539 2.539 0 0 1-.461-5.036 646.635 646.635 0 0 1 195.307-6.013 2.536 2.536 0 1 1-.617 5.035 641.709 641.709 0 0 0-193.76 5.968 2.368 2.368 0 0 1-.472.046Zm233.154-.036a2.365 2.365 0 0 1-.469-.046q-4.774-.891-9.574-1.706a2.537 2.537 0 1 1 .85-5q4.837.815 9.659 1.719a2.54 2.54 0 0 1-.465 5.036Z" fill="#383838"/></g><g data-name="Group 7"><path data-name="Path 12" d="M1911.604 1155.398a2.541 2.541 0 0 1-2.54-2.54v-25.385a2.54 2.54 0 0 1 5.079 0v25.385a2.538 2.538 0 0 1-2.539 2.54Z" fill="#383838"/></g></g><g data-name="Group 13"><g data-name="Group 9"><path data-name="Path 13" d="m1913.646 1844.877-5.073-.2c.326-8.342.491-16.849.491-25.281h5.076c0 8.504-.166 17.075-.494 25.481Z" fill="#383838"/></g><g data-name="Group 10"><path data-name="Path 14" d="m1852.829 2091.997-4.586-2.174q2.021-4.249 3.972-8.535l4.623 2.105q-1.972 4.325-4.009 8.604Zm15.256-34.759-4.709-1.9a625.723 625.723 0 0 0 43.466-182.462l5.063.426a631.1 631.1 0 0 1-43.821 183.936Z" fill="#383838"/></g><g data-name="Group 11"><path data-name="Path 15" d="M1278.659 2454.892c-7.827 0-15.775-.147-23.619-.43l.183-5.072c15.7.562 31.623.562 47.072-.008l.185 5.072a657.13 657.13 0 0 1-23.821.438Zm-52.04-2.092a631.218 631.218 0 0 1-184.073-43.272l1.887-4.718a626.015 626.015 0 0 0 182.593 42.933Zm104.277-.017-.412-5.059q4.7-.382 9.374-.831l.483 5.054q-4.713.452-9.445.832Zm37.717-4.2-.711-5.024a626.916 626.916 0 0 0 156.194-43.367 640.758 640.758 0 0 0 23.481-10.49l2.164 4.587a645.047 645.047 0 0 1-23.669 10.578 632.008 632.008 0 0 1-157.459 43.713Zm-352.25-50.229q-4.328-1.961-8.618-3.979l2.16-4.594q4.255 2 8.55 3.949Zm-34.095-16.687a633.474 633.474 0 0 1-41.113-23.673l2.7-4.3a629.464 629.464 0 0 0 40.778 23.486Zm592.943-.09-2.369-4.493a631.407 631.407 0 0 0 40.772-23.493l2.7 4.3a636.162 636.162 0 0 1-41.103 23.683Zm-657.829-39.25a642.086 642.086 0 0 1-137.838-129.47l3.982-3.149a636.875 636.875 0 0 0 136.749 128.441Zm722.7-.105-2.891-4.176q3.869-2.681 7.7-5.415l2.95 4.125q-3.861 2.759-7.761 5.463Zm30.546-22.539-3.135-3.994a637.776 637.776 0 0 0 128.846-136.364l4.166 2.905a642.819 642.819 0 0 1-129.877 137.453Zm-908.223-129.558q-2.773-3.853-5.483-7.743l4.166-2.906q2.69 3.861 5.439 7.683Zm-21.23-31.463a635.934 635.934 0 0 1-23.807-41.035l4.483-2.378a632.295 632.295 0 0 0 23.619 40.7Zm1075.07-.162-4.294-2.708a631.497 631.497 0 0 0 23.606-40.71l4.486 2.378a640.173 640.173 0 0 1-23.803 41.04Zm-1111.668-66.308a639.484 639.484 0 0 1-11.385-25.363 632.207 632.207 0 0 1-43.451-155.6l5.026-.732a626.957 626.957 0 0 0 43.1 154.352 642.465 642.465 0 0 0 11.292 25.17Zm-58.278-209.227q-.467-4.724-.864-9.453l5.057-.427q.4 4.692.86 9.375Z" fill="#383838"/></g><g data-name="Group 12"><path data-name="Path 16" d="M643.67 1844.877c-.329-8.42-.5-16.992-.5-25.477h5.079c0 8.418.165 16.919.5 25.281Z" fill="#383838"/></g></g><g data-name="Group 14"><path data-name="Path 17" d="M1278.659 2414.272a594.5 594.5 0 0 1-594.873-594.873h5.077a589.8 589.8 0 1 0 1179.592 0h5.075a594.516 594.516 0 0 1-594.871 594.873Z" fill="#383838"/></g><g data-name="Group 15"><path data-name="Path 18" d="M1870.993 1155.398a2.537 2.537 0 0 1-2.539-2.54V1039.55c0-136.22-27.446-276.432-46.417-321.27a590.037 590.037 0 0 0-1086.766 0c-18.969 44.841-46.409 185.053-46.409 321.27v113.308a2.538 2.538 0 1 1-5.077 0V1039.55c0-44.074 4.494-106.911 11.728-163.988 6.3-49.711 17.5-117.691 35.085-159.262a595.119 595.119 0 0 1 1096.115 0c17.583 41.57 28.786 109.55 35.088 159.262 7.235 57.075 11.728 119.91 11.728 163.988v113.308a2.537 2.537 0 0 1-2.536 2.54Z" fill="#383838"/></g><g data-name="Group 16" fill="#383838"><path data-name="Path 19" d="M1506.413 1092.046a1.206 1.206 0 0 0-1.375 1.064 1.226 1.226 0 0 0 1.059 1.378 419.753 419.753 0 0 0 53.478 3.3c35.149 0 60.325-3.964 60.691-4.026a1.23 1.23 0 1 0-.391-2.429c-.526.087-53.649 8.454-113.462.713Z"/><path data-name="Path 20" d="M1631.281 1089.803a4.009 4.009 0 0 0-3.105-3.123l-4.377-.544c-16.361-2.042-20.759-2.593-33.081-3.028a1.3 1.3 0 0 0-1.271 1.187 1.228 1.228 0 0 0 1.185 1.271c12.211.429 16.587.973 32.862 3.013l4.379.543a1.728 1.728 0 0 1 1.03 1.308 2.529 2.529 0 0 1-1.1 2.783c-3.948 2.962-4.292 7.651-4.6 11.8a34.285 34.285 0 0 1-.57 4.8c-1.163 5.219-13.815 21.945-23.871 27.258-3.283 1.736-6.194 3.034-8.536 4.08-4.632 2.066-7.181 3.2-7.181 5.366 0 2.689 1.761 3.592 3.048 4.254a4.824 4.824 0 0 1 1.831 1.323c1.872 2.578 2.07 2.847-.937 5.348-3.157 2.647-9.491 3.657-15.261 4.3-2.859.312-4.761.419-8.1.573l-1.942-.078c-2.792-.108-5.684-.22-8.211-.5-5.775-.64-12.1-1.65-15.274-4.3-3-2.5-2.8-2.766-.927-5.351a4.874 4.874 0 0 1 1.83-1.319c1.288-.663 3.048-1.565 3.048-4.254 0-2.16-2.55-3.3-7.181-5.366-2.343-1.043-5.258-2.344-8.543-4.08-10.041-5.308-22.7-22.039-23.863-27.261a33.511 33.511 0 0 1-.576-4.8c-.3-4.144-.646-8.838-4.6-11.8a2.52 2.52 0 0 1-1.1-2.779 1.738 1.738 0 0 1 1.032-1.312c25.437-3.123 67.126-3.409 81.525-3.409 2.878 0 4.726.133 5.02.014a1.229 1.229 0 0 0 .011-2.458c-2.282-.014-56.229-.343-86.856 3.411a4.013 4.013 0 0 0-3.108 3.123 4.975 4.975 0 0 0 2 5.373c3.06 2.293 3.335 6.042 3.625 10.011.04.569.094 1.143.144 1.715a13.064 13.064 0 0 1-6.668-6.834c-1.392-3.337-2.706-10.664-2.715-10.735l-.093-.522-.448-.29c-1.128-.738-4.635-.967-7.6-1.024 4.135-3.514 6.316-8.812 4.76-12.415-.622-1.451-2.823-4.61-9.677-2.6a39.824 39.824 0 0 0-4.935 1.884 17.926 17.926 0 0 1-7.125 2c-1.443.025-2.679.032-3.767.043-6.469.042-8.005.054-15.4 4.233-6.462 3.665-12.319 5.448-17.989 7.175-6.433 1.959-12.511 3.8-19.026 8.152-11.855 7.9-17.536 21.753-20.263 28.416-3.428 8.374-7.562 16.59-16.581 29.475-5.426 7.736-65.831 55.5-83.693 63.835a1.231 1.231 0 0 0 .519 2.346 1.257 1.257 0 0 0 .519-.114c18.742-8.747 78.992-56.561 84.668-64.651 9.151-13.078 13.35-21.434 16.841-29.958 2.637-6.434 8.125-19.82 19.354-27.3 6.21-4.145 12.12-5.946 18.379-7.847 5.8-1.762 11.787-3.585 18.486-7.383 6.83-3.868 7.953-3.875 14.193-3.918 1.1-.007 2.351-.015 3.8-.047a20.066 20.066 0 0 0 8.06-2.2 37.743 37.743 0 0 1 4.642-1.78c2.059-.6 5.667-1.243 6.729 1.218 1.187 2.748-1.195 8.149-6.044 10.989-5.871 3.443-9.166 5.141-13.99 5.835-7.229 1.028-11.234 3.772-12.309 5.251-.422.115-.831.226-1.274.352-2.039.573-3.445 1.065-4.789 1.529-1.448.505-2.816.981-4.845 1.5-2.462.642-8.184 1.648-12.2.839a1.249 1.249 0 0 0-1.448.967 1.231 1.231 0 0 0 .967 1.445c4.455.9 10.652-.182 13.307-.872 2.119-.549 3.535-1.04 5.031-1.56 1.3-.451 2.668-.928 4.647-1.49a56.028 56.028 0 0 1 14.573-2.536c7.679-.318 14.28-.017 17.1 5.613.187.484.368.946.543 1.376a13.23 13.23 0 0 1 .6 2.02c1.263 6.837-7.512 11.444-7.6 11.491l-4.755 2.454 5.346-.128c3.922-.083 6.721.794 8.306 2.646 2.82 3.285 1.75 9.31.968 13.711a17.5 17.5 0 0 0-.5 5.322 16.869 16.869 0 0 0 3.106 6.779 12.877 12.877 0 0 1 2.467 5.191c.6 3.209-.1 5.355-.992 8.074a31.85 31.85 0 0 0-1.7 7.486 28.114 28.114 0 0 0 .788 8.309c.834 4.187 1.559 7.806-1.376 11.692-3.241 4.3-9.718 7.568-15 9.935-7.129 3.2-14.95 4.546-23.223 5.975-6.821 1.179-13.879 2.4-20.458 4.75-12.743 4.549-24.4 12.565-34.323 19.722a1.228 1.228 0 0 0 .721 2.224 1.2 1.2 0 0 0 .716-.229c9.79-7.06 21.273-14.961 33.713-19.4 6.379-2.285 13.329-3.485 20.051-4.646 8.063-1.392 16.4-2.829 23.806-6.148 5.552-2.489 12.379-5.957 15.956-10.7 3.6-4.764 2.7-9.284 1.824-13.654a26.15 26.15 0 0 1-.749-7.608 29.047 29.047 0 0 1 1.595-6.942c.917-2.808 1.781-5.463 1.07-9.288a15.277 15.277 0 0 0-2.852-6.125 14.4 14.4 0 0 1-2.721-5.857 18.079 18.079 0 0 1 .5-4.43c.018-.1.041-.218.058-.325.858 1.5 1.926 2.926 3.447 2.521 8.006-1.958 17.9-2.658 21.937.173.665.468 1.331.981 1.984 1.478 2.123 1.627 3.954 3.03 5.586 3.03 1.875 0 4.708-2.138 5.61-4.257 2.313 1.142 4.392 2.07 6.144 2.852 2.592 1.159 5.531 2.466 5.723 3.119 0 1.132-.437 1.414-1.71 2.071a6.963 6.963 0 0 0-2.7 2.063c-2.566 3.535-2.729 5.286 1.343 8.682 3.661 3.053 10.132 4.134 16.581 4.847 2.615.289 5.548.4 8.385.513l2 .078h.107c3.134-.144 5.258-.253 8.306-.591 6.448-.713 12.919-1.794 16.569-4.847 4.082-3.4 3.916-5.153 1.35-8.682a6.968 6.968 0 0 0-2.694-2.062c-1.274-.657-1.713-.943-1.717-2.056.195-.667 3.135-1.979 5.726-3.134 2.376-1.057 5.33-2.379 8.684-4.152 10.946-5.782 23.89-23.367 25.116-28.9a35.9 35.9 0 0 0 .631-5.157c.293-3.969.568-7.718 3.62-10.011a4.984 4.984 0 0 0 1.992-5.368Zm-166.318 5.512c5-.718 8.678-2.571 13.6-5.419a.992.992 0 0 0 .275.058 53.093 53.093 0 0 1 9.151.481 67.193 67.193 0 0 0 2.744 10.576 15.335 15.335 0 0 0 9.32 8.683c.039.215.053.44.105.651.441 2 2.43 5.574 5.28 9.589-5.2-1.991-15.352-6.727-18.8-14.478-.042-.1-.1-.239-.145-.354a14.434 14.434 0 0 0-1-2.5c-1.078-2.841-2.2-6.129-2.224-6.176l-.16-.475-.449-.222c-1.957-.985-12.193-.248-16.526.125a58.189 58.189 0 0 0-6.088.558 29.58 29.58 0 0 1 4.916-1.097Zm15.774 2.472c.137.015.315.025.421.043l.076.222c-.161-.096-.334-.175-.497-.265Zm6.17 12.777c6.856 8.707 20.374 12.647 21.031 12.831.038.009.079.009.118.018a89.33 89.33 0 0 0 4.849 5.662 46.82 46.82 0 0 0-17.114-.218c-1.445-2.765-6.313-10.746-13.88-10.538a14.088 14.088 0 0 0 4.996-7.755Zm35.3 31.778c-.8 0-2.626-1.4-4.09-2.526-.68-.515-1.375-1.052-2.066-1.536-6.445-4.52-21.068-1.25-23.654-.534a8.877 8.877 0 0 1-1.524-2.288 11.279 11.279 0 0 0-1.023-1.672c.441-3.549.432-7.355-1.3-10.313a24.508 24.508 0 0 1 5.456 7.3l.422.931.987-.247c7.731-1.891 19.426-.272 21.568 1.72.028.025.071.014.1.039a41.343 41.343 0 0 0 8.191 6.025c.122.067.236.121.358.186-.197.995-2.408 2.915-3.426 2.915Z"/><path data-name="Path 21" d="M1581.714 1050.433a1.229 1.229 0 0 0 1.123.724 1.2 1.2 0 0 0 .5-.112 1.225 1.225 0 0 0 .614-1.626c-6.651-14.713-2.905-32.29 1.425-44.479 2.656-8.349 8.877-27.9-1.264-37.025a1.23 1.23 0 0 0-1.646 1.826c8.962 8.066 3.078 26.556.578 34.411-4.463 12.579-8.318 30.818-1.33 46.281Z"/><path data-name="Path 22" d="M1563.956 1064.67a1.235 1.235 0 0 0 1.122.725 1.233 1.233 0 0 0 1.121-1.738c-9.038-20.008-3.958-43.873 1.908-60.415 3.562-11.2 11.9-37.434-1.586-49.572a1.217 1.217 0 0 0-1.736.089 1.23 1.23 0 0 0 .093 1.734c12.311 11.083 4.305 36.259.9 46.968-6.006 16.925-11.197 41.453-1.822 62.209Z"/><path data-name="Path 23" d="M1546.89 1050.433a1.227 1.227 0 0 0 1.12.724 1.2 1.2 0 0 0 .506-.112 1.228 1.228 0 0 0 .613-1.626c-6.652-14.718-2.9-32.294 1.42-44.479 2.66-8.349 8.88-27.9-1.257-37.025a1.228 1.228 0 1 0-1.643 1.826c8.959 8.064 3.072 26.556.573 34.411-4.467 12.579-8.325 30.814-1.332 46.281Z"/><path data-name="Path 24" d="M1246.838 897.612a1.229 1.229 0 0 0-2.458 0c0 12.584 8.007 34.138 21.044 40.654a1.23 1.23 0 1 0 1.1-2.2c-11.267-5.633-19.686-24.946-19.686-38.454Z"/><path data-name="Path 25" d="M1274.766 1095.962c24.388-7.805 54.737-17.52 60.279-36.392 4.437-15.116-3.531-30-10.562-43.129-5.251-9.808-9.786-18.278-7.875-24.482.837-2.708 2.9-4.89 6.305-6.666l.605-.319.051-.685c.027-.379.5-8.006-4.264-11.627a94.246 94.246 0 0 0 5.444-1.049 3.767 3.767 0 0 0 2.4-1.691c1.776-2.825.513-8.339-.821-14.174-.551-2.42-1.064-4.706-1.336-6.68 2.675-.114 8.61-.612 11.5-2.808 7.144-5.437 3.835-16 2.648-19.1a188.926 188.926 0 0 0-9.012-18.733c-7.956-15.194-16.967-32.416-15.7-47.108.352-4.043.914-7.285 1.459-10.419 1-5.806 1.857-10.9.97-18.83 9.022 1.7 17.6 3.825 24.936 5.653 10.032 2.5 16.56 4.062 20.489 4.062 1.842 0 3.114-.341 3.9-1.09a2.823 2.823 0 0 0 .8-2.708 43.138 43.138 0 0 1 .612-11.3c.514-3.081.912-5.512-1.823-6.841-14.6-7.084-27.323-16.534-38.548-24.866-11.39-8.46-21.271-15.76-30.216-18.486a59.76 59.76 0 0 0-11.49-14.248c4.333-.767 8.61-1.731 11.867-3.815l1.016-.656-.637-1.027c-6.684-10.793-18.546-17.5-28.437-21.47 4.109-1.387 10.628-4.3 13.974-9.575l.5-.788-.627-.695a41.345 41.345 0 0 0-18.448-11.637c3.46-.91 7.83-2.614 11.023-5.811l.814-.813-.754-.865a62.955 62.955 0 0 0-6.388-5.7c4.983-.974 15.264-3.843 20.563-11.434l.581-.834-.713-.727c-4.922-5.036-14.469-13.013-25.746-13.313a20.917 20.917 0 0 0 4.015-7.812l.272-.993-.931-.444a40.684 40.684 0 0 0-30.094-2.184c.963-2.007 1.979-4.588 1.887-6.391l-.042-.835-.8-.265c-11.925-4.019-21.113 2.289-24.328 4.989a18.977 18.977 0 0 0-7.229-7.97 23.272 23.272 0 0 0 5.641-2.628l.795-.659-.518-.9c-3.1-5.359-9.936-9.292-16.772-9.937a17.978 17.978 0 0 0 2.8-4.069l.533-1.007-.972-.608c-6.769-4.241-16.554-2.009-21.7-.343a14.772 14.772 0 0 0 1.866-5.276l.086-.971-.925-.309a21.108 21.108 0 0 0-5.574-.992c6.706-5.18 14.751-15.348 14.615-22.047l-.015-.78-.711-.318a12.388 12.388 0 0 0-4.546-.656h-.006c6.705-7.759 10.748-18.329 10.934-18.815l.438-1.158-1.159-.43a38.721 38.721 0 0 0-7.18-1.89c5.536-4.8 9.456-10.889 10.905-15.016l.355-1.014-.955-.487a23.216 23.216 0 0 0-9.37-2.382c.06-.075.119-.151.181-.225 4.161-5.284 9.344-11.853 10.063-20.593l.093-1.16-1.154-.158c-9.344-1.3-18.267 1.231-27.224 7.68.085-2.99.1-7.439-.452-8.9l-.391-1.029-1.063.277c-13.473 3.466-19.232 11.371-23.29 18.6a28.645 28.645 0 0 0-2.449-7.623l-.516-1.128-1.122.529c-7.789 3.661-16.487 16.893-19.365 26.675a24.353 24.353 0 0 0-3.545-4.692l-1-.989-.849 1.122c-.146.2-13.8 18.743-6.006 37.878a22.328 22.328 0 0 0-3.507-.75l-.715-.1-.434.581c-.69.935-.781 2.654-.677 4.181-12.439-8.174-23.689-8.017-24.174-7.959l-1.22.029.024 1.224a17.381 17.381 0 0 0 .964 4.4c-7.158-2.572-15.514-4.3-25.475.135l-1.183.523.588 1.157a19.543 19.543 0 0 0 1.449 2.5c-6.886.512-14.39 4.188-19.229 7.977l-1 .785.813.974c3.854 4.624 8.535 8.081 12.965 9.649a33.238 33.238 0 0 0-3.949 3.671l-1.075 1.146 1.372.771c6.554 3.661 16 6.6 23.788 5.794a40.19 40.19 0 0 0-2.734 4l-.822 1.465 1.646.341c1.177.244 2.362.415 3.547.551a21.953 21.953 0 0 0-7.354 5.37l-1 1.161 1.347.729a44.818 44.818 0 0 0 5.06 2.007c-5.471 1.772-15.263 5.876-20.711 13.765l-.38.552.258.62c.108.254.982 2.074 4.7 3.41a31.741 31.741 0 0 0-17.234 20.369l-.305 1.039.989.437a22.876 22.876 0 0 0 6.888 1.3c-5.116 5.914-9.222 11.369-10.813 22.943a25.258 25.258 0 0 0-8.937 15.247l-.3 1.465 1.494.01a32.394 32.394 0 0 0 3.389-.093c-8.646 9.238-10.993 24.63-11.262 26.577l-.362 2.565 2.214-1.333a22.329 22.329 0 0 0 1.755-1.188c-2.079 7.578-1.827 18.636-1.814 19.195l.055 2.03 24.02-13.406a31.633 31.633 0 0 0-2.024 7.823l-.1 1.422 1.423-.112c10.072-.78 24.205-10.727 30.284-15.354a84.134 84.134 0 0 0-1.472 10.458l-.113 1.351 1.352-.018c6.247-.065 13.156-4.5 18.4-7.867a63.483 63.483 0 0 0 8.361-7.4 28.88 28.88 0 0 0-1.414 6.974c-1.092 1.142-3.341 3.833-3.523 6.791l-.083 1.333 1.339-.033a11.625 11.625 0 0 0 1.77-.189c-6.825 5.262-12.8 11.344-15.671 22.8l-.584 2.331 2.232-.9c1.236-.493 2.546-1.124 3.815-1.769-5.757 8.364-14.46 25.033-10.038 44.769l.626 2.8 1.6-2.389c.549-.821 1.189-1.834 1.879-2.915.171-.275.35-.56.53-.838-2.061 10.864.895 20.334 6.716 32.609l.773 1.626 1.235-1.31a29.165 29.165 0 0 0 4.013-5.907c1.83 6.869 6.567 22.422 13.184 27.788l1.063.86.741-1.147a21.284 21.284 0 0 0 1.284-2.3c.39.011.778.022 1.166.022a58.379 58.379 0 0 0 12.968-1.608c.233 3.144-2.167 8.4-4.33 13.11-1.15 2.5-2.239 4.863-2.957 6.931-1.476 4.294 2.042 5.541 3.932 6.21 2.054.724 2 .913 1.9 1.286a26.614 26.614 0 0 1-2.52 5.684c-1.278 2.35-2.376 4.369-2.1 6.4.421 3.143 3.307 3.606 5.219 3.918 1.607.266 2.3.452 2.407.946l.529 2.482c1.039 4.921 1.79 8.482 4.024 9.75a3.92 3.92 0 0 0 3.034.232H1130.889c.128-.036.243-.014.376-.061a1.238 1.238 0 0 1 1.3.229c1.064.86 1.906 3.137 2.39 6-.936 5.932-6.836 12.254-13.073 18.941-7.82 8.381-15.9 17.045-14.787 26.054a13.859 13.859 0 0 0 .865 3.3c-5.055 2.621-28.425 15.57-51.451 42.036-23.865 27.422-52.232 75.372-51.841 148.072l2.463-.013c-.7-130.3 91.308-182.331 101.89-187.875 1.818 3.076 4.866 5.981 9.258 8.8 52.291 23.625 75.393 52.337 110.482 111.9a22.159 22.159 0 0 0 1.288 1.849c.021.039 0 .086.026.125.247.373 24.8 37.989 20.466 65.011a1.228 1.228 0 1 0 2.425.39c3.444-21.48-10.08-48.405-17.011-60.454a12.7 12.7 0 0 0 2.342.841 13.137 13.137 0 0 0 2.995.344 16.769 16.769 0 0 0 8.4-2.432l.9-.591-.471-.974c-2.93-6.079-5.663-12.143-8.326-18.12.216-.714.432-1.455.651-2.179 3.32-5.17 17.457-9.698 32.32-14.45Zm40.755-122.449c5.174 1.317 5.607 7.841 5.612 9.946-3.64 2.042-5.893 4.593-6.873 7.776-2.215 7.186 2.546 16.073 8.055 26.366 6.81 12.717 14.523 27.128 10.371 41.277-5.172 17.623-34.837 27.11-58.667 34.74-13.032 4.169-24.2 7.755-30.153 12.06.315-1.07.634-2.138.949-3.216 4.972-1.838 10.833-3.718 17.051-5.707 25.535-8.163 57.315-18.321 62.853-37.186 4.441-15.116-3.527-30-10.558-43.129-5.249-9.808-9.786-18.278-7.873-24.482.835-2.708 2.9-4.89 6.3-6.666l.545-.287.1-.609c.05-.322.99-6.774-2.637-10.728 1.551-.1 3.03-.24 4.447-.409a1.205 1.205 0 0 0 .478.254Zm-131.1 47.122a.745.745 0 0 0 .007-.122 207.76 207.76 0 0 1-1.349-13.274 30.07 30.07 0 0 0 9.886 3.159 85.614 85.614 0 0 1-2.389 16.734q-3.041-3.341-6.156-6.497Zm-46.953-51.3c3.554-16.739 10.244-28.876 16.72-40.611 8.821-15.985 17.146-31.095 16.809-55.812a1187.75 1187.75 0 0 0 9.356-4.108c1.376 26.522-7.257 42.086-16.415 58.516-8.873 15.917-18.014 32.394-19.478 60.032a28.908 28.908 0 0 1-6.994-18.017Zm28.618-40.819c9.445-16.946 18.357-32.971 16.68-60.784.419-.186.857-.372 1.276-.562 2.624-1.171 5.281-2.35 7.942-3.525.038.574.074 1.09.078 1.2 2.5 28.991-6.573 45.253-16.187 62.464-9.894 17.722-20.091 36.08-19.683 69.624-1.191-.817-2.373-1.665-3.581-2.455a32.143 32.143 0 0 1-5.818-4.6c1.018-28.543 10.301-45.236 19.292-61.365Zm-7.425 70.107c-.776-34.017 9.454-52.377 19.365-70.122 9.8-17.551 19.055-34.127 16.492-63.816 0-.094-.082-1.241-.142-2.082q4.576-2 9.179-3.933c.072.893.157 2.01.237 3.059.13 1.676.243 3.167.252 3.21 2.474 28.926-6.587 45.177-16.184 62.386-10.789 19.349-21.9 39.389-19.292 78.876a183.8 183.8 0 0 0-9.908-7.58Zm12.5 9.729c-3.158-40.335 8.024-60.419 18.848-79.832 9.783-17.541 19.021-34.11 16.481-63.807-.016-.14-.122-1.568-.244-3.174-.107-1.383-.227-2.9-.3-3.857q5.029-2.069 10.032-3.952c-.027 3.49 0 6.846.062 10.134a1.183 1.183 0 0 0-.078.535c.071.809.1 1.576.157 2.368q.108 3.92.294 7.654c-.028 23.207-8.091 37.745-16.582 53.019l-.037.067c-10.7 19.27-21.682 39.189-19.317 77.879v.008q.363 5.936 1.174 12.5-5.144-5.018-10.491-9.545Zm24.275.9v-1.228h-1.229c-.047 0-4.815-.086-11.34-3.7-.27-4.8-.3-9.285-.179-13.533 10.187 10.983 19.779 13.01 23.138 13.383-.229 9.861-3.3 21.476-6.773 32.78a245.41 245.41 0 0 0-6.455-7.6 87.71 87.71 0 0 0 2.837-20.103Zm12.858-6.224v-1.226h-1.225c-.122 0-12.013-.223-24.238-14.564a118.832 118.832 0 0 1 2.231-17.565c13.278 24.359 29.055 27.812 33.6 28.281-.3 13.25-5.76 29.99-11.525 47.685l-.413 1.272c-.872-1.193-1.692-2.382-2.607-3.578-1.063-1.387-2.142-2.7-3.212-4.04 3.861-12.429 7.389-25.382 7.389-36.266Zm1.183 43.373c5.994-18.4 11.657-35.79 11.657-49.6v-1.236l-1.234.008c-.243 0-19.173-.326-33.988-29.521a108.927 108.927 0 0 1 5.566-16.728c13.995 37.211 34.723 41.835 40.047 42.4-.308 13.246-5.808 30.138-11.619 47.986-1.911 5.871-3.863 11.938-5.719 18.063q-2.678-4.2-5.668-8.4Zm12.765-5.935c6.044-18.565 11.749-36.1 11.749-49.9v-1.225h-1.225c-.247 0-24.707-.574-39.855-43.251 2.37-5.179 4.958-10.008 7.573-14.735 13.61 48.255 38.009 53.577 43.887 54.143-.309 13.252-5.781 30.065-11.566 47.839-3.944 12.116-7.966 24.627-10.954 37.394a228.291 228.291 0 0 0-5.935-10.227c2.023-6.801 4.205-13.531 6.325-20.039Zm12.9-6.373c6.019-18.487 11.7-35.947 11.7-49.758v-1.24l-1.237.011c.008 0-7.3-.026-16.217-6.771-8.243-6.235-19.63-19.643-27.205-48.054 2.851-5.137 5.645-10.205 8.114-15.542 12.625 59.533 40.589 65.868 46.929 66.521-.309 13.235-5.767 30-11.536 47.714-6.2 19.055-13.115 40.467-14.9 61.325a335.98 335.98 0 0 0-7.185-14.375c3-13.577 7.333-26.922 11.535-39.832Zm12.88-6.354c6-18.425 11.671-35.829 11.671-49.631v-1.225h-1.224c-.333 0-33.337-.88-46.466-68.008a86.664 86.664 0 0 0 5.6-19.052c7.067 66.254 35.718 78.558 54.429 79.206 1.931 8.923-5.583 33.494-13.525 59.459-8.306 27.157-17.611 57.628-19.037 78.893-2.188-4.924-4.36-9.785-6.584-14.605 1.089-21.887 8.544-44.805 15.134-65.041Zm15.108 18.533a29.8 29.8 0 0 1-.983 13.5 25.441 25.441 0 0 1-7.974 11.283 251.28 251.28 0 0 1 8.955-24.784Zm-10.268 28.98c6.038-4.431 9.853-9.247 11.622-14.718 1.817-5.6 1.939-11.583.423-18.278 1.98-4.337 3.8-8.46 5.426-12.329 4.174 9.138 7.495 19.574 4.166 29.848-2.535 7.843-9.981 14.42-23.188 20.589q.771-2.58 1.549-5.113Zm-2.49 8.268c15.142-6.734 23.575-14.048 26.467-22.988 3.843-11.86-.429-23.655-5.222-33.7 1.539-3.743 2.943-7.3 4.176-10.609.383.734.754 1.455 1.145 2.2 6.767 12.851 14.432 27.416 9.931 41.353-4.2 12.962-21.1 20.445-37.267 26.345.258-.868.51-1.737.764-2.603Zm-1.632 5.53c17.213-6.191 35.778-14.047 40.467-28.518 4.822-14.918-3.1-29.973-10.09-43.254a675.153 675.153 0 0 1-2.189-4.191c1.738-4.831 3.174-9.208 4.313-13.091 1.275 5.513 4.5 11.677 8.056 18.436 6.761 12.848 14.428 27.412 9.917 41.346-4.946 15.3-27.393 23.034-49.1 30.521l-1.931.665q.272-.957.554-1.916Zm37.193-113.04a13.3 13.3 0 0 1 2.545 7.164 18.458 18.458 0 0 0-3.8 2.815 71.114 71.114 0 0 0 1.253-9.981Zm-38.974 119.125.374-1.278 3.574-1.237c22.283-7.678 45.323-15.623 50.644-32.089 4.827-14.918-3.091-29.97-10.079-43.248-5.312-10.093-9.9-18.813-7.878-25.267.9-2.861 3.092-5.159 6.7-7.029l.647-.337.016-.727c.007-.316.046-7.455-4.986-11.22.011-.561.029-1.056.064-1.413 1.066.318 2.145.612 3.234.873 1.826.43 3.656.764 5.472 1.022a1.228 1.228 0 0 0 .56.52c4.619 1.984 5.4 7.511 5.534 9.469-3.819 2.128-6.185 4.786-7.229 8.11-2.335 7.432 2.476 16.57 8.043 27.15 6.756 12.848 14.423 27.408 9.914 41.342-4.943 15.288-30.195 23.98-52.474 31.65-4.263 1.465-8.392 2.9-12.319 4.347Zm-1.032 3.54c.039-.011.077-.011.117-.025 4.355-1.634 9.043-3.246 13.851-4.9 22.82-7.854 48.691-16.763 54.013-33.218 4.825-14.915-3.094-29.97-10.082-43.244-5.313-10.093-9.9-18.812-7.873-25.266.9-2.862 3.09-5.164 6.706-7.034l.647-.337.016-.731c.006-.311.006-6.346-3.867-10.236 2.555.183 5.019.2 7.412.147a1.2 1.2 0 0 0 .208.164c4.077 2.03 3.956 7.611 3.8 9.431-3.675 2.049-5.947 4.606-6.936 7.812-2.213 7.186 2.547 16.073 8.056 26.363 6.81 12.72 14.524 27.131 10.369 41.281-5.17 17.611-36.261 27.551-61.245 35.539-5.56 1.777-10.811 3.464-15.444 5.125.077-.292.163-.584.251-.873Zm66.359-240.524c-5.771-5.169-17.329-2.854-28.553-.592-6.771 1.368-13.164 2.665-17.614 2.131a7.97 7.97 0 0 0-.222-.025c4.468-3.267 30-11.217 42.126-9.245 2.908.48 4.558 1.494 4.948 3-.245 1.49-.481 3.035-.685 4.729Zm1.257-8.121c-2.549-2.1-7.515-2.816-14.911-2.1-12.785 1.236-35.7 7.787-35.743 12.053-.011 1.2.978 1.927 2.943 2.152 4.84.56 11.417-.758 18.383-2.163 11.7-2.354 23.775-4.774 27.744 1.6-1.113 15.294 7.96 32.659 15.99 48a188.106 188.106 0 0 1 8.894 18.469c1.03 2.7 3.943 11.866-1.84 16.268-2.533 1.927-9.085 2.35-11.395 2.353h-.76l-.34.677c-3.026 6.054-21.241 9.936-29.687 8.65-2.5-.372-3.481-1.107-3.563-1.622-1.31-7.862.621-13.2 14.281-15.492a1.231 1.231 0 0 0-.409-2.428c-13.371 2.249-18.091 7.554-16.3 18.321.317 1.913 2.209 3.138 5.627 3.654a26.212 26.212 0 0 0 3.883.25c8.359 0 21.118-2.778 26.467-7.815.305 1.712.684 3.517 1.123 5.449 1.056 4.612 2.368 10.354 1.137 12.316a1.277 1.277 0 0 1-.861.6c-6.985 1.595-20.739 3.78-34.365.557a54.162 54.162 0 0 1-4.369-1.244l-1.086-.354-.437 1.05a12.059 12.059 0 0 0-.437 4.465c.145 6.462-1.693 26.183-21.762 69.577-6.031 13.05-11.684 32.434-17.15 51.177q-1.063 3.639-2.118 7.232c2.5-20.521 10.846-47.86 18.376-72.471 8.676-28.379 16.171-52.886 13.288-61.768l-.269-.834-.88-.012c-19.134-.282-50.118-13.228-54.122-92.072 0-2.518-.111-5.165-.3-7.9a379.683 379.683 0 0 1-.138-13.016v-.822c8.2-2.989 16.544-6.876 24.618-10.637 6.674-3.109 13.567-6.323 20.277-8.976 14.786-5.846 33.583-4.64 51-1.559.969 7.796.181 12.801-.789 18.414Zm-76.8-193.821a26.785 26.785 0 0 1-3.07 7.171l-2.124 3.585 3.732-1.854a37.972 37.972 0 0 1 30.171.512 16.8 16.8 0 0 1-5.174 7.819l-3.7 2.705 4.554-.491c8.248-.877 17.768 3.381 26.225 11.72-6.665 8.4-20.871 10.01-21.017 10.028l-3.042.327 2.418 1.865c.058.043 4.932 3.818 7.414 6.255-5.39 4.555-13.836 5.254-14.115 5.275a61.523 61.523 0 0 0-17.314-.8 36.494 36.494 0 0 0 6.136-9.972l.372-1-.937-.512a47.994 47.994 0 0 0-16.1-4.939c-.046-.1-.026-.223-.105-.312a29.306 29.306 0 0 0-12.771-8.271 156.586 156.586 0 0 1 22.364-.426c4.483 1.186 11.689 7.25 14.563 10.241a1.237 1.237 0 0 0 1.736.039 1.232 1.232 0 0 0 .036-1.741 61.468 61.468 0 0 0-9.943-8.116c8.755.733 17.135 2.016 25.02 3.445a1.244 1.244 0 0 0 1.428-.992 1.229 1.229 0 0 0-.99-1.428c-7.988-1.448-16.485-2.745-25.364-3.486a41.387 41.387 0 0 0 6.989-3.658 1.228 1.228 0 1 0-1.334-2.062 33.03 33.03 0 0 1-12.14 5.086c-.231.044-.4.078-.5.1a1.3 1.3 0 0 0-.149.072 157.222 157.222 0 0 0-22.545.526 43.955 43.955 0 0 0 11.259-11.025 1.231 1.231 0 1 0-2-1.428 39.554 39.554 0 0 1-15.7 13.227 132.243 132.243 0 0 0-16.818 3.567 32.064 32.064 0 0 0 9.656-12.171 1.23 1.23 0 0 0-2.217-1.063c-3.553 7.442-7.6 10.387-11.891 13.5a90.892 90.892 0 0 0-2.728 2.031l-.016.022a1.288 1.288 0 0 0-.176.2c-13.632 3.084-26.634 9.245-32.727 15.266-.062-.261-.127-.523-.189-.782.045-.125.157-.221.161-.365.146-4.294 1.888-12.529 7.4-17.269a15.894 15.894 0 0 1 2.2 4.579l1.11 3.8 1.241-3.758a37.927 37.927 0 0 1 14.945-17.992 29.5 29.5 0 0 1 .6 7.04l-.215 4.788 2.494-4.09a27.981 27.981 0 0 1 4.843-5.767 48.981 48.981 0 0 0 7.346 1.919l1.483.258-.118-4.083c-.054-2.078-.094-3.6-.222-5.123 4.143 1.978 10.506 4.568 18.743 2.966l1.147-.223-.161-1.156a44.681 44.681 0 0 0-1.824-8.238c1.973-1.815 10.383-8.615 21.651-5.343Zm-30.305 31.635a57.489 57.489 0 0 0-4.083-.061c2.965-.645 5.916-1.2 8.843-1.63l.043.015a1.12 1.12 0 0 0 .321-.062c.266-.036.529-.064.788-.1 5.857 1.694 10.812 3.424 15.166 7.475a55.871 55.871 0 0 0-21.93 2.4 26.04 26.04 0 0 0 2.006-6.637l.2-1.336Zm-57.571-1.831a190.63 190.63 0 0 1-4.846-18.657c3.406 3.521 7.052 6.375 10.562 7.644l1.026.373.49-.974a26.39 26.39 0 0 0 2.354-7.938q.494.464 1.009.954c3.868 3.643 8.608 8.087 12.732 9.85a40.56 40.56 0 0 0-7.29 10.344 11.389 11.389 0 0 0-2.487-3.567l-.744-.652-.8.591c-4.893 3.625-7.367 9.51-8.482 14.417-1.178-4.351-2.395-8.532-3.525-12.387Zm26.3-11.525a29.37 29.37 0 0 0 .551-5.774 44.328 44.328 0 0 0 3.943 2.518 40.515 40.515 0 0 0-4.489 3.254Zm8.242-1.351c.881.413 1.755.821 2.667 1.183a28.5 28.5 0 0 0-2.136 2.328 26.139 26.139 0 0 0-.526-3.513Zm-9.2-38.577c.135-.062 13.453-5.8 21.842-1.664a14.73 14.73 0 0 1-3.911 4.373l-3.121 2.442 3.955-.25c6.387-.44 13.608 2.94 17.043 7.772a48.932 48.932 0 0 1-6.477 2.471l-2.837.876 2.625 1.387c7.576 3.994 9.662 8.564 10.966 16.985-7.726 1.117-13.649-1.78-17.257-3.546l-2.885-1.39.331 2.282a55.238 55.238 0 0 1 .457 7.095l.03 1.064a47.513 47.513 0 0 1-12.556-4.563l-.106-.276-.194.111a40.258 40.258 0 0 1-7.089-4.7l-2.679-2.293.674 3.46a23.446 23.446 0 0 1-.416 8.582c-3.626-1.777-8.095-5.993-11.455-9.159-1.109-1.045-2.136-2.012-3.033-2.8l-2.246-1.991.2 2.994a20.3 20.3 0 0 1-1.708 8.433c-9.707-4.474-21.033-22.315-22.688-28.477a104.511 104.511 0 0 1 15.017.542c4.517 2.343 5.65 7.978 6.4 11.712l.193.964a1.23 1.23 0 0 0 1.2.978 1.18 1.18 0 0 0 .255-.029 1.229 1.229 0 0 0 .95-1.453l-.191-.941c-.591-2.963-1.486-7.418-4.251-10.68 5.111.7 10.214 1.669 15.169 2.838l.013.028c2.835 2.275 3.318 7.551 3.67 11.4a1.228 1.228 0 0 0 1.22 1.118h.115a1.235 1.235 0 0 0 1.114-1.336c-.289-3.174-.666-7.207-2.314-10.28a179.782 179.782 0 0 1 15.054 4.588 11.757 11.757 0 0 1 4.69 6.83 1.227 1.227 0 0 0 1.173.871 1.259 1.259 0 0 0 .359-.054 1.225 1.225 0 0 0 .817-1.536 17.534 17.534 0 0 0-1.9-4.18c6.524 2.579 11.736 5.186 14.71 7.342a1.211 1.211 0 0 0 .718.23 1.227 1.227 0 0 0 .722-2.224c-3.118-2.258-8.736-5.115-15.89-7.934a19.079 19.079 0 0 0 5.939-1.742 1.231 1.231 0 0 0-1.2-2.148c-2.687 1.511-8.871 1.98-9.757 1.916a1.865 1.865 0 0 0-.2.033 179.646 179.646 0 0 0-11.955-3.742 50.064 50.064 0 0 0 11.35-4.324 1.228 1.228 0 1 0-1.142-2.174 46.663 46.663 0 0 1-15.725 5.067 169.72 169.72 0 0 0-10.777-2.234 28.941 28.941 0 0 0 10.051-4.094 1.228 1.228 0 1 0-1.333-2.063c-7.05 4.559-14.1 4.571-19.758 4.506h-1.207a1.2 1.2 0 0 0-.254.05c-3.128-.25-6.233-.38-9.3-.365a27.226 27.226 0 0 0 5.87-3.41c.028-.021.065-.01.091-.036.173-.175.415-.383.672-.6.062-.058.129-.1.188-.161 4.891-3.966 21.946-13.543 33.661-10.527a21.907 21.907 0 0 1-3.182 6.187l-2.726 3.7Zm-60.591 18.992c.12-.6.309-1.275.491-1.928.223-.787.441-1.568.566-2.277l.5-2.887-2.413 1.658c-4.72 3.245-8.725 5.362-13.471 5.648 1.227-2.478 3.338-4.134 5.553-5.871.565-.449 1.134-.9 1.69-1.351l2.719-2.252-3.528.074a22.419 22.419 0 0 1-4.326-.314c4.22-2.075 6.715-1.942 10.707-1.705l5.561.279-3.229-2.41c-.321-.237-.6-.471-.848-.688 5.531-.567 11.379-.458 15.86 2.958-.661 3.36-2.382 7.35-4.338 9.375a42.741 42.741 0 0 0-1.15-4.2l-.827-2.7-1.412 2.45a11.89 11.89 0 0 1-8.105 6.139Zm10.535-27.083 2.037 1.642-.047-3.181c-.039-2.31-.067-3.987 1.134-6.132.229.361.468.723.7 1.078a20.9 20.9 0 0 1 1.391 2.3l1.125 2.461 1.112-2.468c.262-.584.518-1.178.766-1.766 1.266-2.97 2.464-5.792 5.112-7.408.7 2.729-.318 5.906-1.092 8.313l-1.306 4.159 2.9-1.945a6.707 6.707 0 0 1 4.744-1.221c-.249 3-2.24 5.523-4.959 8.661l-2 2.3 3.036-.277a8.5 8.5 0 0 0 1.383-.268 6.081 6.081 0 0 1 2.375-.258 9.2 9.2 0 0 1-2.225 2.98c-.243.2-.44.379-.6.538a30.867 30.867 0 0 1-6.828 3.688c-.625.276-1.246.548-1.854.828-4.564-4.75-8.724-10.811-8.2-15.036.409.295.856.653 1.296 1.01Zm-9.694-56.854a17.983 17.983 0 0 1 3.479 6.106l1.612 5.678.788-5.85c1.162-8.585 9.893-23.347 17.706-27.971a30.326 30.326 0 0 1 2.241 9.392l.444 3.929 1.862-3.491c4.1-7.694 8.727-16.384 22.245-20.3a82.332 82.332 0 0 1 0 9.409l-.132 2.7 2.121-1.672c8.846-6.967 17.224-9.815 26.273-8.894-1 7.417-5.461 13.073-9.422 18.095-.684.868-1.343 1.708-1.961 2.522l-2.054 2.715 3.314-.777c3.62-.845 7.815.612 9.7 1.4a38.435 38.435 0 0 1-12.365 14.959l-4.579 3.263 5.521-1.057c2.115-.379 6.053.652 8.367 1.4-1.4 3.32-5.785 12.952-12 19.009l-2.547 2.485 3.534-.383a22.632 22.632 0 0 1 5.631.071c-.706 6.534-10.2 17.909-16.813 21.294-.023.011-.033.032-.055.043-8.184.956-16.547 4.95-22.006 8.28l.018-.042.327-1.124-1.113-.38a7.985 7.985 0 0 0-2.8-.444c1.924-2.472 3.529-5.269 3.413-8.665l-.029-.845-.795-.277a7.988 7.988 0 0 0-5.068-.015c.839-2.875 1.477-6.317-.053-9.44l-.509-1.036-1.067.44c-4.2 1.748-5.863 5.294-7.37 8.812-.091-.144-.189-.287-.28-.434-.12-.177-.235-.358-.348-.537.47-1.329.966-2.587 1.454-3.872 8.611-8.615 18.97-11.655 32.569-9.543a1.229 1.229 0 0 0 .376-2.428c-12.562-1.967-22.538.269-30.982 6.942a169.12 169.12 0 0 1 8.915-18.507 43.934 43.934 0 0 1 28.123-7.454 1.252 1.252 0 0 0 1.3-1.15 1.232 1.232 0 0 0-1.146-1.3 46.584 46.584 0 0 0-25.654 5.455 145.6 145.6 0 0 1 11.951-16.96 1.2 1.2 0 0 0 .387-.128c2.939-2.229 8.581-3.347 16.333-3.188h.022a1.227 1.227 0 0 0 .024-2.454 44.842 44.842 0 0 0-13.02 1.408 116.042 116.042 0 0 1 21.5-18.955 1.23 1.23 0 0 0-1.374-2.042 117.765 117.765 0 0 0-20.515 17.8 58.655 58.655 0 0 0 1.185-6.817 1.225 1.225 0 0 0-1.074-1.364 1.211 1.211 0 0 0-1.365 1.071c-.917 7.661-2.439 10.785-2.94 11.813l-.059.114a148.049 148.049 0 0 0-13.327 18.712 63.048 63.048 0 0 0-1.913-17.98 1.229 1.229 0 1 0-2.378.619 60.65 60.65 0 0 1 1.407 22.322 172.8 172.8 0 0 0-8.631 17.991c-.956-9.846-3.623-16.44-9.137-23.027a1.231 1.231 0 0 0-1.888 1.58c6.058 7.231 8.479 14.513 8.926 26.831-.217.577-.437 1.146-.651 1.733l-.527-1.075-1.208 1.592a11.651 11.651 0 0 0-2.689 7.338 6.57 6.57 0 0 0-.641-.286c-2.972-8.554-6.946-13.951-12.449-16.716-7.985-15.832.954-31.923 3.866-36.445Zm-45.224 68.875c-7.1 1.9-16.751-.666-23.74-4.232a23.053 23.053 0 0 1 4.56-3.625l2.851-1.687-3.258-.584c-3.354-.6-8.532-3.158-13.346-8.542 5.158-3.732 12.816-7.152 19.288-6.715l3.305.189-2.378-2.3a11.383 11.383 0 0 1-2.175-2.761c9.833-3.887 18.072-1.314 25.055 1.439l3.29 1.3-1.772-3.06a19.3 19.3 0 0 1-1.635-4.688 46.154 46.154 0 0 1 23.62 9.07l2.825 2.081-.905-3.388a13.83 13.83 0 0 1-.334-4.385c7.741 1.375 12.658 6.577 16.287 17.114-1.242 3.733.634 8.146 3.177 11.945q-2.82-1.444-5.515-2.719a1.516 1.516 0 0 0-.112-.1c-.017-.015-.01-.04-.028-.05a27.032 27.032 0 0 1-9.57-14.406 1.229 1.229 0 0 0-2.377.623 28.814 28.814 0 0 0 5.838 11.133 140.063 140.063 0 0 0-15.918-5.681c-.07-.068-.086-.175-.173-.23-.041-.023-4.02-2.392-9.9-10.107a1.228 1.228 0 1 0-1.952 1.491 62.423 62.423 0 0 0 6.5 7.381 116.263 116.263 0 0 0-17.67-2.751l.03-.133a33.752 33.752 0 0 1-8.855-5.294 1.227 1.227 0 1 0-1.507 1.938 50.4 50.4 0 0 0 4.5 3.142c-3.742-.145-7.271-.158-10.63-.169l-3.724-.014a1.157 1.157 0 0 0-1.242 1.218 1.227 1.227 0 0 0 1.221 1.239l3.735.018c2.739.007 5.54.021 8.427.093a54.065 54.065 0 0 0-4.452 2.55 1.229 1.229 0 0 0 1.313 2.078c3.766-2.381 6.771-3.915 9.887-4.315a113.46 113.46 0 0 1 16.146 2.252 29.575 29.575 0 0 0-10.832 7.94 1.231 1.231 0 0 0 1.927 1.533c3.3-4.144 9.033-7.3 13.264-8.442a129.416 129.416 0 0 1 17.956 6.072 31.5 31.5 0 0 0-14.68 4.459 1.228 1.228 0 1 0 1.209 2.138c8.294-4.677 14.553-4.573 20.061-3.657 1.411.662 2.826 1.33 4.287 2.063a47.771 47.771 0 0 0-10.549.467l-3.1.4 2.545 1.816c.072.053.144.1.215.162-3.9-.166-7.113.214-12.854 3.691l-2.334 1.416 2.6.81c.715.222 1.488.415 2.3.58-2.7 1.357-7.567 2.335-11.321 2.8a42.856 42.856 0 0 1 1.841-6.126l1.6-3.628-3.375 2.084a29.949 29.949 0 0 1-13.915 4.1h-.038a36.192 36.192 0 0 1-7.707-.36c.78-1.146 1.744-2.411 2.625-3.564l3.029-4.022Zm-26.06 57.7a33.81 33.81 0 0 1-7.479-.824 29.229 29.229 0 0 1 18.98-18.983l5.914-1.447-6.007-.963c-3.963-.637-5.706-1.815-6.393-2.464 7.331-9.739 22.469-13.1 22.621-13.135l4.53-.978-4.413-1.4c-1.412-.447-4.776-1.554-6.953-2.431 3.471-3.267 7.873-4.647 10.359-5.428l.527-.168a34 34 0 0 0 12.271-2.937c-.723 2.468-1.274 5.046-1.307 5.2l-.343 1.629 1.657-.149c1.008-.09 7.927-.767 12.642-2.662a13.068 13.068 0 0 0-3.468 5.621l-.448 1.521 1.585.053c5.563.245 10.127-1.906 14.031-4.333a15.54 15.54 0 0 0-.308 1.422 1.032 1.032 0 0 0-.231.047c-10.788 4.609-20.927 5.992-29.33 4a1.23 1.23 0 1 0-.565 2.393 36.614 36.614 0 0 0 8.483.953 52.361 52.361 0 0 0 15.159-2.489 198.13 198.13 0 0 0-12.159 9.954c-6.541 3.428-22.712 7.848-27.6 6.247a1.229 1.229 0 0 0-.768 2.335 12 12 0 0 0 3.641.459c5.354 0 13.284-2.006 19.421-4.18a209.063 209.063 0 0 0-11.57 11.9c-.074.032-.164 0-.235.058-.1.067-10.19 7.3-20.867 7.464a1.227 1.227 0 0 0 .017 2.454h.017a38.915 38.915 0 0 0 16.209-4.366 180.047 180.047 0 0 0-12.2 16.326c-.028.021-.068.01-.093.035a37.1 37.1 0 0 1-13.791 8.851 1.231 1.231 0 0 0 .452 2.375 1.188 1.188 0 0 0 .451-.09 43.053 43.053 0 0 0 8.923-4.63 92.081 92.081 0 0 0-7.779 16.4 1.228 1.228 0 0 0 .764 1.558 1.206 1.206 0 0 0 .4.068 1.235 1.235 0 0 0 1.166-.837 98.45 98.45 0 0 1 10.158-20.209 48.915 48.915 0 0 0 2.252 10.42c.28.957.547 1.87.777 2.722a1.237 1.237 0 0 0 1.185.91 1.092 1.092 0 0 0 .323-.047 1.225 1.225 0 0 0 .867-1.508c-.232-.863-.508-1.794-.795-2.773-1.382-4.692-3.1-10.537-1.65-14.158.01-.025.005-.054.017-.079a184.311 184.311 0 0 1 13.452-17.315 72.758 72.758 0 0 0 5.662 27.659 1.236 1.236 0 0 0 1.143.769 1.207 1.207 0 0 0 .455-.088 1.225 1.225 0 0 0 .682-1.6 71.671 71.671 0 0 1-5.506-29.334.726.726 0 0 0-.019-.083 206.789 206.789 0 0 1 14.761-14.7c1.113 11.168 8.99 25.643 12.886 31.246a1.232 1.232 0 0 0 1.01.522 1.191 1.191 0 0 0 .7-.22 1.227 1.227 0 0 0 .309-1.712c-3.845-5.52-12.349-21.226-12.582-31.936a192.439 192.439 0 0 1 16.326-12.754l.93-.111c.044-.007.083-.022.126-.029.946 8.471 5.246 18.876 9.216 25.076a1.234 1.234 0 0 0 1.035.563 1.215 1.215 0 0 0 .664-.194 1.231 1.231 0 0 0 .374-1.7c-4.4-6.87-8.118-17.11-8.879-24.25a13.874 13.874 0 0 0 7.388-4.846 31.252 31.252 0 0 1 .69 3.36l.262 1.626 1.482-.713c2.411-1.162 4.389-4.346 5.681-7.58.624 1.4 1.44 3 2.4 4.689a45.229 45.229 0 0 1 5.272 21.981c-.118 7.471-1.823 17.516-9.062 24.042-.392-1.125-.685-2.261-.989-3.446-.231-.893-.459-1.78-.73-2.671l-1.616-5.289-.776 5.478c-1.373 9.688-9.312 17.55-17.208 24.213a42.161 42.161 0 0 1 .239-5.126l.6-5.086-2.844 4.259c-7.152 10.705-11.8 17.125-22.122 21.705a34.421 34.421 0 0 1-1.178-5.9l-.358-3.084-1.849 2.5c-3.259 4.4-9.16 11.88-14.083 15.456l-2.56-12.078-2.372 2.508c-6.4 6.769-11.125 11.752-20.585 18.64a107.576 107.576 0 0 1-1.95-19.192l.822-.58-.82.337a39.818 39.818 0 0 1 .582-6.594l.508-2.78-2.382 1.525c-1.241.8-3.74 2.2-5.7 3.21 1.07-15.074 5.675-20.349 11.947-27.531l2.24-2.568Zm95.217-8.163c1.31 5.025 3.517 13.446 5.49 20.861a48.5 48.5 0 0 0-14.337-7.82 27.693 27.693 0 0 0 8.847-13.043Zm-11.088 12.447a22.69 22.69 0 0 0-2.2-.369c.411-.881.816-1.767 1.14-2.68a25.724 25.724 0 0 0 1.06 3.047Zm-17.477 17.551a91.95 91.95 0 0 0 8.273-7.831c1.063 2.479 3.524 4.693 6.4 6.412a80.984 80.984 0 0 0-14.673 1.417Zm-4.485.957c-.979.229-1.971.493-2.964.759a126.81 126.81 0 0 0 2.925-4.075c-.008 1.147.016 2.257.038 3.314Zm-42.523 18.349a374.707 374.707 0 0 0-8.243 4.675c2.593-2.468 4.979-4.951 7.6-7.712Zm-39.262-1.572a21.939 21.939 0 0 1 5.771-10.517q-.118 1.441-.194 3l-.093 1.977 1.817-.795c1.321-.577 3.689-1.834 5.627-2.944a49.819 49.819 0 0 0-.259 5.44l-6.833 2.79a15.48 15.48 0 0 1-5.837 1.047Zm81.437 157.8c-7.174-7.4-12.053-28.512-12.1-28.738l-.839-3.693-1.488 3.482a39.807 39.807 0 0 1-3.858 6.838c-6.194-13.438-8.514-23.443-3.735-36.277l2.668-7.178-4.781 5.978c-1.525 1.906-3.308 4.714-4.879 7.192l-.193.3c-3.42-21.637 9.208-39 13.316-43.965l3.294-3.984-4.737 2.074c-.731.323-1.749.85-2.9 1.455-1 .522-2.078 1.085-3.145 1.6 3.608-11.459 10.721-16.6 18.876-22.5l8.945-6.472-9.288 3.733a39.155 39.155 0 0 1-6.186 1.883 10.851 10.851 0 0 1 1.891-3.055l.32-.068c12.884-2.87 23.192-14.328 27.626-20.008.021 3.45.316 8.167 1.636 10.266l.61.963 1.009-.537c3.64-1.934 9.981-8.192 14.982-16.312 1.7-.6 8.317-.495 10.058.845.093.072.2.062.309.1a1.188 1.188 0 0 0 .824.369 1.129 1.129 0 0 0 .265-.033 1.226 1.226 0 0 0 .938-1.461c-.046-.208-3.487-16.021-5.244-24.514a25.4 25.4 0 0 0-1.038-5.7 1.235 1.235 0 0 0-1.541-.8 2.1 2.1 0 0 0-.849 1.77c.089.655.491 2.668 1.042 5.336 1.115 15.989-12.754 32.824-19.758 37.531-.816-2.765-.884-8.314-.7-11.642l.247-4.517-2.5 3.772c-.119.179-11.7 17.454-26.933 21.782.387-4.435 3.253-11.05 3.284-11.123l2.916-6.681-4.947 5.352c-.078.09-8.152 8.807-12.191 11.4-4.4 2.827-10.3 6.608-15.529 7.253.835-8.517 2.187-12.017 2.2-12.049l1.752-4.437-3.679 3.034c-.187.153-18.172 14.886-30.327 16.927a49.088 49.088 0 0 1 2.933-8.764l1.519-3.386-26.71 14.912c.028-4.5.4-15.2 3.1-19.979l2.593-4.579-4.351 2.956c-.955.648-1.735 1.247-2.463 1.806l-.18.14c1.2-5.886 4.8-19.228 13.489-25.316l5.682-3.98a106.339 106.339 0 0 0 1.351 14 21.4 21.4 0 0 0-8.732 4.084 1.23 1.23 0 0 0 1.614 1.854 18.946 18.946 0 0 1 7.5-3.5c.18 1.068.362 2.146.57 3.275-5.641 4.394-9.985 8.871-13.013 13.933a1.227 1.227 0 1 0 2.109 1.256c4.221-7.053 11.2-13 21.044-19.3a49.642 49.642 0 0 0-3.238 13.037 1.229 1.229 0 0 0 1.05 1.387 1.53 1.53 0 0 0 .167.011 1.233 1.233 0 0 0 1.22-1.06c.692-5.064 1.854-11.4 4.763-15.463a1.094 1.094 0 0 0 .1-.456q4.871-2.937 10.6-6.078l1.136 5.354 1.467-.852c4.611-2.672 10.159-9.073 14.5-14.722a16.728 16.728 0 0 0 1.377 4.606c-3.029 5.1-5.119 11.813-6.347 20.5a1.228 1.228 0 0 0 1.045 1.387 1.464 1.464 0 0 0 .172.014 1.231 1.231 0 0 0 1.219-1.06c1.257-8.895 3.412-15.6 6.572-20.5a40.234 40.234 0 0 0 15.333-11.624.96.96 0 0 0 .183-.024 102.795 102.795 0 0 1 5.38-1.444l.008.222.364-.305c.9-.211 1.785-.393 2.668-.58-5.054 8.289-6.755 15.431-6.5 27.051a1.225 1.225 0 0 0 1.224 1.2h.029a1.232 1.232 0 0 0 1.2-1.258c-.258-12.067 1.5-18.753 7.261-27.522.013-.021 0-.051.013-.075a74.5 74.5 0 0 1 16.735-1.05c-2.677 4.539-4 12.734-2.983 19.71a1.224 1.224 0 0 0 1.214 1.05 1.678 1.678 0 0 0 .178-.011 1.231 1.231 0 0 0 1.041-1.4c-1.129-7.726.806-15.889 3.373-19.091a58.585 58.585 0 0 1 5.846.874 1.229 1.229 0 1 0 .5-2.406 61.459 61.459 0 0 0-6.754-.975 1.286 1.286 0 0 0-.379-.224c-5.52-1.924-9.89-5.5-10.4-8.508-.011-.058-.072-.085-.09-.143a40.867 40.867 0 0 0 3.9-5.567c9.692.571 20.2 9.64 21.4 10.695l.044.019a1.213 1.213 0 0 0 .772.294 1.137 1.137 0 0 0 .319-.046c.028-.008.054-.03.082-.04a1.266 1.266 0 0 0 .209-.1 1.1 1.1 0 0 0 .228-.169.766.766 0 0 0 .08-.056c.019-.02.006-.041.021-.058a1.216 1.216 0 0 0 .269-.774 1.023 1.023 0 0 0-.008-.115.99.99 0 0 0-.014-.189c-2.983-11.132-7.075-26.825-7.587-28.794a49.815 49.815 0 0 0 .942-8.829 46.683 46.683 0 0 0-1.476-12.684 72.725 72.725 0 0 0 1.935 2.407.82.82 0 0 0-.011.128c.584 5.91 2.844 13.618 5.461 22.541 1.879 6.4 4.005 13.64 5.768 21.168a1.246 1.246 0 0 0 .439.688 1.226 1.226 0 0 0 .752.262 1.2 1.2 0 0 0 .132-.015l.034-.006a.591.591 0 0 0 .116-.014 1.169 1.169 0 0 0 .637-.413c.015-.014.039-.01.052-.028 6.711-8.589 31.43-18.479 50.463-18.1a26.572 26.572 0 0 1-2.952 7.325l-2.137 3.423 3.683-1.647c11.637-5.2 30.03-4.645 41.632 1.15a40.531 40.531 0 0 1-7.426 10.648l-2.591 2.759 3.719-.71c.263-.053 25.947-4.717 41.869 11.974-4.768 6.419-15.424 8.722-15.536 8.748l-4.261.9 4.1 1.462c9.746 3.474 22.712 9.861 29.988 20.711-3.375 1.758-7.919 2.521-12.33 3.259l-2.49.418 1.864 1.7c11.143 10.181 15.734 18 19 32.719-16.738-.573-26.336-1.173-40.041-10.988l-2.408-1.726.477 2.926c.741 4.517 1.182 7.655.7 10.08-21.9-8.042-27.792-20.027-27.852-20.152l-2.154-4.542-.185 5.022c0 .086-.312 7.721-2.451 11.862-14.786-10-23.238-25.882-23.325-26.043l-1.344-2.561-.913 2.744a61.23 61.23 0 0 1-4.049 9.3c-11.377-5.831-19.809-27.323-19.9-27.547l-1.8-4.661-.565 4.965a37.111 37.111 0 0 1-2.964 11.1c-4.249-4.317-18.611-20.574-17.119-41.625a1.228 1.228 0 0 0-1.138-1.315 1.266 1.266 0 0 0-1.315 1.139 51.091 51.091 0 0 0 5.673 26.57c.007.057-.008.111 0 .173l2.288 10.032c-.661-.347-1.312-.7-2.005-1.018a1.231 1.231 0 0 0-1.023 2.24c12.348 5.651 18.3 16.5 21.126 24.606a44.085 44.085 0 0 1 2.758 16.268 96.053 96.053 0 0 1-11.958-7.59l-3.177-2.417 1.263 3.786c3.155 9.448.258 24.428-3.312 31.8-3.492-2.715-8.6-7.2-8.658-7.25l-3.3-2.894 1.313 4.183a39.735 39.735 0 0 1-3.1 27.41 59.6 59.6 0 0 1-8.988-6.107l-1.781-1.436-.218 2.274c-.021.21-1.969 20.143-5.891 27.476a41.849 41.849 0 0 1-5.556-7.687l-1.94-3.4-.353 3.9a48.23 48.23 0 0 1-8.747 22.543c-1.661-1.719-3.242-5.521-3.936-7.849l-1.916-6.432-.488 6.694c.008.163-1.208 16.179-5.765 24.624Zm46.514-149.063a23.611 23.611 0 0 0-7.892-.672 47.94 47.94 0 0 0 4.966-12.909 4319.843 4319.843 0 0 0 2.925 13.577Zm12.056 7.032-1.106-4.865a63.743 63.743 0 0 0 9.332 11.158l1.1.989.768-1.268a32.574 32.574 0 0 0 3.326-9.28 82.512 82.512 0 0 0 10.027 16.73c-1.885.107-3.836.294-5.911.53-1.311.155-2.667.309-4.057.44a41.486 41.486 0 0 0-13.477-14.438Zm-54.88 139.832a78.931 78.931 0 0 0 4.009-17.2c1.007 2.077 2.381 4.229 4.043 5.16l.911.513.651-.817a50.509 50.509 0 0 0 9.543-21.373c1.489 2.259 3.634 5.168 5.515 6.386l.985.641.681-.961c3.939-5.5 6.106-21.625 6.79-27.575 2.358 1.787 6.513 4.774 8.981 5.544l.963.305.483-.888a41.532 41.532 0 0 0 4.36-12.271h.009a1.22 1.22 0 0 0 .393-.064c116.444-38.808 163.346-17.429 168.311-14.867a1.229 1.229 0 0 0 1.128-2.183c-8.231-4.262-55.04-23.507-169.429 14.465a42.532 42.532 0 0 0-.165-11.652c2.174 1.859 5.15 4.349 7.17 5.831l1.114.816.684-1.2c3.762-6.621 7.06-20.993 5.028-31.678a90.988 90.988 0 0 0 10.908 6.515l.9.446.617-.792c1.2-1.542.909-8.01-.651-14.421a55.72 55.72 0 0 0-4.3-11.746 270.84 270.84 0 0 0 3.077-.332 70.8 70.8 0 0 1 7.644-.62 25.733 25.733 0 0 0 8.472 6.372l.968.415.558-.891a51.877 51.877 0 0 0 3.935-8.235c3.056 5.064 11.241 17.179 23.885 25.32l.978.635.684-.947c1.927-2.675 2.813-7.3 3.213-10.551 3.356 4.477 11.451 12.712 28.468 18.679l1.144.4.416-1.136c.953-2.59.795-5.538.189-9.667 13.478 8.951 23.383 9.281 40.593 9.858l1.565.053-.323-1.533a73.808 73.808 0 0 0-5.186-16.5c7.977 3.091 16.961 9.757 27.179 17.344 11.313 8.4 24.128 17.917 38.94 25.1.963.465 1.018.939.472 4.227a45.986 45.986 0 0 0-.62 12.024c.086.454-.024.559-.061.594-1.622 1.527-12.035-1.056-22.108-3.571-22.349-5.566-55.973-13.922-79.937-4.459v-.007l-.118.049c-.243.1-.507.169-.75.269l.016.037c-6.513 2.61-13.153 5.694-19.583 8.691-8.072 3.762-16.418 7.651-24.563 10.617-.215.075-.431.168-.646.248a.845.845 0 0 0-.117.042c-4.153 1.526-8.32 3.191-12.491 4.917a1.208 1.208 0 0 0-.187.08q-5.75 2.386-11.464 4.891l-.044.019q-4.764 2.1-9.466 4.192c-7.482 3.334-15.223 6.783-22.82 9.892-3.726 1.489-7.439 3.13-11.368 4.867-13.087 5.793-26.58 11.61-40.177 11.679Zm10.512 24.851c-2.353-.835-3.058-1.258-2.428-3.1.678-1.948 1.738-4.258 2.863-6.705 2.461-5.339 4.961-10.834 4.5-14.685 2.42-.634 4.833-1.4 7.229-2.239-1.8 10.258-5.782 20.251-9.562 28.032a8.167 8.167 0 0 0-2.604-1.307Zm2.071 17.179c-2.131-.348-3.012-.605-3.178-1.824s.761-2.925 1.829-4.889c.521-.959 1.066-2 1.571-3.1l.029-.03c4.575-8.621 10.444-21.674 12.527-35.011 3.354-1.251 6.682-2.63 9.989-4.055-1.953 17.542-8.763 29.922-16 42.954a573.775 573.775 0 0 0-3.765 6.888 8.314 8.314 0 0 0-3.003-.938Zm7.784 13.463c-1.276-.723-2-4.15-2.834-8.116l-.436-2.054c1.45-2.735 2.93-5.408 4.4-8.05 7.565-13.611 14.705-26.485 16.484-45.3 1.062-.465 2.125-.931 3.181-1.4 2.253-1 4.427-1.945 6.581-2.865-1.017 20.491-8.478 34.078-16.426 48.373-3.4 6.115-6.9 12.447-9.979 19.466a1.532 1.532 0 0 1-.973-.058Zm5.064.624a3.882 3.882 0 0 0-1.339-.685c2.916-6.475 6.182-12.417 9.369-18.152 8.246-14.839 16.023-28.881 16.818-50.634.723-.3 1.458-.618 2.181-.91 2.454-1.005 4.924-2.081 7.393-3.137.086 23.468-7.967 38.111-16.5 53.578-5.174 9.377-10.467 19.048-14.263 31.083-.269-4.585-1.325-9.26-3.661-11.148Zm104.728 184.494c-3.135-.741-5.814-2.965-7.96-6.612-35.367-60.033-58.687-88.988-111.426-112.8-6.122-3.946-9.368-8.03-9.919-12.476-.974-7.864 6.712-16.1 14.144-24.07 4.683-5.017 9.175-9.835 11.724-14.635a33.566 33.566 0 0 1-.215 3.446 32.567 32.567 0 0 0-.189 4.373 1.181 1.181 0 0 0 .024.456 31.972 31.972 0 0 0 9.49 21.394 1.214 1.214 0 0 0 .385.387 34.843 34.843 0 0 0 6.441 5.15 194.034 194.034 0 0 1 38.8 33.706 1.176 1.176 0 0 0 .459.519q5.886 6.63 11.564 14.026c16.212 21.15 25.46 41.958 35.249 63.987.635 1.421 1.294 2.883 1.934 4.322l.03.059.018.042.019.037c2.56 5.753 5.186 11.587 7.993 17.455a13.261 13.261 0 0 1-8.567 1.229Z"/><path data-name="Path 26" d="M1274.343 880.913c5.548 2.9 11.254 5.878 15.226 5.878a5.484 5.484 0 0 0 2.244-.451l.053-.006c.018-.007.032-.025.053-.029.052-.025.107-.033.155-.057.064-.033.1-.082.163-.115.026-.018.051-.036.078-.053 5.55-3.139 4.905-10.811 4.317-14.136l.006-.007a1.288 1.288 0 0 0 .028-.279c.354.036.713.087.935.114.955.129 1.859.251 2.192-.751l.29-.982-.87-.5c-3.2-1.84-6.648-.541-11.42 1.265a68.879 68.879 0 0 1-19.065 4.785l-4.737.452 4.363 1.9c1.708.736 3.786 1.827 5.989 2.972Zm16.694 3.082a.305.305 0 0 1-.33-.147c-1-1.4-.62-6.719 1.526-9.71a3 3 0 0 1 2.021-1.457c.484 3.004.885 9.068-3.217 11.314Zm-2.375-10.893c.666-.254 1.232-.455 1.823-.673-.078.1-.171.165-.248.272-2.208 3.081-3.089 8.533-2.058 11.5-3.453-.645-8.639-3.346-12.7-5.465-.805-.42-1.6-.84-2.368-1.229a74.829 74.829 0 0 0 15.552-4.405Z"/><path data-name="Path 27" d="M1158.256 711.611a60.4 60.4 0 0 1 13.215.071c2.619 3.242 4.9 10.833 3.78 20a1.232 1.232 0 0 0 1.071 1.372 1.129 1.129 0 0 0 .15.007 1.233 1.233 0 0 0 1.222-1.077c.918-7.495-.28-15.073-2.991-19.879a101.423 101.423 0 0 1 24.42 7.3c6.054 9.94 5.133 20.606 3.229 30.66a1.227 1.227 0 0 0 .981 1.434.97.97 0 0 0 .228.024 1.234 1.234 0 0 0 1.209-1c1.815-9.588 2.707-19.736-2.028-29.511a179.6 179.6 0 0 1 21.326 11.828.841.841 0 0 0 .062.172c4.946 8.528 6.338 18.221 4.527 31.434a1.225 1.225 0 0 0 1.052 1.383 1.277 1.277 0 0 0 .168.01 1.226 1.226 0 0 0 1.215-1.061c1.635-11.917.73-21.126-2.919-29.239.92.624 1.844 1.247 2.728 1.863 7.286 5.068 14.124 10.434 20.291 15.691v.026c3.318 5.011 5.478 17.912 5.388 23a1.229 1.229 0 0 0 1.208 1.25h.024a1.231 1.231 0 0 0 1.229-1.208 68.815 68.815 0 0 0-3.4-19.181c11.322 10.072 19.911 19.353 24.1 24.822a1.236 1.236 0 0 0 .979.479 1.214 1.214 0 0 0 .745-.251 1.232 1.232 0 0 0 .229-1.727c-4.4-5.738-12.486-14.456-22.9-23.85a36.6 36.6 0 0 0 10.976 2.063c.523 0 1.036-.018 1.536-.05a1.229 1.229 0 0 0 1.136-1.319 1.267 1.267 0 0 0-1.31-1.139c-4.571.329-10.322-1.042-17.53-4.119a265.525 265.525 0 0 0-21.542-16.71 80.724 80.724 0 0 0 14.228 1.48 34.3 34.3 0 0 0 8.033-.835 1.227 1.227 0 1 0-.58-2.385c-9.041 2.2-23.4-1.032-27.241-1.981a188.873 188.873 0 0 0-18.961-10.9c.638.028 1.291.111 1.913.111a49.516 49.516 0 0 0 18.314-3.736 1.231 1.231 0 0 0-.926-2.281c-6.339 2.564-16.088 5.068-26.519 2.45-.054-.015-.1.028-.147.021a109.81 109.81 0 0 0-20.17-6.565c5.856-1.271 10.946-3.266 14.287-5.71a1.23 1.23 0 0 0-1.449-1.988c-4.352 3.185-12 5.584-20.463 6.423a63.628 63.628 0 0 0-14.4-.122 1.224 1.224 0 0 0-1.085 1.357 1.2 1.2 0 0 0 1.362 1.093Z"/><path data-name="Path 28" d="M1103.841 841.982c0-.028-.023-.05-.026-.075.514-4.566 1.24-9.432 2.286-14.517a39.576 39.576 0 0 0 11.366 13.135 1.234 1.234 0 0 0 1.7-.33 1.231 1.231 0 0 0-.329-1.709c-4.357-2.94-11.175-10.77-11.655-15.566a1.346 1.346 0 0 0-.05-.154 136.634 136.634 0 0 1 8.1-23.958c2.508 8.145 9.157 17.153 18.38 24.722a1.246 1.246 0 0 0 .78.276 1.219 1.219 0 0 0 .948-.448 1.236 1.236 0 0 0-.168-1.733c-9.849-8.074-16.819-18.167-18.279-26.4a127.107 127.107 0 0 1 11.793-19.649c2.37 10.348 10.325 20.745 17.575 26.09a1.245 1.245 0 0 0 .731.24 1.232 1.232 0 0 0 .731-2.221c-7.369-5.423-15.556-16.312-17.089-26.7a132.3 132.3 0 0 1 13.007-14.5c2.192 9.034 11.022 15.729 16.355 19a1.232 1.232 0 0 0 1.287-2.1c-4.252-2.6-14.263-9.652-15.61-18.854q2.046-1.9 4.229-3.769a1.23 1.23 0 1 0-1.6-1.869 151.039 151.039 0 0 0-5.547 5.028c-8.258 6.591-19.521 10.983-28.734 11.2a1.227 1.227 0 0 0 .025 2.453h.033c6.63-.151 14.234-2.375 21.157-5.943a131.15 131.15 0 0 0-12.527 16.269c-8.727 7.05-18.627 10.169-24.5 10.685a1.229 1.229 0 0 0 .108 2.454h.107c5.138-.451 13.174-2.807 20.981-7.772a131.81 131.81 0 0 0-10.034 21.394c-1.033 1.362-9.243 11.872-19.4 16.67a1.23 1.23 0 1 0 1.049 2.226c6.766-3.192 12.562-8.608 16.243-12.594a154.476 154.476 0 0 0-5.895 28.626 1.352 1.352 0 0 0-.183.3 38.1 38.1 0 0 1-7.446 11.623 1.224 1.224 0 0 0 .021 1.739 1.2 1.2 0 0 0 .854.351 1.217 1.217 0 0 0 .881-.369 39.384 39.384 0 0 0 5.251-7.035c-.53 7-.609 13.066-.669 17.784l-.008.469a1.229 1.229 0 0 0 1.213 1.243h.019a1.233 1.233 0 0 0 1.229-1.214v-.466c.057-4.563.138-10.408.633-17.143a48.59 48.59 0 0 0 4.937 8.665 1.234 1.234 0 0 0 1.708.312 1.232 1.232 0 0 0 .313-1.712c-2.647-3.854-5.763-8.935-6.281-14.154Z"/></g><g data-name="Group 17" fill="#383838"><path data-name="Path 29" d="M759.66 881.984a5.746 5.746 0 0 1 5.588 6.053l-.431 9.915 64.267 2.8a5.808 5.808 0 1 1-.5 11.6l-64.266-2.8-.43 9.918a5.85 5.85 0 0 1-11.687-.513l1.365-31.43a5.754 5.754 0 0 1 6.094-5.543Z"/><path data-name="Path 30" d="M776.128 766.971a5.763 5.763 0 0 1 7.22-3.985l67.961 19.373a5.807 5.807 0 1 1-3.184 11.169l-29.529-8.417-4.778 16.759 29.533 8.411a5.811 5.811 0 1 1-3.188 11.175l-67.964-19.371a5.809 5.809 0 1 1 3.186-11.172l27.187 7.748 4.778-16.752-27.187-7.751a5.75 5.75 0 0 1-4.035-7.187Z"/><path data-name="Path 31" d="m815.035 676.268 11.858-21.093a5.848 5.848 0 0 1 10.194 5.735l-9.011 16.031 19.114 10.757 7.827-13.927a5.849 5.849 0 0 1 10.195 5.736l-7.827 13.922 21.238 11.95 9.015-16.033a5.848 5.848 0 0 1 10.194 5.731l-11.86 21.1a5.752 5.752 0 0 1-7.944 2.192l-60.745-34.167a5.759 5.759 0 0 1-2.248-7.934Z"/><path data-name="Path 32" d="m981.797 566.973-25.24-32.854a20.358 20.358 0 0 1-.123-24.8 19.993 19.993 0 0 1 23.929-6.4c3.146 1.114 4.363 4.485 3.271 7.633a5.945 5.945 0 0 1-7.674 3.124 8.545 8.545 0 0 0-10.22 2.782 8.725 8.725 0 0 0 .034 10.573l25.235 32.864a8.873 8.873 0 0 0 10.284 2.854 8.775 8.775 0 0 0 5.251-9.256 5.937 5.937 0 0 1 5-6.608c3.321-.243 6.261 1.8 6.529 5.126a20 20 0 0 1-12.35 21.474 20.23 20.23 0 0 1-23.926-6.512Z"/><path data-name="Path 33" d="m1070.849 508.534-16.926-37.81a20.331 20.331 0 1 1 37.108-16.624l16.932 37.818a20.332 20.332 0 1 1-37.114 16.615Zm-6.326-42.562 16.929 37.817a8.714 8.714 0 1 0 15.906-7.12l-16.927-37.817a8.714 8.714 0 1 0-15.907 7.12Z"/><path data-name="Path 34" d="m1178.633 484.977-13.067-68.464a5.759 5.759 0 0 1 4.609-6.837l23.775-4.549a5.849 5.849 0 0 1 2.193 11.49l-18.07 3.456 4.112 21.549 15.693-3a5.849 5.849 0 0 1 2.191 11.49l-15.689 3 5.664 29.682a5.81 5.81 0 1 1-11.412 2.182Z"/><path data-name="Path 35" d="m1278.425 473.809 2.314-69.653a5.752 5.752 0 0 1 6-5.649l24.191.806a5.85 5.85 0 0 1-.389 11.692l-18.382-.617-.731 21.921 15.968.531a5.849 5.849 0 0 1-.39 11.69l-15.965-.53-1 30.195a5.809 5.809 0 1 1-11.611-.387Z"/><path data-name="Path 36" d="m1402.914 413.239 23.405 6.171a5.851 5.851 0 0 1-2.98 11.315l-17.787-4.7-5.59 21.211 15.45 4.075a5.85 5.85 0 0 1-2.983 11.313l-15.445-4.077-6.208 23.569 17.785 4.692a5.85 5.85 0 0 1-2.982 11.312l-23.4-6.176a5.757 5.757 0 0 1-4.126-7.138l17.76-67.4a5.742 5.742 0 0 1 7.101-4.167Z"/><path data-name="Path 37" d="m1514.018 454.065 21.414 11.283a5.847 5.847 0 0 1-5.454 10.345l-16.275-8.571-10.219 19.4 14.129 7.443a5.848 5.848 0 0 1-5.449 10.349l-14.132-7.447-11.357 21.556 16.272 8.578a5.847 5.847 0 0 1-5.452 10.345l-21.412-11.283a5.75 5.75 0 0 1-2.413-7.877l32.483-61.65a5.751 5.751 0 0 1 7.865-2.471Z"/><path data-name="Path 38" d="m1627.816 617.923 32.187-26.089a20.349 20.349 0 0 1 24.783-.774 19.994 19.994 0 0 1 7.016 23.755c-1.035 3.173-4.373 4.477-7.543 3.467a5.937 5.937 0 0 1-3.323-7.587 8.553 8.553 0 0 0-3.05-10.146 8.726 8.726 0 0 0-10.569.311l-32.188 26.089a8.872 8.872 0 0 0-2.584 10.354 8.765 8.765 0 0 0 9.386 5.006 5.941 5.941 0 0 1 6.736 4.825c.333 3.31-1.635 6.3-4.956 6.662a19.991 19.991 0 0 1-21.784-11.78 20.258 20.258 0 0 1 5.889-24.093Z"/><path data-name="Path 39" d="M1688.661 752.215a5.743 5.743 0 0 1 .537-8.177c.723-.75 1.715-1.493 2.769-2.4 1.826-1.543 4.262-3.783 7.25-6.286l-8.892-18.557c-3.873.647-7.1 1.25-9.448 1.7-1.365.254-2.567.563-3.6.656a5.79 5.79 0 1 1-1.957-11.412l72.083-13.063a5.768 5.768 0 0 1 4.812 10.044l-55.348 47.989a5.782 5.782 0 0 1-8.206-.494Zm39.837-42.3c-8.133 1.347-17.64 3.217-26.216 4.774l6.069 12.662c6.586-5.71 14.001-11.943 20.147-17.438Z"/><path data-name="Path 40" d="M1718.367 854.322a5.713 5.713 0 0 1 1.035-8.131l29.311-22.339-7.142-3.2-23.853 4.993a5.806 5.806 0 1 1-2.382-11.366l69.166-14.488a5.808 5.808 0 1 1 2.382 11.368l-25.64 5.374 33.272 14.417a5.918 5.918 0 0 1 2.977 7.661 5.638 5.638 0 0 1-7.719 2.978l-28.885-12.5-34.317 26.352a5.9 5.9 0 0 1-8.205-1.119Z"/><path data-name="Path 41" d="M1804.932 927v24.2a5.85 5.85 0 0 1-11.7 0v-18.393h-21.928v15.971a5.847 5.847 0 0 1-11.694 0v-15.971h-24.359V951.2a5.848 5.848 0 0 1-11.695 0V927a5.752 5.752 0 0 1 5.849-5.807h69.681a5.752 5.752 0 0 1 5.846 5.807Z"/></g><g data-name="Group 18" fill="#383838"><path data-name="Path 42" d="m767.897 1946.946 39.973-10.849a16.7 16.7 0 0 1 19.017 7.749 16.411 16.411 0 0 1-2.579 20.25c-1.072 1.173-2.226 1.107-3.4.048a2.324 2.324 0 0 1 0-3.259 12.008 12.008 0 0 0 1.939-14.694 12.24 12.24 0 0 0-13.779-5.66l-39.97 10.856a12.175 12.175 0 0 0 .079 23.542 2.331 2.331 0 0 1 1.649 2.812c-.472 1.508-1.437 2.145-2.953 1.679a16.638 16.638 0 0 1-12.586-16.135 16.949 16.949 0 0 1 12.61-16.339Z"/><path data-name="Path 43" d="M865.966 2041.987a16.836 16.836 0 0 1-7.121 22.773l-36.624 19.342a16.811 16.811 0 1 1-15.714-29.722l36.627-19.343a16.851 16.851 0 0 1 22.832 6.95Zm-4.1 2.167a12.228 12.228 0 0 0-16.587-5.051l-36.625 19.343a12.213 12.213 0 1 0 11.415 21.595l36.626-19.345a12.216 12.216 0 0 0 5.174-16.542Z"/><path data-name="Path 44" d="M881.424 2191.255c3.919-9.034 7.645-17.741 11.164-25.945 6.072-13.8 12.729-29.71 15.724-36.652l-45.545 39.715a2.3 2.3 0 1 1-3.019-3.467l53.254-46.438a2.073 2.073 0 0 1 2.938-.154 2.2 2.2 0 0 1 .659 2.794c-3.923 9.036-7.647 17.737-11.165 25.939-6.072 13.8-12.883 29.533-15.719 36.66l45.542-39.714a2.3 2.3 0 1 1 3.021 3.464l-53.261 46.442a2.071 2.071 0 0 1-2.934.154 2.215 2.215 0 0 1-.659-2.798Z"/><path data-name="Path 45" d="m959.935 2241.964 24.288-33.558a16.7 16.7 0 0 1 19.664-5.923 16.4 16.4 0 0 1 10.718 17.374c-.1 1.58-1.035 2.257-2.613 2.167a2.325 2.325 0 0 1-2.05-2.533 12 12 0 0 0-7.716-12.65 12.242 12.242 0 0 0-14.281 4.258l-24.285 33.559a12.171 12.171 0 0 0 14.854 18.261 2.327 2.327 0 0 1 3.046 1.149c.579 1.477.229 2.575-1.243 3.164a16.631 16.631 0 0 1-19.929-4.643 16.942 16.942 0 0 1-.453-20.625Z"/><path data-name="Path 46" d="m1053.018 2314.655 27.791-63.9a2.005 2.005 0 0 1 3.031-1.2l22.179 9.649a2.314 2.314 0 0 1-1.845 4.245l-20.073-8.736-11.561 26.588 17.852 7.768a2.313 2.313 0 0 1-1.845 4.242l-17.856-7.769-12.537 28.822 20.073 8.737a2.314 2.314 0 0 1-1.845 4.244l-22.175-9.653a2.006 2.006 0 0 1-1.189-3.037Z"/><path data-name="Path 47" d="m1178.02 2281.279 14.252 2.754a16.841 16.841 0 0 1 13.291 19.822l-1.293 6.7a16.839 16.839 0 0 1-19.722 13.438l-11.993-2.32-6.036 31.226a2.3 2.3 0 1 1-4.514-.87l13.318-68.912a2.007 2.007 0 0 1 2.697-1.838Zm13.373 7.3-11.994-2.317-5.968 30.869 12 2.314a12.222 12.222 0 0 0 14.33-9.762l1.3-6.7a12.233 12.233 0 0 0-9.672-14.404Z"/><path data-name="Path 48" d="M1309.706 2293.684a2.339 2.339 0 0 1-2.356 2.382l-13.3.362 1.827 67.823a2.336 2.336 0 0 1-2.356 2.381 2.233 2.233 0 0 1-2.358-2.253l-1.826-67.826-13.421.362a2.313 2.313 0 0 1-.126-4.624l31.437-.853a2.334 2.334 0 0 1 2.479 2.246Z"/><path data-name="Path 49" d="M1501.071 2300.942a12.851 12.851 0 0 0-7.351-7.667l-25.67-10.5a17.121 17.121 0 0 1-8.582-23.912 16.873 16.873 0 0 1 11.157-8.263 16.635 16.635 0 0 1 13.542 2.806 2.406 2.406 0 0 1 .554 3.351 2.323 2.323 0 0 1-3.22.492 12.962 12.962 0 0 0-9.937-2.135 11.635 11.635 0 0 0-7.915 6.029 12.636 12.636 0 0 0-.876 9.98 11.916 11.916 0 0 0 6.938 7.324l25.826 10.559a17.387 17.387 0 0 1 9.888 10.417 17.607 17.607 0 0 1-1.182 14.376 16.843 16.843 0 0 1-11.443 8.521 17.355 17.355 0 0 1-14.126-2.944 2.209 2.209 0 0 1-.4-3.29 2.39 2.39 0 0 1 3.22-.489 12.666 12.666 0 0 0 10.256 2.256 11.954 11.954 0 0 0 8.416-6.383 13.231 13.231 0 0 0 .905-10.528Z"/><path data-name="Path 50" d="M1569.902 2193.113a2.326 2.326 0 0 1-.582 3.294l-10.723 7.87 40.152 54.7a2.331 2.331 0 0 1-.58 3.293 2.233 2.233 0 0 1-3.223-.505l-40.154-54.7-10.824 7.942a2.315 2.315 0 0 1-2.74-3.733l25.354-18.6a2.331 2.331 0 0 1 3.32.439Z"/><path data-name="Path 51" d="M1628.64 2132.879a16.84 16.84 0 0 1 23.821-1.443l31.1 27.354a16.812 16.812 0 1 1-22.2 25.253l-31.108-27.354a16.843 16.843 0 0 1-1.613-23.81Zm3.478 3.06a12.23 12.23 0 0 0 1.175 17.3l31.111 27.354a12.214 12.214 0 1 0 16.123-18.347l-31.1-27.354a12.223 12.223 0 0 0-17.308 1.047Z"/><path data-name="Path 52" d="m1712.755 2039.168 5.991 3.259a16.694 16.694 0 0 1 8.573 18.158l33.428 4.824a2.214 2.214 0 0 1 2.036 2.625 2.18 2.18 0 0 1-2.62 2.016l-34.454-4.971-.117.208-5.835 10.731 27.931 15.194a2.011 2.011 0 0 1 .938 3.127 2.238 2.238 0 0 1-3.131.914l-61.639-33.53a2.237 2.237 0 0 1-.939-3.127l6.934-12.748a16.837 16.837 0 0 1 22.904-6.68Zm-18.838 8.9-5.836 10.729 27.61 15.016 5.836-10.731a12.235 12.235 0 0 0-4.974-16.612l-5.992-3.256a12.226 12.226 0 0 0-16.644 4.849Z"/><path data-name="Path 53" d="m1793.653 1984.377-66.995-19.2a2 2 0 0 1-1.593-2.843l6.668-23.25a2.316 2.316 0 0 1 4.454 1.271l-6.035 21.044 27.877 7.988 5.366-18.719a2.316 2.316 0 0 1 4.451 1.279l-5.368 18.715 30.22 8.659 6.034-21.044a2.316 2.316 0 0 1 4.451 1.279l-6.67 23.25a2 2 0 0 1-2.86 1.571Z"/></g><g data-name="Group 33"><g data-name="Group 31"><g data-name="Group 29"><g data-name="Group 19"><path data-name="Path 54" d="M1313.135 1603.013h-.278q-15.241-.135-30.479-.14a4.95 4.95 0 0 1 0-9.9q15.279.01 30.556.14a18.7 18.7 0 0 0 13.632-5.248 13.824 13.824 0 0 0 4.255-9.813l-.068-142.077a4.949 4.949 0 0 1 4.948-4.953 4.949 4.949 0 0 1 4.95 4.946l.065 142.077a23.622 23.622 0 0 1-7.187 16.848 29.024 29.024 0 0 1-20.394 8.12Z" fill="#383838"/></g><g data-name="Group 20"><path data-name="Path 55" d="M1517.86 1610.479c-.646 0-1.294-.022-1.941-.065q-15.212-.976-30.436-1.828a4.948 4.948 0 1 1 .556-9.881q15.258.859 30.521 1.831a17.576 17.576 0 0 0 13.227-4.389 13.448 13.448 0 0 0 4.317-9.916l-.573-328.013a4.946 4.946 0 0 1 4.938-4.957h.012a4.95 4.95 0 0 1 4.949 4.943l.573 328.011a23.24 23.24 0 0 1-7.442 17.146 27.262 27.262 0 0 1-18.701 7.118Z" fill="#383838"/></g><g data-name="Group 21"><path data-name="Path 56" d="M1462.687 1460.38a4.933 4.933 0 0 1-3.363-1.318c-35.812-33.165-73.9-67.69-123.492-111.939-2.629-2.343-5.118-7.755-5.118-11.129l-.04-78.005a4.949 4.949 0 0 1 4.946-4.953 4.949 4.949 0 0 1 4.948 4.946l.035 78.008a11.284 11.284 0 0 0 1.845 3.779c49.609 44.261 87.737 78.823 123.6 112.033a4.947 4.947 0 0 1-3.362 8.579Z" fill="#383838"/></g><g data-name="Group 22"><path data-name="Path 57" d="M1690.691 1313.916h-.091q-26.609-.483-53.223-.9a4.95 4.95 0 0 1-4.87-5.024 5.034 5.034 0 0 1 5.028-4.876q26.62.419 53.246.9a4.95 4.95 0 0 1-.089 9.9Z" fill="#383838"/></g><g data-name="Group 23"><path data-name="Path 58" d="M1747.385 1632.454a28.952 28.952 0 0 1-3.7-.245q-15.135-1.917-30.3-3.725a4.949 4.949 0 1 1 1.167-9.829q15.194 1.8 30.386 3.736a15.535 15.535 0 0 0 12.475-3.461 14.085 14.085 0 0 0 4.672-10.8l-.313-302.715 5.057.1q26.612.569 53.22 1.21a17.179 17.179 0 0 0 17.73-17.274v-30.368a4.95 4.95 0 0 1 9.9 0v30.368a27.079 27.079 0 0 1-27.874 27.167q-24.053-.574-48.125-1.1l.3 292.6a23.86 23.86 0 0 1-8.031 18.232 24.762 24.762 0 0 1-16.564 6.104Z" fill="#383838"/></g><g data-name="Group 24"><path data-name="Path 59" d="M1129.808 1605.996a4.951 4.951 0 0 1-.2-9.9q15.269-.629 30.543-1.132c9.977-.336 18.1-7.551 18.113-16.082l.264-320.88a4.95 4.95 0 0 1 4.949-4.942 4.952 4.952 0 0 1 4.946 4.949l-.263 320.88c-.015 13.808-12.435 25.456-27.686 25.963q-15.239.507-30.463 1.136Z" fill="#383838"/></g><g data-name="Group 25"><path data-name="Path 60" d="M865.422 1529.518a4.92 4.92 0 0 1-3.237-1.211c-30.181-26.145-57.792-50.579-84.421-74.7-2.553-2.3-5.071-8.038-5.071-11.576l.159-183.169a4.948 4.948 0 0 1 4.95-4.947 4.948 4.948 0 0 1 4.943 4.954l-.153 183.164a11.684 11.684 0 0 0 1.866 4.285c26.523 24.024 54.086 48.409 84.206 74.506a4.949 4.949 0 0 1-3.243 8.69Z" fill="#383838"/></g><g data-name="Group 26"><path data-name="Path 61" d="M724.49 1645.356a4.95 4.95 0 0 1-.74-9.844q15.144-2.32 30.305-4.519c10.188-1.494 18.487-10.735 18.5-20.607l.051-58.557a4.946 4.946 0 0 1 4.947-4.946h.007a4.948 4.948 0 0 1 4.941 4.954l-.046 58.557c-.018 14.588-12.114 28.217-26.972 30.395q-15.13 2.2-30.23 4.51a5.017 5.017 0 0 1-.763.057Z" fill="#383838"/></g><g data-name="Group 27"><path data-name="Path 62" d="M865.269 1622.527a4.95 4.95 0 0 1-.55-9.868 21.47 21.47 0 0 0 13.1-6.576c23.5-24.664 48.216-49.892 73.464-74.972a4.95 4.95 0 0 1 6.978 7.021c-25.184 25.024-49.838 50.178-73.273 74.779a31.414 31.414 0 0 1-19.15 9.585 5.039 5.039 0 0 1-.569.031Z" fill="#383838"/></g><g data-name="Group 28"><path data-name="Path 63" d="M977.444 1615.461a4.947 4.947 0 0 1-.4-9.878q15.235-1.263 30.486-2.4c10.076-.76 18.285-8.6 18.3-17.465l.567-327.528a4.946 4.946 0 0 1 4.945-4.943h.011a4.946 4.946 0 0 1 4.938 4.957l-.561 327.529c-.022 13.922-12.34 26.176-27.459 27.322q-15.217 1.126-30.41 2.391-.211.015-.417.015Z" fill="#383838"/></g></g><g data-name="Group 30" fill="#383838"><path data-name="Path 64" d="M1525.803 1258.182c-.014-5.072-4.581-9.212-10.157-9.212h-30.43c-5.578.007-10.139 4.119-10.129 9.137q.161 108.077.319 216.146c.007 5.026-3.219 6.118-7.175 2.436-46.052-42.856-92.086-84.327-138.073-125.33-3.944-3.517-7.185-10.451-7.181-15.408q-.017-38.979-.031-77.97c0-4.954-4.566-9.008-10.142-9.012h-30.428c-5.578 0-10.145 4.051-10.145 9q-.01 159.855-.023 319.7c0 4.954 4.576 9 10.173 9q15.259 0 30.513.132c5.6.05 10.168-3.958 10.168-8.91l-.057-160.2c0-4.954 3.23-6.125 7.184-2.594 46.006 41.113 92.069 82.859 138.136 126.142 3.953 3.715 7.195 10.882 7.206 15.912q.023 12.679.04 25.369c0 5.029 4.579 9.374 10.171 9.682q15.239.828 30.476 1.774c5.586.345 10.147-3.5 10.141-8.573l-.556-327.221Zm-27.393 314.091q-.031-15.858-.052-31.723c-66.111-62.831-132.222-122.231-198.216-180.876q.023 103.389.038 206.78c-1.7-.01-3.392-.019-5.087-.026l-.035-297.2h5.071q.006 42.038.014 84.074c65.988 58.646 132.095 118 198.207 180.76q-.213-132.234-.423-264.458 2.537.006 5.072.014.247 151.463.491 302.931-2.544-.141-5.08-.276Z"/><path data-name="Path 65" d="M1830.052 1259.045a10.13 10.13 0 0 0-10.147-10.072H1637.349c-5.574 0-10.137 4.248-10.125 9.431l.053 28.286c.008 5.191 4.574 9.491 10.159 9.556q27.886.355 55.768.763a10.124 10.124 0 0 1 10.159 9.786l.451 293.9c.011 5.3 4.569 10.151 10.137 10.788q15.178 1.747 30.348 3.622c5.563.681 10.1-3.152 10.1-8.542q-.171-149.413-.347-298.812a9.788 9.788 0 0 1 10.128-9.621q27.875.472 55.749 1.005a9.891 9.891 0 0 0 10.135-9.878q-.012-15.101-.012-30.212Zm-98.853 16.66q.211 157.986.428 315.982-2.531-.289-5.061-.569-.213-157.728-.437-315.456-38.023-.324-76.057-.6c0-1.58 0-3.167-.008-4.746q78.6.461 157.18 1.117v5q-38.021-.392-76.045-.728Z"/><path data-name="Path 66" d="M1160.668 1248.97h-30.431c-5.58 0-10.147 4.1-10.149 9.1q-.212 161.473-.415 322.943c0 5 4.562 8.9 10.15 8.678q15.253-.613 30.5-1.1c5.594-.179 10.172-4.38 10.176-9.355q.149-160.6.294-321.217c.016-4.976-4.546-9.052-10.125-9.049Zm-13.028 319.643c-1.7.058-3.389.111-5.083.171q.163-149.695.335-299.4c1.693-.007 3.38-.007 5.072-.014q-.158 149.624-.321 299.243Z"/><path data-name="Path 67" d="M1008.537 1248.97h-30.428c-5.577 0-10.149 4.208-10.159 9.352q-.159 85.862-.314 171.728c-.008 5.139-3.255 12.465-7.2 16.3q-43.965 42.627-87.865 87.791c-3.946 4.076-10.39 4.652-14.322 1.258q-43.063-37.2-86.116-76.046c-3.924-3.554-7.141-10.95-7.137-16.435q.065-91.992.124-184.006a10.067 10.067 0 0 0-10.132-9.946h-30.425a10.165 10.165 0 0 0-10.144 10.144v360.033a8.518 8.518 0 0 0 10.083 8.632q15.123-2.246 30.269-4.373a11.962 11.962 0 0 0 10.1-11.354q.023-39.447.054-78.9c0-5.469 3.226-7.105 7.149-3.642q43.027 37.855 86.065 74.021c3.931 3.317 10.369 2.6 14.317-1.548q43.882-46.181 87.853-89.383c3.952-3.9 7.178-2.859 7.166 2.277q-.06 37.728-.135 75.451c-.018 5.142 4.553 8.974 10.131 8.521q15.215-1.224 30.446-2.323c5.584-.405 10.156-4.883 10.167-9.973q.286-164.171.579-328.336c.006-5.08-4.55-9.243-10.126-9.243Zm-13.269 327.584c-1.692.118-3.382.237-5.075.366q.108-61.632.224-123.262c-41.73 40.082-83.445 81.62-125.078 125.3-41.053-34.889-82.079-70.631-123.12-107.887q-.031 65.769-.051 131.551l-5.05.684.113-331.721c1.692-.007 3.378-.028 5.068-.037q-.037 96.205-.078 192.425c41.048 37.369 82.071 73.219 123.127 108.193 41.642-43.591 83.352-85.065 125.081-125.082l.32-177.183c1.693 0 3.381-.011 5.071-.019q-.268 153.337-.552 306.672Z"/></g></g><g data-name="Group 32" fill="#383838"><path data-name="Path 68" d="M782.588 1781.091a26.45 26.45 0 0 1-12.892 10.643 19.525 19.525 0 0 1-15.483-.625 16.09 16.09 0 0 1-8.528-12.173 20.559 20.559 0 0 1 3.943-15.813q5.26-7.323 10.535-14.37-4.47-5.336-8.947-10.853c-.049-.044-.087-.086-.134-.125v-.133c-.039 0-.084 0-.129.006v-.128a16.91 16.91 0 0 1-.652-17.761 16.7 16.7 0 0 1 15.839-8.891c6.735.391 12.4 3.882 15.156 9.384a15.575 15.575 0 0 1-2.021 17.021q-4.222 5.285-8.449 10.739 4.989 5.887 9.976 11.559c1.1 1.256 2.187 2.518 3.28 3.761q2.048-3.331 4.1-6.616a4.573 4.573 0 0 1 5.793-1.814 3.511 3.511 0 0 1 1.431 5.184q-2.91 4.593-5.814 9.284 5.172 5.58 10.343 10.941c1.439 1.612 1.171 3.9-.806 5.481s-4.468 1.833-5.91.215q-4.126-4.379-8.253-8.908-1.187 1.986-2.378 3.992Zm-8.507-16.035q-4.263-4.889-8.533-9.939-4.614 6.092-9.218 12.4a12.166 12.166 0 0 0-2.244 9.065 9.511 9.511 0 0 0 4.858 7 10.878 10.878 0 0 0 8.926.452 13.933 13.933 0 0 0 7.5-6.121q2.045-3.444 4.09-6.827-2.686-2.978-5.372-6.029Zm-1.515-32.348a8.267 8.267 0 0 0 1.07-8.936 8.957 8.957 0 0 0-7.772-4.767 8.935 8.935 0 0 0-7.927 13.654q3.82 4.619 7.634 9.105 3.496-4.583 6.998-9.055Z"/><path data-name="Path 69" d="M956.612 1714.134c-.019 1.738-1.744 2.941-4.251 2.967q-6.471.057-12.934.131-.255 25.51-.5 51.036c-.021 1.779-1.746 3.162-4.254 3.413-2.246.219-4.21-.827-4.19-2.628q.248-25.867.5-51.734-6.469.072-12.934.141c-2.239.021-4.209-1.229-4.195-3.087s2.008-3.131 4.252-3.131q17.159 0 34.317-.025c2.509.001 4.207 1.183 4.189 2.917Z"/><path data-name="Path 70" d="M1112.197 1710.837c2.511 0 4.218.978 4.206 2.406l-.334 43.534c-.014 1.434-1.739 2.476-4.251 2.579-2.25.1-4.228-.806-4.218-2.242l.167-20.263q-11.634.27-23.258.581-.091 10.359-.187 20.714c-.013 1.467-1.74 2.563-4.254 2.689-2.246.121-4.219-.792-4.207-2.271l.418-45.228c.014-1.483 2-2.5 4.244-2.5 2.509 0 4.216 1.014 4.2 2.475l-.171 19.167q11.624-.252 23.249-.473.081-9.369.153-18.751c.016-1.435 1.997-2.417 4.243-2.417Z"/><path data-name="Path 71" d="M1241.574 1754.311q0-20.6.007-41.205c0-1.349 1.98-2.271 4.228-2.271 2.5 0 4.223.919 4.223 2.271q0 20.609.012 41.205c0 1.343-1.717 2.273-4.235 2.273-2.249-.003-4.241-.923-4.235-2.273Z"/><path data-name="Path 72" d="M1413.236 1759.617c-3.739-4.625-7.359-9.2-10.958-13.562-6.015-7.393-13.353-16.305-18.286-22.186l.273 33.329c.012 1.447-1.7 2.347-4.216 2.242s-4.24-1.161-4.256-2.586l-.334-43.613c-.012-1.125 1.3-2.106 3.28-2.325a5.79 5.79 0 0 1 4.76 1.286c3.6 4.315 7.2 8.679 10.8 12.938 6 7.182 13.482 16.258 18.429 22.461q-.163-17.134-.316-34.268c-.014-1.482 1.7-2.492 4.2-2.5s4.236 1.021 4.248 2.517q.212 22.792.43 45.583c.008 1.179-1.3 2.131-3.285 2.261a5.773 5.773 0 0 1-4.769-1.577Z"/><path data-name="Path 73" d="M1559.874 1711.325c8.827-1.819 17.961 1.125 22.631 7.043 1.2 1.5.559 3.474-1.543 4.319a5.293 5.293 0 0 1-5.818-1.29c-2.542-3.471-7.834-5.144-12.969-4.14s-8.669 4.158-8.634 7.92l.313 32.057c.042 4.609 5.361 8.743 11.687 9.334 6.462.6 11.569-2.737 11.53-7.547l-.117-12.534-8.97-.515c-2.239-.137-4.232-1.494-4.248-3.313s1.944-2.969 4.19-2.866q6.6.306 13.192.637c2.509.122 4.235 1.5 4.248 3.386q.074 7.948.144 15.889c.075 8.4-8.833 14.173-19.912 13.01s-20.114-8.324-20.19-16.1l-.312-31.627c-.061-6.399 5.953-11.84 14.778-13.663Z"/><path data-name="Path 74" d="M1735.945 1775.052a12.387 12.387 0 0 0-3.424-9.7q-10.524-11.647-21.086-22.447a18.163 18.163 0 0 1 2.306-28.172 20.417 20.417 0 0 1 16.1-3.47 19.552 19.552 0 0 1 13.327 9.617 4.1 4.1 0 0 1-1.58 5.745 4.223 4.223 0 0 1-5.67-1.723 11.1 11.1 0 0 0-7.786-5.58 11.616 11.616 0 0 0-9.362 1.87 9.681 9.681 0 0 0-4.467 7.776 10.917 10.917 0 0 0 3.178 8.654q10.559 10.875 21.088 22.6a22.746 22.746 0 0 1 5.789 16.506 17.317 17.317 0 0 1-8.138 13.7 19.679 19.679 0 0 1-16.534 1.249 26.042 26.042 0 0 1-13.814-11.247 3.655 3.655 0 0 1 1.564-5.222 4.689 4.689 0 0 1 5.788 2.185 14.169 14.169 0 0 0 8.157 6.569c3.546 1.122 6.826.946 9.714-.852a9.546 9.546 0 0 0 4.85-8.058Z"/></g></g><g data-name="Group 34"><path data-name="Path 75" d="M1278.658 2536.117a717.215 717.215 0 0 1-660.277-437.637c-37.038-87.586-56.232-276.883-56.417-278.786l-.014-14.059H407.664l-1.549-2.042.35-1.246 83.615-302.885a2.538 2.538 0 1 1 4.893 1.352l-82.745 299.742h154.754l.038 2.58v16.222c.184 1.73 19.3 190.265 56.038 277.143a711.883 711.883 0 0 0 1311.188-.008c36.744-86.86 55.863-275.4 56.053-277.3l-.006-18.594 2.579-.04h152.05l-82.657-299.742a2.539 2.539 0 1 1 4.894-1.352l83.876 304.154-1.554 2.005-1.265.013h-152.847l-.03 14.168c-.178 1.793-19.374 191.1-56.418 278.67a716.362 716.362 0 0 1-660.262 437.644Z" fill="#383838"/></g><g data-name="Group 35"><path data-name="Path 76" d="M1278.658 2495.503a676.572 676.572 0 0 1-622.874-412.842c-32.826-77.615-51.223-246.124-53.217-265.083l-.011-52.517-40.258-.039-104.354-614.3 144.409-.39.161-108.916c3.751-73.153 20.625-279.575 53.27-356.753a676.354 676.354 0 0 1 1245.742.008c32.636 77.15 49.514 283.549 53.264 356.568l.153 109 144.264.483-104.236 614.3h-40.181l-.038 52.276c-2.014 19.253-20.516 188-53.236 265.354a675.767 675.767 0 0 1-622.861 412.851Zm-712.074-735.557 41.048.039v57.324c1.968 18.616 20.29 186.431 52.825 263.366a671.267 671.267 0 0 0 1236.38 0c32.438-76.676 50.854-244.729 52.852-263.637l.028-57.092h40.967l102.516-604.168-143.326-.482-.158-113.925c-3.732-72.645-20.512-278.252-52.869-354.722a671.264 671.264 0 0 0-1236.389-.007c-32.358 76.5-49.138 282.127-52.873 354.9l-.163 113.848-143.468.383Z" fill="#383838"/></g><path data-name="Path 77" d="M1707.479 1882.516c-10.817 8.217-24.257 7.711-38.487 7.186-23.177-.867-49.461-1.849-65.527 38.415l-1.583 3.979 4.25-.519c8.014-.971 15.646-.713 23.026-.47 15.218.509 29.6 1 40.289-10.932a2.538 2.538 0 1 0-3.779-3.388c-9.105 10.161-21.123 9.768-36.342 9.245a178.3 178.3 0 0 0-19.505.086c14.721-33 36.247-32.194 58.982-31.345 11.966.444 24.264.906 35.087-4.184-10.569 26.1-22.892 48.767-47.041 53.366-11.162 2.131-25.872 1.049-40.1 0-9.7-.716-18.852-1.39-26.724-1.064a373.935 373.935 0 0 0-38.959 4.47c28.641-16.62 37.62-53.981 33.9-71.823a18.444 18.444 0 0 0-2.411-6.359c5.888-1.675 8.4-5.064 9.076-11.483.544-5.164-2.293-11.641-8.617-13.467a17.579 17.579 0 0 0-13.7 2.127 12.052 12.052 0 0 0-5.57 8.7 14.476 14.476 0 0 0 3.427 11.876 11.091 11.091 0 0 0 8.988 3.531c1.91-.222 3.21 3.082 3.844 6.111 3.181 15.244-4.468 47.714-27.77 64.04a23.86 23.86 0 0 0 1.417-3.231c1.807-5.219 7.1-23.347-.443-37.584-3.675-6.927-9.775-11.752-18.146-14.352-1.317-7.073-7.364-35.091-22.142-46.729-25.823-20.328-43.464-15.725-82.362-5.574l-5.092 1.329 4.207 3.16c8.342 6.253 13.745 14.912 19.465 24.077 12.329 19.75 25.068 40.2 68.008 34.386l6.322-.85-5.179-3.725c-7.283-5.24-10.521-11.82-13.653-18.189-4.868-9.889-9.905-20.123-29.386-23.185a2.538 2.538 0 0 0-.789 5.015c16.879 2.655 20.928 10.885 25.622 20.413 2.563 5.216 5.4 10.986 10.58 16.122-35.031 2.865-45.822-14.417-57.216-32.677-4.856-7.78-9.856-15.792-16.831-22.211 35.837-9.313 50.265-12.131 73.162 5.9 15.062 11.855 20.5 44.806 20.554 45.139l.262 1.623 1.587.426c7.765 2.089 13.331 6.225 16.544 12.282 6.586 12.429 1.765 28.819.132 33.548-3.954 11.448-18.422 16.849-36.735 23.683-16.746 6.25-36.46 13.647-54.925 27.878 15.137-18.784 31.7-39.728 31.449-54.827a12.516 12.516 0 1 0-5.071.317c.049 13.6-17.322 35.192-31.4 52.65a1435.86 1435.86 0 0 0-5.785 7.221c7.053-17.347 11.487-37.687 4.649-52.478a10.59 10.59 0 0 0 5.3-4.673 12.673 12.673 0 0 0 .227-12.305 9.921 9.921 0 0 0-9.007-4.87h-.041c-7.013.021-9.975 3.6-11.118 5.731a11.758 11.758 0 0 0 .814 11.859 10.93 10.93 0 0 0 8.523 4.989c10.183 18.844-2.442 49.96-13.128 68.431-4.421-28.014-26.339-35.747-47.641-43.187-12.564-4.391-25.561-8.933-35.686-17.547-23.633-20.1-19.032-46.22-15.342-67.21.621-3.525 1.224-6.926 1.646-10.114 6.146 5.881 14.484 10.472 23.212 15.284 10.638 5.867 21.642 11.927 30.69 21.087 20.833 21.079 20.854 40.814 19.678 49.031-8.437-7.007-16.7-10.478-24.083-13.576-12.721-5.34-22.764-9.556-29.236-29.174a2.538 2.538 0 0 0-4.82 1.591c7.195 21.813 19.287 26.888 32.089 32.265 8.342 3.5 16.971 7.125 25.879 15.517l2.9 2.732 1.246-3.786c.385-1.16 9.021-28.758-20.047-58.173-9.563-9.681-21.406-16.2-31.85-21.96-10.326-5.687-20.081-11.064-25.622-18.357l-4.233-5.573-.323 6.992a130.7 130.7 0 0 1-2.13 15.333c-3.711 21.09-8.8 49.979 17.049 71.959 10.849 9.224 24.3 13.926 37.3 18.468 23.379 8.174 43.57 15.252 44.992 45.795-9.739 10.727-18.775 24.058-26.76 38.178l-.108.1a2.222 2.222 0 0 0-.128.2c-3.969-2.344-8.006-4.553-12.139-6.526l-3.131-1.479c-.648-.3-1.3-.606-1.943-.91 4.995-22.613-3.482-38.789-25.658-49.212l-2.986-1.4-.592 3.246c-5.841 32.089 8.388 42.7 23.331 50.145a93.459 93.459 0 0 1-3.546 9.976c-4.583 11.033-15.513 19.758-26.544 28.085a73.666 73.666 0 0 1-9.688-10.642c5.438-4.13 9.105-7.833 10.408-11.085 2.507-6.276 1.868-11.884-1.762-15.384a11.111 11.111 0 0 0-12.152-1.975c-4.791 2.118-7.539 7.132-7.352 13.415a29.644 29.644 0 0 0 3.994 13.726c-3.742 2.6-8.022 5.323-12.432 8-11.336-20.175-22.028-45.826-17.382-75.508a35.512 35.512 0 0 0 14.882-1.149c17-4.71 18.543-12.405 21.917-29.257a810.11 810.11 0 0 1 1.2-5.921l.793-3.79-4.959 1.02c-21.137 4.352-29.885 6.155-35.357 23.48q-1.5 4.749-2.49 9.374-10.805-4.241-16.506-20.145a12.526 12.526 0 1 0-5.017.011q-5.669 15.865-16.495 20.134-1-4.626-2.489-9.374c-5.475-17.325-14.223-19.128-35.36-23.48l-4.957-1.02.791 3.79c.442 2.1.84 4.076 1.207 5.921 3.37 16.852 4.911 24.546 21.917 29.257a35.512 35.512 0 0 0 14.883 1.149c4.646 29.679-6.046 55.329-17.383 75.508-4.409-2.681-8.692-5.4-12.436-8a29.641 29.641 0 0 0 4-13.726c.184-6.283-2.565-11.3-7.349-13.415a11.127 11.127 0 0 0-12.157 1.975c-3.629 3.5-4.271 9.105-1.759 15.38 1.3 3.256 4.97 6.958 10.409 11.089a73.5 73.5 0 0 1-9.694 10.642c-11.032-8.327-21.956-17.053-26.54-28.085a93.574 93.574 0 0 1-3.546-9.976c14.938-7.449 29.17-18.056 23.33-50.145l-.593-3.246-2.987 1.4c-22.175 10.423-30.653 26.6-25.656 49.212-.646.3-1.293.605-1.946.91l-3.126 1.479c-4.134 1.973-8.174 4.182-12.139 6.526a1.87 1.87 0 0 0-.129-.2l-.107-.1c-7.983-14.12-17.021-27.451-26.764-38.178 1.427-30.543 21.617-37.621 44.992-45.795 13.009-4.542 26.457-9.244 37.305-18.468 25.845-21.981 20.764-50.869 17.048-71.963a130.848 130.848 0 0 1-2.131-15.333l-.32-6.989-4.236 5.573c-5.54 7.292-15.292 12.67-25.62 18.357-10.444 5.757-22.283 12.279-31.849 21.96-29.068 29.415-20.432 57.013-20.047 58.173l1.245 3.786 2.907-2.732c8.907-8.392 17.535-12.018 25.878-15.517 12.8-5.377 24.893-10.452 32.091-32.265a2.537 2.537 0 1 0-4.818-1.591c-6.474 19.619-16.52 23.834-29.239 29.174-7.386 3.1-15.647 6.569-24.084 13.576-1.176-8.223-1.15-27.957 19.679-49.031 9.05-9.16 20.05-15.22 30.69-21.083 8.731-4.815 17.064-9.406 23.212-15.291.425 3.192 1.026 6.593 1.643 10.118 3.7 20.99 8.3 47.112-15.341 67.21-10.125 8.615-23.119 13.156-35.684 17.547-21.3 7.439-43.216 15.173-47.639 43.187-10.686-18.471-23.312-49.59-13.131-68.431a10.925 10.925 0 0 0 8.525-4.989 11.747 11.747 0 0 0 .813-11.859c-1.14-2.132-4.1-5.71-11.116-5.731-4.011.168-7.221 1.722-9.048 4.87a12.685 12.685 0 0 0 .222 12.305 10.608 10.608 0 0 0 5.3 4.673c-6.841 14.791-2.4 35.128 4.65 52.478a1561.914 1561.914 0 0 0-5.786-7.218c-14.075-17.458-31.452-39.05-31.4-52.653a12.515 12.515 0 1 0-5.072-.317c-.253 15.1 16.309 36.043 31.445 54.827-18.464-14.231-38.18-21.628-54.923-27.878-18.315-6.834-32.778-12.235-36.733-23.683-1.636-4.729-6.459-21.115.133-33.544 3.213-6.061 8.779-10.2 16.544-12.286l1.586-.426.263-1.623c.052-.333 5.49-33.283 20.548-45.139 22.851-17.992 37.277-15.216 73.165-5.9-6.977 6.419-11.973 14.431-16.83 22.211-11.394 18.259-22.189 35.584-57.219 32.677 5.18-5.136 8.017-10.906 10.583-16.122 4.69-9.527 8.74-17.758 25.621-20.413a2.538 2.538 0 0 0-.79-5.015c-19.483 3.062-24.516 13.3-29.387 23.185-3.129 6.369-6.372 12.949-13.654 18.189l-5.175 3.725 6.318.85c42.939 5.8 55.684-14.636 68.008-34.386 5.722-9.165 11.125-17.823 19.465-24.077l3.957-3.227-5.091-1.329c-38.65-10.086-56.29-14.689-82.112 5.642-14.775 11.637-20.82 39.655-22.139 46.729-8.374 2.6-14.473 7.429-18.149 14.355-7.547 14.239-2.249 32.366-.443 37.581a24 24 0 0 0 1.421 3.231c-23.3-16.326-30.95-48.8-27.774-64.04.634-3.034 1.954-6.139 3.844-6.111a11.174 11.174 0 0 0 8.99-3.531 14.467 14.467 0 0 0 3.428-11.876 12.046 12.046 0 0 0-5.57-8.7 17.587 17.587 0 0 0-13.708-2.127c-6.32 1.826-9.157 8.3-8.617 13.467.678 6.419 3.188 9.809 9.077 11.483a18.484 18.484 0 0 0-2.411 6.359c-3.723 17.841 5.26 55.2 33.9 71.823a373.847 373.847 0 0 0-38.958-4.47c-7.866-.336-17.025.351-26.72 1.064-14.229 1.042-28.936 2.124-40.1 0-24.147-4.6-36.467-27.262-47.041-53.366 10.827 5.09 23.128 4.625 35.088 4.184 22.742-.857 44.265-1.655 58.985 31.345a177.54 177.54 0 0 0-19.51-.086c-15.224.505-27.236.917-36.338-9.245a2.538 2.538 0 1 0-3.781 3.388c10.684 11.927 25.062 11.44 40.292 10.932 7.378-.247 15.011-.5 23.022.47l4.252.519-1.587-3.979c-16.061-40.263-42.341-39.289-65.526-38.415-14.229.53-27.668 1.031-38.486-7.186l-7.159-5.437 3.259 8.378c9.438 24.286 22.37 57.543 53.582 63.488 11.818 2.253 26.866 1.15 41.419.072 9.544-.7 18.555-1.382 26.141-1.052 13.509.558 45.069 4.634 56.979 8.412l.064.012c5.693 2.689 12.222 5.136 19.3 7.779 16.569 6.182 36.12 13.511 54.235 27.64-27.838-14.448-50.3-15.329-67.478-13.765a12.228 12.228 0 0 0-8.722-12.467c-5.49-1.655-12.432.544-15.083 7.965a12.094 12.094 0 0 0 2.4 12.795 13.634 13.634 0 0 0 13.417 3.771 10.459 10.459 0 0 0 7.023-6.87c15.632-1.58 34.277-1.269 57.445 8.882-14.538-.989-29.6 2.707-37.545 9.484a16.585 16.585 0 0 0-4.376 5.5c-20.215-13.786-52.721-17.871-75.325-.953-10.784 8.066-17.741 15.642-25.1 23.661a241.128 241.128 0 0 1-17.176 17.4l-4.293 3.861 5.744.555c7.494.727 15.354 2.947 23.673 5.3 14.613 4.128 31.168 8.815 50.192 6.47 20.126-2.472 37.96-32.191 38.709-33.455l1.239-2.092-2.034-1.33c-16.175-10.558-28.3-4.186-40.026 1.989-7.717 4.062-15 7.891-23.609 7.324a2.539 2.539 0 0 0-.336 5.066c10.019.658 18.306-3.689 26.313-7.9 10.777-5.671 20.167-10.6 32.749-3.528-4.375 6.7-18.8 27.065-33.625 28.887-18 2.214-33.35-2.122-48.193-6.318a192.944 192.944 0 0 0-19.141-4.724c5.124-4.9 9.394-9.542 13.553-14.069 7.2-7.84 14-15.248 24.406-23.035 21.844-16.34 53.875-11.242 72.226 3.13l3.908 3.063.192-4.961c.1-2.464 2.027-4.613 3.631-5.981 6.366-5.43 21.086-9.954 36.916-8.063 19.47 2.317 38.407 22.172 54.246 46.969-16.4-11.529-30.312-10.638-45.939-9.624l-1.276.079a10.609 10.609 0 0 0-6.289-10.954 11.071 11.071 0 0 0-13.192 16.544 11.865 11.865 0 0 0 11.147 4.691 9.145 9.145 0 0 0 6.806-5.1l3.136-.2c18.683-1.226 33.487-2.149 53.649 18.109a161.81 161.81 0 0 0-34.993 29.938c-6.169 7.06-9.74 13.9-12.893 19.937-3.936 7.547-7.049 13.5-13.724 17.6-13.051 8.009-37.42 8.141-53.969.662 3.558-4.215 6.48-9.187 9.543-14.4 10.046-17.1 20.412-34.765 56.034-30.954-8.048 5.876-12.551 12.267-16.609 18.023-5.333 7.572-9.938 14.106-21.412 17.889a2.537 2.537 0 1 0 1.586 4.82c13.069-4.306 18.368-11.824 23.974-19.783 4.874-6.916 9.914-14.065 20.834-20.326l6.172-3.539-7.016-1.172c-44.516-7.435-57.5 14.7-67.944 32.471-3.538 6.027-6.884 11.722-11.111 15.953l-2.4 2.407 2.991 1.62c8.712 4.717 21.079 7.575 33.3 7.575 10.463 0 20.822-2.1 28.684-6.917 7.874-4.835 11.44-11.665 15.573-19.579 3.021-5.789 6.445-12.351 12.211-18.948a156.851 156.851 0 0 1 33.667-28.848 364.859 364.859 0 0 1 21.64 48.481c-13.367 7.79-27.362 16.675-31.717 28.461-3.181 8.606-2.526 13.6-1.447 21.889a191.431 191.431 0 0 1 1.8 31.14l-.1 6.312 4.442-4.481c4.782-4.825 10.827-8.683 16.673-12.415 12.4-7.919 25.22-16.107 24.995-33.411-.089-6.875-3.12-19.726-8.447-35.218.047-.028.093-.057.141-.081 7.19-4.156 13.987-8.078 18.968-12.155a301.769 301.769 0 0 0 8.475-7.159 162 162 0 0 1 14.969 12.221c-4.886 8.066-8.082 14.25-7.8 19.041a11.831 11.831 0 0 0 6.47 10.08 11.017 11.017 0 0 0 11.005-.516c2.075-1.379 5.484-4.813 4.986-12.271-.422-6.35-3.588-11.881-8.267-17.045.591-.964 1.2-1.942 1.815-2.935 2.322-3.74 4.825-7.786 7.348-12.08 4.709 2.792 9.767 5.706 15.108 8.749 8.2 4.674 15.331 8.751 19.37 11.576-30.424 26.366-14.42 59.3 1.1 91.206l.7 1.443c.029.061.093.085.129.14a2.488 2.488 0 0 0 .688.766 2.822 2.822 0 0 0 .237.18c.042.025.071.067.118.088a2.58 2.58 0 0 0 1.111.258 2.577 2.577 0 0 0 1.112-.258c.045-.021.074-.063.122-.088.084-.051.149-.122.228-.18a2.487 2.487 0 0 0 .7-.766c.033-.058.1-.079.124-.14l.7-1.44c15.527-31.9 31.531-64.843 1.108-91.209 4.04-2.825 11.171-6.9 19.369-11.576 5.341-3.043 10.4-5.957 15.1-8.749 2.525 4.293 5.025 8.34 7.351 12.08q.924 1.489 1.815 2.935c-4.681 5.165-7.844 10.7-8.266 17.045-.5 7.458 2.909 10.893 4.985 12.271a11.04 11.04 0 0 0 11.007.516 11.832 11.832 0 0 0 6.467-10.08c.28-4.792-2.918-10.971-7.8-19.041a162 162 0 0 1 14.973-12.221c2.689 2.371 5.525 4.749 8.471 7.159 4.982 4.077 11.777 8 18.972 12.155l.141.081c-5.327 15.492-8.357 28.343-8.446 35.218-.229 17.3 12.593 25.492 24.994 33.411 5.846 3.732 11.888 7.59 16.669 12.415l4.444 4.481-.1-6.312a191.974 191.974 0 0 1 1.8-31.14c1.081-8.286 1.733-13.282-1.449-21.886-4.349-11.789-18.345-20.674-31.716-28.464a365.924 365.924 0 0 1 21.645-48.481 156.917 156.917 0 0 1 33.667 28.844c5.763 6.6 9.187 13.163 12.212 18.948 4.129 7.917 7.7 14.747 15.572 19.583 7.863 4.817 18.218 6.917 28.684 6.917 12.217 0 24.584-2.858 33.3-7.575l2.991-1.62-2.4-2.407c-4.222-4.231-7.568-9.926-11.112-15.953-10.436-17.771-23.435-39.9-67.944-32.471l-7.011 1.172 6.167 3.539c10.923 6.261 15.965 13.411 20.835 20.331 5.61 7.955 10.906 15.473 23.974 19.779a2.537 2.537 0 1 0 1.587-4.82c-11.473-3.783-16.078-10.316-21.408-17.885-4.06-5.76-8.562-12.15-16.613-18.027 35.617-3.8 45.989 13.851 56.036 30.954 3.063 5.212 5.985 10.184 9.542 14.4-16.549 7.473-40.92 7.343-53.967-.662-6.681-4.1-9.79-10.058-13.73-17.6-3.151-6.035-6.722-12.88-12.887-19.941a162.176 162.176 0 0 0-34.993-29.933c20.156-20.258 34.967-19.334 53.647-18.109l3.137.2a9.129 9.129 0 0 0 6.806 5.1 11.808 11.808 0 0 0 11.147-4.691 10.9 10.9 0 1 0-19.482-5.591l-1.278-.079c-15.625-1.022-29.536-1.915-45.934 9.616 15.839-24.793 34.772-44.644 54.242-46.961 15.822-1.869 30.546 2.637 36.915 8.063 1.6 1.368 3.533 3.517 3.632 5.981l.193 4.961 3.908-3.063c18.35-14.366 50.382-19.47 72.224-3.13 10.4 7.784 17.2 15.191 24.4 23.028 4.159 4.531 8.431 9.179 13.557 14.076a192.636 192.636 0 0 0-19.138 4.724c-14.847 4.192-30.192 8.532-48.2 6.318-14.8-1.818-29.242-22.189-33.619-28.887 12.583-7.078 21.971-2.143 32.748 3.528 8 4.212 16.281 8.543 26.313 7.9a2.539 2.539 0 1 0-.34-5.066c-8.6.588-15.888-3.263-23.607-7.324-11.727-6.175-23.855-12.547-40.028-1.989l-2.034 1.33 1.239 2.092c.75 1.264 18.585 30.983 38.711 33.455 19.014 2.342 35.582-2.342 50.194-6.47 8.32-2.35 16.18-4.57 23.67-5.3l5.748-.555-4.3-3.861a241.932 241.932 0 0 1-17.18-17.4c-7.358-8.021-14.316-15.6-25.1-23.658-22.6-16.921-55.115-12.833-75.331.953a16.578 16.578 0 0 0-4.372-5.5c-7.946-6.78-23.022-10.469-37.55-9.484 23.168-10.155 41.816-10.469 57.446-8.882a10.459 10.459 0 0 0 7.028 6.87 13.612 13.612 0 0 0 13.413-3.771 12.088 12.088 0 0 0 2.4-12.795c-2.649-7.421-9.592-9.627-15.08-7.965a12.229 12.229 0 0 0-8.72 12.467c-17.18-1.564-39.646-.68-67.479 13.769 18.114-14.133 37.667-21.462 54.237-27.644 7.082-2.644 13.611-5.09 19.3-7.779l.065-.012c11.909-3.778 43.468-7.854 56.976-8.412 7.579-.327 16.6.354 26.143 1.052 14.554 1.078 29.6 2.181 41.421-.072 28.826-5.49 41.792-33.164 53.58-63.488l3.255-8.378Zm-130.928-17.376a2.621 2.621 0 0 0-.886.271 5.774 5.774 0 0 1-4.79-1.942 9.449 9.449 0 0 1-2.1-7.751 7.017 7.017 0 0 1 3.316-5.108 12.284 12.284 0 0 1 6.627-1.873 10.553 10.553 0 0 1 2.89.372c3.671 1.061 5.3 4.947 4.979 8.059-.517 4.932-1.57 7.035-10.036 7.972Zm-128.2 70.556-1.367.126h-.048a5.765 5.765 0 0 1-5.5-2.71 6.709 6.709 0 0 1-.569-6.66c1.065-1.988 3.363-3.041 6.655-3.052h.028a4.922 4.922 0 0 1 4.614 2.339 7.57 7.57 0 0 1-.233 7.224 5.394 5.394 0 0 1-3.58 2.733Zm-143.322 57.907c4.374-13.861 10.289-15.641 28.936-19.5-.152.746-.293 1.473-.437 2.185-3.3 16.5-4.3 21.479-18.3 25.363a30.719 30.719 0 0 1-12.612 1.081q.965-4.503 2.417-9.129Zm-62.886 8.046c-13.994-3.884-14.993-8.862-18.294-25.363q-.212-1.069-.438-2.185c18.647 3.862 24.56 5.641 28.938 19.5q1.463 4.616 2.408 9.127a30.742 30.742 0 0 1-12.606-1.079Zm-136.692-68.686a7.575 7.575 0 0 1-.233-7.224 5.025 5.025 0 0 1 4.647-2.339c3.291.011 5.589 1.064 6.654 3.052a6.72 6.72 0 0 1-.573 6.66 5.777 5.777 0 0 1-5.494 2.71h-.049l-1.367-.122a5.42 5.42 0 0 1-3.585-2.737Zm-134.648-75.8c-.326-3.111 1.306-7 4.978-8.059a12.349 12.349 0 0 1 9.514 1.5 7 7 0 0 1 3.316 5.108 9.454 9.454 0 0 1-2.094 7.751 5.9 5.9 0 0 1-4.792 1.942 2.617 2.617 0 0 0-.889-.271c-8.465-.931-9.518-3.034-10.038-7.971Zm54.025 123.094-.01.036-.32 1.276a5.4 5.4 0 0 1-3.676 3.668 8.664 8.664 0 0 1-8.288-2.393c-1.327-1.406-2.634-3.862-1.3-7.6 1.309-3.661 4.027-5.137 6.681-5.137a7.334 7.334 0 0 1 2.149.323c3.334 1.017 6.099 4.447 4.759 9.833Zm39.783-59.816a7.438 7.438 0 1 1 7.438 7.436 7.446 7.446 0 0 1-7.443-7.432Zm26.186 116.194-.013.036-.4 1.028a4.058 4.058 0 0 1-3.116 2.4 6.839 6.839 0 0 1-6.23-2.687 5.449 5.449 0 0 1-.258-6.018 5.541 5.541 0 0 1 5-3.381 5.648 5.648 0 0 1 2.3.5c2.301 1.024 4.393 3.768 2.712 8.126Zm378.515-8.126c2.375-1.054 5.553-.577 7.3 2.883a5.439 5.439 0 0 1-.251 6.018 6.848 6.848 0 0 1-6.234 2.687 4.051 4.051 0 0 1-3.113-2.4l-.4-1.028-.015-.036c-1.689-4.352.406-7.096 2.709-8.12Zm-110.023-25.325c17.492 9.212 24 22.18 20.14 40.84-13.163-6.7-23.778-15.479-20.145-40.836Zm-22.35 49.507a6.417 6.417 0 0 1 2.6-.557 5.7 5.7 0 0 1 3.971 1.536c2.069 2 2.275 5.585.575 9.848-.932 2.325-4.051 5.329-8.409 8.654a24.432 24.432 0 0 1-3.072-10.857c-.122-4.209 1.453-7.352 4.33-8.62Zm-65.721-83.648a7.438 7.438 0 1 1 7.436 7.437 7.445 7.445 0 0 1-7.44-7.434Zm-57.911 94.471c-1.7-4.258-1.5-7.847.573-9.843a5.7 5.7 0 0 1 3.971-1.536 6.434 6.434 0 0 1 2.605.557c2.871 1.271 4.447 4.411 4.326 8.624a24.427 24.427 0 0 1-3.073 10.857c-4.358-3.322-7.479-6.326-8.406-8.655Zm-15.2-60.33c3.637 25.357-6.979 34.136-20.139 40.84-3.868-18.656 2.639-31.624 20.132-40.836Zm-12.713 145.209c.191 14.477-10.394 21.237-22.652 29.063a135.9 135.9 0 0 0-13.173 9.165 191.67 191.67 0 0 0-1.872-26.1c-1.046-8.017-1.572-12.043 1.176-19.471 3.672-9.944 16.307-18.114 28.666-25.349 4.939 14.489 7.764 26.399 7.847 32.696Zm12.526-51.454c-4.515 3.693-10.859 7.4-17.616 11.3a364.283 364.283 0 0 0-21.788-48.559c3.893-2.306 7.861-4.473 11.923-6.415l3.091-1.462c.361-.168.72-.335 1.083-.508a96.99 96.99 0 0 0 3.47 9.7c4.979 11.981 16.08 21.032 27.386 29.593q-3.618 3.148-7.556 6.355Zm36.252 25.665c.242 3.635-.732 6.375-2.738 7.711a5.909 5.909 0 0 1-5.928.192 6.7 6.7 0 0 1-3.66-5.834c-.189-3.184 2.529-8.5 6.347-14.9 3.422 4.062 5.665 8.283 5.972 12.835Zm-5.7-23c-.4.645-.791 1.274-1.176 1.9a168.954 168.954 0 0 0-13.868-11.268 76.945 76.945 0 0 0 9.692-10.765c3.687 2.559 7.963 5.274 12.656 8.121-2.516 4.284-5.003 8.31-7.311 12.021Zm50.228 96.66c-14.833-30.568-27.53-59.4 0-82.573 27.526 23.18 14.822 52.017-.008 82.581Zm20.947-101.725c-9.061 5.171-16.887 9.632-20.921 12.65l-.026.018-.025-.018c-4.032-3.018-11.859-7.479-20.924-12.65-4.6-2.619-9.848-5.617-15.091-8.732 11.847-21.015 23.1-47.888 17.977-79.366 7.558-2.683 13.679-8.787 18.063-18.014 4.381 9.228 10.5 15.335 18.064 18.014-5.129 31.478 6.129 58.356 17.977 79.37-5.256 3.12-10.505 6.117-15.101 8.736Zm35.909 30.13a6.718 6.718 0 0 1-3.665 5.834 5.914 5.914 0 0 1-5.924-.192c-2.01-1.335-2.98-4.076-2.738-7.711.3-4.552 2.549-8.773 5.975-12.835 3.814 6.413 6.533 11.729 6.347 14.913Zm-5.452-23.167c-.387-.623-.778-1.253-1.176-1.9-2.311-3.711-4.8-7.737-7.307-12.014 4.7-2.847 8.974-5.562 12.654-8.121a76.915 76.915 0 0 0 9.692 10.765 169.288 169.288 0 0 0-13.87 11.278Zm78.424 39.551c2.744 7.425 2.221 11.451 1.174 19.468a191.7 191.7 0 0 0-1.869 26.1 135.964 135.964 0 0 0-13.173-9.165c-12.258-7.827-22.842-14.587-22.651-29.063.08-6.3 2.9-18.207 7.851-32.687 12.347 7.238 24.991 15.408 28.66 25.357Zm-31.431-32.821c-6.758-3.9-13.1-7.6-17.616-11.3q-3.932-3.212-7.55-6.351c11.308-8.561 22.4-17.612 27.383-29.589a96.37 96.37 0 0 0 3.471-9.707c.362.172.724.339 1.085.508l3.091 1.462c4.058 1.942 8.028 4.109 11.923 6.415a364.039 364.039 0 0 0-21.794 48.57Zm160.243-137.8c3.194-.982 7.162.144 8.825 4.814 1.333 3.735.023 6.191-1.305 7.6a8.653 8.653 0 0 1-8.284 2.393 5.385 5.385 0 0 1-3.675-3.668l-.323-1.276-.008-.036c-1.35-5.382 1.418-8.812 4.762-9.822Zm-59.429-49.992a7.437 7.437 0 1 1 7.436 7.436 7.444 7.444 0 0 1-7.443-7.431Z" fill="#383838"/></g></g></svg>