<svg xmlns="http://www.w3.org/2000/svg" width="2560" height="1440" viewBox="0 0 2560 1440"><g data-name="Group 100"><path data-name="Rectangle 133" fill="#d2e9da" d="M0 0h1678v1260H0z"/><path data-name="Rectangle 149" fill="#f88a71" d="M0 1260h2560v180H0z"/><path data-name="Rectangle 142" fill="#97bda6" d="M1678 0h588v1260h-588z"/><path data-name="Rectangle 143" fill="#bfa484" d="M2266 0h294v1260h-294z"/><path data-name="Rectangle 148" fill="#857860" d="M2266 0h294v1062h-294z"/><path data-name="Path 151" d="M1890.747 1165.383v7.064h4.922a2.2 2.2 0 0 1 1.57.606 2.02 2.02 0 0 1 .642 1.534 2.193 2.193 0 0 1-2.212 2.211h-4.922v13.486a2.193 2.193 0 0 1-2.212 2.214 2.02 2.02 0 0 1-1.534-.642 2.2 2.2 0 0 1-.606-1.57v-13.488h-7.064v13.486a2.193 2.193 0 0 1-2.212 2.214 2.02 2.02 0 0 1-1.534-.642 2.2 2.2 0 0 1-.606-1.57v-13.488h-4.995a2.02 2.02 0 0 1-1.534-.642 2.2 2.2 0 0 1-.606-1.57 2.074 2.074 0 0 1 2.14-2.14h4.995v-7.063h-4.995a2.02 2.02 0 0 1-1.534-.642 2.2 2.2 0 0 1-.606-1.569 2.074 2.074 0 0 1 2.14-2.14h4.995v-12.134a2.079 2.079 0 0 1 .606-1.534 2.079 2.079 0 0 1 1.534-.606 2.2 2.2 0 0 1 1.57.606 2.02 2.02 0 0 1 .642 1.534v12.133h7.064v-12.133a2.079 2.079 0 0 1 .606-1.534 2.079 2.079 0 0 1 1.534-.606 2.2 2.2 0 0 1 1.57.606 2.02 2.02 0 0 1 .642 1.534v12.133h4.922a2.2 2.2 0 0 1 1.57.606 2.02 2.02 0 0 1 .643 1.535 2.135 2.135 0 0 1-.642 1.57 2.135 2.135 0 0 1-1.57.642Zm-4.352 0h-7.064v7.064h7.064Zm26.974 10.061a10.322 10.322 0 0 1-4.174-.856 11.481 11.481 0 0 1-3.46-2.319 10.736 10.736 0 0 1-2.355-3.425 10.5 10.5 0 0 1-.86-4.246v-7.134a10.575 10.575 0 0 1 .856-4.21 10.632 10.632 0 0 1 2.355-3.46 11.481 11.481 0 0 1 3.46-2.319 10.322 10.322 0 0 1 4.178-.856 10.575 10.575 0 0 1 4.21.856 10.92 10.92 0 0 1 3.46 2.319 10.92 10.92 0 0 1 2.319 3.46 10.575 10.575 0 0 1 .856 4.21v24.258a10.568 10.568 0 0 1-2.212 6.6 10.723 10.723 0 0 1-5.779 3.889 10.365 10.365 0 0 1-6.992-.428 10.734 10.734 0 0 1-5.208-4.638 2.06 2.06 0 0 1-.25-1.712 2.295 2.295 0 0 1 4.174-.571 6.157 6.157 0 0 0 3.032 2.676 6.02 6.02 0 0 0 4.031.25 6.18 6.18 0 0 0 3.353-2.247 6.111 6.111 0 0 0 1.284-3.817v-8.278a10.107 10.107 0 0 1-6.278 1.998Zm0-24.259a5.986 5.986 0 0 0-2.426.5 6.456 6.456 0 0 0-2 1.356 6.456 6.456 0 0 0-1.356 2 5.986 5.986 0 0 0-.5 2.426v7.131a6 6 0 0 0 1.854 4.46 6.1 6.1 0 0 0 4.428 1.819 6.064 6.064 0 0 0 4.455-1.819 6.064 6.064 0 0 0 1.819-4.46v-7.134a6.1 6.1 0 0 0-1.819-4.424 6 6 0 0 0-4.455-1.855Zm21.543 5.993a2.256 2.256 0 0 1-1.605-.642 2.161 2.161 0 0 1-.678-1.638v-5.708a2.161 2.161 0 0 1 .678-1.641 2.256 2.256 0 0 1 1.605-.642h17.124a2.229 2.229 0 0 1 1.784.856 2.254 2.254 0 0 1 .428 2l-9.989 41.1a2.089 2.089 0 0 1-1 1.391 2.252 2.252 0 0 1-1.712.25 2.042 2.042 0 0 1-1.284-.785 2.269 2.269 0 0 1-.5-1.427 1.173 1.173 0 0 1 .036-.285 1.173 1.173 0 0 0 .036-.285q2.283-9.418 4.21-17.266.856-3.353 1.641-6.707t1.5-6.207l1.247-5.004q.535-2.14.749-3.068h-11.987v3.428a2.222 2.222 0 0 1-.642 1.641 2.222 2.222 0 0 1-1.641.639Zm28.468-7.991a2.222 2.222 0 0 1 .642-1.641 2.222 2.222 0 0 1 1.641-.642h8.562a10.575 10.575 0 0 1 4.21.856 10.92 10.92 0 0 1 3.46 2.319 10.92 10.92 0 0 1 2.319 3.46 10.575 10.575 0 0 1 .856 4.21v2.569a10.42 10.42 0 0 1-1.142 4.852 11.07 11.07 0 0 1-3.068 3.71 11.07 11.07 0 0 1 3.068 3.71 10.42 10.42 0 0 1 1.142 4.852v4a10.5 10.5 0 0 1-.856 4.245 11.031 11.031 0 0 1-2.319 3.425 10.92 10.92 0 0 1-3.46 2.319 10.575 10.575 0 0 1-4.21.856h-8.562a2.2 2.2 0 0 1-2.283-2.289Zm17.124 28.254a5.986 5.986 0 0 0-.5-2.426 6.419 6.419 0 0 0-3.353-3.353 5.986 5.986 0 0 0-2.426-.5h-6.279v16.554h6.279a6.1 6.1 0 0 0 4.424-1.818 6 6 0 0 0 1.855-4.459Zm0-19.692a5.986 5.986 0 0 0-.5-2.426 6.455 6.455 0 0 0-1.356-2 6.456 6.456 0 0 0-2-1.356 5.986 5.986 0 0 0-2.426-.5h-6.279v15.131h6.279a6.1 6.1 0 0 0 4.424-1.819 6 6 0 0 0 1.855-4.459Zm24.259-10.845a10.575 10.575 0 0 1 4.21.856 10.92 10.92 0 0 1 3.46 2.319 10.92 10.92 0 0 1 2.319 3.46 10.575 10.575 0 0 1 .856 4.21v23.688a10.5 10.5 0 0 1-.856 4.245 11.031 11.031 0 0 1-2.319 3.425 10.92 10.92 0 0 1-3.46 2.319 10.575 10.575 0 0 1-4.21.856h-8.562a2.2 2.2 0 0 1-2.283-2.283v-40.812a2.222 2.222 0 0 1 .642-1.641 2.222 2.222 0 0 1 1.641-.642Zm6.279 10.845a6.1 6.1 0 0 0-1.819-4.424 6 6 0 0 0-4.459-1.855h-6.279v36.246h6.279a6.213 6.213 0 0 0 6.279-6.279Zm36.887 31.964a2.045 2.045 0 0 1-.178 1.712 2.371 2.371 0 0 1-1.463 1.07 2.045 2.045 0 0 1-1.712-.178 2.354 2.354 0 0 1-1.07-1.391q-.285-1.07-.642-2.355-.357-1.142-.749-2.64t-.892-3.353h-13.843q-.571 1.855-.928 3.353t-.714 2.64q-.357 1.284-.642 2.355a2.354 2.354 0 0 1-1.07 1.391 2.189 2.189 0 0 1-1.784.178 2.354 2.354 0 0 1-1.391-1.07 2.045 2.045 0 0 1-.178-1.712l11.416-41.382a2.276 2.276 0 0 1 .821-1.249 2.228 2.228 0 0 1 1.391-.464 2.228 2.228 0 0 1 1.391.464 2.276 2.276 0 0 1 .821 1.249Zm-7.991-11.7q-.713-2.64-1.5-5.458t-1.534-5.53q-.749-2.711-1.427-5.173t-1.177-4.388q-.571 1.926-1.213 4.388t-1.391 5.173q-.749 2.711-1.534 5.53t-1.5 5.458Zm25.258 14.555a10.5 10.5 0 0 1-4.245-.856 10.937 10.937 0 0 1-5.744-5.744 10.5 10.5 0 0 1-.856-4.245v-24.259a10.459 10.459 0 0 1 2.247-6.6 10.9 10.9 0 0 1 5.815-3.889 10.138 10.138 0 0 1 3.567-.357 10.886 10.886 0 0 1 3.389.821 11.052 11.052 0 0 1 2.961 1.855 11.07 11.07 0 0 1 2.283 2.747 1.969 1.969 0 0 1 .214 1.712 2.505 2.505 0 0 1-1.07 1.427 1.969 1.969 0 0 1-1.712.214 2.505 2.505 0 0 1-1.427-1.07 5.8 5.8 0 0 0-3-2.676 6.133 6.133 0 0 0-4.067-.25 6.18 6.18 0 0 0-3.353 2.247 6.111 6.111 0 0 0-1.284 3.817v8.278a10.831 10.831 0 0 1 10.491-1.142 10.748 10.748 0 0 1 5.779 5.779 10.575 10.575 0 0 1 .856 4.21v7.135a10.5 10.5 0 0 1-.856 4.245 11.032 11.032 0 0 1-2.319 3.425 10.92 10.92 0 0 1-3.46 2.319 10.575 10.575 0 0 1-4.21.856Zm0-24.259a5.986 5.986 0 0 0-2.426.5 6.419 6.419 0 0 0-3.353 3.353 5.986 5.986 0 0 0-.5 2.426v7.135a6 6 0 0 0 1.855 4.459 6.261 6.261 0 0 0 10.7-4.459v-7.136a6.1 6.1 0 0 0-1.819-4.424 6 6 0 0 0-4.458-1.854Z" fill="#fff"/><path data-name="Path 153" d="M2330.256 1165.4v7.063h4.922a2.2 2.2 0 0 1 1.57.606 2.02 2.02 0 0 1 .642 1.534 2.193 2.193 0 0 1-2.212 2.213h-4.922v13.485a2.193 2.193 0 0 1-2.212 2.212 2.02 2.02 0 0 1-1.534-.642 2.2 2.2 0 0 1-.606-1.57v-13.485h-7.064v13.485a2.193 2.193 0 0 1-2.212 2.211 2.02 2.02 0 0 1-1.534-.642 2.2 2.2 0 0 1-.606-1.57v-13.484h-4.995a2.02 2.02 0 0 1-1.534-.642 2.2 2.2 0 0 1-.606-1.57 2.074 2.074 0 0 1 2.14-2.14h4.995v-7.064h-4.995a2.02 2.02 0 0 1-1.534-.642 2.2 2.2 0 0 1-.606-1.57 2.074 2.074 0 0 1 2.14-2.14h4.995v-12.13a2.079 2.079 0 0 1 .606-1.534 2.079 2.079 0 0 1 1.534-.606 2.2 2.2 0 0 1 1.57.606 2.02 2.02 0 0 1 .642 1.534v12.13h7.064v-12.13a2.079 2.079 0 0 1 .606-1.534 2.079 2.079 0 0 1 1.534-.606 2.2 2.2 0 0 1 1.57.606 2.02 2.02 0 0 1 .642 1.534v12.13h4.922a2.2 2.2 0 0 1 1.57.606 2.02 2.02 0 0 1 .643 1.534 2.135 2.135 0 0 1-.642 1.57 2.135 2.135 0 0 1-1.57.642Zm-4.352 0h-7.064v7.063h7.064Zm17.623-16.2a2.222 2.222 0 0 1 .642-1.641 2.222 2.222 0 0 1 1.641-.642h8.562a10.575 10.575 0 0 1 4.21.856 10.92 10.92 0 0 1 3.46 2.319 10.92 10.92 0 0 1 2.319 3.46 10.575 10.575 0 0 1 .856 4.21v2.569a10.42 10.42 0 0 1-1.139 4.855 11.07 11.07 0 0 1-3.068 3.71 11.07 11.07 0 0 1 3.068 3.71 10.42 10.42 0 0 1 1.142 4.852v4a10.5 10.5 0 0 1-.856 4.245 11.032 11.032 0 0 1-2.322 3.424 10.92 10.92 0 0 1-3.46 2.319 10.575 10.575 0 0 1-4.21.856h-8.562a2.2 2.2 0 0 1-2.283-2.283Zm17.124 28.258a5.986 5.986 0 0 0-.5-2.426 6.419 6.419 0 0 0-3.353-3.353 5.986 5.986 0 0 0-2.426-.5h-6.279v16.553h6.279a6.1 6.1 0 0 0 4.424-1.819 6 6 0 0 0 1.855-4.459Zm0-19.692a5.986 5.986 0 0 0-.5-2.426 6.456 6.456 0 0 0-1.356-2 6.456 6.456 0 0 0-2-1.356 5.986 5.986 0 0 0-2.426-.5h-6.276v15.129h6.279a6.1 6.1 0 0 0 4.424-1.819 6 6 0 0 0 1.855-4.459Zm15.7 34.533a2.256 2.256 0 0 1-1.605-.642 2.161 2.161 0 0 1-.678-1.641v-40.812a2.161 2.161 0 0 1 .678-1.641 2.256 2.256 0 0 1 1.605-.642h14.27a2.222 2.222 0 0 1 1.641.642 2.222 2.222 0 0 1 .642 1.641 2.222 2.222 0 0 1-.642 1.641 2.222 2.222 0 0 1-1.641.642h-11.99v15.126h10.56a2.2 2.2 0 0 1 2.287 2.283 2.2 2.2 0 0 1-2.283 2.283h-10.564v18.836a2.2 2.2 0 0 1-2.283 2.283Zm44.732-2.572a2.045 2.045 0 0 1-.178 1.712 2.371 2.371 0 0 1-1.463 1.07 2.045 2.045 0 0 1-1.712-.178 2.354 2.354 0 0 1-1.07-1.391q-.285-1.07-.642-2.355-.357-1.142-.749-2.64t-.892-3.353h-13.842q-.571 1.855-.928 3.353t-.713 2.64q-.357 1.284-.642 2.355a2.354 2.354 0 0 1-1.07 1.391 2.189 2.189 0 0 1-1.784.178 2.354 2.354 0 0 1-1.391-1.07 2.045 2.045 0 0 1-.179-1.712l11.416-41.38a2.276 2.276 0 0 1 .821-1.249 2.228 2.228 0 0 1 1.391-.464 2.228 2.228 0 0 1 1.391.464 2.276 2.276 0 0 1 .821 1.249Zm-7.991-11.7q-.713-2.64-1.5-5.458t-1.534-5.53q-.749-2.711-1.427-5.173t-1.177-4.388q-.571 1.926-1.213 4.388t-1.39 5.175q-.749 2.711-1.534 5.53t-1.5 5.458Zm15.055 4.566a2.234 2.234 0 0 1-1.855-.928 2.157 2.157 0 0 1-.357-2.069l9.989-31.394a2.651 2.651 0 0 1 1.177-1.32 1.96 1.96 0 0 1 1.748-.107 2.058 2.058 0 0 1 1.57 2.14 1.337 1.337 0 0 1-.141.712q-2.069 6.707-3.924 12.415-.785 2.426-1.57 4.887t-1.463 4.638q-.678 2.176-1.213 3.853t-.821 2.6h8.847v-7.693a2.284 2.284 0 1 1 4.566 0v7.7h3.425a2.284 2.284 0 1 1 0 4.566h-3.425v7.706a2.284 2.284 0 1 1-4.566 0v-7.704Zm39.242 9.989a10.322 10.322 0 0 1-4.174-.856 11.481 11.481 0 0 1-3.46-2.319 10.736 10.736 0 0 1-2.355-3.425 10.5 10.5 0 0 1-.856-4.245v-4.279a10.42 10.42 0 0 1 1.142-4.852 11.07 11.07 0 0 1 3.068-3.71 11.07 11.07 0 0 1-3.068-3.71 10.42 10.42 0 0 1-1.142-4.852v-2.854a10.575 10.575 0 0 1 .856-4.21 10.632 10.632 0 0 1 2.355-3.46 11.481 11.481 0 0 1 3.46-2.319 10.322 10.322 0 0 1 4.174-.856 10.575 10.575 0 0 1 4.21.856 10.92 10.92 0 0 1 3.46 2.319 10.92 10.92 0 0 1 2.319 3.46 10.575 10.575 0 0 1 .856 4.21v2.854a10.42 10.42 0 0 1-1.142 4.852 11.458 11.458 0 0 1-3 3.71 11.458 11.458 0 0 1 3 3.71 10.42 10.42 0 0 1 1.142 4.852v4.281a10.5 10.5 0 0 1-.856 4.245 11.031 11.031 0 0 1-2.319 3.425 10.92 10.92 0 0 1-3.46 2.319 10.575 10.575 0 0 1-4.21.856Zm-6.279-32.25a6 6 0 0 0 1.855 4.459 6.1 6.1 0 0 0 4.424 1.819 6.064 6.064 0 0 0 4.459-1.819 6.064 6.064 0 0 0 1.819-4.459v-2.852a6.1 6.1 0 0 0-1.819-4.424 6 6 0 0 0-4.459-1.855 5.986 5.986 0 0 0-2.426.5 6.456 6.456 0 0 0-2 1.356 6.456 6.456 0 0 0-1.356 2 5.986 5.986 0 0 0-.5 2.426Zm12.557 17.124a6.1 6.1 0 0 0-1.819-4.424 6.239 6.239 0 0 0-6.885-1.356 6.419 6.419 0 0 0-3.353 3.353 5.986 5.986 0 0 0-.5 2.426v4.281a6 6 0 0 0 1.855 4.459 6.261 6.261 0 0 0 10.7-4.459Zm13.842 5.137a2.234 2.234 0 0 1-1.855-.928 2.157 2.157 0 0 1-.357-2.069l9.989-31.394a2.651 2.651 0 0 1 1.177-1.32 1.96 1.96 0 0 1 1.748-.107 2.058 2.058 0 0 1 1.57 2.14 1.337 1.337 0 0 1-.143.713q-2.069 6.707-3.924 12.415-.785 2.426-1.57 4.887t-1.466 4.642q-.678 2.176-1.213 3.853t-.821 2.6h8.847v-7.698a2.284 2.284 0 1 1 4.566 0v7.7h3.425a2.284 2.284 0 1 1 0 4.566h-3.425v7.706a2.284 2.284 0 1 1-4.566 0v-7.704Z" fill="#fff"/><path data-name="Path 152" d="M2330.256 965.599v7.064h4.922a2.2 2.2 0 0 1 1.57.606 2.02 2.02 0 0 1 .642 1.534 2.193 2.193 0 0 1-2.212 2.211h-4.922V990.5a2.193 2.193 0 0 1-2.212 2.214 2.02 2.02 0 0 1-1.534-.642 2.2 2.2 0 0 1-.606-1.57v-13.488h-7.064V990.5a2.193 2.193 0 0 1-2.212 2.214 2.02 2.02 0 0 1-1.534-.642 2.2 2.2 0 0 1-.606-1.57v-13.488h-4.995a2.02 2.02 0 0 1-1.534-.642 2.2 2.2 0 0 1-.606-1.57 2.074 2.074 0 0 1 2.14-2.14h4.995v-7.063h-4.995a2.02 2.02 0 0 1-1.534-.642 2.2 2.2 0 0 1-.606-1.569 2.074 2.074 0 0 1 2.14-2.14h4.995v-12.134a2.079 2.079 0 0 1 .606-1.534 2.079 2.079 0 0 1 1.534-.606 2.2 2.2 0 0 1 1.57.606 2.02 2.02 0 0 1 .642 1.534v12.133h7.064v-12.133a2.079 2.079 0 0 1 .606-1.534 2.079 2.079 0 0 1 1.534-.606 2.2 2.2 0 0 1 1.57.606 2.02 2.02 0 0 1 .642 1.534v12.133h4.922a2.2 2.2 0 0 1 1.57.606 2.02 2.02 0 0 1 .643 1.535 2.135 2.135 0 0 1-.642 1.57 2.135 2.135 0 0 1-1.57.642Zm-4.352 0h-7.064v7.064h7.064Zm27.612 27.184a10.322 10.322 0 0 1-4.174-.856 11.481 11.481 0 0 1-3.464-2.319 10.736 10.736 0 0 1-2.355-3.425 10.5 10.5 0 0 1-.856-4.245v-4.281a10.42 10.42 0 0 1 1.142-4.852 11.07 11.07 0 0 1 3.069-3.71 11.07 11.07 0 0 1-3.068-3.71 10.42 10.42 0 0 1-1.139-4.851v-2.854a10.575 10.575 0 0 1 .856-4.21 10.632 10.632 0 0 1 2.351-3.456 11.481 11.481 0 0 1 3.46-2.319 10.322 10.322 0 0 1 4.174-.856 10.575 10.575 0 0 1 4.21.856 10.92 10.92 0 0 1 3.46 2.319 10.92 10.92 0 0 1 2.319 3.46 10.575 10.575 0 0 1 .856 4.21v2.85a10.42 10.42 0 0 1-1.142 4.852 11.459 11.459 0 0 1-3 3.71 11.459 11.459 0 0 1 3 3.71 10.42 10.42 0 0 1 1.142 4.852v4.281a10.5 10.5 0 0 1-.856 4.245 11.032 11.032 0 0 1-2.319 3.425 10.92 10.92 0 0 1-3.46 2.319 10.575 10.575 0 0 1-4.206.855Zm-6.279-32.249a6 6 0 0 0 1.855 4.459 6.1 6.1 0 0 0 4.424 1.821 6.064 6.064 0 0 0 4.462-1.821 6.064 6.064 0 0 0 1.816-4.459v-2.854a6.1 6.1 0 0 0-1.816-4.424 6 6 0 0 0-4.459-1.855 5.986 5.986 0 0 0-2.426.5 6.456 6.456 0 0 0-2 1.356 6.456 6.456 0 0 0-1.356 2 5.986 5.986 0 0 0-.5 2.426Zm12.557 17.123a6.1 6.1 0 0 0-1.816-4.423 6.239 6.239 0 0 0-6.885-1.356 6.418 6.418 0 0 0-3.353 3.353 5.986 5.986 0 0 0-.5 2.426v4.281a6 6 0 0 0 1.855 4.459 6.261 6.261 0 0 0 10.7-4.459Zm15.34-5.637a2.276 2.276 0 0 1-1.249-.821 2.228 2.228 0 0 1-.464-1.391v-20.405a2.222 2.222 0 0 1 .642-1.641 2.222 2.222 0 0 1 1.641-.642h14.842a2.222 2.222 0 0 1 1.641.642 2.222 2.222 0 0 1 .642 1.641 2.222 2.222 0 0 1-.642 1.641 2.222 2.222 0 0 1-1.641.642h-12.558v12.843a10.625 10.625 0 0 1 7.92-.927 10.73 10.73 0 0 1 5.851 3.889 10.568 10.568 0 0 1 2.212 6.6v7.848a10.568 10.568 0 0 1-2.212 6.6 10.73 10.73 0 0 1-5.851 3.889 10.138 10.138 0 0 1-3.567.357 10.886 10.886 0 0 1-3.389-.821 11.549 11.549 0 0 1-2.961-1.819 10.079 10.079 0 0 1-2.283-2.783 2.236 2.236 0 0 1-.178-1.712 2.355 2.355 0 0 1 1.035-1.427 2.236 2.236 0 0 1 1.712-.178 2.355 2.355 0 0 1 1.427 1.035 6.157 6.157 0 0 0 3.032 2.676 6.02 6.02 0 0 0 4.031.25 6.18 6.18 0 0 0 3.353-2.247 6.111 6.111 0 0 0 1.284-3.817v-7.852a6.111 6.111 0 0 0-1.284-3.817 6.18 6.18 0 0 0-3.353-2.247 6.02 6.02 0 0 0-4.031.25 6.157 6.157 0 0 0-3.032 2.676 2 2 0 0 1-1.07 1 2.3 2.3 0 0 1-1.5.069Zm28.968-14.626a2.256 2.256 0 0 1-1.605-.642 2.161 2.161 0 0 1-.678-1.638v-5.708a2.161 2.161 0 0 1 .678-1.641 2.256 2.256 0 0 1 1.605-.642h17.124a2.229 2.229 0 0 1 1.784.856 2.254 2.254 0 0 1 .428 2l-9.989 41.1a2.089 2.089 0 0 1-1 1.391 2.252 2.252 0 0 1-1.712.25 2.042 2.042 0 0 1-1.284-.785 2.269 2.269 0 0 1-.5-1.427 1.173 1.173 0 0 1 .036-.285 1.173 1.173 0 0 0 .036-.285q2.283-9.418 4.21-17.266.856-3.358 1.643-6.716t1.5-6.207l1.249-4.994q.535-2.14.749-3.068h-11.991v3.427a2.222 2.222 0 0 1-.642 1.641 2.222 2.222 0 0 1-1.641.639Zm38.457 35.389a10.322 10.322 0 0 1-4.174-.856 11.48 11.48 0 0 1-3.46-2.319 10.736 10.736 0 0 1-2.355-3.425 10.5 10.5 0 0 1-.856-4.245v-4.281a10.42 10.42 0 0 1 1.142-4.852 11.07 11.07 0 0 1 3.068-3.71 11.07 11.07 0 0 1-3.068-3.71 10.42 10.42 0 0 1-1.142-4.852v-2.853a10.575 10.575 0 0 1 .856-4.21 10.632 10.632 0 0 1 2.355-3.46 11.48 11.48 0 0 1 3.46-2.319 10.322 10.322 0 0 1 4.174-.856 10.575 10.575 0 0 1 4.21.856 10.92 10.92 0 0 1 3.46 2.319 10.92 10.92 0 0 1 2.319 3.46 10.575 10.575 0 0 1 .856 4.21v2.854a10.42 10.42 0 0 1-1.142 4.852 11.458 11.458 0 0 1-3 3.71 11.458 11.458 0 0 1 3 3.71 10.42 10.42 0 0 1 1.142 4.852v4.281a10.5 10.5 0 0 1-.856 4.245 11.031 11.031 0 0 1-2.319 3.425 10.92 10.92 0 0 1-3.46 2.319 10.575 10.575 0 0 1-4.21.855Zm-6.281-32.249a6 6 0 0 0 1.855 4.459 6.1 6.1 0 0 0 4.426 1.821 6.064 6.064 0 0 0 4.459-1.819 6.064 6.064 0 0 0 1.82-4.461v-2.854a6.1 6.1 0 0 0-1.819-4.424 6 6 0 0 0-4.459-1.855 5.986 5.986 0 0 0-2.426.5 6.456 6.456 0 0 0-2 1.356 6.456 6.456 0 0 0-1.356 2 5.986 5.986 0 0 0-.5 2.426Zm12.56 17.123a6.1 6.1 0 0 0-1.819-4.424 6.239 6.239 0 0 0-6.885-1.356 6.419 6.419 0 0 0-3.353 3.353 5.986 5.986 0 0 0-.5 2.426v4.281a6 6 0 0 0 1.855 4.459 6.261 6.261 0 0 0 10.7-4.459Zm24.04 15.126a10.5 10.5 0 0 1-4.245-.856 10.937 10.937 0 0 1-5.744-5.744 10.5 10.5 0 0 1-.856-4.245V957.68a10.459 10.459 0 0 1 2.247-6.6 10.9 10.9 0 0 1 5.815-3.889 10.138 10.138 0 0 1 3.567-.357 10.886 10.886 0 0 1 3.389.821 11.051 11.051 0 0 1 2.961 1.855 11.07 11.07 0 0 1 2.283 2.747 1.969 1.969 0 0 1 .214 1.712 2.505 2.505 0 0 1-1.07 1.427 1.969 1.969 0 0 1-1.712.214 2.505 2.505 0 0 1-1.427-1.07 5.8 5.8 0 0 0-3-2.676 6.133 6.133 0 0 0-4.067-.25 6.18 6.18 0 0 0-3.353 2.247 6.111 6.111 0 0 0-1.284 3.817v8.278a10.831 10.831 0 0 1 10.496-1.142 10.748 10.748 0 0 1 5.779 5.779 10.575 10.575 0 0 1 .856 4.21v7.135a10.5 10.5 0 0 1-.856 4.245 11.031 11.031 0 0 1-2.319 3.425 10.92 10.92 0 0 1-3.46 2.319 10.575 10.575 0 0 1-4.214.856Zm0-24.259a5.986 5.986 0 0 0-2.426.5 6.418 6.418 0 0 0-3.353 3.353 5.986 5.986 0 0 0-.5 2.426v7.135a6 6 0 0 0 1.855 4.459 6.261 6.261 0 0 0 10.7-4.459v-7.135a6.1 6.1 0 0 0-1.819-4.424 6 6 0 0 0-4.457-1.854Zm29.039 24.259a10.5 10.5 0 0 1-4.245-.856 10.937 10.937 0 0 1-5.744-5.744 10.5 10.5 0 0 1-.856-4.245V957.68a10.575 10.575 0 0 1 .856-4.21 10.92 10.92 0 0 1 2.319-3.46 11.031 11.031 0 0 1 3.425-2.319 10.5 10.5 0 0 1 4.245-.856 10.322 10.322 0 0 1 4.174.856 11.48 11.48 0 0 1 3.46 2.319 10.632 10.632 0 0 1 2.355 3.46 10.576 10.576 0 0 1 .856 4.21v24.258a10.5 10.5 0 0 1-.856 4.245 10.736 10.736 0 0 1-2.355 3.425 11.48 11.48 0 0 1-3.46 2.319 10.322 10.322 0 0 1-4.169.856Zm0-41.382a6 6 0 0 0-4.459 1.855 6.1 6.1 0 0 0-1.819 4.424v24.258a6.279 6.279 0 1 0 12.557 0V957.68a5.986 5.986 0 0 0-.5-2.426 6.456 6.456 0 0 0-1.356-2 6.456 6.456 0 0 0-2-1.356 5.986 5.986 0 0 0-2.418-.497Z" fill="#fff"/><path data-name="Path 154" d="M2330.256 1346.12v7.063h4.922a2.2 2.2 0 0 1 1.57.606 2.02 2.02 0 0 1 .642 1.534 2.193 2.193 0 0 1-2.212 2.213h-4.922v13.485a2.193 2.193 0 0 1-2.212 2.212 2.02 2.02 0 0 1-1.534-.642 2.2 2.2 0 0 1-.606-1.57v-13.485h-7.064v13.485a2.193 2.193 0 0 1-2.212 2.211 2.02 2.02 0 0 1-1.534-.642 2.2 2.2 0 0 1-.606-1.57v-13.484h-4.995a2.02 2.02 0 0 1-1.534-.642 2.2 2.2 0 0 1-.606-1.57 2.074 2.074 0 0 1 2.14-2.14h4.995v-7.064h-4.995a2.02 2.02 0 0 1-1.534-.642 2.2 2.2 0 0 1-.606-1.57 2.074 2.074 0 0 1 2.14-2.14h4.995v-12.13a2.079 2.079 0 0 1 .606-1.534 2.079 2.079 0 0 1 1.534-.606 2.2 2.2 0 0 1 1.57.606 2.02 2.02 0 0 1 .642 1.534v12.129h7.064v-12.129a2.079 2.079 0 0 1 .606-1.534 2.079 2.079 0 0 1 1.534-.606 2.2 2.2 0 0 1 1.57.606 2.02 2.02 0 0 1 .642 1.534v12.129h4.922a2.2 2.2 0 0 1 1.57.606 2.02 2.02 0 0 1 .643 1.535 2.135 2.135 0 0 1-.642 1.57 2.135 2.135 0 0 1-1.57.642Zm-4.352 0h-7.064v7.063h7.064Zm19.906 26.9a2.256 2.256 0 0 1-1.605-.642 2.161 2.161 0 0 1-.678-1.641v-40.813a2.161 2.161 0 0 1 .678-1.641 2.256 2.256 0 0 1 1.605-.642h14.268a2.222 2.222 0 0 1 1.641.642 2.222 2.222 0 0 1 .642 1.641 2.222 2.222 0 0 1-.642 1.641 2.222 2.222 0 0 1-1.641.642h-11.985v15.126h10.56a2.2 2.2 0 0 1 2.283 2.283 2.2 2.2 0 0 1-2.283 2.283h-10.56v18.836a2.2 2.2 0 0 1-2.283 2.283Zm33.391.285a10.322 10.322 0 0 1-4.174-.856 11.481 11.481 0 0 1-3.46-2.319 10.736 10.736 0 0 1-2.355-3.425 10.5 10.5 0 0 1-.856-4.245v-4.282a10.42 10.42 0 0 1 1.142-4.852 11.07 11.07 0 0 1 3.068-3.71 11.07 11.07 0 0 1-3.068-3.71 10.42 10.42 0 0 1-1.142-4.851v-2.855a10.575 10.575 0 0 1 .856-4.21 10.632 10.632 0 0 1 2.355-3.46 11.481 11.481 0 0 1 3.46-2.319 10.322 10.322 0 0 1 4.174-.856 10.575 10.575 0 0 1 4.21.856 10.92 10.92 0 0 1 3.46 2.319 10.92 10.92 0 0 1 2.319 3.46 10.575 10.575 0 0 1 .856 4.21v2.855a10.42 10.42 0 0 1-1.142 4.852 11.458 11.458 0 0 1-3 3.71 11.458 11.458 0 0 1 3 3.71 10.42 10.42 0 0 1 1.142 4.852v4.276a10.5 10.5 0 0 1-.856 4.245 11.032 11.032 0 0 1-2.319 3.425 10.92 10.92 0 0 1-3.46 2.319 10.575 10.575 0 0 1-4.21.86Zm-6.278-32.25a6 6 0 0 0 1.855 4.458 6.1 6.1 0 0 0 4.424 1.819 6.064 6.064 0 0 0 4.459-1.819 6.064 6.064 0 0 0 1.817-4.458v-2.855a6.1 6.1 0 0 0-1.819-4.424 6 6 0 0 0-4.459-1.855 5.986 5.986 0 0 0-2.426.5 6.456 6.456 0 0 0-2 1.356 6.456 6.456 0 0 0-1.356 2 5.986 5.986 0 0 0-.5 2.426Zm12.555 17.123a6.1 6.1 0 0 0-1.817-4.423 6.239 6.239 0 0 0-6.883-1.357 6.419 6.419 0 0 0-3.356 3.357 5.986 5.986 0 0 0-.5 2.426v4.274a6 6 0 0 0 1.856 4.463 6.261 6.261 0 0 0 10.7-4.463Zm23.4 15.126a10.322 10.322 0 0 1-4.174-.856 11.481 11.481 0 0 1-3.46-2.319 10.736 10.736 0 0 1-2.355-3.425 10.5 10.5 0 0 1-.851-4.249v-4.277a10.42 10.42 0 0 1 1.14-4.852 11.07 11.07 0 0 1 3.068-3.71 11.07 11.07 0 0 1-3.068-3.71 10.42 10.42 0 0 1-1.14-4.851v-2.855a10.575 10.575 0 0 1 .856-4.21 10.632 10.632 0 0 1 2.355-3.46 11.481 11.481 0 0 1 3.46-2.319 10.322 10.322 0 0 1 4.169-.856 10.575 10.575 0 0 1 4.21.856 10.92 10.92 0 0 1 3.46 2.319 10.92 10.92 0 0 1 2.319 3.46 10.575 10.575 0 0 1 .856 4.21v2.855a10.42 10.42 0 0 1-1.142 4.852 11.459 11.459 0 0 1-3 3.71 11.459 11.459 0 0 1 3 3.71 10.42 10.42 0 0 1 1.142 4.852v4.276a10.5 10.5 0 0 1-.856 4.245 11.031 11.031 0 0 1-2.319 3.425 10.92 10.92 0 0 1-3.46 2.319 10.575 10.575 0 0 1-4.21.86Zm-6.274-32.249a6 6 0 0 0 1.855 4.459 6.1 6.1 0 0 0 4.419 1.819 6.064 6.064 0 0 0 4.459-1.819 6.064 6.064 0 0 0 1.824-4.459v-2.855a6.1 6.1 0 0 0-1.819-4.424 6 6 0 0 0-4.464-1.855 5.986 5.986 0 0 0-2.426.5 6.456 6.456 0 0 0-2 1.356 6.456 6.456 0 0 0-1.356 2 5.986 5.986 0 0 0-.5 2.426Zm12.557 17.124a6.1 6.1 0 0 0-1.819-4.424 6.239 6.239 0 0 0-6.885-1.356 6.419 6.419 0 0 0-3.354 3.356 5.986 5.986 0 0 0-.5 2.426v4.274a6 6 0 0 0 1.855 4.459 6.261 6.261 0 0 0 10.7-4.459Zm37.6 12.272a2.045 2.045 0 0 1-.178 1.712 2.371 2.371 0 0 1-1.463 1.07 2.045 2.045 0 0 1-1.712-.178 2.354 2.354 0 0 1-1.07-1.391q-.285-1.07-.642-2.355-.357-1.142-.749-2.64t-.892-3.353h-13.841q-.571 1.855-.928 3.353t-.713 2.64q-.357 1.284-.642 2.355a2.354 2.354 0 0 1-1.07 1.391 2.189 2.189 0 0 1-1.784.178 2.354 2.354 0 0 1-1.391-1.07 2.045 2.045 0 0 1-.178-1.712l11.416-41.382a2.276 2.276 0 0 1 .821-1.249 2.228 2.228 0 0 1 1.39-.465 2.228 2.228 0 0 1 1.391.464 2.276 2.276 0 0 1 .821 1.249Zm-7.991-11.7q-.713-2.64-1.5-5.458t-1.534-5.53q-.749-2.711-1.427-5.173t-1.177-4.388q-.571 1.926-1.213 4.388t-1.391 5.173q-.749 2.711-1.534 5.53t-1.5 5.458Zm15.841-20.836a2.256 2.256 0 0 1-1.605-.642 2.161 2.161 0 0 1-.678-1.641v-5.708a2.161 2.161 0 0 1 .678-1.641 2.256 2.256 0 0 1 1.605-.642h17.124a2.229 2.229 0 0 1 1.784.856 2.254 2.254 0 0 1 .428 2l-9.989 41.1a2.089 2.089 0 0 1-1 1.391 2.252 2.252 0 0 1-1.712.25 2.042 2.042 0 0 1-1.284-.785 2.269 2.269 0 0 1-.5-1.427 1.173 1.173 0 0 1 .036-.285 1.173 1.173 0 0 0 .036-.285q2.283-9.418 4.21-17.266.856-3.353 1.641-6.707t1.493-6.214l1.249-4.994q.535-2.14.749-3.068h-11.982v3.425a2.222 2.222 0 0 1-.642 1.641 2.222 2.222 0 0 1-1.641.642Zm33.177 1.926a2.135 2.135 0 0 1-1.57.642 2.381 2.381 0 0 1-1.641-.642 2.381 2.381 0 0 1-.642-1.641 2.381 2.381 0 0 1 .643-1.645l8.562-8.562a2.09 2.09 0 0 1 1.177-.606 2.756 2.756 0 0 1 1.32.107 2.118 2.118 0 0 1 1.427 2.14v41.387a2.161 2.161 0 0 1-.678 1.641 2.256 2.256 0 0 1-1.605.642 2.2 2.2 0 0 1-2.283-2.283v-35.889Z" fill="#fff"/><path data-name="Path 150" d="M1362.765 1165.351v7.063h4.922a2.2 2.2 0 0 1 1.57.606 2.02 2.02 0 0 1 .642 1.534 2.193 2.193 0 0 1-2.212 2.213h-4.922v13.485a2.193 2.193 0 0 1-2.212 2.212 2.02 2.02 0 0 1-1.534-.642 2.2 2.2 0 0 1-.606-1.57v-13.485h-7.064v13.485a2.193 2.193 0 0 1-2.212 2.211 2.02 2.02 0 0 1-1.534-.642 2.2 2.2 0 0 1-.606-1.57v-13.484h-4.995a2.02 2.02 0 0 1-1.534-.642 2.2 2.2 0 0 1-.606-1.57 2.074 2.074 0 0 1 2.14-2.14h4.995v-7.064h-4.995a2.02 2.02 0 0 1-1.534-.642 2.2 2.2 0 0 1-.606-1.57 2.074 2.074 0 0 1 2.14-2.14h4.995v-12.13a2.079 2.079 0 0 1 .606-1.534 2.079 2.079 0 0 1 1.534-.606 2.2 2.2 0 0 1 1.57.606 2.02 2.02 0 0 1 .642 1.534v12.129h7.064v-12.129a2.079 2.079 0 0 1 .606-1.534 2.079 2.079 0 0 1 1.534-.606 2.2 2.2 0 0 1 1.57.606 2.02 2.02 0 0 1 .642 1.534v12.129h4.922a2.2 2.2 0 0 1 1.57.606 2.02 2.02 0 0 1 .643 1.535 2.135 2.135 0 0 1-.642 1.57 2.135 2.135 0 0 1-1.57.642Zm-4.352 0h-7.064v7.063h7.064Zm28.468-18.48a10.575 10.575 0 0 1 4.21.856 10.92 10.92 0 0 1 3.46 2.319 10.92 10.92 0 0 1 2.319 3.46 10.575 10.575 0 0 1 .856 4.21v23.688a10.5 10.5 0 0 1-.856 4.245 11.032 11.032 0 0 1-2.319 3.425 10.92 10.92 0 0 1-3.46 2.319 10.575 10.575 0 0 1-4.21.856h-8.562a2.2 2.2 0 0 1-2.283-2.283v-40.811a2.222 2.222 0 0 1 .642-1.641 2.222 2.222 0 0 1 1.641-.642Zm6.279 10.845a6.1 6.1 0 0 0-1.819-4.424 6 6 0 0 0-4.459-1.855h-6.28v36.249h6.279a6.213 6.213 0 0 0 6.279-6.279Zm13.984-2.568a2.505 2.505 0 0 1-1.07-1.427 1.969 1.969 0 0 1 .214-1.712 9.961 9.961 0 0 1 6.493-4.994 10.777 10.777 0 0 1 4.174-.321 11.015 11.015 0 0 1 3.96 1.249 10.725 10.725 0 0 1 3.21 2.643 9.888 9.888 0 0 1 1.926 3.71 10.534 10.534 0 0 1-.784 8.201q-3 5.637-5.565 10.631-1.142 2.14-2.283 4.317t-2.141 4.141q-1 1.962-1.855 3.567t-1.356 2.533h12.2a2.256 2.256 0 0 1 1.605.642 2.325 2.325 0 0 1 0 3.282 2.256 2.256 0 0 1-1.605.642h-15.98a2.007 2.007 0 0 1-1.926-1.07 2.1 2.1 0 0 1-.074-2.286l14.984-28.54a5.833 5.833 0 0 0 .428-4.709 6.493 6.493 0 0 0-1.106-2.176 5.438 5.438 0 0 0-1.891-1.534 6.231 6.231 0 0 0-4.709-.571 6.493 6.493 0 0 0-2.176 1.106 5.649 5.649 0 0 0-1.53 1.82 2.505 2.505 0 0 1-1.427 1.07 1.969 1.969 0 0 1-1.716-.214Zm29.11-5.993a2.222 2.222 0 0 1 .642-1.641 2.222 2.222 0 0 1 1.641-.642h14.27a2.222 2.222 0 0 1 1.641.642 2.222 2.222 0 0 1 .642 1.641 2.222 2.222 0 0 1-.642 1.641 2.222 2.222 0 0 1-1.641.642h-11.986v15.126h10.56a2.2 2.2 0 0 1 2.283 2.283 2.2 2.2 0 0 1-2.283 2.283h-10.56v16.556h11.986a2.284 2.284 0 1 1 0 4.566h-14.269a2.2 2.2 0 0 1-2.283-2.283Zm35.6 26.256a10.322 10.322 0 0 1-4.174-.856 11.481 11.481 0 0 1-3.46-2.319 10.736 10.736 0 0 1-2.355-3.425 10.5 10.5 0 0 1-.856-4.245v-7.135a10.575 10.575 0 0 1 .856-4.21 10.632 10.632 0 0 1 2.355-3.46 11.481 11.481 0 0 1 3.46-2.319 10.322 10.322 0 0 1 4.178-.856 10.575 10.575 0 0 1 4.21.856 10.92 10.92 0 0 1 3.46 2.319 10.92 10.92 0 0 1 2.319 3.46 10.575 10.575 0 0 1 .856 4.21v24.255a10.568 10.568 0 0 1-2.212 6.6 10.723 10.723 0 0 1-5.779 3.889 10.365 10.365 0 0 1-6.992-.428 10.734 10.734 0 0 1-5.208-4.638 2.06 2.06 0 0 1-.25-1.712 2.295 2.295 0 0 1 4.174-.571 6.157 6.157 0 0 0 3.032 2.676 6.02 6.02 0 0 0 4.031.25 6.18 6.18 0 0 0 3.353-2.247 6.111 6.111 0 0 0 1.284-3.817v-8.275a10.107 10.107 0 0 1-6.278 1.998Zm0-24.259a5.986 5.986 0 0 0-2.426.5 6.455 6.455 0 0 0-2 1.356 6.455 6.455 0 0 0-1.356 2 5.986 5.986 0 0 0-.5 2.426v7.132a6 6 0 0 0 1.855 4.459 6.1 6.1 0 0 0 4.424 1.819 6.064 6.064 0 0 0 4.459-1.819 6.064 6.064 0 0 0 1.819-4.459v-7.135a6.1 6.1 0 0 0-1.819-4.424 6 6 0 0 0-4.452-1.855Zm31.18-4.281a10.575 10.575 0 0 1 4.21.856 10.92 10.92 0 0 1 3.46 2.319 10.92 10.92 0 0 1 2.319 3.46 10.575 10.575 0 0 1 .856 4.21v23.688a10.5 10.5 0 0 1-.856 4.245 11.031 11.031 0 0 1-2.319 3.425 10.92 10.92 0 0 1-3.46 2.319 10.575 10.575 0 0 1-4.21.856h-8.562a2.2 2.2 0 0 1-2.285-2.283v-40.811a2.222 2.222 0 0 1 .642-1.641 2.222 2.222 0 0 1 1.641-.642Zm6.282 10.845a6.1 6.1 0 0 0-1.819-4.424 6 6 0 0 0-4.459-1.855h-6.279v36.249h6.279a6.213 6.213 0 0 0 6.279-6.279Zm36.887 31.964a2.045 2.045 0 0 1-.178 1.712 2.371 2.371 0 0 1-1.463 1.07 2.045 2.045 0 0 1-1.712-.178 2.354 2.354 0 0 1-1.07-1.391q-.285-1.07-.642-2.355-.357-1.142-.749-2.64t-.892-3.353h-13.842q-.571 1.855-.928 3.353t-.713 2.64q-.357 1.284-.642 2.355a2.354 2.354 0 0 1-1.07 1.391 2.189 2.189 0 0 1-1.784.178 2.354 2.354 0 0 1-1.391-1.07 2.045 2.045 0 0 1-.178-1.712l11.416-41.382a2.276 2.276 0 0 1 .821-1.249 2.228 2.228 0 0 1 1.389-.463 2.228 2.228 0 0 1 1.391.464 2.276 2.276 0 0 1 .821 1.249Zm-7.991-11.7q-.713-2.64-1.5-5.458t-1.534-5.53q-.749-2.711-1.427-5.173t-1.177-4.388q-.571 1.926-1.213 4.388t-1.391 5.173q-.749 2.711-1.534 5.53t-1.5 5.458Z" fill="#fff"/></g></svg>