<svg xmlns="http://www.w3.org/2000/svg" xmlns:xlink="http://www.w3.org/1999/xlink" width="2560" height="2880" viewBox="0 0 2560 2880">
  <defs>
    <clipPath id="clip-path">
      <rect id="Rectangle_139" data-name="Rectangle 139" width="1219.438" height="1712.375" fill="#212639"/>
    </clipPath>
  </defs>
  <g id="Group_165" data-name="Group 165" transform="translate(19683 18301.748)">
    <rect id="Rectangle_148" data-name="Rectangle 148" width="2560" height="2880" transform="translate(-19683 -18301.748)" fill="#dfd8ce"/>
    <g id="Group_115" data-name="Group 115" transform="translate(-19012.32 -17715.891)">
      <g id="Group_114" data-name="Group 114" clip-path="url(#clip-path)">
        <path id="Path_321" data-name="Path 321" d="M405.552,1091.834c-135.831,0-246.338-110.507-246.338-246.338V436.613c0-135.833,110.507-246.338,246.338-246.338S651.89,300.78,651.89,436.613V543.3a15.517,15.517,0,0,1-31.035,0V436.613c0-118.72-96.583-215.306-215.3-215.306s-215.3,96.586-215.3,215.306V845.5c0,118.72,96.584,215.3,215.3,215.3s215.3-96.584,215.3-215.3V639.234a15.517,15.517,0,1,1,31.035,0V845.5c0,135.831-110.507,246.338-246.338,246.338" transform="translate(204.612 244.53)" fill="#212639"/>
        <path id="Path_322" data-name="Path 322" d="M469.982,369.008H350.638a15.517,15.517,0,1,1,0-31.034H469.982a15.517,15.517,0,0,1,0,31.034" transform="translate(430.676 434.344)" fill="#212639"/>
        <path id="Path_323" data-name="Path 323" d="M403.561,322.318H149.177a15.517,15.517,0,0,1,0-31.034H403.561a15.517,15.517,0,0,1,0,31.034" transform="translate(171.773 374.341)" fill="#212639"/>
        <path id="Path_324" data-name="Path 324" d="M327.616,499.656H208.272a15.517,15.517,0,0,1,0-31.034H327.616a15.517,15.517,0,0,1,0,31.034" transform="translate(247.719 602.245)" fill="#212639"/>
        <path id="Path_325" data-name="Path 325" d="M410.327,499.656H290.983a15.517,15.517,0,0,1,0-31.034H410.327a15.517,15.517,0,0,1,0,31.034" transform="translate(354.014 602.245)" fill="#212639"/>
        <path id="Path_326" data-name="Path 326" d="M305.568,441.662a15.516,15.516,0,0,1-15.516-15.516V306.8a15.516,15.516,0,1,1,31.032,0V426.146a15.516,15.516,0,0,1-15.516,15.516" transform="translate(372.758 374.341)" fill="#212639"/>
        <path id="Path_327" data-name="Path 327" d="M553.929,410.987H285.315a15.517,15.517,0,0,1,0-31.034H553.929a15.517,15.517,0,0,1,0,31.034" transform="translate(346.73 488.293)" fill="#212639"/>
        <path id="Path_328" data-name="Path 328" d="M234.385,727.561a15.516,15.516,0,0,1-15.516-15.516V306.8a15.516,15.516,0,1,1,31.032,0V712.045a15.516,15.516,0,0,1-15.516,15.516" transform="translate(281.277 374.341)" fill="#212639"/>
        <path id="Path_329" data-name="Path 329" d="M403.853,506.916a15.462,15.462,0,0,1-10.971-4.545l-95.93-95.93A15.516,15.516,0,0,1,318.9,384.5l95.928,95.928a15.517,15.517,0,0,1-10.971,26.489" transform="translate(375.784 488.294)" fill="#212639"/>
        <path id="Path_330" data-name="Path 330" d="M376.75,758.361a15.516,15.516,0,0,1-15.516-15.516V468.253a15.516,15.516,0,1,1,31.032,0V742.845a15.516,15.516,0,0,1-15.516,15.516" transform="translate(464.236 581.828)" fill="#212639"/>
        <path id="Path_331" data-name="Path 331" d="M445.065,699.378a15.461,15.461,0,0,1-10.971-4.545L220.5,481.238,383.979,317.759A15.517,15.517,0,0,1,405.923,339.7L264.386,481.238l191.65,191.65a15.517,15.517,0,0,1-10.971,26.489" transform="translate(283.374 402.524)" fill="#212639"/>
        <path id="Path_332" data-name="Path 332" d="M609.719,1712.374C273.518,1712.374,0,1438.857,0,1102.656V609.721C0,273.52,273.518,0,609.719,0s609.719,273.52,609.719,609.721v492.934c0,336.2-273.517,609.719-609.719,609.719m0-1681.34c-319.088,0-578.687,259.6-578.687,578.687v492.934c0,319.09,259.6,578.687,578.687,578.687s578.684-259.6,578.684-578.687V609.721c0-319.09-259.594-578.687-578.684-578.687" fill="#212639"/>
        <path id="Path_333" data-name="Path 333" d="M154.562,401.28a2,2,0,0,1-2.76.162L137.668,389.1a1.625,1.625,0,0,1-.162-2.436c5.848-7.31,11.371-17.221,11.371-28.919,0-11.533-5.361-18.032-13.158-18.032-6.5,0-10.562,3.9-12.349,17.059l-.811,5.848c-3.087,22.419-13.647,34.928-33.139,34.928-20.308,0-33.79-15.271-33.79-39.151,0-14.62,4.385-28.267,11.533-37.526.651-.976,1.3-1.138,2.436-.324l14.785,9.908a1.626,1.626,0,0,1,.487,2.274c-5.523,8.448-8.448,16.572-8.448,25.669,0,9.746,5.036,14.783,12.022,14.783,6.334,0,10.4-4.548,12.184-17.219l.811-5.85c3.087-22.742,13.485-34.764,33.466-34.764s34.766,14.783,34.766,43.374c0,17.221-6.823,33.953-15.109,42.563" transform="translate(71.491 405.26)" fill="#212639"/>
        <path id="Path_334" data-name="Path 334" d="M165.757,321.812a1.534,1.534,0,0,1-1.938,1.234L59.142,299.857a1.535,1.535,0,0,1-1.234-1.938l9.275-41.871c5.2-23.473,22.445-34.46,43.061-29.894,20.3,4.5,31.414,21.935,26.249,45.248l-4.253,19.193a.861.861,0,0,0,.743,1.161l36,7.978a1.534,1.534,0,0,1,1.234,1.935ZM105.08,249.469c-8.722-1.933-15.891,2.635-18.069,12.47L83.074,279.7a.863.863,0,0,0,.743,1.163l27.12,6.008a.862.862,0,0,0,1.163-.74l3.935-17.765c2.178-9.833-2.233-16.965-10.955-18.9" transform="translate(74.358 289.335)" fill="#212639"/>
        <path id="Path_335" data-name="Path 335" d="M97.165,195.108a1.536,1.536,0,0,1-.19-2.29l45.794-54.039a1.535,1.535,0,0,1,2.29-.187L158.32,149.83a1.533,1.533,0,0,1,.19,2.29l-30.774,36.313a.861.861,0,0,0,.114,1.374l16.732,14.179a.862.862,0,0,0,1.373-.112l25.628-30.241a1.533,1.533,0,0,1,2.29-.19l13.137,11.133a1.537,1.537,0,0,1,.19,2.29l-25.628,30.242a.86.86,0,0,0,.114,1.373l17.474,14.81a.861.861,0,0,0,1.373-.114l30.774-36.315a1.535,1.535,0,0,1,2.29-.187l13.263,11.238a1.535,1.535,0,0,1,.187,2.29l-45.792,54.037a1.534,1.534,0,0,1-2.29.19Z" transform="translate(124.08 177.562)" fill="#212639"/>
        <path id="Path_336" data-name="Path 336" d="M172.71,110.5a1.538,1.538,0,0,1,.9-2.114l38.162-15.26c17.95-7.18,33.546-4.5,44.677,8.9,4.1,5.007,7.3,10.379,14,27.12s8.083,22.838,8.567,29.3c1.175,17.376-8.268,30.075-26.218,37.252l-38.162,15.265a1.535,1.535,0,0,1-2.111-.905Zm55.6,72.071,11.615-4.648c10.256-4.1,15.233-9.593,14.479-18.912-.151-3.439-1.115-7.6-6.424-20.877s-7.482-16.954-9.744-19.547c-5.882-7.271-13.272-7.815-23.53-3.713l-11.613,4.648a.859.859,0,0,0-.544,1.266l24.494,61.239a.862.862,0,0,0,1.266.544" transform="translate(221.779 114.687)" fill="#212639"/>
        <path id="Path_337" data-name="Path 337" d="M275.35,77.9a1.535,1.535,0,0,1,1.7-1.54l20.6,1.042a1.535,1.535,0,0,1,1.543,1.7l-5.418,107.072a1.535,1.535,0,0,1-1.7,1.54l-20.6-1.042a1.534,1.534,0,0,1-1.54-1.7Z" transform="translate(346.9 98.134)" fill="#212639"/>
        <path id="Path_338" data-name="Path 338" d="M336.177,203.243a1.533,1.533,0,0,1-.715-2.182L374.515,123.8a.862.862,0,0,0-.432-1.309l-24.933-12.6a1.537,1.537,0,0,1-.718-2.182l8.133-16.092a1.537,1.537,0,0,1,2.185-.718l72.916,36.857a1.536,1.536,0,0,1,.718,2.182l-8.133,16.09a1.535,1.535,0,0,1-2.182.718l-24.936-12.6a.862.862,0,0,0-1.309.43l-39.053,77.267a1.534,1.534,0,0,1-2.182.715Z" transform="translate(430.853 116.548)" fill="#212639"/>
        <rect id="Rectangle_138" data-name="Rectangle 138" width="110.469" height="23.881" rx="0.711" transform="matrix(0.772, -0.636, 0.636, 0.772, 887.973, 410.769)" fill="#212639"/>
        <path id="Path_339" data-name="Path 339" d="M439.409,234.17c6.757-4.31,12.556-6.517,28.418-10.717s21.992-5.151,29.995-4.751c18.729.923,31.274,13.4,36.219,32.083s.222,35.733-15.6,45.8c-6.757,4.31-12.557,6.519-28.416,10.717s-21.994,5.151-30,4.751c-18.729-.923-31.273-13.4-36.222-32.083s-.219-35.733,15.6-45.8m21.041,54.08c4.1.258,9.408-.642,23.382-4.342s19.033-5.544,22.469-7.8c6.757-4.31,9.655-11.126,7.329-19.92s-8.222-13.281-16.227-13.683c-4.1-.258-9.408.642-23.384,4.344s-19.031,5.544-22.468,7.8c-6.755,4.31-9.657,11.126-7.328,19.92s8.222,13.281,16.227,13.683" transform="translate(542.249 280.956)" fill="#212639"/>
        <path id="Path_340" data-name="Path 340" d="M537.729,311.319a1.534,1.534,0,0,1,1.625,1.625v19.495a3.013,3.013,0,0,1-1.625,2.76L468.2,374.188V375h69.53a1.534,1.534,0,0,1,1.625,1.625v18.357a1.536,1.536,0,0,1-1.625,1.625H430.51a1.535,1.535,0,0,1-1.625-1.625V375.65a2.859,2.859,0,0,1,1.625-2.763l69.368-39.149v-.813H430.51a1.534,1.534,0,0,1-1.625-1.625V312.944a1.534,1.534,0,0,1,1.625-1.625Z" transform="translate(551.179 400.089)" fill="#212639"/>
      </g>
    </g>
  </g>
</svg>
