<svg xmlns="http://www.w3.org/2000/svg" width="2560" height="2880" viewBox="0 0 2560 2880"><g data-name="Group 101"><path data-name="Rectangle 158" fill="none" d="M0 0h2560v2880H0z"/><path data-name="Rectangle 135" fill="#d2e9da" d="M286 391h1988v2097H286z"/><g data-name="Group 92" fill="#fff"><path data-name="Path 78" d="M1258.73 1553.837c-33.113 12.863-55.892 172.239-100.269 207.912-28.4 22.81-77.036 16.237-75.878 1.178.879-11.55 24.057-4.447 46.821-35.236 44.14-59.731 76.529-171.593 104.088-185.7 18.73-9.562 34.677 8.17 25.238 11.846Z" fill-rule="evenodd"/><path data-name="Path 79" d="M1482.96 1494.59c-6.933 10.907-16.411 28.144-25.7 23.163-11.484-6.151-13.382-24.107-4.629-39.4s26.838-21.659 36.32-15.985c11.18 6.689 3.46 17.337-5.991 32.222Z" fill-rule="evenodd"/><path data-name="Path 80" d="M1036.277 1716.641c-6.848-4.888-25.572.321-41.534-8.8a46.8 46.8 0 0 0 13.007-15.431c6.162-11.655-1.716-26.006-7.386-17.229-12.046 18.65-19.444 21.885-19.444 21.885s-17.124-11.616-23.639-27.326c27.26-21.385 101.028-91.143 56.876-126.1-41.812-33.1-118.853 34.926-99.967 103.538-3.486 3.192-44.473 25.878-54.079 55.28-8.823 26.974-3.687 53 28.109 59.7 31.722 6.685 81.6-34.473 81.6-34.473a59.871 59.871 0 0 0 26.141 13.816c15.654 3.547 49.952-17.982 40.316-24.86Zm-43.3-166.046c14.32 20.137-52.91 80.991-52.91 80.991-11.624-59.982 46.921-89.415 52.914-80.991Zm-103.054 187.736c-8.506-8.9 14.781-35.325 43.447-52.488 0 0 9.924 17.039 23.213 29.747-11.058 8.259-51.531 38.552-66.66 22.741Z" fill-rule="evenodd"/><path data-name="Path 81" d="M1814.386 1564.171c-78.756-49.067-10.942-72.78 4.408-67.555 30.89 10.528-40.895 35.383-10.105 41.05 52 9.579 52.685-78.474-25.549-47.491-38.369 15.187-50.392 38.737-90.229 130.682 14.141-46.844 27.024-91.074 46.623-114.527 10.086-12.057-32.261-11.337-42.021 9.106a49.492 49.492 0 0 0-10.489-11.156c-24.886-17.8-102.074 36.549-127.077 136.965 13.564-85.976 37.13-96.062 32.5-105.819-2.847-5.965-16.586-20.339-26.78-15.943-39.725 17.135-79.407 107.9-78.474 89.784.527-10.152 13.533-38.989 29.422-64.878 7.607-12.4-18.883-18.875-26.571-10.969 0 0-47.312 50.531-64.747 91.72 5.795-24 15.424-51.763 30.712-72.218 7.185-9.606-20.192-18.464-26.741-10.671 0 0-51.585 61.823-70.49 126.735 13.564-85.992 38.067-99.27 33.434-109.015-2.843-5.969-22.694-14.99-32.718-10.225-25.382 12.05-78.358 104.723-73.473 87.262 16.334-58.375 29.77-72.056 60.323-133.188 6.5-13.014 7.347-26.807 1.313-30.956-6.108-4.187-1.1 4.915-22.922 13.189-32.086 12.158-283.88-24.731-255.884 88.629 10.04 40.662 69.984 40.023 60.165 26.815s-34.9-40.457-12.468-65.87c23.863-27.012 181.252-8.579 181.252-8.579s-43.862 96.729-51.322 150.007c-1.154 8.266 10.493 29.983 22.311 23.344 13.46-7.572 19.851-58.708 83.458-123.788 0 0-37.726 98.108-18.348 121.2 7.658 9.117 23.116 16.45 23.349 8.3 1.224-42.165 33.6-96.032 42.637-106.749 4.412-5.225-12.809 33.032-12.809 54.8 0 18.948 29.651 43.335 30.564 18.948 1.824-48.6 43.529-93.332 45.9-92.116s-14.425 31.308-15.889 68.329c-.329 8.347 10.5 29.988 22.318 23.333 13.452-7.565 46.65-95.086 83.455-123.78 0 0-37.738 98.108-18.356 121.2 7.662 9.13 25.026 16.771 24.817 8.622-1-41.123 27.012-94.211 40.654-103.6 5.628-3.877-13.216 15.873-12.286 51.333.484 18.945 26.575 64.8 84.749-35.875-22.036 48.533-48.247 170.833-109.48 158.95-17.232-3.347 34.682-52.468 18.844-48.537-146.06 34.655-370.91-16.372-405.1 127.975-5.1 21.586 11.055 23.468 18.941 12.2 63.708-90.984 247.385-86.5 353.5-107.14-14.5 21.136-24.681 53.928.085 58.518 134.439 24.894 138.3-203.435 197.97-258.03 3.994 46.41 67.036 47.549 56.582 69.058-13.51 27.776-57.519 20.045-68.1-19.746-3.994-15.029-29.67 27.687-.682 49.063 35.915 26.491 137.424-32.197 78.824-68.696Zm-192.5 58.646c-9.676-11.1 43.4-120.418 64.7-98.162 16.322 17.868-56.078 108.055-64.704 98.162Z" fill-rule="evenodd"/><path data-name="Path 82" d="M1519.312 1212.43a38.283 38.283 0 0 0 3.583 1.619c.721-1.328 1.468-2.661 2.177-3.985a71.885 71.885 0 0 1-14.335-3.471 50.644 50.644 0 0 0 8.575 5.837Z"/><path data-name="Path 83" d="M884.248 1325.629c-6.213 11.829-12.515 23.952-18.883 36.192-35.8 68.822-72.52 139.394-105.858 183.6-10.713 14.668-20.951 26.4-30.51 34.085a104.256 104.256 0 0 1-28.566 15.985 151.422 151.422 0 0 1-58.979 11.778c-15.059 0-28.678-2.27-39.512-6.364a35.708 35.708 0 0 0 7.859 5.485c10.226 5.4 25.792 8.626 43.312 8.622 27.059 0 58.793-7.693 82.761-26.951 39.175-31.479 87.425-124.191 134.106-213.936 4.032-15.596 8.905-31.965 14.27-48.496Z"/><path data-name="Path 84" d="M1764.493 1057.037c-1.182 3.056-5.055 4.9-13.824 8.215-2.123.883-4.28 1.7-6.383 2.491-.848.317-1.724.643-2.611.98a121.16 121.16 0 0 0-44.269 29.7q12.4-3.538 24.751-6.941c11.539-8.1 22.206-12.12 31.045-15.447 11.67-4.381 21.752-8.165 22.667-19.99a18.933 18.933 0 0 0-4.16-13.359 23.091 23.091 0 0 1-7.216 14.351Z"/><path data-name="Path 85" d="M1058.85 1126.303c-15.25 30.526-27.978 54.114-39.2 74.93-16.1 29.847-28.512 52.871-39.95 80.615 9.986-14.076 19.758-27.431 29.17-39.469 4.846-9.269 10.009-18.863 15.637-29.294 11.2-20.761 23.891-44.3 39.09-74.72 9.525-19.049 13.661-41.983 5.988-54.73.339 13.649-4.046 29.293-10.735 42.668Z"/><path data-name="Path 86" d="M1974.873 1172.829c22.662-13.185-15.869-71.912-76.456-90-9.811-2.932-21.3-4.226-34.054-4.226-54.141 0-131.221 23.279-201.13 43.35 4.675-7.2 9.419-14.1 14.253-20.625 39.512-53.459 79.744-41.127 81.286-61.195 1.023-13.355-17.035-22.02-41.518-22.02a125.927 125.927 0 0 0-76.89 27.319c-23.732 19.084-47.94 55.722-71.482 101.876a207.29 207.29 0 0 1-35.445 3.478c-13.471 0-24.553-1.979-31.1-6.426a7.96 7.96 0 0 0-4.447-1.538c-11.682 0-16.31 33.783 12.406 49.281 7.929 4.276 19.917 6.042 35 6.042h.717c-33.485 68.194-106.164 172.692-124.1 172.692-2.99 0-4.462-2.9-3.97-9.362 7.673-158.683 64.576-164.694 57.132-186.772-3.176-9.416-22.961-28.577-39.7-28.577a18.713 18.713 0 0 0-7.472 1.479c-62.763 27.082-125.477 160.042-135.032 160.042-.937 0-1.364-1.3-1.217-4.129.9-17.627 23.5-67.706 51.085-112.656 9.222-15.036-10.423-25.057-27.667-25.057-7.441 0-14.436 1.867-18.464 6.011 0 0-82.165 87.742-112.423 159.263 10.043-41.669 26.757-89.881 53.316-125.415 9.125-12.189-13.882-23.7-31.335-23.7-6.4 0-12.05 1.545-15.106 5.179 0 0-89.578 107.365-122.4 220.063 23.558-149.294 66.106-172.363 58.053-189.3-3.962-8.32-27-20.068-44.934-20.068a27.682 27.682 0 0 0-11.883 2.324c-40.294 19.124-120.65 155.304-127.629 155.304-.658 0-.662-1.193.062-3.792 28.36-101.357 51.709-125.12 104.739-231.265 11.295-22.594 12.778-46.554 2.282-53.75-1.836-1.262-3.1-1.824-4.114-1.824-4.865 0-4.369 12.844-35.685 24.719-55.694 21.117-492.955-42.947-444.329 153.9 10.992 44.524 56.446 60.532 84.256 60.532 16.295 0 26.528-5.492 20.226-13.963-17.039-22.938-60.6-70.258-21.648-114.368 17.535-19.847 76.541-25.568 138.8-25.568 48.126 0 98.2 3.416 132.561 6.383-54.629 46.356-177.29 255.562-249.067 352.671-39.5 53.46-79.744 41.135-81.278 61.2-1.081 13.983 22.589 23.751 52.379 23.751 25.905 0 56.439-7.383 79.365-25.8 67.74-54.443 167.115-303.669 229.224-378.4-22.241 52.2-66.749 162.6-76.382 231.346-1.743 12.492 13.359 42.68 30.832 42.68a15.925 15.925 0 0 0 7.913-2.165c23.368-13.142 34.473-101.927 144.913-214.943 0 0-65.51 170.353-31.858 210.438 9.261 11.035 25.08 20.552 33.973 20.552 3.881 0 6.449-1.816 6.577-6.112 2.13-73.214 58.328-166.766 74.023-185.363.476-.569.809-.84 1.015-.84 3.01 0-23.256 60.563-23.256 96 0 23.027 25.227 50.687 40.91 50.687 6.728 0 11.69-5.082 12.166-17.786 3.122-83.276 73.674-160.011 79.508-160.011a.436.436 0 0 1 .2.043c4.1 2.111-25.049 54.366-27.6 118.659-.492 12.6 13.661 42.688 30.871 42.688a15.927 15.927 0 0 0 7.878-2.173c23.352-13.142 81.015-165.135 144.909-214.935 0 0-65.529 170.357-31.862 210.446 7.542 8.982 16.791 13.258 25.963 13.258a32.51 32.51 0 0 0 20.068-7.278c21.462-16.771 66.5-88.757 105.625-162.173-31.583 84.741-43.834 102.326-32.826 147.586 4.57 18.793 30.828 36.979 41.979 36.979 5.372 0 7.239-4.214 1.5-14.614-22.977-41.615 36.812-133.146 87.789-233.244 75.154-12.15 170.512-49.09 246.2-49.09 2.452 0 4.872.035 7.286.116 59.025 1.937 75.623 33.826 90.791 33.826a11.179 11.179 0 0 0 5.728-1.64Z"/><path data-name="Path 87" d="M663.786 1194.784c18.5-20.943 99.812-28.356 220.876-20.776 1.9-2.273 3.8-4.528 5.624-6.627-30.429-2.185-67.512-4.122-103.429-4.122-58.766 0-91.116 5.148-108.922 10.675-9.815 3.629-17.531 8.095-22.376 13.58-.717.817-1.359 1.627-2.022 2.44-10.4 14.99-9.865 30.158-3.656 45.508-1.349-13.363 2.029-27.229 13.905-40.678Z"/><path data-name="Path 88" d="M1482.395 1215.006c5.465-7.181 9.776-12.906 10.384-19.309a53.539 53.539 0 0 1-6.166-6.492c-2.285 5.182-5.957 10-9.722 14.959-13.541 17.806-38.191 50.214-44.9 143.182 1.847-1.991 3.873-4.3 5.977-6.759 8.904-78.768 31.525-108.608 44.427-125.581Z"/><path data-name="Path 89" d="M647.588 1323.92c14.691 2.2 33.864 1.406 39.558-8.1 2.459-4.106 1.944-9.056-1.421-13.583-.542-.732-1.135-1.514-1.731-2.3a18.521 18.521 0 0 1-1.2 3.1 20.31 20.31 0 0 1-5.372 6.558c.182.341.283.573.283.573-.345.72-2.134 1.72-5.171 2.522-5.837 2.909-13.545 4.462-23.062 4.462-15.1 0-31.277-3.811-45.756-10.543a104.135 104.135 0 0 0 43.872 17.311Z"/><path data-name="Path 90" d="M1104.617 1381.47c0-2.033.078-4.125.213-6.267-13.541 31.18-24.766 66.346-25.653 96.853a18.963 18.963 0 0 1-7.019 14.614 9.252 9.252 0 0 0-.019.348c-.012.372-.058.608-.042.674a3.584 3.584 0 0 1-1.5.194 20.69 20.69 0 0 1-11.167 3.076 37.976 37.976 0 0 1-14.076-3.208c10.179 7.534 22.426 13.057 30.417 10.272 4.516-1.569 7.193-5.469 7.344-10.695.848-29.17 10.873-62.422 23.453-92.692a50.441 50.441 0 0 1-1.951-13.169Z"/><path data-name="Path 91" d="M1024.095 1304.491c-2.01 2.494-4 4.981-5.915 7.445-36.44 47.561-55.741 88.068-68.67 115.239-8.289 17.43-14.25 29.925-21.284 38.121-2.363 3.424-4.632 5.888-6.895 7.162a11.11 11.11 0 0 1-3.486 1.267 28.842 28.842 0 0 1-13.355 3.362 29.252 29.252 0 0 1-7.123-.9 38.4 38.4 0 0 0 4.865 4.055c8.06 5.5 16.76 6.143 24.487 1.786 9.8-5.516 16.833-20.289 27.469-42.657 12.17-25.572 29.964-62.837 62.078-106.656 2.502-9.76 5.175-19.265 7.829-28.224Z"/><path data-name="Path 92" d="M1998.337 1172.315a46.2 46.2 0 0 0-3.784-12.914c.205 8.316-2.51 15.493-7.739 20.68a6.9 6.9 0 0 1-3.08 3.5 5.967 5.967 0 0 1-2.6.821 24.219 24.219 0 0 1-11.988 3.234 26.177 26.177 0 0 1-8.8-1.6c10.055 7 18.789 12.906 28.914 7.034 6.959-4.053 10.181-11.425 9.077-20.755Z"/><path data-name="Path 93" d="M1551.326 1442.184a16.539 16.539 0 0 1-4.756 5.155 1 1 0 0 0 .027.112c-.043 0-.116-.027-.163-.031a18.907 18.907 0 0 1-10.857 3.215 35.6 35.6 0 0 1-12.635-2.793c7.173 5.326 14.656 9.048 20.436 10.2 7.526 1.526 11.035-1.565 12.464-3.521 4.555-6.232-.55-15.583-2.3-18.755a17.287 17.287 0 0 1-2.216 6.418Z"/><path data-name="Path 94" d="M1877.919 1153.795c-2.266-.07-4.543-.108-6.852-.108-45.209 0-98.762 13.952-150.553 27.439-30.6 7.975-59.637 15.54-86.929 20.362-8.943 17.388-18.073 34.449-26.931 51.008-35.952 67.194-73.124 136.666-58.045 163.985.139.256.306.55.48.875-.848-34.728 28.856-90.287 62.411-152.989 9.42-17.612 19.15-35.8 28.612-54.3 28.07-4.726 58.224-12.577 90.094-20.881 55.009-14.331 111.935-29.212 159.585-27.57 21.024.689 36.231 5.213 48 10.76-12.617-8.359-30.039-17.597-59.872-18.581Z"/><path data-name="Path 95" d="M1476.623 1364.582c-9.653 14.908-18.979 28.314-27.423 39.078-8.169 10.807-15.048 18.592-20.161 22.585a28.949 28.949 0 0 1-9.494 4.981 43.935 43.935 0 0 1-18.813 4.3 42.715 42.715 0 0 1-13.452-2.227c14.269 12.522 33.369 13.445 48.521 1.6 10.171-7.952 24.9-27.137 41.282-51.883a108.759 108.759 0 0 1-.46-18.434Z"/><path data-name="Path 96" d="M1218.792 1313.334c-16.946 27.524-33.354 64.022-34.756 101.537-.43 11.4-3.947 19.068-8.827 23.864a5.4 5.4 0 0 1-4.412 3.365 23.881 23.881 0 0 1-12.1 3.234 30.5 30.5 0 0 1-9.726-1.743c7.049 5.787 14.548 9.435 20.993 9.556 5.051-.043 17.213-1.952 18-23.07 1.139-30.305 11.589-59.77 24.414-84.757a314.045 314.045 0 0 1 6.414-31.986Z"/><path data-name="Path 97" d="M1365.311 1285.57c2.692-10.52 5.57-20.757 8.428-30.355-21.5 30.623-41.568 67.748-57.914 97.976-16.678 30.847-27.5 50.508-36.688 61.83-3.35 4.71-6.244 8.006-8.49 9.269a11.176 11.176 0 0 1-3.4 1.228 27.884 27.884 0 0 1-20.207 2.56 35.618 35.618 0 0 0 6.317 5.016c7.533 4.605 15.373 4.869 22.671.767 10.2-5.737 22.969-28.713 44.66-68.829 12.747-23.577 27.756-51.268 44.012-76.994.212-.833.398-1.627.611-2.468Z"/><path data-name="Path 98" d="M1314.103 1087.399a16.6 16.6 0 0 0-3.8-7.162c-1.491 9.676-7.708 19.429-14.637 30.278l-2.022 3.172c-.817 1.282-1.654 2.634-2.525 4.028-4.048 6.488-8.324 13.321-13.135 19.107-4.3 5.841-8.85 10.709-12.472 10.965a24.341 24.341 0 0 1-11.918 3.207 21.921 21.921 0 0 1-3.191-.256 27.311 27.311 0 0 0 7.824 6.271 14.655 14.655 0 0 0 6.987 1.793c12.515 0 22.337-15.757 31-29.662.883-1.41 1.735-2.781 2.56-4.083l2.034-3.188c8.743-13.686 15.646-24.5 13.295-34.47Z" fill-rule="evenodd"/><path data-name="Path 99" d="M1282.519 1106.622c12.248-19.293 22.256-33.1 7.77-41.785a20.488 20.488 0 0 0-10.62-2.657c-12.372 0-27.892 8.378-36.475 23.4-11.345 19.828-8.885 43.114 6 51.1a9.125 9.125 0 0 0 4.392 1.139c10.589-.005 21.035-18.771 28.933-31.197Z" fill-rule="evenodd"/></g><g data-name="Rectangle 145" fill="none" stroke="#fff" stroke-width="21"><path stroke="none" d="M363 483h1834v1914H363z"/><path d="M373.5 493.5h1813v1893h-1813z"/></g></g></svg>