<svg xmlns="http://www.w3.org/2000/svg" xmlns:xlink="http://www.w3.org/1999/xlink" width="2560" height="2880" viewBox="0 0 2560 2880">
  <defs>
    <clipPath id="clip-path">
      <rect id="Rectangle_135" data-name="Rectangle 135" width="2030.717" height="1498.309" fill="#d4551c"/>
    </clipPath>
  </defs>
  <g id="Group_154" data-name="Group 154" transform="translate(-980 -1134)">
    <path id="Path_250" data-name="Path 250" d="M0,0H2560V2880H0Z" transform="translate(980 1134)" fill="#212639"/>
    <g id="Group_108" data-name="Group 108" transform="translate(1244.641 1824.845)">
      <g id="Group_107" data-name="Group 107" clip-path="url(#clip-path)">
        <path id="Path_253" data-name="Path 253" d="M454.537,470.265a25.939,25.939,0,0,0-3.037-10.3l-20.47-38.448a26.715,26.715,0,0,0-6.9-8.356,27.636,27.636,0,0,0-9.234-4.944,27.956,27.956,0,0,0-10.369-1.11,27.06,27.06,0,0,0-18.726,9.828,27.374,27.374,0,0,0-4.916,9.132,27.086,27.086,0,0,0-1.085,10.36,26.4,26.4,0,0,0,3.074,10.364l20.466,38.448a26.212,26.212,0,0,0,6.862,8.294,27.555,27.555,0,0,0,19.57,5.991,27.112,27.112,0,0,0,18.726-9.828,27.05,27.05,0,0,0,6.035-19.429m-12.963,6.569a14.838,14.838,0,0,1-7.282,8.665,14.29,14.29,0,0,1-5.572,1.633,15.946,15.946,0,0,1-5.681-.572,14.109,14.109,0,0,1-5.085-2.661,14.548,14.548,0,0,1-3.706-4.513l-20.43-38.375a14.4,14.4,0,0,1-1.671-5.581,13.953,13.953,0,0,1,.649-5.673,15.684,15.684,0,0,1,2.726-4.983,14.208,14.208,0,0,1,4.493-3.649,14.772,14.772,0,0,1,16.338,1.6,14.56,14.56,0,0,1,3.706,4.513l20.43,38.372a14.674,14.674,0,0,1,1.085,11.221" transform="translate(876.558 929.932)" fill="#d4551c"/>
        <path id="Path_254" data-name="Path 254" d="M319.005,431.107l-41.231-11.395a6.83,6.83,0,0,0-5.347.677,6.756,6.756,0,0,0-3.348,4.2l-21.945,78.279a6.687,6.687,0,0,0,.678,5.311,6.785,6.785,0,0,0,4.232,3.324l41.228,11.391a6.227,6.227,0,0,0,4.794-.552,6.147,6.147,0,0,0,2.382-8.5,6.188,6.188,0,0,0-3.815-2.933l-29.152-8.057a7.022,7.022,0,0,1-4.3-3.328,6.7,6.7,0,0,1-.718-5.443l3.266-11.651a6.592,6.592,0,0,1,3.408-4.152,7.1,7.1,0,0,1,5.416-.647l9.161,2.533a5.911,5.911,0,0,0,4.738-.621,6.171,6.171,0,0,0,2.931-3.794,5.95,5.95,0,0,0-.576-4.612,5.86,5.86,0,0,0-3.729-2.963l-9.165-2.533a7.013,7.013,0,0,1-4.3-3.341,6.582,6.582,0,0,1-.748-5.331l4.788-17.087a6.643,6.643,0,0,1,3.418-4.182,7.081,7.081,0,0,1,5.419-.654l29.152,8.054a6.141,6.141,0,0,0,4.8-.6,6.055,6.055,0,0,0,3-3.774,5.811,5.811,0,0,0-.629-4.7,6.219,6.219,0,0,0-3.818-2.91" transform="translate(569.895 958.323)" fill="#d4551c"/>
        <path id="Path_255" data-name="Path 255" d="M292.942,425.832a18.781,18.781,0,0,0-6.19-4.71L261.577,409.06a10.75,10.75,0,0,0-4.95-1.176c-1.565.043-2.581.535-3.037,1.481l-37.446,77.047a6.088,6.088,0,0,0,2.888,8.215,6.171,6.171,0,0,0,8.275-2.868l5.509-11.339a6.661,6.661,0,0,1,4.106-3.511,7.077,7.077,0,0,1,5.449.306l13.886,6.652a18.843,18.843,0,0,0,7.57,1.879,21.432,21.432,0,0,0,7.557-1.064,18.87,18.87,0,0,0,6.551-3.771,19.352,19.352,0,0,0,4.682-6.179l13.337-27.444a19.269,19.269,0,0,0,1.955-7.479,18.648,18.648,0,0,0-1.1-7.44,21.27,21.27,0,0,0-3.864-6.536m-8.149,16.112-13.337,27.444a6.9,6.9,0,0,1-4.139,3.577,7.121,7.121,0,0,1-5.611-.306l-13.886-6.651a7,7,0,0,1-3.633-4.047,6.575,6.575,0,0,1,.212-5.374l13.462-27.7a6.661,6.661,0,0,1,4.106-3.511,7.085,7.085,0,0,1,5.453.306l13.886,6.651a7.174,7.174,0,0,1,3.762,4.106,6.741,6.741,0,0,1-.275,5.509" transform="translate(497.486 931.9)" fill="#d4551c"/>
        <path id="Path_256" data-name="Path 256" d="M248.925,292.658c-56.523-10.528-112.368-22.987-170.889-37.7a6.787,6.787,0,0,0-1.644-.2,5.981,5.981,0,0,0-6.111,6.635c2.67,22.7,17.029,81.944,94,102.287,24.516,6.54,59.977,14.377,99.1,21.574-.678-2.6-1.347-5.223-1.992-7.887a489.981,489.981,0,0,1-12.46-84.707" transform="translate(162.147 582.048)" fill="#d4551c"/>
        <path id="Path_257" data-name="Path 257" d="M265.424,406.069A27.726,27.726,0,0,0,239.6,393.351a23.5,23.5,0,0,0-8.867,2.667,21.115,21.115,0,0,0-7.067,6.129q-8.238,11.061-4.066,23.213a37,37,0,0,0,4.615,9.27q2.953,4.311,6.051,8.547,2.953,3.952,4.923,6.823a26.376,26.376,0,0,1,2.888,5.239,9.212,9.212,0,0,1,.695,4.342,8.114,8.114,0,0,1-1.677,3.935,15.15,15.15,0,0,1-5.595,4.628A18.778,18.778,0,0,1,224.312,470a23.051,23.051,0,0,1-7.858-.959,25.185,25.185,0,0,1-13.512-9.917,22.651,22.651,0,0,1-3.229-7.177,18.238,18.238,0,0,1-.324-7.354,14.92,14.92,0,0,1,2.812-6.652,6.082,6.082,0,0,0-1.3-8.606,6.179,6.179,0,0,0-8.665,1.288,26.836,26.836,0,0,0-4.933,11.06,30.439,30.439,0,0,0,.112,12.091,36.534,36.534,0,0,0,26.058,27.319,36.223,36.223,0,0,0,12.672,1.12,30.98,30.98,0,0,0,11.679-3.436,27.082,27.082,0,0,0,9.208-7.916,19.759,19.759,0,0,0,2.829-19.63,33.755,33.755,0,0,0-4.212-7.9q-2.665-3.74-5.386-7.519-3.449-4.484-5.783-8.071a26.194,26.194,0,0,1-3.259-6.661,12.216,12.216,0,0,1-.4-5.811,14.166,14.166,0,0,1,2.746-5.725,9.838,9.838,0,0,1,7.854-3.928,14.717,14.717,0,0,1,9.634,3.068,16.215,16.215,0,0,1,3.719,3.791,13.313,13.313,0,0,1,2.071,4.431,11.687,11.687,0,0,1,.235,4.5,8.747,8.747,0,0,1-1.677,4.06,5.744,5.744,0,0,0-1.105,4.572,6.1,6.1,0,0,0,2.491,4.034,5.92,5.92,0,0,0,4.562,1.127,6.023,6.023,0,0,0,4.043-2.457,20.934,20.934,0,0,0,3.825-8.494,22.544,22.544,0,0,0-.093-9.23,27.776,27.776,0,0,0-3.7-8.944" transform="translate(431.128 898.431)" fill="#d4551c"/>
        <path id="Path_258" data-name="Path 258" d="M322.031,428.824a6.292,6.292,0,0,0-8.784.338,5.908,5.908,0,0,0-1.628,4.428l3.219,82.624a6.141,6.141,0,0,0,1.975,4.362,6.122,6.122,0,0,0,8.781-.338,6.153,6.153,0,0,0,1.628-4.5L324,433.114a5.912,5.912,0,0,0-1.969-4.29" transform="translate(719.37 976.038)" fill="#d4551c"/>
        <path id="Path_259" data-name="Path 259" d="M645.1,827.123c3.623-.256,5.714-4.1,2.885-7.243-78.263-86.487-110.33-182.441-116.338-274.975a512.23,512.23,0,0,1,49.628-257.188l-2.7.118q.427-1.567.791-3.137C390.9,269.914,198.98,226.036,10.39,153.063a7.73,7.73,0,0,0-2.786-.526,7.593,7.593,0,0,0-7.6,7.89C1.189,189.26,13.589,265.233,108.564,298.133,167.959,318.85,280,349.9,376.694,367.47c30.038,5.87,53.218,9.972,71.749,12.922-10.091,59.881-16.424,142.741,3.189,223.809,1.624,6.717,3.408,13.425,5.406,20.106q1.36,4.548,2.829,9.076c21.085,64.634,61.8,121.187,87.186,149.9,33.764,38.182,66.531,44.2,88.381,44.2,3.52,0,6.756-.154,9.667-.358" transform="translate(0.002 348.507)" fill="#d4551c"/>
        <path id="Path_260" data-name="Path 260" d="M334.217,359.815a677.507,677.507,0,0,1,5.419-77.654c-85.013-15.7-163.048-34.8-244.127-58.485q-14.357-4.149-27.55-8.189-13.434-4.06-27.017-8.264a6.609,6.609,0,0,0-1.988-.305,5.967,5.967,0,0,0-6.114,6.3c1.4,22.809,12.433,82.756,88.149,107.3,47.319,15.455,136.434,38.248,213.232,50.638-.033-3.764-.043-7.542,0-11.339" transform="translate(75.783 472.751)" fill="#d4551c"/>
        <path id="Path_261" data-name="Path 261" d="M788.9,206.917a6.736,6.736,0,0,0-1.992.305q-13.722,4.267-27.253,8.337-12.983,3.971-27.14,8.067c-81.142,23.709-159.226,42.823-244.3,58.537a678.931,678.931,0,0,1,5.419,77.651c.036,3.8.027,7.575,0,11.339,76.794-12.387,165.91-35.18,213.231-50.638,75.716-24.544,86.75-84.493,88.146-107.3a5.963,5.963,0,0,0-6.111-6.3" transform="translate(1127.076 472.751)" fill="#d4551c"/>
        <path id="Path_262" data-name="Path 262" d="M672.153,254.754a6.635,6.635,0,0,0-1.645.207c-58.521,14.709-114.363,27.168-170.889,37.7a489.989,489.989,0,0,1-12.46,84.707q-.968,4-1.992,7.887c39.12-7.2,74.581-15.034,99.1-21.571,76.97-20.342,91.329-79.592,94-102.287a5.982,5.982,0,0,0-6.111-6.638" transform="translate(1120.026 582.046)" fill="#d4551c"/>
        <path id="Path_263" data-name="Path 263" d="M1059.23,152.537a7.729,7.729,0,0,0-2.786.526C867.854,226.036,675.93,269.914,487.463,284.7c.238,1.048.506,2.092.791,3.137-.9-.039-1.8-.076-2.7-.115a512.245,512.245,0,0,1,49.631,257.185c-6.008,92.538-38.075,188.488-116.341,274.978-2.825,3.14-.738,6.983,2.888,7.24,2.912.2,6.147.358,9.668.358,21.85,0,54.617-6.014,88.381-44.2,25.386-28.715,66.094-85.268,87.187-149.9.986-3.019,1.922-6.044,2.829-9.076q2.987-10.022,5.406-20.106c19.613-81.067,13.281-163.928,3.189-223.809,18.528-2.95,41.711-7.052,71.749-12.922,96.692-17.57,208.732-48.617,268.127-69.337,94.978-32.9,107.378-108.873,108.56-137.706a7.593,7.593,0,0,0-7.6-7.89" transform="translate(963.881 348.507)" fill="#d4551c"/>
        <path id="Path_264" data-name="Path 264" d="M395.789,423.639a5.915,5.915,0,0,0-4.672-1L333.4,433.763a5.872,5.872,0,0,0-3.957,2.657,6.125,6.125,0,0,0-.916,4.694,6,6,0,0,0,2.591,3.873,5.9,5.9,0,0,0,4.672,1l16.692-3.216a6.822,6.822,0,0,1,5.277,1.1,6.747,6.747,0,0,1,3,4.447L374.1,516.565a6.2,6.2,0,0,0,2.6,4.014,5.782,5.782,0,0,0,4.622,1.005,5.982,5.982,0,0,0,3.977-2.661,6.051,6.051,0,0,0,.966-4.7l-13.337-68.25a6.7,6.7,0,0,1,1.1-5.242,6.8,6.8,0,0,1,4.483-2.976l14.994-2.887a5.871,5.871,0,0,0,3.957-2.657,5.976,5.976,0,0,0,.946-4.553,6.191,6.191,0,0,0-2.62-4.014" transform="translate(758.124 965.354)" fill="#d4551c"/>
        <path id="Path_265" data-name="Path 265" d="M449.168,390.2A5.918,5.918,0,0,0,445,387.894a5.989,5.989,0,0,0-4.476,1.2,6.075,6.075,0,0,0-2.372,4.109,5.853,5.853,0,0,0,1.247,4.569l31.408,39.906q1.861,2.365,1.257,3.107t-3.338-.407l-57.165-25a6.114,6.114,0,0,0-4.013-.338,5.666,5.666,0,0,0-3.3,2.2,5.474,5.474,0,0,0-1.4,3.8,6.254,6.254,0,0,0,1.373,3.837l51.189,65.044a6.187,6.187,0,0,0,8.7,1.061,6.079,6.079,0,0,0,1.065-8.635l-31.58-40.13q-1.777-2.257-1.158-3.1t3.352.305l57.049,25.1a6.15,6.15,0,0,0,3.358.48,6.3,6.3,0,0,0,3.057-1.281,4.786,4.786,0,0,0,1.032-.982,6.5,6.5,0,0,0,1.261-3.791,5.811,5.811,0,0,0-1.284-3.817Z" transform="translate(930.001 886.137)" fill="#d4551c"/>
        <path id="Path_266" data-name="Path 266" d="M373.962,421.513a5.96,5.96,0,0,0-3.186-3.5,6.039,6.039,0,0,0-4.744-.2,5.972,5.972,0,0,0-3.524,3.163,5.9,5.9,0,0,0-.2,4.71l28.275,77.776a6.167,6.167,0,0,0,3.209,3.564,6.109,6.109,0,0,0,8.268-2.96,6.148,6.148,0,0,0,.179-4.779Z" transform="translate(835.485 953.704)" fill="#d4551c"/>
        <path id="Path_267" data-name="Path 267" d="M337.74,444.543a23.948,23.948,0,0,0-11.4-13.74,23.113,23.113,0,0,0-9-2.733l-21.228-2.036a9.276,9.276,0,0,0-5.072.808,3.8,3.8,0,0,0-2.4,3.075l-8.48,87.144a3,3,0,0,0,.715,2.3,3.048,3.048,0,0,0,2.134,1.14l25.1,2.408a23.1,23.1,0,0,0,9.36-.969,24.036,24.036,0,0,0,13.843-11.319,22.7,22.7,0,0,0,2.75-8.938l4.658-47.842a22.677,22.677,0,0,0-.979-9.292m-11.355,8.087-4.648,47.747a10.808,10.808,0,0,1-4.136,7.565,11.011,11.011,0,0,1-8.285,2.575l-8.748-.841a6.937,6.937,0,0,1-4.814-2.611,6.807,6.807,0,0,1-1.667-5.183l5.449-55.989a6.61,6.61,0,0,1,2.627-4.694,7.079,7.079,0,0,1,5.224-1.58l8.745.841a11.083,11.083,0,0,1,7.643,4.03,10.547,10.547,0,0,1,2.61,8.14" transform="translate(646.724 973.247)" fill="#d4551c"/>
        <path id="Path_268" data-name="Path 268" d="M378.2,248.171a517.755,517.755,0,0,1,91.719,26.817c-36.85-63.366-87.421-109.444-145.023-128.5,18.875,21,35.931,52.224,50.223,92.672,1.049,2.96,2.071,5.975,3.08,9.01" transform="translate(750.024 334.689)" fill="#d4551c"/>
        <path id="Path_269" data-name="Path 269" d="M477.6,297.857c-33.988,9.559-71.719,17.058-111.928,22.313-5.294,39.923-12.847,77.379-22.478,111.123A483.224,483.224,0,0,0,443.668,397.6,475.052,475.052,0,0,0,477.6,297.857" transform="translate(792.284 680.525)" fill="#d4551c"/>
        <path id="Path_270" data-name="Path 270" d="M364.365,431.3c-9.628-33.744-17.181-71.2-22.475-111.123-40.212-5.256-77.942-12.755-111.931-22.317A475.022,475.022,0,0,0,263.9,397.6,483.181,483.181,0,0,0,364.365,431.3" transform="translate(530.868 680.525)" fill="#d4551c"/>
        <path id="Path_271" data-name="Path 271" d="M421.588,227.978a413.1,413.1,0,0,1,31.14,52.687A417.5,417.5,0,0,1,505.8,311.581c32.185,22.162,58.455,47.379,78.283,74.728a385.848,385.848,0,0,0-92.123-144.591,389.384,389.384,0,0,0-145.638-91.46c27.55,19.685,52.946,45.766,75.269,77.72" transform="translate(799.489 343.3)" fill="#d4551c"/>
        <path id="Path_272" data-name="Path 272" d="M226.039,344.681a553.185,553.185,0,0,0,8.215,95.461c34.167,10.32,72.665,18.411,114.015,24.061a1125.8,1125.8,0,0,1,0-239.04c-41.35,5.65-79.848,13.74-114.015,24.061a553.174,553.174,0,0,0-8.215,95.458" transform="translate(521.818 514.438)" fill="#d4551c"/>
        <path id="Path_273" data-name="Path 273" d="M473.028,344.681a553.173,553.173,0,0,0-8.215-95.458C430.646,238.9,392.148,230.813,350.8,225.163a1102.716,1102.716,0,0,1,6.362,119.518A1102.73,1102.73,0,0,1,350.8,464.2c41.35-5.65,79.848-13.74,114.015-24.061a553.183,553.183,0,0,0,8.215-95.461" transform="translate(809.828 514.438)" fill="#d4551c"/>
        <path id="Path_274" data-name="Path 274" d="M390.892,426.808a565.112,565.112,0,0,0,96.153-8.156c10.4-33.921,18.544-72.143,24.235-113.2a1125.968,1125.968,0,0,1-120.388,6.317A1125.918,1125.918,0,0,1,270.5,305.457c5.691,41.052,13.84,79.274,24.235,113.2a565.082,565.082,0,0,0,96.153,8.156" transform="translate(624.467 697.888)" fill="#d4551c"/>
        <path id="Path_275" data-name="Path 275" d="M382.832,199.716a508.507,508.507,0,0,1,27.011,91.056c3.057,1,6.091,2.017,9.075,3.058,40.738,14.19,72.192,31.123,93.34,49.862-19.19-57.184-65.6-107.391-129.426-143.977" transform="translate(883.78 456.298)" fill="#d4551c"/>
        <path id="Path_276" data-name="Path 276" d="M477.6,318.055a475.053,475.053,0,0,0-33.935-99.744A483.224,483.224,0,0,0,343.2,184.619c9.631,33.744,17.185,71.2,22.478,111.123C405.885,301,443.615,308.5,477.6,318.055" transform="translate(792.284 421.806)" fill="#d4551c"/>
        <path id="Path_277" data-name="Path 277" d="M229.96,318.057C263.949,308.5,301.679,301,341.888,295.744c5.294-39.923,12.847-77.382,22.478-111.126A483.222,483.222,0,0,0,263.9,218.313a475.05,475.05,0,0,0-33.936,99.744" transform="translate(530.87 421.803)" fill="#d4551c"/>
        <path id="Path_278" data-name="Path 278" d="M500.2,322.647c0-31.583-39.3-63.53-107.911-87.84a579.46,579.46,0,0,1,6.637,87.84,579.407,579.407,0,0,1-6.637,87.844C460.9,386.181,500.2,354.233,500.2,322.647" transform="translate(905.607 536.472)" fill="#d4551c"/>
        <path id="Path_279" data-name="Path 279" d="M390.892,180.7a565.082,565.082,0,0,0-96.153,8.156c-10.4,33.921-18.544,72.143-24.235,113.2a1149.792,1149.792,0,0,1,240.775,0c-5.691-41.053-13.84-79.274-24.235-113.2a565.112,565.112,0,0,0-96.153-8.156" transform="translate(624.467 412.847)" fill="#d4551c"/>
        <path id="Path_280" data-name="Path 280" d="M274.4,229.014a1104.065,1104.065,0,0,0,0,244.562,1101.516,1101.516,0,0,0,123.167,6.744,1101.518,1101.518,0,0,0,123.167-6.744,1078.111,1078.111,0,0,0,6.792-122.281,1078.109,1078.109,0,0,0-6.792-122.281,1128.155,1128.155,0,0,0-246.333,0" transform="translate(617.789 507.828)" fill="#d4551c"/>
        <path id="Path_281" data-name="Path 281" d="M294.247,290.772a508.061,508.061,0,0,1,27.011-91.056C257.433,236.3,211.021,286.509,191.831,343.693c21.145-18.739,52.6-35.672,93.34-49.862,2.981-1.041,6.018-2.056,9.075-3.058" transform="translate(442.848 456.298)" fill="#d4551c"/>
        <path id="Path_282" data-name="Path 282" d="M368.628,244.083a592.027,592.027,0,0,1,88.48,6.592c-24.49-68.116-56.668-107.138-88.48-107.138s-63.99,39.023-88.48,107.138a591.993,591.993,0,0,1,88.48-6.592" transform="translate(646.731 327.944)" fill="#d4551c"/>
        <path id="Path_283" data-name="Path 283" d="M505.794,375.706a417.475,417.475,0,0,1-53.069,30.916,412.74,412.74,0,0,1-31.14,52.687c-22.323,31.954-47.719,58.035-75.266,77.72a389.4,389.4,0,0,0,145.635-91.46,385.827,385.827,0,0,0,92.123-144.591c-19.828,27.349-46.1,52.566-78.283,74.728" transform="translate(799.491 687.655)" fill="#d4551c"/>
        <path id="Path_284" data-name="Path 284" d="M368.628,353.537a591.981,591.981,0,0,1-88.48-6.592c24.49,68.116,56.668,107.138,88.48,107.138s63.99-39.023,88.48-107.138a592.015,592.015,0,0,1-88.48,6.592" transform="translate(646.731 792.678)" fill="#d4551c"/>
        <path id="Path_285" data-name="Path 285" d="M935.377,256.422c-84.5-83.889-196.838-130.089-316.336-130.089S387.2,172.533,302.706,256.422,171.675,451.844,171.675,570.482s46.535,230.171,131.031,314.06,196.838,130.089,316.335,130.089,231.839-46.2,316.336-130.089,131.031-195.422,131.031-314.06-46.535-230.171-131.031-314.06M910.457,859.8c-77.84,77.28-181.334,119.84-291.416,119.84S405.466,937.081,327.626,859.8,206.917,679.772,206.917,570.482s42.869-212.04,120.709-289.32,181.334-119.84,291.415-119.84,213.576,42.56,291.416,119.84,120.709,180.03,120.709,289.32S988.3,782.521,910.457,859.8" transform="translate(396.317 288.637)" fill="#d4551c"/>
        <path id="Path_286" data-name="Path 286" d="M409.843,332.471a508.079,508.079,0,0,1-27.011,91.056c63.825-36.585,110.237-86.789,129.426-143.977-21.145,18.74-52.6,35.672-93.34,49.862-2.981,1.041-6.018,2.056-9.075,3.058" transform="translate(883.78 638.7)" fill="#d4551c"/>
        <path id="Path_287" data-name="Path 287" d="M336.775,364.307a517.491,517.491,0,0,1-91.719-26.817c36.854,63.366,87.421,109.444,145.023,128.5-18.875-21-35.931-52.224-50.223-92.669-1.046-2.963-2.071-5.975-3.08-9.013" transform="translate(565.72 771.075)" fill="#d4551c"/>
        <path id="Path_288" data-name="Path 288" d="M469.915,337.491A517.77,517.77,0,0,1,378.2,364.308c-1.009,3.035-2.031,6.047-3.08,9.01-14.293,40.445-31.345,71.673-50.223,92.669,57.6-19.052,108.172-65.13,145.023-128.5" transform="translate(750.024 771.078)" fill="#d4551c"/>
        <path id="Path_289" data-name="Path 289" d="M273.884,311.581a417.5,417.5,0,0,1,53.069-30.916,412.708,412.708,0,0,1,31.14-52.687c22.323-31.954,47.719-58.035,75.269-77.72A391.008,391.008,0,0,0,195.6,386.309c19.831-27.349,46.1-52.566,78.286-74.728" transform="translate(451.544 343.3)" fill="#d4551c"/>
        <path id="Path_290" data-name="Path 290" d="M245.056,274.986a517.762,517.762,0,0,1,91.719-26.817c1.009-3.035,2.031-6.047,3.08-9.01,14.293-40.448,31.345-71.676,50.223-92.669-57.6,19.051-108.172,65.13-145.023,128.5" transform="translate(565.72 334.691)" fill="#d4551c"/>
        <path id="Path_291" data-name="Path 291" d="M358.093,459.309a412.917,412.917,0,0,1-31.14-52.69,417.472,417.472,0,0,1-53.069-30.913C241.7,353.54,215.429,328.327,195.6,300.978A391.007,391.007,0,0,0,433.362,537.029c-27.547-19.685-52.946-45.766-75.269-77.72" transform="translate(451.544 687.655)" fill="#d4551c"/>
        <path id="Path_292" data-name="Path 292" d="M321.258,423.529a508.5,508.5,0,0,1-27.011-91.056c-3.057-1.005-6.091-2.02-9.075-3.058-40.738-14.19-72.192-31.123-93.34-49.862,19.19,57.184,65.6,107.391,129.427,143.977" transform="translate(442.848 638.702)" fill="#d4551c"/>
        <path id="Path_293" data-name="Path 293" d="M296.79,410.491a584.346,584.346,0,0,1,0-175.684c-68.609,24.314-107.911,56.258-107.911,87.84s39.3,63.53,107.911,87.844" transform="translate(436.033 536.472)" fill="#d4551c"/>
        <path id="Path_294" data-name="Path 294" d="M260.785,78.1a5.8,5.8,0,0,1,.394,4.352,5.07,5.07,0,0,1-2.882,3.311,5.835,5.835,0,0,1-2.617.65,5.408,5.408,0,0,1-4.969-2.989L233.05,50.177a7.252,7.252,0,0,0-2.683-3.183,1.946,1.946,0,0,0-2.551.2,9.152,9.152,0,0,0-1.571,3.764,22.612,22.612,0,0,0-.652,5.328V80.7a5.573,5.573,0,0,1-1.641,4.027,5.559,5.559,0,0,1-7.98,0A5.59,5.59,0,0,1,214.34,80.7V5.626a5.38,5.38,0,0,1,1.631-3.965,5.717,5.717,0,0,1,7.98,0,5.364,5.364,0,0,1,1.641,3.965V25.758q0,2.6.063,4.48c.043,1.258.066,1.839.066,1.754.083,0,.2-.131.328-.391a6.461,6.461,0,0,1,.589-.91q.387-.517,1.962-2.207t3.272-3.768L250.449,2.378A5.176,5.176,0,0,1,254.241.364,5.778,5.778,0,0,1,258.426,1.6a5.11,5.11,0,0,1,2.031,3.764,5.723,5.723,0,0,1-1.241,4.158L241.946,30.173a9.524,9.524,0,0,0-2.031,5.2,9.009,9.009,0,0,0,.983,5.456Z" transform="translate(494.811 0.089)" fill="#d4551c"/>
        <path id="Path_295" data-name="Path 295" d="M285.739,86.294a3.661,3.661,0,0,1-1.568.259,5.3,5.3,0,0,1-3.338-1.169A5.663,5.663,0,0,1,278.8,82.4l-3-10.652a7.6,7.6,0,0,0-3.08-4.352,8.46,8.46,0,0,0-5.032-1.754H257.61a8.691,8.691,0,0,0-7.98,6.234l-2.753,10.393a5.936,5.936,0,0,1-2.61,3.571,4.941,4.941,0,0,1-4.192.585,5.891,5.891,0,0,1-3.593-2.661,5,5,0,0,1-.592-4.221L254.864,5.372a7.218,7.218,0,0,1,2.551-3.833A7.088,7.088,0,0,1,261.927.047a6.551,6.551,0,0,1,4.443,1.363,7.068,7.068,0,0,1,2.617,3.83L289.659,79.41a5.126,5.126,0,0,1-.519,4.221,5.64,5.64,0,0,1-3.4,2.664M264.544,54.34a4.605,4.605,0,0,0,4.708-6.106L263.889,28.88q-.655-2.6-1.7-2.6c-.7,0-1.26.867-1.7,2.6l-4.84,19.226a4.773,4.773,0,0,0,4.84,6.234Z" transform="translate(544.038 0.084)" fill="#d4551c"/>
        <path id="Path_296" data-name="Path 296" d="M313.74,78.2a5.8,5.8,0,0,1,.39,4.349,5.128,5.128,0,0,1-2.746,3.314,5.793,5.793,0,0,1-5.562-.131,4.753,4.753,0,0,1-2.028-2.207l-24.728-46.63a.878.878,0,0,1-.261-.65c-.086-.174-.546-.325-1.373-.453a19.078,19.078,0,0,0-2.941-.2,3.4,3.4,0,0,0-2.882,1.885,8.536,8.536,0,0,0-1.178,4.608v38.97a5.363,5.363,0,0,1-1.635,3.961,5.717,5.717,0,0,1-7.98,0,5.364,5.364,0,0,1-1.634-3.961V3.377c0-.949.632-1.754,1.9-2.4A9.752,9.752,0,0,1,265.591,0h25.383a17.15,17.15,0,0,1,6.935,1.429,19.446,19.446,0,0,1,5.757,3.833,16.973,16.973,0,0,1,3.858,5.65A17.483,17.483,0,0,1,308.9,17.8a17.111,17.111,0,0,1-3.206,10.2,17.952,17.952,0,0,1-8.179,6.428,6.781,6.781,0,0,0-3.6,2.8,4.179,4.179,0,0,0,.2,4.089ZM290.974,24.291a6.477,6.477,0,0,0,4.712-1.928,6.268,6.268,0,0,0,1.962-4.631,6.069,6.069,0,0,0-1.962-4.566,6.6,6.6,0,0,0-4.712-1.862h-14a6.437,6.437,0,0,0-4.579,1.862,5.921,5.921,0,0,0-1.965,4.438v.259a6.043,6.043,0,0,0,1.965,4.562,6.426,6.426,0,0,0,4.579,1.866Z" transform="translate(598.33)" fill="#d4551c"/>
        <path id="Path_297" data-name="Path 297" d="M284.661,84.612a5.358,5.358,0,0,1-1.634-3.961V5.7a5.368,5.368,0,0,1,1.634-3.961,5.717,5.717,0,0,1,7.977,0,5.347,5.347,0,0,1,1.641,3.955V68.455a6.124,6.124,0,0,0,1.962,4.6,6.387,6.387,0,0,0,4.579,1.879h18.445a5.65,5.65,0,1,1,0,11.3H288.651a5.442,5.442,0,0,1-3.99-1.623" transform="translate(653.377 0.272)" fill="#d4551c"/>
        <path id="Path_298" data-name="Path 298" d="M308.462,86.418a5.34,5.34,0,0,1-3.99-1.688,5.575,5.575,0,0,1-1.634-4.027V5.626a5.371,5.371,0,0,1,1.634-3.965,5.717,5.717,0,0,1,7.98,0,5.383,5.383,0,0,1,1.634,3.965V33.681a5.986,5.986,0,0,0,1.965,4.48,6.391,6.391,0,0,0,4.579,1.885h15.437a6.177,6.177,0,0,0,4.513-1.885,6.088,6.088,0,0,0,1.9-4.48V5.626a5.314,5.314,0,0,1,1.681-3.965A5.431,5.431,0,0,1,348.039.039a5.581,5.581,0,0,1,4.01,1.623,5.313,5.313,0,0,1,1.681,3.965V80.7a5.752,5.752,0,0,1-5.691,5.715,5.318,5.318,0,0,1-3.881-1.688,5.514,5.514,0,0,1-1.681-4.027V57.712a6.1,6.1,0,0,0-1.9-4.48,6.19,6.19,0,0,0-4.513-1.885H320.631a6.4,6.4,0,0,0-4.579,1.885,6,6,0,0,0-1.965,4.48V80.7a5.588,5.588,0,0,1-1.634,4.027,5.345,5.345,0,0,1-3.99,1.688" transform="translate(699.111 0.089)" fill="#d4551c"/>
        <path id="Path_299" data-name="Path 299" d="M338.591,13.185a6,6,0,0,0-1.962,4.48V33.774a6,6,0,0,0,1.962,4.48,6.388,6.388,0,0,0,4.579,1.882h8.635a5.348,5.348,0,0,1,3.99,1.692,5.438,5.438,0,0,1,1.634,3.9,5.6,5.6,0,0,1-1.634,4.027,5.345,5.345,0,0,1-3.99,1.688H343.17a6.419,6.419,0,0,0-4.579,1.872,5.966,5.966,0,0,0-1.962,4.457V68.75a6.1,6.1,0,0,0,1.962,4.585,6.405,6.405,0,0,0,4.579,1.872h27.474a5.63,5.63,0,0,1,4.056,1.646,5.572,5.572,0,0,1,0,8.015,5.641,5.641,0,0,1-4.056,1.642H331.789a6.179,6.179,0,0,1-4.516-1.885,6.093,6.093,0,0,1-1.9-4.48V6.366a6.1,6.1,0,0,1,1.9-4.48A6.191,6.191,0,0,1,331.789,0h38.855A5.666,5.666,0,0,1,374.7,1.626a5.276,5.276,0,0,1,1.7,3.961,5.479,5.479,0,0,1-1.7,4.024,5.543,5.543,0,0,1-4.056,1.692H343.17a6.4,6.4,0,0,0-4.579,1.882" transform="translate(751.143 0)" fill="#d4551c"/>
        <path id="Path_300" data-name="Path 300" d="M353.541.04a5.46,5.46,0,0,1,3.99,1.623,5.381,5.381,0,0,1,1.634,3.961V80.7a5.6,5.6,0,0,1-1.634,4.027,5.559,5.559,0,0,1-7.98,0,5.585,5.585,0,0,1-1.634-4.027V5.624a5.368,5.368,0,0,1,1.634-3.961A5.455,5.455,0,0,1,353.541.04" transform="translate(803.177 0.091)" fill="#d4551c"/>
        <path id="Path_301" data-name="Path 301" d="M404.593.3a5.429,5.429,0,0,1,3.878,1.623,5.3,5.3,0,0,1,1.684,3.961v74.82a5.276,5.276,0,0,1-1.231,3.442,5.988,5.988,0,0,1-3.034,2.014,4.6,4.6,0,0,1-1.294.128,5.75,5.75,0,0,1-2.908-.778,5.477,5.477,0,0,1-2.131-2.207l-26.69-49.619c-.874-1.56-1.618-2.25-2.227-2.079s-.917,1.127-.917,2.858V80.706a5.358,5.358,0,0,1-1.634,3.961,5.717,5.717,0,0,1-7.98,0,5.358,5.358,0,0,1-1.634-3.961V5.758a5.661,5.661,0,0,1,1.178-3.508A5.024,5.024,0,0,1,362.793.3a5.174,5.174,0,0,1,3.6.259,5.5,5.5,0,0,1,2.683,2.467l26.819,49.619q1.306,2.34,2.161,2.145c.566-.131.85-1.1.85-2.923V5.886a5.3,5.3,0,0,1,1.681-3.961A5.57,5.57,0,0,1,404.593.3" transform="translate(827.551 0.217)" fill="#d4551c"/>
        <path id="Path_302" data-name="Path 302" d="M441.434,80.9a5.366,5.366,0,0,1-1.7,4.007,5.627,5.627,0,0,1-4.056,1.642H390.149A5.4,5.4,0,0,1,385.3,83.82a4.946,4.946,0,0,1-.847-2.6,6.079,6.079,0,0,1,.586-2.858l31.663-61.31q1.305-2.335.261-4.027t-3.792-1.688h-26.3a5.4,5.4,0,0,1-3.99-1.642,5.455,5.455,0,0,1-1.634-4.007,5.466,5.466,0,0,1,1.634-4.007A5.416,5.416,0,0,1,386.877.04H429a4.931,4.931,0,0,1,4.711,2.726,5.136,5.136,0,0,1,.261,5.456l-31.663,61.31a3.648,3.648,0,0,0,3.533,5.715h29.83a5.641,5.641,0,0,1,4.056,1.642,5.371,5.371,0,0,1,1.7,4.007" transform="translate(880.132 0.091)" fill="#d4551c"/>
        <path id="Path_303" data-name="Path 303" d="M393.44,196.729l-36.864-69.295q-2.213-4.395-.371-7.686t6.759-5.246a33.693,33.693,0,0,0,15.361-12.078,32.1,32.1,0,0,0,6.022-19.153,32.855,32.855,0,0,0-2.581-12.932,31.925,31.925,0,0,0-7.252-10.613,36.4,36.4,0,0,0-10.812-7.2,32.191,32.191,0,0,0-13.026-2.687H303a18.3,18.3,0,0,0-8.476,1.833q-3.568,1.828-3.563,4.513V202.1a10.069,10.069,0,0,0,3.074,7.443,10.736,10.736,0,0,0,14.988,0,10.094,10.094,0,0,0,3.074-7.443V128.9a16.021,16.021,0,0,1,2.214-8.662q2.208-3.538,5.406-3.541a36.357,36.357,0,0,1,5.529.368q2.332.365,2.581.854a1.633,1.633,0,0,0,.493,1.219l46.448,87.6a8.913,8.913,0,0,0,3.808,4.145,10.844,10.844,0,0,0,10.445.243,9.626,9.626,0,0,0,5.161-6.221,10.888,10.888,0,0,0-.738-8.172M324.381,95.47a12.082,12.082,0,0,1-8.6-3.5,11.359,11.359,0,0,1-3.686-8.573v-.483a11.109,11.109,0,0,1,3.686-8.333,12.1,12.1,0,0,1,8.6-3.5h26.3a12.385,12.385,0,0,1,8.847,3.5,11.377,11.377,0,0,1,3.689,8.573,11.755,11.755,0,0,1-3.689,8.7,12.158,12.158,0,0,1-8.847,3.623Z" transform="translate(671.686 113.876)" fill="#d4551c"/>
        <path id="Path_304" data-name="Path 304" d="M462.053,53.015a10.041,10.041,0,0,1,7.494-3.173H569.819a10.053,10.053,0,0,1,7.5,3.173,10.507,10.507,0,0,1,3.07,7.565,10.216,10.216,0,0,1-3.07,7.318,10.041,10.041,0,0,1-7.5,3.173H543.768a11.633,11.633,0,0,0-8.48,3.538,11.456,11.456,0,0,0-3.56,8.419V201.607a10.818,10.818,0,0,1-10.693,10.738,9.852,9.852,0,0,1-7.4-3.173,10.543,10.543,0,0,1-3.04-7.565V83.028a11.473,11.473,0,0,0-3.563-8.419,11.634,11.634,0,0,0-8.48-3.538h-29a10.029,10.029,0,0,1-7.494-3.173,10.194,10.194,0,0,1-3.074-7.318,10.484,10.484,0,0,1,3.074-7.565" transform="translate(1059.57 113.876)" fill="#d4551c"/>
        <path id="Path_305" data-name="Path 305" d="M416.641,60.408a10.085,10.085,0,0,1,3.07-7.443,10.74,10.74,0,0,1,14.991,0,10.1,10.1,0,0,1,3.074,7.443v52.7a11.268,11.268,0,0,0,3.686,8.419,12.032,12.032,0,0,0,8.6,3.538h29a11.632,11.632,0,0,0,8.48-3.538,11.467,11.467,0,0,0,3.563-8.419v-52.7a9.965,9.965,0,0,1,3.156-7.443,10.2,10.2,0,0,1,7.289-3.048,10.474,10.474,0,0,1,7.53,3.048,9.967,9.967,0,0,1,3.16,7.443v141.03a10.347,10.347,0,0,1-3.16,7.561,10.242,10.242,0,0,1-7.53,3.173A9.977,9.977,0,0,1,494.262,209a10.345,10.345,0,0,1-3.156-7.561V158.251a11.478,11.478,0,0,0-3.563-8.419,11.644,11.644,0,0,0-8.48-3.538h-29a12.046,12.046,0,0,0-8.6,3.538,11.279,11.279,0,0,0-3.686,8.419v43.188A10.49,10.49,0,0,1,434.7,209a10.44,10.44,0,0,1-14.991,0,10.473,10.473,0,0,1-3.07-7.561Z" transform="translate(961.829 114.047)" fill="#d4551c"/>
        <path id="Path_306" data-name="Path 306" d="M375.118,94.5A42.044,42.044,0,0,1,378.8,77.036a46.872,46.872,0,0,1,85.526-.043,41.95,41.95,0,0,1,3.686,17.445,10.1,10.1,0,0,1-3.07,7.443,10.773,10.773,0,0,1-14.994.023,9.984,9.984,0,0,1-3.07-7.387A22.07,22.07,0,0,0,444.9,85.31a24.132,24.132,0,0,0-5.433-7.634,24.674,24.674,0,0,0-8.149-5.085,27.109,27.109,0,0,0-9.876-1.82,26.006,26.006,0,0,0-9.757,1.83,25,25,0,0,0-8.027,5.124,24.263,24.263,0,0,0-5.433,7.686,22.3,22.3,0,0,0-1.975,9.273v75.395a22.277,22.277,0,0,0,1.975,9.27,24.19,24.19,0,0,0,5.433,7.686,24.892,24.892,0,0,0,8.027,5.124,26.005,26.005,0,0,0,9.757,1.83,26.98,26.98,0,0,0,9.876-1.83,24.608,24.608,0,0,0,8.149-5.124,24.242,24.242,0,0,0,5.433-7.686,22.332,22.332,0,0,0,1.979-9.27,10.216,10.216,0,0,1,3.07-7.322,10.451,10.451,0,0,1,14.994,0,10.23,10.23,0,0,1,3.07,7.322,42.754,42.754,0,0,1-3.686,17.567,45.841,45.841,0,0,1-9.955,14.4,47.3,47.3,0,0,1-65.618-.02,45.882,45.882,0,0,1-9.952-14.417,42.876,42.876,0,0,1-3.686-17.593Z" transform="translate(865.972 113.2)" fill="#d4551c"/>
        <path id="Path_307" data-name="Path 307" d="M335.749,61.8a11.453,11.453,0,0,1,3.563-8.419,11.628,11.628,0,0,1,8.48-3.538h72.989a10.654,10.654,0,0,1,7.62,3.052,9.9,9.9,0,0,1,3.193,7.44A10.292,10.292,0,0,1,428.4,67.9a10.437,10.437,0,0,1-7.62,3.173h-51.61a12.032,12.032,0,0,0-8.6,3.538,11.266,11.266,0,0,0-3.686,8.415V113.28a11.258,11.258,0,0,0,3.686,8.419,12.019,12.019,0,0,0,8.6,3.538h16.222a10.046,10.046,0,0,1,7.494,3.173,10.218,10.218,0,0,1,3.074,7.318,10.492,10.492,0,0,1-3.074,7.565,10.034,10.034,0,0,1-7.494,3.173H369.172a12.067,12.067,0,0,0-8.6,3.518,11.186,11.186,0,0,0-3.686,8.373v20.625a11.445,11.445,0,0,0,3.686,8.616,12.053,12.053,0,0,0,8.6,3.518h51.61a10.592,10.592,0,0,1,7.62,3.088,10.473,10.473,0,0,1,0,15.057,10.589,10.589,0,0,1-7.62,3.084H347.792a11.606,11.606,0,0,1-8.48-3.541,11.43,11.43,0,0,1-3.563-8.415Z" transform="translate(775.087 113.876)" fill="#d4551c"/>
        <path id="Path_308" data-name="Path 308" d="M201.153,60.539a10.631,10.631,0,0,1,2.458-6.589,11.559,11.559,0,0,1,6.144-3.17q4.179-.976,6.882.486a10.041,10.041,0,0,1,4.916,5.124l32.44,72.711q2.208,4.636,5.036,4.635t4.794-4.635l31.7-72.711a10.016,10.016,0,0,1,4.916-5.124,10.886,10.886,0,0,1,7.127-.976,9.963,9.963,0,0,1,6.022,3.659,10.311,10.311,0,0,1,2.336,6.589V201.326a10.088,10.088,0,0,1-3.074,7.44,10.74,10.74,0,0,1-14.991,0,10.072,10.072,0,0,1-3.07-7.44V123.491q0-4.878-1.476-5.246t-3.441,4.267l-20.89,48.069a10.953,10.953,0,0,1-3.934,4.513,10.32,10.32,0,0,1-5.9,1.83,10.217,10.217,0,0,1-5.773-1.708,10.082,10.082,0,0,1-3.808-4.635l-22.121-49.287q-2.208-4.631-3.686-4.267c-.983.24-1.476,1.994-1.476,5.242v79.057a10.085,10.085,0,0,1-3.07,7.44,10.74,10.74,0,0,1-14.991,0,10.075,10.075,0,0,1-3.074-7.44Z" transform="translate(464.368 114.402)" fill="#d4551c"/>
        <path id="Path_309" data-name="Path 309" d="M159.63,60.578a10.481,10.481,0,0,1,3.074-7.565,10.451,10.451,0,0,1,14.991,0,10.48,10.48,0,0,1,3.07,7.548V169.437a19.37,19.37,0,0,0,1.965,8.649,22.562,22.562,0,0,0,5.406,7.062,25,25,0,0,0,8.113,4.75,29.2,29.2,0,0,0,19.663,0,25.055,25.055,0,0,0,8.109-4.75,22.71,22.71,0,0,0,5.406-7.062,19.457,19.457,0,0,0,1.965-8.649V60.558a10.467,10.467,0,0,1,3.07-7.548,10.455,10.455,0,0,1,14.994,0,10.518,10.518,0,0,1,3.07,7.565V169.644a38.9,38.9,0,0,1-3.686,16.834,44.552,44.552,0,0,1-9.952,13.664,47.214,47.214,0,0,1-14.746,9.273,49.471,49.471,0,0,1-36.129,0,47.215,47.215,0,0,1-14.746-9.273,44.55,44.55,0,0,1-9.952-13.664,38.9,38.9,0,0,1-3.686-16.834Z" transform="translate(368.511 113.878)" fill="#d4551c"/>
        <path id="Path_310" data-name="Path 310" d="M118.106,94.61a42.776,42.776,0,0,1,3.686-17.567,45.917,45.917,0,0,1,9.955-14.4,47.321,47.321,0,0,1,65.618,0,45.964,45.964,0,0,1,9.952,14.4A42.777,42.777,0,0,1,211,94.61a10.1,10.1,0,0,1-3.07,7.443,10.74,10.74,0,0,1-14.991,0,10.082,10.082,0,0,1-3.074-7.443,22.318,22.318,0,0,0-1.978-9.273,24.317,24.317,0,0,0-5.433-7.686,24.654,24.654,0,0,0-8.149-5.121,26.914,26.914,0,0,0-9.876-1.833,26.068,26.068,0,0,0-9.757,1.826,25.112,25.112,0,0,0-8.026,5.118,24.247,24.247,0,0,0-5.433,7.67,22.254,22.254,0,0,0-1.975,9.253v75.73a22.269,22.269,0,0,0,1.975,9.256,24.247,24.247,0,0,0,5.433,7.67,26.738,26.738,0,0,0,8.026,5.236,24.564,24.564,0,0,0,9.757,1.948,25.647,25.647,0,0,0,9.876-1.935,26.33,26.33,0,0,0,8.149-5.206,24.143,24.143,0,0,0,5.433-7.627,22,22,0,0,0,1.978-9.2v-4.119q0-1.931-3.563-3.025a30.186,30.186,0,0,0-8.725-1.091h-14.5a10.034,10.034,0,0,1-7.494-3.173,10.476,10.476,0,0,1-3.074-7.561,10.082,10.082,0,0,1,3.074-7.443,10.235,10.235,0,0,1,7.494-3.052h35.884A12.129,12.129,0,0,1,211,153.17v17.324a42.754,42.754,0,0,1-3.686,17.567,45.837,45.837,0,0,1-9.952,14.394,47.306,47.306,0,0,1-65.618,0,45.79,45.79,0,0,1-9.955-14.394,42.754,42.754,0,0,1-3.686-17.567Z" transform="translate(272.652 113.028)" fill="#d4551c"/>
        <path id="Path_311" data-name="Path 311" d="M338.252,106.2a25.374,25.374,0,0,1,1.965-10,31.975,31.975,0,0,0,2.458-12.929A32.861,32.861,0,0,0,340.1,70.339a31.944,31.944,0,0,0-7.249-10.616,36.61,36.61,0,0,0-10.816-7.2,32.217,32.217,0,0,0-13.022-2.684H261.329a18.362,18.362,0,0,0-8.48,1.833q-3.563,1.828-3.563,4.51V207.22q0,2.193,3.563,3.781a20.728,20.728,0,0,0,8.48,1.587h47.679A33.752,33.752,0,0,0,340.1,192.212a32.56,32.56,0,0,0,2.581-13.054V129.142a31.991,31.991,0,0,0-2.458-12.932,25.355,25.355,0,0,1-1.965-10.005m-16.711,72.754a11.879,11.879,0,0,1-3.686,8.754,12.136,12.136,0,0,1-8.847,3.649h-26.3a11.842,11.842,0,0,1-8.6-3.649,11.616,11.616,0,0,1-3.689-8.514V128.86a11.483,11.483,0,0,1,3.689-8.632,12.053,12.053,0,0,1,8.6-3.531h26.3a12.123,12.123,0,0,1,8.847,3.649,11.878,11.878,0,0,1,3.686,8.754Zm-3.686-87.111a12.163,12.163,0,0,1-8.847,3.623h-26.3a12.079,12.079,0,0,1-8.6-3.5,11.379,11.379,0,0,1-3.689-8.576v-.483a11.129,11.129,0,0,1,3.689-8.337,12.092,12.092,0,0,1,8.6-3.5h26.3a12.4,12.4,0,0,1,8.847,3.5,11.381,11.381,0,0,1,3.686,8.576,11.756,11.756,0,0,1-3.686,8.7" transform="translate(575.485 113.876)" fill="#d4551c"/>
      </g>
    </g>
  </g>
</svg>
