<svg xmlns="http://www.w3.org/2000/svg" width="2560" height="2880" viewBox="0 0 2560 2880"><defs><clipPath id="a"><path transform="translate(50 5308)" fill="#151515" d="M0 0h2560v2880H0z"/></clipPath></defs><g data-name="Mask Group 24" transform="translate(-50 -5308)" clip-path="url(#a)"><path data-name="interim-08-Poster-Mockup" fill="#d8ec32" d="M50 5308h2560v2880H50z"/><path data-name="Path 79" d="M981.733 7964.377h16.489v35.889h-30.039v-54.26h30.039v7.1H975.76v40.342h15.26v-22.35h-9.287Zm39.61 18.465v10.606h22.458v6.818h-30.041v-42.707h29.852v25.283Zm0-7.007h15.351v-11.269h-15.351Zm38 24.431v-42.707h30.039v42.707Zm22.932-35.7-15.351.095v28.787h15.351Zm74.955 35.7h-9.476l-13.267-24.242h-3.032l.095 24.242h-7.3v-54.26h28.144v30.018h-8.334Zm-12.414-31.06v-16.476h-13.361v16.476Zm32.6 13.636v10.606h22.458v6.818h-30.041v-42.707h29.85v25.283Zm0-7.007h15.344v-11.269h-15.347Zm60.454 24.431v10.7h-22.458v6.723h30.039v-60.13h-29.849v42.707Zm0-7.007h-15.256v-28.693h15.256Zm53.161-35.7v42.707h-30.039v-42.707h7.2v35.889h15.258v-35.889Zm15.541-21.306v64.013h7.2v-64.013Zm45.106 38.825v-10.701h-22.459v-6.818h30.041v42.707h-29.85v-25.189Zm0 6.913h-15.257v11.268h15.256Zm41.126-17.425-10.424.095v35.605h-7.581v-42.707h25.206v15.53h-7.2Zm44.156 28.314h15.351l6.254-40.056h-15.349Zm-8.339 7.386 8.528-54.26h30.041l-8.53 54.26Zm58.659-42.707h22.932l-6.728 42.707h-30.039l10.045-64.014h7.2Zm-5.591 35.7 15.351-.095 4.549-28.787h-15.352Zm47.38-57.006-10.045 64.013h7.107l10.139-64.014Zm19.236 21.4-6.633 42.613h7.107l6.728-42.707Zm3.411-21.4-1.9 12.594h7.107l1.99-12.594Zm38.852 64.014h-22.837l6.629-42.708h30.134l-10.134 64.013h-7.2Zm5.686-35.7-15.351.095-4.549 28.786h15.256Zm52.118-7.007-6.728 42.707h-30.134l6.823-42.707h7.2l-5.78 35.889h15.351l5.686-35.889Zm19.142 25.283-1.8 10.606h22.553l-1.042 6.818h-30.135l6.823-42.707h29.847l-3.98 25.283Zm1.042-7.007h15.351l1.706-11.269h-15.353Z" fill="#151515"/><path data-name="Intersection 1" d="m218.097 7295.191 89.4-558.351h-257.5v-178.671h284.814l121.686-756.871-402.291 2.479-4.209 26.634V5617.66h622.539L406.831 7295.191Zm1832.664-558.351 178.797-1119.18h380.439v183.638h-214.061l-44.7 295.3h258.761v183.637h-286.08l-47.184 277.934h333.264v178.671Zm-1194.457 0 178.793-1119.18h188.73l-151.48 940.509h402.289l148.998-940.509h198.663l-176.314 1119.18Z" fill="#151515" stroke="rgba(0,0,0,0)" stroke-miterlimit="10"/></g></svg>