<svg xmlns="http://www.w3.org/2000/svg" width="2560" height="2880" viewBox="0 0 2560 2880">
  <g id="Group_122" data-name="Group 122" transform="translate(-1429.5 -2810)">
    <rect id="Rectangle_94" data-name="Rectangle 94" width="2560" height="2880" transform="translate(1429.5 2810)" fill="#f5f4f4"/>
    <g id="Group_92" data-name="Group 92" transform="translate(1899.845 3431.429)">
      <path id="Path_89" data-name="Path 89" d="M429.014,304.929,387.122,446.768l-44.847.222,43.184-142.15Z" transform="translate(-170.921 572.972)" fill="#e0007a"/>
      <g id="Group_89" data-name="Group 89" transform="translate(31.138 277.082)">
        <path id="Path_90" data-name="Path 90" d="M396.1,650.112a87.252,87.252,0,0,0,26.572-4.649c21.266-7.3,46.517-28.568,46.517-80.407,0-44.52-26.573-62.459-43.19-68.439-7.984-3.335-12.625-3.335-21.274-4h-25.25V650.793Zm3.31-208.661c11.287-.657,22.6-1.322,33.234-7.311,13.939-7.968,34.556-31.887,34.556-72.44,0-8.617-2.012-57.145-39.887-74.411-7.959-4-13.939-5.323-30.564-6H379.478V441.451ZM324.994,230.8h56.472c35.9.665,66.451,2.653,95.044,27.911,29.234,25.907,41.186,64.447,41.186,102.33,0,33.218-9.3,67.79-35.887,89.714a111.811,111.811,0,0,1-30.556,15.959c15.27,4.649,19.935,6.629,27.245,11.286,30.581,19.935,43.855,59.815,43.855,95.02,0,55.165-31.23,101.689-83.734,118.3-15.286,5.314-27.238,7.319-58.476,8.641H324.994Z" transform="translate(-324.994 -230.802)" fill="#1a1818"/>
      </g>
      <path id="Path_91" data-name="Path 91" d="M553.888,595.144,498.058,381.826,440.913,595.144ZM351.856,703.463,493.417,230.31h11.278l137.56,473.153H583.122L567.17,640.995H427.614L411,703.463Z" transform="translate(-102.767 42.78)" fill="#1a1818"/>
      <g id="Group_90" data-name="Group 90" transform="translate(587.326 277.037)">
        <path id="Path_92" data-name="Path 92" d="M448.709,450.131c6.653,0,23.911,2,41.867-2.645,39.854-10,62.451-42.532,62.451-83.076,0-21.274-5.972-35.887-9.956-43.2-18.613-39.879-57.811-39.206-94.362-38.54Zm-55.166-219.29h59.807c7.31,0,48.512-1.339,80.407,10.621,29.908,11.3,73.121,43.863,73.121,121.625,0,11.294,0,55.149-26.589,87.71-7.327,8.641-13.3,13.3-29.907,25.25L612.184,700H553.692l-49.826-204.02c-19.27,3.334-23.936,4.665-55.157,4L450.023,700h-56.48Z" transform="translate(-393.543 -230.797)" fill="#1a1818"/>
        <path id="Path_93" data-name="Path 93" d="M482.68,450.131c6.669,0,23.927,2,41.875-2.645,39.855-10,62.452-42.532,62.452-83.076,0-21.274-5.972-35.887-9.964-43.2-18.6-39.879-57.8-39.206-94.363-38.54Zm-55.149-219.29h59.806c7.327,0,48.52-1.339,80.4,10.621,29.907,11.3,73.1,43.863,73.1,121.625,0,11.294,0,55.149-26.573,87.71-7.319,8.641-13.3,13.3-29.907,25.25L646.163,700H587.68l-49.827-204.02c-19.278,3.334-23.936,4.665-55.173,4L484.011,700h-56.48Z" transform="translate(-151.761 -230.797)" fill="#1a1818"/>
      </g>
      <path id="Path_94" data-name="Path 94" d="M691.7,230.8,601.311,458.073V699.964H546.844L545.5,457.408,455.786,230.8h60.457L574.75,403.575,634.557,230.8Z" transform="translate(636.565 46.278)" fill="#1a1818"/>
      <path id="Path_95" data-name="Path 95" d="M491.284,774.495H325.158V305.332h56.464l-1.331,418.65h116.3Z" transform="translate(-292.688 576.466)" fill="#1a1818"/>
      <path id="Path_96" data-name="Path 96" d="M553.56,669.667,497.729,456.349,440.584,669.667ZM351.528,777.985,493.072,304.841h11.294l137.56,473.144H582.786l-15.96-62.46H427.286l-16.609,62.46Z" transform="translate(-105.1 572.973)" fill="#1a1818"/>
      <path id="Path_97" data-name="Path 97" d="M393.3,774.495V305.332h166.8l5.982,50.5H451.78V514.658h78.412v51.17H451.78V774.495Z" transform="translate(192.026 576.466)" fill="#1a1818"/>
      <path id="Path_98" data-name="Path 98" d="M419.34,774.495V305.332h166.8l5.989,50.5H477.816V514.658h78.427v51.17H477.816V774.495Z" transform="translate(377.295 576.466)" fill="#1a1818"/>
      <path id="Path_99" data-name="Path 99" d="M638.8,669.667,582.97,456.349,525.825,669.667ZM436.785,777.985,578.321,304.841h11.3L727.175,777.985H668.035l-15.944-62.46H512.543l-16.625,62.46Z" transform="translate(501.396 572.973)" fill="#1a1818"/>
      <rect id="Rectangle_123" data-name="Rectangle 123" width="56.48" height="469.163" transform="translate(1280.392 881.798)" fill="#1a1818"/>
      <g id="Group_91" data-name="Group 91" transform="translate(1400.672 881.753)">
        <path id="Path_100" data-name="Path 100" d="M548.935,524.653c6.653,0,23.927,2,41.867-2.637,39.854-9.98,62.467-42.532,62.467-83.076,0-21.274-5.971-35.887-9.964-43.189-18.621-39.879-57.811-39.206-94.37-38.54ZM493.786,305.371h59.791c7.342,0,48.544-1.339,80.407,10.629,29.924,11.295,73.105,43.855,73.105,121.617,0,11.294,0,55.149-26.573,87.7-7.311,8.649-13.282,13.3-29.891,25.266l61.8,223.947H653.918l-49.8-204.012c-19.286,3.327-23.943,4.657-55.181,3.992l1.33,200.02h-56.48Z" transform="translate(-493.786 -305.327)" fill="#1a1818"/>
      </g>
      <rect id="Rectangle_124" data-name="Rectangle 124" width="489.747" height="86.39" transform="translate(0 1552.386)" fill="#1a1818"/>
      <rect id="Rectangle_125" data-name="Rectangle 125" width="489.747" height="86.383" transform="translate(0 0)" fill="#1a1818"/>
    </g>
  </g>
</svg>
