<svg xmlns="http://www.w3.org/2000/svg" xmlns:xlink="http://www.w3.org/1999/xlink" width="2560" height="2879.999" viewBox="0 0 2560 2879.999">
  <defs>
    <clipPath id="clip-path">
      <rect id="Rectangle_149" data-name="Rectangle 149" width="1809.93" height="1571.309" fill="none"/>
    </clipPath>
  </defs>
  <g id="Group_160" data-name="Group 160" transform="translate(19684 21473.689)">
    <path id="Path_4299" data-name="Path 4299" d="M0,0H2560V2880H0Z" transform="translate(-19684 -21473.689)" fill="#d4551c"/>
    <g id="Group_145" data-name="Group 145" transform="translate(-19307.854 -20819.344)">
      <g id="Group_144" data-name="Group 144" clip-path="url(#clip-path)">
        <path id="Path_4301" data-name="Path 4301" d="M770.229,272.413A356.468,356.468,0,1,0,874.861,524.7,355.1,355.1,0,0,0,770.229,272.413M278.323,285.68a337.276,337.276,0,0,1,126.236-79.753c-23.879,17.165-45.889,39.909-65.24,67.773a360.423,360.423,0,0,0-26.993,45.942,361.49,361.49,0,0,0-46,26.96c-27.9,19.327-50.67,41.314-67.856,65.16A336.752,336.752,0,0,1,278.323,285.68M494.4,293.67,286.324,501.49c2.9-61.958,17.3-119.383,40.1-167.767,48.443-22.778,105.936-37.157,167.973-40.052M299.849,347.586C278.75,400.08,267.359,459.667,267,521.728a9.279,9.279,0,0,0,.014,7.472c.529,61.508,11.907,120.549,32.832,172.61C226.124,659.295,179.2,595.68,179.2,524.7s46.927-134.6,120.653-177.112M286.392,549.475,492.824,755.657c-61.436-3.063-118.365-17.4-166.4-39.988C303.81,667.7,289.458,610.839,286.392,549.475m-8.069,214.241a336.751,336.751,0,0,1-79.851-126.081c17.186,23.846,39.958,45.833,67.856,65.16a361.115,361.115,0,0,0,46,26.96A360.427,360.427,0,0,0,339.319,775.7c19.351,27.863,41.362,50.608,65.24,67.773a337.278,337.278,0,0,1-126.236-79.754m229.918,98.705c-67.272-3.929-127.257-49.834-167.935-120.2,50.745,20.347,108.111,31.666,167.935,32.74Zm0-472.211h-36.3a9.382,9.382,0,1,0,0,18.764h36.3v43.79H419.683a9.38,9.38,0,1,0,0,18.761h88.559V577.867H419.683a9.382,9.382,0,1,0,0,18.764h88.559v43.79h-36.3a9.382,9.382,0,1,0,0,18.764h36.3v85.33L288.905,525.448,508.241,306.385Zm0-115.771c-59.824,1.074-117.19,12.394-167.935,32.74,40.679-70.371,100.663-116.276,167.935-120.2ZM768.29,524.7c0-63.128-11.436-123.782-32.873-177.112C809.143,390.1,856.07,453.716,856.07,524.7s-46.927,134.6-120.653,177.112C756.854,648.48,768.29,587.826,768.29,524.7M708.841,715.67c-48.85,22.976-106.905,37.4-169.544,40.124l209.717-209.46C746.289,608.9,731.842,666.88,708.841,715.67m40.1-214.18L540.871,293.67c62.037,2.9,119.53,17.274,167.97,40.052,22.81,48.384,37.206,105.809,40.1,167.767m8-215.81A336.753,336.753,0,0,1,836.8,411.761c-17.186-23.846-39.958-45.833-67.856-65.16a361.516,361.516,0,0,0-46-26.96A360.009,360.009,0,0,0,695.951,273.7c-19.351-27.863-41.365-50.608-65.244-67.773A337.263,337.263,0,0,1,756.947,285.68m-229.918-98.7c67.272,3.925,127.254,49.83,167.932,120.2-50.742-20.347-108.107-31.666-167.932-32.74Zm0,472.208h34.8a9.382,9.382,0,1,0,0-18.764h-34.8v-43.79h87.053a9.382,9.382,0,1,0,0-18.764H527.029V471.526h87.053a9.38,9.38,0,1,0,0-18.761H527.029v-43.79h34.8a9.382,9.382,0,1,0,0-18.764h-34.8V306.385l217.83,217.563-217.83,217.56Zm0,115.771c59.825-1.074,117.191-12.394,167.932-32.74-40.679,70.371-100.66,116.276-167.932,120.2Zm229.918-11.241A337.265,337.265,0,0,1,630.707,843.47C654.586,826.3,676.6,803.561,695.951,775.7a360.012,360.012,0,0,0,26.989-45.942,361.141,361.141,0,0,0,46-26.96c27.9-19.327,50.67-41.314,67.856-65.16a336.752,336.752,0,0,1-79.851,126.081" transform="translate(387.33 404.739)" fill="#212639"/>
        <path id="Path_4302" data-name="Path 4302" d="M236.187,169.915H256.5a9.694,9.694,0,0,0,9.681-9.638V121.538A9.694,9.694,0,0,0,256.5,111.9h-20.31a9.287,9.287,0,0,0-6.645,2.739,8.958,8.958,0,0,0-2.848,6.712v39.115a9.709,9.709,0,0,0,9.493,9.45" transform="translate(547.384 269.73)" fill="#212639"/>
        <path id="Path_4303" data-name="Path 4303" d="M220.09,87.176h3.131a3.666,3.666,0,0,0,3.083-1.364,3.744,3.744,0,0,0,.556-3.38l-4.142-15.04c-.341-1.344-.778-2.019-1.315-2.019s-.977.675-1.315,2.019L216.351,82.33a3.708,3.708,0,0,0,3.739,4.846" transform="translate(522.027 157.579)" fill="#212639"/>
        <path id="Path_4304" data-name="Path 4304" d="M287.685,101.5h-20.31a9.326,9.326,0,0,0-6.645,2.722,8.667,8.667,0,0,0-2.848,6.476v.379a8.859,8.859,0,0,0,2.848,6.661,9.312,9.312,0,0,0,6.645,2.722h20.31a9.363,9.363,0,0,0,6.833-2.814,9.17,9.17,0,0,0,2.848-6.76,8.871,8.871,0,0,0-2.848-6.664,9.554,9.554,0,0,0-6.833-2.722" transform="translate(622.692 244.671)" fill="#212639"/>
        <path id="Path_4305" data-name="Path 4305" d="M236.187,120.463H256.5a9.365,9.365,0,0,0,6.836-2.814,9.179,9.179,0,0,0,2.844-6.76,8.88,8.88,0,0,0-2.844-6.664A9.556,9.556,0,0,0,256.5,101.5h-20.31a9.326,9.326,0,0,0-6.645,2.722,8.666,8.666,0,0,0-2.848,6.476v.379a8.858,8.858,0,0,0,2.848,6.661,9.312,9.312,0,0,0,6.645,2.722" transform="translate(547.384 244.671)" fill="#212639"/>
        <path id="Path_4306" data-name="Path 4306" d="M236.915,72.033h10.814a4.987,4.987,0,0,0,3.637-1.5,4.883,4.883,0,0,0,1.516-3.6,4.727,4.727,0,0,0-1.516-3.547,5.078,5.078,0,0,0-3.637-1.446H236.915a4.958,4.958,0,0,0-3.538,1.446,4.613,4.613,0,0,0-1.513,3.448v.2a4.713,4.713,0,0,0,1.513,3.547,4.961,4.961,0,0,0,3.538,1.449" transform="translate(559.871 149.306)" fill="#212639"/>
        <path id="Path_4307" data-name="Path 4307" d="M1801.121,601.909a31.632,31.632,0,0,0-34.341-7.568A1784.827,1784.827,0,0,1,1540.13,665.8V33.216c0-.975-.041-1.944-.12-2.9-1.84-22.693-26.392-36.294-47.4-27.454L1231.9,112.588a34.333,34.333,0,0,1-45.418-19.436l-8.769-23.085a34.319,34.319,0,0,0-32.091-22.124H664.306a34.319,34.319,0,0,0-32.091,22.124l-8.762,23.079a34.337,34.337,0,0,1-45.428,19.429L317.232,2.73c-19.952-8.4-43.451,3.359-46.962,24.7a35.891,35.891,0,0,0-.468,5.784V665.8A1784.442,1784.442,0,0,1,43.176,594.349a31.85,31.85,0,0,0-11.531-2.176h0A31.642,31.642,0,0,0,.025,625.094a158.859,158.859,0,0,0,19.754,69.948A149.056,149.056,0,0,0,53.7,735.933c15.94,13.454,35.188,24.17,57.209,31.843,3.387,1.187,6.956,2.411,10.678,3.659a30.228,30.228,0,0,0-4,17.847,129.106,129.106,0,0,0,18.958,56.91c16.984,27.168,43.12,46.154,77.676,56.433,2.8.842,5.764,1.7,8.858,2.582a30.171,30.171,0,0,0-3.135,17.3,129.17,129.17,0,0,0,20.621,56.334c13.194,19.787,31.305,34.913,54.006,45.185C358.276,1245.922,539,1418.935,765.925,1469.9a146.021,146.021,0,0,0,278.041.113c227.763-50.8,409.385-223.733,472.323-446.418,22.253-10.259,40.067-25.234,53.084-44.755a129.16,129.16,0,0,0,20.618-56.334,30.17,30.17,0,0,0-3.131-17.3c3.111-.883,6.089-1.753,8.909-2.6,34.5-10.262,60.634-29.248,77.622-56.416a129.159,129.159,0,0,0,18.961-56.91,30.254,30.254,0,0,0-4.005-17.847q5.619-1.883,10.732-3.68c21.97-7.653,41.218-18.369,57.158-31.823a149.1,149.1,0,0,0,33.914-40.891,158.854,158.854,0,0,0,19.754-69.948,31.747,31.747,0,0,0-8.782-23.184M1296,332.146a7.737,7.737,0,0,1,5.788-2.466h77.451a7.736,7.736,0,0,1,5.788,2.466,8.184,8.184,0,0,1,2.373,5.876,7.955,7.955,0,0,1-2.373,5.689,7.724,7.724,0,0,1-5.788,2.466H1359.12a9.393,9.393,0,0,0-9.3,9.29v92.14a8.066,8.066,0,0,1-2.441,5.88,7.893,7.893,0,0,1-5.815,2.462,7.592,7.592,0,0,1-5.723-2.462,8.225,8.225,0,0,1-2.346-5.88v-92.14a9.392,9.392,0,0,0-9.3-9.29h-22.4a7.724,7.724,0,0,1-5.788-2.466,7.942,7.942,0,0,1-2.373-5.689,8.17,8.17,0,0,1,2.373-5.876m-110.569,5.876a8.161,8.161,0,1,1,16.322,0v40.953a8.778,8.778,0,0,0,2.848,6.541,9.255,9.255,0,0,0,6.645,2.749h22.4a9.386,9.386,0,0,0,9.3-9.29V338.022a7.761,7.761,0,0,1,2.442-5.781,7.845,7.845,0,0,1,5.627-2.37,8.067,8.067,0,0,1,5.819,2.37,7.761,7.761,0,0,1,2.441,5.781V447.607a8.066,8.066,0,0,1-2.441,5.88,7.9,7.9,0,0,1-5.819,2.462,7.688,7.688,0,0,1-5.627-2.462,8.066,8.066,0,0,1-2.442-5.88V414.048a9.386,9.386,0,0,0-9.3-9.287h-22.4a9.269,9.269,0,0,0-6.645,2.749,8.781,8.781,0,0,0-2.848,6.538v33.559a8.18,8.18,0,0,1-2.373,5.88,8.038,8.038,0,0,1-11.579,0,8.163,8.163,0,0,1-2.37-5.88Zm-89.177-134.181a4.172,4.172,0,0,1,3.083-1.276h32.538a3.8,3.8,0,0,1,3.636,2.118,4,4,0,0,1,.2,4.239l-24.456,47.641a2.831,2.831,0,0,0,2.728,4.44h23.042a4.335,4.335,0,0,1,3.131,1.279,4.353,4.353,0,0,1,0,6.227,4.346,4.346,0,0,1-3.131,1.276h-35.171a4.161,4.161,0,0,1-3.739-2.121,3.888,3.888,0,0,1-.656-2.019,4.774,4.774,0,0,1,.454-2.22l24.456-47.637a2.961,2.961,0,0,0,.2-3.131,3.166,3.166,0,0,0-2.93-1.313h-20.31a4.159,4.159,0,0,1-3.083-1.276,4.469,4.469,0,0,1,0-6.227m-16.94,160.015a32.856,32.856,0,0,1,2.848-13.574,35.614,35.614,0,0,1,19.078-18.6,36.741,36.741,0,0,1,27.9-.007,35.617,35.617,0,0,1,19.078,18.58,32.766,32.766,0,0,1,2.848,13.557,8.2,8.2,0,0,1-13.952,5.8,7.768,7.768,0,0,1-2.373-5.74,17.289,17.289,0,0,0-1.526-7.155,18.762,18.762,0,0,0-4.2-5.931,19.1,19.1,0,0,0-6.3-3.949,20.762,20.762,0,0,0-7.628-1.415,19.974,19.974,0,0,0-7.536,1.422,19.276,19.276,0,0,0-6.2,3.983,18.86,18.86,0,0,0-4.2,5.972,17.506,17.506,0,0,0-1.523,7.2v58.585a17.5,17.5,0,0,0,1.523,7.206,18.9,18.9,0,0,0,4.2,5.972,19.324,19.324,0,0,0,6.2,3.98,19.975,19.975,0,0,0,7.536,1.422,20.7,20.7,0,0,0,7.628-1.422,18.811,18.811,0,0,0,10.493-9.952,17.5,17.5,0,0,0,1.526-7.206,7.959,7.959,0,0,1,2.373-5.689,8.038,8.038,0,0,1,11.579,0,7.973,7.973,0,0,1,2.373,5.689,33.406,33.406,0,0,1-2.848,13.652,36.306,36.306,0,0,1-46.982,18.672,36.1,36.1,0,0,1-11.391-7.5,35.639,35.639,0,0,1-7.687-11.2,33.5,33.5,0,0,1-2.848-13.669Zm-42.533-156.748a4.422,4.422,0,0,1,.912-2.728,3.9,3.9,0,0,1,2.424-1.514,3.976,3.976,0,0,1,2.78.2,4.257,4.257,0,0,1,2.073,1.917l20.717,38.555c.669,1.211,1.229,1.767,1.666,1.664s.656-.856.656-2.268V207.207a4.131,4.131,0,0,1,1.3-3.08,4.291,4.291,0,0,1,3.1-1.262,4.185,4.185,0,0,1,2.995,1.262,4.14,4.14,0,0,1,1.3,3.08v58.135a4.092,4.092,0,0,1-.949,2.677,4.619,4.619,0,0,1-2.342,1.565,3.468,3.468,0,0,1-1,.1,4.421,4.421,0,0,1-2.244-.6,4.3,4.3,0,0,1-1.649-1.715L1047.9,228.806c-.676-1.211-1.246-1.75-1.718-1.613s-.707.873-.707,2.22v35.929a4.347,4.347,0,1,1-8.694,0Zm-38.9,178.408a9.255,9.255,0,0,0,6.645,2.749h12.528a7.742,7.742,0,0,1,5.788,2.466,7.967,7.967,0,0,1,2.373,5.689,8.178,8.178,0,0,1-2.373,5.876,7.73,7.73,0,0,1-5.788,2.466H1004.53a9.294,9.294,0,0,0-6.645,2.732A8.721,8.721,0,0,0,995.038,414v16.026a8.916,8.916,0,0,0,2.848,6.695,9.284,9.284,0,0,0,6.645,2.735h39.862a8.149,8.149,0,0,1,5.883,2.4,8.162,8.162,0,0,1,0,11.7,8.143,8.143,0,0,1-5.883,2.394H988.014a9.392,9.392,0,0,1-9.3-9.287V338.97a9.392,9.392,0,0,1,9.3-9.29h56.379a8.2,8.2,0,0,1,5.883,2.37,7.725,7.725,0,0,1,2.469,5.784,8.425,8.425,0,0,1-8.352,8.342H1004.53a9.269,9.269,0,0,0-6.645,2.749,8.783,8.783,0,0,0-2.848,6.541v23.508a8.777,8.777,0,0,0,2.848,6.541M1009.806,206.9a4.345,4.345,0,1,1,8.69,0v58.339a4.345,4.345,0,0,1-1.263,3.127,4.273,4.273,0,0,1-6.164,0,4.345,4.345,0,0,1-1.263-3.127Zm-57.6.5a5.005,5.005,0,0,1,4.955-4.945H987.17a4.377,4.377,0,0,1,3.135,1.262,4.109,4.109,0,0,1,1.311,3.08,4.48,4.48,0,0,1-4.446,4.44H965.948a4.925,4.925,0,0,0-3.534,1.463,4.679,4.679,0,0,0-1.516,3.482v12.516a4.673,4.673,0,0,0,1.516,3.482,4.925,4.925,0,0,0,3.534,1.463h6.669a4.11,4.11,0,0,1,3.083,1.313,4.225,4.225,0,0,1,1.263,3.025,4.347,4.347,0,0,1-1.263,3.131,4.11,4.11,0,0,1-3.083,1.313h-6.669a4.943,4.943,0,0,0-3.534,1.453,4.648,4.648,0,0,0-1.516,3.465v8.533a4.754,4.754,0,0,0,1.516,3.564,4.943,4.943,0,0,0,3.534,1.453H987.17a4.338,4.338,0,0,1,3.135,1.279,4.353,4.353,0,0,1,0,6.227,4.334,4.334,0,0,1-3.135,1.276H957.159a5,5,0,0,1-4.955-4.945Zm-15.82,148.246a25.038,25.038,0,0,1-4.654,14.883,26.042,26.042,0,0,1-11.862,9.386A9.823,9.823,0,0,0,914.647,384q-1.424,2.558.283,5.972l28.478,53.848a8.508,8.508,0,0,1,.567,6.35A7.483,7.483,0,0,1,939.99,455a8.361,8.361,0,0,1-8.069-.191,6.95,6.95,0,0,1-2.943-3.223L893.1,383.524a1.282,1.282,0,0,1-.379-.948c-.126-.252-.792-.471-1.994-.662a27.631,27.631,0,0,0-4.272-.286c-1.642,0-3.036.921-4.173,2.749a12.515,12.515,0,0,0-1.711,6.732v56.88a8.163,8.163,0,1,1-16.325,0V334.612q0-2.087,2.756-3.509a14.065,14.065,0,0,1,6.546-1.422h36.827a24.739,24.739,0,0,1,10.063,2.087,28.114,28.114,0,0,1,8.352,5.593,24.843,24.843,0,0,1,5.6,8.246,25.673,25.673,0,0,1,1.994,10.047M894.606,206.9a4.345,4.345,0,1,1,8.69,0v21.8a4.673,4.673,0,0,0,1.516,3.482,4.933,4.933,0,0,0,3.538,1.463h11.924a5,5,0,0,0,4.951-4.945V206.9a4.127,4.127,0,0,1,1.3-3.076,4.173,4.173,0,0,1,3-1.262,4.288,4.288,0,0,1,3.1,1.262,4.127,4.127,0,0,1,1.3,3.076v58.339a4.294,4.294,0,0,1-1.3,3.127,4.2,4.2,0,0,1-3.1,1.313,4.093,4.093,0,0,1-3-1.313,4.3,4.3,0,0,1-1.3-3.127V247.379a5,5,0,0,0-4.951-4.945H908.35a4.933,4.933,0,0,0-3.538,1.463,4.673,4.673,0,0,0-1.516,3.482v17.864a4.345,4.345,0,0,1-1.263,3.127,4.273,4.273,0,0,1-6.163,0,4.345,4.345,0,0,1-1.263-3.127Zm-50.625.2a4.344,4.344,0,1,1,8.687-.01v48.77a4.775,4.775,0,0,0,1.516,3.574,4.929,4.929,0,0,0,3.538,1.46h14.249a4.173,4.173,0,0,1,3.083,1.279,4.469,4.469,0,0,1,0,6.227,4.17,4.17,0,0,1-3.083,1.276H848.324a4.306,4.306,0,0,1-4.343-4.341Zm-60.938-2.019q0-1.11,1.465-1.869a7.5,7.5,0,0,1,3.486-.757H807.6a13.187,13.187,0,0,1,5.354,1.112,14.946,14.946,0,0,1,4.446,2.977,13.17,13.17,0,0,1,2.981,4.389,13.667,13.667,0,0,1,1.062,5.351,13.345,13.345,0,0,1-2.476,7.922,13.869,13.869,0,0,1-6.317,5,5.243,5.243,0,0,0-2.78,2.169,3.263,3.263,0,0,0,.154,3.179l15.158,28.665a4.522,4.522,0,0,1,.3,3.383,3.954,3.954,0,0,1-2.121,2.572,4.441,4.441,0,0,1-4.292-.1,3.675,3.675,0,0,1-1.567-1.715l-19.1-36.236a.688.688,0,0,1-.2-.5c-.068-.133-.42-.252-1.062-.351a14.574,14.574,0,0,0-2.271-.153,2.62,2.62,0,0,0-2.226,1.463,6.687,6.687,0,0,0-.908,3.584v30.278a4.345,4.345,0,1,1-8.69,0Zm20.84,124.591a24.739,24.739,0,0,1,10.063,2.087,28.157,28.157,0,0,1,8.352,5.593,24.846,24.846,0,0,1,5.6,8.246,25.676,25.676,0,0,1,1.994,10.047,24.954,24.954,0,0,1-1.9,10.051,20.681,20.681,0,0,0,0,15.545,24.965,24.965,0,0,1,1.9,10.051v38.866a25.456,25.456,0,0,1-1.994,10.143,26.217,26.217,0,0,1-13.952,13.84,25.778,25.778,0,0,1-10.063,1.992H767.056a15.888,15.888,0,0,1-6.546-1.231q-2.756-1.233-2.752-2.94V334.612q0-2.087,2.752-3.509a14.064,14.064,0,0,1,6.546-1.422Zm-80.766-65.344L737.772,206.7a5.638,5.638,0,0,1,1.97-2.977,5.458,5.458,0,0,1,3.486-1.16,5.046,5.046,0,0,1,3.435,1.057,5.534,5.534,0,0,1,2.021,2.977l15.967,57.633a4.02,4.02,0,0,1-.4,3.281,4.378,4.378,0,0,1-2.629,2.07,2.84,2.84,0,0,1-1.212.2,4.1,4.1,0,0,1-2.578-.907,4.407,4.407,0,0,1-1.564-2.323l-2.325-8.277a5.934,5.934,0,0,0-2.373-3.383,6.542,6.542,0,0,0-3.893-1.361H739.9a6.72,6.72,0,0,0-6.167,4.843l-2.124,8.076a4.621,4.621,0,0,1-2.018,2.776,3.8,3.8,0,0,1-3.234.454,4.541,4.541,0,0,1-2.779-2.07,3.9,3.9,0,0,1-.458-3.277M668.448,206.9a4.345,4.345,0,1,1,8.69,0v15.647c0,1.344.017,2.507.051,3.482s.051,1.429.051,1.361c.065,0,.15-.1.253-.3a5.026,5.026,0,0,1,.454-.706c.2-.266.707-.839,1.516-1.715s1.649-1.848,2.527-2.926l14.352-17.363a3.983,3.983,0,0,1,2.93-1.562,4.458,4.458,0,0,1,3.234.958,3.981,3.981,0,0,1,1.564,2.926,4.441,4.441,0,0,1-.959,3.23l-13.338,16.05a7.434,7.434,0,0,0-1.567,4.038,7.031,7.031,0,0,0,.758,4.236l15.359,28.968a4.522,4.522,0,0,1,.3,3.383,3.927,3.927,0,0,1-2.223,2.572,4.476,4.476,0,0,1-2.022.5,4.17,4.17,0,0,1-3.838-2.319L682.9,241.523a5.612,5.612,0,0,0-2.069-2.473,1.5,1.5,0,0,0-1.97.153,7.078,7.078,0,0,0-1.212,2.926,17.571,17.571,0,0,0-.509,4.137v18.976a4.356,4.356,0,0,1-1.26,3.127,4.277,4.277,0,0,1-6.167,0,4.345,4.345,0,0,1-1.263-3.127Zm-33.7,131.5a8.319,8.319,0,0,1,1.9-5.119,8.912,8.912,0,0,1,4.746-2.462,7.384,7.384,0,0,1,5.317.379,7.8,7.8,0,0,1,3.8,3.98l25.057,56.5q1.705,3.6,3.889,3.6t3.7-3.6l24.486-56.5a7.758,7.758,0,0,1,3.8-3.98,8.356,8.356,0,0,1,5.5-.761,7.711,7.711,0,0,1,4.651,2.844,8.039,8.039,0,0,1,1.8,5.119V447.8a8.163,8.163,0,1,1-16.325,0V387.317q0-3.791-1.137-4.076t-2.66,3.318l-16.134,37.348a8.481,8.481,0,0,1-3.039,3.509,8.081,8.081,0,0,1-9.015.1,7.829,7.829,0,0,1-2.943-3.6l-17.083-38.3q-1.711-3.6-2.848-3.318t-1.141,4.076V447.8a8.163,8.163,0,1,1-16.325,0Zm-106.11-.379a8.156,8.156,0,0,1,2.373-5.876,8.034,8.034,0,0,1,11.579,0,8.163,8.163,0,0,1,2.37,5.866v84.6a15.131,15.131,0,0,0,1.52,6.719,17.57,17.57,0,0,0,4.176,5.491,19.381,19.381,0,0,0,6.266,3.69,22.444,22.444,0,0,0,15.185,0,19.42,19.42,0,0,0,6.266-3.69,17.611,17.611,0,0,0,4.173-5.491,15.13,15.13,0,0,0,1.52-6.719v-84.6a8.166,8.166,0,0,1,2.373-5.866,8.034,8.034,0,0,1,11.579,0,8.173,8.173,0,0,1,2.377,5.876v84.75a30.456,30.456,0,0,1-2.848,13.082,34.713,34.713,0,0,1-7.69,10.617,37.368,37.368,0,0,1-50.683,0,34.712,34.712,0,0,1-7.69-10.617,30.454,30.454,0,0,1-2.844-13.082ZM422.525,363.809a33.469,33.469,0,0,1,2.844-13.652,35.7,35.7,0,0,1,7.69-11.186,36.082,36.082,0,0,1,11.391-7.489,36.774,36.774,0,0,1,27.9,0,36.083,36.083,0,0,1,11.391,7.489,35.637,35.637,0,0,1,7.686,11.186,33.36,33.36,0,0,1,2.848,13.652,8.161,8.161,0,1,1-16.322,0,17.462,17.462,0,0,0-1.53-7.206,18.82,18.82,0,0,0-10.49-9.952,20.71,20.71,0,0,0-7.628-1.422,20.026,20.026,0,0,0-7.536,1.419,19.326,19.326,0,0,0-6.2,3.973,18.894,18.894,0,0,0-4.2,5.961,17.368,17.368,0,0,0-1.526,7.189v58.847a17.4,17.4,0,0,0,1.526,7.193,18.841,18.841,0,0,0,4.2,5.958,20.557,20.557,0,0,0,6.2,4.069,18.9,18.9,0,0,0,7.536,1.514,19.719,19.719,0,0,0,7.628-1.5,20.318,20.318,0,0,0,6.293-4.045,18.752,18.752,0,0,0,4.2-5.927,17.212,17.212,0,0,0,1.53-7.152v-3.2c0-1-.922-1.787-2.756-2.353a23.221,23.221,0,0,0-6.737-.846h-11.2a7.737,7.737,0,0,1-5.791-2.466,8.164,8.164,0,0,1-2.373-5.876,8.1,8.1,0,0,1,8.164-8.154h27.713a8.967,8.967,0,0,1,6.549,2.749,9.161,9.161,0,0,1,2.752,6.732v13.461a33.348,33.348,0,0,1-2.848,13.652,35.544,35.544,0,0,1-7.686,11.183,36.065,36.065,0,0,1-58.373-11.183,33.457,33.457,0,0,1-2.844-13.652ZM785.782,1341.47c-211.39-38.709-324.647-199.3-362.122-304.977-.837-2.374-1.509-4.795-2.226-7.2-37.534-6.715-71.97-14.279-95.135-20.49-66.715-17.741-79.165-69.406-81.477-89.2a5.2,5.2,0,0,1,5.3-5.784,5.918,5.918,0,0,1,1.424.177c53.34,13.488,103.791,24.784,155.294,34.248-.785-10.31-1.216-20.51-1.335-30.537-66.422-9.133-143.148-26.772-184.134-39.063-66.169-19.682-77.1-71.688-78.83-91.54a5.193,5.193,0,0,1,5.3-5.631,5.724,5.724,0,0,1,1.588.225c88.627,25.19,170.189,44.227,260.738,58.605,1.086-8.53,2.3-16.7,3.6-24.422-16.059-2.575-36.154-6.149-62.191-11.268-83.809-15.323-180.928-42.4-232.411-60.464-82.327-28.685-93.073-94.933-94.1-120.079a6.588,6.588,0,0,1,9-6.422c163.469,63.636,329.827,101.894,493.19,114.786-.208.914-.44,1.825-.686,2.735.782-.034,1.56-.068,2.342-.1a449.012,449.012,0,0,0-43.024,224.265c5.207,80.691,35.734,162,100.848,239.782,61.361,73.3,141.533,113.578,207.566,131.459q-4.507,5.238-8.509,10.89m204.578-34.1a145.942,145.942,0,0,0-170.787,0A385.32,385.32,0,0,1,630.767,1203.3c-73.241-73.151-113.578-170.41-113.578-273.859s40.337-200.712,113.578-273.863,170.619-113.439,274.2-113.439,200.958,40.288,274.2,113.439,113.574,170.41,113.574,273.863S1252.4,1130.148,1179.165,1203.3a385.336,385.336,0,0,1-188.806,104.07m700.414-563.216c-51.479,18.069-148.6,45.141-232.411,60.464-26.033,5.119-46.132,8.693-62.187,11.268,1.291,7.721,2.51,15.893,3.6,24.422,90.546-14.379,172.111-33.416,260.735-58.605a5.76,5.76,0,0,1,1.588-.225,5.193,5.193,0,0,1,5.3,5.631c-1.731,19.852-12.658,71.858-78.827,91.54-40.989,12.291-117.716,29.93-184.138,39.063-.116,10.027-.546,20.227-1.335,30.537,51.507-9.464,101.954-20.759,155.295-34.248a5.9,5.9,0,0,1,1.427-.177,5.2,5.2,0,0,1,5.293,5.784c-2.312,19.791-14.758,71.456-81.477,89.2-23.165,6.211-57.6,13.775-95.132,20.49-.717,2.4-1.39,4.826-2.23,7.2-37.476,105.677-150.732,266.268-362.119,304.977q-4.005-5.648-8.513-10.886c66.032-17.881,146.2-58.162,207.569-131.463,65.11-77.779,95.634-159.091,100.841-239.782a448.9,448.9,0,0,0-43.021-224.265c.785.031,1.564.065,2.342.1q-.369-1.366-.683-2.735c163.36-12.892,329.718-51.15,493.187-114.786a6.588,6.588,0,0,1,9,6.422c-1.024,25.145-11.774,91.393-94.1,120.079" transform="translate(-0.001 -0.002)" fill="#212639"/>
      </g>
    </g>
  </g>
</svg>
