<svg xmlns="http://www.w3.org/2000/svg" width="2560" height="1440" viewBox="0 0 2560 1440"><path data-name="Path 77" d="M0 0h2560v1440H0z" fill="#e5e5e5"/><g data-name="Group 88" font-family="ITCAvantGardePro-Bold, ITC Avant Garde Gothic Pro" font-weight="700"><text transform="translate(1402.902 1138.439)" fill="#fd0d1b" font-size="97"><tspan x="0" y="0">Bold</tspan></text><text data-name="Avant Garde Gothic Pro" transform="translate(216.902 1135.585)" fill="#222" font-size="96"><tspan x="0" y="0">Avant Garde Gothic Pro</tspan></text></g><path data-name="Intersection 2" d="M1309.944 692.433c0-140.094 96.853-255.977 241.258-255.977 52.756 0 111.557 19.895 140.1 67.457h1.735v-51.02h143.537v479.93h-143.541v-51.879h-1.735c-25.937 49.293-88.207 68.316-140.1 68.316-147.857.001-241.254-114.143-241.254-256.827zm143.552 1.715c0 66.6 51.875 121.07 119.335 121.07 70.048 0 120.2-53.605 120.2-122.785 0-70.051-51.021-121.941-121.069-121.941s-118.467 55.347-118.467 123.655zm1035.107 238.675V561.847h-70.915V452.894h70.915V292.917h71.391v639.906zm-260.3 0V670.817c0-53.621-10.381-99.453-75.225-99.453-66.593 0-82.163 43.242-82.163 100.3v261.159h-143.533V452.894h134.024v51.023h1.734c30.274-49.285 72.637-67.457 130.583-67.457 40.642 0 91.663 15.57 122.79 41.5 45.832 38.055 55.345 98.59 55.345 154.8v300.063zm-1241.782 0L814.445 452.894h148.728l91.662 299.2h1.735l91.662-299.2h148.742l-172.958 479.929zm-299.205 0-31.128-92.531h-222.23l-33.729 92.531H224.682l256.829-639.906h128.848l254.24 639.906zm-208.4-222.23H612.96l-65.724-218.781h-2.6z" fill="#fd0d1b"/></svg>