<svg xmlns="http://www.w3.org/2000/svg" width="2560" height="1440" viewBox="0 0 2560 1440">
  <g id="Group_99" data-name="Group 99" transform="translate(-42 -4412)">
    <rect id="Rectangle_119" data-name="Rectangle 119" width="2560" height="1440" transform="translate(42 4412)" fill="#2d2926"/>
    <path id="Path_116" data-name="Path 116" d="M20.328,188l3.542-13.552H50.05L53.746,188h20.02L39.732,79.276H35.42L0,188Zm8.162-30.8,8.316-30.646L45.122,157.2ZM80.08,188H94.71a68.644,68.644,0,0,0,9.7-.77,40.222,40.222,0,0,0,10.78-3.542,30.636,30.636,0,0,0,8.624-6.622c6.776-7.854,7.546-17.556,7.546-20.79,0-10.318-4.774-16.478-7.854-19.25a20.8,20.8,0,0,0-4.158-3.08l1.848-1.078a24.6,24.6,0,0,0,4.774-4.312c4.158-4.928,5.082-11.55,5.082-18.018,0-19.1-12.474-27.258-19.558-29.568-5.852-1.848-14.63-1.694-15.554-1.694H80.08ZM100.1,97.294c8.47-.154,13.244,5.7,13.244,14.014,0,5.7-3.08,11.4-8.778,13.4a18.409,18.409,0,0,1-5.852.616V97.294Zm-1.386,45.738a15.037,15.037,0,0,1,2.926.154,12.668,12.668,0,0,1,10.934,12.782c0,2-.924,9.394-7.392,12.32a24.322,24.322,0,0,1-6.468,1.386Zm85.162-64.218a50,50,0,0,0-6.622,1.232c-3.85.924-14.63,4-23.254,12.474-15.4,14.938-16.016,36.96-16.016,42.966,0,6.16.462,27.412,16.786,40.964A53.8,53.8,0,0,0,175.1,186.614a80.51,80.51,0,0,0,8.316,1.848l3.7-19.558c-6.468-1.232-9.394-2-12.32-3.388-7.546-3.7-16.632-12.474-16.632-31.416,0-10.934,2.156-17.248,4.62-21.406a24.831,24.831,0,0,1,12.32-11.088,27.409,27.409,0,0,1,10.318-2.618ZM195.734,188h11.55c12.782-.616,16.786-.77,23.408-3.542,12.628-5.236,17.71-15.4,19.712-19.866,6.006-12.936,6.006-25.256,6.006-30.184a86.22,86.22,0,0,0-.77-12.012c-.616-4.312-3.85-21.1-15.708-32.186a39.228,39.228,0,0,0-25.564-10.472c-1.848-.154-3.542-.308-5.236-.308l-13.4-.154Zm19.4-88.7c4,.154,6.776.616,10.01,3.08,5.544,4.312,11.7,15.554,11.7,32.494,0,17.71-5.39,28.182-12.782,31.878-3.08,1.54-5.39,1.694-8.778,1.848Zm96.4-1.54-1.694-18.48H266.42L266.112,188H309.54l1.848-17.556H285.824V142.416H306.46V124.86H285.824v-27.1ZM340.032,188V142.878h18.48V124.706h-18.48V97.756h27.412l-2.156-18.48h-44.66V188Zm89.782-69.916H411.8v49.28a19.351,19.351,0,0,1-8.778-1.386,23.636,23.636,0,0,1-6.776-5.236c-7.546-9.086-7.238-22.33-7.238-25.1,0-23.562,9.24-32.956,20.944-35.882,6.776-1.694,16.478-1.232,17.71-1.232l.154-19.4H423.5c-11.088,0-17.248,1.54-22.022,3.08-23.562,8.008-32.648,29.876-32.648,53.13,0,14.938,3.85,30.492,15.092,41.272a42.6,42.6,0,0,0,22.792,10.78c2.772.308,5.7.462,8.47.616h14.63Zm32.34,25.718h22.484V188H503.58V79.276H484.638V124.4H462.154V79.276H442.6V188h19.558ZM516.208,188h19.4V79.276h-19.4ZM558.1,154.274c0,3.08.308,8.47-1.694,11.242-2.464,3.388-8.932,3.234-9.24,3.234-.616,0-1.54-.154-2.926-.308v19.4a18.637,18.637,0,0,0,2.926.154c12.32,0,18.788-3.542,22.792-7.238,8.162-7.546,7.7-16.632,7.7-26.642V79.276H558.1ZM608.762,128.4l.924-49.126H590.128V188h19.558l-.924-51.282L630.168,188H652.19l-24.948-56.056L650.65,79.276H630.63Zm93.94,42.042h-26.18l.308-91.168H657.272V188H700.7Zm45.122-20.482L723.646,79.276h-5.082L706.09,188h17.864l4.928-46.97L744.744,188h4.774l15.862-46.662L770,188h18.172L776.93,79.276h-4.774Zm88.858-3.542L809.116,79.276H795.41V188h17.71l-.77-58.52L836.682,188h16.324V79.276h-16.94Zm92.862-11.4C930.16,107.766,924,91.9,913.99,83.742a25.85,25.85,0,0,0-16.478-6.006c-11.7.154-21.252,7.7-26.488,17.864-3.7,7.238-7.084,20.02-7.084,39.116,0,23.87,5.7,38.192,13.09,46.2,2.618,2.926,8.316,8.316,19.1,8.47a24.726,24.726,0,0,0,14.322-4.312,33.949,33.949,0,0,0,8.47-8.932C927.234,163.976,929.236,149.346,929.544,135.024Zm-18.48-1.386c-.308,14.63-2.926,25.564-6.314,30.492a10.858,10.858,0,0,1-8.624,5.082,10,10,0,0,1-7.854-4.312c-3.7-4.928-5.7-15.4-5.7-30.03,0-15.092,2.156-25.872,5.7-31.416,2.926-4.62,6.776-5.7,8.932-5.852a10.674,10.674,0,0,1,4.774,1.386c4.158,2.156,5.7,6.468,6.776,10.78C911.372,119.778,911.064,130.712,911.064,133.638ZM958.8,144.11c1.386,0,2.772.154,4.158.154a37.513,37.513,0,0,0,10.164-1.232c9.856-2.772,17.4-11.088,20.328-20.636a37.15,37.15,0,0,0,1.694-10.934c0-4.62-.77-17.248-12.32-25.564-8.47-6.16-17.71-6.468-27.566-6.622H939.708V188h19.25Zm0-46.816c2.772.154,6.468.154,9.24,1.078,3.08,1.078,8.778,4.774,8.778,13.4.154,6.776-3.85,13.09-10.78,14.63a37.451,37.451,0,0,1-7.238.308Zm86.394,36.344c-.308,14.014-2.464,24.486-5.39,29.568-2.772,4.62-6.622,6.006-9.086,6.006-4.466,0-7.546-4.312-8.008-5.082-4.928-7.084-6.16-21.868-6.16-30.184,0-14.014,2.772-24.486,5.544-29.414,2.926-5.236,6.776-6.776,9.24-6.93a8.75,8.75,0,0,1,5.082,1.694c4,2.464,5.39,6.776,6.468,11.088C1045.352,119.778,1045.2,131.02,1045.2,133.638Zm25.1,44.2-11.858-11.4c2.926-7.238,5.39-16.324,5.39-33.572,0-18.326-3.388-30.8-6.776-37.73-5.082-9.7-14.014-17.248-25.41-17.4-16.17,0-25.718,14.476-30.03,28.028-3.85,12.166-3.7,24.64-3.7,28.8,0,19.25,3.7,30.338,7.854,37.73,8.008,14.168,18.634,17.094,25.256,17.094a23.993,23.993,0,0,0,15.554-5.7l10.626,9.24ZM1074.458,188h19.558l-.616-47.432h4.928l11.7,47.432h20.944l-15.092-50.82c1.078-.77,4.62-2.618,7.238-5.852,5.7-6.93,5.852-16.786,5.852-19.25,0-9.856-3.388-16.94-5.544-20.02a24.35,24.35,0,0,0-5.39-5.7c-6.16-4.928-12.32-6.314-20.02-6.93-2.618-.154-5.082-.154-7.7-.154h-15.862ZM1093.4,97.91c6.468,0,9.24.462,12.166,2.464,3.7,2.618,4.928,7.084,4.928,11.4a14.51,14.51,0,0,1-1.848,7.854c-1.386,2.464-4.158,5.7-10.78,6.622a29.823,29.823,0,0,1-4.466.308Zm72.688,24.486c-3.08-3.234-5.852-6.006-7.7-10.164a15.144,15.144,0,0,1-1.232-5.236c0-6.006,5.236-9.548,10.626-9.548,3.388,0,9.7,1.232,16.016,6.93V82.51c-5.852-2.618-11.088-4.312-17.556-4.312a31.156,31.156,0,0,0-21.714,8.932,29.047,29.047,0,0,0-7.7,20.174c0,5.082.924,12.936,8.624,22.022,2,2.618,4.62,4.62,6.93,6.93l2.618,2.618,3.388,3.234c4.158,4.312,9.086,9.394,9.086,16.016a14.274,14.274,0,0,1-2.464,8.316c-3.234,3.85-8.162,4.158-9.548,4.158-5.544,0-11.858-3.542-15.862-7.238-.924-.924-1.694-1.848-2.464-2.772l-.154,23.562a52.617,52.617,0,0,0,21.252,4.774c20.636,0,26.8-15.862,28.49-22.946a28.455,28.455,0,0,0,.924-7.7c0-13.244-8.47-22.792-11.242-25.872-2.31-2.618-4.928-5.082-7.546-7.7Zm23.562-23.87,16.324-.154V188h19.558V98.372h16.016l-1.848-19.1h-48.048Zm57.75-19.25v72.688c-.154,8.932-.308,18.172,5.39,26.026,2.926,4,10.626,11.4,23.87,11.4,8.316,0,14.014-2.772,16.632-4.62a28.317,28.317,0,0,0,6.16-5.852c6.16-8.47,6.468-16.786,6.16-26.642v-73h-19.4v74.382c-.154,7.546-.308,11.55-3.08,14.63a8.9,8.9,0,0,1-6.314,2.464c-9.7,0-10.01-10.01-10.01-16.786V79.276Zm131.516,0h-19.25l-13.552,60.06-14.168-60.06h-20.02L1343.342,188h5.082Zm.154,0L1406.79,188h5.236l18.48-62.216L1449.14,188h4.928l27.72-108.724h-19.1l-13.4,60.368-16.016-60.368h-5.236l-15.708,60.214L1398.32,79.276Zm104.566,0,21.1,52.668L1482.558,188h20.02l12.936-34.65L1528.142,188h20.174l-22.946-56.364,20.174-52.36h-19.558L1514.9,109.922,1503.81,79.276Zm107.954,0-11.858,35.42-11.4-35.42h-19.558l21.252,53.438.308,55.286h18.942V132.868l20.79-53.592Zm22.022,18.018h34.034L1609.608,188h57.9l2.156-17.556H1637.02l38.654-91.168h-59.6ZM20.328,376l3.542-13.552H50.05L53.746,376h20.02L39.732,267.276H35.42L0,376Zm8.162-30.8,8.316-30.646L45.122,345.2Zm68.684-77.924H78.848v63.91c.154,16.478.154,23.87,3.7,31.57a36.774,36.774,0,0,0,4.774,7.238c5.236,5.39,11.4,7.392,18.942,7.392a21.781,21.781,0,0,0,17.094-6.93c8.778-8.624,11.4-22.176,11.4-34.034,0-1.386.462-27.566-14.63-36.806a16.537,16.537,0,0,0-9.394-2.464,24.575,24.575,0,0,0-13.4,4.158Zm19.4,66.99c.616,8.316-.616,14.784-2,17.864-2.31,5.082-6.006,6.776-8.316,6.776a7.319,7.319,0,0,1-4.62-1.694c-4-3.08-5.544-10.01-5.544-20.482,0-5.7.616-17.094,6.622-20.482a7.154,7.154,0,0,1,3.542-1.078C114.73,315.17,116.27,328.876,116.578,334.266ZM179.1,352.438a16.989,16.989,0,0,1-1.386,2.31c-.616.616-4.312,4.62-8.47,4.62a5.941,5.941,0,0,1-2.772-.616c-1.848-.77-3.388-2.31-4.774-6.468a51.3,51.3,0,0,1-1.848-14.476c0-9.548,2.464-17.864,4.928-20.482a4.818,4.818,0,0,1,3.7-1.694c3.542-.154,5.852,3.388,7.392,5.7l7.084-18.634c-2-1.54-6.776-5.7-14.322-5.852-14.014,0-27.1,14.322-27.1,42.2,0,26.334,11.858,38.192,25.256,38.192a23.572,23.572,0,0,0,12.936-3.85,12.746,12.746,0,0,0,2.31-1.694Zm62.678-85.162H223.762v34.5a20.9,20.9,0,0,0-1.848-1.848,18.051,18.051,0,0,0-10.01-2.772c-13.4,0-21.252,12.012-24.178,23.254-2.156,7.546-2,15.708-2,18.172,0,11.55,2.31,27.874,12.936,35.266a19.646,19.646,0,0,0,11.242,3.542,15.954,15.954,0,0,0,11.7-4.774,15.738,15.738,0,0,0,2-2.618l.154,6.006H241.78Zm-16.94,69.762c0,10.934-2,17.864-6.16,20.944a6.572,6.572,0,0,1-4.158,1.54,7.989,7.989,0,0,1-6.006-2.926c-5.7-6.314-5.082-20.174-5.082-20.636,0-7.854,1.232-11.858,3.08-15.092.616-1.232,2.926-5.852,8.008-5.852,2.618,0,6.314,1.386,8.47,6.93C224.378,325.95,224.686,332.88,224.84,337.038Zm68.222,10.934c-.308.924-3.388,7.854-8.162,10.626a10.86,10.86,0,0,1-5.236,1.386c-8.162,0-10.472-8.624-10.934-10.472a37.734,37.734,0,0,1-.924-7.546l35.112-.154c.154-2.772.308-5.7.308-8.47,0-18.326-6.776-28.644-13.706-33.11a20.3,20.3,0,0,0-11.088-3.08,25.471,25.471,0,0,0-17.094,6.622C250.1,314.4,250.1,334.882,250.1,337.5c0,12.628,3.234,21.56,5.852,26.026,4.466,8.316,12.474,13.86,22.022,13.86,10.626,0,17.248-6.776,19.712-9.394a33.738,33.738,0,0,0,5.236-7.084Zm-24.948-20.944c.462-3.85,1.078-8.624,4.62-11.088a6.884,6.884,0,0,1,4.312-1.386,7.775,7.775,0,0,1,4.466,1.54c4,3.234,3.7,10.01,3.7,10.78ZM328.482,376V315.016h8.778V298.538h-8.778V294.38a18.38,18.38,0,0,1,.308-4.62,21.508,21.508,0,0,1,1.386-2.618c2.464-2.772,5.852-2.464,7.084-2.464V265.89a38.761,38.761,0,0,0-10.318,1.386,21.983,21.983,0,0,0-9.086,5.39c-5.7,5.544-7.7,13.09-7.854,20.636V376Zm67.3-78.848a90.058,90.058,0,0,1-13.09,1.078,47.025,47.025,0,0,1-7.546-.77,43.066,43.066,0,0,0-5.544-.308c-11.858,0-17.71,5.236-21.1,8.932a30.025,30.025,0,0,0-7.238,20.02,29.464,29.464,0,0,0,7.546,20.482c-2.31,1.848-4.466,3.542-6.776,5.39l11.088,14.014c2.31-2.926,4-5.544,7.392-7.238a10.745,10.745,0,0,1,4.312-1.078c4.774,0,8.162,4,9.548,8.008a13.34,13.34,0,0,1,.77,4.774c0,5.544-3.08,10.934-9.394,11.088-4.312,0-9.086-2.926-12.628-11.242l-10.934,14.784c2.772,3.542,10.01,13.552,23.87,13.552a26.67,26.67,0,0,0,24.64-16.324,29.1,29.1,0,0,0,2.31-11.858c0-12.628-6.622-18.634-10.164-22.176a28.928,28.928,0,0,0,3.85-3.7,31.515,31.515,0,0,0,2.464-3.542,22.614,22.614,0,0,0,2.926-11.55c0-7.7-3.08-12.474-4.312-15.092a42.179,42.179,0,0,0,4.928-.77Zm-20.79,28.336c.154,4-.77,9.394-4.158,12.012a6.767,6.767,0,0,1-4,1.386c-3.7,0-8.162-3.7-8.162-11.7,0-4.62,1.694-12.32,8.162-12.32C370.524,314.862,374.682,317.788,374.99,325.488ZM421.344,376l-.462-49.742c.154-3.388-.154-7.546,3.08-9.856a7.414,7.414,0,0,1,4.62-1.386c5.852,0,6.622,4.158,6.93,6.314a35.111,35.111,0,0,1,0,4.158V376H453.53V322.408a19.635,19.635,0,0,0,.154-3.08c0-2.464.154-11.088-5.7-17.248a14.253,14.253,0,0,0-11.242-4.928c-8.778,0-13.244,5.236-15.4,7.7V267.276H403.172V376Zm42.812-77.462V376h18.172V298.538Zm0-24.024v18.172h18.172V274.514Zm49.588.154H495.572v18.018h18.172Zm0,23.87H495.572v68.376c0,4.774-.77,7.392-5.852,8.624v20.79a29.981,29.981,0,0,0,13.706-5.082c9.24-6.314,10.01-15.4,10.164-19.4.154-2.926.154-5.7.154-8.624Zm67.452,0H561.022L543.158,335.19V267.276H525.14V376h18.018V337.808L560.56,376H581.2l-18.942-39.578ZM604.142,376V267.276H586.278V376Zm89.936,0V320.56c-.308-7.854-.77-14.63-7.7-19.712a17.9,17.9,0,0,0-11.55-3.7,20.309,20.309,0,0,0-14.014,5.39,6.565,6.565,0,0,0-1.694,1.848,14.921,14.921,0,0,0-13.09-7.238c-8.162,0-11.7,4.158-14.014,6.622l-.154-5.236H614.768V376h17.248V328.26a43.189,43.189,0,0,1,.616-8.162c1.232-3.7,4.774-3.85,6.16-4,4.466,0,6.006,2.772,6.314,4.774.308,1.232.154,3.542.308,6.622V376H662.97V328.876c.154-5.7-.154-8.624,2.156-10.78a6.307,6.307,0,0,1,4.62-1.54c6.622,0,6.16,6.16,6.16,7.854V376Zm28.336,0V326.258c.154-4.774.616-6.468,2-8.47a7.012,7.012,0,0,1,5.7-2.772c6.622,0,6.776,6.314,6.776,11.088V376h18.018V322.408a19.635,19.635,0,0,0,.154-3.08c0-9.7-2.772-14.476-6.006-17.556a14.257,14.257,0,0,0-10.934-4.62c-9.086,0-13.4,5.852-15.4,8.316v-6.93H704.55V376Zm40.81-35.574c.462,10.472,2.772,21.868,10.472,29.568a24.32,24.32,0,0,0,32.34,2.31,25.455,25.455,0,0,0,5.7-6.468c6.93-10.934,6.622-27.874,6.622-30.338,0-17.864-4.928-27.412-11.4-32.956a23.4,23.4,0,0,0-15.092-5.39A26.542,26.542,0,0,0,775.544,303a32.34,32.34,0,0,0-5.544,6.16C762.608,320.252,763.224,337.962,763.224,340.426Zm16.632-1.232c-.154-12.32,1.694-20.636,7.238-23.562a7.614,7.614,0,0,1,4.312-1.078,9.156,9.156,0,0,1,7.546,3.85c2.31,3.542,3.234,9.24,3.388,18.172a64.873,64.873,0,0,1-1.54,14.63c-.462,1.694-2.156,8.778-9.394,8.932a8.889,8.889,0,0,1-8.008-4.62C781.242,352.13,780.164,347.51,779.856,339.194Zm64.834,57.6V373.228a25.841,25.841,0,0,0,14.014,4.158A17.875,17.875,0,0,0,866.1,376a22.1,22.1,0,0,0,7.084-5.544,36.348,36.348,0,0,0,4.62-7.392c1.694-3.85,4.62-13.4,4.62-25.1,0-2.31,0-18.788-6.16-29.568-3.542-6.314-10.164-11.242-17.71-11.242-6.468,0-9.548,2.772-13.552,7.392v-6.006H826.364V396.79Zm19.4-56.672a54.822,54.822,0,0,1-.77,7.854c-1.694,8.008-5.082,11.242-9.394,11.242a5.921,5.921,0,0,1-3.234-.77c-1.848-.77-3.7-2.31-5.236-6.622a48.087,48.087,0,0,1-2-13.706c0-8.008,1.386-14.322,2.772-17.094.462-1.078,2.772-5.39,7.546-5.39a8.127,8.127,0,0,1,6.16,2.926C863.016,322.408,864.556,329.492,864.094,340.118Zm62.062,56.672h18.48V298.538H926v6.006c-4-4.466-7.238-7.392-13.552-7.392-10.78,0-16.478,8.932-18.018,11.55-5.852,10.626-5.852,26.488-5.852,28.8,0,12.166,2.772,21.714,4.774,25.872,3.542,8.008,8.932,11.55,12.32,12.936a18.409,18.409,0,0,0,6.468,1.078,25.841,25.841,0,0,0,14.014-4.158Zm-19.4-56.518c-.308-6.16-.154-19.866,6.776-23.716a6.269,6.269,0,0,1,3.542-.924,7.354,7.354,0,0,1,4.62,1.54c2,1.386,4,4.312,4.928,9.7.616,4.158.924,10.472.924,11.088,0,8.932-2,15.246-4.158,18.018a7.813,7.813,0,0,1-6.314,3.234C909.062,359.214,907.06,348.126,906.752,340.272ZM973.126,376V333.8c.154-4.158-.154-4.62.616-7.084,2.156-7.7,12.012-7.238,13.244-7.238v-22.33c-2.31.308-8.47.924-12.166,7.084a41.529,41.529,0,0,0-2.31,5.7l.154-11.4H955.108V376Zm44.814-46.354c-3.85-3.85-5.852-6.006-5.852-8.778,0-4,3.234-6.16,6.776-6.314,2.464,0,6.314,1.54,8.316,2.618.924.462,1.694,1.078,2.618,1.54v-18.48c-6.006-2.772-9.856-3.08-12.936-3.08-8.316,0-17.094,3.7-21.1,11.242a22.892,22.892,0,0,0-2.618,10.78c0,9.086,4.158,14.476,9.548,21.252l2,2.156c1.232,1.386,5.39,5.7,6.468,7.238a7.942,7.942,0,0,1,1.232,4.158c.154,2.156-1.848,6.16-7.238,6.16-7.084,0-13.552-6.314-14.476-7.238v20.328c5.544,2.926,8.162,4.158,14.63,4.158a29.787,29.787,0,0,0,10.472-1.54,22.992,22.992,0,0,0,15.246-21.56c0-8.778-4.774-15.708-10.318-21.868Zm48.048,28.644c-2.156,0-4.774.154-6.776-1.232a2.538,2.538,0,0,1-1.232-1.54c-.462-1.232-.308-4.158-.308-5.39V315.016h8.316V298.538h-8.316V276.516c-7.238,6.006-9.394,7.7-17.556,12.32l-.154,9.7H1035.5v16.478h4.466v36.652c.154,1.694.154,3.234.154,4.774,0,2.31-.308,9.7,5.082,15.092,4,4,8.778,4.466,14.168,4.466h6.622Zm40.5-59.752-.462,49.742c0,5.082-.154,7.854-2,9.7a6.3,6.3,0,0,1-4.62,1.694c-5.544,0-6.93-3.542-7.392-5.7a14.493,14.493,0,0,1-.154-5.082V298.538h-18.172V355.21c0,9.394,2.772,14.168,5.7,17.248,2,2.156,5.236,4.928,11.858,4.928,7.392,0,10.626-3.234,12.782-5.852a15.984,15.984,0,0,0,1.848-2.618l.154,7.084h18.018V298.538Zm77.462,0h-17.864l-8.778,39.424-9.394-39.424H1129.59L1152.074,376h8.932Zm.616,0L1203.818,376h9.394l10.934-44.352L1235.08,376h8.316l20.174-77.462h-16.786l-8.932,40.656-9.24-40.656h-8.624l-9.24,40.81-9.086-40.81Zm79.926,0,19.712,38.808L1265.11,376h18.942l10.626-24.332L1305.15,376h19.25L1305,337.346l18.942-38.808h-18.172l-11.088,24.948-10.934-24.948Zm117.5,0H1364.44l-10.164,40.194-9.24-40.194h-18.942l19.558,65.3-10.164,33.11h17.864Zm49.126,0h-42.35L1386,314.246h21.1L1382.766,376h42.658l3.85-15.708H1407.1ZM64.064,511.332c0-11.858-.924-25.256-6.93-35.882C50.05,462.976,39.732,460.2,33.88,460.2c-17.864,0-30.8,20.174-30.8,53.746,0,3.08-.462,29.876,13.244,44.044a23.439,23.439,0,0,0,16.632,7.392c17.248-.154,24.486-18.326,25.872-21.56C63.91,530.582,64.064,515.182,64.064,511.332Zm-17.71-.154c.154,14.938-2.31,26.642-5.7,31.416a8.725,8.725,0,0,1-6.93,4,8.952,8.952,0,0,1-6.622-3.542c-3.7-4.62-6.16-15.708-6.16-30.184,0-.924,0-16.17,3.234-25.1,1.232-3.542,2.772-6.776,6.16-8.624a7.6,7.6,0,0,1,3.7-1.078c5.39,0,7.854,5.544,8.162,6.314C46.662,494.238,46.354,509.638,46.354,511.178Zm31.57-21.406a26.121,26.121,0,0,0,3.388-.616,35.9,35.9,0,0,0,10.164-4.774,9.394,9.394,0,0,0,2.464-1.848V564h18.326V461.59H98.252c-1.54,1.54-3.234,2.926-4.774,4.312a54.671,54.671,0,0,1-15.554,8.624Zm118.272,57.9-30.184.462,17.4-23.716c2.31-3.388,4.62-6.622,6.622-10.164a60.784,60.784,0,0,0,3.542-7.084,40.451,40.451,0,0,0,3.7-16.478c0-13.09-5.852-19.558-10.01-23.1a32.725,32.725,0,0,0-20.482-7.546,28.909,28.909,0,0,0-24.024,13.244A32.9,32.9,0,0,0,137.83,491c0,12.936,7.238,20.174,10.78,23.408a33.982,33.982,0,0,0,6.314,4.928l10.626-13.86c-2.156-1.078-11.4-5.236-11.4-14.938a14.741,14.741,0,0,1,1.232-5.852,12.528,12.528,0,0,1,11.4-7.084c4.312,0,12.628,2.618,12.628,14.014,0,7.238-3.85,13.09-4.928,15.092s-2.156,4-3.388,5.852c-2,3.234-4,6.314-6.16,9.24L134.75,564h57.9Zm23.254-55.44c1.694-8.162,4.158-11.55,8.162-13.4a10.582,10.582,0,0,1,4.62-1.232c6.93,0,10.164,6.622,10.78,8.316a18.3,18.3,0,0,1,.924,5.39,13.66,13.66,0,0,1-6.314,11.7,14.32,14.32,0,0,1-6.314,1.54,29.881,29.881,0,0,1-5.852-.616l.462,17.248a18.817,18.817,0,0,1,6.622-.924,13.131,13.131,0,0,1,4.466.616,14.2,14.2,0,0,1,8.008,8.47,12.584,12.584,0,0,1,.616,4.158,13.89,13.89,0,0,1-13.706,14.322c-6.776,0-10.626-5.544-11.858-7.238a22.868,22.868,0,0,1-3.388-5.852l-13.09,11.242a72.373,72.373,0,0,0,6.006,8.008c8.932,9.856,18.48,11.242,23.716,11.4a29.169,29.169,0,0,0,22.484-10.626,34.342,34.342,0,0,0,6.93-20.174,41.489,41.489,0,0,0-1.078-8.778,28.618,28.618,0,0,0-8.778-14.63,43.291,43.291,0,0,0,3.542-4.158,28.654,28.654,0,0,0,4.928-16.478,31.411,31.411,0,0,0-8.624-22.022,26.1,26.1,0,0,0-19.558-8.316c-6.468,0-16.016,1.54-24.332,13.706a74.585,74.585,0,0,0-4.158,7.392ZM323.4,498.7H306.152v25.1h-12.32L318.01,461.59H300.454l-30.03,77.462h35.728V564H323.4V539.052h6.468V523.806H323.4Zm66.22-20.328L396.7,461.59H347.578v57.134a16.428,16.428,0,0,1,3.08-2.156,27.335,27.335,0,0,1,12.474-3.234c10.318,0,17.864,7.392,17.864,17.71,0,6.16-2.926,12.936-8.624,16.016a14.713,14.713,0,0,1-7.392,1.694c-8.008,0-12.166-5.7-13.86-7.854-.462-.616-.924-1.232-1.54-2l-11.088,12.628c2.31,2.31,4.466,4.62,7.084,6.776a33.734,33.734,0,0,0,20.482,7.084c19.4-.154,27.566-14.938,29.722-20.79a41.665,41.665,0,0,0,2.464-14.322c0-15.708-8.008-24.178-12.936-28.028-8.932-6.622-18.172-5.544-22.022-5.39v-18.48Zm58.674-18.48c-6.622,3.388-8.162,4.466-11.4,6.93-25.256,19.25-27.72,46.662-27.72,57.442,0,20.174,7.238,31.262,14.784,36.5a24.578,24.578,0,0,0,14.322,4.62,25.938,25.938,0,0,0,18.018-7.392c10.626-10.318,10.626-27.1,10.626-30.492s0-13.86-5.7-23.254c-5.544-8.932-12.32-10.626-16.94-10.626-6.776,0-11.4,3.7-13.4,5.236a91.117,91.117,0,0,1,7.392-10.934c2-2.31,8.008-9.394,16.94-13.09a24.217,24.217,0,0,1,5.39-1.694Zm1.848,69.146c-.308,7.238-1.848,11.7-4,14.168a9.957,9.957,0,0,1-7.7,3.388,11.936,11.936,0,0,1-4.62-1.078,8.533,8.533,0,0,1-3.85-3.234c-3.388-4.774-3.234-13.244-3.234-13.86,0-6.93,1.54-11.4,3.388-13.86a11.484,11.484,0,0,1,8.624-3.85,10.86,10.86,0,0,1,5.236,1.386,10.338,10.338,0,0,1,3.234,2.772C450.758,519.648,450.142,528.426,450.142,529.042ZM505.736,564,530.53,461.59H473.4V479.3h34.8L487.256,564Zm51.59-53.438c-.616.616-4.312,3.542-7.084,6.468a28.648,28.648,0,0,0-7.854,19.25,29.269,29.269,0,0,0,16.632,26.334,31.51,31.51,0,0,0,12.782,2.772c4.466,0,15.554-1.078,23.408-10.934a31.423,31.423,0,0,0,6.776-18.788,26.822,26.822,0,0,0-8.47-19.4,55.041,55.041,0,0,0-6.314-5.082c2-1.694,10.01-7.392,12.628-16.632a21.248,21.248,0,0,0,1.078-7.238,27.239,27.239,0,0,0-10.472-21.252,28.326,28.326,0,0,0-17.71-5.852c-3.7,0-17.864.616-24.948,12.166a28.438,28.438,0,0,0,3.388,32.8A56.557,56.557,0,0,0,557.326,510.562Zm16.478-8.008c-5.236-3.08-12.474-8.008-12.474-15.092a10.324,10.324,0,0,1,6.776-9.856,11.314,11.314,0,0,1,4.774-.924A10.982,10.982,0,0,1,583.2,483.15a15.313,15.313,0,0,1,.924,4.312c0,6.16-6.622,12.166-7.238,12.628A24,24,0,0,1,573.8,502.554Zm-1.54,17.094c1.386.77,12.628,5.852,12.628,15.708a14.606,14.606,0,0,1-3.7,9.7,11.482,11.482,0,0,1-8.47,3.542,13.018,13.018,0,0,1-12.474-8.778,20.823,20.823,0,0,1-.77-4.466,15.4,15.4,0,0,1,.616-4C561.638,526.886,564.564,524.114,572.264,519.648Zm56.98,45.892c4.62-1.848,11.4-4.928,19.4-13.4a57.817,57.817,0,0,0,8.316-10.78c10.164-16.324,11.242-33.88,11.242-40.5,0-20.482-7.084-31.724-15.092-36.652a25.8,25.8,0,0,0-13.86-4,27.323,27.323,0,0,0-17.71,6.314c-5.236,4.62-11.55,14.63-11.55,31.108,0,16.632,5.852,25.872,11.7,30.338a18.874,18.874,0,0,0,10.934,4c6.776,0,11.55-3.85,13.244-5.236A119.139,119.139,0,0,1,639.1,537.05,47.413,47.413,0,0,1,622.006,550.6a31.748,31.748,0,0,1-5.7,1.848Zm-2-68.684c.154-8.932,2.31-14.168,5.852-16.478a9.416,9.416,0,0,1,5.082-1.54c5.082,0,7.854,4,8.624,5.236,2.464,4.62,2.464,12.628,2.464,13.4,0,.308.154,8.778-2.926,13.244a9.991,9.991,0,0,1-8.008,4,8.856,8.856,0,0,1-5.7-1.694C629.09,510.716,626.934,505.788,627.242,496.856Zm95.634-23.716H740.74V455.276H722.876Zm0,5.852v22.484c0,6.314-.77,8.47-3.85,13.86-.924,1.694-1.848,3.234-2.618,4.928l-2.156,3.7c-1.54,2.926-5.7,9.394-5.7,18.634,0,12.936,8.624,18.48,12.936,20.482a22.637,22.637,0,0,0,8.932,1.848c12.012,0,18.942-9.394,20.944-12.32a95.7,95.7,0,0,0,4.928-8.624l-12.936-9.7c-1.848,5.082-2.31,6.468-4.466,8.778-2.618,3.08-5.39,4-7.392,4-3.388,0-5.544-3.234-5.544-6.468,0-2.156.616-4.158,2.618-8.008,1.54-2.926,3.388-5.544,4.928-8.47a61.383,61.383,0,0,0,6.006-14.014,60.7,60.7,0,0,0,1.232-10.626V478.992Zm98.868,66.99H803.88V564h17.864Zm0-5.852V517.646c0-6.16.77-8.316,3.85-13.86.924-1.54,1.848-3.234,2.772-4.774l2-3.85a67.562,67.562,0,0,0,5.082-12.936,37.192,37.192,0,0,0,.616-5.852,21.4,21.4,0,0,0-13.552-20.482,23.159,23.159,0,0,0-8.316-1.54c-15.092-.154-22.33,14.476-24.024,17.556l-1.848,3.234L801.262,485c1.694-4.466,2.464-7.7,6.468-10.78a8.939,8.939,0,0,1,5.39-2c3.388,0,5.544,3.08,5.544,6.314,0,2.156-.616,4.312-2.618,8.162-1.54,2.772-3.388,5.544-4.928,8.316a61.741,61.741,0,0,0-6.006,14.168A77.215,77.215,0,0,0,803.88,519.8V540.13Zm73.766-66.682V455.276H877.492v18.172Zm0,90.552V479.762H877.338V564Zm54.978-18.172V564h17.864V545.828Zm0-90.552v84.546h17.864V455.276Zm118.58,83.16c1.848-3.08,3.7-6.006,5.544-9.086,1.848-2.926,3.388-5.852,4.928-8.778l-14.168-8.932a66.494,66.494,0,0,1-6.776,12.628l-8.778-10.78,5.082-4.62c5.236-5.082,9.086-8.162,11.7-15.246a22.576,22.576,0,0,0,1.694-8.47,24.359,24.359,0,0,0-14.322-22.022,28.476,28.476,0,0,0-10.934-2.156c-15.4,0-26.8,11.4-26.8,26.642,0,11.242,6.314,21.252,7.854,23.87-12.32,11.55-15.554,20.174-15.554,28.336a26.387,26.387,0,0,0,11.55,21.714c5.852,3.85,12.32,3.85,14.784,3.85a26.328,26.328,0,0,0,6.93-.924c8.162-2.31,16.17-11.242,16.94-12.166l10.318,13.09,12.782-10.472Zm-21.406,1.386a19.673,19.673,0,0,1-3.08,4c-3.7,3.7-6.93,4.774-9.394,4.774-5.082,0-8.624-4.466-8.624-9.394,0-4.774,3.542-9.394,6.622-12.474l2.31-1.848Zm-8.316-39.424c-1.232-1.232-5.852-6.314-5.852-12.936,0-1.54.308-7.392,5.544-10.01a9.58,9.58,0,0,1,4.312-1.078,8.568,8.568,0,0,1,8.162,5.852,6.991,6.991,0,0,1,.462,2.618c0,3.542-2,6.16-4.312,8.624A36.22,36.22,0,0,1,1039.346,500.4Zm162.316-5.39a26.59,26.59,0,0,0-3.7-5.544c-4.928-5.236-11.7-5.7-13.552-5.7-12.012,0-20.174,9.7-22.638,13.09-9.394,12.474-10.164,26.488-10.164,30.646a36.046,36.046,0,0,0,1.694,11.7c.77,2.464,3.7,9.548,11.088,12.628a24.234,24.234,0,0,0,8.316,1.54c10.78,0,17.864-8.624,20.482-11.7a18.975,18.975,0,0,0,1.54,5.7,13.523,13.523,0,0,0,11.55,6.16c3.85,0,10.934-1.232,18.48-8.624,16.94-16.17,17.864-41.58,17.864-46.046,0-25.256-15.862-36.96-25.718-40.964-8.47-3.388-18.018-3.542-20.328-3.542a68.426,68.426,0,0,0-54.362,26.642c-1.232,1.386-2.31,2.926-3.388,4.312a75.3,75.3,0,0,0-12.936,42.658c0,18.018,6.468,28.644,12.012,35.266a57.184,57.184,0,0,0,10.164,9.086c6.006,4.158,19.4,10.626,37.576,10.626a73.557,73.557,0,0,0,40.5-12.166,84.861,84.861,0,0,0,15.862-12.628l-6.16-7.854a94.988,94.988,0,0,1-8.316,7.392,108.907,108.907,0,0,1-9.394,6.16c-5.39,2.926-17.248,8.932-32.956,8.932-4.774,0-21.406-.308-34.65-11.7-6.776-5.852-14.014-15.554-14.014-33.418,0-25.872,14.938-42.812,23.408-49.742,5.082-4.158,18.326-13.4,35.42-13.4,19.1,0,28.952,9.548,32.956,18.326,3.388,7.084,3.388,14.476,3.388,16.94,0,11.7-4.158,26.95-12.782,36.96a17.858,17.858,0,0,1-6.622,5.236,8.558,8.558,0,0,1-2.31.462c-1.54,0-3.7-1.694-3.7-5.39,0-6.622,2.926-19.558,4.312-26.026l5.082-23.87H1203.51Zm-4.466,15.246a43.468,43.468,0,0,1-7.084,22.946c-4.774,6.468-10.164,8.316-13.4,8.316-4.928,0-11.088-3.7-11.088-14.168,0-2.772.462-14.168,7.084-23.562,4.62-6.93,10.164-8.162,12.936-8.162,4.928,0,9.24,3.85,10.78,8.778A21,21,0,0,1,1197.2,510.254Zm98.252-55.9c-1.694,2.618-6.622,10.318-6.622,20.174,0,2.618.77,13.86,7.7,21.252L1309.77,487a20.056,20.056,0,0,1-1.54-2.31,22.777,22.777,0,0,1-3.08-11.088c0-6.776,3.388-11.7,4.466-13.552Zm69.454,41.426a42.285,42.285,0,0,0,3.542-6.468,38.412,38.412,0,0,0,2.926-13.86c.154-8.778-4-16.324-5.544-18.634a21.948,21.948,0,0,0-2-2.464l-13.244,8.778c.462.77.924,1.386,1.386,2.156a34.438,34.438,0,0,1,1.54,3.234,18.6,18.6,0,0,1,1.694,7.7,24.655,24.655,0,0,1-4.62,13.86Zm61.292-12.628,4.774-28.8h-15.862l-4.774,28.8Zm20.79.154,4.774-28.952h-15.246l-5.236,28.952Zm59.444-.154,4.774-28.8h-15.708l-4.928,28.8Zm20.79.154,4.774-28.952h-15.4L1511.51,483.3ZM86.24,718.89v-15.4H67.3l2-14.476H89.628V673.768H71.456l4.312-30.492H60.522L55.9,673.768H40.81l4.312-30.492H29.26l-4.312,30.492H3.7v15.246h19.25l-2,14.476H.154v15.4H18.788L14.476,752H30.03l4.62-33.11H49.9L45.122,752h15.4L65.3,718.89ZM51.9,703.49H36.806l2-14.476H54.054Zm109.648-77.462H150.3v17.094a21.853,21.853,0,0,0-5.544,1.386,26.891,26.891,0,0,0-18.172,25.41c0,13.4,9.086,21.868,12.012,24.794,1.54,1.386,2.926,2.618,4.312,4,1.232,1.078,2.31,2.156,3.388,3.08.924.77,1.694,1.54,2.464,2.31l2.926,2.31c.154.308,7.392,6.314,10.318,10.934a12.055,12.055,0,0,1,2.31,6.468c0,4.928-4.774,11.242-15.4,11.242-12.166,0-21.406-7.7-24.178-9.856V746.61c2.464,1.232,5.082,2.618,7.7,3.7a57.769,57.769,0,0,0,14.476,3.08,26.105,26.105,0,0,0,3.388-.154v18.326h11.242V751.846A21.676,21.676,0,0,0,166.782,750a29.218,29.218,0,0,0,6.93-4.774,28.312,28.312,0,0,0,9.7-21.714c0-10.01-4.928-17.4-11.4-24.486a66.419,66.419,0,0,0-7.392-7.238l-4.466-3.85c-4.62-4.158-6.314-5.7-8.624-8.162-.462-.77-4.158-4.928-4.312-9.548a8.215,8.215,0,0,1,1.232-4.158c1.54-2.618,4.774-4.62,10.934-4.62,8.624,0,16.016,4,18.48,5.236V646.818c-3.7-1.848-7.7-3.7-16.324-4.466Zm91.107,89.8,5.414-13.009h5.715q-.226-3.459-.226-6.692,0-4.361.376-8.121H252.653L258.067,675h8.5q11.881-37.147,53.539-37.146a95.912,95.912,0,0,1,26.018,3.459v16.393a60.967,60.967,0,0,0-24.589-5.038q-24.965,0-32.108,22.333h49.554l-5.414,13.009H286.19a43.868,43.868,0,0,0-.376,6.467q0,4.662.3,8.347H327.4l-5.339,13.009H288.972q5.339,13.535,13.009,18.836t21.882,5.3q10.151,0,22.258-4.812v15.415q-11.5,4.211-27.371,4.211-41.733,0-52.787-38.951ZM426.067,752l53.9-103.642L469.8,643.276,415.9,746.764ZM540.8,640.35c-1.232,1.694-2.464,3.542-3.542,5.236a151.078,151.078,0,0,0-8.624,15.4c-3.7,7.7-10.934,22.792-10.934,44.506,0,15.092,3.234,28.336,9.24,42.2,4.158,9.856,8.008,15.862,14.168,24.64l12.474-11.55c-2.31-3.7-4.928-7.392-6.93-11.242-1.54-2.618-2.772-5.236-4-7.854a81.419,81.419,0,0,1-7.392-23.408,66.572,66.572,0,0,1-.924-11.858,91.061,91.061,0,0,1,1.232-13.86c3.388-20.328,14.168-35.42,18.018-41.272Zm63.91,131.978c2.926-4.158,5.852-8.316,8.316-12.628a109.306,109.306,0,0,0,6.314-12.782,101.148,101.148,0,0,0,8.778-41.272c0-16.324-3.7-30.03-10.78-44.66a150.717,150.717,0,0,0-12.166-20.636l-12.936,10.934c2.464,3.542,4.774,7.084,6.93,10.934,8.162,14.322,10.626,25.718,11.55,32.494a99.838,99.838,0,0,1,.924,11.7,84.056,84.056,0,0,1-4.158,24.794,78.622,78.622,0,0,1-4.312,10.472c-2.926,6.468-4.158,8.778-10.934,19.1Zm97.02-131.054H672.775V771.4h28.952V754.926h-11.55V657.752h11.55Zm66.374,0H739.3v16.632h11.4l-.154,97.02H739.3v16.632h28.8Zm58.366,46.97c0,10.318-.154,15.4-3.7,20.174-2.31,2.926-4.312,3.7-7.7,4.62v1.078c3.85,1.386,6.006,2.464,8.316,6.006,3.08,4.928,3.234,10.01,3.234,20.482v19.712c.154,9.24.308,13.706,2.156,18.018a18.281,18.281,0,0,0,8.47,9.086c4.62,2.31,11.242,2.926,22.022,3.08v-.924c-4.158-1.232-8.162-2.31-11.4-5.852-3.85-4-4.466-9.7-4.466-19.866V747.072c0-10.01,0-16.786-1.386-21.252a16.778,16.778,0,0,0-7.546-9.7,39.173,39.173,0,0,0-5.852-2.464,28.047,28.047,0,0,0,5.7-2.31,13.265,13.265,0,0,0,4.62-4.158c3.388-4.466,3.85-9.086,4-14.014.308-4.928.308-9.7.308-14.63V663.758c0-10.78.308-16.324,4.774-20.636,3.388-3.388,6.93-4.312,11.242-5.236v-1.078c-10.01.154-16.632.616-20.944,2.464a18.389,18.389,0,0,0-6.314,4.774,14.146,14.146,0,0,0-3.542,6.006c-1.694,4.466-1.848,9.394-2,19.1Zm102.256,50.974c0-9.24.308-13.86,2.464-18.172,2.772-5.236,6.93-6.16,8.932-6.776v-.924a26.111,26.111,0,0,1-4.62-2.156c-7.238-4.928-6.776-15.4-6.776-16.478-.154-2.618-.154-5.236-.154-7.854V667.146c-.154-11.858-.462-17.248-5.082-22.792-5.236-6.468-12.936-7.238-27.566-7.546v1.078c5.7,1.54,7.854,2.464,10.318,4.62,4.928,4.312,5.544,10.01,5.544,21.1V680.39c.154,4.62,0,9.24.308,14.014.308,6.622,1.848,10.01,4.312,12.936,2.31,2.772,4.466,4.466,10.318,6.468-4.62,1.386-6.468,2.31-8.47,4.158-3.7,3.542-5.39,7.392-6.006,16.17-.308,4.928-.308,9.7-.308,14.63V763.7c0,9.548-.308,14.784-3.234,18.942-3.388,4.466-7.854,5.7-12.782,6.93v.924c5.7,0,15.092.154,20.79-2.31a21.278,21.278,0,0,0,6.16-4.62,14.772,14.772,0,0,0,4-6.314c1.386-4,1.848-10.01,1.848-18.942Zm75.614-6.468H984.779V752h19.558Zm62.524.154-16.324.308-7.546,40.348,16.478-.154Zm127.974-.924c-3.388-6.006-4.62-14.014-4.928-15.862-.924-5.236-1.078-11.858-5.082-16.016-1.232-1.232-1.848-1.694-4.62-3.08,3.08-1.232,3.234-1.078,5.082-2.156a22.9,22.9,0,0,0,4.312-3.542,14.974,14.974,0,0,0,4-10.626,19.282,19.282,0,0,0-4.158-11.7c-6.006-7.238-15.708-6.776-24.024-6.776h-23.87V731.98h14.63V701.8h3.542c5.236.154,6.93.154,9.394,1.54,3.08,2,3.7,4.312,4.774,10.78.77,4.928,1.386,11.242,3.234,15.862.308.616.616,1.386.924,2Zm-38.654-41.888V673.46h10.78c4.158,0,8.624-.154,10.934,3.85a10.42,10.42,0,0,1,1.078,4.158,8.388,8.388,0,0,1-1.232,4.312c-1.848,3.542-5.39,4.312-12.628,4.312Zm64.68,7.854a54.3,54.3,0,0,0-54.67-55.132,54.929,54.929,0,0,0-42.5,19.558,53.809,53.809,0,0,0-12.474,35.112,54.578,54.578,0,0,0,21.252,43.736,55.741,55.741,0,0,0,33.572,11.242c7.7,0,27.258-2,41.734-19.25A54.656,54.656,0,0,0,1220.861,697.946Zm-4.928-.154a49.648,49.648,0,0,1-32.956,46.816,51.341,51.341,0,0,1-16.786,2.926,49.9,49.9,0,1,1,0-99.792,49.1,49.1,0,0,1,40.04,20.02A50.59,50.59,0,0,1,1215.933,697.792Zm141.218-24.332a52.538,52.538,0,0,0-6.006-5.7c-9.7-7.7-20.482-7.854-24.178-7.854a36.705,36.705,0,0,0-29.414,14.322,37.942,37.942,0,0,0-7.546,23.1c0,4.158.462,19.558,13.552,29.722a33.383,33.383,0,0,0,5.852,3.7,40.955,40.955,0,0,0,18.172,4,39.723,39.723,0,0,0,24.486-8.47c1.694-1.54,3.388-3.234,5.082-4.928l-11.088-10.164c-4.158,4-6.776,6.314-12.012,7.7a20.008,20.008,0,0,1-6.314.924c-4,0-16.478-1.232-20.944-14.63a22.443,22.443,0,0,1-1.232-7.854,21.825,21.825,0,0,1,6.314-16.324c6.006-6.006,13.706-6.16,15.708-6.16a23.452,23.452,0,0,1,14.784,5.544,39.3,39.3,0,0,1,3.7,3.542Zm24.024,24.486c0-13.09-4.774-27.72-14.938-38.346a55.026,55.026,0,1,0-75.46,79.926,55.391,55.391,0,0,0,75-3.542A55.629,55.629,0,0,0,1381.175,697.946Zm-5.082-.154a52.569,52.569,0,0,1-9.548,29.722,49.891,49.891,0,0,1-90.09-29.876,49.722,49.722,0,0,1,50.05-49.9,48.843,48.843,0,0,1,34.034,13.244C1375.015,674.384,1376.093,692.71,1376.093,697.792Z" transform="translate(259 4808)" fill="#f5f4f4"/>
    <path id="Path_115" data-name="Path 115" d="M14.642-85.764l.539-28.655H3.773V-51H15.181l-.539-29.913L27.128-51H39.974L25.421-83.7l13.654-30.721H27.4ZM69.617-51l.269-30.272c0-3.324.09-6.468-1.527-9.522a11.81,11.81,0,0,0-7.186-5.569,34.847,34.847,0,0,0-7.456-.629,54.6,54.6,0,0,0-5.48.269L47.16-86.931a61.821,61.821,0,0,1,6.557-.719c2.066,0,4.581.269,5.39,2.156.539,1.168.359,2.425.269,5.03a8.277,8.277,0,0,0-6.018-1.976c-8.354,0-11.139,7.276-11.767,9.612a25.464,25.464,0,0,0-.808,6.378c0,7.9,3.234,12.576,6.018,14.552a10.067,10.067,0,0,0,5.48,1.707,9.982,9.982,0,0,0,7.546-3.683V-51ZM59.556-67.349c0,2.156-.269,5.12-2.066,6.737a3.42,3.42,0,0,1-2.425.9c-2.336,0-4.491-1.8-4.491-6.468,0-.359-.269-4.4,1.8-6.468a3.284,3.284,0,0,1,2.515-1.078C57.041-73.727,59.466-71.84,59.556-67.349Zm27.038-47.07H75.9V-77.14c.09,9.612.09,13.923,2.156,18.415A21.45,21.45,0,0,0,80.845-54.5c3.054,3.144,6.647,4.312,11.049,4.312a12.7,12.7,0,0,0,9.971-4.042c5.12-5.03,6.647-12.935,6.647-19.852,0-.808.269-16.079-8.534-21.469a9.646,9.646,0,0,0-5.48-1.437,14.335,14.335,0,0,0-7.815,2.425ZM97.913-75.343c.359,4.851-.359,8.624-1.168,10.42-1.347,2.964-3.5,3.952-4.851,3.952a4.269,4.269,0,0,1-2.695-.988c-2.336-1.8-3.234-5.839-3.234-11.947,0-3.324.359-9.971,3.863-11.947a4.173,4.173,0,0,1,2.066-.629C96.835-86.482,97.733-78.487,97.913-75.343Zm39.255,7.995c-.18.539-1.976,4.581-4.761,6.2a6.335,6.335,0,0,1-3.054.808c-4.761,0-6.108-5.03-6.378-6.108a22.011,22.011,0,0,1-.539-4.4l20.481-.09c.09-1.617.18-3.324.18-4.941,0-10.69-3.952-16.708-7.995-19.313a11.844,11.844,0,0,0-6.468-1.8,14.857,14.857,0,0,0-9.971,3.863c-6.557,6.2-6.557,18.145-6.557,19.672,0,7.366,1.886,12.576,3.413,15.181a14.575,14.575,0,0,0,12.845,8.085c6.2,0,10.061-3.952,11.5-5.48a19.679,19.679,0,0,0,3.054-4.132ZM122.615-79.565c.269-2.246.629-5.03,2.695-6.468a4.016,4.016,0,0,1,2.515-.808,4.535,4.535,0,0,1,2.605.9c2.336,1.886,2.156,5.839,2.156,6.288ZM157.738-51v-63.419h-10.42V-51Zm25.511,0h8.534a40.039,40.039,0,0,0,5.659-.449,23.462,23.462,0,0,0,6.288-2.066,17.87,17.87,0,0,0,5.03-3.863,19.411,19.411,0,0,0,4.4-12.127,14.767,14.767,0,0,0-4.581-11.229,12.13,12.13,0,0,0-2.425-1.8l1.078-.629a14.351,14.351,0,0,0,2.785-2.515c2.425-2.874,2.964-6.737,2.964-10.51,0-11.139-7.276-15.9-11.408-17.247a34.491,34.491,0,0,0-9.073-.988H183.25Zm11.678-52.909c4.941-.09,7.725,3.324,7.725,8.174a8.088,8.088,0,0,1-5.12,7.815,10.738,10.738,0,0,1-3.413.359v-16.349Zm-.808,26.679a8.771,8.771,0,0,1,1.707.09,7.389,7.389,0,0,1,6.378,7.456c0,1.168-.539,5.48-4.312,7.186a14.188,14.188,0,0,1-3.773.808Zm50.753-5.48c-.18,8.174-1.437,14.283-3.144,17.247a6.459,6.459,0,0,1-5.3,3.5c-2.605,0-4.4-2.515-4.671-2.964-2.874-4.132-3.593-12.756-3.593-17.606,0-8.174,1.617-14.283,3.234-17.157,1.707-3.054,3.952-3.952,5.39-4.042a5.1,5.1,0,0,1,2.964.988c2.336,1.437,3.144,3.952,3.773,6.468A56.8,56.8,0,0,1,244.872-82.709Zm14.642,25.781L252.6-63.576c1.707-4.222,3.144-9.522,3.144-19.583,0-10.69-1.976-17.966-3.952-22.008-2.964-5.659-8.174-10.061-14.822-10.151-9.432,0-15,8.444-17.516,16.349a56.111,56.111,0,0,0-2.156,16.8c0,11.229,2.156,17.7,4.581,22.008,4.671,8.264,10.869,9.971,14.732,9.971a14,14,0,0,0,9.073-3.324l6.2,5.39Zm45.992-57.76a29.163,29.163,0,0,0-3.863.719,29.845,29.845,0,0,0-13.564,7.276c-8.983,8.713-9.342,21.559-9.342,25.062,0,3.593.27,15.989,9.791,23.894a31.381,31.381,0,0,0,11.857,5.929,46.962,46.962,0,0,0,4.851,1.078l2.156-11.408a28.168,28.168,0,0,1-7.186-1.976c-4.4-2.156-9.7-7.276-9.7-18.325,0-6.378,1.258-10.061,2.695-12.486a14.484,14.484,0,0,1,7.186-6.468,15.988,15.988,0,0,1,6.018-1.527Zm4.851,42.938c.27,6.108,1.617,12.756,6.108,17.247a13.642,13.642,0,0,0,10.151,4.312,13.668,13.668,0,0,0,8.713-2.964,14.849,14.849,0,0,0,3.324-3.773c4.042-6.378,3.863-16.259,3.863-17.7,0-10.42-2.875-15.989-6.647-19.223a13.652,13.652,0,0,0-8.8-3.144,15.482,15.482,0,0,0-9.522,3.413,18.865,18.865,0,0,0-3.234,3.593C310-83.518,310.356-73.188,310.356-71.75Zm9.7-.719c-.09-7.186.988-12.037,4.222-13.744a4.441,4.441,0,0,1,2.515-.629,5.341,5.341,0,0,1,4.4,2.246c1.347,2.066,1.886,5.39,1.976,10.6a37.839,37.839,0,0,1-.9,8.534c-.27.988-1.258,5.12-5.48,5.21a5.185,5.185,0,0,1-4.671-2.695C320.866-64.923,320.238-67.618,320.058-72.469ZM357.7-51V-80.015c.09-2.785.359-3.773,1.168-4.941a4.09,4.09,0,0,1,3.324-1.617c3.863,0,3.952,3.683,3.952,6.468V-51h10.51V-82.26a11.451,11.451,0,0,0,.09-1.8c0-5.659-1.617-8.444-3.5-10.24a8.316,8.316,0,0,0-6.378-2.695c-5.3,0-7.815,3.413-8.983,4.851v-4.042h-10.6V-51Zm56.412-63.419H403.6V-94.3a12.194,12.194,0,0,0-1.078-1.078,10.529,10.529,0,0,0-5.839-1.617c-7.815,0-12.4,7.007-14.1,13.564a39.224,39.224,0,0,0-1.168,10.6c0,6.737,1.347,16.259,7.546,20.571a11.459,11.459,0,0,0,6.557,2.066,9.306,9.306,0,0,0,6.827-2.785,9.182,9.182,0,0,0,1.168-1.527l.09,3.5h10.51Zm-9.881,40.692c0,6.378-1.168,10.42-3.593,12.217a3.833,3.833,0,0,1-2.425.9,4.66,4.66,0,0,1-3.5-1.707c-3.324-3.683-2.964-11.767-2.964-12.037,0-4.581.719-6.917,1.8-8.8.359-.719,1.707-3.413,4.671-3.413,1.527,0,3.683.808,4.941,4.042C403.957-80.194,404.137-76.152,404.227-73.727Zm39.794,6.378c-.18.539-1.976,4.581-4.761,6.2a6.335,6.335,0,0,1-3.054.808c-4.761,0-6.108-5.03-6.378-6.108a22.01,22.01,0,0,1-.539-4.4l20.481-.09c.09-1.617.18-3.324.18-4.941,0-10.69-3.952-16.708-7.995-19.313a11.844,11.844,0,0,0-6.468-1.8,14.857,14.857,0,0,0-9.971,3.863c-6.557,6.2-6.557,18.145-6.557,19.672,0,7.366,1.886,12.576,3.413,15.181a14.575,14.575,0,0,0,12.845,8.085c6.2,0,10.061-3.952,11.5-5.48A19.678,19.678,0,0,0,449.77-59.8ZM429.469-79.565c.269-2.246.629-5.03,2.695-6.468a4.016,4.016,0,0,1,2.515-.808,4.535,4.535,0,0,1,2.605.9c2.336,1.886,2.156,5.839,2.156,6.288ZM464.412-51V-80.015c.09-2.785.359-3.773,1.168-4.941a4.09,4.09,0,0,1,3.324-1.617c3.863,0,3.952,3.683,3.952,6.468V-51h10.51V-82.26a11.451,11.451,0,0,0,.09-1.8c0-5.659-1.617-8.444-3.5-10.24a8.316,8.316,0,0,0-6.378-2.695c-5.3,0-7.815,3.413-8.983,4.851v-4.042h-10.6V-51Zm39.435-27.038c-2.246-2.246-3.413-3.5-3.413-5.12,0-2.336,1.886-3.593,3.952-3.683a12.791,12.791,0,0,1,4.851,1.527c.539.269.988.629,1.527.9V-95.2a16.609,16.609,0,0,0-7.546-1.8c-4.851,0-9.971,2.156-12.306,6.557a13.353,13.353,0,0,0-1.527,6.288c0,5.3,2.425,8.444,5.569,12.4l1.168,1.258c.719.808,3.144,3.324,3.773,4.222a4.632,4.632,0,0,1,.719,2.425c.09,1.258-1.078,3.593-4.222,3.593-4.132,0-7.9-3.683-8.444-4.222v11.857c3.234,1.707,4.761,2.425,8.534,2.425a17.375,17.375,0,0,0,6.108-.9,13.411,13.411,0,0,0,8.893-12.576c0-5.12-2.785-9.162-6.018-12.756Zm35.662,10.69c-.18.539-1.976,4.581-4.761,6.2a6.335,6.335,0,0,1-3.054.808c-4.761,0-6.108-5.03-6.378-6.108a22.014,22.014,0,0,1-.539-4.4l20.481-.09c.09-1.617.18-3.324.18-4.941,0-10.69-3.952-16.708-7.995-19.313a11.844,11.844,0,0,0-6.468-1.8A14.857,14.857,0,0,0,521-93.129c-6.557,6.2-6.557,18.145-6.557,19.672,0,7.366,1.886,12.576,3.413,15.181a14.575,14.575,0,0,0,12.845,8.085c6.2,0,10.061-3.952,11.5-5.48a19.679,19.679,0,0,0,3.054-4.132ZM524.956-79.565c.27-2.246.629-5.03,2.695-6.468a4.016,4.016,0,0,1,2.515-.808,4.535,4.535,0,0,1,2.6.9c2.336,1.886,2.156,5.839,2.156,6.288Zm55.783-34.853h-10.51V-94.3a12.186,12.186,0,0,0-1.078-1.078,10.529,10.529,0,0,0-5.839-1.617c-7.815,0-12.4,7.007-14.1,13.564a39.226,39.226,0,0,0-1.168,10.6c0,6.737,1.347,16.259,7.546,20.571a11.459,11.459,0,0,0,6.557,2.066,9.306,9.306,0,0,0,6.827-2.785A9.182,9.182,0,0,0,570.14-54.5l.09,3.5h10.51Zm-9.881,40.692c0,6.378-1.168,10.42-3.593,12.217a3.833,3.833,0,0,1-2.425.9,4.66,4.66,0,0,1-3.5-1.707c-3.324-3.683-2.964-11.767-2.964-12.037,0-4.581.719-6.917,1.8-8.8.359-.719,1.707-3.413,4.671-3.413,1.527,0,3.683.808,4.941,4.042C570.589-80.194,570.768-76.152,570.858-73.727Z" transform="translate(259 4808)" fill="#ff0096"/>
  </g>
</svg>
