<svg xmlns="http://www.w3.org/2000/svg" xmlns:xlink="http://www.w3.org/1999/xlink" width="107.974" height="107.974" viewBox="0 0 107.974 107.974"><defs><clipPath id="a"><rect width="107.974" height="107.974" fill="none"/></clipPath></defs><g clip-path="url(#a)"><path d="M89.75,17.648V0H18.224V22.461H11.758V10.027H0v3.61H8.23v62.57h3.527V25.87h6.467V75.806c0,6.618,6.075,14.038,17.832,22.06a145.6,145.6,0,0,0,17.832,10.027h.392A146.764,146.764,0,0,0,72.113,97.867c11.758-8.022,17.832-15.442,17.832-22.06V30.684H76.424v3.409h9.994V75.806c0,5.415-5.683,12.033-16.265,19.052a126.108,126.108,0,0,1-16.069,9.225A136.868,136.868,0,0,1,37.82,94.858c-10.582-7.22-16.265-13.838-16.265-19.052V25.87H48.99V22.461H21.556V3.409H86.222V17.648Z" fill="#383838"/><path d="M67.332,5V17.434H30.1v3.409H67.332V71.18H70.86V8.61h8.23V5Z" transform="translate(28.884 5.027)" fill="#383838"/><path d="M14.4,5v7.621h3.331V8.61H38.5v35.7H26.354V33.879h8.818V30.469H18.907v3.409h4.115V67.771H18.907V71.18H35.172V67.771H26.354V47.716H38.307v35.9H34.388v3.61H45.95v-3.61H41.834v-35.9h8.426a8.094,8.094,0,0,1,3.919,1.2c2.547,1.6,3.723,4.613,3.723,8.623s-1.372,7.019-3.723,8.623a8.287,8.287,0,0,1-3.919,1.2H45.166v3.81h5.095a11.379,11.379,0,0,0,5.487-1.8c2.547-1.6,5.487-4.813,5.487-11.632S58.3,47.516,55.748,46.112h-.2A8.738,8.738,0,0,0,58.1,39.093a8.943,8.943,0,0,0-2.352-6.417,7.939,7.939,0,0,0-5.291-2.206H45.166v3.409h5.095a4.645,4.645,0,0,1,2.939,1.2,5.493,5.493,0,0,1,1.372,4.011,4.487,4.487,0,0,1-.948,3.653,4.27,4.27,0,0,1-3.363,1.561H41.834V8.61H62.606v4.011h3.331V5Z" transform="translate(13.818 5.027)" fill="#383838"/></g></svg>