<?xml version="1.0" encoding="utf-8"?>
<!-- Generator: Adobe Illustrator 26.0.1, SVG Export Plug-In . SVG Version: 6.00 Build 0)  -->
<svg version="1.1" id="Layer_1" xmlns="http://www.w3.org/2000/svg" xmlns:xlink="http://www.w3.org/1999/xlink" x="0px" y="0px"
	 viewBox="0 0 180 180" style="enable-background:new 0 0 180 180;" xml:space="preserve">
<style type="text/css">
	.st0{clip-path:url(#SVGID_00000154415098155919596480000011853687952206009249_);}
	.st1{clip-path:url(#SVGID_00000108291823479221661550000017529303893696668068_);fill:#272724;}
</style>
<g id="tghb_00000134969717584512930830000013879212188305068433_">
	<g>
		<defs>
			<rect id="SVGID_1_" x="12.6" y="16" width="154.8" height="151.3"/>
		</defs>
		<clipPath id="SVGID_00000023282238342166765270000014403097815274803108_">
			<use xlink:href="#SVGID_1_"  style="overflow:visible;"/>
		</clipPath>
		<g style="clip-path:url(#SVGID_00000023282238342166765270000014403097815274803108_);">
			<defs>
				<rect id="SVGID_00000008865539035784810760000014693135749119474356_" x="12.6" y="16" width="154.8" height="151.3"/>
			</defs>
			<clipPath id="SVGID_00000142891200742608171030000001980328603418734478_">
				<use xlink:href="#SVGID_00000008865539035784810760000014693135749119474356_"  style="overflow:visible;"/>
			</clipPath>
			<path style="clip-path:url(#SVGID_00000142891200742608171030000001980328603418734478_);fill:#272724;" d="M141.3,40.8V16H38.7
				v31.5h-9.4V30.2H12.6V35h11.9v87.8h4.8V52.3h9.4v69.9c0,9.4,8.6,19.8,25.5,30.9c12.1,8,25.3,14,25.5,14.1l0.2,0.1l0.2-0.1
				c0.1,0,13.5-6.1,25.6-14.1c17-11.2,25.6-21.6,25.6-30.9V58.9h-19.2v4.9h14.3v58.4c0,7.5-8.1,16.8-23.3,26.8
				c-10.2,6.7-20.5,11.7-22.9,13c-2.9-1.4-13.3-6.4-23.3-13c-15.2-10.1-23.2-19.3-23.2-26.8V52.3h39.1v-4.9H43.6V20.9h92.8v20H141.3
				z"/>
			<polygon style="clip-path:url(#SVGID_00000142891200742608171030000001980328603418734478_);fill:#272724;" points="150.6,30.2 
				150.6,47.5 97.3,47.5 97.3,52.3 150.6,52.3 150.6,122.8 155.5,122.8 155.5,35 167.4,35 167.4,30.2 			"/>
			<path style="clip-path:url(#SVGID_00000142891200742608171030000001980328603418734478_);fill:#272724;" d="M52.9,30.2v10.7h4.9
				V35h29.8v50.1H70.3V70.5h12.4v-4.9H59.6v4.9h5.9v47.4h-5.9v4.8h23.1v-4.8H70.3V90h17.3v50.3h-5.9v4.9h16.5v-4.9h-5.9V90h12.2
				c0,0,2.8,0.1,5.5,1.8c3.6,2.3,5.4,6.4,5.4,12.2c0,5.8-1.8,9.9-5.4,12.2c-2.7,1.7-5.5,1.8-5.5,1.8h-7.4v4.8h7.4
				c0.2,0,4.1,0,7.9-2.4c3.5-2.2,7.8-6.8,7.8-16.4c0-9.6-4.3-14.2-7.8-16.4c-0.2-0.1-0.4-0.3-0.6-0.4c0.1-0.1,0.3-0.3,0.4-0.4
				c2.1-2.1,3.2-5.1,3.2-8.8c0-3.8-1.1-6.9-3.3-9.1c-3.1-3.1-7.2-3.2-7.7-3.2h-7.4v4.9h7.4c0,0,2.5,0.1,4.3,1.8
				c1.3,1.2,1.9,3.1,1.9,5.6c0,7-5.5,7.2-6.2,7.2H92.4V35h29.8v5.8h4.9V30.2H52.9z"/>
		</g>
	</g>
</g>
</svg>
