<svg id="Layer_1" data-name="Layer 1" xmlns="http://www.w3.org/2000/svg" xmlns:xlink="http://www.w3.org/1999/xlink" viewBox="0 0 27.2 26.57"><defs><clipPath id="clip-path" transform="translate(-2.4 -3.38)"><rect x="2.4" y="3.38" width="27.2" height="26.57" style="fill:none"/></clipPath></defs><g id="tghb"><g style="clip-path:url(#clip-path)"><g style="clip-path:url(#clip-path)"><path d="M25,7.74V3.38H7V8.9H5.35v-3H2.4v.85H4.5V22.13h.85V9.75H7V22c0,1.64,1.51,3.47,4.48,5.43a39.16,39.16,0,0,0,4.47,2.47l0,0,.05,0a38.83,38.83,0,0,0,4.48-2.47c3-2,4.5-3.79,4.5-5.43V10.92H21.64v.85h2.51V22c0,1.31-1.42,2.94-4.09,4.71-1.8,1.18-3.61,2.05-4,2.29a33.38,33.38,0,0,1-4.1-2.29C9.26,25,7.85,23.35,7.85,22V9.75h6.87V8.9H7.85V4.23h16.3V7.74Z" transform="translate(-2.4 -3.38)" style="fill:#272724"/><polygon points="24.25 2.48 24.25 5.53 14.88 5.53 14.88 6.38 24.25 6.38 24.25 18.75 25.1 18.75 25.1 3.34 27.2 3.34 27.2 2.48 24.25 2.48" style="fill:#272724"/><path d="M9.49,5.86V7.74h.85v-1h5.23v8.8h-3V12.94h2.18v-.85H10.66v.85h1v8.34h-1v.85h4.06v-.85H12.54V16.36h3V25.2h-1v.85h2.9V25.2h-1V16.36h2.15a2.23,2.23,0,0,1,1,.31,2.39,2.39,0,0,1,.95,2.15A2.36,2.36,0,0,1,19.54,21a2.16,2.16,0,0,1-1,.32H17.28v.85h1.29A2.9,2.9,0,0,0,20,21.7a3.09,3.09,0,0,0,1.38-2.88A3.12,3.12,0,0,0,20,15.93l-.1-.06.08-.07a2.12,2.12,0,0,0,.57-1.55,2.18,2.18,0,0,0-.59-1.6,2.07,2.07,0,0,0-1.35-.56H17.28v.85h1.29a1.21,1.21,0,0,1,.75.32,1.34,1.34,0,0,1,.33,1,1.1,1.1,0,0,1-1.08,1.26H16.42V6.71h5.23v1h.86V5.86Z" transform="translate(-2.4 -3.38)" style="fill:#272724"/></g></g></g></svg>